<?xml version='1.0' encoding='UTF-8' standalone='no'?>
<svg version="1.2" xmlns:xlink="http://www.w3.org/1999/xlink" viewBox="0 0 60 60" xmlns="http://www.w3.org/2000/svg" width="12.7mm" height="12.7mm" baseProfile="tiny">
    <style id="current-color-scheme" type="text/css">.ColorScheme-Text {color:#fcfcfc;}</style>
    <title>Qt SVG Document</title>
    <desc>Auto-generated by Klassy window decoration</desc>
    <defs/>
    <g stroke-linejoin="bevel" stroke-linecap="square" fill="none" stroke-width="1" stroke="black" fill-rule="evenodd">
        <g font-weight="400" class="ColorScheme-Text" font-size="16.6667" fill="currentColor" transform="matrix(3.33333,0,0,3.33333,0,0)" font-style="normal" stroke="none" font-family="Noto Sans" fill-opacity="1">
            <path vector-effect="none" fill-rule="nonzero" d="M4.5,12.2994 L8.4,12.2994 C8.7317,12.2994 9.0006,12.5683 9.0006,12.9 C9.0006,13.2317 8.7317,13.5006 8.4,13.5006 L4.5,13.5006 C4.1683,13.5006 3.8994,13.2317 3.8994,12.9 C3.8994,12.5683 4.1683,12.2994 4.5,12.2994 "/>
            <path vector-effect="none" fill-rule="nonzero" d="M4.5,8.0994 L8.4,8.0994 C8.7317,8.0994 9.0006,8.3683 9.0006,8.7 C9.0006,9.0317 8.7317,9.3006 8.4,9.3006 L4.5,9.3006 C4.1683,9.3006 3.8994,9.0317 3.8994,8.7 C3.8994,8.3683 4.1683,8.0994 4.5,8.0994 "/>
            <path vector-effect="none" fill-rule="nonzero" d="M4.5,3.8994 L13.5,3.8994 C13.8317,3.8994 14.1006,4.1683 14.1006,4.5 C14.1006,4.8317 13.8317,5.1006 13.5,5.1006 L4.5,5.1006 C4.1683,5.1006 3.8994,4.8317 3.8994,4.5 C3.8994,4.1683 4.1683,3.8994 4.5,3.8994 "/>
            <path vector-effect="none" fill-rule="nonzero" d="M14.1006,6.6 L14.1006,14.4 C14.1006,14.7317 13.8317,15.0006 13.5,15.0006 C13.1683,15.0006 12.8994,14.7317 12.8994,14.4 L12.8994,6.6 C12.8994,6.2683 13.1683,5.9994 13.5,5.9994 C13.8317,5.9994 14.1006,6.2683 14.1006,6.6 "/>
            <path vector-effect="none" fill-rule="nonzero" d="M11.0091,7.94399 L13.1091,6.14399 L13.5,5.80896 L13.8909,6.14399 L15.9909,7.94399 C16.2427,8.15986 16.2719,8.53902 16.056,8.79087 C15.8401,9.04271 15.461,9.07188 15.2091,8.85601 L13.1091,7.05601 L13.5,6.6 L13.8909,7.05601 L11.7909,8.85601 C11.539,9.07188 11.1599,9.04271 10.944,8.79087 C10.7281,8.53902 10.7573,8.15986 11.0091,7.94399 "/>
        </g>
    </g>
</svg>
