<?xml version='1.0' encoding='UTF-8' standalone='no'?>
<svg version="1.2" xmlns:xlink="http://www.w3.org/1999/xlink" viewBox="0 0 60 60" xmlns="http://www.w3.org/2000/svg" width="12.7mm" height="12.7mm" baseProfile="tiny">
    <style id="current-color-scheme" type="text/css">.ColorScheme-Text {color:#fcfcfc;}</style>
    <title>Qt SVG Document</title>
    <desc>Auto-generated by Klassy window decoration</desc>
    <defs/>
    <g stroke-linejoin="bevel" stroke-linecap="square" fill="none" stroke-width="1" stroke="black" fill-rule="evenodd">
        <g font-weight="400" class="ColorScheme-Text" font-size="16.6667" fill="currentColor" transform="matrix(3.33333,0,0,3.33333,24.5,24.5)" font-style="normal" stroke="none" font-family="Noto Sans" fill-opacity="0.650004">
            <rect y="0" x="0" width="3.3" height="3.3"/>
        </g>
        <g font-weight="400" class="ColorScheme-Text" font-size="16.6667" fill="currentColor" transform="matrix(3.33333,0,0,3.33333,24.5,24.5)" font-style="normal" stroke="none" font-family="Noto Sans" fill-opacity="0.850004">
            <path vector-effect="none" fill-rule="nonzero" d="M0,-0.45045 L3.3,-0.45045 L3.75045,0 L3.75045,3.3 L3.3,3.75045 L0,3.75045 L-0.45045,3.3 L-0.45045,0 L0,-0.45045 M0.45045,0 L0.45045,3.3 L0,3.3 L0,2.84955 L3.3,2.84955 L3.3,3.3 L2.84955,3.3 L2.84955,0 L3.3,0 L3.3,0.45045 L0,0.45045 L0,0 L0.45045,0"/>
        </g>
    </g>
</svg>
