<?xml version='1.0' encoding='UTF-8' standalone='no'?>
<svg baseProfile="tiny" height="12.7mm" version="1.2" viewBox="0 0 60 60" width="12.7mm" xmlns="http://www.w3.org/2000/svg" xmlns:xlink="http://www.w3.org/1999/xlink">
    <style id="current-color-scheme" type="text/css">.ColorScheme-Text {color:#fcfcfc;}</style>
    <title>Qt SVG Document</title>
    <desc>Auto-generated by Klassy window decoration</desc>
    <defs/>
    <g fill="none" fill-rule="evenodd" stroke="black" stroke-linecap="square" stroke-linejoin="bevel" stroke-width="1">
        <g class="ColorScheme-Text" fill="currentColor" fill-opacity="0.450004" font-family="Noto Sans" font-size="16.6667" font-style="normal" font-weight="400" stroke="none" transform="matrix(3.33333,0,0,3.33333,25,25)">
            <rect height="3.3" width="3.3" x="0" y="0"/>
        </g>
        <g class="ColorScheme-Text" fill="currentColor" fill-opacity="0.902495" font-family="Noto Sans" font-size="16.6667" font-style="normal" font-weight="400" stroke="none" transform="matrix(3.33333,0,0,3.33333,25,25)">
            <path d="M0,-0.75075 L3.3,-0.75075 L4.05075,0 L4.05075,3.3 L3.3,4.05075 L0,4.05075 L-0.75075,3.3 L-0.75075,0 L0,-0.75075 M0.75075,0 L0.75075,3.3 L0,3.3 L0,2.54925 L3.3,2.54925 L3.3,3.3 L2.54925,3.3 L2.54925,0 L3.3,0 L3.3,0.75075 L0,0.75075 L0,0 L0.75075,0" fill-rule="nonzero" vector-effect="none"/>
        </g>
    </g>
</svg>
