<?xml version='1.0' encoding='UTF-8' standalone='no'?>
<svg width="12.7mm" viewBox="0 0 60 60" baseProfile="tiny" xmlns="http://www.w3.org/2000/svg" xmlns:xlink="http://www.w3.org/1999/xlink" version="1.2" height="12.7mm">
    <style id="current-color-scheme" type="text/css">.ColorScheme-Text {color:#fcfcfc;}</style>
    <title>Qt SVG Document</title>
    <desc>Auto-generated by Klassy window decoration</desc>
    <defs/>
    <g stroke-linecap="square" fill-rule="evenodd" stroke-linejoin="bevel" stroke-width="1" fill="none" stroke="black">
        <g class="ColorScheme-Text" font-weight="400" font-family="Noto Sans" font-size="16.6667" transform="matrix(3.33333,0,0,3.33333,0,0)" fill-opacity="1" fill="currentColor" font-style="normal" stroke="none">
            <path fill-rule="nonzero" vector-effect="none" d="M4.5,12.3 L8.4,12.3 C8.73137,12.3 9,12.5686 9,12.9 C9,13.2314 8.73137,13.5 8.4,13.5 L4.5,13.5 C4.16863,13.5 3.9,13.2314 3.9,12.9 C3.9,12.5686 4.16863,12.3 4.5,12.3 "/>
            <path fill-rule="nonzero" vector-effect="none" d="M4.5,8.1 L8.4,8.1 C8.73137,8.1 9,8.36863 9,8.7 C9,9.03137 8.73137,9.3 8.4,9.3 L4.5,9.3 C4.16863,9.3 3.9,9.03137 3.9,8.7 C3.9,8.36863 4.16863,8.1 4.5,8.1 "/>
            <path fill-rule="nonzero" vector-effect="none" d="M4.5,3.9 L13.5,3.9 C13.8314,3.9 14.1,4.16863 14.1,4.5 C14.1,4.83137 13.8314,5.1 13.5,5.1 L4.5,5.1 C4.16863,5.1 3.9,4.83137 3.9,4.5 C3.9,4.16863 4.16863,3.9 4.5,3.9 "/>
            <path fill-rule="nonzero" vector-effect="none" d="M14.1,6.6 L14.1,14.4 C14.1,14.7314 13.8314,15 13.5,15 C13.1686,15 12.9,14.7314 12.9,14.4 L12.9,6.6 C12.9,6.26863 13.1686,6 13.5,6 C13.8314,6 14.1,6.26863 14.1,6.6 "/>
            <path fill-rule="nonzero" vector-effect="none" d="M11.0095,7.94445 L13.1095,6.14445 L13.5,5.80975 L13.8905,6.14445 L15.9905,7.94445 C16.2421,8.1601 16.2712,8.53888 16.0556,8.79047 C15.8399,9.04207 15.4611,9.07121 15.2095,8.85555 L13.1095,7.05555 L13.5,6.6 L13.8905,7.05555 L11.7905,8.85555 C11.5389,9.07121 11.1601,9.04207 10.9444,8.79047 C10.7288,8.53888 10.7579,8.1601 11.0095,7.94445 "/>
        </g>
    </g>
</svg>
