<?xml version='1.0' encoding='UTF-8' standalone='no'?>
<svg version="1.2" xmlns:xlink="http://www.w3.org/1999/xlink" viewBox="0 0 72 72" xmlns="http://www.w3.org/2000/svg" width="6.35mm" height="6.35mm" baseProfile="tiny">
    <style id="current-color-scheme" type="text/css">.ColorScheme-Text {color:#fcfcfc;}</style>
    <title>Qt SVG Document</title>
    <desc>Auto-generated by Klassy window decoration</desc>
    <defs/>
    <g stroke-linejoin="bevel" stroke-linecap="square" fill="none" stroke-width="1" stroke="black" fill-rule="evenodd">
        <g font-weight="400" class="ColorScheme-Text" font-size="40" fill="currentColor" transform="matrix(4,0,0,4,16,28)" font-style="normal" stroke="none" font-family="Noto Sans" fill-opacity="1">
            <path vector-effect="none" fill-rule="nonzero" d="M0,-0.75075 L7,-0.75075 L7.75075,0 L7.75075,7 L7,7.75075 L0,7.75075 L-0.75075,7 L-0.75075,0 L0,-0.75075 M0.75075,0 L0.75075,7 L0,7 L0,6.24925 L7,6.24925 L7,7 L6.24925,7 L6.24925,0 L7,0 L7,0.75075 L0,0.75075 L0,0 L0.75075,0"/>
        </g>
        <g font-weight="400" class="ColorScheme-Text" font-size="40" fill="currentColor" transform="matrix(4,0,0,4,16,28)" font-style="normal" stroke="none" font-family="Noto Sans" fill-opacity="1">
            <path vector-effect="none" fill-rule="nonzero" d="M2.24925,-0.75075 L2.24925,-3 L3,-3.75075 L10,-3.75075 L10.7508,-3 L10.7508,4 L10,4.75075 L7.75075,4.75075 L7.75075,3.24925 L10,3.24925 L10,4 L9.24925,4 L9.24925,-3 L10,-3 L10,-2.24925 L3,-2.24925 L3,-3 L3.75075,-3 L3.75075,-0.75075 L2.24925,-0.75075"/>
        </g>
    </g>
</svg>
