<?xml version='1.0' encoding='UTF-8' standalone='no'?>
<svg baseProfile="tiny" height="6.35mm" version="1.2" viewBox="0 0 72 72" width="6.35mm" xmlns="http://www.w3.org/2000/svg" xmlns:xlink="http://www.w3.org/1999/xlink">
    <style id="current-color-scheme" type="text/css">.ColorScheme-Text {color:#fcfcfc;}</style>
    <title>Qt SVG Document</title>
    <desc>Auto-generated by Klassy window decoration</desc>
    <defs/>
    <g fill="none" fill-rule="evenodd" stroke="black" stroke-linecap="square" stroke-linejoin="bevel" stroke-width="1">
        <g class="ColorScheme-Text" fill="currentColor" fill-opacity="0.949996" font-family="Noto Sans" font-size="40" font-style="normal" font-weight="400" stroke="none" transform="matrix(4,0,0,4,16,28)">
            <path d="M0,-0.75075 L7,-0.75075 L7.75075,0 L7.75075,7 L7,7.75075 L0,7.75075 L-0.75075,7 L-0.75075,0 L0,-0.75075 M0.75075,0 L0.75075,7 L0,7 L0,6.24925 L7,6.24925 L7,7 L6.24925,7 L6.24925,0 L7,0 L7,0.75075 L0,0.75075 L0,0 L0.75075,0" fill-rule="nonzero" vector-effect="none"/>
        </g>
        <g class="ColorScheme-Text" fill="currentColor" fill-opacity="0.949996" font-family="Noto Sans" font-size="40" font-style="normal" font-weight="400" stroke="none" transform="matrix(4,0,0,4,16,28)">
            <path d="M2.24925,-0.75075 L2.24925,-3 L3,-3.75075 L10,-3.75075 L10.7508,-3 L10.7508,4 L10,4.75075 L7.75075,4.75075 L7.75075,3.24925 L10,3.24925 L10,4 L9.24925,4 L9.24925,-3 L10,-3 L10,-2.24925 L3,-2.24925 L3,-3 L3.75075,-3 L3.75075,-0.75075 L2.24925,-0.75075" fill-rule="nonzero" vector-effect="none"/>
        </g>
    </g>
</svg>
