<?xml version='1.0' encoding='UTF-8' standalone='no'?>
<svg width="6.35mm" viewBox="0 0 72 72" baseProfile="tiny" xmlns="http://www.w3.org/2000/svg" xmlns:xlink="http://www.w3.org/1999/xlink" version="1.2" height="6.35mm">
    <style id="current-color-scheme" type="text/css">.ColorScheme-Text {color:#fcfcfc;}</style>
    <title>Qt SVG Document</title>
    <desc>Auto-generated by Klassy window decoration</desc>
    <defs/>
    <g stroke-linecap="square" fill-rule="evenodd" stroke-linejoin="bevel" stroke-width="1" fill="none" stroke="black">
        <g class="ColorScheme-Text" font-weight="400" font-family="Noto Sans" font-size="40" transform="matrix(4,0,0,4,0,0)" fill-opacity="1" fill="currentColor" font-style="normal" stroke="none">
            <path fill-rule="nonzero" vector-effect="none" d="M4,4 L14,4 C14.3452,4 14.625,4.27982 14.625,4.625 C14.625,4.97018 14.3452,5.25 14,5.25 L4,5.25 C3.65482,5.25 3.375,4.97018 3.375,4.625 C3.375,4.27982 3.65482,4 4,4 "/>
            <path fill-rule="nonzero" vector-effect="none" d="M3.55806,12.5581 L8.55806,7.55806 L9,7.11612 L9.44194,7.55806 L14.4419,12.5581 C14.686,12.8021 14.686,13.1979 14.4419,13.4419 C14.1979,13.686 13.8021,13.686 13.5581,13.4419 L8.55806,8.44194 L9,8 L9.44194,8.44194 L4.44194,13.4419 C4.19786,13.686 3.80214,13.686 3.55806,13.4419 C3.31398,13.1979 3.31398,12.8021 3.55806,12.5581 "/>
        </g>
    </g>
</svg>
