<?xml version='1.0' encoding='UTF-8' standalone='no'?>
<svg version="1.2" xmlns:xlink="http://www.w3.org/1999/xlink" viewBox="0 0 64 64" xmlns="http://www.w3.org/2000/svg" width="8.46667mm" height="8.46667mm" baseProfile="tiny">
    <style id="current-color-scheme" type="text/css">.ColorScheme-Text {color:#232629;}</style>
    <title>Qt SVG Document</title>
    <desc>Auto-generated by Klassy window decoration</desc>
    <defs/>
    <g stroke-linejoin="bevel" stroke-linecap="square" fill="none" stroke-width="1" stroke="black" fill-rule="evenodd">
        <g font-weight="400" class="ColorScheme-Text" font-size="26.6667" fill="#da0016" transform="matrix(4,0,0,4,0,0)" font-style="normal" stroke="none" font-family="Noto Sans" fill-opacity="0.719997">
            <path vector-effect="none" fill-rule="evenodd" d="M2,3.2 C2,2.53726 2.53726,2 3.2,2 L12.8,2 C13.4627,2 14,2.53726 14,3.2 L14,12.8 C14,13.4627 13.4627,14 12.8,14 L3.2,14 C2.53726,14 2,13.4627 2,12.8 L2,3.2"/>
        </g>
        <g font-weight="400" class="ColorScheme-Text" font-size="26.6667" fill="#ffffff" transform="matrix(3.55556,0,0,3.55556,0,0)" font-style="normal" stroke="none" font-family="Noto Sans" fill-opacity="1">
            <path vector-effect="none" fill-rule="nonzero" d="M4.85706,3.86169 L14.1383,13.1429 C14.4132,13.4178 14.4132,13.8634 14.1383,14.1383 C13.8634,14.4132 13.4178,14.4132 13.1429,14.1383 L3.86169,4.85706 C3.58683,4.58219 3.58683,4.13656 3.86169,3.86169 C4.13656,3.58683 4.58219,3.58683 4.85706,3.86169 "/>
            <path vector-effect="none" fill-rule="nonzero" d="M14.1383,4.85706 L4.85706,14.1383 C4.58219,14.4132 4.13656,14.4132 3.86169,14.1383 C3.58683,13.8634 3.58683,13.4178 3.86169,13.1429 L13.1429,3.86169 C13.4178,3.58683 13.8634,3.58683 14.1383,3.86169 C14.4132,4.13656 14.4132,4.58219 14.1383,4.85706 "/>
        </g>
    </g>
</svg>
