<?xml version='1.0' encoding='UTF-8' standalone='no'?>
<svg baseProfile="tiny" height="8.46667mm" version="1.2" viewBox="0 0 64 64" width="8.46667mm" xmlns="http://www.w3.org/2000/svg" xmlns:xlink="http://www.w3.org/1999/xlink">
    <style id="current-color-scheme" type="text/css">.ColorScheme-Text {color:#232629;}</style>
    <title>Qt SVG Document</title>
    <desc>Auto-generated by Klassy window decoration</desc>
    <defs/>
    <g fill="none" fill-rule="evenodd" stroke="black" stroke-linecap="square" stroke-linejoin="bevel" stroke-width="1">
        <g class="ColorScheme-Text" fill="currentColor" fill-opacity="1" font-family="Noto Sans" font-size="26.6667" font-style="normal" font-weight="400" stroke="none" transform="matrix(3.55556,0,0,3.55556,0,0)">
            <path d="M4.5,11.8119 L8.4375,11.8119 C8.74847,11.8119 9.00056,12.064 9.00056,12.375 C9.00056,12.686 8.74847,12.9381 8.4375,12.9381 L4.5,12.9381 C4.18903,12.9381 3.93694,12.686 3.93694,12.375 C3.93694,12.064 4.18903,11.8119 4.5,11.8119 " fill-rule="nonzero" vector-effect="none"/>
            <path d="M4.5,7.87444 L8.4375,7.87444 C8.74847,7.87444 9.00056,8.12653 9.00056,8.4375 C9.00056,8.74847 8.74847,9.00056 8.4375,9.00056 L4.5,9.00056 C4.18903,9.00056 3.93694,8.74847 3.93694,8.4375 C3.93694,8.12653 4.18903,7.87444 4.5,7.87444 " fill-rule="nonzero" vector-effect="none"/>
            <path d="M4.5,3.93694 L13.5,3.93694 C13.811,3.93694 14.0631,4.18903 14.0631,4.5 C14.0631,4.81097 13.811,5.06306 13.5,5.06306 L4.5,5.06306 C4.18903,5.06306 3.93694,4.81097 3.93694,4.5 C3.93694,4.18903 4.18903,3.93694 4.5,3.93694 " fill-rule="nonzero" vector-effect="none"/>
            <path d="M14.0631,6.46875 L14.0631,14.625 C14.0631,14.936 13.811,15.1881 13.5,15.1881 C13.189,15.1881 12.9369,14.936 12.9369,14.625 L12.9369,6.46875 C12.9369,6.15778 13.189,5.90569 13.5,5.90569 C13.811,5.90569 14.0631,6.15778 14.0631,6.46875 " fill-rule="nonzero" vector-effect="none"/>
            <path d="M11.1331,8.03935 L13.1019,6.0706 L13.5,5.67246 L13.8981,6.0706 L15.8669,8.03935 C16.0868,8.25924 16.0868,8.61576 15.8669,8.83565 C15.647,9.05553 15.2905,9.05553 15.0706,8.83565 L13.1019,6.8669 L13.5,6.46875 L13.8981,6.8669 L11.9294,8.83565 C11.7095,9.05553 11.353,9.05553 11.1331,8.83565 C10.9132,8.61576 10.9132,8.25924 11.1331,8.03935 " fill-rule="nonzero" vector-effect="none"/>
        </g>
    </g>
</svg>
