<?xml version='1.0' encoding='UTF-8' standalone='no'?>
<svg width="8.46667mm" viewBox="0 0 64 64" baseProfile="tiny" xmlns="http://www.w3.org/2000/svg" xmlns:xlink="http://www.w3.org/1999/xlink" version="1.2" height="8.46667mm">
    <style id="current-color-scheme" type="text/css">.ColorScheme-Text {color:#232629;}</style>
    <title>Qt SVG Document</title>
    <desc>Auto-generated by Klassy window decoration</desc>
    <defs/>
    <g stroke-linecap="square" fill-rule="evenodd" stroke-linejoin="bevel" stroke-width="1" fill="none" stroke="black">
        <g class="ColorScheme-Text" font-weight="400" font-family="Noto Sans" font-size="26.6667" transform="matrix(3.55556,0,0,3.55556,0,0)" fill-opacity="1" fill="currentColor" font-style="normal" stroke="none">
            <path fill-rule="nonzero" vector-effect="none" d="M4.5,14.0625 L13.5,14.0625 C13.8107,14.0625 14.0625,14.3143 14.0625,14.625 C14.0625,14.9357 13.8107,15.1875 13.5,15.1875 L4.5,15.1875 C4.18934,15.1875 3.9375,14.9357 3.9375,14.625 C3.9375,14.3143 4.18934,14.0625 4.5,14.0625 "/>
            <path fill-rule="nonzero" vector-effect="none" d="M9.5625,9.84375 L13.5,9.84375 C13.8107,9.84375 14.0625,10.0956 14.0625,10.4063 C14.0625,10.7169 13.8107,10.9688 13.5,10.9688 L9.5625,10.9688 C9.25184,10.9688 9,10.7169 9,10.4063 C9,10.0956 9.25184,9.84375 9.5625,9.84375 "/>
            <path fill-rule="nonzero" vector-effect="none" d="M9.5625,5.625 L13.5,5.625 C13.8107,5.625 14.0625,5.87684 14.0625,6.1875 C14.0625,6.49816 13.8107,6.75 13.5,6.75 L9.5625,6.75 C9.25184,6.75 9,6.49816 9,6.1875 C9,5.87684 9.25184,5.625 9.5625,5.625 "/>
            <path fill-rule="nonzero" vector-effect="none" d="M5.0625,4.5 L5.0625,12.375 C5.0625,12.6857 4.81066,12.9375 4.5,12.9375 C4.18934,12.9375 3.9375,12.6857 3.9375,12.375 L3.9375,4.5 C3.9375,4.18934 4.18934,3.9375 4.5,3.9375 C4.81066,3.9375 5.0625,4.18934 5.0625,4.5 "/>
            <path fill-rule="nonzero" vector-effect="none" d="M2.929,10.0085 L4.89775,11.9773 L4.5,12.375 L4.10225,11.9773 L6.071,10.0085 C6.29067,9.78883 6.64683,9.78883 6.8665,10.0085 C7.08617,10.2282 7.08617,10.5843 6.8665,10.804 L4.89775,12.7727 L4.5,13.1705 L4.10225,12.7727 L2.1335,10.804 C1.91383,10.5843 1.91383,10.2282 2.1335,10.0085 C2.35317,9.78883 2.70933,9.78883 2.929,10.0085 "/>
        </g>
    </g>
</svg>
