<?xml version='1.0' encoding='UTF-8' standalone='no'?>
<svg baseProfile="tiny" height="8.46667mm" version="1.2" viewBox="0 0 64 64" width="8.46667mm" xmlns="http://www.w3.org/2000/svg" xmlns:xlink="http://www.w3.org/1999/xlink">
    <style id="current-color-scheme" type="text/css">.ColorScheme-Text {color:#232629;}</style>
    <title>Qt SVG Document</title>
    <desc>Auto-generated by Klassy window decoration</desc>
    <defs/>
    <g fill="none" fill-rule="evenodd" stroke="black" stroke-linecap="square" stroke-linejoin="bevel" stroke-width="1">
        <g class="ColorScheme-Text" fill="currentColor" fill-opacity="0.450004" font-family="Noto Sans" font-size="26.6667" font-style="normal" font-weight="400" stroke="none" transform="matrix(3.55556,0,0,3.55556,26.5,26.5)">
            <rect height="3.09375" width="3.09375" x="0" y="0"/>
        </g>
        <g class="ColorScheme-Text" fill="currentColor" fill-opacity="0.902495" font-family="Noto Sans" font-size="26.6667" font-style="normal" font-weight="400" stroke="none" transform="matrix(3.55556,0,0,3.55556,26.5,26.5)">
            <path d="M0,-0.703828 L3.09375,-0.703828 L3.79758,0 L3.79758,3.09375 L3.09375,3.79758 L0,3.79758 L-0.703828,3.09375 L-0.703828,0 L0,-0.703828 M0.703828,0 L0.703828,3.09375 L0,3.09375 L0,2.38992 L3.09375,2.38992 L3.09375,3.09375 L2.38992,3.09375 L2.38992,0 L3.09375,0 L3.09375,0.703828 L0,0.703828 L0,0 L0.703828,0" fill-rule="nonzero" vector-effect="none"/>
        </g>
    </g>
</svg>
