<?xml version='1.0' encoding='UTF-8' standalone='no'?>
<svg width="8.46667mm" viewBox="0 0 64 64" baseProfile="tiny" xmlns="http://www.w3.org/2000/svg" xmlns:xlink="http://www.w3.org/1999/xlink" version="1.2" height="8.46667mm">
    <style id="current-color-scheme" type="text/css">.ColorScheme-Text {color:#232629;}</style>
    <title>Qt SVG Document</title>
    <desc>Auto-generated by Klassy window decoration</desc>
    <defs/>
    <g stroke-linecap="square" fill-rule="evenodd" stroke-linejoin="bevel" stroke-width="1" fill="none" stroke="black">
        <g class="ColorScheme-Text" font-weight="400" font-family="Noto Sans" font-size="26.6667" transform="matrix(3.55556,0,0,3.55556,0,0)" fill-opacity="1" fill="currentColor" font-style="normal" stroke="none">
            <path fill-rule="nonzero" vector-effect="none" d="M3.9375,3.9375 L14.0625,3.9375 C14.4508,3.9375 14.7656,4.2523 14.7656,4.64063 C14.7656,5.02895 14.4508,5.34375 14.0625,5.34375 L3.9375,5.34375 C3.54917,5.34375 3.23438,5.02895 3.23438,4.64063 C3.23438,4.2523 3.54917,3.9375 3.9375,3.9375 "/>
            <path fill-rule="nonzero" vector-effect="none" d="M3.50282,12.5028 L8.50282,7.50282 L9,7.00563 L9.49718,7.50282 L14.4972,12.5028 C14.7718,12.7774 14.7718,13.2226 14.4972,13.4972 C14.2226,13.7718 13.7774,13.7718 13.5028,13.4972 L8.50282,8.49718 L9,8 L9.49718,8.49718 L4.49718,13.4972 C4.2226,13.7718 3.7774,13.7718 3.50282,13.4972 C3.22823,13.2226 3.22823,12.7774 3.50282,12.5028 "/>
        </g>
    </g>
</svg>
