<?xml version='1.0' encoding='UTF-8' standalone='no'?>
<svg baseProfile="tiny" height="8.46667mm" version="1.2" viewBox="0 0 64 64" width="8.46667mm" xmlns="http://www.w3.org/2000/svg" xmlns:xlink="http://www.w3.org/1999/xlink">
    <style id="current-color-scheme" type="text/css">.ColorScheme-Text {color:#232629;}</style>
    <title>Qt SVG Document</title>
    <desc>Auto-generated by Klassy window decoration</desc>
    <defs/>
    <g fill="none" fill-rule="evenodd" stroke="black" stroke-linecap="square" stroke-linejoin="bevel" stroke-width="1">
        <g class="ColorScheme-Text" fill="currentColor" fill-opacity="1" font-family="Noto Sans" font-size="26.6667" font-style="normal" font-weight="400" stroke="none" transform="matrix(3.55556,0,0,3.55556,0,0)">
            <path d="M3.9375,3.9368 L14.0625,3.9368 C14.4512,3.9368 14.7663,4.25191 14.7663,4.64063 C14.7663,5.02934 14.4512,5.34445 14.0625,5.34445 L3.9375,5.34445 C3.54879,5.34445 3.23367,5.02934 3.23367,4.64063 C3.23367,4.25191 3.54879,3.9368 3.9375,3.9368 " fill-rule="nonzero" vector-effect="none"/>
            <path d="M3.50232,12.5023 L8.50232,7.50232 L9,7.00464 L9.49768,7.50232 L14.4977,12.5023 C14.7725,12.7772 14.7725,13.2228 14.4977,13.4977 C14.2228,13.7725 13.7772,13.7725 13.5023,13.4977 L8.50232,8.49768 L9,8 L9.49768,8.49768 L4.49768,13.4977 C4.22282,13.7725 3.77718,13.7725 3.50232,13.4977 C3.22746,13.2228 3.22746,12.7772 3.50232,12.5023 " fill-rule="nonzero" vector-effect="none"/>
        </g>
    </g>
</svg>
