<?xml version='1.0' encoding='UTF-8' standalone='no'?>
<svg version="1.2" xmlns:xlink="http://www.w3.org/1999/xlink" viewBox="0 0 64 64" xmlns="http://www.w3.org/2000/svg" width="8.46667mm" height="8.46667mm" baseProfile="tiny">
    <style id="current-color-scheme" type="text/css">.ColorScheme-Text {color:#232629;}</style>
    <title>Qt SVG Document</title>
    <desc>Auto-generated by Klassy window decoration</desc>
    <defs/>
    <g stroke-linejoin="bevel" stroke-linecap="square" fill="none" stroke-width="1" stroke="black" fill-rule="evenodd">
        <g font-weight="400" class="ColorScheme-Text" font-size="26.6667" fill="currentColor" transform="matrix(3.55556,0,0,3.55556,0,0)" font-style="normal" stroke="none" font-family="Noto Sans" fill-opacity="1">
            <path vector-effect="none" fill-rule="nonzero" d="M3.65555,4.36054 C3.65555,4.06836 4.06836,3.65555 4.36054,3.65555 L13.6395,3.65555 C13.9316,3.65555 14.3445,4.06836 14.3445,4.36054 L14.3445,13.6395 C14.3445,13.9316 13.9316,14.3445 13.6395,14.3445 L4.36054,14.3445 C4.06836,14.3445 3.65555,13.9316 3.65555,13.6395 L3.65555,4.36054 M5.0632,4.36054 L5.0632,13.6395 C5.0632,13.3486 4.65143,12.9368 4.36054,12.9368 L13.6395,12.9368 C13.3486,12.9368 12.9368,13.3486 12.9368,13.6395 L12.9368,4.36054 C12.9368,4.65143 13.3486,5.0632 13.6395,5.0632 L4.36054,5.0632 C4.65143,5.0632 5.0632,4.65143 5.0632,4.36054 "/>
        </g>
    </g>
</svg>
