<?xml version='1.0' encoding='UTF-8' standalone='no'?>
<svg version="1.2" xmlns:xlink="http://www.w3.org/1999/xlink" viewBox="0 0 64 64" xmlns="http://www.w3.org/2000/svg" width="8.46667mm" height="8.46667mm" baseProfile="tiny">
    <style id="current-color-scheme" type="text/css">.ColorScheme-Text {color:#232629;}</style>
    <title>Qt SVG Document</title>
    <desc>Auto-generated by Klassy window decoration</desc>
    <defs/>
    <g stroke-linejoin="bevel" stroke-linecap="square" fill="none" stroke-width="1" stroke="black" fill-rule="evenodd">
        <g font-weight="400" class="ColorScheme-Text" font-size="26.6667" fill="currentColor" transform="matrix(3.55556,0,0,3.55556,27,27)" font-style="normal" stroke="none" font-family="Noto Sans" fill-opacity="0.650004">
            <rect y="0" x="0" width="2.8125" height="2.8125"/>
        </g>
        <g font-weight="400" class="ColorScheme-Text" font-size="26.6667" fill="currentColor" transform="matrix(3.55556,0,0,3.55556,27,27)" font-style="normal" stroke="none" font-family="Noto Sans" fill-opacity="0.850004">
            <path vector-effect="none" fill-rule="nonzero" d="M0,-0.563063 L2.8125,-0.563063 L3.37556,0 L3.37556,2.8125 L2.8125,3.37556 L0,3.37556 L-0.563063,2.8125 L-0.563063,0 L0,-0.563063 M0.563063,0 L0.563063,2.8125 L0,2.8125 L0,2.24944 L2.8125,2.24944 L2.8125,2.8125 L2.24944,2.8125 L2.24944,0 L2.8125,0 L2.8125,0.563063 L0,0.563063 L0,0 L0.563063,0"/>
        </g>
    </g>
</svg>
