<?xml version='1.0' encoding='UTF-8' standalone='no'?>
<svg width="8.46667mm" viewBox="0 0 88 88" baseProfile="tiny" xmlns="http://www.w3.org/2000/svg" xmlns:xlink="http://www.w3.org/1999/xlink" version="1.2" height="8.46667mm">
    <style id="current-color-scheme" type="text/css">.ColorScheme-Text {color:#fcfcfc;}</style>
    <title>Qt SVG Document</title>
    <desc>Auto-generated by Klassy window decoration</desc>
    <defs/>
    <g stroke-linecap="square" fill-rule="evenodd" stroke-linejoin="bevel" stroke-width="1" fill="none" stroke="black">
        <g class="ColorScheme-Text" font-weight="400" font-family="Noto Sans" font-size="36.6667" transform="matrix(5.5,0,0,5.5,0,0)" fill-opacity="0.600015" fill="#da0016" font-style="normal" stroke="none">
            <path fill-rule="evenodd" vector-effect="none" d="M2,3.2 C2,2.53726 2.53726,2 3.2,2 L12.8,2 C13.4627,2 14,2.53726 14,3.2 L14,12.8 C14,13.4627 13.4627,14 12.8,14 L3.2,14 C2.53726,14 2,13.4627 2,12.8 L2,3.2"/>
        </g>
        <g class="ColorScheme-Text" font-weight="400" font-family="Noto Sans" font-size="36.6667" transform="matrix(4.88889,0,0,4.88889,0,0)" fill-opacity="1" fill="#ffffff" font-style="normal" stroke="none">
            <path fill-rule="nonzero" vector-effect="none" d="M4.96398,3.83148 L14.1685,13.036 C14.4813,13.3488 14.4813,13.8558 14.1685,14.1685 C13.8558,14.4813 13.3488,14.4813 13.036,14.1685 L3.83148,4.96398 C3.51874,4.65125 3.51874,4.14421 3.83148,3.83148 C4.14421,3.51874 4.65125,3.51874 4.96398,3.83148 "/>
            <path fill-rule="nonzero" vector-effect="none" d="M14.1685,4.96398 L4.96398,14.1685 C4.65125,14.4813 4.14421,14.4813 3.83148,14.1685 C3.51874,13.8558 3.51874,13.3488 3.83148,13.036 L13.036,3.83148 C13.3488,3.51874 13.8558,3.51874 14.1685,3.83148 C14.4813,4.14421 14.4813,4.65125 14.1685,4.96398 "/>
        </g>
    </g>
</svg>
