<?xml version='1.0' encoding='UTF-8' standalone='no'?>
<svg baseProfile="tiny" height="8.46667mm" version="1.2" viewBox="0 0 88 88" width="8.46667mm" xmlns="http://www.w3.org/2000/svg" xmlns:xlink="http://www.w3.org/1999/xlink">
    <style id="current-color-scheme" type="text/css">.ColorScheme-Text {color:#fcfcfc;}</style>
    <title>Qt SVG Document</title>
    <desc>Auto-generated by Klassy window decoration</desc>
    <defs/>
    <g fill="none" fill-rule="evenodd" stroke="black" stroke-linecap="square" stroke-linejoin="bevel" stroke-width="1">
        <g class="ColorScheme-Text" fill="currentColor" fill-opacity="1" font-family="Noto Sans" font-size="36.6667" font-style="normal" font-weight="400" stroke="none" transform="matrix(4.88889,0,0,4.88889,0,0)">
            <path d="M4.5,13.9085 L13.5,13.9085 C13.8392,13.9085 14.1142,14.1835 14.1142,14.5227 C14.1142,14.862 13.8392,15.137 13.5,15.137 L4.5,15.137 C4.16076,15.137 3.88575,14.862 3.88575,14.5227 C3.88575,14.1835 4.16076,13.9085 4.5,13.9085 " fill-rule="nonzero" vector-effect="none"/>
            <path d="M9.40909,9.81757 L13.5,9.81757 C13.8392,9.81757 14.1142,10.0926 14.1142,10.4318 C14.1142,10.7711 13.8392,11.0461 13.5,11.0461 L9.40909,11.0461 C9.06985,11.0461 8.79484,10.7711 8.79484,10.4318 C8.79484,10.0926 9.06985,9.81757 9.40909,9.81757 " fill-rule="nonzero" vector-effect="none"/>
            <path d="M9.40909,5.72666 L13.5,5.72666 C13.8392,5.72666 14.1142,6.00167 14.1142,6.34091 C14.1142,6.68015 13.8392,6.95516 13.5,6.95516 L9.40909,6.95516 C9.06985,6.95516 8.79484,6.68015 8.79484,6.34091 C8.79484,6.00167 9.06985,5.72666 9.40909,5.72666 " fill-rule="nonzero" vector-effect="none"/>
            <path d="M5.11425,4.5 L5.11425,12.4773 C5.11425,12.8165 4.83924,13.0915 4.5,13.0915 C4.16076,13.0915 3.88575,12.8165 3.88575,12.4773 L3.88575,4.5 C3.88575,4.16076 4.16076,3.88575 4.5,3.88575 C4.83924,3.88575 5.11425,4.16076 5.11425,4.5 " fill-rule="nonzero" vector-effect="none"/>
            <path d="M2.88889,9.99748 L4.93434,12.0429 L4.5,12.4773 L4.06566,12.0429 L6.11111,9.99748 C6.35099,9.7576 6.73992,9.7576 6.97979,9.99748 C7.21967,10.2374 7.21967,10.6263 6.97979,10.8662 L4.93434,12.9116 L4.5,13.346 L4.06566,12.9116 L2.02021,10.8662 C1.78033,10.6263 1.78033,10.2374 2.02021,9.99748 C2.26008,9.7576 2.64901,9.7576 2.88889,9.99748 " fill-rule="nonzero" vector-effect="none"/>
        </g>
    </g>
</svg>
