<?xml version='1.0' encoding='UTF-8' standalone='no'?>
<svg version="1.2" xmlns:xlink="http://www.w3.org/1999/xlink" viewBox="0 0 88 88" xmlns="http://www.w3.org/2000/svg" width="8.46667mm" height="8.46667mm" baseProfile="tiny">
    <style id="current-color-scheme" type="text/css">.ColorScheme-Text {color:#fcfcfc;}</style>
    <title>Qt SVG Document</title>
    <desc>Auto-generated by Klassy window decoration</desc>
    <defs/>
    <g stroke-linejoin="bevel" stroke-linecap="square" fill="none" stroke-width="1" stroke="black" fill-rule="evenodd">
        <g font-weight="400" class="ColorScheme-Text" font-size="36.6667" fill="currentColor" transform="matrix(4.88889,0,0,4.88889,0,0)" font-style="normal" stroke="none" font-family="Noto Sans" fill-opacity="1">
            <path vector-effect="none" fill-rule="nonzero" d="M4.09091,3.88575 L13.9091,3.88575 C14.2483,3.88575 14.5233,4.16076 14.5233,4.5 C14.5233,4.83924 14.2483,5.11425 13.9091,5.11425 L4.09091,5.11425 C3.75167,5.11425 3.47666,4.83924 3.47666,4.5 C3.47666,4.16076 3.75167,3.88575 4.09091,3.88575 "/>
            <path vector-effect="none" fill-rule="nonzero" d="M3.56566,12.5657 L8.56566,7.56566 L9,7.13132 L9.43434,7.56566 L14.4343,12.5657 C14.6742,12.8055 14.6742,13.1945 14.4343,13.4343 C14.1945,13.6742 13.8055,13.6742 13.5657,13.4343 L8.56566,8.43434 L9,8 L9.43434,8.43434 L4.43434,13.4343 C4.19446,13.6742 3.80554,13.6742 3.56566,13.4343 C3.32578,13.1945 3.32578,12.8055 3.56566,12.5657 "/>
        </g>
    </g>
</svg>
