<?xml version='1.0' encoding='UTF-8' standalone='no'?>
<svg width="8.46667mm" viewBox="0 0 88 88" baseProfile="tiny" xmlns="http://www.w3.org/2000/svg" xmlns:xlink="http://www.w3.org/1999/xlink" version="1.2" height="8.46667mm">
    <style id="current-color-scheme" type="text/css">.ColorScheme-Text {color:#fcfcfc;}</style>
    <title>Qt SVG Document</title>
    <desc>Auto-generated by Klassy window decoration</desc>
    <defs/>
    <g stroke-linecap="square" fill-rule="evenodd" stroke-linejoin="bevel" stroke-width="1" fill="none" stroke="black">
        <g class="ColorScheme-Text" font-weight="400" font-family="Noto Sans" font-size="36.6667" transform="matrix(4.88889,0,0,4.88889,0,0)" fill-opacity="1" fill="currentColor" font-style="normal" stroke="none">
            <path fill-rule="nonzero" vector-effect="none" d="M4.5,12.0682 L8.59091,12.0682 C8.92981,12.0682 9.20455,12.3429 9.20455,12.6818 C9.20455,13.0207 8.92981,13.2955 8.59091,13.2955 L4.5,13.2955 C4.1611,13.2955 3.88636,13.0207 3.88636,12.6818 C3.88636,12.3429 4.1611,12.0682 4.5,12.0682 "/>
            <path fill-rule="nonzero" vector-effect="none" d="M4.5,7.97727 L8.59091,7.97727 C8.92981,7.97727 9.20455,8.25201 9.20455,8.59091 C9.20455,8.92981 8.92981,9.20455 8.59091,9.20455 L4.5,9.20455 C4.1611,9.20455 3.88636,8.92981 3.88636,8.59091 C3.88636,8.25201 4.1611,7.97727 4.5,7.97727 "/>
            <path fill-rule="nonzero" vector-effect="none" d="M4.5,3.88636 L13.5,3.88636 C13.8389,3.88636 14.1136,4.1611 14.1136,4.5 C14.1136,4.8389 13.8389,5.11364 13.5,5.11364 L4.5,5.11364 C4.1611,5.11364 3.88636,4.8389 3.88636,4.5 C3.88636,4.1611 4.1611,3.88636 4.5,3.88636 "/>
            <path fill-rule="nonzero" vector-effect="none" d="M14.1136,6.54545 L14.1136,14.5227 C14.1136,14.8616 13.8389,15.1364 13.5,15.1364 C13.1611,15.1364 12.8864,14.8616 12.8864,14.5227 L12.8864,6.54545 C12.8864,6.20655 13.1611,5.93182 13.5,5.93182 C13.8389,5.93182 14.1136,6.20655 14.1136,6.54545 "/>
            <path fill-rule="nonzero" vector-effect="none" d="M11.0206,8.157 L13.0661,6.11155 L13.5,5.67764 L13.9339,6.11155 L15.9794,8.157 C16.219,8.39664 16.219,8.78518 15.9794,9.02482 C15.7397,9.26446 15.3512,9.26446 15.1115,9.02482 L13.0661,6.97936 L13.5,6.54545 L13.9339,6.97936 L11.8885,9.02482 C11.6488,9.26446 11.2603,9.26446 11.0206,9.02482 C10.781,8.78518 10.781,8.39664 11.0206,8.157 "/>
        </g>
    </g>
</svg>
