<?xml version='1.0' encoding='UTF-8' standalone='no'?>
<svg version="1.2" xmlns:xlink="http://www.w3.org/1999/xlink" viewBox="0 0 88 88" xmlns="http://www.w3.org/2000/svg" width="8.46667mm" height="8.46667mm" baseProfile="tiny">
    <style id="current-color-scheme" type="text/css">.ColorScheme-Text {color:#fcfcfc;}</style>
    <title>Qt SVG Document</title>
    <desc>Auto-generated by Klassy window decoration</desc>
    <defs/>
    <g stroke-linejoin="bevel" stroke-linecap="square" fill="none" stroke-width="1" stroke="black" fill-rule="evenodd">
        <g font-weight="400" class="ColorScheme-Text" font-size="36.6667" fill="currentColor" transform="matrix(4.88889,0,0,4.88889,36.5,36.5)" font-style="normal" stroke="none" font-family="Noto Sans" fill-opacity="0.650004">
            <rect y="0" x="0" width="3.06818" height="3.06818"/>
        </g>
        <g font-weight="400" class="ColorScheme-Text" font-size="36.6667" fill="currentColor" transform="matrix(4.88889,0,0,4.88889,36.5,36.5)" font-style="normal" stroke="none" font-family="Noto Sans" fill-opacity="0.850004">
            <path vector-effect="none" fill-rule="nonzero" d="M0,-0.511875 L3.06818,-0.511875 L3.58006,0 L3.58006,3.06818 L3.06818,3.58006 L0,3.58006 L-0.511875,3.06818 L-0.511875,0 L0,-0.511875 M0.511875,0 L0.511875,3.06818 L0,3.06818 L0,2.55631 L3.06818,2.55631 L3.06818,3.06818 L2.55631,3.06818 L2.55631,0 L3.06818,0 L3.06818,0.511875 L0,0.511875 L0,0 L0.511875,0"/>
        </g>
    </g>
</svg>
