<?xml version='1.0' encoding='UTF-8' standalone='no'?>
<svg version="1.2" xmlns:xlink="http://www.w3.org/1999/xlink" viewBox="0 0 88 88" xmlns="http://www.w3.org/2000/svg" width="8.46667mm" height="8.46667mm" baseProfile="tiny">
    <style id="current-color-scheme" type="text/css">.ColorScheme-Text {color:#fcfcfc;}</style>
    <title>Qt SVG Document</title>
    <desc>Auto-generated by Klassy window decoration</desc>
    <defs/>
    <g stroke-linejoin="bevel" stroke-linecap="square" fill="none" stroke-width="1" stroke="black" fill-rule="evenodd">
        <g font-weight="400" class="ColorScheme-Text" font-size="36.6667" fill="currentColor" transform="matrix(4.88889,0,0,4.88889,19.5,33.5)" font-style="normal" stroke="none" font-family="Noto Sans" fill-opacity="1">
            <path vector-effect="none" fill-rule="nonzero" d="M0,-0.716625 L7.15909,-0.716625 L7.87572,0 L7.87572,7.15909 L7.15909,7.87572 L0,7.87572 L-0.716625,7.15909 L-0.716625,0 L0,-0.716625 M0.716625,0 L0.716625,7.15909 L0,7.15909 L0,6.44247 L7.15909,6.44247 L7.15909,7.15909 L6.44247,7.15909 L6.44247,0 L7.15909,0 L7.15909,0.716625 L0,0.716625 L0,0 L0.716625,0"/>
        </g>
        <g font-weight="400" class="ColorScheme-Text" font-size="36.6667" fill="currentColor" transform="matrix(4.88889,0,0,4.88889,19.5,33.5)" font-style="normal" stroke="none" font-family="Noto Sans" fill-opacity="1">
            <path vector-effect="none" fill-rule="nonzero" d="M2.14701,-0.716625 L2.14701,-2.86364 L2.86364,-3.58026 L10.0227,-3.58026 L10.7394,-2.86364 L10.7394,4.29545 L10.0227,5.01208 L7.87572,5.01208 L7.87572,3.57883 L10.0227,3.57883 L10.0227,4.29545 L9.3061,4.29545 L9.3061,-2.86364 L10.0227,-2.86364 L10.0227,-2.14701 L2.86364,-2.14701 L2.86364,-2.86364 L3.58026,-2.86364 L3.58026,-0.716625 L2.14701,-0.716625"/>
        </g>
    </g>
</svg>
