<?xml version='1.0' encoding='UTF-8' standalone='no'?>
<svg version="1.2" xmlns:xlink="http://www.w3.org/1999/xlink" viewBox="0 0 88 88" xmlns="http://www.w3.org/2000/svg" width="8.46667mm" height="8.46667mm" baseProfile="tiny">
    <style id="current-color-scheme" type="text/css">.ColorScheme-Text {color:#fcfcfc;}</style>
    <title>Qt SVG Document</title>
    <desc>Auto-generated by Klassy window decoration</desc>
    <defs/>
    <g stroke-linejoin="bevel" stroke-linecap="square" fill="none" stroke-width="1" stroke="black" fill-rule="evenodd">
        <g font-weight="400" class="ColorScheme-Text" font-size="36.6667" fill="currentColor" transform="matrix(4.88889,0,0,4.88889,0,0)" font-style="normal" stroke="none" font-family="Noto Sans" fill-opacity="1">
            <path vector-effect="none" fill-rule="nonzero" d="M3.6811,4.39888 C3.6811,4.10141 4.10141,3.6811 4.39888,3.6811 L13.6011,3.6811 C13.8986,3.6811 14.3189,4.10141 14.3189,4.39888 L14.3189,13.6011 C14.3189,13.8986 13.8986,14.3189 13.6011,14.3189 L4.39888,14.3189 C4.10141,14.3189 3.6811,13.8986 3.6811,13.6011 L3.6811,4.39888 M5.11435,4.39888 L5.11435,13.6011 C5.11435,13.3049 4.69508,12.8856 4.39888,12.8856 L13.6011,12.8856 C13.3049,12.8856 12.8856,13.3049 12.8856,13.6011 L12.8856,4.39888 C12.8856,4.69508 13.3049,5.11435 13.6011,5.11435 L4.39888,5.11435 C4.69508,5.11435 5.11435,4.69508 5.11435,4.39888 "/>
        </g>
    </g>
</svg>
