<?xml version='1.0' encoding='UTF-8' standalone='no'?>
<svg baseProfile="tiny" height="8.46667mm" version="1.2" viewBox="0 0 88 88" width="8.46667mm" xmlns="http://www.w3.org/2000/svg" xmlns:xlink="http://www.w3.org/1999/xlink">
    <style id="current-color-scheme" type="text/css">.ColorScheme-Text {color:#fcfcfc;}</style>
    <title>Qt SVG Document</title>
    <desc>Auto-generated by Klassy window decoration</desc>
    <defs/>
    <g fill="none" fill-rule="evenodd" stroke="black" stroke-linecap="square" stroke-linejoin="bevel" stroke-width="1">
        <g class="ColorScheme-Text" fill="currentColor" fill-opacity="1" font-family="Noto Sans" font-size="36.6667" font-style="normal" font-weight="400" stroke="none" transform="matrix(4.88889,0,0,4.88889,0,0)">
            <path d="M4.09091,3.88575 L13.9091,3.88575 C14.2483,3.88575 14.5233,4.16076 14.5233,4.5 C14.5233,4.83924 14.2483,5.11425 13.9091,5.11425 L4.09091,5.11425 C3.75167,5.11425 3.47666,4.83924 3.47666,4.5 C3.47666,4.16076 3.75167,3.88575 4.09091,3.88575 " fill-rule="nonzero" vector-effect="none"/>
            <path d="M3.56566,12.5657 L8.56566,7.56566 L9,7.13132 L9.43434,7.56566 L14.4343,12.5657 C14.6742,12.8055 14.6742,13.1945 14.4343,13.4343 C14.1945,13.6742 13.8055,13.6742 13.5657,13.4343 L8.56566,8.43434 L9,8 L9.43434,8.43434 L4.43434,13.4343 C4.19446,13.6742 3.80554,13.6742 3.56566,13.4343 C3.32578,13.1945 3.32578,12.8055 3.56566,12.5657 " fill-rule="nonzero" vector-effect="none"/>
        </g>
    </g>
</svg>
