<?xml version='1.0' encoding='UTF-8' standalone='no'?>
<svg version="1.2" xmlns:xlink="http://www.w3.org/1999/xlink" viewBox="0 0 88 88" xmlns="http://www.w3.org/2000/svg" width="8.46667mm" height="8.46667mm" baseProfile="tiny">
    <style id="current-color-scheme" type="text/css">.ColorScheme-Text {color:#fcfcfc;}</style>
    <title>Qt SVG Document</title>
    <desc>Auto-generated by Klassy window decoration</desc>
    <defs/>
    <g stroke-linejoin="bevel" stroke-linecap="square" fill="none" stroke-width="1" stroke="black" fill-rule="evenodd">
        <g font-weight="400" class="ColorScheme-Text" font-size="36.6667" fill="currentColor" transform="matrix(4.88889,0,0,4.88889,0,0)" font-style="normal" stroke="none" font-family="Noto Sans" fill-opacity="1">
            <path vector-effect="none" fill-rule="nonzero" d="M4.5,12.0676 L8.59091,12.0676 C8.93015,12.0676 9.20516,12.3426 9.20516,12.6818 C9.20516,13.0211 8.93015,13.2961 8.59091,13.2961 L4.5,13.2961 C4.16076,13.2961 3.88575,13.0211 3.88575,12.6818 C3.88575,12.3426 4.16076,12.0676 4.5,12.0676 "/>
            <path vector-effect="none" fill-rule="nonzero" d="M4.5,7.97666 L8.59091,7.97666 C8.93015,7.97666 9.20516,8.25167 9.20516,8.59091 C9.20516,8.93015 8.93015,9.20516 8.59091,9.20516 L4.5,9.20516 C4.16076,9.20516 3.88575,8.93015 3.88575,8.59091 C3.88575,8.25167 4.16076,7.97666 4.5,7.97666 "/>
            <path vector-effect="none" fill-rule="nonzero" d="M4.5,3.88575 L13.5,3.88575 C13.8392,3.88575 14.1142,4.16076 14.1142,4.5 C14.1142,4.83924 13.8392,5.11425 13.5,5.11425 L4.5,5.11425 C4.16076,5.11425 3.88575,4.83924 3.88575,4.5 C3.88575,4.16076 4.16076,3.88575 4.5,3.88575 "/>
            <path vector-effect="none" fill-rule="nonzero" d="M14.1142,6.54545 L14.1142,14.5227 C14.1142,14.862 13.8392,15.137 13.5,15.137 C13.1608,15.137 12.8857,14.862 12.8857,14.5227 L12.8857,6.54545 C12.8857,6.20621 13.1608,5.9312 13.5,5.9312 C13.8392,5.9312 14.1142,6.20621 14.1142,6.54545 "/>
            <path vector-effect="none" fill-rule="nonzero" d="M11.0202,8.15657 L13.0657,6.11111 L13.5,5.67677 L13.9343,6.11111 L15.9798,8.15657 C16.2197,8.39645 16.2197,8.78537 15.9798,9.02525 C15.7399,9.26513 15.351,9.26513 15.1111,9.02525 L13.0657,6.97979 L13.5,6.54545 L13.9343,6.97979 L11.8889,9.02525 C11.649,9.26513 11.2601,9.26513 11.0202,9.02525 C10.7803,8.78537 10.7803,8.39645 11.0202,8.15657 "/>
        </g>
    </g>
</svg>
