<?xml version='1.0' encoding='UTF-8' standalone='no'?>
<svg baseProfile="tiny" height="5.89643mm" version="1.2" viewBox="0 0 39 39" width="5.89643mm" xmlns="http://www.w3.org/2000/svg" xmlns:xlink="http://www.w3.org/1999/xlink">
    <style id="current-color-scheme" type="text/css">.ColorScheme-Text {color:#fcfcfc;}</style>
    <title>Qt SVG Document</title>
    <desc>Auto-generated by Klassy window decoration</desc>
    <defs/>
    <g fill="none" fill-rule="evenodd" stroke="black" stroke-linecap="square" stroke-linejoin="bevel" stroke-width="1">
        <g class="ColorScheme-Text" fill="#da0016" fill-opacity="0.719997" font-family="Noto Sans" font-size="23.3333" font-style="normal" font-weight="400" stroke="none" transform="matrix(2.4375,0,0,2.4375,0,0)">
            <path d="M2,3.2 C2,2.53726 2.53726,2 3.2,2 L12.8,2 C13.4627,2 14,2.53726 14,3.2 L14,12.8 C14,13.4627 13.4627,14 12.8,14 L3.2,14 C2.53726,14 2,13.4627 2,12.8 L2,3.2" fill-rule="evenodd" vector-effect="none"/>
        </g>
        <g class="ColorScheme-Text" fill="#ffffff" fill-opacity="1" font-family="Noto Sans" font-size="23.3333" font-style="normal" font-weight="400" stroke="none" transform="matrix(2.16667,0,0,2.16667,0,0)">
            <path d="M4.87464,3.89459 L14.5669,13.5869 C14.8376,13.8575 14.8376,14.2963 14.5669,14.5669 C14.2963,14.8376 13.8575,14.8376 13.5869,14.5669 L3.89459,4.87464 C3.62396,4.60401 3.62396,4.16522 3.89459,3.89459 C4.16522,3.62396 4.60401,3.62396 4.87464,3.89459 " fill-rule="nonzero" vector-effect="none"/>
            <path d="M14.5669,4.87464 L4.87464,14.5669 C4.60401,14.8376 4.16522,14.8376 3.89459,14.5669 C3.62396,14.2963 3.62396,13.8575 3.89459,13.5869 L13.5869,3.89459 C13.8575,3.62396 14.2963,3.62396 14.5669,3.89459 C14.8376,4.16522 14.8376,4.60401 14.5669,4.87464 " fill-rule="nonzero" vector-effect="none"/>
        </g>
    </g>
</svg>
