<?xml version='1.0' encoding='UTF-8' standalone='no'?>
<svg width="5.89643mm" viewBox="0 0 39 39" baseProfile="tiny" xmlns="http://www.w3.org/2000/svg" xmlns:xlink="http://www.w3.org/1999/xlink" version="1.2" height="5.89643mm">
    <style id="current-color-scheme" type="text/css">.ColorScheme-Text {color:#fcfcfc;}</style>
    <title>Qt SVG Document</title>
    <desc>Auto-generated by Klassy window decoration</desc>
    <defs/>
    <g stroke-linecap="square" fill-rule="evenodd" stroke-linejoin="bevel" stroke-width="1" fill="none" stroke="black">
        <g class="ColorScheme-Text" font-weight="400" font-family="Noto Sans" font-size="23.3333" transform="matrix(2.16667,0,0,2.16667,0,0)" fill-opacity="1" fill="currentColor" font-style="normal" stroke="none">
            <path fill-rule="nonzero" vector-effect="none" d="M4.15385,3.69231 L13.8462,3.69231 C14.2285,3.69231 14.5385,4.00226 14.5385,4.38462 C14.5385,4.76697 14.2285,5.07692 13.8462,5.07692 L4.15385,5.07692 C3.7715,5.07692 3.46154,4.76697 3.46154,4.38462 C3.46154,4.00226 3.7715,3.69231 4.15385,3.69231 "/>
            <path fill-rule="nonzero" vector-effect="none" d="M3.51046,12.5105 L8.51046,7.51046 L9,7.02093 L9.48954,7.51046 L14.4895,12.5105 C14.7599,12.7808 14.7599,13.2192 14.4895,13.4895 C14.2192,13.7599 13.7808,13.7599 13.5105,13.4895 L8.51046,8.48954 L9,8 L9.48954,8.48954 L4.48954,13.4895 C4.21917,13.7599 3.78083,13.7599 3.51046,13.4895 C3.2401,13.2192 3.2401,12.7808 3.51046,12.5105 "/>
        </g>
    </g>
</svg>
