<?xml version='1.0' encoding='UTF-8' standalone='no'?>
<svg width="5.89643mm" viewBox="0 0 39 39" baseProfile="tiny" xmlns="http://www.w3.org/2000/svg" xmlns:xlink="http://www.w3.org/1999/xlink" version="1.2" height="5.89643mm">
    <style id="current-color-scheme" type="text/css">.ColorScheme-Text {color:#fcfcfc;}</style>
    <title>Qt SVG Document</title>
    <desc>Auto-generated by Klassy window decoration</desc>
    <defs/>
    <g stroke-linecap="square" fill-rule="evenodd" stroke-linejoin="bevel" stroke-width="1" fill="none" stroke="black">
        <g class="ColorScheme-Text" font-weight="400" font-family="Noto Sans" font-size="23.3333" transform="matrix(2.16667,0,0,2.16667,0,0)" fill-opacity="1" fill="currentColor" font-style="normal" stroke="none">
            <path fill-rule="nonzero" vector-effect="none" d="M4.95087,3.81836 L14.6432,13.5107 C14.9559,13.8234 14.9559,14.3304 14.6432,14.6432 C14.3304,14.9559 13.8234,14.9559 13.5107,14.6432 L3.81836,4.95087 C3.50563,4.63813 3.50563,4.1311 3.81836,3.81836 C4.1311,3.50563 4.63813,3.50563 4.95087,3.81836 "/>
            <path fill-rule="nonzero" vector-effect="none" d="M14.6432,4.95087 L4.95087,14.6432 C4.63813,14.9559 4.1311,14.9559 3.81836,14.6432 C3.50563,14.3304 3.50563,13.8234 3.81836,13.5107 L13.5107,3.81836 C13.8234,3.50563 14.3304,3.50563 14.6432,3.81836 C14.9559,4.1311 14.9559,4.63813 14.6432,4.95087 "/>
        </g>
    </g>
</svg>
