<?xml version='1.0' encoding='UTF-8' standalone='no'?>
<svg baseProfile="tiny" height="5.89643mm" version="1.2" viewBox="0 0 39 39" width="5.89643mm" xmlns="http://www.w3.org/2000/svg" xmlns:xlink="http://www.w3.org/1999/xlink">
    <style id="current-color-scheme" type="text/css">.ColorScheme-Text {color:#fcfcfc;}</style>
    <title>Qt SVG Document</title>
    <desc>Auto-generated by Klassy window decoration</desc>
    <defs/>
    <g fill="none" fill-rule="evenodd" stroke="black" stroke-linecap="square" stroke-linejoin="bevel" stroke-width="1">
        <g class="ColorScheme-Text" fill="currentColor" fill-opacity="0.450004" font-family="Noto Sans" font-size="23.3333" font-style="normal" font-weight="400" stroke="none" transform="matrix(2.16667,0,0,2.16667,16.5,16.5)">
            <rect height="3.23077" width="3.23077" x="0" y="0"/>
        </g>
        <g class="ColorScheme-Text" fill="currentColor" fill-opacity="0.902495" font-family="Noto Sans" font-size="23.3333" font-style="normal" font-weight="400" stroke="none" transform="matrix(2.16667,0,0,2.16667,16.5,16.5)">
            <path d="M0,-0.693 L3.23077,-0.693 L3.92377,0 L3.92377,3.23077 L3.23077,3.92377 L0,3.92377 L-0.693,3.23077 L-0.693,0 L0,-0.693 M0.693,0 L0.693,3.23077 L0,3.23077 L0,2.53777 L3.23077,2.53777 L3.23077,3.23077 L2.53777,3.23077 L2.53777,0 L3.23077,0 L3.23077,0.693 L0,0.693 L0,0 L0.693,0" fill-rule="nonzero" vector-effect="none"/>
        </g>
    </g>
</svg>
