<?xml version='1.0' encoding='UTF-8' standalone='no'?>
<svg version="1.2" xmlns:xlink="http://www.w3.org/1999/xlink" viewBox="0 0 39 39" xmlns="http://www.w3.org/2000/svg" width="5.89643mm" height="5.89643mm" baseProfile="tiny">
    <style id="current-color-scheme" type="text/css">.ColorScheme-Text {color:#fcfcfc;}</style>
    <title>Qt SVG Document</title>
    <desc>Auto-generated by Klassy window decoration</desc>
    <defs/>
    <g stroke-linejoin="bevel" stroke-linecap="square" fill="none" stroke-width="1" stroke="black" fill-rule="evenodd">
        <g font-weight="400" class="ColorScheme-Text" font-size="23.3333" fill="currentColor" transform="matrix(2.16667,0,0,2.16667,0,0)" font-style="normal" stroke="none" font-family="Noto Sans" fill-opacity="1">
            <path vector-effect="none" fill-rule="nonzero" d="M3.69162,4.38583 C3.69162,4.09811 4.09811,3.69162 4.38583,3.69162 L14.0757,3.69162 C14.3634,3.69162 14.7699,4.09811 14.7699,4.38583 L14.7699,14.0757 C14.7699,14.3634 14.3634,14.7699 14.0757,14.7699 L4.38583,14.7699 C4.09811,14.7699 3.69162,14.3634 3.69162,14.0757 L3.69162,4.38583 M5.07762,4.38583 L5.07762,14.0757 C5.07762,13.7893 4.67221,13.3839 4.38583,13.3839 L14.0757,13.3839 C13.7893,13.3839 13.3839,13.7893 13.3839,14.0757 L13.3839,4.38583 C13.3839,4.67221 13.7893,5.07762 14.0757,5.07762 L4.38583,5.07762 C4.67221,5.07762 5.07762,4.67221 5.07762,4.38583 "/>
        </g>
    </g>
</svg>
