<?xml version='1.0' encoding='UTF-8' standalone='no'?>
<svg width="5.89643mm" viewBox="0 0 39 39" baseProfile="tiny" xmlns="http://www.w3.org/2000/svg" xmlns:xlink="http://www.w3.org/1999/xlink" version="1.2" height="5.89643mm">
    <style id="current-color-scheme" type="text/css">.ColorScheme-Text {color:#fcfcfc;}</style>
    <title>Qt SVG Document</title>
    <desc>Auto-generated by Klassy window decoration</desc>
    <defs/>
    <g stroke-linecap="square" fill-rule="evenodd" stroke-linejoin="bevel" stroke-width="1" fill="none" stroke="black">
        <g class="ColorScheme-Text" font-weight="400" font-family="Noto Sans" font-size="23.3333" transform="matrix(2.16667,0,0,2.16667,0,0)" fill-opacity="1" fill="currentColor" font-style="normal" stroke="none">
            <path fill-rule="nonzero" vector-effect="none" d="M4.38462,13.8462 L13.6154,13.8462 C13.9977,13.8462 14.3077,14.1561 14.3077,14.5385 C14.3077,14.9208 13.9977,15.2308 13.6154,15.2308 L4.38462,15.2308 C4.00226,15.2308 3.69231,14.9208 3.69231,14.5385 C3.69231,14.1561 4.00226,13.8462 4.38462,13.8462 "/>
            <path fill-rule="nonzero" vector-effect="none" d="M9.46154,9.69231 L13.6154,9.69231 C13.9977,9.69231 14.3077,10.0023 14.3077,10.3846 C14.3077,10.767 13.9977,11.0769 13.6154,11.0769 L9.46154,11.0769 C9.07919,11.0769 8.76923,10.767 8.76923,10.3846 C8.76923,10.0023 9.07919,9.69231 9.46154,9.69231 "/>
            <path fill-rule="nonzero" vector-effect="none" d="M9.46154,5.53846 L13.6154,5.53846 C13.9977,5.53846 14.3077,5.84842 14.3077,6.23077 C14.3077,6.61312 13.9977,6.92308 13.6154,6.92308 L9.46154,6.92308 C9.07919,6.92308 8.76923,6.61312 8.76923,6.23077 C8.76923,5.84842 9.07919,5.53846 9.46154,5.53846 "/>
            <path fill-rule="nonzero" vector-effect="none" d="M5.07692,4.38462 L5.07692,12.6923 C5.07692,13.0747 4.76697,13.3846 4.38462,13.3846 C4.00226,13.3846 3.69231,13.0747 3.69231,12.6923 L3.69231,4.38462 C3.69231,4.00226 4.00226,3.69231 4.38462,3.69231 C4.76697,3.69231 5.07692,4.00226 5.07692,4.38462 "/>
            <path fill-rule="nonzero" vector-effect="none" d="M3.07906,9.95213 L4.92522,12.2598 L4.38462,12.6923 L3.84401,12.2598 L5.69017,9.95213 C5.92902,9.65357 6.36468,9.60516 6.66325,9.84401 C6.96182,10.0829 7.01022,10.5185 6.77137,10.8171 L4.92522,13.1248 L4.38462,13.8005 L3.84401,13.1248 L1.99786,10.8171 C1.75901,10.5185 1.80741,10.0829 2.10598,9.84401 C2.40455,9.60516 2.84021,9.65357 3.07906,9.95213 "/>
        </g>
    </g>
</svg>
