<?xml version='1.0' encoding='UTF-8' standalone='no'?>
<svg version="1.2" xmlns:xlink="http://www.w3.org/1999/xlink" viewBox="0 0 60 60" xmlns="http://www.w3.org/2000/svg" width="12.7mm" height="12.7mm" baseProfile="tiny">
    <style id="current-color-scheme" type="text/css">.ColorScheme-Text {color:#232629;}</style>
    <title>Qt SVG Document</title>
    <desc>Auto-generated by Klassy window decoration</desc>
    <defs/>
    <g stroke-linejoin="bevel" stroke-linecap="square" fill="none" stroke-width="1" stroke="black" fill-rule="evenodd">
        <g font-weight="400" class="ColorScheme-Text" font-size="16.6667" fill="currentColor" transform="matrix(3.33333,0,0,3.33333,15.5,21.5)" font-style="normal" stroke="none" font-family="Noto Sans" fill-opacity="1">
            <path vector-effect="none" fill-rule="nonzero" d="M0,-0.75075 L7.2,-0.75075 L7.95075,0 L7.95075,7.2 L7.2,7.95075 L0,7.95075 L-0.75075,7.2 L-0.75075,0 L0,-0.75075 M0.75075,0 L0.75075,7.2 L0,7.2 L0,6.44925 L7.2,6.44925 L7.2,7.2 L6.44925,7.2 L6.44925,0 L7.2,0 L7.2,0.75075 L0,0.75075 L0,0 L0.75075,0"/>
        </g>
        <g font-weight="400" class="ColorScheme-Text" font-size="16.6667" fill="currentColor" transform="matrix(3.33333,0,0,3.33333,15.5,21.5)" font-style="normal" stroke="none" font-family="Noto Sans" fill-opacity="1">
            <path vector-effect="none" fill-rule="nonzero" d="M1.04925,-0.75075 L1.04925,-1.8 L1.8,-2.55075 L9,-2.55075 L9.75075,-1.8 L9.75075,5.4 L9,6.15075 L7.95075,6.15075 L7.95075,4.64925 L9,4.64925 L9,5.4 L8.24925,5.4 L8.24925,-1.8 L9,-1.8 L9,-1.04925 L1.8,-1.04925 L1.8,-1.8 L2.55075,-1.8 L2.55075,-0.75075 L1.04925,-0.75075"/>
        </g>
    </g>
</svg>
