<?xml version='1.0' encoding='UTF-8' standalone='no'?>
<svg width="12.7mm" viewBox="0 0 60 60" baseProfile="tiny" xmlns="http://www.w3.org/2000/svg" xmlns:xlink="http://www.w3.org/1999/xlink" version="1.2" height="12.7mm">
    <style id="current-color-scheme" type="text/css">.ColorScheme-Text {color:#232629;}</style>
    <title>Qt SVG Document</title>
    <desc>Auto-generated by Klassy window decoration</desc>
    <defs/>
    <g stroke-linecap="square" fill-rule="evenodd" stroke-linejoin="bevel" stroke-width="1" fill="none" stroke="black">
        <g class="ColorScheme-Text" font-weight="400" font-family="Noto Sans" font-size="16.6667" transform="matrix(3.33333,0,0,3.33333,24.5,24.5)" fill-opacity="0.650004" fill="currentColor" font-style="normal" stroke="none">
            <rect width="3.3" y="0" x="0" height="3.3"/>
        </g>
        <g class="ColorScheme-Text" font-weight="400" font-family="Noto Sans" font-size="16.6667" transform="matrix(3.33333,0,0,3.33333,24.5,24.5)" fill-opacity="0.850004" fill="currentColor" font-style="normal" stroke="none">
            <path fill-rule="nonzero" vector-effect="none" d="M0,-0.45 L3.3,-0.45 L3.75,0 L3.75,3.3 L3.3,3.75 L0,3.75 L-0.45,3.3 L-0.45,0 L0,-0.45 M0.45,0 L0.45,3.3 L0,3.3 L0,2.85 L3.3,2.85 L3.3,3.3 L2.85,3.3 L2.85,0 L3.3,0 L3.3,0.45 L0,0.45 L0,0 L0.45,0"/>
        </g>
    </g>
</svg>
