<?xml version='1.0' encoding='UTF-8' standalone='no'?>
<svg width="12.7mm" viewBox="0 0 60 60" baseProfile="tiny" xmlns="http://www.w3.org/2000/svg" xmlns:xlink="http://www.w3.org/1999/xlink" version="1.2" height="12.7mm">
    <style id="current-color-scheme" type="text/css">.ColorScheme-Text {color:#232629;}</style>
    <title>Qt SVG Document</title>
    <desc>Auto-generated by Klassy window decoration</desc>
    <defs/>
    <g stroke-linecap="square" fill-rule="evenodd" stroke-linejoin="bevel" stroke-width="1" fill="none" stroke="black">
        <g class="ColorScheme-Text" font-weight="400" font-family="Noto Sans" font-size="16.6667" transform="matrix(3.33333,0,0,3.33333,15.5,21.5)" fill-opacity="1" fill="currentColor" font-style="normal" stroke="none">
            <path fill-rule="nonzero" vector-effect="none" d="M0,-0.75 L7.2,-0.75 L7.95,0 L7.95,7.2 L7.2,7.95 L0,7.95 L-0.75,7.2 L-0.75,0 L0,-0.75 M0.75,0 L0.75,7.2 L0,7.2 L0,6.45 L7.2,6.45 L7.2,7.2 L6.45,7.2 L6.45,0 L7.2,0 L7.2,0.75 L0,0.75 L0,0 L0.75,0"/>
        </g>
        <g class="ColorScheme-Text" font-weight="400" font-family="Noto Sans" font-size="16.6667" transform="matrix(3.33333,0,0,3.33333,15.5,21.5)" fill-opacity="1" fill="currentColor" font-style="normal" stroke="none">
            <path fill-rule="nonzero" vector-effect="none" d="M1.05,-0.75 L1.05,-1.8 L1.8,-2.55 L9,-2.55 L9.75,-1.8 L9.75,5.4 L9,6.15 L7.95,6.15 L7.95,4.65 L9,4.65 L9,5.4 L8.25,5.4 L8.25,-1.8 L9,-1.8 L9,-1.05 L1.8,-1.05 L1.8,-1.8 L2.55,-1.8 L2.55,-0.75 L1.05,-0.75"/>
        </g>
    </g>
</svg>
