<?xml version='1.0' encoding='UTF-8' standalone='no'?>
<svg baseProfile="tiny" height="12.7mm" version="1.2" viewBox="0 0 60 60" width="12.7mm" xmlns="http://www.w3.org/2000/svg" xmlns:xlink="http://www.w3.org/1999/xlink">
    <style id="current-color-scheme" type="text/css">.ColorScheme-Text {color:#232629;}</style>
    <title>Qt SVG Document</title>
    <desc>Auto-generated by Klassy window decoration</desc>
    <defs/>
    <g fill="none" fill-rule="evenodd" stroke="black" stroke-linecap="square" stroke-linejoin="bevel" stroke-width="1">
        <g class="ColorScheme-Text" fill="currentColor" fill-opacity="1" font-family="Noto Sans" font-size="16.6667" font-style="normal" font-weight="400" stroke="none" transform="matrix(3.33333,0,0,3.33333,0,0)">
            <path d="M4.88086,3.81914 L14.1809,13.1191 C14.474,13.4123 14.474,13.8877 14.1809,14.1809 C13.8877,14.474 13.4123,14.474 13.1191,14.1809 L3.81914,4.88086 C3.52595,4.58767 3.52595,4.11233 3.81914,3.81914 C4.11233,3.52595 4.58767,3.52595 4.88086,3.81914 " fill-rule="nonzero" vector-effect="none"/>
            <path d="M14.1809,4.88086 L4.88086,14.1809 C4.58767,14.474 4.11233,14.474 3.81914,14.1809 C3.52595,13.8877 3.52595,13.4123 3.81914,13.1191 L13.1191,3.81914 C13.4123,3.52595 13.8877,3.52595 14.1809,3.81914 C14.474,4.11233 14.474,4.58767 14.1809,4.88086 " fill-rule="nonzero" vector-effect="none"/>
        </g>
    </g>
</svg>
