<?xml version='1.0' encoding='UTF-8' standalone='no'?>
<svg width="12.7mm" viewBox="0 0 60 60" baseProfile="tiny" xmlns="http://www.w3.org/2000/svg" xmlns:xlink="http://www.w3.org/1999/xlink" version="1.2" height="12.7mm">
    <style id="current-color-scheme" type="text/css">.ColorScheme-Text {color:#232629;}</style>
    <title>Qt SVG Document</title>
    <desc>Auto-generated by Klassy window decoration</desc>
    <defs/>
    <g stroke-linecap="square" fill-rule="evenodd" stroke-linejoin="bevel" stroke-width="1" fill="none" stroke="black">
        <g class="ColorScheme-Text" font-weight="400" font-family="Noto Sans" font-size="16.6667" transform="matrix(3.33333,0,0,3.33333,0,0)" fill-opacity="1" fill="currentColor" font-style="normal" stroke="none">
            <path fill-rule="nonzero" vector-effect="none" d="M4.5,13.8 L13.5,13.8 C13.8314,13.8 14.1,14.0686 14.1,14.4 C14.1,14.7314 13.8314,15 13.5,15 L4.5,15 C4.16863,15 3.9,14.7314 3.9,14.4 C3.9,14.0686 4.16863,13.8 4.5,13.8 "/>
            <path fill-rule="nonzero" vector-effect="none" d="M9.6,9.9 L13.5,9.9 C13.8314,9.9 14.1,10.1686 14.1,10.5 C14.1,10.8314 13.8314,11.1 13.5,11.1 L9.6,11.1 C9.26863,11.1 9,10.8314 9,10.5 C9,10.1686 9.26863,9.9 9.6,9.9 "/>
            <path fill-rule="nonzero" vector-effect="none" d="M9.6,6 L13.5,6 C13.8314,6 14.1,6.26863 14.1,6.6 C14.1,6.93137 13.8314,7.2 13.5,7.2 L9.6,7.2 C9.26863,7.2 9,6.93137 9,6.6 C9,6.26863 9.26863,6 9.6,6 "/>
            <path fill-rule="nonzero" vector-effect="none" d="M5.1,4.5 L5.1,12.6 C5.1,12.9314 4.83137,13.2 4.5,13.2 C4.16863,13.2 3.9,12.9314 3.9,12.6 L3.9,4.5 C3.9,4.16863 4.16863,3.9 4.5,3.9 C4.83137,3.9 5.1,4.16863 5.1,4.5 "/>
            <path fill-rule="nonzero" vector-effect="none" d="M2.82426,10.0757 L4.92426,12.1757 L4.5,12.6 L4.07574,12.1757 L6.17574,10.0757 C6.41005,9.84142 6.78995,9.84142 7.02426,10.0757 C7.25858,10.3101 7.25858,10.6899 7.02426,10.9243 L4.92426,13.0243 L4.5,13.4485 L4.07574,13.0243 L1.97574,10.9243 C1.74142,10.6899 1.74142,10.3101 1.97574,10.0757 C2.21005,9.84142 2.58995,9.84142 2.82426,10.0757 "/>
        </g>
    </g>
</svg>
