<?xml version='1.0' encoding='UTF-8' standalone='no'?>
<svg baseProfile="tiny" height="12.7mm" version="1.2" viewBox="0 0 60 60" width="12.7mm" xmlns="http://www.w3.org/2000/svg" xmlns:xlink="http://www.w3.org/1999/xlink">
    <style id="current-color-scheme" type="text/css">.ColorScheme-Text {color:#232629;}</style>
    <title>Qt SVG Document</title>
    <desc>Auto-generated by Klassy window decoration</desc>
    <defs/>
    <g fill="none" fill-rule="evenodd" stroke="black" stroke-linecap="square" stroke-linejoin="bevel" stroke-width="1">
        <g class="ColorScheme-Text" fill="currentColor" fill-opacity="0.949996" font-family="Noto Sans" font-size="16.6667" font-style="normal" font-weight="400" stroke="none" transform="matrix(3.33333,0,0,3.33333,15.5,21.5)">
            <path d="M0,-0.75075 L7.2,-0.75075 L7.95075,0 L7.95075,7.2 L7.2,7.95075 L0,7.95075 L-0.75075,7.2 L-0.75075,0 L0,-0.75075 M0.75075,0 L0.75075,7.2 L0,7.2 L0,6.44925 L7.2,6.44925 L7.2,7.2 L6.44925,7.2 L6.44925,0 L7.2,0 L7.2,0.75075 L0,0.75075 L0,0 L0.75075,0" fill-rule="nonzero" vector-effect="none"/>
        </g>
        <g class="ColorScheme-Text" fill="currentColor" fill-opacity="0.949996" font-family="Noto Sans" font-size="16.6667" font-style="normal" font-weight="400" stroke="none" transform="matrix(3.33333,0,0,3.33333,15.5,21.5)">
            <path d="M1.04925,-0.75075 L1.04925,-1.8 L1.8,-2.55075 L9,-2.55075 L9.75075,-1.8 L9.75075,5.4 L9,6.15075 L7.95075,6.15075 L7.95075,4.64925 L9,4.64925 L9,5.4 L8.24925,5.4 L8.24925,-1.8 L9,-1.8 L9,-1.04925 L1.8,-1.04925 L1.8,-1.8 L2.55075,-1.8 L2.55075,-0.75075 L1.04925,-0.75075" fill-rule="nonzero" vector-effect="none"/>
        </g>
    </g>
</svg>
