<?xml version='1.0' encoding='UTF-8' standalone='no'?>
<svg baseProfile="tiny" height="4.23333mm" version="1.2" viewBox="0 0 36 36" width="4.23333mm" xmlns="http://www.w3.org/2000/svg" xmlns:xlink="http://www.w3.org/1999/xlink">
    <style id="current-color-scheme" type="text/css">.ColorScheme-Text {color:#232629;}</style>
    <title>Qt SVG Document</title>
    <desc>Auto-generated by Klassy window decoration</desc>
    <defs/>
    <g fill="none" fill-rule="evenodd" stroke="black" stroke-linecap="square" stroke-linejoin="bevel" stroke-width="1">
        <g class="ColorScheme-Text" fill="currentColor" fill-opacity="0.949996" font-family="Noto Sans" font-size="30" font-style="normal" font-weight="400" stroke="none" transform="matrix(2,0,0,2,0,0)">
            <path d="M3.49925,4.25119 C3.49925,3.93956 3.93956,3.49925 4.25119,3.49925 L13.7488,3.49925 C14.0604,3.49925 14.5008,3.93956 14.5008,4.25119 L14.5008,13.7488 C14.5008,14.0604 14.0604,14.5008 13.7488,14.5008 L4.25119,14.5008 C3.93956,14.5008 3.49925,14.0604 3.49925,13.7488 L3.49925,4.25119 M5.00075,4.25119 L5.00075,13.7488 C5.00075,13.4385 4.5615,12.9992 4.25119,12.9992 L13.7488,12.9992 C13.4385,12.9992 12.9992,13.4385 12.9992,13.7488 L12.9992,4.25119 C12.9992,4.5615 13.4385,5.00075 13.7488,5.00075 L4.25119,5.00075 C4.5615,5.00075 5.00075,4.5615 5.00075,4.25119 " fill-rule="nonzero" vector-effect="none"/>
        </g>
    </g>
</svg>
