<?xml version='1.0' encoding='UTF-8' standalone='no'?>
<svg version="1.2" xmlns:xlink="http://www.w3.org/1999/xlink" viewBox="0 0 48 48" xmlns="http://www.w3.org/2000/svg" width="6.35mm" height="6.35mm" baseProfile="tiny">
    <style id="current-color-scheme" type="text/css">.ColorScheme-Text {color:#fcfcfc;}</style>
    <title>Qt SVG Document</title>
    <desc>Auto-generated by Klassy window decoration</desc>
    <defs/>
    <g stroke-linejoin="bevel" stroke-linecap="square" fill="none" stroke-width="1" stroke="black" fill-rule="evenodd">
        <g font-weight="400" class="ColorScheme-Text" font-size="26.6667" fill="currentColor" transform="matrix(2.66667,0,0,2.66667,0,0)" font-style="normal" stroke="none" font-family="Noto Sans" fill-opacity="1">
            <path vector-effect="none" fill-rule="nonzero" d="M5.03086,3.96914 L14.0309,12.9691 C14.324,13.2623 14.324,13.7377 14.0309,14.0309 C13.7377,14.324 13.2623,14.324 12.9691,14.0309 L3.96914,5.03086 C3.67595,4.73767 3.67595,4.26233 3.96914,3.96914 C4.26233,3.67595 4.73767,3.67595 5.03086,3.96914 "/>
            <path vector-effect="none" fill-rule="nonzero" d="M14.0309,5.03086 L5.03086,14.0309 C4.73767,14.324 4.26233,14.324 3.96914,14.0309 C3.67595,13.7377 3.67595,13.2623 3.96914,12.9691 L12.9691,3.96914 C13.2623,3.67595 13.7377,3.67595 14.0309,3.96914 C14.324,4.26233 14.324,4.73767 14.0309,5.03086 "/>
        </g>
    </g>
</svg>
