<?xml version='1.0' encoding='UTF-8' standalone='no'?>
<svg width="6.35mm" viewBox="0 0 48 48" baseProfile="tiny" xmlns="http://www.w3.org/2000/svg" xmlns:xlink="http://www.w3.org/1999/xlink" version="1.2" height="6.35mm">
    <style id="current-color-scheme" type="text/css">.ColorScheme-Text {color:#fcfcfc;}</style>
    <title>Qt SVG Document</title>
    <desc>Auto-generated by Klassy window decoration</desc>
    <defs/>
    <g stroke-linecap="square" fill-rule="evenodd" stroke-linejoin="bevel" stroke-width="1" fill="none" stroke="black">
        <g class="ColorScheme-Text" font-weight="400" font-family="Noto Sans" font-size="26.6667" transform="matrix(2.66667,0,0,2.66667,19.5,19.5)" fill-opacity="0.650004" fill="currentColor" font-style="normal" stroke="none">
            <rect width="3.375" y="0" x="0" height="3.375"/>
        </g>
        <g class="ColorScheme-Text" font-weight="400" font-family="Noto Sans" font-size="26.6667" transform="matrix(2.66667,0,0,2.66667,19.5,19.5)" fill-opacity="0.850004" fill="currentColor" font-style="normal" stroke="none">
            <path fill-rule="nonzero" vector-effect="none" d="M0,-0.5625 L3.375,-0.5625 L3.9375,0 L3.9375,3.375 L3.375,3.9375 L0,3.9375 L-0.5625,3.375 L-0.5625,0 L0,-0.5625 M0.5625,0 L0.5625,3.375 L0,3.375 L0,2.8125 L3.375,2.8125 L3.375,3.375 L2.8125,3.375 L2.8125,0 L3.375,0 L3.375,0.5625 L0,0.5625 L0,0 L0.5625,0"/>
        </g>
    </g>
</svg>
