<?xml version='1.0' encoding='UTF-8' standalone='no'?>
<svg baseProfile="tiny" height="5.82083mm" version="1.2" viewBox="0 0 66 66" width="5.82083mm" xmlns="http://www.w3.org/2000/svg" xmlns:xlink="http://www.w3.org/1999/xlink">
    <style id="current-color-scheme" type="text/css">.ColorScheme-Text {color:#fcfcfc;}</style>
    <title>Qt SVG Document</title>
    <desc>Auto-generated by Klassy window decoration</desc>
    <defs/>
    <g fill="none" fill-rule="evenodd" stroke="black" stroke-linecap="square" stroke-linejoin="bevel" stroke-width="1">
        <g class="ColorScheme-Text" fill="#da0016" fill-opacity="0.719997" font-family="Noto Sans" font-size="40" font-style="normal" font-weight="400" stroke="none" transform="matrix(4.125,0,0,4.125,0,0)">
            <path d="M2,3.2 C2,2.53726 2.53726,2 3.2,2 L12.8,2 C13.4627,2 14,2.53726 14,3.2 L14,12.8 C14,13.4627 13.4627,14 12.8,14 L3.2,14 C2.53726,14 2,13.4627 2,12.8 L2,3.2" fill-rule="evenodd" vector-effect="none"/>
        </g>
        <g class="ColorScheme-Text" fill="#ffffff" fill-opacity="1" font-family="Noto Sans" font-size="40" font-style="normal" font-weight="400" stroke="none" transform="matrix(3.66667,0,0,3.66667,0,0)">
            <path d="M4.94276,3.78452 L14.2155,13.0572 C14.5353,13.3771 14.5353,13.8956 14.2155,14.2155 C13.8956,14.5353 13.3771,14.5353 13.0572,14.2155 L3.78452,4.94276 C3.46468,4.62292 3.46468,4.10436 3.78452,3.78452 C4.10436,3.46468 4.62292,3.46468 4.94276,3.78452 " fill-rule="nonzero" vector-effect="none"/>
            <path d="M14.2155,4.94276 L4.94276,14.2155 C4.62292,14.5353 4.10436,14.5353 3.78452,14.2155 C3.46468,13.8956 3.46468,13.3771 3.78452,13.0572 L13.0572,3.78452 C13.3771,3.46468 13.8956,3.46468 14.2155,3.78452 C14.5353,4.10436 14.5353,4.62292 14.2155,4.94276 " fill-rule="nonzero" vector-effect="none"/>
        </g>
    </g>
</svg>
