<?xml version='1.0' encoding='UTF-8' standalone='no'?>
<svg version="1.2" xmlns:xlink="http://www.w3.org/1999/xlink" viewBox="0 0 66 66" xmlns="http://www.w3.org/2000/svg" width="5.82083mm" height="5.82083mm" baseProfile="tiny">
    <style id="current-color-scheme" type="text/css">.ColorScheme-Text {color:#fcfcfc;}</style>
    <title>Qt SVG Document</title>
    <desc>Auto-generated by Klassy window decoration</desc>
    <defs/>
    <g stroke-linejoin="bevel" stroke-linecap="square" fill="none" stroke-width="1" stroke="black" fill-rule="evenodd">
        <g font-weight="400" class="ColorScheme-Text" font-size="40" fill="currentColor" transform="matrix(3.66667,0,0,3.66667,0,0)" font-style="normal" stroke="none" font-family="Noto Sans" fill-opacity="1">
            <path vector-effect="none" fill-rule="nonzero" d="M4.63636,13.9085 L13.6364,13.9085 C13.9379,13.9085 14.1824,14.153 14.1824,14.4545 C14.1824,14.7561 13.9379,15.0005 13.6364,15.0005 L4.63636,15.0005 C4.33482,15.0005 4.09036,14.7561 4.09036,14.4545 C4.09036,14.153 4.33482,13.9085 4.63636,13.9085 "/>
            <path vector-effect="none" fill-rule="nonzero" d="M9.54545,9.81764 L13.6364,9.81764 C13.9379,9.81764 14.1824,10.0621 14.1824,10.3636 C14.1824,10.6652 13.9379,10.9096 13.6364,10.9096 L9.54545,10.9096 C9.24391,10.9096 8.99945,10.6652 8.99945,10.3636 C8.99945,10.0621 9.24391,9.81764 9.54545,9.81764 "/>
            <path vector-effect="none" fill-rule="nonzero" d="M9.54545,5.72673 L13.6364,5.72673 C13.9379,5.72673 14.1824,5.97118 14.1824,6.27273 C14.1824,6.57427 13.9379,6.81873 13.6364,6.81873 L9.54545,6.81873 C9.24391,6.81873 8.99945,6.57427 8.99945,6.27273 C8.99945,5.97118 9.24391,5.72673 9.54545,5.72673 "/>
            <path vector-effect="none" fill-rule="nonzero" d="M4.90964,4.36364 L4.90964,12.5455 C4.90964,12.847 4.66518,13.0915 4.36364,13.0915 C4.06209,13.0915 3.81764,12.847 3.81764,12.5455 L3.81764,4.36364 C3.81764,4.06209 4.06209,3.81764 4.36364,3.81764 C4.66518,3.81764 4.90964,4.06209 4.90964,4.36364 "/>
            <path vector-effect="none" fill-rule="nonzero" d="M2.86545,10.0041 L4.77454,12.1859 L4.36364,12.5455 L3.95273,12.1859 L5.86182,10.0041 C6.06039,9.77716 6.40533,9.75416 6.63227,9.95273 C6.85921,10.1513 6.8822,10.4962 6.68363,10.7232 L4.77454,12.905 L4.36364,13.3746 L3.95273,12.905 L2.04364,10.7232 C1.84507,10.4962 1.86806,10.1513 2.095,9.95273 C2.32194,9.75416 2.66688,9.77716 2.86545,10.0041 "/>
        </g>
    </g>
</svg>
