<?xml version='1.0' encoding='UTF-8' standalone='no'?>
<svg width="5.82083mm" viewBox="0 0 66 66" baseProfile="tiny" xmlns="http://www.w3.org/2000/svg" xmlns:xlink="http://www.w3.org/1999/xlink" version="1.2" height="5.82083mm">
    <style id="current-color-scheme" type="text/css">.ColorScheme-Text {color:#fcfcfc;}</style>
    <title>Qt SVG Document</title>
    <desc>Auto-generated by Klassy window decoration</desc>
    <defs/>
    <g stroke-linecap="square" fill-rule="evenodd" stroke-linejoin="bevel" stroke-width="1" fill="none" stroke="black">
        <g class="ColorScheme-Text" font-weight="400" font-family="Noto Sans" font-size="40" transform="matrix(3.66667,0,0,3.66667,0,0)" fill-opacity="1" fill="currentColor" font-style="normal" stroke="none">
            <path fill-rule="nonzero" vector-effect="none" d="M4.92989,3.79739 L14.2026,13.0701 C14.5153,13.3828 14.5153,13.8899 14.2026,14.2026 C13.8899,14.5153 13.3828,14.5153 13.0701,14.2026 L3.79739,4.92989 C3.48465,4.61716 3.48465,4.11012 3.79739,3.79739 C4.11012,3.48465 4.61716,3.48465 4.92989,3.79739 "/>
            <path fill-rule="nonzero" vector-effect="none" d="M14.2026,4.92989 L4.92989,14.2026 C4.61716,14.5153 4.11012,14.5153 3.79739,14.2026 C3.48465,13.8899 3.48465,13.3828 3.79739,13.0701 L13.0701,3.79739 C13.3828,3.48465 13.8899,3.48465 14.2026,3.79739 C14.5153,4.11012 14.5153,4.61716 14.2026,4.92989 "/>
        </g>
    </g>
</svg>
