<?xml version='1.0' encoding='UTF-8' standalone='no'?>
<svg baseProfile="tiny" height="5.82083mm" version="1.2" viewBox="0 0 66 66" width="5.82083mm" xmlns="http://www.w3.org/2000/svg" xmlns:xlink="http://www.w3.org/1999/xlink">
    <style id="current-color-scheme" type="text/css">.ColorScheme-Text {color:#fcfcfc;}</style>
    <title>Qt SVG Document</title>
    <desc>Auto-generated by Klassy window decoration</desc>
    <defs/>
    <g fill="none" fill-rule="evenodd" stroke="black" stroke-linecap="square" stroke-linejoin="bevel" stroke-width="1">
        <g class="ColorScheme-Text" fill="currentColor" fill-opacity="0.949996" font-family="Noto Sans" font-size="40" font-style="normal" font-weight="400" stroke="none" transform="matrix(3.66667,0,0,3.66667,0,0)">
            <path d="M3.54464,4.3648 C3.54464,4.02491 4.02491,3.54464 4.3648,3.54464 L13.6352,3.54464 C13.9751,3.54464 14.4554,4.02491 14.4554,4.3648 L14.4554,13.6352 C14.4554,13.9751 13.9751,14.4554 13.6352,14.4554 L4.3648,14.4554 C4.02491,14.4554 3.54464,13.9751 3.54464,13.6352 L3.54464,4.3648 M5.18264,4.3648 L5.18264,13.6352 C5.18264,13.2966 4.7034,12.8174 4.3648,12.8174 L13.6352,12.8174 C13.2966,12.8174 12.8174,13.2966 12.8174,13.6352 L12.8174,4.3648 C12.8174,4.7034 13.2966,5.18264 13.6352,5.18264 L4.3648,5.18264 C4.7034,5.18264 5.18264,4.7034 5.18264,4.3648 " fill-rule="nonzero" vector-effect="none"/>
        </g>
    </g>
</svg>
