<?xml version='1.0' encoding='UTF-8' standalone='no'?>
<svg width="5.82083mm" viewBox="0 0 66 66" baseProfile="tiny" xmlns="http://www.w3.org/2000/svg" xmlns:xlink="http://www.w3.org/1999/xlink" version="1.2" height="5.82083mm">
    <style id="current-color-scheme" type="text/css">.ColorScheme-Text {color:#fcfcfc;}</style>
    <title>Qt SVG Document</title>
    <desc>Auto-generated by Klassy window decoration</desc>
    <defs/>
    <g stroke-linecap="square" fill-rule="evenodd" stroke-linejoin="bevel" stroke-width="1" fill="none" stroke="black">
        <g class="ColorScheme-Text" font-weight="400" font-family="Noto Sans" font-size="40" transform="matrix(3.66667,0,0,3.66667,27,27)" fill-opacity="0.650004" fill="currentColor" font-style="normal" stroke="none">
            <rect width="3.27273" y="0" x="0" height="3.27273"/>
        </g>
        <g class="ColorScheme-Text" font-weight="400" font-family="Noto Sans" font-size="40" transform="matrix(3.66667,0,0,3.66667,27,27)" fill-opacity="0.850004" fill="currentColor" font-style="normal" stroke="none">
            <path fill-rule="nonzero" vector-effect="none" d="M0,-0.545455 L3.27273,-0.545455 L3.81818,0 L3.81818,3.27273 L3.27273,3.81818 L0,3.81818 L-0.545455,3.27273 L-0.545455,0 L0,-0.545455 M0.545455,0 L0.545455,3.27273 L0,3.27273 L0,2.72727 L3.27273,2.72727 L3.27273,3.27273 L2.72727,3.27273 L2.72727,0 L3.27273,0 L3.27273,0.545455 L0,0.545455 L0,0 L0.545455,0"/>
        </g>
    </g>
</svg>
