<?xml version='1.0' encoding='UTF-8' standalone='no'?>
<svg version="1.2" xmlns:xlink="http://www.w3.org/1999/xlink" viewBox="0 0 66 66" xmlns="http://www.w3.org/2000/svg" width="5.82083mm" height="5.82083mm" baseProfile="tiny">
    <style id="current-color-scheme" type="text/css">.ColorScheme-Text {color:#fcfcfc;}</style>
    <title>Qt SVG Document</title>
    <desc>Auto-generated by Klassy window decoration</desc>
    <defs/>
    <g stroke-linejoin="bevel" stroke-linecap="square" fill="none" stroke-width="1" stroke="black" fill-rule="evenodd">
        <g font-weight="400" class="ColorScheme-Text" font-size="40" fill="currentColor" transform="matrix(3.66667,0,0,3.66667,0,0)" font-style="normal" stroke="none" font-family="Noto Sans" fill-opacity="0.8">
            <path vector-effect="none" fill-rule="evenodd" d="M6.5,8.5 L12,3 L15,6 L9.5,11.5 L6.5,8.5"/>
        </g>
        <g font-weight="400" class="ColorScheme-Text" font-size="40" fill="currentColor" transform="matrix(3.66667,0,0,3.66667,0,0)" font-style="normal" stroke="none" font-family="Noto Sans" fill-opacity="0.8">
            <path vector-effect="none" fill-rule="nonzero" d="M5.85391,7.14609 L10.8539,12.1461 C11.0494,12.3416 11.0494,12.6584 10.8539,12.8539 C10.6584,13.0494 10.3416,13.0494 10.1461,12.8539 L5.14609,7.85391 C4.95064,7.65845 4.95064,7.34155 5.14609,7.14609 C5.34155,6.95064 5.65845,6.95064 5.85391,7.14609 "/>
            <path vector-effect="none" fill-rule="nonzero" d="M8.35391,10.3539 L4.85391,13.8539 C4.65845,14.0494 4.34155,14.0494 4.14609,13.8539 C3.95064,13.6584 3.95064,13.3416 4.14609,13.1461 L7.64609,9.64609 C7.84155,9.45064 8.15845,9.45064 8.35391,9.64609 C8.54936,9.84155 8.54936,10.1584 8.35391,10.3539 "/>
        </g>
    </g>
</svg>
