<?xml version='1.0' encoding='UTF-8' standalone='no'?>
<svg version="1.2" xmlns:xlink="http://www.w3.org/1999/xlink" viewBox="0 0 66 66" xmlns="http://www.w3.org/2000/svg" width="6.35mm" height="6.35mm" baseProfile="tiny">
    <style id="current-color-scheme" type="text/css">.ColorScheme-Text {color:#232629;}</style>
    <title>Qt SVG Document</title>
    <desc>Auto-generated by Klassy window decoration</desc>
    <defs/>
    <g stroke-linejoin="bevel" stroke-linecap="square" fill="none" stroke-width="1" stroke="black" fill-rule="evenodd">
        <g font-weight="400" class="ColorScheme-Text" font-size="36.6667" fill="#da0016" transform="matrix(4.125,0,0,4.125,0,0)" font-style="normal" stroke="none" font-family="Noto Sans" fill-opacity="0.719997">
            <path vector-effect="none" fill-rule="evenodd" d="M2,3.2 C2,2.53726 2.53726,2 3.2,2 L12.8,2 C13.4627,2 14,2.53726 14,3.2 L14,12.8 C14,13.4627 13.4627,14 12.8,14 L3.2,14 C2.53726,14 2,13.4627 2,12.8 L2,3.2"/>
        </g>
        <g font-weight="400" class="ColorScheme-Text" font-size="36.6667" fill="#ffffff" transform="matrix(3.66667,0,0,3.66667,0,0)" font-style="normal" stroke="none" font-family="Noto Sans" fill-opacity="1">
            <path vector-effect="none" fill-rule="nonzero" d="M4.94276,3.78452 L14.2155,13.0572 C14.5353,13.3771 14.5353,13.8956 14.2155,14.2155 C13.8956,14.5353 13.3771,14.5353 13.0572,14.2155 L3.78452,4.94276 C3.46468,4.62292 3.46468,4.10436 3.78452,3.78452 C4.10436,3.46468 4.62292,3.46468 4.94276,3.78452 "/>
            <path vector-effect="none" fill-rule="nonzero" d="M14.2155,4.94276 L4.94276,14.2155 C4.62292,14.5353 4.10436,14.5353 3.78452,14.2155 C3.46468,13.8956 3.46468,13.3771 3.78452,13.0572 L13.0572,3.78452 C13.3771,3.46468 13.8956,3.46468 14.2155,3.78452 C14.5353,4.10436 14.5353,4.62292 14.2155,4.94276 "/>
        </g>
    </g>
</svg>
