<?xml version='1.0' encoding='UTF-8' standalone='no'?>
<svg width="6.35mm" viewBox="0 0 66 66" baseProfile="tiny" xmlns="http://www.w3.org/2000/svg" xmlns:xlink="http://www.w3.org/1999/xlink" version="1.2" height="6.35mm">
    <style id="current-color-scheme" type="text/css">.ColorScheme-Text {color:#232629;}</style>
    <title>Qt SVG Document</title>
    <desc>Auto-generated by Klassy window decoration</desc>
    <defs/>
    <g stroke-linecap="square" fill-rule="evenodd" stroke-linejoin="bevel" stroke-width="1" fill="none" stroke="black">
        <g class="ColorScheme-Text" font-weight="400" font-family="Noto Sans" font-size="36.6667" transform="matrix(3.66667,0,0,3.66667,0,0)" fill-opacity="1" fill="currentColor" font-style="normal" stroke="none">
            <path fill-rule="nonzero" vector-effect="none" d="M4.63636,13.9091 L13.6364,13.9091 C13.9376,13.9091 14.1818,14.1533 14.1818,14.4545 C14.1818,14.7558 13.9376,15 13.6364,15 L4.63636,15 C4.33512,15 4.09091,14.7558 4.09091,14.4545 C4.09091,14.1533 4.33512,13.9091 4.63636,13.9091 "/>
            <path fill-rule="nonzero" vector-effect="none" d="M9.54545,9.81818 L13.6364,9.81818 C13.9376,9.81818 14.1818,10.0624 14.1818,10.3636 C14.1818,10.6649 13.9376,10.9091 13.6364,10.9091 L9.54545,10.9091 C9.24421,10.9091 9,10.6649 9,10.3636 C9,10.0624 9.24421,9.81818 9.54545,9.81818 "/>
            <path fill-rule="nonzero" vector-effect="none" d="M9.54545,5.72727 L13.6364,5.72727 C13.9376,5.72727 14.1818,5.97148 14.1818,6.27273 C14.1818,6.57397 13.9376,6.81818 13.6364,6.81818 L9.54545,6.81818 C9.24421,6.81818 9,6.57397 9,6.27273 C9,5.97148 9.24421,5.72727 9.54545,5.72727 "/>
            <path fill-rule="nonzero" vector-effect="none" d="M4.90909,4.36364 L4.90909,12.5455 C4.90909,12.8467 4.66488,13.0909 4.36364,13.0909 C4.06239,13.0909 3.81818,12.8467 3.81818,12.5455 L3.81818,4.36364 C3.81818,4.06239 4.06239,3.81818 4.36364,3.81818 C4.66488,3.81818 4.90909,4.06239 4.90909,4.36364 "/>
            <path fill-rule="nonzero" vector-effect="none" d="M2.86504,10.0045 L4.77413,12.1863 L4.36364,12.5455 L3.95314,12.1863 L5.86223,10.0045 C6.0606,9.77774 6.4052,9.75477 6.63191,9.95314 C6.85862,10.1515 6.8816,10.4961 6.68322,10.7228 L4.77413,12.9046 L4.36364,13.3738 L3.95314,12.9046 L2.04405,10.7228 C1.84568,10.4961 1.86865,10.1515 2.09536,9.95314 C2.32207,9.75477 2.66667,9.77774 2.86504,10.0045 "/>
        </g>
    </g>
</svg>
