<?xml version='1.0' encoding='UTF-8' standalone='no'?>
<svg baseProfile="tiny" height="6.35mm" version="1.2" viewBox="0 0 66 66" width="6.35mm" xmlns="http://www.w3.org/2000/svg" xmlns:xlink="http://www.w3.org/1999/xlink">
    <style id="current-color-scheme" type="text/css">.ColorScheme-Text {color:#232629;}</style>
    <title>Qt SVG Document</title>
    <desc>Auto-generated by Klassy window decoration</desc>
    <defs/>
    <g fill="none" fill-rule="evenodd" stroke="black" stroke-linecap="square" stroke-linejoin="bevel" stroke-width="1">
        <g class="ColorScheme-Text" fill="currentColor" fill-opacity="0.949996" font-family="Noto Sans" font-size="36.6667" font-style="normal" font-weight="400" stroke="none" transform="matrix(3.66667,0,0,3.66667,14,26)">
            <path d="M0,-0.819 L7.09091,-0.819 L7.90991,0 L7.90991,7.09091 L7.09091,7.90991 L0,7.90991 L-0.819,7.09091 L-0.819,0 L0,-0.819 M0.819,0 L0.819,7.09091 L0,7.09091 L0,6.27191 L7.09091,6.27191 L7.09091,7.09091 L6.27191,7.09091 L6.27191,0 L7.09091,0 L7.09091,0.819 L0,0.819 L0,0 L0.819,0" fill-rule="nonzero" vector-effect="none"/>
        </g>
        <g class="ColorScheme-Text" fill="currentColor" fill-opacity="0.949996" font-family="Noto Sans" font-size="36.6667" font-style="normal" font-weight="400" stroke="none" transform="matrix(3.66667,0,0,3.66667,14,26)">
            <path d="M2.45373,-0.819 L2.45373,-3.27273 L3.27273,-4.09173 L10.3636,-4.09173 L11.1826,-3.27273 L11.1826,3.81818 L10.3636,4.63718 L7.90991,4.63718 L7.90991,2.99918 L10.3636,2.99918 L10.3636,3.81818 L9.54464,3.81818 L9.54464,-3.27273 L10.3636,-3.27273 L10.3636,-2.45373 L3.27273,-2.45373 L3.27273,-3.27273 L4.09173,-3.27273 L4.09173,-0.819 L2.45373,-0.819" fill-rule="nonzero" vector-effect="none"/>
        </g>
    </g>
</svg>
