<?xml version='1.0' encoding='UTF-8' standalone='no'?>
<svg width="6.35mm" viewBox="0 0 66 66" baseProfile="tiny" xmlns="http://www.w3.org/2000/svg" xmlns:xlink="http://www.w3.org/1999/xlink" version="1.2" height="6.35mm">
    <style id="current-color-scheme" type="text/css">.ColorScheme-Text {color:#232629;}</style>
    <title>Qt SVG Document</title>
    <desc>Auto-generated by Klassy window decoration</desc>
    <defs/>
    <g stroke-linecap="square" fill-rule="evenodd" stroke-linejoin="bevel" stroke-width="1" fill="none" stroke="black">
        <g class="ColorScheme-Text" font-weight="400" font-family="Noto Sans" font-size="36.6667" transform="matrix(3.66667,0,0,3.66667,0,0)" fill-opacity="1" fill="currentColor" font-style="normal" stroke="none">
            <path fill-rule="nonzero" vector-effect="none" d="M3.54545,4.3648 C3.54545,4.02525 4.02525,3.54545 4.3648,3.54545 L13.6352,3.54545 C13.9747,3.54545 14.4545,4.02525 14.4545,4.3648 L14.4545,13.6352 C14.4545,13.9747 13.9747,14.4545 13.6352,14.4545 L4.3648,14.4545 C4.02525,14.4545 3.54545,13.9747 3.54545,13.6352 L3.54545,4.3648 M5.18182,4.3648 L5.18182,13.6352 C5.18182,13.2969 4.70306,12.8182 4.3648,12.8182 L13.6352,12.8182 C13.2969,12.8182 12.8182,13.2969 12.8182,13.6352 L12.8182,4.3648 C12.8182,4.70306 13.2969,5.18182 13.6352,5.18182 L4.3648,5.18182 C4.70306,5.18182 5.18182,4.70306 5.18182,4.3648 "/>
        </g>
    </g>
</svg>
