<?xml version='1.0' encoding='UTF-8' standalone='no'?>
<svg version="1.2" xmlns:xlink="http://www.w3.org/1999/xlink" viewBox="0 0 44 44" xmlns="http://www.w3.org/2000/svg" width="4.23333mm" height="4.23333mm" baseProfile="tiny">
    <style id="current-color-scheme" type="text/css">.ColorScheme-Text {color:#232629;}</style>
    <title>Qt SVG Document</title>
    <desc>Auto-generated by Klassy window decoration</desc>
    <defs/>
    <g stroke-linejoin="bevel" stroke-linecap="square" fill="none" stroke-width="1" stroke="black" fill-rule="evenodd">
        <g font-weight="400" class="ColorScheme-Text" font-size="36.6667" fill="#da0016" transform="matrix(2.75,0,0,2.75,0,0)" font-style="normal" stroke="none" font-family="Noto Sans" fill-opacity="0.719997">
            <path vector-effect="none" fill-rule="evenodd" d="M2,3.2 C2,2.53726 2.53726,2 3.2,2 L12.8,2 C13.4627,2 14,2.53726 14,3.2 L14,12.8 C14,13.4627 13.4627,14 12.8,14 L3.2,14 C2.53726,14 2,13.4627 2,12.8 L2,3.2"/>
        </g>
        <g font-weight="400" class="ColorScheme-Text" font-size="36.6667" fill="#ffffff" transform="matrix(2.44444,0,0,2.44444,0,0)" font-style="normal" stroke="none" font-family="Noto Sans" fill-opacity="1">
            <path vector-effect="none" fill-rule="nonzero" d="M5.07912,3.92088 L14.0791,12.9209 C14.399,13.2407 14.399,13.7593 14.0791,14.0791 C13.7593,14.399 13.2407,14.399 12.9209,14.0791 L3.92088,5.07912 C3.60104,4.75928 3.60104,4.24072 3.92088,3.92088 C4.24072,3.60104 4.75928,3.60104 5.07912,3.92088 "/>
            <path vector-effect="none" fill-rule="nonzero" d="M14.0791,5.07912 L5.07912,14.0791 C4.75928,14.399 4.24072,14.399 3.92088,14.0791 C3.60104,13.7593 3.60104,13.2407 3.92088,12.9209 L12.9209,3.92088 C13.2407,3.60104 13.7593,3.60104 14.0791,3.92088 C14.399,4.24072 14.399,4.75928 14.0791,5.07912 "/>
        </g>
    </g>
</svg>
