<?xml version='1.0' encoding='UTF-8' standalone='no'?>
<svg version="1.2" xmlns:xlink="http://www.w3.org/1999/xlink" viewBox="0 0 44 44" xmlns="http://www.w3.org/2000/svg" width="4.23333mm" height="4.23333mm" baseProfile="tiny">
    <style id="current-color-scheme" type="text/css">.ColorScheme-Text {color:#232629;}</style>
    <title>Qt SVG Document</title>
    <desc>Auto-generated by Klassy window decoration</desc>
    <defs/>
    <g stroke-linejoin="bevel" stroke-linecap="square" fill="none" stroke-width="1" stroke="black" fill-rule="evenodd">
        <g font-weight="400" class="ColorScheme-Text" font-size="36.6667" fill="currentColor" transform="matrix(2.44444,0,0,2.44444,0,0)" font-style="normal" stroke="none" font-family="Noto Sans" fill-opacity="1">
            <path vector-effect="none" fill-rule="nonzero" d="M4.70455,13.9085 L13.7045,13.9085 C14.0438,13.9085 14.3188,14.1835 14.3188,14.5227 C14.3188,14.862 14.0438,15.137 13.7045,15.137 L4.70455,15.137 C4.3653,15.137 4.0903,14.862 4.0903,14.5227 C4.0903,14.1835 4.3653,13.9085 4.70455,13.9085 "/>
            <path vector-effect="none" fill-rule="nonzero" d="M9.61364,9.81757 L13.7045,9.81757 C14.0438,9.81757 14.3188,10.0926 14.3188,10.4318 C14.3188,10.7711 14.0438,11.0461 13.7045,11.0461 L9.61364,11.0461 C9.2744,11.0461 8.99939,10.7711 8.99939,10.4318 C8.99939,10.0926 9.2744,9.81757 9.61364,9.81757 "/>
            <path vector-effect="none" fill-rule="nonzero" d="M9.61364,5.72666 L13.7045,5.72666 C14.0438,5.72666 14.3188,6.00167 14.3188,6.34091 C14.3188,6.68015 14.0438,6.95516 13.7045,6.95516 L9.61364,6.95516 C9.2744,6.95516 8.99939,6.68015 8.99939,6.34091 C8.99939,6.00167 9.2744,5.72666 9.61364,5.72666 "/>
            <path vector-effect="none" fill-rule="nonzero" d="M4.9097,4.29545 L4.9097,12.4773 C4.9097,12.8165 4.6347,13.0915 4.29545,13.0915 C3.95621,13.0915 3.6812,12.8165 3.6812,12.4773 L3.6812,4.29545 C3.6812,3.95621 3.95621,3.6812 4.29545,3.6812 C4.6347,3.6812 4.9097,3.95621 4.9097,4.29545 "/>
            <path vector-effect="none" fill-rule="nonzero" d="M3.13874,10.0481 L4.7751,12.0936 L4.29545,12.4773 L3.81581,12.0936 L5.45217,10.0481 C5.66409,9.7832 6.05063,9.74025 6.31554,9.95217 C6.58044,10.1641 6.62339,10.5506 6.41147,10.8155 L4.7751,12.861 L4.29545,13.4606 L3.81581,12.861 L2.17944,10.8155 C1.96752,10.5506 2.01047,10.1641 2.27537,9.95217 C2.54027,9.74025 2.92682,9.7832 3.13874,10.0481 "/>
        </g>
    </g>
</svg>
