<?xml version='1.0' encoding='UTF-8' standalone='no'?>
<svg width="4.23333mm" viewBox="0 0 44 44" baseProfile="tiny" xmlns="http://www.w3.org/2000/svg" xmlns:xlink="http://www.w3.org/1999/xlink" version="1.2" height="4.23333mm">
    <style id="current-color-scheme" type="text/css">.ColorScheme-Text {color:#232629;}</style>
    <title>Qt SVG Document</title>
    <desc>Auto-generated by Klassy window decoration</desc>
    <defs/>
    <g stroke-linecap="square" fill-rule="evenodd" stroke-linejoin="bevel" stroke-width="1" fill="none" stroke="black">
        <g class="ColorScheme-Text" font-weight="400" font-family="Noto Sans" font-size="36.6667" transform="matrix(2.44444,0,0,2.44444,9,17)" fill-opacity="1" fill="currentColor" font-style="normal" stroke="none">
            <path fill-rule="nonzero" vector-effect="none" d="M0,-0.818182 L7.36364,-0.818182 L8.18182,0 L8.18182,7.36364 L7.36364,8.18182 L0,8.18182 L-0.818182,7.36364 L-0.818182,0 L0,-0.818182 M0.818182,0 L0.818182,7.36364 L0,7.36364 L0,6.54545 L7.36364,6.54545 L7.36364,7.36364 L6.54545,7.36364 L6.54545,0 L7.36364,0 L7.36364,0.818182 L0,0.818182 L0,0 L0.818182,0"/>
        </g>
        <g class="ColorScheme-Text" font-weight="400" font-family="Noto Sans" font-size="36.6667" transform="matrix(2.44444,0,0,2.44444,9,17)" fill-opacity="1" fill="currentColor" font-style="normal" stroke="none">
            <path fill-rule="nonzero" vector-effect="none" d="M2.45455,-0.818182 L2.45455,-3.27273 L3.27273,-4.09091 L10.6364,-4.09091 L11.4545,-3.27273 L11.4545,4.09091 L10.6364,4.90909 L8.18182,4.90909 L8.18182,3.27273 L10.6364,3.27273 L10.6364,4.09091 L9.81818,4.09091 L9.81818,-3.27273 L10.6364,-3.27273 L10.6364,-2.45455 L3.27273,-2.45455 L3.27273,-3.27273 L4.09091,-3.27273 L4.09091,-0.818182 L2.45455,-0.818182"/>
        </g>
    </g>
</svg>
