<?xml version='1.0' encoding='UTF-8' standalone='no'?>
<svg baseProfile="tiny" height="4.23333mm" version="1.2" viewBox="0 0 44 44" width="4.23333mm" xmlns="http://www.w3.org/2000/svg" xmlns:xlink="http://www.w3.org/1999/xlink">
    <style id="current-color-scheme" type="text/css">.ColorScheme-Text {color:#232629;}</style>
    <title>Qt SVG Document</title>
    <desc>Auto-generated by Klassy window decoration</desc>
    <defs/>
    <g fill="none" fill-rule="evenodd" stroke="black" stroke-linecap="square" stroke-linejoin="bevel" stroke-width="1">
        <g class="ColorScheme-Text" fill="currentColor" fill-opacity="0.549996" font-family="Noto Sans" font-size="36.6667" font-style="normal" font-weight="400" stroke="none" transform="matrix(2.44444,0,0,2.44444,18,18)">
            <rect height="3.27273" width="3.27273" x="0" y="0"/>
        </g>
        <g class="ColorScheme-Text" fill="currentColor" fill-opacity="0.902495" font-family="Noto Sans" font-size="36.6667" font-style="normal" font-weight="400" stroke="none" transform="matrix(2.44444,0,0,2.44444,18,18)">
            <path d="M0,-0.4095 L3.27273,-0.4095 L3.68223,0 L3.68223,3.27273 L3.27273,3.68223 L0,3.68223 L-0.4095,3.27273 L-0.4095,0 L0,-0.4095 M0.4095,0 L0.4095,3.27273 L0,3.27273 L0,2.86323 L3.27273,2.86323 L3.27273,3.27273 L2.86323,3.27273 L2.86323,0 L3.27273,0 L3.27273,0.4095 L0,0.4095 L0,0 L0.4095,0" fill-rule="nonzero" vector-effect="none"/>
        </g>
    </g>
</svg>
