<?xml version='1.0' encoding='UTF-8' standalone='no'?>
<svg width="5.82083mm" viewBox="0 0 66 66" baseProfile="tiny" xmlns="http://www.w3.org/2000/svg" xmlns:xlink="http://www.w3.org/1999/xlink" version="1.2" height="5.82083mm">
    <style id="current-color-scheme" type="text/css">.ColorScheme-Text {color:#232629;}</style>
    <title>Qt SVG Document</title>
    <desc>Auto-generated by Klassy window decoration</desc>
    <defs/>
    <g stroke-linecap="square" fill-rule="evenodd" stroke-linejoin="bevel" stroke-width="1" fill="none" stroke="black">
        <g class="ColorScheme-Text" font-weight="400" font-family="Noto Sans" font-size="40" transform="matrix(3.66667,0,0,3.66667,0,0)" fill-opacity="1" fill="currentColor" font-style="normal" stroke="none">
            <path fill-rule="nonzero" vector-effect="none" d="M4.09091,3.81818 L13.9091,3.81818 C14.2856,3.81818 14.5909,4.12344 14.5909,4.5 C14.5909,4.87656 14.2856,5.18182 13.9091,5.18182 L4.09091,5.18182 C3.71435,5.18182 3.40909,4.87656 3.40909,4.5 C3.40909,4.12344 3.71435,3.81818 4.09091,3.81818 "/>
            <path fill-rule="nonzero" vector-effect="none" d="M4.48212,7.51788 L9.48212,12.5179 L9,13 L8.51788,12.5179 L13.5179,7.51788 C13.7841,7.25162 14.2159,7.25162 14.4821,7.51788 C14.7484,7.78415 14.7484,8.21585 14.4821,8.48212 L9.48212,13.4821 L9,13.9642 L8.51788,13.4821 L3.51788,8.48212 C3.25162,8.21585 3.25162,7.78415 3.51788,7.51788 C3.78415,7.25162 4.21585,7.25162 4.48212,7.51788 "/>
        </g>
    </g>
</svg>
