<?xml version='1.0' encoding='UTF-8' standalone='no'?>
<svg baseProfile="tiny" height="5.82083mm" version="1.2" viewBox="0 0 66 66" width="5.82083mm" xmlns="http://www.w3.org/2000/svg" xmlns:xlink="http://www.w3.org/1999/xlink">
    <style id="current-color-scheme" type="text/css">.ColorScheme-Text {color:#232629;}</style>
    <title>Qt SVG Document</title>
    <desc>Auto-generated by Klassy window decoration</desc>
    <defs/>
    <g fill="none" fill-rule="evenodd" stroke="black" stroke-linecap="square" stroke-linejoin="bevel" stroke-width="1">
        <g class="ColorScheme-Text" fill="currentColor" fill-opacity="1" font-family="Noto Sans" font-size="40" font-style="normal" font-weight="400" stroke="none" transform="matrix(3.66667,0,0,3.66667,0,0)">
            <path d="M4.36364,11.9995 L8.45455,11.9995 C8.75609,11.9995 9.00055,12.2439 9.00055,12.5455 C9.00055,12.847 8.75609,13.0915 8.45455,13.0915 L4.36364,13.0915 C4.06209,13.0915 3.81764,12.847 3.81764,12.5455 C3.81764,12.2439 4.06209,11.9995 4.36364,11.9995 " fill-rule="nonzero" vector-effect="none"/>
            <path d="M4.36364,7.90855 L8.45455,7.90855 C8.75609,7.90855 9.00055,8.153 9.00055,8.45455 C9.00055,8.75609 8.75609,9.00055 8.45455,9.00055 L4.36364,9.00055 C4.06209,9.00055 3.81764,8.75609 3.81764,8.45455 C3.81764,8.153 4.06209,7.90855 4.36364,7.90855 " fill-rule="nonzero" vector-effect="none"/>
            <path d="M4.36364,3.81764 L13.3636,3.81764 C13.6652,3.81764 13.9096,4.06209 13.9096,4.36364 C13.9096,4.66518 13.6652,4.90964 13.3636,4.90964 L4.36364,4.90964 C4.06209,4.90964 3.81764,4.66518 3.81764,4.36364 C3.81764,4.06209 4.06209,3.81764 4.36364,3.81764 " fill-rule="nonzero" vector-effect="none"/>
            <path d="M14.1824,6.54545 L14.1824,14.4545 C14.1824,14.7561 13.9379,15.0005 13.6364,15.0005 C13.3348,15.0005 13.0904,14.7561 13.0904,14.4545 L13.0904,6.54545 C13.0904,6.24391 13.3348,5.99945 13.6364,5.99945 C13.9379,5.99945 14.1824,6.24391 14.1824,6.54545 " fill-rule="nonzero" vector-effect="none"/>
            <path d="M11.3412,8.06847 L13.2503,6.15937 L13.6364,5.77329 L14.0224,6.15937 L15.9315,8.06847 C16.1448,8.28169 16.1448,8.6274 15.9315,8.84063 C15.7183,9.05385 15.3726,9.05385 15.1594,8.84063 L13.2503,6.93153 L13.6364,6.54545 L14.0224,6.93153 L12.1134,8.84063 C11.9001,9.05385 11.5544,9.05385 11.3412,8.84063 C11.128,8.6274 11.128,8.28169 11.3412,8.06847 " fill-rule="nonzero" vector-effect="none"/>
        </g>
    </g>
</svg>
