<?xml version='1.0' encoding='UTF-8' standalone='no'?>
<svg version="1.2" xmlns:xlink="http://www.w3.org/1999/xlink" viewBox="0 0 66 66" xmlns="http://www.w3.org/2000/svg" width="5.82083mm" height="5.82083mm" baseProfile="tiny">
    <style id="current-color-scheme" type="text/css">.ColorScheme-Text {color:#232629;}</style>
    <title>Qt SVG Document</title>
    <desc>Auto-generated by Klassy window decoration</desc>
    <defs/>
    <g stroke-linejoin="bevel" stroke-linecap="square" fill="none" stroke-width="1" stroke="black" fill-rule="evenodd">
        <g font-weight="400" class="ColorScheme-Text" font-size="40" fill="currentColor" transform="matrix(3.66667,0,0,3.66667,27,27)" font-style="normal" stroke="none" font-family="Noto Sans" fill-opacity="0.650004">
            <rect y="0" x="0" width="3.27273" height="3.27273"/>
        </g>
        <g font-weight="400" class="ColorScheme-Text" font-size="40" fill="currentColor" transform="matrix(3.66667,0,0,3.66667,27,27)" font-style="normal" stroke="none" font-family="Noto Sans" fill-opacity="0.850004">
            <path vector-effect="none" fill-rule="nonzero" d="M0,-0.546 L3.27273,-0.546 L3.81873,0 L3.81873,3.27273 L3.27273,3.81873 L0,3.81873 L-0.546,3.27273 L-0.546,0 L0,-0.546 M0.546,0 L0.546,3.27273 L0,3.27273 L0,2.72673 L3.27273,2.72673 L3.27273,3.27273 L2.72673,3.27273 L2.72673,0 L3.27273,0 L3.27273,0.546 L0,0.546 L0,0 L0.546,0"/>
        </g>
    </g>
</svg>
