<?xml version='1.0' encoding='UTF-8' standalone='no'?>
<svg baseProfile="tiny" height="8.46667mm" version="1.2" viewBox="0 0 48 48" width="8.46667mm" xmlns="http://www.w3.org/2000/svg" xmlns:xlink="http://www.w3.org/1999/xlink">
    <style id="current-color-scheme" type="text/css">.ColorScheme-Text {color:#232629;}</style>
    <title>Qt SVG Document</title>
    <desc>Auto-generated by Klassy window decoration</desc>
    <defs/>
    <g fill="none" fill-rule="evenodd" stroke="black" stroke-linecap="square" stroke-linejoin="bevel" stroke-width="1">
        <g class="ColorScheme-Text" fill="currentColor" fill-opacity="0.949996" font-family="Noto Sans" font-size="20" font-style="normal" font-weight="400" stroke="none" transform="matrix(2.66667,0,0,2.66667,11,19)">
            <path d="M0,-0.75075 L7.125,-0.75075 L7.87575,0 L7.87575,7.125 L7.125,7.87575 L0,7.87575 L-0.75075,7.125 L-0.75075,0 L0,-0.75075 M0.75075,0 L0.75075,7.125 L0,7.125 L0,6.37425 L7.125,6.37425 L7.125,7.125 L6.37425,7.125 L6.37425,0 L7.125,0 L7.125,0.75075 L0,0.75075 L0,0 L0.75075,0" fill-rule="nonzero" vector-effect="none"/>
        </g>
        <g class="ColorScheme-Text" fill="currentColor" fill-opacity="0.949996" font-family="Noto Sans" font-size="20" font-style="normal" font-weight="400" stroke="none" transform="matrix(2.66667,0,0,2.66667,11,19)">
            <path d="M2.24925,-0.75075 L2.24925,-3 L3,-3.75075 L10.125,-3.75075 L10.8758,-3 L10.8758,4.125 L10.125,4.87575 L7.87575,4.87575 L7.87575,3.37425 L10.125,3.37425 L10.125,4.125 L9.37425,4.125 L9.37425,-3 L10.125,-3 L10.125,-2.24925 L3,-2.24925 L3,-3 L3.75075,-3 L3.75075,-0.75075 L2.24925,-0.75075" fill-rule="nonzero" vector-effect="none"/>
        </g>
    </g>
</svg>
