<?xml version='1.0' encoding='UTF-8' standalone='no'?>
<svg width="8.46667mm" viewBox="0 0 48 48" baseProfile="tiny" xmlns="http://www.w3.org/2000/svg" xmlns:xlink="http://www.w3.org/1999/xlink" version="1.2" height="8.46667mm">
    <style id="current-color-scheme" type="text/css">.ColorScheme-Text {color:#232629;}</style>
    <title>Qt SVG Document</title>
    <desc>Auto-generated by Klassy window decoration</desc>
    <defs/>
    <g stroke-linecap="square" fill-rule="evenodd" stroke-linejoin="bevel" stroke-width="1" fill="none" stroke="black">
        <g class="ColorScheme-Text" font-weight="400" font-family="Noto Sans" font-size="20" transform="matrix(2.66667,0,0,2.66667,0,0)" fill-opacity="1" fill="currentColor" font-style="normal" stroke="none">
            <path fill-rule="nonzero" vector-effect="none" d="M4.3125,12 L8.4375,12 C8.74816,12 9,12.2518 9,12.5625 C9,12.8732 8.74816,13.125 8.4375,13.125 L4.3125,13.125 C4.00184,13.125 3.75,12.8732 3.75,12.5625 C3.75,12.2518 4.00184,12 4.3125,12 "/>
            <path fill-rule="nonzero" vector-effect="none" d="M4.3125,7.875 L8.4375,7.875 C8.74816,7.875 9,8.12684 9,8.4375 C9,8.74816 8.74816,9 8.4375,9 L4.3125,9 C4.00184,9 3.75,8.74816 3.75,8.4375 C3.75,8.12684 4.00184,7.875 4.3125,7.875 "/>
            <path fill-rule="nonzero" vector-effect="none" d="M4.3125,3.75 L13.3125,3.75 C13.6232,3.75 13.875,4.00184 13.875,4.3125 C13.875,4.62316 13.6232,4.875 13.3125,4.875 L4.3125,4.875 C4.00184,4.875 3.75,4.62316 3.75,4.3125 C3.75,4.00184 4.00184,3.75 4.3125,3.75 "/>
            <path fill-rule="nonzero" vector-effect="none" d="M14.25,6.5625 L14.25,14.4375 C14.25,14.7482 13.9982,15 13.6875,15 C13.3768,15 13.125,14.7482 13.125,14.4375 L13.125,6.5625 C13.125,6.25184 13.3768,6 13.6875,6 C13.9982,6 14.25,6.25184 14.25,6.5625 "/>
            <path fill-rule="nonzero" vector-effect="none" d="M11.4148,8.03975 L13.2898,6.16475 L13.6875,5.767 L14.0852,6.16475 L15.9602,8.03975 C16.1799,8.25942 16.1799,8.61558 15.9602,8.83525 C15.7406,9.05492 15.3844,9.05492 15.1648,8.83525 L13.2898,6.96025 L13.6875,6.5625 L14.0852,6.96025 L12.2102,8.83525 C11.9906,9.05492 11.6344,9.05492 11.4148,8.83525 C11.1951,8.61558 11.1951,8.25942 11.4148,8.03975 "/>
        </g>
    </g>
</svg>
