<?xml version='1.0' encoding='UTF-8' standalone='no'?>
<svg version="1.2" xmlns:xlink="http://www.w3.org/1999/xlink" viewBox="0 0 48 48" xmlns="http://www.w3.org/2000/svg" width="8.46667mm" height="8.46667mm" baseProfile="tiny">
    <style id="current-color-scheme" type="text/css">.ColorScheme-Text {color:#232629;}</style>
    <title>Qt SVG Document</title>
    <desc>Auto-generated by Klassy window decoration</desc>
    <defs/>
    <g stroke-linejoin="bevel" stroke-linecap="square" fill="none" stroke-width="1" stroke="black" fill-rule="evenodd">
        <g font-weight="400" class="ColorScheme-Text" font-size="20" fill="currentColor" transform="matrix(2.66667,0,0,2.66667,0,0)" font-style="normal" stroke="none" font-family="Noto Sans" fill-opacity="1">
            <path vector-effect="none" fill-rule="nonzero" d="M4.3125,11.9994 L8.4375,11.9994 C8.74847,11.9994 9.00056,12.2515 9.00056,12.5625 C9.00056,12.8735 8.74847,13.1256 8.4375,13.1256 L4.3125,13.1256 C4.00153,13.1256 3.74944,12.8735 3.74944,12.5625 C3.74944,12.2515 4.00153,11.9994 4.3125,11.9994 "/>
            <path vector-effect="none" fill-rule="nonzero" d="M4.3125,7.87444 L8.4375,7.87444 C8.74847,7.87444 9.00056,8.12653 9.00056,8.4375 C9.00056,8.74847 8.74847,9.00056 8.4375,9.00056 L4.3125,9.00056 C4.00153,9.00056 3.74944,8.74847 3.74944,8.4375 C3.74944,8.12653 4.00153,7.87444 4.3125,7.87444 "/>
            <path vector-effect="none" fill-rule="nonzero" d="M4.3125,3.74944 L13.3125,3.74944 C13.6235,3.74944 13.8756,4.00153 13.8756,4.3125 C13.8756,4.62347 13.6235,4.87556 13.3125,4.87556 L4.3125,4.87556 C4.00153,4.87556 3.74944,4.62347 3.74944,4.3125 C3.74944,4.00153 4.00153,3.74944 4.3125,3.74944 "/>
            <path vector-effect="none" fill-rule="nonzero" d="M14.2506,6.5625 L14.2506,14.4375 C14.2506,14.7485 13.9985,15.0006 13.6875,15.0006 C13.3765,15.0006 13.1244,14.7485 13.1244,14.4375 L13.1244,6.5625 C13.1244,6.25153 13.3765,5.99944 13.6875,5.99944 C13.9985,5.99944 14.2506,6.25153 14.2506,6.5625 "/>
            <path vector-effect="none" fill-rule="nonzero" d="M11.4144,8.03935 L13.2894,6.16435 L13.6875,5.76621 L14.0856,6.16435 L15.9606,8.03935 C16.1805,8.25924 16.1805,8.61576 15.9606,8.83565 C15.7408,9.05553 15.3842,9.05553 15.1644,8.83565 L13.2894,6.96065 L13.6875,6.5625 L14.0856,6.96065 L12.2106,8.83565 C11.9908,9.05553 11.6342,9.05553 11.4144,8.83565 C11.1945,8.61576 11.1945,8.25924 11.4144,8.03935 "/>
        </g>
    </g>
</svg>
