<?xml version='1.0' encoding='UTF-8' standalone='no'?>
<svg width="8.46667mm" viewBox="0 0 48 48" baseProfile="tiny" xmlns="http://www.w3.org/2000/svg" xmlns:xlink="http://www.w3.org/1999/xlink" version="1.2" height="8.46667mm">
    <style id="current-color-scheme" type="text/css">.ColorScheme-Text {color:#232629;}</style>
    <title>Qt SVG Document</title>
    <desc>Auto-generated by Klassy window decoration</desc>
    <defs/>
    <g stroke-linecap="square" fill-rule="evenodd" stroke-linejoin="bevel" stroke-width="1" fill="none" stroke="black">
        <g class="ColorScheme-Text" font-weight="400" font-family="Noto Sans" font-size="20" transform="matrix(2.66667,0,0,2.66667,0,0)" fill-opacity="1" fill="currentColor" font-style="normal" stroke="none">
            <path fill-rule="nonzero" vector-effect="none" d="M4.125,4.125 L13.875,4.125 C14.1857,4.125 14.4375,4.37684 14.4375,4.6875 C14.4375,4.99816 14.1857,5.25 13.875,5.25 L4.125,5.25 C3.81434,5.25 3.5625,4.99816 3.5625,4.6875 C3.5625,4.37684 3.81434,4.125 4.125,4.125 "/>
            <path fill-rule="nonzero" vector-effect="none" d="M4.39775,7.60225 L9.39775,12.6023 L9,13 L8.60225,12.6023 L13.6023,7.60225 C13.8219,7.38258 14.1781,7.38258 14.3977,7.60225 C14.6174,7.82192 14.6174,8.17808 14.3977,8.39775 L9.39775,13.3977 L9,13.7955 L8.60225,13.3977 L3.60225,8.39775 C3.38258,8.17808 3.38258,7.82192 3.60225,7.60225 C3.82192,7.38258 4.17808,7.38258 4.39775,7.60225 "/>
        </g>
    </g>
</svg>
