<?xml version='1.0' encoding='UTF-8' standalone='no'?>
<svg version="1.2" xmlns:xlink="http://www.w3.org/1999/xlink" viewBox="0 0 30 30" xmlns="http://www.w3.org/2000/svg" width="5.29167mm" height="5.29167mm" baseProfile="tiny">
    <style id="current-color-scheme" type="text/css">.ColorScheme-Text {color:#fcfcfc;}</style>
    <title>Qt SVG Document</title>
    <desc>Auto-generated by Klassy window decoration</desc>
    <defs/>
    <g stroke-linejoin="bevel" stroke-linecap="square" fill="none" stroke-width="1" stroke="black" fill-rule="evenodd">
        <g font-weight="400" class="ColorScheme-Text" font-size="20" fill="currentColor" transform="matrix(1.66667,0,0,1.66667,0,0)" font-style="normal" stroke="none" font-family="Noto Sans" fill-opacity="1">
            <path vector-effect="none" fill-rule="nonzero" d="M4.2,11.9994 L8.4,11.9994 C8.7317,11.9994 9.0006,12.2683 9.0006,12.6 C9.0006,12.9317 8.7317,13.2006 8.4,13.2006 L4.2,13.2006 C3.8683,13.2006 3.5994,12.9317 3.5994,12.6 C3.5994,12.2683 3.8683,11.9994 4.2,11.9994 "/>
            <path vector-effect="none" fill-rule="nonzero" d="M4.2,7.7994 L8.4,7.7994 C8.7317,7.7994 9.0006,8.0683 9.0006,8.4 C9.0006,8.7317 8.7317,9.0006 8.4,9.0006 L4.2,9.0006 C3.8683,9.0006 3.5994,8.7317 3.5994,8.4 C3.5994,8.0683 3.8683,7.7994 4.2,7.7994 "/>
            <path vector-effect="none" fill-rule="nonzero" d="M4.2,3.5994 L13.2,3.5994 C13.5317,3.5994 13.8006,3.8683 13.8006,4.2 C13.8006,4.5317 13.5317,4.8006 13.2,4.8006 L4.2,4.8006 C3.8683,4.8006 3.5994,4.5317 3.5994,4.2 C3.5994,3.8683 3.8683,3.5994 4.2,3.5994 "/>
            <path vector-effect="none" fill-rule="nonzero" d="M14.4006,6.6 L14.4006,14.4 C14.4006,14.7317 14.1317,15.0006 13.8,15.0006 C13.4683,15.0006 13.1994,14.7317 13.1994,14.4 L13.1994,6.6 C13.1994,6.2683 13.4683,5.9994 13.8,5.9994 C14.1317,5.9994 14.4006,6.2683 14.4006,6.6 "/>
            <path vector-effect="none" fill-rule="nonzero" d="M11.5753,7.97531 L13.3753,6.17531 L13.8,5.75062 L14.2247,6.17531 L16.0247,7.97531 C16.2592,8.20986 16.2592,8.59014 16.0247,8.82469 C15.7901,9.05924 15.4099,9.05924 15.1753,8.82469 L13.3753,7.02469 L13.8,6.6 L14.2247,7.02469 L12.4247,8.82469 C12.1901,9.05924 11.8099,9.05924 11.5753,8.82469 C11.3408,8.59014 11.3408,8.20986 11.5753,7.97531 "/>
        </g>
    </g>
</svg>
