<?xml version='1.0' encoding='UTF-8' standalone='no'?>
<svg baseProfile="tiny" height="12.7mm" version="1.2" viewBox="0 0 48 48" width="12.7mm" xmlns="http://www.w3.org/2000/svg" xmlns:xlink="http://www.w3.org/1999/xlink">
    <style id="current-color-scheme" type="text/css">.ColorScheme-Text {color:#232629;}</style>
    <title>Qt SVG Document</title>
    <desc>Auto-generated by Klassy window decoration</desc>
    <defs/>
    <g fill="none" fill-rule="evenodd" stroke="black" stroke-linecap="square" stroke-linejoin="bevel" stroke-width="1">
        <g class="ColorScheme-Text" fill="#da0016" fill-opacity="0.719997" font-family="Noto Sans" font-size="13.3333" font-style="normal" font-weight="400" stroke="none" transform="matrix(3,0,0,3,0,0)">
            <path d="M2,3.2 C2,2.53726 2.53726,2 3.2,2 L12.8,2 C13.4627,2 14,2.53726 14,3.2 L14,12.8 C14,13.4627 13.4627,14 12.8,14 L3.2,14 C2.53726,14 2,13.4627 2,12.8 L2,3.2" fill-rule="evenodd" vector-effect="none"/>
        </g>
        <g class="ColorScheme-Text" fill="#ffffff" fill-opacity="1" font-family="Noto Sans" font-size="13.3333" font-style="normal" font-weight="400" stroke="none" transform="matrix(2.66667,0,0,2.66667,0,0)">
            <path d="M4.71065,3.91435 L14.0856,13.2894 C14.3055,13.5092 14.3055,13.8658 14.0856,14.0856 C13.8658,14.3055 13.5092,14.3055 13.2894,14.0856 L3.91435,4.71065 C3.69447,4.49076 3.69447,4.13424 3.91435,3.91435 C4.13424,3.69447 4.49076,3.69447 4.71065,3.91435 " fill-rule="nonzero" vector-effect="none"/>
            <path d="M14.0856,4.71065 L4.71065,14.0856 C4.49076,14.3055 4.13424,14.3055 3.91435,14.0856 C3.69447,13.8658 3.69447,13.5092 3.91435,13.2894 L13.2894,3.91435 C13.5092,3.69447 13.8658,3.69447 14.0856,3.91435 C14.3055,4.13424 14.3055,4.49076 14.0856,4.71065 " fill-rule="nonzero" vector-effect="none"/>
        </g>
    </g>
</svg>
