<?xml version='1.0' encoding='UTF-8' standalone='no'?>
<svg version="1.2" xmlns:xlink="http://www.w3.org/1999/xlink" viewBox="0 0 48 48" xmlns="http://www.w3.org/2000/svg" width="12.7mm" height="12.7mm" baseProfile="tiny">
    <style id="current-color-scheme" type="text/css">.ColorScheme-Text {color:#232629;}</style>
    <title>Qt SVG Document</title>
    <desc>Auto-generated by Klassy window decoration</desc>
    <defs/>
    <g stroke-linejoin="bevel" stroke-linecap="square" fill="none" stroke-width="1" stroke="black" fill-rule="evenodd">
        <g font-weight="400" class="ColorScheme-Text" font-size="13.3333" fill="currentColor" transform="matrix(2.66667,0,0,2.66667,0,0)" font-style="normal" stroke="none" font-family="Noto Sans" fill-opacity="1">
            <path vector-effect="none" fill-rule="nonzero" d="M6.44589,4.48092 C6.98862,3.6284 8.10058,2.9995 9.25,2.9995 C10.9623,2.9995 12.5005,4.39788 12.5005,6 C12.5005,8.05933 11.4883,8.56545 10.7522,8.99482 C10.0151,9.42476 9.5005,9.76786 9.5005,11.5 C9.5005,11.7764 9.27642,12.0005 9,12.0005 C8.72358,12.0005 8.4995,11.7764 8.4995,11.5 C8.4995,9.23214 9.48485,8.57524 10.2478,8.13018 C11.0117,7.68455 11.4995,7.44067 11.4995,6 C11.4995,4.84069 10.5753,4.0005 9.25,4.0005 C8.36404,4.0005 7.69886,4.37671 7.2903,5.01848 C7.14185,5.25166 6.83249,5.32035 6.59931,5.1719 C6.36614,5.02346 6.29745,4.71409 6.44589,4.48092 "/>
        </g>
        <g font-weight="400" class="ColorScheme-Text" font-size="13.3333" fill="currentColor" transform="matrix(2.66667,0,0,2.66667,0,0)" font-style="normal" stroke="none" font-family="Noto Sans" fill-opacity="1">
            <circle cy="15" cx="9" r="0.75"/>
        </g>
    </g>
</svg>
