<?xml version='1.0' encoding='UTF-8' standalone='no'?>
<svg version="1.2" xmlns:xlink="http://www.w3.org/1999/xlink" viewBox="0 0 48 48" xmlns="http://www.w3.org/2000/svg" width="12.7mm" height="12.7mm" baseProfile="tiny">
    <style id="current-color-scheme" type="text/css">.ColorScheme-Text {color:#232629;}</style>
    <title>Qt SVG Document</title>
    <desc>Auto-generated by Klassy window decoration</desc>
    <defs/>
    <g stroke-linejoin="bevel" stroke-linecap="square" fill="none" stroke-width="1" stroke="black" fill-rule="evenodd">
        <g font-weight="400" class="ColorScheme-Text" font-size="13.3333" fill="currentColor" transform="matrix(2.66667,0,0,2.66667,11.5,17.5)" font-style="normal" stroke="none" font-family="Noto Sans" fill-opacity="0.900008">
            <path vector-effect="none" fill-rule="nonzero" d="M0,-0.563063 L7.125,-0.563063 L7.68806,0 L7.68806,7.125 L7.125,7.68806 L0,7.68806 L-0.563063,7.125 L-0.563063,0 L0,-0.563063 M0.563063,0 L0.563063,7.125 L0,7.125 L0,6.56194 L7.125,6.56194 L7.125,7.125 L6.56194,7.125 L6.56194,0 L7.125,0 L7.125,0.563063 L0,0.563063 L0,0 L0.563063,0"/>
        </g>
        <g font-weight="400" class="ColorScheme-Text" font-size="13.3333" fill="currentColor" transform="matrix(2.66667,0,0,2.66667,11.5,17.5)" font-style="normal" stroke="none" font-family="Noto Sans" fill-opacity="0.900008">
            <path vector-effect="none" fill-rule="nonzero" d="M1.68694,-0.563063 L1.68694,-2.25 L2.25,-2.81306 L9.375,-2.81306 L9.93806,-2.25 L9.93806,4.875 L9.375,5.43806 L7.68806,5.43806 L7.68806,4.31194 L9.375,4.31194 L9.375,4.875 L8.81194,4.875 L8.81194,-2.25 L9.375,-2.25 L9.375,-1.68694 L2.25,-1.68694 L2.25,-2.25 L2.81306,-2.25 L2.81306,-0.563063 L1.68694,-0.563063"/>
        </g>
    </g>
</svg>
