<?xml version='1.0' encoding='UTF-8' standalone='no'?>
<svg baseProfile="tiny" height="4.8213mm" version="1.2" viewBox="0 0 41 41" width="4.8213mm" xmlns="http://www.w3.org/2000/svg" xmlns:xlink="http://www.w3.org/1999/xlink">
    <style id="current-color-scheme" type="text/css">.ColorScheme-Text {color:#fcfcfc;}</style>
    <title>Qt SVG Document</title>
    <desc>Auto-generated by Klassy window decoration</desc>
    <defs/>
    <g fill="none" fill-rule="evenodd" stroke="black" stroke-linecap="square" stroke-linejoin="bevel" stroke-width="1">
        <g class="ColorScheme-Text" fill="#da0016" fill-opacity="0.719997" font-family="Noto Sans" font-size="30" font-style="normal" font-weight="400" stroke="none" transform="matrix(2.5625,0,0,2.5625,0,0)">
            <path d="M2,3.2 C2,2.53726 2.53726,2 3.2,2 L12.8,2 C13.4627,2 14,2.53726 14,3.2 L14,12.8 C14,13.4627 13.4627,14 12.8,14 L3.2,14 C2.53726,14 2,13.4627 2,12.8 L2,3.2" fill-rule="evenodd" vector-effect="none"/>
        </g>
        <g class="ColorScheme-Text" fill="#ffffff" fill-opacity="1" font-family="Noto Sans" font-size="30" font-style="normal" font-weight="400" stroke="none" transform="matrix(2.27778,0,0,2.27778,0,0)">
            <path d="M5.07588,4.14363 L14.2954,13.3631 C14.5528,13.6206 14.5528,14.038 14.2954,14.2954 C14.038,14.5528 13.6206,14.5528 13.3631,14.2954 L4.14363,5.07588 C3.8862,4.81845 3.8862,4.40107 4.14363,4.14363 C4.40107,3.8862 4.81845,3.8862 5.07588,4.14363 " fill-rule="nonzero" vector-effect="none"/>
            <path d="M14.2954,5.07588 L5.07588,14.2954 C4.81845,14.5528 4.40107,14.5528 4.14363,14.2954 C3.8862,14.038 3.8862,13.6206 4.14363,13.3631 L13.3631,4.14363 C13.6206,3.8862 14.038,3.8862 14.2954,4.14363 C14.5528,4.40107 14.5528,4.81845 14.2954,5.07588 " fill-rule="nonzero" vector-effect="none"/>
        </g>
    </g>
</svg>
