<?xml version='1.0' encoding='UTF-8' standalone='no'?>
<svg version="1.2" xmlns:xlink="http://www.w3.org/1999/xlink" viewBox="0 0 41 41" xmlns="http://www.w3.org/2000/svg" width="4.8213mm" height="4.8213mm" baseProfile="tiny">
    <style id="current-color-scheme" type="text/css">.ColorScheme-Text {color:#fcfcfc;}</style>
    <title>Qt SVG Document</title>
    <desc>Auto-generated by Klassy window decoration</desc>
    <defs/>
    <g stroke-linejoin="bevel" stroke-linecap="square" fill="none" stroke-width="1" stroke="black" fill-rule="evenodd">
        <g font-weight="400" class="ColorScheme-Text" font-size="30" fill="currentColor" transform="matrix(2.27778,0,0,2.27778,9.5,16.5)" font-style="normal" stroke="none" font-family="Noto Sans" fill-opacity="1">
            <path vector-effect="none" fill-rule="nonzero" d="M0,-0.659195 L7.02439,-0.659195 L7.68359,0 L7.68359,7.02439 L7.02439,7.68359 L0,7.68359 L-0.659195,7.02439 L-0.659195,0 L0,-0.659195 M0.659195,0 L0.659195,7.02439 L0,7.02439 L0,6.3652 L7.02439,6.3652 L7.02439,7.02439 L6.3652,7.02439 L6.3652,0 L7.02439,0 L7.02439,0.659195 L0,0.659195 L0,0 L0.659195,0"/>
        </g>
        <g font-weight="400" class="ColorScheme-Text" font-size="30" fill="currentColor" transform="matrix(2.27778,0,0,2.27778,9.5,16.5)" font-style="normal" stroke="none" font-family="Noto Sans" fill-opacity="1">
            <path vector-effect="none" fill-rule="nonzero" d="M2.41398,-0.659195 L2.41398,-3.07317 L3.07317,-3.73237 L10.0976,-3.73237 L10.7568,-3.07317 L10.7568,3.95122 L10.0976,4.61041 L7.68359,4.61041 L7.68359,3.29202 L10.0976,3.29202 L10.0976,3.95122 L9.43837,3.95122 L9.43837,-3.07317 L10.0976,-3.07317 L10.0976,-2.41398 L3.07317,-2.41398 L3.07317,-3.07317 L3.73237,-3.07317 L3.73237,-0.659195 L2.41398,-0.659195"/>
        </g>
    </g>
</svg>
