<?xml version='1.0' encoding='UTF-8' standalone='no'?>
<svg width="4.8213mm" viewBox="0 0 41 41" baseProfile="tiny" xmlns="http://www.w3.org/2000/svg" xmlns:xlink="http://www.w3.org/1999/xlink" version="1.2" height="4.8213mm">
    <style id="current-color-scheme" type="text/css">.ColorScheme-Text {color:#fcfcfc;}</style>
    <title>Qt SVG Document</title>
    <desc>Auto-generated by Klassy window decoration</desc>
    <defs/>
    <g stroke-linecap="square" fill-rule="evenodd" stroke-linejoin="bevel" stroke-width="1" fill="none" stroke="black">
        <g class="ColorScheme-Text" font-weight="400" font-family="Noto Sans" font-size="30" transform="matrix(2.27778,0,0,2.27778,0,0)" fill-opacity="1" fill="currentColor" font-style="normal" stroke="none">
            <path fill-rule="nonzero" vector-effect="none" d="M4.60976,14.0488 L13.3902,14.0488 C13.7539,14.0488 14.0488,14.3436 14.0488,14.7073 C14.0488,15.071 13.7539,15.3659 13.3902,15.3659 L4.60976,15.3659 C4.24606,15.3659 3.95122,15.071 3.95122,14.7073 C3.95122,14.3436 4.24606,14.0488 4.60976,14.0488 "/>
            <path fill-rule="nonzero" vector-effect="none" d="M9.43902,9.65854 L13.3902,9.65854 C13.7539,9.65854 14.0488,9.95337 14.0488,10.3171 C14.0488,10.6808 13.7539,10.9756 13.3902,10.9756 L9.43902,10.9756 C9.07532,10.9756 8.78049,10.6808 8.78049,10.3171 C8.78049,9.95337 9.07532,9.65854 9.43902,9.65854 "/>
            <path fill-rule="nonzero" vector-effect="none" d="M9.43902,5.26829 L13.3902,5.26829 C13.7539,5.26829 14.0488,5.56313 14.0488,5.92683 C14.0488,6.29053 13.7539,6.58537 13.3902,6.58537 L9.43902,6.58537 C9.07532,6.58537 8.78049,6.29053 8.78049,5.92683 C8.78049,5.56313 9.07532,5.26829 9.43902,5.26829 "/>
            <path fill-rule="nonzero" vector-effect="none" d="M5.26829,4.60976 L5.26829,12.5122 C5.26829,12.8759 4.97346,13.1707 4.60976,13.1707 C4.24606,13.1707 3.95122,12.8759 3.95122,12.5122 L3.95122,4.60976 C3.95122,4.24606 4.24606,3.95122 4.60976,3.95122 C4.97346,3.95122 5.26829,4.24606 5.26829,4.60976 "/>
            <path fill-rule="nonzero" vector-effect="none" d="M2.88029,9.85142 L5.07541,12.0465 L4.60976,12.5122 L4.1441,12.0465 L6.33922,9.85142 C6.5964,9.59424 7.01336,9.59424 7.27053,9.85142 C7.52771,10.1086 7.52771,10.5256 7.27053,10.7827 L5.07541,12.9779 L4.60976,13.4435 L4.1441,12.9779 L1.94898,10.7827 C1.6918,10.5256 1.6918,10.1086 1.94898,9.85142 C2.20615,9.59424 2.62312,9.59424 2.88029,9.85142 "/>
        </g>
    </g>
</svg>
