<?xml version='1.0' encoding='UTF-8' standalone='no'?>
<svg version="1.2" xmlns:xlink="http://www.w3.org/1999/xlink" viewBox="0 0 41 41" xmlns="http://www.w3.org/2000/svg" width="4.8213mm" height="4.8213mm" baseProfile="tiny">
    <style id="current-color-scheme" type="text/css">.ColorScheme-Text {color:#fcfcfc;}</style>
    <title>Qt SVG Document</title>
    <desc>Auto-generated by Klassy window decoration</desc>
    <defs/>
    <g stroke-linejoin="bevel" stroke-linecap="square" fill="none" stroke-width="1" stroke="black" fill-rule="evenodd">
        <g font-weight="400" class="ColorScheme-Text" font-size="30" fill="currentColor" transform="matrix(2.27778,0,0,2.27778,0,0)" font-style="normal" stroke="none" font-family="Noto Sans" fill-opacity="1">
            <path vector-effect="none" fill-rule="nonzero" d="M3.95122,3.95056 L14.0488,3.95056 C14.4128,3.95056 14.708,4.24569 14.708,4.60976 C14.708,4.97382 14.4128,5.26895 14.0488,5.26895 L3.95122,5.26895 C3.58716,5.26895 3.29202,4.97382 3.29202,4.60976 C3.29202,4.24569 3.58716,3.95056 3.95122,3.95056 "/>
            <path vector-effect="none" fill-rule="nonzero" d="M4.46612,7.53388 L9.46612,12.5339 L9,13 L8.53388,12.5339 L13.5339,7.53388 C13.7913,7.27645 14.2087,7.27645 14.4661,7.53388 C14.7236,7.79131 14.7236,8.20869 14.4661,8.46612 L9.46612,13.4661 L9,13.9322 L8.53388,13.4661 L3.53388,8.46612 C3.27645,8.20869 3.27645,7.79131 3.53388,7.53388 C3.79131,7.27645 4.20869,7.27645 4.46612,7.53388 "/>
        </g>
    </g>
</svg>
