<?xml version='1.0' encoding='UTF-8' standalone='no'?>
<svg version="1.2" xmlns:xlink="http://www.w3.org/1999/xlink" viewBox="0 0 41 41" xmlns="http://www.w3.org/2000/svg" width="4.8213mm" height="4.8213mm" baseProfile="tiny">
    <style id="current-color-scheme" type="text/css">.ColorScheme-Text {color:#fcfcfc;}</style>
    <title>Qt SVG Document</title>
    <desc>Auto-generated by Klassy window decoration</desc>
    <defs/>
    <g stroke-linejoin="bevel" stroke-linecap="square" fill="none" stroke-width="1" stroke="black" fill-rule="evenodd">
        <g font-weight="400" class="ColorScheme-Text" font-size="30" fill="currentColor" transform="matrix(2.27778,0,0,2.27778,0,0)" font-style="normal" stroke="none" font-family="Noto Sans" fill-opacity="1">
            <path vector-effect="none" fill-rule="nonzero" d="M3.95122,3.95056 L14.0488,3.95056 C14.4128,3.95056 14.708,4.24569 14.708,4.60976 C14.708,4.97382 14.4128,5.26895 14.0488,5.26895 L3.95122,5.26895 C3.58716,5.26895 3.29202,4.97382 3.29202,4.60976 C3.29202,4.24569 3.58716,3.95056 3.95122,3.95056 "/>
            <path vector-effect="none" fill-rule="nonzero" d="M3.53388,12.5339 L8.53388,7.53388 L9,7.06776 L9.46612,7.53388 L14.4661,12.5339 C14.7236,12.7913 14.7236,13.2087 14.4661,13.4661 C14.2087,13.7236 13.7913,13.7236 13.5339,13.4661 L8.53388,8.46612 L9,8 L9.46612,8.46612 L4.46612,13.4661 C4.20869,13.7236 3.79131,13.7236 3.53388,13.4661 C3.27645,13.2087 3.27645,12.7913 3.53388,12.5339 "/>
        </g>
    </g>
</svg>
