<?xml version='1.0' encoding='UTF-8' standalone='no'?>
<svg width="4.8213mm" viewBox="0 0 41 41" baseProfile="tiny" xmlns="http://www.w3.org/2000/svg" xmlns:xlink="http://www.w3.org/1999/xlink" version="1.2" height="4.8213mm">
    <style id="current-color-scheme" type="text/css">.ColorScheme-Text {color:#fcfcfc;}</style>
    <title>Qt SVG Document</title>
    <desc>Auto-generated by Klassy window decoration</desc>
    <defs/>
    <g stroke-linecap="square" fill-rule="evenodd" stroke-linejoin="bevel" stroke-width="1" fill="none" stroke="black">
        <g class="ColorScheme-Text" font-weight="400" font-family="Noto Sans" font-size="30" transform="matrix(2.27778,0,0,2.27778,17,17)" fill-opacity="0.650004" fill="currentColor" font-style="normal" stroke="none">
            <rect width="3.5122" y="0" x="0" height="3.5122"/>
        </g>
        <g class="ColorScheme-Text" font-weight="400" font-family="Noto Sans" font-size="30" transform="matrix(2.27778,0,0,2.27778,17,17)" fill-opacity="0.850004" fill="currentColor" font-style="normal" stroke="none">
            <path fill-rule="nonzero" vector-effect="none" d="M0,-0.439024 L3.5122,-0.439024 L3.95122,0 L3.95122,3.5122 L3.5122,3.95122 L0,3.95122 L-0.439024,3.5122 L-0.439024,0 L0,-0.439024 M0.439024,0 L0.439024,3.5122 L0,3.5122 L0,3.07317 L3.5122,3.07317 L3.5122,3.5122 L3.07317,3.5122 L3.07317,0 L3.5122,0 L3.5122,0.439024 L0,0.439024 L0,0 L0.439024,0"/>
        </g>
    </g>
</svg>
