<?xml version='1.0' encoding='UTF-8' standalone='no'?>
<svg width="4.8213mm" viewBox="0 0 41 41" baseProfile="tiny" xmlns="http://www.w3.org/2000/svg" xmlns:xlink="http://www.w3.org/1999/xlink" version="1.2" height="4.8213mm">
    <style id="current-color-scheme" type="text/css">.ColorScheme-Text {color:#fcfcfc;}</style>
    <title>Qt SVG Document</title>
    <desc>Auto-generated by Klassy window decoration</desc>
    <defs/>
    <g stroke-linecap="square" fill-rule="evenodd" stroke-linejoin="bevel" stroke-width="1" fill="none" stroke="black">
        <g class="ColorScheme-Text" font-weight="400" font-family="Noto Sans" font-size="30" transform="matrix(2.27778,0,0,2.27778,0,0)" fill-opacity="1" fill="currentColor" font-style="normal" stroke="none">
            <path fill-rule="nonzero" vector-effect="none" d="M4.60976,11.8537 L8.56098,11.8537 C8.92468,11.8537 9.21951,12.1485 9.21951,12.5122 C9.21951,12.8759 8.92468,13.1707 8.56098,13.1707 L4.60976,13.1707 C4.24606,13.1707 3.95122,12.8759 3.95122,12.5122 C3.95122,12.1485 4.24606,11.8537 4.60976,11.8537 "/>
            <path fill-rule="nonzero" vector-effect="none" d="M4.60976,7.90244 L8.56098,7.90244 C8.92468,7.90244 9.21951,8.19728 9.21951,8.56098 C9.21951,8.92468 8.92468,9.21951 8.56098,9.21951 L4.60976,9.21951 C4.24606,9.21951 3.95122,8.92468 3.95122,8.56098 C3.95122,8.19728 4.24606,7.90244 4.60976,7.90244 "/>
            <path fill-rule="nonzero" vector-effect="none" d="M4.60976,3.95122 L13.3902,3.95122 C13.7539,3.95122 14.0488,4.24606 14.0488,4.60976 C14.0488,4.97346 13.7539,5.26829 13.3902,5.26829 L4.60976,5.26829 C4.24606,5.26829 3.95122,4.97346 3.95122,4.60976 C3.95122,4.24606 4.24606,3.95122 4.60976,3.95122 "/>
            <path fill-rule="nonzero" vector-effect="none" d="M14.0488,6.36585 L14.0488,14.7073 C14.0488,15.071 13.7539,15.3659 13.3902,15.3659 C13.0265,15.3659 12.7317,15.071 12.7317,14.7073 L12.7317,6.36585 C12.7317,6.00215 13.0265,5.70732 13.3902,5.70732 C13.7539,5.70732 14.0488,6.00215 14.0488,6.36585 "/>
            <path fill-rule="nonzero" vector-effect="none" d="M10.7295,8.09532 L12.9246,5.9002 L13.3902,5.43454 L13.8559,5.9002 L16.051,8.09532 C16.3082,8.35249 16.3082,8.76946 16.051,9.02663 C15.7938,9.28381 15.3769,9.28381 15.1197,9.02663 L12.9246,6.83151 L13.3902,6.36585 L13.8559,6.83151 L11.6608,9.02663 C11.4036,9.28381 10.9866,9.28381 10.7295,9.02663 C10.4723,8.76946 10.4723,8.35249 10.7295,8.09532 "/>
        </g>
    </g>
</svg>
