<?xml version='1.0' encoding='UTF-8' standalone='no'?>
<svg width="4.8213mm" viewBox="0 0 41 41" baseProfile="tiny" xmlns="http://www.w3.org/2000/svg" xmlns:xlink="http://www.w3.org/1999/xlink" version="1.2" height="4.8213mm">
    <style id="current-color-scheme" type="text/css">.ColorScheme-Text {color:#fcfcfc;}</style>
    <title>Qt SVG Document</title>
    <desc>Auto-generated by Klassy window decoration</desc>
    <defs/>
    <g stroke-linecap="square" fill-rule="evenodd" stroke-linejoin="bevel" stroke-width="1" fill="none" stroke="black">
        <g class="ColorScheme-Text" font-weight="400" font-family="Noto Sans" font-size="30" transform="matrix(2.27778,0,0,2.27778,0,0)" fill-opacity="1" fill="currentColor" font-style="normal" stroke="none">
            <path fill-rule="nonzero" vector-effect="none" d="M3.95122,3.95122 L14.0488,3.95122 C14.4125,3.95122 14.7073,4.24606 14.7073,4.60976 C14.7073,4.97346 14.4125,5.26829 14.0488,5.26829 L3.95122,5.26829 C3.58752,5.26829 3.29268,4.97346 3.29268,4.60976 C3.29268,4.24606 3.58752,3.95122 3.95122,3.95122 "/>
            <path fill-rule="nonzero" vector-effect="none" d="M4.46566,7.53434 L9.46566,12.5343 L9,13 L8.53434,12.5343 L13.5343,7.53434 C13.7915,7.27717 14.2085,7.27717 14.4657,7.53434 C14.7228,7.79152 14.7228,8.20848 14.4657,8.46566 L9.46566,13.4657 L9,13.9313 L8.53434,13.4657 L3.53434,8.46566 C3.27717,8.20848 3.27717,7.79152 3.53434,7.53434 C3.79152,7.27717 4.20848,7.27717 4.46566,7.53434 "/>
        </g>
    </g>
</svg>
