<?xml version='1.0' encoding='UTF-8' standalone='no'?>
<svg baseProfile="tiny" height="4.8213mm" version="1.2" viewBox="0 0 41 41" width="4.8213mm" xmlns="http://www.w3.org/2000/svg" xmlns:xlink="http://www.w3.org/1999/xlink">
    <style id="current-color-scheme" type="text/css">.ColorScheme-Text {color:#fcfcfc;}</style>
    <title>Qt SVG Document</title>
    <desc>Auto-generated by Klassy window decoration</desc>
    <defs/>
    <g fill="none" fill-rule="evenodd" stroke="black" stroke-linecap="square" stroke-linejoin="bevel" stroke-width="1">
        <g class="ColorScheme-Text" fill="currentColor" fill-opacity="0.949996" font-family="Noto Sans" font-size="30" font-style="normal" font-weight="400" stroke="none" transform="matrix(2.27778,0,0,2.27778,0,0)">
            <path d="M3.95056,4.61091 C3.95056,4.33722 4.33722,3.95056 4.61091,3.95056 L13.8281,3.95056 C14.0101,3.95056 14.1661,4.0155 14.2948,4.14421 C14.4235,4.27293 14.4885,4.42888 14.4885,4.61091 L14.4885,13.8281 C14.4885,14.0101 14.4235,14.1661 14.2948,14.2948 C14.1661,14.4235 14.0101,14.4885 13.8281,14.4885 L4.61091,14.4885 C4.42888,14.4885 4.27293,14.4235 4.14421,14.2948 C4.0155,14.1661 3.95056,14.0101 3.95056,13.8281 L3.95056,4.61091 M5.26895,4.61091 L5.26895,13.8281 C5.26895,13.6461 5.20517,13.4913 5.07645,13.3626 C4.94774,13.2339 4.79294,13.1701 4.61091,13.1701 L13.8281,13.1701 C13.6461,13.1701 13.4913,13.2339 13.3626,13.3626 C13.2339,13.4913 13.1701,13.6461 13.1701,13.8281 L13.1701,4.61091 C13.1701,4.79294 13.2339,4.94774 13.3626,5.07645 C13.4913,5.20517 13.6461,5.26895 13.8281,5.26895 L4.61091,5.26895 C4.88332,5.26895 5.26895,4.88332 5.26895,4.61091 " fill-rule="nonzero" vector-effect="none"/>
        </g>
    </g>
</svg>
