<?xml version='1.0' encoding='UTF-8' standalone='no'?>
<svg width="5.92667mm" viewBox="0 0 28 28" baseProfile="tiny" xmlns="http://www.w3.org/2000/svg" xmlns:xlink="http://www.w3.org/1999/xlink" version="1.2" height="5.92667mm">
    <style id="current-color-scheme" type="text/css">.ColorScheme-Text {color:#232629;}</style>
    <title>Qt SVG Document</title>
    <desc>Auto-generated by Klassy window decoration</desc>
    <defs/>
    <g stroke-linecap="square" fill-rule="evenodd" stroke-linejoin="bevel" stroke-width="1" fill="none" stroke="black">
        <g class="ColorScheme-Text" font-weight="400" font-family="Noto Sans" font-size="16.6667" transform="matrix(1.55556,0,0,1.55556,12,12)" fill-opacity="0.650004" fill="currentColor" font-style="normal" stroke="none">
            <rect width="2.57143" y="0" x="0" height="2.57143"/>
        </g>
        <g class="ColorScheme-Text" font-weight="400" font-family="Noto Sans" font-size="16.6667" transform="matrix(1.55556,0,0,1.55556,12,12)" fill-opacity="0.850004" fill="currentColor" font-style="normal" stroke="none">
            <path fill-rule="nonzero" vector-effect="none" d="M0,-0.642857 L2.57143,-0.642857 L3.21429,0 L3.21429,2.57143 L2.57143,3.21429 L0,3.21429 L-0.642857,2.57143 L-0.642857,0 L0,-0.642857 M0.642857,0 L0.642857,2.57143 L0,2.57143 L0,1.92857 L2.57143,1.92857 L2.57143,2.57143 L1.92857,2.57143 L1.92857,0 L2.57143,0 L2.57143,0.642857 L0,0.642857 L0,0 L0.642857,0"/>
        </g>
    </g>
</svg>
