<?xml version='1.0' encoding='UTF-8' standalone='no'?>
<svg baseProfile="tiny" height="5.92667mm" version="1.2" viewBox="0 0 28 28" width="5.92667mm" xmlns="http://www.w3.org/2000/svg" xmlns:xlink="http://www.w3.org/1999/xlink">
    <style id="current-color-scheme" type="text/css">.ColorScheme-Text {color:#232629;}</style>
    <title>Qt SVG Document</title>
    <desc>Auto-generated by Klassy window decoration</desc>
    <defs/>
    <g fill="none" fill-rule="evenodd" stroke="black" stroke-linecap="square" stroke-linejoin="bevel" stroke-width="1">
        <g class="ColorScheme-Text" fill="currentColor" fill-opacity="0.949996" font-family="Noto Sans" font-size="16.6667" font-style="normal" font-weight="400" stroke="none" transform="matrix(1.55556,0,0,1.55556,0,0)">
            <path d="M3.8565,4.50113 C3.8565,4.23396 4.23396,3.8565 4.50113,3.8565 L13.4989,3.8565 C13.766,3.8565 14.1435,4.23396 14.1435,4.50113 L14.1435,13.4989 C14.1435,13.766 13.766,14.1435 13.4989,14.1435 L4.50113,14.1435 C4.23396,14.1435 3.8565,13.766 3.8565,13.4989 L3.8565,4.50113 M5.1435,4.50113 L5.1435,13.4989 C5.1435,13.2329 4.76705,12.8565 4.50113,12.8565 L13.4989,12.8565 C13.2329,12.8565 12.8565,13.2329 12.8565,13.4989 L12.8565,4.50113 C12.8565,4.76705 13.2329,5.1435 13.4989,5.1435 L4.50113,5.1435 C4.76705,5.1435 5.1435,4.76705 5.1435,4.50113 " fill-rule="nonzero" vector-effect="none"/>
        </g>
    </g>
</svg>
