<?xml version='1.0' encoding='UTF-8' standalone='no'?>
<svg baseProfile="tiny" height="5.92667mm" version="1.2" viewBox="0 0 28 28" width="5.92667mm" xmlns="http://www.w3.org/2000/svg" xmlns:xlink="http://www.w3.org/1999/xlink">
    <style id="current-color-scheme" type="text/css">.ColorScheme-Text {color:#232629;}</style>
    <title>Qt SVG Document</title>
    <desc>Auto-generated by Klassy window decoration</desc>
    <defs/>
    <g fill="none" fill-rule="evenodd" stroke="black" stroke-linecap="square" stroke-linejoin="bevel" stroke-width="1">
        <g class="ColorScheme-Text" fill="currentColor" fill-opacity="1" font-family="Noto Sans" font-size="16.6667" font-style="normal" font-weight="400" stroke="none" transform="matrix(1.55556,0,0,1.55556,0,0)">
            <path d="M4.5,14.1422 L13.5,14.1422 C13.8554,14.1422 14.1435,14.4303 14.1435,14.7857 C14.1435,15.1411 13.8554,15.4292 13.5,15.4292 L4.5,15.4292 C4.1446,15.4292 3.8565,15.1411 3.8565,14.7857 C3.8565,14.4303 4.1446,14.1422 4.5,14.1422 " fill-rule="nonzero" vector-effect="none"/>
            <path d="M9.64286,9.64221 L13.5,9.64221 C13.8554,9.64221 14.1435,9.93032 14.1435,10.2857 C14.1435,10.6411 13.8554,10.9292 13.5,10.9292 L9.64286,10.9292 C9.28746,10.9292 8.99936,10.6411 8.99936,10.2857 C8.99936,9.93032 9.28746,9.64221 9.64286,9.64221 " fill-rule="nonzero" vector-effect="none"/>
            <path d="M9.64286,5.14221 L13.5,5.14221 C13.8554,5.14221 14.1435,5.43032 14.1435,5.78571 C14.1435,6.14111 13.8554,6.42921 13.5,6.42921 L9.64286,6.42921 C9.28746,6.42921 8.99936,6.14111 8.99936,5.78571 C8.99936,5.43032 9.28746,5.14221 9.64286,5.14221 " fill-rule="nonzero" vector-effect="none"/>
            <path d="M5.1435,4.5 L5.1435,12.2143 C5.1435,12.5697 4.8554,12.8578 4.5,12.8578 C4.1446,12.8578 3.8565,12.5697 3.8565,12.2143 L3.8565,4.5 C3.8565,4.1446 4.1446,3.8565 4.5,3.8565 C4.8554,3.8565 5.1435,4.1446 5.1435,4.5 " fill-rule="nonzero" vector-effect="none"/>
            <path d="M3.02645,9.83069 L4.95502,11.7593 L4.5,12.2143 L4.04498,11.7593 L5.97355,9.83069 C6.22485,9.57939 6.63229,9.57939 6.88359,9.83069 C7.1349,10.082 7.1349,10.4894 6.88359,10.7407 L4.95502,12.6693 L4.5,13.1243 L4.04498,12.6693 L2.11641,10.7407 C1.8651,10.4894 1.8651,10.082 2.11641,9.83069 C2.36771,9.57939 2.77515,9.57939 3.02645,9.83069 " fill-rule="nonzero" vector-effect="none"/>
        </g>
    </g>
</svg>
