<?xml version='1.0' encoding='UTF-8' standalone='no'?>
<svg width="5.92667mm" viewBox="0 0 28 28" baseProfile="tiny" xmlns="http://www.w3.org/2000/svg" xmlns:xlink="http://www.w3.org/1999/xlink" version="1.2" height="5.92667mm">
    <style id="current-color-scheme" type="text/css">.ColorScheme-Text {color:#232629;}</style>
    <title>Qt SVG Document</title>
    <desc>Auto-generated by Klassy window decoration</desc>
    <defs/>
    <g stroke-linecap="square" fill-rule="evenodd" stroke-linejoin="bevel" stroke-width="1" fill="none" stroke="black">
        <g class="ColorScheme-Text" font-weight="400" font-family="Noto Sans" font-size="16.6667" transform="matrix(1.55556,0,0,1.55556,0,0)" fill-opacity="1" fill="currentColor" font-style="normal" stroke="none">
            <path fill-rule="nonzero" vector-effect="none" d="M3.85714,3.85714 L14.1429,3.85714 C14.4979,3.85714 14.7857,4.14496 14.7857,4.5 C14.7857,4.85504 14.4979,5.14286 14.1429,5.14286 L3.85714,5.14286 C3.5021,5.14286 3.21429,4.85504 3.21429,4.5 C3.21429,4.14496 3.5021,3.85714 3.85714,3.85714 "/>
            <path fill-rule="nonzero" vector-effect="none" d="M3.54543,12.5454 L8.54543,7.54543 L9,7.09086 L9.45457,7.54543 L14.4546,12.5454 C14.7056,12.7965 14.7056,13.2035 14.4546,13.4546 C14.2035,13.7056 13.7965,13.7056 13.5454,13.4546 L8.54543,8.45457 L9,8 L9.45457,8.45457 L4.45457,13.4546 C4.20352,13.7056 3.79648,13.7056 3.54543,13.4546 C3.29438,13.2035 3.29438,12.7965 3.54543,12.5454 "/>
        </g>
    </g>
</svg>
