<?xml version='1.0' encoding='UTF-8' standalone='no'?>
<svg version="1.2" xmlns:xlink="http://www.w3.org/1999/xlink" viewBox="0 0 28 28" xmlns="http://www.w3.org/2000/svg" width="5.92667mm" height="5.92667mm" baseProfile="tiny">
    <style id="current-color-scheme" type="text/css">.ColorScheme-Text {color:#232629;}</style>
    <title>Qt SVG Document</title>
    <desc>Auto-generated by Klassy window decoration</desc>
    <defs/>
    <g stroke-linejoin="bevel" stroke-linecap="square" fill="none" stroke-width="1" stroke="black" fill-rule="evenodd">
        <g font-weight="400" class="ColorScheme-Text" font-size="16.6667" fill="currentColor" transform="matrix(1.55556,0,0,1.55556,6,11)" font-style="normal" stroke="none" font-family="Noto Sans" fill-opacity="1">
            <path vector-effect="none" fill-rule="nonzero" d="M0,-0.6435 L7.07143,-0.6435 L7.71493,0 L7.71493,7.07143 L7.07143,7.71493 L0,7.71493 L-0.6435,7.07143 L-0.6435,0 L0,-0.6435 M0.6435,0 L0.6435,7.07143 L0,7.07143 L0,6.42793 L7.07143,6.42793 L7.07143,7.07143 L6.42793,7.07143 L6.42793,0 L7.07143,0 L7.07143,0.6435 L0,0.6435 L0,0 L0.6435,0"/>
        </g>
        <g font-weight="400" class="ColorScheme-Text" font-size="16.6667" fill="currentColor" transform="matrix(1.55556,0,0,1.55556,6,11)" font-style="normal" stroke="none" font-family="Noto Sans" fill-opacity="1">
            <path vector-effect="none" fill-rule="nonzero" d="M2.57079,-0.6435 L2.57079,-3.21429 L3.21429,-3.85779 L10.2857,-3.85779 L10.9292,-3.21429 L10.9292,3.85714 L10.2857,4.50064 L7.71493,4.50064 L7.71493,3.21364 L10.2857,3.21364 L10.2857,3.85714 L9.64221,3.85714 L9.64221,-3.21429 L10.2857,-3.21429 L10.2857,-2.57079 L3.21429,-2.57079 L3.21429,-3.21429 L3.85779,-3.21429 L3.85779,-0.6435 L2.57079,-0.6435"/>
        </g>
    </g>
</svg>
