<?xml version='1.0' encoding='UTF-8' standalone='no'?>
<svg width="6.35mm" viewBox="0 0 30 30" baseProfile="tiny" xmlns="http://www.w3.org/2000/svg" xmlns:xlink="http://www.w3.org/1999/xlink" version="1.2" height="6.35mm">
    <style id="current-color-scheme" type="text/css">.ColorScheme-Text {color:#232629;}</style>
    <title>Qt SVG Document</title>
    <desc>Auto-generated by Klassy window decoration</desc>
    <defs/>
    <g stroke-linecap="square" fill-rule="evenodd" stroke-linejoin="bevel" stroke-width="1" fill="none" stroke="black">
        <g class="ColorScheme-Text" font-weight="400" font-family="Noto Sans" font-size="16.6667" transform="matrix(1.66667,0,0,1.66667,0,0)" fill-opacity="1" fill="currentColor" font-style="normal" stroke="none">
            <path fill-rule="nonzero" vector-effect="none" d="M4.2,4.2 L13.8,4.2 C14.1314,4.2 14.4,4.46863 14.4,4.8 C14.4,5.13137 14.1314,5.4 13.8,5.4 L4.2,5.4 C3.86863,5.4 3.6,5.13137 3.6,4.8 C3.6,4.46863 3.86863,4.2 4.2,4.2 "/>
            <path fill-rule="nonzero" vector-effect="none" d="M4.42426,7.57574 L9.42426,12.5757 L9,13 L8.57574,12.5757 L13.5757,7.57574 C13.8101,7.34142 14.1899,7.34142 14.4243,7.57574 C14.6586,7.81005 14.6586,8.18995 14.4243,8.42426 L9.42426,13.4243 L9,13.8485 L8.57574,13.4243 L3.57574,8.42426 C3.34142,8.18995 3.34142,7.81005 3.57574,7.57574 C3.81005,7.34142 4.18995,7.34142 4.42426,7.57574 "/>
        </g>
    </g>
</svg>
