<?xml version='1.0' encoding='UTF-8' standalone='no'?>
<svg width="6.35mm" viewBox="0 0 30 30" baseProfile="tiny" xmlns="http://www.w3.org/2000/svg" xmlns:xlink="http://www.w3.org/1999/xlink" version="1.2" height="6.35mm">
    <style id="current-color-scheme" type="text/css">.ColorScheme-Text {color:#232629;}</style>
    <title>Qt SVG Document</title>
    <desc>Auto-generated by Klassy window decoration</desc>
    <defs/>
    <g stroke-linecap="square" fill-rule="evenodd" stroke-linejoin="bevel" stroke-width="1" fill="none" stroke="black">
        <g class="ColorScheme-Text" font-weight="400" font-family="Noto Sans" font-size="16.6667" transform="matrix(1.66667,0,0,1.66667,12,12)" fill-opacity="0.650004" fill="currentColor" font-style="normal" stroke="none">
            <rect width="3.6" y="0" x="0" height="3.6"/>
        </g>
        <g class="ColorScheme-Text" font-weight="400" font-family="Noto Sans" font-size="16.6667" transform="matrix(1.66667,0,0,1.66667,12,12)" fill-opacity="0.850004" fill="currentColor" font-style="normal" stroke="none">
            <path fill-rule="nonzero" vector-effect="none" d="M0,-0.6 L3.6,-0.6 L4.2,0 L4.2,3.6 L3.6,4.2 L0,4.2 L-0.6,3.6 L-0.6,0 L0,-0.6 M0.6,0 L0.6,3.6 L0,3.6 L0,3 L3.6,3 L3.6,3.6 L3,3.6 L3,0 L3.6,0 L3.6,0.6 L0,0.6 L0,0 L0.6,0"/>
        </g>
    </g>
</svg>
