<?xml version='1.0' encoding='UTF-8' standalone='no'?>
<svg width="6.35mm" viewBox="0 0 30 30" baseProfile="tiny" xmlns="http://www.w3.org/2000/svg" xmlns:xlink="http://www.w3.org/1999/xlink" version="1.2" height="6.35mm">
    <style id="current-color-scheme" type="text/css">.ColorScheme-Text {color:#232629;}</style>
    <title>Qt SVG Document</title>
    <desc>Auto-generated by Klassy window decoration</desc>
    <defs/>
    <g stroke-linecap="square" fill-rule="evenodd" stroke-linejoin="bevel" stroke-width="1" fill="none" stroke="black">
        <g class="ColorScheme-Text" font-weight="400" font-family="Noto Sans" font-size="16.6667" transform="matrix(1.66667,0,0,1.66667,6.5,12.5)" fill-opacity="1" fill="currentColor" font-style="normal" stroke="none">
            <path fill-rule="nonzero" vector-effect="none" d="M0,-0.9 L7.2,-0.9 L8.1,0 L8.1,7.2 L7.2,8.1 L0,8.1 L-0.9,7.2 L-0.9,0 L0,-0.9 M0.9,0 L0.9,7.2 L0,7.2 L0,6.3 L7.2,6.3 L7.2,7.2 L6.3,7.2 L6.3,0 L7.2,0 L7.2,0.9 L0,0.9 L0,0 L0.9,0"/>
        </g>
        <g class="ColorScheme-Text" font-weight="400" font-family="Noto Sans" font-size="16.6667" transform="matrix(1.66667,0,0,1.66667,6.5,12.5)" fill-opacity="1" fill="currentColor" font-style="normal" stroke="none">
            <path fill-rule="nonzero" vector-effect="none" d="M2.7,-0.9 L2.7,-3.6 L3.6,-4.5 L10.8,-4.5 L11.7,-3.6 L11.7,3.6 L10.8,4.5 L8.1,4.5 L8.1,2.7 L10.8,2.7 L10.8,3.6 L9.9,3.6 L9.9,-3.6 L10.8,-3.6 L10.8,-2.7 L3.6,-2.7 L3.6,-3.6 L4.5,-3.6 L4.5,-0.9 L2.7,-0.9"/>
        </g>
    </g>
</svg>
