<?xml version='1.0' encoding='UTF-8' standalone='no'?>
<svg baseProfile="tiny" height="6.35mm" version="1.2" viewBox="0 0 30 30" width="6.35mm" xmlns="http://www.w3.org/2000/svg" xmlns:xlink="http://www.w3.org/1999/xlink">
    <style id="current-color-scheme" type="text/css">.ColorScheme-Text {color:#232629;}</style>
    <title>Qt SVG Document</title>
    <desc>Auto-generated by Klassy window decoration</desc>
    <defs/>
    <g fill="none" fill-rule="evenodd" stroke="black" stroke-linecap="square" stroke-linejoin="bevel" stroke-width="1">
        <g class="ColorScheme-Text" fill="currentColor" fill-opacity="0.949996" font-family="Noto Sans" font-size="16.6667" font-style="normal" font-weight="400" stroke="none" transform="matrix(1.66667,0,0,1.66667,0,0)">
            <path d="M3.5991,4.50113 C3.5991,4.12734 4.12734,3.5991 4.50113,3.5991 L13.4989,3.5991 C13.8727,3.5991 14.4009,4.12734 14.4009,4.50113 L14.4009,13.4989 C14.4009,13.8727 13.8727,14.4009 13.4989,14.4009 L4.50113,14.4009 C4.12734,14.4009 3.5991,13.8727 3.5991,13.4989 L3.5991,4.50113 M5.4009,4.50113 L5.4009,13.4989 C5.4009,13.1263 4.87367,12.5991 4.50113,12.5991 L13.4989,12.5991 C13.1263,12.5991 12.5991,13.1263 12.5991,13.4989 L12.5991,4.50113 C12.5991,4.87367 13.1263,5.4009 13.4989,5.4009 L4.50113,5.4009 C4.87367,5.4009 5.4009,4.87367 5.4009,4.50113 " fill-rule="nonzero" vector-effect="none"/>
        </g>
    </g>
</svg>
