<?xml version='1.0' encoding='UTF-8' standalone='no'?>
<svg baseProfile="tiny" height="6.35mm" version="1.2" viewBox="0 0 30 30" width="6.35mm" xmlns="http://www.w3.org/2000/svg" xmlns:xlink="http://www.w3.org/1999/xlink">
    <style id="current-color-scheme" type="text/css">.ColorScheme-Text {color:#232629;}</style>
    <title>Qt SVG Document</title>
    <desc>Auto-generated by Klassy window decoration</desc>
    <defs/>
    <g fill="none" fill-rule="evenodd" stroke="black" stroke-linecap="square" stroke-linejoin="bevel" stroke-width="1">
        <g class="ColorScheme-Text" fill="currentColor" fill-opacity="1" font-family="Noto Sans" font-size="16.6667" font-style="normal" font-weight="400" stroke="none" transform="matrix(1.66667,0,0,1.66667,0,0)">
            <path d="M4.8,13.7994 L13.8,13.7994 C14.1317,13.7994 14.4006,14.0683 14.4006,14.4 C14.4006,14.7317 14.1317,15.0006 13.8,15.0006 L4.8,15.0006 C4.4683,15.0006 4.1994,14.7317 4.1994,14.4 C4.1994,14.0683 4.4683,13.7994 4.8,13.7994 " fill-rule="nonzero" vector-effect="none"/>
            <path d="M9.6,9.5994 L13.8,9.5994 C14.1317,9.5994 14.4006,9.8683 14.4006,10.2 C14.4006,10.5317 14.1317,10.8006 13.8,10.8006 L9.6,10.8006 C9.2683,10.8006 8.9994,10.5317 8.9994,10.2 C8.9994,9.8683 9.2683,9.5994 9.6,9.5994 " fill-rule="nonzero" vector-effect="none"/>
            <path d="M9.6,5.3994 L13.8,5.3994 C14.1317,5.3994 14.4006,5.6683 14.4006,6 C14.4006,6.3317 14.1317,6.6006 13.8,6.6006 L9.6,6.6006 C9.2683,6.6006 8.9994,6.3317 8.9994,6 C8.9994,5.6683 9.2683,5.3994 9.6,5.3994 " fill-rule="nonzero" vector-effect="none"/>
            <path d="M4.8006,4.2 L4.8006,12.6 C4.8006,12.9317 4.5317,13.2006 4.2,13.2006 C3.8683,13.2006 3.5994,12.9317 3.5994,12.6 L3.5994,4.2 C3.5994,3.8683 3.8683,3.5994 4.2,3.5994 C4.5317,3.5994 4.8006,3.8683 4.8006,4.2 " fill-rule="nonzero" vector-effect="none"/>
            <path d="M2.88048,9.83964 L4.68048,12.2396 L4.2,12.6 L3.71952,12.2396 L5.51952,9.83964 C5.71854,9.57428 6.095,9.5205 6.36036,9.71952 C6.62572,9.91854 6.6795,10.295 6.48048,10.5604 L4.68048,12.9604 L4.2,13.601 L3.71952,12.9604 L1.91952,10.5604 C1.7205,10.295 1.77428,9.91854 2.03964,9.71952 C2.305,9.5205 2.68146,9.57428 2.88048,9.83964 " fill-rule="nonzero" vector-effect="none"/>
        </g>
    </g>
</svg>
