<?xml version='1.0' encoding='UTF-8' standalone='no'?>
<svg baseProfile="tiny" height="6.35mm" version="1.2" viewBox="0 0 30 30" width="6.35mm" xmlns="http://www.w3.org/2000/svg" xmlns:xlink="http://www.w3.org/1999/xlink">
    <style id="current-color-scheme" type="text/css">.ColorScheme-Text {color:#232629;}</style>
    <title>Qt SVG Document</title>
    <desc>Auto-generated by Klassy window decoration</desc>
    <defs/>
    <g fill="none" fill-rule="evenodd" stroke="black" stroke-linecap="square" stroke-linejoin="bevel" stroke-width="1">
        <g class="ColorScheme-Text" fill="currentColor" fill-opacity="0.450004" font-family="Noto Sans" font-size="16.6667" font-style="normal" font-weight="400" stroke="none" transform="matrix(1.66667,0,0,1.66667,13,13)">
            <rect height="3" width="3" x="0" y="0"/>
        </g>
        <g class="ColorScheme-Text" fill="currentColor" fill-opacity="0.902495" font-family="Noto Sans" font-size="16.6667" font-style="normal" font-weight="400" stroke="none" transform="matrix(1.66667,0,0,1.66667,13,13)">
            <path d="M0,-0.9009 L3,-0.9009 L3.9009,0 L3.9009,3 L3,3.9009 L0,3.9009 L-0.9009,3 L-0.9009,0 L0,-0.9009 M0.9009,0 L0.9009,3 L0,3 L0,2.0991 L3,2.0991 L3,3 L2.0991,3 L2.0991,0 L3,0 L3,0.9009 L0,0.9009 L0,0 L0.9009,0" fill-rule="nonzero" vector-effect="none"/>
        </g>
    </g>
</svg>
