<?xml version='1.0' encoding='UTF-8' standalone='no'?>
<svg width="6.35mm" viewBox="0 0 30 30" baseProfile="tiny" xmlns="http://www.w3.org/2000/svg" xmlns:xlink="http://www.w3.org/1999/xlink" version="1.2" height="6.35mm">
    <style id="current-color-scheme" type="text/css">.ColorScheme-Text {color:#232629;}</style>
    <title>Qt SVG Document</title>
    <desc>Auto-generated by Klassy window decoration</desc>
    <defs/>
    <g stroke-linecap="square" fill-rule="evenodd" stroke-linejoin="bevel" stroke-width="1" fill="none" stroke="black">
        <g class="ColorScheme-Text" font-weight="400" font-family="Noto Sans" font-size="16.6667" transform="matrix(1.66667,0,0,1.66667,0,0)" fill-opacity="1" fill="currentColor" font-style="normal" stroke="none">
            <path fill-rule="nonzero" vector-effect="none" d="M4.2,12 L8.4,12 C8.73137,12 9,12.2686 9,12.6 C9,12.9314 8.73137,13.2 8.4,13.2 L4.2,13.2 C3.86863,13.2 3.6,12.9314 3.6,12.6 C3.6,12.2686 3.86863,12 4.2,12 "/>
            <path fill-rule="nonzero" vector-effect="none" d="M4.2,7.8 L8.4,7.8 C8.73137,7.8 9,8.06863 9,8.4 C9,8.73137 8.73137,9 8.4,9 L4.2,9 C3.86863,9 3.6,8.73137 3.6,8.4 C3.6,8.06863 3.86863,7.8 4.2,7.8 "/>
            <path fill-rule="nonzero" vector-effect="none" d="M4.2,3.6 L13.2,3.6 C13.5314,3.6 13.8,3.86863 13.8,4.2 C13.8,4.53137 13.5314,4.8 13.2,4.8 L4.2,4.8 C3.86863,4.8 3.6,4.53137 3.6,4.2 C3.6,3.86863 3.86863,3.6 4.2,3.6 "/>
            <path fill-rule="nonzero" vector-effect="none" d="M14.4,6.6 L14.4,14.4 C14.4,14.7314 14.1314,15 13.8,15 C13.4686,15 13.2,14.7314 13.2,14.4 L13.2,6.6 C13.2,6.26863 13.4686,6 13.8,6 C14.1314,6 14.4,6.26863 14.4,6.6 "/>
            <path fill-rule="nonzero" vector-effect="none" d="M11.5757,7.97574 L13.3757,6.17574 L13.8,5.75147 L14.2243,6.17574 L16.0243,7.97574 C16.2586,8.21005 16.2586,8.58995 16.0243,8.82426 C15.7899,9.05858 15.4101,9.05858 15.1757,8.82426 L13.3757,7.02426 L13.8,6.6 L14.2243,7.02426 L12.4243,8.82426 C12.1899,9.05858 11.8101,9.05858 11.5757,8.82426 C11.3414,8.58995 11.3414,8.21005 11.5757,7.97574 "/>
        </g>
    </g>
</svg>
