<?xml version='1.0' encoding='UTF-8' standalone='no'?>
<svg version="1.2" xmlns:xlink="http://www.w3.org/1999/xlink" viewBox="0 0 30 30" xmlns="http://www.w3.org/2000/svg" width="6.35mm" height="6.35mm" baseProfile="tiny">
    <style id="current-color-scheme" type="text/css">.ColorScheme-Text {color:#232629;}</style>
    <title>Qt SVG Document</title>
    <desc>Auto-generated by Klassy window decoration</desc>
    <defs/>
    <g stroke-linejoin="bevel" stroke-linecap="square" fill="none" stroke-width="1" stroke="black" fill-rule="evenodd">
        <g font-weight="400" class="ColorScheme-Text" font-size="16.6667" fill="currentColor" transform="matrix(1.66667,0,0,1.66667,6.5,12.5)" font-style="normal" stroke="none" font-family="Noto Sans" fill-opacity="1">
            <path vector-effect="none" fill-rule="nonzero" d="M0,-0.9009 L7.2,-0.9009 L8.1009,0 L8.1009,7.2 L7.2,8.1009 L0,8.1009 L-0.9009,7.2 L-0.9009,0 L0,-0.9009 M0.9009,0 L0.9009,7.2 L0,7.2 L0,6.2991 L7.2,6.2991 L7.2,7.2 L6.2991,7.2 L6.2991,0 L7.2,0 L7.2,0.9009 L0,0.9009 L0,0 L0.9009,0"/>
        </g>
        <g font-weight="400" class="ColorScheme-Text" font-size="16.6667" fill="currentColor" transform="matrix(1.66667,0,0,1.66667,6.5,12.5)" font-style="normal" stroke="none" font-family="Noto Sans" fill-opacity="1">
            <path vector-effect="none" fill-rule="nonzero" d="M2.6991,-0.9009 L2.6991,-3.6 L3.6,-4.5009 L10.8,-4.5009 L11.7009,-3.6 L11.7009,3.6 L10.8,4.5009 L8.1009,4.5009 L8.1009,2.6991 L10.8,2.6991 L10.8,3.6 L9.8991,3.6 L9.8991,-3.6 L10.8,-3.6 L10.8,-2.6991 L3.6,-2.6991 L3.6,-3.6 L4.5009,-3.6 L4.5009,-0.9009 L2.6991,-0.9009"/>
        </g>
    </g>
</svg>
