<?xml version='1.0' encoding='UTF-8' standalone='no'?>
<svg width="12.7mm" viewBox="0 0 96 96" baseProfile="tiny" xmlns="http://www.w3.org/2000/svg" xmlns:xlink="http://www.w3.org/1999/xlink" version="1.2" height="12.7mm">
    <style id="current-color-scheme" type="text/css">.ColorScheme-Text {color:#232629;}</style>
    <title>Qt SVG Document</title>
    <desc>Auto-generated by Klassy window decoration</desc>
    <defs/>
    <g stroke-linecap="square" fill-rule="evenodd" stroke-linejoin="bevel" stroke-width="1" fill="none" stroke="black">
        <g class="ColorScheme-Text" font-weight="400" font-family="Noto Sans" font-size="26.6667" transform="matrix(5.33333,0,0,5.33333,0,0)" fill-opacity="1" fill="currentColor" font-style="normal" stroke="none">
            <path fill-rule="nonzero" vector-effect="none" d="M4.5,13.875 L13.5,13.875 C13.8107,13.875 14.0625,14.1268 14.0625,14.4375 C14.0625,14.7482 13.8107,15 13.5,15 L4.5,15 C4.18934,15 3.9375,14.7482 3.9375,14.4375 C3.9375,14.1268 4.18934,13.875 4.5,13.875 "/>
            <path fill-rule="nonzero" vector-effect="none" d="M9.5625,9.9375 L13.5,9.9375 C13.8107,9.9375 14.0625,10.1893 14.0625,10.5 C14.0625,10.8107 13.8107,11.0625 13.5,11.0625 L9.5625,11.0625 C9.25184,11.0625 9,10.8107 9,10.5 C9,10.1893 9.25184,9.9375 9.5625,9.9375 "/>
            <path fill-rule="nonzero" vector-effect="none" d="M9.5625,6 L13.5,6 C13.8107,6 14.0625,6.25184 14.0625,6.5625 C14.0625,6.87316 13.8107,7.125 13.5,7.125 L9.5625,7.125 C9.25184,7.125 9,6.87316 9,6.5625 C9,6.25184 9.25184,6 9.5625,6 "/>
            <path fill-rule="nonzero" vector-effect="none" d="M5.0625,4.5 L5.0625,12.5625 C5.0625,12.8732 4.81066,13.125 4.5,13.125 C4.18934,13.125 3.9375,12.8732 3.9375,12.5625 L3.9375,4.5 C3.9375,4.18934 4.18934,3.9375 4.5,3.9375 C4.81066,3.9375 5.0625,4.18934 5.0625,4.5 "/>
            <path fill-rule="nonzero" vector-effect="none" d="M2.83525,10.1023 L4.89775,12.1648 L4.5,12.5625 L4.10225,12.1648 L6.16475,10.1023 C6.38442,9.88258 6.74058,9.88258 6.96025,10.1023 C7.17992,10.3219 7.17992,10.6781 6.96025,10.8977 L4.89775,12.9602 L4.5,13.358 L4.10225,12.9602 L2.03975,10.8977 C1.82008,10.6781 1.82008,10.3219 2.03975,10.1023 C2.25942,9.88258 2.61558,9.88258 2.83525,10.1023 "/>
        </g>
    </g>
</svg>
