<?xml version='1.0' encoding='UTF-8' standalone='no'?>
<svg version="1.2" xmlns:xlink="http://www.w3.org/1999/xlink" viewBox="0 0 96 96" xmlns="http://www.w3.org/2000/svg" width="12.7mm" height="12.7mm" baseProfile="tiny">
    <style id="current-color-scheme" type="text/css">.ColorScheme-Text {color:#232629;}</style>
    <title>Qt SVG Document</title>
    <desc>Auto-generated by Klassy window decoration</desc>
    <defs/>
    <g stroke-linejoin="bevel" stroke-linecap="square" fill="none" stroke-width="1" stroke="black" fill-rule="evenodd">
        <g font-weight="400" class="ColorScheme-Text" font-size="26.6667" fill="currentColor" transform="matrix(5.33333,0,0,5.33333,39.5,39.5)" font-style="normal" stroke="none" font-family="Noto Sans" fill-opacity="0.650004">
            <rect y="0" x="0" width="3.1875" height="3.1875"/>
        </g>
        <g font-weight="400" class="ColorScheme-Text" font-size="26.6667" fill="currentColor" transform="matrix(5.33333,0,0,5.33333,39.5,39.5)" font-style="normal" stroke="none" font-family="Noto Sans" fill-opacity="0.850004">
            <path vector-effect="none" fill-rule="nonzero" d="M0,-0.469219 L3.1875,-0.469219 L3.65672,0 L3.65672,3.1875 L3.1875,3.65672 L0,3.65672 L-0.469219,3.1875 L-0.469219,0 L0,-0.469219 M0.469219,0 L0.469219,3.1875 L0,3.1875 L0,2.71828 L3.1875,2.71828 L3.1875,3.1875 L2.71828,3.1875 L2.71828,0 L3.1875,0 L3.1875,0.469219 L0,0.469219 L0,0 L0.469219,0"/>
        </g>
    </g>
</svg>
