<?xml version='1.0' encoding='UTF-8' standalone='no'?>
<svg baseProfile="tiny" height="12.7mm" version="1.2" viewBox="0 0 96 96" width="12.7mm" xmlns="http://www.w3.org/2000/svg" xmlns:xlink="http://www.w3.org/1999/xlink">
    <style id="current-color-scheme" type="text/css">.ColorScheme-Text {color:#232629;}</style>
    <title>Qt SVG Document</title>
    <desc>Auto-generated by Klassy window decoration</desc>
    <defs/>
    <g fill="none" fill-rule="evenodd" stroke="black" stroke-linecap="square" stroke-linejoin="bevel" stroke-width="1">
        <g class="ColorScheme-Text" fill="currentColor" fill-opacity="0.549996" font-family="Noto Sans" font-size="26.6667" font-style="normal" font-weight="400" stroke="none" transform="matrix(5.33333,0,0,5.33333,39.5,39.5)">
            <rect height="3.1875" width="3.1875" x="0" y="0"/>
        </g>
        <g class="ColorScheme-Text" fill="currentColor" fill-opacity="0.902495" font-family="Noto Sans" font-size="26.6667" font-style="normal" font-weight="400" stroke="none" transform="matrix(5.33333,0,0,5.33333,39.5,39.5)">
            <path d="M0,-0.469219 L3.1875,-0.469219 L3.65672,0 L3.65672,3.1875 L3.1875,3.65672 L0,3.65672 L-0.469219,3.1875 L-0.469219,0 L0,-0.469219 M0.469219,0 L0.469219,3.1875 L0,3.1875 L0,2.71828 L3.1875,2.71828 L3.1875,3.1875 L2.71828,3.1875 L2.71828,0 L3.1875,0 L3.1875,0.469219 L0,0.469219 L0,0 L0.469219,0" fill-rule="nonzero" vector-effect="none"/>
        </g>
    </g>
</svg>
