<?xml version='1.0' encoding='UTF-8' standalone='no'?>
<svg version="1.2" xmlns:xlink="http://www.w3.org/1999/xlink" viewBox="0 0 96 96" xmlns="http://www.w3.org/2000/svg" width="12.7mm" height="12.7mm" baseProfile="tiny">
    <style id="current-color-scheme" type="text/css">.ColorScheme-Text {color:#232629;}</style>
    <title>Qt SVG Document</title>
    <desc>Auto-generated by Klassy window decoration</desc>
    <defs/>
    <g stroke-linejoin="bevel" stroke-linecap="square" fill="none" stroke-width="1" stroke="black" fill-rule="evenodd">
        <g font-weight="400" class="ColorScheme-Text" font-size="26.6667" fill="currentColor" transform="matrix(5.33333,0,0,5.33333,0,0)" font-style="normal" stroke="none" font-family="Noto Sans" fill-opacity="1">
            <path vector-effect="none" fill-rule="nonzero" d="M3.9375,3.93684 L14.0625,3.93684 C14.4253,3.93684 14.7194,4.23095 14.7194,4.59375 C14.7194,4.95655 14.4253,5.25066 14.0625,5.25066 L3.9375,5.25066 C3.5747,5.25066 3.28059,4.95655 3.28059,4.59375 C3.28059,4.23095 3.5747,3.93684 3.9375,3.93684 "/>
            <path vector-effect="none" fill-rule="nonzero" d="M4.4645,7.5355 L9.4645,12.5355 L9,13 L8.5355,12.5355 L13.5355,7.5355 C13.792,7.27896 14.208,7.27896 14.4645,7.5355 C14.721,7.79203 14.721,8.20797 14.4645,8.4645 L9.4645,13.4645 L9,13.929 L8.5355,13.4645 L3.5355,8.4645 C3.27896,8.20797 3.27896,7.79203 3.5355,7.5355 C3.79203,7.27896 4.20797,7.27896 4.4645,7.5355 "/>
        </g>
    </g>
</svg>
