<?xml version='1.0' encoding='UTF-8' standalone='no'?>
<svg baseProfile="tiny" height="6.35mm" version="1.2" viewBox="0 0 60 60" width="6.35mm" xmlns="http://www.w3.org/2000/svg" xmlns:xlink="http://www.w3.org/1999/xlink">
    <style id="current-color-scheme" type="text/css">.ColorScheme-Text {color:#232629;}</style>
    <title>Qt SVG Document</title>
    <desc>Auto-generated by Klassy window decoration</desc>
    <defs/>
    <g fill="none" fill-rule="evenodd" stroke="black" stroke-linecap="square" stroke-linejoin="bevel" stroke-width="1">
        <g class="ColorScheme-Text" fill="currentColor" fill-opacity="0.949996" font-family="Noto Sans" font-size="33.3333" font-style="normal" font-weight="400" stroke="none" transform="matrix(3.33333,0,0,3.33333,0,0)">
            <path d="M3.59925,4.35116 C3.59925,4.03955 4.03955,3.59925 4.35116,3.59925 L13.6488,3.59925 C13.8562,3.59925 14.0337,3.67313 14.1803,3.81972 C14.3269,3.96631 14.4008,4.14385 14.4007,4.35116 L14.4007,13.6488 C14.4008,13.8562 14.3269,14.0337 14.1803,14.1803 C14.0337,14.3269 13.8562,14.4008 13.6488,14.4007 L4.35116,14.4007 C4.14385,14.4008 3.96631,14.3269 3.81972,14.1803 C3.67313,14.0337 3.59925,13.8562 3.59925,13.6488 L3.59925,4.35116 M5.10075,4.35116 L5.10075,13.6488 C5.10075,13.4415 5.02803,13.2652 4.88144,13.1186 C4.73485,12.972 4.55848,12.8992 4.35116,12.8992 L13.6488,12.8992 C13.4415,12.8992 13.2652,12.972 13.1186,13.1186 C12.972,13.2652 12.8992,13.4415 12.8992,13.6488 L12.8992,4.35116 C12.8992,4.55848 12.972,4.73485 13.1186,4.88144 C13.2652,5.02803 13.4415,5.10075 13.6488,5.10075 L4.35116,5.10075 C4.66149,5.10075 5.10075,4.66149 5.10075,4.35116 " fill-rule="nonzero" vector-effect="none"/>
        </g>
    </g>
</svg>
