<?xml version='1.0' encoding='UTF-8' standalone='no'?>
<svg baseProfile="tiny" height="6.35mm" version="1.2" viewBox="0 0 60 60" width="6.35mm" xmlns="http://www.w3.org/2000/svg" xmlns:xlink="http://www.w3.org/1999/xlink">
    <style id="current-color-scheme" type="text/css">.ColorScheme-Text {color:#232629;}</style>
    <title>Qt SVG Document</title>
    <desc>Auto-generated by Klassy window decoration</desc>
    <defs/>
    <g fill="none" fill-rule="evenodd" stroke="black" stroke-linecap="square" stroke-linejoin="bevel" stroke-width="1">
        <g class="ColorScheme-Text" fill="currentColor" fill-opacity="1" font-family="Noto Sans" font-size="33.3333" font-style="normal" font-weight="400" stroke="none" transform="matrix(3.33333,0,0,3.33333,0,0)">
            <path d="M4.5,13.7994 L13.5,13.7994 C13.8317,13.7994 14.1006,14.0683 14.1006,14.4 C14.1006,14.7317 13.8317,15.0006 13.5,15.0006 L4.5,15.0006 C4.1683,15.0006 3.8994,14.7317 3.8994,14.4 C3.8994,14.0683 4.1683,13.7994 4.5,13.7994 " fill-rule="nonzero" vector-effect="none"/>
            <path d="M9.6,9.8994 L13.5,9.8994 C13.8317,9.8994 14.1006,10.1683 14.1006,10.5 C14.1006,10.8317 13.8317,11.1006 13.5,11.1006 L9.6,11.1006 C9.2683,11.1006 8.9994,10.8317 8.9994,10.5 C8.9994,10.1683 9.2683,9.8994 9.6,9.8994 " fill-rule="nonzero" vector-effect="none"/>
            <path d="M9.6,5.9994 L13.5,5.9994 C13.8317,5.9994 14.1006,6.2683 14.1006,6.6 C14.1006,6.9317 13.8317,7.2006 13.5,7.2006 L9.6,7.2006 C9.2683,7.2006 8.9994,6.9317 8.9994,6.6 C8.9994,6.2683 9.2683,5.9994 9.6,5.9994 " fill-rule="nonzero" vector-effect="none"/>
            <path d="M5.1006,4.5 L5.1006,12.6 C5.1006,12.9317 4.8317,13.2006 4.5,13.2006 C4.1683,13.2006 3.8994,12.9317 3.8994,12.6 L3.8994,4.5 C3.8994,4.1683 4.1683,3.8994 4.5,3.8994 C4.8317,3.8994 5.1006,4.1683 5.1006,4.5 " fill-rule="nonzero" vector-effect="none"/>
            <path d="M2.82469,10.0753 L4.92469,12.1753 L4.5,12.6 L4.07531,12.1753 L6.17531,10.0753 C6.40986,9.84076 6.79014,9.84076 7.02469,10.0753 C7.25924,10.3099 7.25924,10.6901 7.02469,10.9247 L4.92469,13.0247 L4.5,13.4494 L4.07531,13.0247 L1.97531,10.9247 C1.74076,10.6901 1.74076,10.3099 1.97531,10.0753 C2.20986,9.84076 2.59014,9.84076 2.82469,10.0753 " fill-rule="nonzero" vector-effect="none"/>
        </g>
    </g>
</svg>
