<?xml version='1.0' encoding='UTF-8' standalone='no'?>
<svg version="1.2" xmlns:xlink="http://www.w3.org/1999/xlink" viewBox="0 0 60 60" xmlns="http://www.w3.org/2000/svg" width="6.35mm" height="6.35mm" baseProfile="tiny">
    <style id="current-color-scheme" type="text/css">.ColorScheme-Text {color:#232629;}</style>
    <title>Qt SVG Document</title>
    <desc>Auto-generated by Klassy window decoration</desc>
    <defs/>
    <g stroke-linejoin="bevel" stroke-linecap="square" fill="none" stroke-width="1" stroke="black" fill-rule="evenodd">
        <g font-weight="400" class="ColorScheme-Text" font-size="33.3333" fill="currentColor" transform="matrix(3.33333,0,0,3.33333,13.5,23.5)" font-style="normal" stroke="none" font-family="Noto Sans" fill-opacity="1">
            <path vector-effect="none" fill-rule="nonzero" d="M0,-0.75075 L7.2,-0.75075 L7.95075,0 L7.95075,7.2 L7.2,7.95075 L0,7.95075 L-0.75075,7.2 L-0.75075,0 L0,-0.75075 M0.75075,0 L0.75075,7.2 L0,7.2 L0,6.44925 L7.2,6.44925 L7.2,7.2 L6.44925,7.2 L6.44925,0 L7.2,0 L7.2,0.75075 L0,0.75075 L0,0 L0.75075,0"/>
        </g>
        <g font-weight="400" class="ColorScheme-Text" font-size="33.3333" fill="currentColor" transform="matrix(3.33333,0,0,3.33333,13.5,23.5)" font-style="normal" stroke="none" font-family="Noto Sans" fill-opacity="1">
            <path vector-effect="none" fill-rule="nonzero" d="M2.24925,-0.75075 L2.24925,-3 L3,-3.75075 L10.2,-3.75075 L10.9507,-3 L10.9507,4.2 L10.2,4.95075 L7.95075,4.95075 L7.95075,3.44925 L10.2,3.44925 L10.2,4.2 L9.44925,4.2 L9.44925,-3 L10.2,-3 L10.2,-2.24925 L3,-2.24925 L3,-3 L3.75075,-3 L3.75075,-0.75075 L2.24925,-0.75075"/>
        </g>
    </g>
</svg>
