<?xml version='1.0' encoding='UTF-8' standalone='no'?>
<svg width="12.7mm" viewBox="0 0 108 108" baseProfile="tiny" xmlns="http://www.w3.org/2000/svg" xmlns:xlink="http://www.w3.org/1999/xlink" version="1.2" height="12.7mm">
    <style id="current-color-scheme" type="text/css">.ColorScheme-Text {color:#fcfcfc;}</style>
    <title>Qt SVG Document</title>
    <desc>Auto-generated by Klassy window decoration</desc>
    <defs/>
    <g stroke-linecap="square" fill-rule="evenodd" stroke-linejoin="bevel" stroke-width="1" fill="none" stroke="black">
        <g class="ColorScheme-Text" font-weight="400" font-family="Noto Sans" font-size="30" transform="matrix(6.75,0,0,6.75,0,0)" fill-opacity="0.600015" fill="#da0016" font-style="normal" stroke="none">
            <path fill-rule="evenodd" vector-effect="none" d="M2,3.2 C2,2.53726 2.53726,2 3.2,2 L12.8,2 C13.4627,2 14,2.53726 14,3.2 L14,12.8 C14,13.4627 13.4627,14 12.8,14 L3.2,14 C2.53726,14 2,13.4627 2,12.8 L2,3.2"/>
        </g>
        <g class="ColorScheme-Text" font-weight="400" font-family="Noto Sans" font-size="30" transform="matrix(6,0,0,6,0,0)" fill-opacity="1" fill="#ffffff" font-style="normal" stroke="none">
            <path fill-rule="nonzero" vector-effect="none" d="M4.98292,3.85042 L14.1496,13.0171 C14.4623,13.3298 14.4623,13.8369 14.1496,14.1496 C13.8369,14.4623 13.3298,14.4623 13.0171,14.1496 L3.85042,4.98292 C3.53768,4.67019 3.53768,4.16315 3.85042,3.85042 C4.16315,3.53768 4.67019,3.53768 4.98292,3.85042 "/>
            <path fill-rule="nonzero" vector-effect="none" d="M14.1496,4.98292 L4.98292,14.1496 C4.67019,14.4623 4.16315,14.4623 3.85042,14.1496 C3.53768,13.8369 3.53768,13.3298 3.85042,13.0171 L13.0171,3.85042 C13.3298,3.53768 13.8369,3.53768 14.1496,3.85042 C14.4623,4.16315 14.4623,4.67019 14.1496,4.98292 "/>
        </g>
    </g>
</svg>
