<?xml version='1.0' encoding='UTF-8' standalone='no'?>
<svg baseProfile="tiny" height="12.7mm" version="1.2" viewBox="0 0 108 108" width="12.7mm" xmlns="http://www.w3.org/2000/svg" xmlns:xlink="http://www.w3.org/1999/xlink">
    <style id="current-color-scheme" type="text/css">.ColorScheme-Text {color:#fcfcfc;}</style>
    <title>Qt SVG Document</title>
    <desc>Auto-generated by Klassy window decoration</desc>
    <defs/>
    <g fill="none" fill-rule="evenodd" stroke="black" stroke-linecap="square" stroke-linejoin="bevel" stroke-width="1">
        <g class="ColorScheme-Text" fill="currentColor" fill-opacity="0.949996" font-family="Noto Sans" font-size="30" font-style="normal" font-weight="400" stroke="none" transform="matrix(6,0,0,6,27.5,39.5)">
            <path d="M0,-0.75075 L7,-0.75075 L7.75075,0 L7.75075,7 L7,7.75075 L0,7.75075 L-0.75075,7 L-0.75075,0 L0,-0.75075 M0.75075,0 L0.75075,7 L0,7 L0,6.24925 L7,6.24925 L7,7 L6.24925,7 L6.24925,0 L7,0 L7,0.75075 L0,0.75075 L0,0 L0.75075,0" fill-rule="nonzero" vector-effect="none"/>
        </g>
        <g class="ColorScheme-Text" fill="currentColor" fill-opacity="0.949996" font-family="Noto Sans" font-size="30" font-style="normal" font-weight="400" stroke="none" transform="matrix(6,0,0,6,27.5,39.5)">
            <path d="M1.24925,-0.75075 L1.24925,-2 L2,-2.75075 L9,-2.75075 L9.75075,-2 L9.75075,5 L9,5.75075 L7.75075,5.75075 L7.75075,4.24925 L9,4.24925 L9,5 L8.24925,5 L8.24925,-2 L9,-2 L9,-1.24925 L2,-1.24925 L2,-2 L2.75075,-2 L2.75075,-0.75075 L1.24925,-0.75075" fill-rule="nonzero" vector-effect="none"/>
        </g>
    </g>
</svg>
