<?xml version='1.0' encoding='UTF-8' standalone='no'?>
<svg width="12.7mm" viewBox="0 0 108 108" baseProfile="tiny" xmlns="http://www.w3.org/2000/svg" xmlns:xlink="http://www.w3.org/1999/xlink" version="1.2" height="12.7mm">
    <style id="current-color-scheme" type="text/css">.ColorScheme-Text {color:#fcfcfc;}</style>
    <title>Qt SVG Document</title>
    <desc>Auto-generated by Klassy window decoration</desc>
    <defs/>
    <g stroke-linecap="square" fill-rule="evenodd" stroke-linejoin="bevel" stroke-width="1" fill="none" stroke="black">
        <g class="ColorScheme-Text" font-weight="400" font-family="Noto Sans" font-size="30" transform="matrix(6,0,0,6,0,0)" fill-opacity="1" fill="currentColor" font-style="normal" stroke="none">
            <path fill-rule="nonzero" vector-effect="none" d="M4.41667,11.8333 L8.41667,11.8333 C8.73883,11.8333 9,12.0945 9,12.4167 C9,12.7388 8.73883,13 8.41667,13 L4.41667,13 C4.0945,13 3.83333,12.7388 3.83333,12.4167 C3.83333,12.0945 4.0945,11.8333 4.41667,11.8333 "/>
            <path fill-rule="nonzero" vector-effect="none" d="M4.41667,7.83333 L8.41667,7.83333 C8.73883,7.83333 9,8.0945 9,8.41667 C9,8.73883 8.73883,9 8.41667,9 L4.41667,9 C4.0945,9 3.83333,8.73883 3.83333,8.41667 C3.83333,8.0945 4.0945,7.83333 4.41667,7.83333 "/>
            <path fill-rule="nonzero" vector-effect="none" d="M4.41667,3.83333 L13.4167,3.83333 C13.7388,3.83333 14,4.0945 14,4.41667 C14,4.73883 13.7388,5 13.4167,5 L4.41667,5 C4.0945,5 3.83333,4.73883 3.83333,4.41667 C3.83333,4.0945 4.0945,3.83333 4.41667,3.83333 "/>
            <path fill-rule="nonzero" vector-effect="none" d="M14.1667,6.58333 L14.1667,14.5833 C14.1667,14.9055 13.9055,15.1667 13.5833,15.1667 C13.2612,15.1667 13,14.9055 13,14.5833 L13,6.58333 C13,6.26117 13.2612,6 13.5833,6 C13.9055,6 14.1667,6.26117 14.1667,6.58333 "/>
            <path fill-rule="nonzero" vector-effect="none" d="M11.1709,8.17085 L13.1709,6.17085 L13.5833,5.75838 L13.9958,6.17085 L15.9958,8.17085 C16.2236,8.39866 16.2236,8.76801 15.9958,8.99581 C15.768,9.22362 15.3987,9.22362 15.1709,8.99581 L13.1709,6.99581 L13.5833,6.58333 L13.9958,6.99581 L11.9958,8.99581 C11.768,9.22362 11.3987,9.22362 11.1709,8.99581 C10.943,8.76801 10.943,8.39866 11.1709,8.17085 "/>
        </g>
    </g>
</svg>
