<?xml version='1.0' encoding='UTF-8' standalone='no'?>
<svg width="12.7mm" viewBox="0 0 108 108" baseProfile="tiny" xmlns="http://www.w3.org/2000/svg" xmlns:xlink="http://www.w3.org/1999/xlink" version="1.2" height="12.7mm">
    <style id="current-color-scheme" type="text/css">.ColorScheme-Text {color:#fcfcfc;}</style>
    <title>Qt SVG Document</title>
    <desc>Auto-generated by Klassy window decoration</desc>
    <defs/>
    <g stroke-linecap="square" fill-rule="evenodd" stroke-linejoin="bevel" stroke-width="1" fill="none" stroke="black">
        <g class="ColorScheme-Text" font-weight="400" font-family="Noto Sans" font-size="30" transform="matrix(6,0,0,6,0,0)" fill-opacity="1" fill="currentColor" font-style="normal" stroke="none">
            <path fill-rule="nonzero" vector-effect="none" d="M4.58333,14 L13.5833,14 C13.9055,14 14.1667,14.2612 14.1667,14.5833 C14.1667,14.9055 13.9055,15.1667 13.5833,15.1667 L4.58333,15.1667 C4.26117,15.1667 4,14.9055 4,14.5833 C4,14.2612 4.26117,14 4.58333,14 "/>
            <path fill-rule="nonzero" vector-effect="none" d="M9.58333,10 L13.5833,10 C13.9055,10 14.1667,10.2612 14.1667,10.5833 C14.1667,10.9055 13.9055,11.1667 13.5833,11.1667 L9.58333,11.1667 C9.26117,11.1667 9,10.9055 9,10.5833 C9,10.2612 9.26117,10 9.58333,10 "/>
            <path fill-rule="nonzero" vector-effect="none" d="M9.58333,6 L13.5833,6 C13.9055,6 14.1667,6.26117 14.1667,6.58333 C14.1667,6.9055 13.9055,7.16667 13.5833,7.16667 L9.58333,7.16667 C9.26117,7.16667 9,6.9055 9,6.58333 C9,6.26117 9.26117,6 9.58333,6 "/>
            <path fill-rule="nonzero" vector-effect="none" d="M5,4.41667 L5,12.4167 C5,12.7388 4.73883,13 4.41667,13 C4.0945,13 3.83333,12.7388 3.83333,12.4167 L3.83333,4.41667 C3.83333,4.0945 4.0945,3.83333 4.41667,3.83333 C4.73883,3.83333 5,4.0945 5,4.41667 "/>
            <path fill-rule="nonzero" vector-effect="none" d="M2.82915,10.0042 L4.82915,12.0042 L4.41667,12.4167 L4.00419,12.0042 L6.00419,10.0042 C6.23199,9.77638 6.60134,9.77638 6.82915,10.0042 C7.05695,10.232 7.05695,10.6013 6.82915,10.8291 L4.82915,12.8291 L4.41667,13.2416 L4.00419,12.8291 L2.00419,10.8291 C1.77638,10.6013 1.77638,10.232 2.00419,10.0042 C2.23199,9.77638 2.60134,9.77638 2.82915,10.0042 "/>
        </g>
    </g>
</svg>
