<?xml version='1.0' encoding='UTF-8' standalone='no'?>
<svg baseProfile="tiny" height="12.7mm" version="1.2" viewBox="0 0 108 108" width="12.7mm" xmlns="http://www.w3.org/2000/svg" xmlns:xlink="http://www.w3.org/1999/xlink">
    <style id="current-color-scheme" type="text/css">.ColorScheme-Text {color:#fcfcfc;}</style>
    <title>Qt SVG Document</title>
    <desc>Auto-generated by Klassy window decoration</desc>
    <defs/>
    <g fill="none" fill-rule="evenodd" stroke="black" stroke-linecap="square" stroke-linejoin="bevel" stroke-width="1">
        <g class="ColorScheme-Text" fill="currentColor" fill-opacity="1" font-family="Noto Sans" font-size="30" font-style="normal" font-weight="400" stroke="none" transform="matrix(6,0,0,6,0,0)">
            <path d="M4.41667,11.8328 L8.41667,11.8328 C8.73915,11.8328 9.00058,12.0942 9.00058,12.4167 C9.00058,12.7392 8.73915,13.0006 8.41667,13.0006 L4.41667,13.0006 C4.09418,13.0006 3.83275,12.7392 3.83275,12.4167 C3.83275,12.0942 4.09418,11.8328 4.41667,11.8328 " fill-rule="nonzero" vector-effect="none"/>
            <path d="M4.41667,7.83275 L8.41667,7.83275 C8.73915,7.83275 9.00058,8.09418 9.00058,8.41667 C9.00058,8.73915 8.73915,9.00058 8.41667,9.00058 L4.41667,9.00058 C4.09418,9.00058 3.83275,8.73915 3.83275,8.41667 C3.83275,8.09418 4.09418,7.83275 4.41667,7.83275 " fill-rule="nonzero" vector-effect="none"/>
            <path d="M4.41667,3.83275 L13.4167,3.83275 C13.7392,3.83275 14.0006,4.09418 14.0006,4.41667 C14.0006,4.73915 13.7392,5.00058 13.4167,5.00058 L4.41667,5.00058 C4.09418,5.00058 3.83275,4.73915 3.83275,4.41667 C3.83275,4.09418 4.09418,3.83275 4.41667,3.83275 " fill-rule="nonzero" vector-effect="none"/>
            <path d="M14.1673,6.58333 L14.1673,14.5833 C14.1673,14.9058 13.9058,15.1673 13.5833,15.1673 C13.2608,15.1673 12.9994,14.9058 12.9994,14.5833 L12.9994,6.58333 C12.9994,6.26085 13.2608,5.99942 13.5833,5.99942 C13.9058,5.99942 14.1673,6.26085 14.1673,6.58333 " fill-rule="nonzero" vector-effect="none"/>
            <path d="M11.1704,8.17044 L13.1704,6.17044 L13.5833,5.75755 L13.9962,6.17044 L15.9962,8.17044 C16.2243,8.39848 16.2243,8.76819 15.9962,8.99622 C15.7682,9.22426 15.3985,9.22426 15.1704,8.99622 L13.1704,6.99622 L13.5833,6.58333 L13.9962,6.99622 L11.9962,8.99622 C11.7682,9.22426 11.3985,9.22426 11.1704,8.99622 C10.9424,8.76819 10.9424,8.39848 11.1704,8.17044 " fill-rule="nonzero" vector-effect="none"/>
        </g>
    </g>
</svg>
