<?xml version='1.0' encoding='UTF-8' standalone='no'?>
<svg version="1.2" xmlns:xlink="http://www.w3.org/1999/xlink" viewBox="0 0 108 108" xmlns="http://www.w3.org/2000/svg" width="12.7mm" height="12.7mm" baseProfile="tiny">
    <style id="current-color-scheme" type="text/css">.ColorScheme-Text {color:#fcfcfc;}</style>
    <title>Qt SVG Document</title>
    <desc>Auto-generated by Klassy window decoration</desc>
    <defs/>
    <g stroke-linejoin="bevel" stroke-linecap="square" fill="none" stroke-width="1" stroke="black" fill-rule="evenodd">
        <g font-weight="400" class="ColorScheme-Text" font-size="30" fill="currentColor" transform="matrix(6,0,0,6,0,0)" font-style="normal" stroke="none" font-family="Noto Sans" fill-opacity="1">
            <path vector-effect="none" fill-rule="nonzero" d="M4.58333,13.9994 L13.5833,13.9994 C13.9058,13.9994 14.1673,14.2608 14.1673,14.5833 C14.1673,14.9058 13.9058,15.1673 13.5833,15.1673 L4.58333,15.1673 C4.26085,15.1673 3.99942,14.9058 3.99942,14.5833 C3.99942,14.2608 4.26085,13.9994 4.58333,13.9994 "/>
            <path vector-effect="none" fill-rule="nonzero" d="M9.58333,9.99942 L13.5833,9.99942 C13.9058,9.99942 14.1673,10.2608 14.1673,10.5833 C14.1673,10.9058 13.9058,11.1672 13.5833,11.1672 L9.58333,11.1672 C9.26085,11.1672 8.99942,10.9058 8.99942,10.5833 C8.99942,10.2608 9.26085,9.99942 9.58333,9.99942 "/>
            <path vector-effect="none" fill-rule="nonzero" d="M9.58333,5.99942 L13.5833,5.99942 C13.9058,5.99942 14.1672,6.26085 14.1672,6.58333 C14.1672,6.90582 13.9058,7.16725 13.5833,7.16725 L9.58333,7.16725 C9.26085,7.16725 8.99942,6.90582 8.99942,6.58333 C8.99942,6.26085 9.26085,5.99942 9.58333,5.99942 "/>
            <path vector-effect="none" fill-rule="nonzero" d="M5.00058,4.41667 L5.00058,12.4167 C5.00058,12.7392 4.73915,13.0006 4.41667,13.0006 C4.09418,13.0006 3.83275,12.7392 3.83275,12.4167 L3.83275,4.41667 C3.83275,4.09418 4.09418,3.83275 4.41667,3.83275 C4.73915,3.83275 5.00058,4.09418 5.00058,4.41667 "/>
            <path vector-effect="none" fill-rule="nonzero" d="M2.82956,10.0038 L4.82956,12.0038 L4.41667,12.4167 L4.00378,12.0038 L6.00378,10.0038 C6.23181,9.77574 6.60152,9.77574 6.82956,10.0038 C7.05759,10.2318 7.05759,10.6015 6.82956,10.8296 L4.82956,12.8296 L4.41667,13.2424 L4.00378,12.8296 L2.00378,10.8296 C1.77574,10.6015 1.77574,10.2318 2.00378,10.0038 C2.23181,9.77574 2.60152,9.77574 2.82956,10.0038 "/>
        </g>
    </g>
</svg>
