<?xml version='1.0' encoding='UTF-8' standalone='no'?>
<svg version="1.2" xmlns:xlink="http://www.w3.org/1999/xlink" viewBox="0 0 108 108" xmlns="http://www.w3.org/2000/svg" width="12.7mm" height="12.7mm" baseProfile="tiny">
    <style id="current-color-scheme" type="text/css">.ColorScheme-Text {color:#fcfcfc;}</style>
    <title>Qt SVG Document</title>
    <desc>Auto-generated by Klassy window decoration</desc>
    <defs/>
    <g stroke-linejoin="bevel" stroke-linecap="square" fill="none" stroke-width="1" stroke="black" fill-rule="evenodd">
        <g font-weight="400" class="ColorScheme-Text" font-size="30" fill="currentColor" transform="matrix(6,0,0,6,0,0)" font-style="normal" stroke="none" font-family="Noto Sans" fill-opacity="1">
            <path vector-effect="none" fill-rule="nonzero" d="M3.66592,4.41781 C3.66592,4.10621 4.10621,3.66592 4.41781,3.66592 L13.5822,3.66592 C13.8938,3.66592 14.3341,4.10621 14.3341,4.41781 L14.3341,13.5822 C14.3341,13.8938 13.8938,14.3341 13.5822,14.3341 L4.41781,14.3341 C4.10621,14.3341 3.66592,13.8938 3.66592,13.5822 L3.66592,4.41781 M5.16742,4.41781 L5.16742,13.5822 C5.16742,13.2718 4.72815,12.8326 4.41781,12.8326 L13.5822,12.8326 C13.2718,12.8326 12.8326,13.2718 12.8326,13.5822 L12.8326,4.41781 C12.8326,4.72815 13.2718,5.16742 13.5822,5.16742 L4.41781,5.16742 C4.72815,5.16742 5.16742,4.72815 5.16742,4.41781 "/>
        </g>
    </g>
</svg>
