<?xml version='1.0' encoding='UTF-8' standalone='no'?>
<svg width="12.7mm" viewBox="0 0 108 108" baseProfile="tiny" xmlns="http://www.w3.org/2000/svg" xmlns:xlink="http://www.w3.org/1999/xlink" version="1.2" height="12.7mm">
    <style id="current-color-scheme" type="text/css">.ColorScheme-Text {color:#fcfcfc;}</style>
    <title>Qt SVG Document</title>
    <desc>Auto-generated by Klassy window decoration</desc>
    <defs/>
    <g stroke-linecap="square" fill-rule="evenodd" stroke-linejoin="bevel" stroke-width="1" fill="none" stroke="black">
        <g class="ColorScheme-Text" font-weight="400" font-family="Noto Sans" font-size="30" transform="matrix(6,0,0,6,27.5,39.5)" fill-opacity="1" fill="currentColor" font-style="normal" stroke="none">
            <path fill-rule="nonzero" vector-effect="none" d="M0,-0.75 L7,-0.75 L7.75,0 L7.75,7 L7,7.75 L0,7.75 L-0.75,7 L-0.75,0 L0,-0.75 M0.75,0 L0.75,7 L0,7 L0,6.25 L7,6.25 L7,7 L6.25,7 L6.25,0 L7,0 L7,0.75 L0,0.75 L0,0 L0.75,0"/>
        </g>
        <g class="ColorScheme-Text" font-weight="400" font-family="Noto Sans" font-size="30" transform="matrix(6,0,0,6,27.5,39.5)" fill-opacity="1" fill="currentColor" font-style="normal" stroke="none">
            <path fill-rule="nonzero" vector-effect="none" d="M1.25,-0.75 L1.25,-2 L2,-2.75 L9,-2.75 L9.75,-2 L9.75,5 L9,5.75 L7.75,5.75 L7.75,4.25 L9,4.25 L9,5 L8.25,5 L8.25,-2 L9,-2 L9,-1.25 L2,-1.25 L2,-2 L2.75,-2 L2.75,-0.75 L1.25,-0.75"/>
        </g>
    </g>
</svg>
