<?xml version='1.0' encoding='UTF-8' standalone='no'?>
<svg version="1.2" xmlns:xlink="http://www.w3.org/1999/xlink" viewBox="0 0 36 36" xmlns="http://www.w3.org/2000/svg" width="4.23333mm" height="4.23333mm" baseProfile="tiny">
    <style id="current-color-scheme" type="text/css">.ColorScheme-Text {color:#fcfcfc;}</style>
    <title>Qt SVG Document</title>
    <desc>Auto-generated by Klassy window decoration</desc>
    <defs/>
    <g stroke-linejoin="bevel" stroke-linecap="square" fill="none" stroke-width="1" stroke="black" fill-rule="evenodd">
        <g font-weight="400" class="ColorScheme-Text" font-size="30" fill="currentColor" transform="matrix(2,0,0,2,0,0)" font-style="normal" stroke="none" font-family="Noto Sans" fill-opacity="1">
            <path vector-effect="none" fill-rule="nonzero" d="M4.78086,3.71914 L14.2809,13.2191 C14.574,13.5123 14.574,13.9877 14.2809,14.2809 C13.9877,14.574 13.5123,14.574 13.2191,14.2809 L3.71914,4.78086 C3.42595,4.48767 3.42595,4.01233 3.71914,3.71914 C4.01233,3.42595 4.48767,3.42595 4.78086,3.71914 "/>
            <path vector-effect="none" fill-rule="nonzero" d="M14.2809,4.78086 L4.78086,14.2809 C4.48767,14.574 4.01233,14.574 3.71914,14.2809 C3.42595,13.9877 3.42595,13.5123 3.71914,13.2191 L13.2191,3.71914 C13.5123,3.42595 13.9877,3.42595 14.2809,3.71914 C14.574,4.01233 14.574,4.48767 14.2809,4.78086 "/>
        </g>
    </g>
</svg>
