<?xml version='1.0' encoding='UTF-8' standalone='no'?>
<svg baseProfile="tiny" height="4.23333mm" version="1.2" viewBox="0 0 44 44" width="4.23333mm" xmlns="http://www.w3.org/2000/svg" xmlns:xlink="http://www.w3.org/1999/xlink">
    <style id="current-color-scheme" type="text/css">.ColorScheme-Text {color:#fcfcfc;}</style>
    <title>Qt SVG Document</title>
    <desc>Auto-generated by Klassy window decoration</desc>
    <defs/>
    <g fill="none" fill-rule="evenodd" stroke="black" stroke-linecap="square" stroke-linejoin="bevel" stroke-width="1">
        <g class="ColorScheme-Text" fill="currentColor" fill-opacity="1" font-family="Noto Sans" font-size="36.6667" font-style="normal" font-weight="400" stroke="none" transform="matrix(2.44444,0,0,2.44444,0,0)">
            <path d="M4.09091,4.0903 L13.9091,4.0903 C14.2483,4.0903 14.5233,4.3653 14.5233,4.70455 C14.5233,5.04379 14.2483,5.3188 13.9091,5.3188 L4.09091,5.3188 C3.75167,5.3188 3.47666,5.04379 3.47666,4.70455 C3.47666,4.3653 3.75167,4.0903 4.09091,4.0903 " fill-rule="nonzero" vector-effect="none"/>
            <path d="M3.56566,12.5657 L8.56566,7.56566 L9,7.13132 L9.43434,7.56566 L14.4343,12.5657 C14.6742,12.8055 14.6742,13.1945 14.4343,13.4343 C14.1945,13.6742 13.8055,13.6742 13.5657,13.4343 L8.56566,8.43434 L9,8 L9.43434,8.43434 L4.43434,13.4343 C4.19446,13.6742 3.80554,13.6742 3.56566,13.4343 C3.32578,13.1945 3.32578,12.8055 3.56566,12.5657 " fill-rule="nonzero" vector-effect="none"/>
        </g>
    </g>
</svg>
