<?xml version='1.0' encoding='UTF-8' standalone='no'?>
<svg width="4.23333mm" viewBox="0 0 44 44" baseProfile="tiny" xmlns="http://www.w3.org/2000/svg" xmlns:xlink="http://www.w3.org/1999/xlink" version="1.2" height="4.23333mm">
    <style id="current-color-scheme" type="text/css">.ColorScheme-Text {color:#fcfcfc;}</style>
    <title>Qt SVG Document</title>
    <desc>Auto-generated by Klassy window decoration</desc>
    <defs/>
    <g stroke-linecap="square" fill-rule="evenodd" stroke-linejoin="bevel" stroke-width="1" fill="none" stroke="black">
        <g class="ColorScheme-Text" font-weight="400" font-family="Noto Sans" font-size="36.6667" transform="matrix(2.44444,0,0,2.44444,18,18)" fill-opacity="0.650004" fill="currentColor" font-style="normal" stroke="none">
            <rect width="3.27273" y="0" x="0" height="3.27273"/>
        </g>
        <g class="ColorScheme-Text" font-weight="400" font-family="Noto Sans" font-size="36.6667" transform="matrix(2.44444,0,0,2.44444,18,18)" fill-opacity="0.850004" fill="currentColor" font-style="normal" stroke="none">
            <path fill-rule="nonzero" vector-effect="none" d="M0,-0.409091 L3.27273,-0.409091 L3.68182,0 L3.68182,3.27273 L3.27273,3.68182 L0,3.68182 L-0.409091,3.27273 L-0.409091,0 L0,-0.409091 M0.409091,0 L0.409091,3.27273 L0,3.27273 L0,2.86364 L3.27273,2.86364 L3.27273,3.27273 L2.86364,3.27273 L2.86364,0 L3.27273,0 L3.27273,0.409091 L0,0.409091 L0,0 L0.409091,0"/>
        </g>
    </g>
</svg>
