<?xml version='1.0' encoding='UTF-8' standalone='no'?>
<svg width="4.23333mm" viewBox="0 0 44 44" baseProfile="tiny" xmlns="http://www.w3.org/2000/svg" xmlns:xlink="http://www.w3.org/1999/xlink" version="1.2" height="4.23333mm">
    <style id="current-color-scheme" type="text/css">.ColorScheme-Text {color:#fcfcfc;}</style>
    <title>Qt SVG Document</title>
    <desc>Auto-generated by Klassy window decoration</desc>
    <defs/>
    <g stroke-linecap="square" fill-rule="evenodd" stroke-linejoin="bevel" stroke-width="1" fill="none" stroke="black">
        <g class="ColorScheme-Text" font-weight="400" font-family="Noto Sans" font-size="36.6667" transform="matrix(2.44444,0,0,2.44444,0,0)" fill-opacity="1" fill="currentColor" font-style="normal" stroke="none">
            <path fill-rule="nonzero" vector-effect="none" d="M4.29545,11.8636 L8.38636,11.8636 C8.72527,11.8636 9,12.1384 9,12.4773 C9,12.8162 8.72527,13.0909 8.38636,13.0909 L4.29545,13.0909 C3.95655,13.0909 3.68182,12.8162 3.68182,12.4773 C3.68182,12.1384 3.95655,11.8636 4.29545,11.8636 "/>
            <path fill-rule="nonzero" vector-effect="none" d="M4.29545,7.77273 L8.38636,7.77273 C8.72527,7.77273 9,8.04746 9,8.38636 C9,8.72527 8.72527,9 8.38636,9 L4.29545,9 C3.95655,9 3.68182,8.72527 3.68182,8.38636 C3.68182,8.04746 3.95655,7.77273 4.29545,7.77273 "/>
            <path fill-rule="nonzero" vector-effect="none" d="M4.29545,3.68182 L13.2955,3.68182 C13.6344,3.68182 13.9091,3.95655 13.9091,4.29545 C13.9091,4.63436 13.6344,4.90909 13.2955,4.90909 L4.29545,4.90909 C3.95655,4.90909 3.68182,4.63436 3.68182,4.29545 C3.68182,3.95655 3.95655,3.68182 4.29545,3.68182 "/>
            <path fill-rule="nonzero" vector-effect="none" d="M14.3182,6.34091 L14.3182,14.5227 C14.3182,14.8616 14.0434,15.1364 13.7045,15.1364 C13.3656,15.1364 13.0909,14.8616 13.0909,14.5227 L13.0909,6.34091 C13.0909,6.00201 13.3656,5.72727 13.7045,5.72727 C14.0434,5.72727 14.3182,6.00201 14.3182,6.34091 "/>
            <path fill-rule="nonzero" vector-effect="none" d="M11.589,8.00303 L13.2254,5.95757 L13.7045,5.35861 L14.1837,5.95757 L15.8201,8.00303 C16.0318,8.26767 15.9889,8.65382 15.7242,8.86553 C15.4596,9.07724 15.0734,9.03434 14.8617,8.7697 L13.2254,6.72424 L13.7045,6.34091 L14.1837,6.72424 L12.5474,8.7697 C12.3356,9.03434 11.9495,9.07724 11.6848,8.86553 C11.4202,8.65382 11.3773,8.26767 11.589,8.00303 "/>
        </g>
    </g>
</svg>
