<?xml version='1.0' encoding='UTF-8' standalone='no'?>
<svg width="4.23333mm" viewBox="0 0 44 44" baseProfile="tiny" xmlns="http://www.w3.org/2000/svg" xmlns:xlink="http://www.w3.org/1999/xlink" version="1.2" height="4.23333mm">
    <style id="current-color-scheme" type="text/css">.ColorScheme-Text {color:#fcfcfc;}</style>
    <title>Qt SVG Document</title>
    <desc>Auto-generated by Klassy window decoration</desc>
    <defs/>
    <g stroke-linecap="square" fill-rule="evenodd" stroke-linejoin="bevel" stroke-width="1" fill="none" stroke="black">
        <g class="ColorScheme-Text" font-weight="400" font-family="Noto Sans" font-size="36.6667" transform="matrix(2.44444,0,0,2.44444,0,0)" fill-opacity="1" fill="currentColor" font-style="normal" stroke="none">
            <path fill-rule="nonzero" vector-effect="none" d="M3.68182,4.50113 C3.68182,4.1616 4.1616,3.68182 4.50113,3.68182 L13.4989,3.68182 C13.8384,3.68182 14.3182,4.1616 14.3182,4.50113 L14.3182,13.4989 C14.3182,13.8384 13.8384,14.3182 13.4989,14.3182 L4.50113,14.3182 C4.1616,14.3182 3.68182,13.8384 3.68182,13.4989 L3.68182,4.50113 M5.31818,4.50113 L5.31818,13.4989 C5.31818,13.1606 4.83941,12.6818 4.50113,12.6818 L13.4989,12.6818 C13.1606,12.6818 12.6818,13.1606 12.6818,13.4989 L12.6818,4.50113 C12.6818,4.83941 13.1606,5.31818 13.4989,5.31818 L4.50113,5.31818 C4.83941,5.31818 5.31818,4.83941 5.31818,4.50113 "/>
        </g>
    </g>
</svg>
