<?xml version='1.0' encoding='UTF-8' standalone='no'?>
<svg version="1.2" xmlns:xlink="http://www.w3.org/1999/xlink" viewBox="0 0 44 44" xmlns="http://www.w3.org/2000/svg" width="4.23333mm" height="4.23333mm" baseProfile="tiny">
    <style id="current-color-scheme" type="text/css">.ColorScheme-Text {color:#fcfcfc;}</style>
    <title>Qt SVG Document</title>
    <desc>Auto-generated by Klassy window decoration</desc>
    <defs/>
    <g stroke-linejoin="bevel" stroke-linecap="square" fill="none" stroke-width="1" stroke="black" fill-rule="evenodd">
        <g font-weight="400" class="ColorScheme-Text" font-size="36.6667" fill="currentColor" transform="matrix(2.44444,0,0,2.44444,0,0)" font-style="normal" stroke="none" font-family="Noto Sans" fill-opacity="1">
            <path vector-effect="none" fill-rule="nonzero" d="M4.09091,4.0903 L13.9091,4.0903 C14.2483,4.0903 14.5233,4.3653 14.5233,4.70455 C14.5233,5.04379 14.2483,5.3188 13.9091,5.3188 L4.09091,5.3188 C3.75167,5.3188 3.47666,5.04379 3.47666,4.70455 C3.47666,4.3653 3.75167,4.0903 4.09091,4.0903 "/>
            <path vector-effect="none" fill-rule="nonzero" d="M4.43434,7.56566 L9.43434,12.5657 L9,13 L8.56566,12.5657 L13.5657,7.56566 C13.8055,7.32578 14.1945,7.32578 14.4343,7.56566 C14.6742,7.80554 14.6742,8.19446 14.4343,8.43434 L9.43434,13.4343 L9,13.8687 L8.56566,13.4343 L3.56566,8.43434 C3.32578,8.19446 3.32578,7.80554 3.56566,7.56566 C3.80554,7.32578 4.19446,7.32578 4.43434,7.56566 "/>
        </g>
    </g>
</svg>
