<?xml version='1.0' encoding='UTF-8' standalone='no'?>
<svg width="8.46667mm" viewBox="0 0 32 32" baseProfile="tiny" xmlns="http://www.w3.org/2000/svg" xmlns:xlink="http://www.w3.org/1999/xlink" version="1.2" height="8.46667mm">
    <style id="current-color-scheme" type="text/css">.ColorScheme-Text {color:#fcfcfc;}</style>
    <title>Qt SVG Document</title>
    <desc>Auto-generated by Klassy window decoration</desc>
    <defs/>
    <g stroke-linecap="square" fill-rule="evenodd" stroke-linejoin="bevel" stroke-width="1" fill="none" stroke="black">
        <g class="ColorScheme-Text" font-weight="400" font-family="Noto Sans" font-size="13.3333" transform="matrix(1.77778,0,0,1.77778,0,0)" fill-opacity="1" fill="currentColor" font-style="normal" stroke="none">
            <path fill-rule="nonzero" vector-effect="none" d="M4.5,14.0625 L13.5,14.0625 C13.8107,14.0625 14.0625,14.3143 14.0625,14.625 C14.0625,14.9357 13.8107,15.1875 13.5,15.1875 L4.5,15.1875 C4.18934,15.1875 3.9375,14.9357 3.9375,14.625 C3.9375,14.3143 4.18934,14.0625 4.5,14.0625 "/>
            <path fill-rule="nonzero" vector-effect="none" d="M9.5625,10.125 L13.5,10.125 C13.8107,10.125 14.0625,10.3768 14.0625,10.6875 C14.0625,10.9982 13.8107,11.25 13.5,11.25 L9.5625,11.25 C9.25184,11.25 9,10.9982 9,10.6875 C9,10.3768 9.25184,10.125 9.5625,10.125 "/>
            <path fill-rule="nonzero" vector-effect="none" d="M9.5625,6.1875 L13.5,6.1875 C13.8107,6.1875 14.0625,6.43934 14.0625,6.75 C14.0625,7.06066 13.8107,7.3125 13.5,7.3125 L9.5625,7.3125 C9.25184,7.3125 9,7.06066 9,6.75 C9,6.43934 9.25184,6.1875 9.5625,6.1875 "/>
            <path fill-rule="nonzero" vector-effect="none" d="M5.0625,4.5 L5.0625,12.375 C5.0625,12.6857 4.81066,12.9375 4.5,12.9375 C4.18934,12.9375 3.9375,12.6857 3.9375,12.375 L3.9375,4.5 C3.9375,4.18934 4.18934,3.9375 4.5,3.9375 C4.81066,3.9375 5.0625,4.18934 5.0625,4.5 "/>
            <path fill-rule="nonzero" vector-effect="none" d="M2.5875,10.2375 L4.8375,11.925 L4.5,12.375 L4.1625,11.925 L6.4125,10.2375 C6.66103,10.0511 7.0136,10.1015 7.2,10.35 C7.3864,10.5985 7.33603,10.9511 7.0875,11.1375 L4.8375,12.825 L4.5,13.0781 L4.1625,12.825 L1.9125,11.1375 C1.66397,10.9511 1.6136,10.5985 1.8,10.35 C1.9864,10.1015 2.33897,10.0511 2.5875,10.2375 "/>
        </g>
    </g>
</svg>
