<?xml version='1.0' encoding='UTF-8' standalone='no'?>
<svg version="1.2" xmlns:xlink="http://www.w3.org/1999/xlink" viewBox="0 0 32 32" xmlns="http://www.w3.org/2000/svg" width="8.46667mm" height="8.46667mm" baseProfile="tiny">
    <style id="current-color-scheme" type="text/css">.ColorScheme-Text {color:#fcfcfc;}</style>
    <title>Qt SVG Document</title>
    <desc>Auto-generated by Klassy window decoration</desc>
    <defs/>
    <g stroke-linejoin="bevel" stroke-linecap="square" fill="none" stroke-width="1" stroke="black" fill-rule="evenodd">
        <g font-weight="400" class="ColorScheme-Text" font-size="13.3333" fill="currentColor" transform="matrix(1.77778,0,0,1.77778,0,0)" font-style="normal" stroke="none" font-family="Noto Sans" fill-opacity="1">
            <path vector-effect="none" fill-rule="nonzero" d="M4.5,14.0619 L13.5,14.0619 C13.811,14.0619 14.0631,14.314 14.0631,14.625 C14.0631,14.936 13.811,15.1881 13.5,15.1881 L4.5,15.1881 C4.18903,15.1881 3.93694,14.936 3.93694,14.625 C3.93694,14.314 4.18903,14.0619 4.5,14.0619 "/>
            <path vector-effect="none" fill-rule="nonzero" d="M9.5625,10.1244 L13.5,10.1244 C13.811,10.1244 14.0631,10.3765 14.0631,10.6875 C14.0631,10.9985 13.811,11.2506 13.5,11.2506 L9.5625,11.2506 C9.25153,11.2506 8.99944,10.9985 8.99944,10.6875 C8.99944,10.3765 9.25153,10.1244 9.5625,10.1244 "/>
            <path vector-effect="none" fill-rule="nonzero" d="M9.5625,6.18694 L13.5,6.18694 C13.811,6.18694 14.0631,6.43903 14.0631,6.75 C14.0631,7.06097 13.811,7.31306 13.5,7.31306 L9.5625,7.31306 C9.25153,7.31306 8.99944,7.06097 8.99944,6.75 C8.99944,6.43903 9.25153,6.18694 9.5625,6.18694 "/>
            <path vector-effect="none" fill-rule="nonzero" d="M5.06306,4.5 L5.06306,12.375 C5.06306,12.686 4.81097,12.9381 4.5,12.9381 C4.18903,12.9381 3.93694,12.686 3.93694,12.375 L3.93694,4.5 C3.93694,4.18903 4.18903,3.93694 4.5,3.93694 C4.81097,3.93694 5.06306,4.18903 5.06306,4.5 "/>
            <path vector-effect="none" fill-rule="nonzero" d="M2.58784,10.237 L4.83784,11.9245 L4.5,12.375 L4.16216,11.9245 L6.41216,10.237 C6.66094,10.0505 7.01387,10.1009 7.20045,10.3497 C7.38703,10.5984 7.33661,10.9514 7.08784,11.138 L4.83784,12.8255 L4.5,13.0788 L4.16216,12.8255 L1.91216,11.138 C1.66339,10.9514 1.61297,10.5984 1.79955,10.3497 C1.98613,10.1009 2.33906,10.0505 2.58784,10.237 "/>
        </g>
    </g>
</svg>
