<?xml version='1.0' encoding='UTF-8' standalone='no'?>
<svg width="8.46667mm" viewBox="0 0 32 32" baseProfile="tiny" xmlns="http://www.w3.org/2000/svg" xmlns:xlink="http://www.w3.org/1999/xlink" version="1.2" height="8.46667mm">
    <style id="current-color-scheme" type="text/css">.ColorScheme-Text {color:#fcfcfc;}</style>
    <title>Qt SVG Document</title>
    <desc>Auto-generated by Klassy window decoration</desc>
    <defs/>
    <g stroke-linecap="square" fill-rule="evenodd" stroke-linejoin="bevel" stroke-width="1" fill="none" stroke="black">
        <g class="ColorScheme-Text" font-weight="400" font-family="Noto Sans" font-size="13.3333" transform="matrix(1.77778,0,0,1.77778,0,0)" fill-opacity="0.900008" fill="currentColor" font-style="normal" stroke="none">
            <path fill-rule="nonzero" vector-effect="none" d="M3.9375,4.50113 C3.9375,4.26751 4.26751,3.9375 4.50113,3.9375 L13.4989,3.9375 C13.7325,3.9375 14.0625,4.26751 14.0625,4.50113 L14.0625,13.4989 C14.0625,13.7325 13.7325,14.0625 13.4989,14.0625 L4.50113,14.0625 C4.26751,14.0625 3.9375,13.7325 3.9375,13.4989 L3.9375,4.50113 M5.0625,4.50113 L5.0625,13.4989 C5.0625,13.2665 4.7335,12.9375 4.50113,12.9375 L13.4989,12.9375 C13.2665,12.9375 12.9375,13.2665 12.9375,13.4989 L12.9375,4.50113 C12.9375,4.7335 13.2665,5.0625 13.4989,5.0625 L4.50113,5.0625 C4.7335,5.0625 5.0625,4.7335 5.0625,4.50113 "/>
        </g>
    </g>
</svg>
