<?xml version='1.0' encoding='UTF-8' standalone='no'?>
<svg version="1.2" xmlns:xlink="http://www.w3.org/1999/xlink" viewBox="0 0 32 32" xmlns="http://www.w3.org/2000/svg" width="8.46667mm" height="8.46667mm" baseProfile="tiny">
    <style id="current-color-scheme" type="text/css">.ColorScheme-Text {color:#fcfcfc;}</style>
    <title>Qt SVG Document</title>
    <desc>Auto-generated by Klassy window decoration</desc>
    <defs/>
    <g stroke-linejoin="bevel" stroke-linecap="square" fill="none" stroke-width="1" stroke="black" fill-rule="evenodd">
        <g font-weight="400" class="ColorScheme-Text" font-size="13.3333" fill="currentColor" transform="matrix(1.77778,0,0,1.77778,0,0)" font-style="normal" stroke="none" font-family="Noto Sans" fill-opacity="1">
            <path vector-effect="none" fill-rule="nonzero" d="M3.9375,3.93694 L14.0625,3.93694 C14.3735,3.93694 14.6256,4.18903 14.6256,4.5 C14.6256,4.81097 14.3735,5.06306 14.0625,5.06306 L3.9375,5.06306 C3.62653,5.06306 3.37444,4.81097 3.37444,4.5 C3.37444,4.18903 3.62653,3.93694 3.9375,3.93694 "/>
            <path vector-effect="none" fill-rule="nonzero" d="M3.60185,12.6019 L8.60185,7.60185 L9,7.20371 L9.39815,7.60185 L14.3981,12.6019 C14.618,12.8217 14.618,13.1783 14.3981,13.3981 C14.1783,13.618 13.8217,13.618 13.6019,13.3981 L8.60185,8.39815 L9,8 L9.39815,8.39815 L4.39815,13.3981 C4.17826,13.618 3.82174,13.618 3.60185,13.3981 C3.38197,13.1783 3.38197,12.8217 3.60185,12.6019 "/>
        </g>
    </g>
</svg>
