<?xml version='1.0' encoding='UTF-8' standalone='no'?>
<svg version="1.2" xmlns:xlink="http://www.w3.org/1999/xlink" viewBox="0 0 54 54" xmlns="http://www.w3.org/2000/svg" width="4.7625mm" height="4.7625mm" baseProfile="tiny">
    <style id="current-color-scheme" type="text/css">.ColorScheme-Text {color:#232629;}</style>
    <title>Qt SVG Document</title>
    <desc>Auto-generated by Klassy window decoration</desc>
    <defs/>
    <g stroke-linejoin="bevel" stroke-linecap="square" fill="none" stroke-width="1" stroke="black" fill-rule="evenodd">
        <g font-weight="400" class="ColorScheme-Text" font-size="40" fill="#da0016" transform="matrix(3.375,0,0,3.375,0,0)" font-style="normal" stroke="none" font-family="Noto Sans" fill-opacity="0.719997">
            <path vector-effect="none" fill-rule="evenodd" d="M2,3.2 C2,2.53726 2.53726,2 3.2,2 L12.8,2 C13.4627,2 14,2.53726 14,3.2 L14,12.8 C14,13.4627 13.4627,14 12.8,14 L3.2,14 C2.53726,14 2,13.4627 2,12.8 L2,3.2"/>
        </g>
        <g font-weight="400" class="ColorScheme-Text" font-size="40" fill="#ffffff" transform="matrix(3,0,0,3,0,0)" font-style="normal" stroke="none" font-family="Noto Sans" fill-opacity="1">
            <path vector-effect="none" fill-rule="nonzero" d="M5.08984,3.91016 L14.0898,12.9102 C14.4156,13.2359 14.4156,13.7641 14.0898,14.0898 C13.7641,14.4156 13.2359,14.4156 12.9102,14.0898 L3.91016,5.08984 C3.58439,4.76408 3.58439,4.23592 3.91016,3.91016 C4.23592,3.58439 4.76408,3.58439 5.08984,3.91016 "/>
            <path vector-effect="none" fill-rule="nonzero" d="M14.0898,5.08984 L5.08984,14.0898 C4.76408,14.4156 4.23592,14.4156 3.91016,14.0898 C3.58439,13.7641 3.58439,13.2359 3.91016,12.9102 L12.9102,3.91016 C13.2359,3.58439 13.7641,3.58439 14.0898,3.91016 C14.4156,4.23592 14.4156,4.76408 14.0898,5.08984 "/>
        </g>
    </g>
</svg>
