<?xml version='1.0' encoding='UTF-8' standalone='no'?>
<svg version="1.2" xmlns:xlink="http://www.w3.org/1999/xlink" viewBox="0 0 54 54" xmlns="http://www.w3.org/2000/svg" width="4.7625mm" height="4.7625mm" baseProfile="tiny">
    <style id="current-color-scheme" type="text/css">.ColorScheme-Text {color:#232629;}</style>
    <title>Qt SVG Document</title>
    <desc>Auto-generated by Klassy window decoration</desc>
    <defs/>
    <g stroke-linejoin="bevel" stroke-linecap="square" fill="none" stroke-width="1" stroke="black" fill-rule="evenodd">
        <g font-weight="400" class="ColorScheme-Text" font-size="40" fill="currentColor" transform="matrix(3,0,0,3,0,0)" font-style="normal" stroke="none" font-family="Noto Sans" fill-opacity="1">
            <path vector-effect="none" fill-rule="nonzero" d="M3.66583,4.50113 C3.66583,4.15498 4.15498,3.66583 4.50113,3.66583 L13.4989,3.66583 C13.845,3.66583 14.3342,4.15498 14.3342,4.50113 L14.3342,13.4989 C14.3342,13.845 13.845,14.3342 13.4989,14.3342 L4.50113,14.3342 C4.15498,14.3342 3.66583,13.845 3.66583,13.4989 L3.66583,4.50113 M5.33417,4.50113 L5.33417,13.4989 C5.33417,13.154 4.84603,12.6658 4.50113,12.6658 L13.4989,12.6658 C13.154,12.6658 12.6658,13.154 12.6658,13.4989 L12.6658,4.50113 C12.6658,4.84603 13.154,5.33417 13.4989,5.33417 L4.50113,5.33417 C4.84603,5.33417 5.33417,4.84603 5.33417,4.50113 "/>
        </g>
    </g>
</svg>
