<?xml version='1.0' encoding='UTF-8' standalone='no'?>
<svg version="1.2" xmlns:xlink="http://www.w3.org/1999/xlink" viewBox="0 0 54 54" xmlns="http://www.w3.org/2000/svg" width="4.7625mm" height="4.7625mm" baseProfile="tiny">
    <style id="current-color-scheme" type="text/css">.ColorScheme-Text {color:#232629;}</style>
    <title>Qt SVG Document</title>
    <desc>Auto-generated by Klassy window decoration</desc>
    <defs/>
    <g stroke-linejoin="bevel" stroke-linecap="square" fill="none" stroke-width="1" stroke="black" fill-rule="evenodd">
        <g font-weight="400" class="ColorScheme-Text" font-size="40" fill="currentColor" transform="matrix(3,0,0,3,0,0)" font-style="normal" stroke="none" font-family="Noto Sans" fill-opacity="1">
            <path vector-effect="none" fill-rule="nonzero" d="M4.66667,13.9993 L13.6667,13.9993 C14.0352,13.9993 14.334,14.2981 14.334,14.6667 C14.334,15.0352 14.0352,15.334 13.6667,15.334 L4.66667,15.334 C4.29811,15.334 3.99933,15.0352 3.99933,14.6667 C3.99933,14.2981 4.29811,13.9993 4.66667,13.9993 "/>
            <path vector-effect="none" fill-rule="nonzero" d="M9.66667,9.99933 L13.6667,9.99933 C14.0352,9.99933 14.334,10.2981 14.334,10.6667 C14.334,11.0352 14.0352,11.334 13.6667,11.334 L9.66667,11.334 C9.29811,11.334 8.99933,11.0352 8.99933,10.6667 C8.99933,10.2981 9.29811,9.99933 9.66667,9.99933 "/>
            <path vector-effect="none" fill-rule="nonzero" d="M9.66667,5.99933 L13.6667,5.99933 C14.0352,5.99933 14.334,6.29811 14.334,6.66667 C14.334,7.03522 14.0352,7.334 13.6667,7.334 L9.66667,7.334 C9.29811,7.334 8.99933,7.03522 8.99933,6.66667 C8.99933,6.29811 9.29811,5.99933 9.66667,5.99933 "/>
            <path vector-effect="none" fill-rule="nonzero" d="M5.00067,4.33333 L5.00067,12.3333 C5.00067,12.7019 4.70189,13.0007 4.33333,13.0007 C3.96478,13.0007 3.666,12.7019 3.666,12.3333 L3.666,4.33333 C3.666,3.96478 3.96478,3.666 4.33333,3.666 C4.70189,3.666 5.00067,3.96478 5.00067,4.33333 "/>
            <path vector-effect="none" fill-rule="nonzero" d="M2.80521,9.86146 L4.80521,11.8615 L4.33333,12.3333 L3.86146,11.8615 L5.86146,9.86146 C6.12207,9.60085 6.5446,9.60085 6.80521,9.86146 C7.06582,10.1221 7.06582,10.5446 6.80521,10.8052 L4.80521,12.8052 L4.33333,13.2771 L3.86146,12.8052 L1.86146,10.8052 C1.60085,10.5446 1.60085,10.1221 1.86146,9.86146 C2.12207,9.60085 2.5446,9.60085 2.80521,9.86146 "/>
        </g>
    </g>
</svg>
