<?xml version='1.0' encoding='UTF-8' standalone='no'?>
<svg width="5.29167mm" viewBox="0 0 20 20" baseProfile="tiny" xmlns="http://www.w3.org/2000/svg" xmlns:xlink="http://www.w3.org/1999/xlink" version="1.2" height="5.29167mm">
    <style id="current-color-scheme" type="text/css">.ColorScheme-Text {color:#232629;}</style>
    <title>Qt SVG Document</title>
    <desc>Auto-generated by Klassy window decoration</desc>
    <defs/>
    <g stroke-linecap="square" fill-rule="evenodd" stroke-linejoin="bevel" stroke-width="1" fill="none" stroke="black">
        <g class="ColorScheme-Text" font-weight="400" font-family="Noto Sans" font-size="13.3333" transform="matrix(1.11111,0,0,1.11111,0,0)" fill-opacity="0.900008" fill="currentColor" font-style="normal" stroke="none">
            <path fill-rule="nonzero" vector-effect="none" d="M3.6,4.05124 C3.6,3.86416 3.86416,3.6 4.05124,3.6 L13.9488,3.6 C14.1358,3.6 14.4,3.86416 14.4,4.05124 L14.4,13.9488 C14.4,14.1358 14.1358,14.4 13.9488,14.4 L4.05124,14.4 C3.86416,14.4 3.6,14.1358 3.6,13.9488 L3.6,4.05124 M4.5,4.05124 L4.5,13.9488 C4.5,13.763 4.23695,13.5 4.05124,13.5 L13.9488,13.5 C13.763,13.5 13.5,13.763 13.5,13.9488 L13.5,4.05124 C13.5,4.23695 13.763,4.5 13.9488,4.5 L4.05124,4.5 C4.23695,4.5 4.5,4.23695 4.5,4.05124 "/>
        </g>
    </g>
</svg>
