<?xml version='1.0' encoding='UTF-8' standalone='no'?>
<svg version="1.2" xmlns:xlink="http://www.w3.org/1999/xlink" viewBox="0 0 20 20" xmlns="http://www.w3.org/2000/svg" width="5.29167mm" height="5.29167mm" baseProfile="tiny">
    <style id="current-color-scheme" type="text/css">.ColorScheme-Text {color:#232629;}</style>
    <title>Qt SVG Document</title>
    <desc>Auto-generated by Klassy window decoration</desc>
    <defs/>
    <g stroke-linejoin="bevel" stroke-linecap="square" fill="none" stroke-width="1" stroke="black" fill-rule="evenodd">
        <g font-weight="400" class="ColorScheme-Text" font-size="13.3333" fill="currentColor" transform="matrix(1.11111,0,0,1.11111,0,0)" font-style="normal" stroke="none" font-family="Noto Sans" fill-opacity="1">
            <path vector-effect="none" fill-rule="nonzero" d="M4.05,12.5995 L8.55,12.5995 L8.55,13.5004 L4.05,13.5004 L4.05,12.5995"/>
            <path vector-effect="none" fill-rule="nonzero" d="M4.05,8.09955 L8.55,8.09955 L8.55,9.00045 L4.05,9.00045 L4.05,8.09955"/>
            <path vector-effect="none" fill-rule="nonzero" d="M4.05,3.59955 L13.05,3.59955 L13.05,4.50045 L4.05,4.50045 L4.05,3.59955"/>
            <path vector-effect="none" fill-rule="nonzero" d="M14.4004,6.75 L14.4004,14.85 L13.4995,14.85 L13.4995,6.75 L14.4004,6.75"/>
            <path vector-effect="none" fill-rule="nonzero" d="M11.3815,8.68148 L13.6315,6.43148 L13.95,6.11297 L14.2685,6.43148 L16.5185,8.68148 L15.8815,9.31852 L13.6315,7.06852 L13.95,6.75 L14.2685,7.06852 L12.0185,9.31852 L11.3815,8.68148"/>
        </g>
    </g>
</svg>
