<?xml version='1.0' encoding='UTF-8' standalone='no'?>
<svg width="5.29167mm" viewBox="0 0 20 20" baseProfile="tiny" xmlns="http://www.w3.org/2000/svg" xmlns:xlink="http://www.w3.org/1999/xlink" version="1.2" height="5.29167mm">
    <style id="current-color-scheme" type="text/css">.ColorScheme-Text {color:#232629;}</style>
    <title>Qt SVG Document</title>
    <desc>Auto-generated by Klassy window decoration</desc>
    <defs/>
    <g stroke-linecap="square" fill-rule="evenodd" stroke-linejoin="bevel" stroke-width="1" fill="none" stroke="black">
        <g class="ColorScheme-Text" font-weight="400" font-family="Noto Sans" font-size="13.3333" transform="matrix(1.11111,0,0,1.11111,4.5,7.5)" fill-opacity="0.900008" fill="currentColor" font-style="normal" stroke="none">
            <path fill-rule="nonzero" vector-effect="none" d="M0,-0.45 L7.2,-0.45 L7.65,0 L7.65,7.2 L7.2,7.65 L0,7.65 L-0.45,7.2 L-0.45,0 L0,-0.45 M0.45,0 L0.45,7.2 L0,7.2 L0,6.75 L7.2,6.75 L7.2,7.2 L6.75,7.2 L6.75,0 L7.2,0 L7.2,0.45 L0,0.45 L0,0 L0.45,0"/>
        </g>
        <g class="ColorScheme-Text" font-weight="400" font-family="Noto Sans" font-size="13.3333" transform="matrix(1.11111,0,0,1.11111,4.5,7.5)" fill-opacity="0.900008" fill="currentColor" font-style="normal" stroke="none">
            <path fill-rule="nonzero" vector-effect="none" d="M2.25,-0.45 L2.25,-2.7 L2.7,-3.15 L9.9,-3.15 L10.35,-2.7 L10.35,4.5 L9.9,4.95 L7.65,4.95 L7.65,4.05 L9.9,4.05 L9.9,4.5 L9.45,4.5 L9.45,-2.7 L9.9,-2.7 L9.9,-2.25 L2.7,-2.25 L2.7,-2.7 L3.15,-2.7 L3.15,-0.45 L2.25,-0.45"/>
        </g>
    </g>
</svg>
