<?xml version='1.0' encoding='UTF-8' standalone='no'?>
<svg width="5.82083mm" viewBox="0 0 22 22" baseProfile="tiny" xmlns="http://www.w3.org/2000/svg" xmlns:xlink="http://www.w3.org/1999/xlink" version="1.2" height="5.82083mm">
    <style id="current-color-scheme" type="text/css">.ColorScheme-Text {color:#fcfcfc;}</style>
    <title>Qt SVG Document</title>
    <desc>Auto-generated by Klassy window decoration</desc>
    <defs/>
    <g stroke-linecap="square" fill-rule="evenodd" stroke-linejoin="bevel" stroke-width="1" fill="none" stroke="black">
        <g class="ColorScheme-Text" font-weight="400" font-family="Noto Sans" font-size="13.3333" transform="matrix(1.22222,0,0,1.22222,0,0)" fill-opacity="1" fill="currentColor" font-style="normal" stroke="none">
            <path fill-rule="nonzero" vector-effect="none" d="M4.5,12.2727 L8.59091,12.2727 L8.59091,13.0909 L4.5,13.0909 L4.5,12.2727"/>
            <path fill-rule="nonzero" vector-effect="none" d="M4.5,8.18182 L8.59091,8.18182 L8.59091,9 L4.5,9 L4.5,8.18182"/>
            <path fill-rule="nonzero" vector-effect="none" d="M4.5,4.09091 L13.5,4.09091 L13.5,4.90909 L4.5,4.90909 L4.5,4.09091"/>
            <path fill-rule="nonzero" vector-effect="none" d="M13.9091,6.13636 L13.9091,14.3182 L13.0909,14.3182 L13.0909,6.13636 L13.9091,6.13636"/>
            <path fill-rule="nonzero" vector-effect="none" d="M10.3471,8.71073 L13.2107,5.84709 L13.5,5.55782 L13.7893,5.84709 L16.6529,8.71073 L16.0744,9.28927 L13.2107,6.42563 L13.5,6.13636 L13.7893,6.42563 L10.9256,9.28927 L10.3471,8.71073"/>
        </g>
    </g>
</svg>
