<?xml version='1.0' encoding='UTF-8' standalone='no'?>
<svg width="5.82083mm" viewBox="0 0 22 22" baseProfile="tiny" xmlns="http://www.w3.org/2000/svg" xmlns:xlink="http://www.w3.org/1999/xlink" version="1.2" height="5.82083mm">
    <style id="current-color-scheme" type="text/css">.ColorScheme-Text {color:#fcfcfc;}</style>
    <title>Qt SVG Document</title>
    <desc>Auto-generated by Klassy window decoration</desc>
    <defs/>
    <g stroke-linecap="square" fill-rule="evenodd" stroke-linejoin="bevel" stroke-width="1" fill="none" stroke="black">
        <g class="ColorScheme-Text" font-weight="400" font-family="Noto Sans" font-size="13.3333" transform="matrix(1.22222,0,0,1.22222,0,0)" fill-opacity="1" fill="currentColor" font-style="normal" stroke="none">
            <path fill-rule="nonzero" vector-effect="none" d="M4.85391,4.14609 L13.8539,13.1461 C14.0494,13.3416 14.0494,13.6584 13.8539,13.8539 C13.6584,14.0494 13.3416,14.0494 13.1461,13.8539 L4.14609,4.85391 C3.95064,4.65845 3.95064,4.34155 4.14609,4.14609 C4.34155,3.95064 4.65845,3.95064 4.85391,4.14609 "/>
            <path fill-rule="nonzero" vector-effect="none" d="M13.8539,4.85391 L4.85391,13.8539 C4.65845,14.0494 4.34155,14.0494 4.14609,13.8539 C3.95064,13.6584 3.95064,13.3416 4.14609,13.1461 L13.1461,4.14609 C13.3416,3.95064 13.6584,3.95064 13.8539,4.14609 C14.0494,4.34155 14.0494,4.65845 13.8539,4.85391 "/>
        </g>
    </g>
</svg>
