<?xml version='1.0' encoding='UTF-8' standalone='no'?>
<svg version="1.2" xmlns:xlink="http://www.w3.org/1999/xlink" viewBox="0 0 22 22" xmlns="http://www.w3.org/2000/svg" width="5.82083mm" height="5.82083mm" baseProfile="tiny">
    <style id="current-color-scheme" type="text/css">.ColorScheme-Text {color:#fcfcfc;}</style>
    <title>Qt SVG Document</title>
    <desc>Auto-generated by Klassy window decoration</desc>
    <defs/>
    <g stroke-linejoin="bevel" stroke-linecap="square" fill="none" stroke-width="1" stroke="black" fill-rule="evenodd">
        <g font-weight="400" class="ColorScheme-Text" font-size="13.3333" fill="currentColor" transform="matrix(1.22222,0,0,1.22222,0,0)" font-style="normal" stroke="none" font-family="Noto Sans" fill-opacity="1">
            <path vector-effect="none" fill-rule="nonzero" d="M4.5,13.9087 L13.5,13.9087 L13.5,14.7277 L4.5,14.7277 L4.5,13.9087"/>
            <path vector-effect="none" fill-rule="nonzero" d="M9.40909,9.81777 L13.5,9.81777 L13.5,10.6368 L9.40909,10.6368 L9.40909,9.81777"/>
            <path vector-effect="none" fill-rule="nonzero" d="M9.40909,5.72686 L13.5,5.72686 L13.5,6.54586 L9.40909,6.54586 L9.40909,5.72686"/>
            <path vector-effect="none" fill-rule="nonzero" d="M4.9095,4.5 L4.9095,12.6818 L4.0905,12.6818 L4.0905,4.5 L4.9095,4.5"/>
            <path vector-effect="none" fill-rule="nonzero" d="M1.92592,9.52862 L4.78956,12.3923 L4.5,12.6818 L4.21044,12.3923 L7.07408,9.52862 L7.6532,10.1077 L4.78956,12.9714 L4.5,13.2609 L4.21044,12.9714 L1.3468,10.1077 L1.92592,9.52862"/>
        </g>
    </g>
</svg>
