<?xml version='1.0' encoding='UTF-8' standalone='no'?>
<svg baseProfile="tiny" height="5.82083mm" version="1.2" viewBox="0 0 22 22" width="5.82083mm" xmlns="http://www.w3.org/2000/svg" xmlns:xlink="http://www.w3.org/1999/xlink">
    <style id="current-color-scheme" type="text/css">.ColorScheme-Text {color:#fcfcfc;}</style>
    <title>Qt SVG Document</title>
    <desc>Auto-generated by Klassy window decoration</desc>
    <defs/>
    <g fill="none" fill-rule="evenodd" stroke="black" stroke-linecap="square" stroke-linejoin="bevel" stroke-width="1">
        <g class="ColorScheme-Text" fill="currentColor" fill-opacity="1" font-family="Noto Sans" font-size="13.3333" font-style="normal" font-weight="400" stroke="none" transform="matrix(1.22222,0,0,1.22222,0,0)">
            <path d="M4.5,12.2723 L8.59091,12.2723 L8.59091,13.0913 L4.5,13.0913 L4.5,12.2723" fill-rule="nonzero" vector-effect="none"/>
            <path d="M4.5,8.18141 L8.59091,8.18141 L8.59091,9.00041 L4.5,9.00041 L4.5,8.18141" fill-rule="nonzero" vector-effect="none"/>
            <path d="M4.5,4.0905 L13.5,4.0905 L13.5,4.9095 L4.5,4.9095 L4.5,4.0905" fill-rule="nonzero" vector-effect="none"/>
            <path d="M13.9095,6.13636 L13.9095,14.3182 L13.0905,14.3182 L13.0905,6.13636 L13.9095,6.13636" fill-rule="nonzero" vector-effect="none"/>
            <path d="M10.3468,8.71044 L13.2104,5.8468 L13.5,5.55724 L13.7896,5.8468 L16.6532,8.71044 L16.0741,9.28956 L13.2104,6.42592 L13.5,6.13636 L13.7896,6.42592 L10.9259,9.28956 L10.3468,8.71044" fill-rule="nonzero" vector-effect="none"/>
        </g>
    </g>
</svg>
