<?xml version='1.0' encoding='UTF-8' standalone='no'?>
<svg version="1.2" xmlns:xlink="http://www.w3.org/1999/xlink" viewBox="0 0 22 22" xmlns="http://www.w3.org/2000/svg" width="5.82083mm" height="5.82083mm" baseProfile="tiny">
    <style id="current-color-scheme" type="text/css">.ColorScheme-Text {color:#fcfcfc;}</style>
    <title>Qt SVG Document</title>
    <desc>Auto-generated by Klassy window decoration</desc>
    <defs/>
    <g stroke-linejoin="bevel" stroke-linecap="square" fill="none" stroke-width="1" stroke="black" fill-rule="evenodd">
        <g font-weight="400" class="ColorScheme-Text" font-size="13.3333" fill="currentColor" transform="matrix(1.22222,0,0,1.22222,9.5,9.5)" font-style="normal" stroke="none" font-family="Noto Sans" fill-opacity="0.450004">
            <rect y="0" x="0" width="2.45455" height="2.45455"/>
        </g>
        <g font-weight="400" class="ColorScheme-Text" font-size="13.3333" fill="currentColor" transform="matrix(1.22222,0,0,1.22222,9.5,9.5)" font-style="normal" stroke="none" font-family="Noto Sans" fill-opacity="0.650004">
            <path vector-effect="none" fill-rule="nonzero" d="M0,-0.4095 L2.45455,-0.4095 L2.86405,0 L2.86405,2.45455 L2.45455,2.86405 L0,2.86405 L-0.4095,2.45455 L-0.4095,0 L0,-0.4095 M0.4095,0 L0.4095,2.45455 L0,2.45455 L0,2.04505 L2.45455,2.04505 L2.45455,2.45455 L2.04505,2.45455 L2.04505,0 L2.45455,0 L2.45455,0.4095 L0,0.4095 L0,0 L0.4095,0"/>
        </g>
    </g>
</svg>
