<?xml version='1.0' encoding='UTF-8' standalone='no'?>
<svg width="4.23333mm" viewBox="0 0 16 16" baseProfile="tiny" xmlns="http://www.w3.org/2000/svg" xmlns:xlink="http://www.w3.org/1999/xlink" version="1.2" height="4.23333mm">
    <style id="current-color-scheme" type="text/css">.ColorScheme-Text {color:#fcfcfc;}</style>
    <title>Qt SVG Document</title>
    <desc>Auto-generated by Klassy window decoration</desc>
    <defs/>
    <g stroke-linecap="square" fill-rule="evenodd" stroke-linejoin="bevel" stroke-width="1" fill="none" stroke="black">
        <g class="ColorScheme-Text" font-weight="400" font-family="Noto Sans" font-size="13.3333" transform="matrix(1,0,0,1,0,0)" fill-opacity="0.600015" fill="#da0016" font-style="normal" stroke="none">
            <path fill-rule="evenodd" vector-effect="none" d="M2,3.2 C2,2.53726 2.53726,2 3.2,2 L12.8,2 C13.4627,2 14,2.53726 14,3.2 L14,12.8 C14,13.4627 13.4627,14 12.8,14 L3.2,14 C2.53726,14 2,13.4627 2,12.8 L2,3.2"/>
        </g>
        <g class="ColorScheme-Text" font-weight="400" font-family="Noto Sans" font-size="13.3333" transform="matrix(0.888889,0,0,0.888889,0,0)" fill-opacity="1" fill="#ffffff" font-style="normal" stroke="none">
            <path fill-rule="nonzero" vector-effect="none" d="M4.33565,3.53935 L14.4606,13.6644 C14.6805,13.8842 14.6805,14.2408 14.4606,14.4606 C14.2408,14.6805 13.8842,14.6805 13.6644,14.4606 L3.53935,4.33565 C3.31947,4.11576 3.31947,3.75924 3.53935,3.53935 C3.75924,3.31947 4.11576,3.31947 4.33565,3.53935 "/>
            <path fill-rule="nonzero" vector-effect="none" d="M14.4606,4.33565 L4.33565,14.4606 C4.11576,14.6805 3.75924,14.6805 3.53935,14.4606 C3.31947,14.2408 3.31947,13.8842 3.53935,13.6644 L13.6644,3.53935 C13.8842,3.31947 14.2408,3.31947 14.4606,3.53935 C14.6805,3.75924 14.6805,4.11576 14.4606,4.33565 "/>
        </g>
    </g>
</svg>
