<?xml version='1.0' encoding='UTF-8' standalone='no'?>
<svg version="1.2" xmlns:xlink="http://www.w3.org/1999/xlink" viewBox="0 0 16 16" xmlns="http://www.w3.org/2000/svg" width="4.23333mm" height="4.23333mm" baseProfile="tiny">
    <style id="current-color-scheme" type="text/css">.ColorScheme-Text {color:#fcfcfc;}</style>
    <title>Qt SVG Document</title>
    <desc>Auto-generated by Klassy window decoration</desc>
    <defs/>
    <g stroke-linejoin="bevel" stroke-linecap="square" fill="none" stroke-width="1" stroke="black" fill-rule="evenodd">
        <g font-weight="400" class="ColorScheme-Text" font-size="13.3333" fill="currentColor" transform="matrix(0.888889,0,0,0.888889,3.5,5.5)" font-style="normal" stroke="none" font-family="Noto Sans" fill-opacity="0.900008">
            <path vector-effect="none" fill-rule="nonzero" d="M0,-0.563062 L7.875,-0.563062 L8.43806,0 L8.43806,7.875 L7.875,8.43806 L0,8.43806 L-0.563062,7.875 L-0.563062,0 L0,-0.563062 M0.563062,0 L0.563062,7.875 L0,7.875 L0,7.31194 L7.875,7.31194 L7.875,7.875 L7.31194,7.875 L7.31194,0 L7.875,0 L7.875,0.563062 L0,0.563062 L0,0 L0.563062,0"/>
        </g>
        <g font-weight="400" class="ColorScheme-Text" font-size="13.3333" fill="currentColor" transform="matrix(0.888889,0,0,0.888889,3.5,5.5)" font-style="normal" stroke="none" font-family="Noto Sans" fill-opacity="0.900008">
            <path vector-effect="none" fill-rule="nonzero" d="M1.68694,-0.563062 L1.68694,-2.25 L2.25,-2.81306 L10.125,-2.81306 L10.6881,-2.25 L10.6881,5.625 L10.125,6.18806 L8.43806,6.18806 L8.43806,5.06194 L10.125,5.06194 L10.125,5.625 L9.56194,5.625 L9.56194,-2.25 L10.125,-2.25 L10.125,-1.68694 L2.25,-1.68694 L2.25,-2.25 L2.81306,-2.25 L2.81306,-0.563062 L1.68694,-0.563062"/>
        </g>
    </g>
</svg>
