<?xml version='1.0' encoding='UTF-8' standalone='no'?>
<svg baseProfile="tiny" height="4.23333mm" version="1.2" viewBox="0 0 16 16" width="4.23333mm" xmlns="http://www.w3.org/2000/svg" xmlns:xlink="http://www.w3.org/1999/xlink">
    <style id="current-color-scheme" type="text/css">.ColorScheme-Text {color:#fcfcfc;}</style>
    <title>Qt SVG Document</title>
    <desc>Auto-generated by Klassy window decoration</desc>
    <defs/>
    <g fill="none" fill-rule="evenodd" stroke="black" stroke-linecap="square" stroke-linejoin="bevel" stroke-width="1">
        <g class="ColorScheme-Text" fill="currentColor" fill-opacity="0.349996" font-family="Noto Sans" font-size="13.3333" font-style="normal" font-weight="400" stroke="none" transform="matrix(0.888889,0,0,0.888889,6.5,6.5)">
            <rect height="3.375" width="3.375" x="0" y="0"/>
        </g>
        <g class="ColorScheme-Text" fill="currentColor" fill-opacity="0.809995" font-family="Noto Sans" font-size="13.3333" font-style="normal" font-weight="400" stroke="none" transform="matrix(0.888889,0,0,0.888889,6.5,6.5)">
            <path d="M0,-0.563062 L3.375,-0.563062 L3.93806,0 L3.93806,3.375 L3.375,3.93806 L0,3.93806 L-0.563062,3.375 L-0.563062,0 L0,-0.563062 M0.563062,0 L0.563062,3.375 L0,3.375 L0,2.81194 L3.375,2.81194 L3.375,3.375 L2.81194,3.375 L2.81194,0 L3.375,0 L3.375,0.563062 L0,0.563062 L0,0 L0.563062,0" fill-rule="nonzero" vector-effect="none"/>
        </g>
    </g>
</svg>
