<?xml version='1.0' encoding='UTF-8' standalone='no'?>
<svg width="4.23333mm" viewBox="0 0 16 16" baseProfile="tiny" xmlns="http://www.w3.org/2000/svg" xmlns:xlink="http://www.w3.org/1999/xlink" version="1.2" height="4.23333mm">
    <style id="current-color-scheme" type="text/css">.ColorScheme-Text {color:#fcfcfc;}</style>
    <title>Qt SVG Document</title>
    <desc>Auto-generated by Klassy window decoration</desc>
    <defs/>
    <g stroke-linecap="square" fill-rule="evenodd" stroke-linejoin="bevel" stroke-width="1" fill="none" stroke="black">
        <g class="ColorScheme-Text" font-weight="400" font-family="Noto Sans" font-size="13.3333" transform="matrix(0.888889,0,0,0.888889,0,0)" fill-opacity="0.900008" fill="currentColor" font-style="normal" stroke="none">
            <path fill-rule="nonzero" vector-effect="none" d="M3.375,3.93877 C3.375,3.70507 3.70507,3.375 3.93877,3.375 L14.0612,3.375 C14.2949,3.375 14.625,3.70507 14.625,3.93877 L14.625,14.0612 C14.625,14.2949 14.2949,14.625 14.0612,14.625 L3.93877,14.625 C3.70507,14.625 3.375,14.2949 3.375,14.0612 L3.375,3.93877 M4.5,3.93877 L4.5,14.0612 C4.5,13.8289 4.17106,13.5 3.93877,13.5 L14.0612,13.5 C13.8289,13.5 13.5,13.8289 13.5,14.0612 L13.5,3.93877 C13.5,4.17106 13.8289,4.5 14.0612,4.5 L3.93877,4.5 C4.17106,4.5 4.5,4.17106 4.5,3.93877 "/>
        </g>
    </g>
</svg>
