<?xml version='1.0' encoding='UTF-8' standalone='no'?>
<svg baseProfile="tiny" height="4.23333mm" version="1.2" viewBox="0 0 16 16" width="4.23333mm" xmlns="http://www.w3.org/2000/svg" xmlns:xlink="http://www.w3.org/1999/xlink">
    <style id="current-color-scheme" type="text/css">.ColorScheme-Text {color:#fcfcfc;}</style>
    <title>Qt SVG Document</title>
    <desc>Auto-generated by Klassy window decoration</desc>
    <defs/>
    <g fill="none" fill-rule="evenodd" stroke="black" stroke-linecap="square" stroke-linejoin="bevel" stroke-width="1">
        <g class="ColorScheme-Text" fill="currentColor" fill-opacity="1" font-family="Noto Sans" font-size="13.3333" font-style="normal" font-weight="400" stroke="none" transform="matrix(0.888889,0,0,0.888889,0,0)">
            <path d="M5.0625,13.4994 L14.0625,13.4994 L14.0625,14.6256 L5.0625,14.6256 L5.0625,13.4994" fill-rule="nonzero" vector-effect="none"/>
            <path d="M9.5625,8.99944 L14.0625,8.99944 L14.0625,10.1256 L9.5625,10.1256 L9.5625,8.99944" fill-rule="nonzero" vector-effect="none"/>
            <path d="M9.5625,4.49944 L14.0625,4.49944 L14.0625,5.62556 L9.5625,5.62556 L9.5625,4.49944" fill-rule="nonzero" vector-effect="none"/>
            <path d="M4.50056,3.9375 L4.50056,12.9375 L3.37444,12.9375 L3.37444,3.9375 L4.50056,3.9375" fill-rule="nonzero" vector-effect="none"/>
            <path d="M2.73282,9.83531 L4.42032,12.6478 L3.9375,12.9375 L3.45468,12.6478 L5.14218,9.83531 L6.10782,10.4147 L4.42032,13.2272 L3.9375,14.0319 L3.45468,13.2272 L1.76718,10.4147 L2.73282,9.83531" fill-rule="nonzero" vector-effect="none"/>
        </g>
    </g>
</svg>
