<?xml version='1.0' encoding='UTF-8' standalone='no'?>
<svg version="1.2" xmlns:xlink="http://www.w3.org/1999/xlink" viewBox="0 0 50 50" xmlns="http://www.w3.org/2000/svg" width="5.29167mm" height="5.29167mm" baseProfile="tiny">
    <style id="current-color-scheme" type="text/css">.ColorScheme-Text {color:#232629;}</style>
    <title>Qt SVG Document</title>
    <desc>Auto-generated by Klassy window decoration</desc>
    <defs/>
    <g stroke-linejoin="bevel" stroke-linecap="square" fill="none" stroke-width="1" stroke="black" fill-rule="evenodd">
        <g font-weight="400" class="ColorScheme-Text" font-size="33.3333" fill="currentColor" transform="matrix(2.77778,0,0,2.77778,0,0)" font-style="normal" stroke="none" font-family="Noto Sans" fill-opacity="1">
            <path vector-effect="none" fill-rule="nonzero" d="M4.5,11.8795 L8.46,11.8795 C8.75853,11.8795 9.00054,12.1215 9.00054,12.42 C9.00054,12.7185 8.75853,12.9605 8.46,12.9605 L4.5,12.9605 C4.20147,12.9605 3.95946,12.7185 3.95946,12.42 C3.95946,12.1215 4.20147,11.8795 4.5,11.8795 "/>
            <path vector-effect="none" fill-rule="nonzero" d="M4.5,7.91946 L8.46,7.91946 C8.75853,7.91946 9.00054,8.16147 9.00054,8.46 C9.00054,8.75853 8.75853,9.00054 8.46,9.00054 L4.5,9.00054 C4.20147,9.00054 3.95946,8.75853 3.95946,8.46 C3.95946,8.16147 4.20147,7.91946 4.5,7.91946 "/>
            <path vector-effect="none" fill-rule="nonzero" d="M4.5,3.95946 L13.5,3.95946 C13.7985,3.95946 14.0405,4.20147 14.0405,4.5 C14.0405,4.79853 13.7985,5.04054 13.5,5.04054 L4.5,5.04054 C4.20147,5.04054 3.95946,4.79853 3.95946,4.5 C3.95946,4.20147 4.20147,3.95946 4.5,3.95946 "/>
            <path vector-effect="none" fill-rule="nonzero" d="M14.0405,6.66 L14.0405,14.58 C14.0405,14.8785 13.7985,15.1205 13.5,15.1205 C13.2015,15.1205 12.9595,14.8785 12.9595,14.58 L12.9595,6.66 C12.9595,6.36147 13.2015,6.11946 13.5,6.11946 C13.7985,6.11946 14.0405,6.36147 14.0405,6.66 "/>
            <path vector-effect="none" fill-rule="nonzero" d="M10.994,8.04475 L13.154,6.24475 L13.5,5.95637 L13.846,6.24475 L16.006,8.04475 C16.2354,8.23586 16.2664,8.57671 16.0753,8.80605 C15.8841,9.03538 15.5433,9.06637 15.314,8.87525 L13.154,7.07525 L13.5,6.66 L13.846,7.07525 L11.686,8.87525 C11.4567,9.06637 11.1159,9.03538 10.9247,8.80605 C10.7336,8.57671 10.7646,8.23586 10.994,8.04475 "/>
        </g>
    </g>
</svg>
