<?xml version='1.0' encoding='UTF-8' standalone='no'?>
<svg baseProfile="tiny" height="5.29167mm" version="1.2" viewBox="0 0 50 50" width="5.29167mm" xmlns="http://www.w3.org/2000/svg" xmlns:xlink="http://www.w3.org/1999/xlink">
    <style id="current-color-scheme" type="text/css">.ColorScheme-Text {color:#232629;}</style>
    <title>Qt SVG Document</title>
    <desc>Auto-generated by Klassy window decoration</desc>
    <defs/>
    <g fill="none" fill-rule="evenodd" stroke="black" stroke-linecap="square" stroke-linejoin="bevel" stroke-width="1">
        <g class="ColorScheme-Text" fill="currentColor" fill-opacity="1" font-family="Noto Sans" font-size="33.3333" font-style="normal" font-weight="400" stroke="none" transform="matrix(2.77778,0,0,2.77778,0,0)">
            <path d="M4.82963,3.81037 L14.1896,13.1704 C14.4711,13.4518 14.4711,13.9082 14.1896,14.1896 C13.9082,14.4711 13.4518,14.4711 13.1704,14.1896 L3.81037,4.82963 C3.52892,4.54817 3.52892,4.09183 3.81037,3.81037 C4.09183,3.52892 4.54817,3.52892 4.82963,3.81037 " fill-rule="nonzero" vector-effect="none"/>
            <path d="M14.1896,4.82963 L4.82963,14.1896 C4.54817,14.4711 4.09183,14.4711 3.81037,14.1896 C3.52892,13.9082 3.52892,13.4518 3.81037,13.1704 L13.1704,3.81037 C13.4518,3.52892 13.9082,3.52892 14.1896,3.81037 C14.4711,4.09183 14.4711,4.54817 14.1896,4.82963 " fill-rule="nonzero" vector-effect="none"/>
        </g>
    </g>
</svg>
