<?xml version='1.0' encoding='UTF-8' standalone='no'?>
<svg width="5.29167mm" viewBox="0 0 50 50" baseProfile="tiny" xmlns="http://www.w3.org/2000/svg" xmlns:xlink="http://www.w3.org/1999/xlink" version="1.2" height="5.29167mm">
    <style id="current-color-scheme" type="text/css">.ColorScheme-Text {color:#232629;}</style>
    <title>Qt SVG Document</title>
    <desc>Auto-generated by Klassy window decoration</desc>
    <defs/>
    <g stroke-linecap="square" fill-rule="evenodd" stroke-linejoin="bevel" stroke-width="1" fill="none" stroke="black">
        <g class="ColorScheme-Text" font-weight="400" font-family="Noto Sans" font-size="33.3333" transform="matrix(2.77778,0,0,2.77778,11,19)" fill-opacity="1" fill="currentColor" font-style="normal" stroke="none">
            <path fill-rule="nonzero" vector-effect="none" d="M0,-0.72 L7.2,-0.72 L7.92,0 L7.92,7.2 L7.2,7.92 L0,7.92 L-0.72,7.2 L-0.72,0 L0,-0.72 M0.72,0 L0.72,7.2 L0,7.2 L0,6.48 L7.2,6.48 L7.2,7.2 L6.48,7.2 L6.48,0 L7.2,0 L7.2,0.72 L0,0.72 L0,0 L0.72,0"/>
        </g>
        <g class="ColorScheme-Text" font-weight="400" font-family="Noto Sans" font-size="33.3333" transform="matrix(2.77778,0,0,2.77778,11,19)" fill-opacity="1" fill="currentColor" font-style="normal" stroke="none">
            <path fill-rule="nonzero" vector-effect="none" d="M2.16,-0.72 L2.16,-2.88 L2.88,-3.6 L10.08,-3.6 L10.8,-2.88 L10.8,4.32 L10.08,5.04 L7.92,5.04 L7.92,3.6 L10.08,3.6 L10.08,4.32 L9.36,4.32 L9.36,-2.88 L10.08,-2.88 L10.08,-2.16 L2.88,-2.16 L2.88,-2.88 L3.6,-2.88 L3.6,-0.72 L2.16,-0.72"/>
        </g>
    </g>
</svg>
