<?xml version='1.0' encoding='UTF-8' standalone='no'?>
<svg baseProfile="tiny" height="5.29167mm" version="1.2" viewBox="0 0 50 50" width="5.29167mm" xmlns="http://www.w3.org/2000/svg" xmlns:xlink="http://www.w3.org/1999/xlink">
    <style id="current-color-scheme" type="text/css">.ColorScheme-Text {color:#232629;}</style>
    <title>Qt SVG Document</title>
    <desc>Auto-generated by Klassy window decoration</desc>
    <defs/>
    <g fill="none" fill-rule="evenodd" stroke="black" stroke-linecap="square" stroke-linejoin="bevel" stroke-width="1">
        <g class="ColorScheme-Text" fill="currentColor" fill-opacity="0.549996" font-family="Noto Sans" font-size="33.3333" font-style="normal" font-weight="400" stroke="none" transform="matrix(2.77778,0,0,2.77778,20.5,20.5)">
            <rect height="3.24" width="3.24" x="0" y="0"/>
        </g>
        <g class="ColorScheme-Text" fill="currentColor" fill-opacity="0.902495" font-family="Noto Sans" font-size="33.3333" font-style="normal" font-weight="400" stroke="none" transform="matrix(2.77778,0,0,2.77778,20.5,20.5)">
            <path d="M0,-0.54054 L3.24,-0.54054 L3.78054,0 L3.78054,3.24 L3.24,3.78054 L0,3.78054 L-0.54054,3.24 L-0.54054,0 L0,-0.54054 M0.54054,0 L0.54054,3.24 L0,3.24 L0,2.69946 L3.24,2.69946 L3.24,3.24 L2.69946,3.24 L2.69946,0 L3.24,0 L3.24,0.54054 L0,0.54054 L0,0 L0.54054,0" fill-rule="nonzero" vector-effect="none"/>
        </g>
    </g>
</svg>
