<?xml version='1.0' encoding='UTF-8' standalone='no'?>
<svg baseProfile="tiny" height="4.23333mm" version="1.2" viewBox="0 0 28 28" width="4.23333mm" xmlns="http://www.w3.org/2000/svg" xmlns:xlink="http://www.w3.org/1999/xlink">
    <style id="current-color-scheme" type="text/css">.ColorScheme-Text {color:#232629;}</style>
    <title>Qt SVG Document</title>
    <desc>Auto-generated by Klassy window decoration</desc>
    <defs/>
    <g fill="none" fill-rule="evenodd" stroke="black" stroke-linecap="square" stroke-linejoin="bevel" stroke-width="1">
        <g class="ColorScheme-Text" fill="currentColor" fill-opacity="1" font-family="Noto Sans" font-size="23.3333" font-style="normal" font-weight="400" stroke="none" transform="matrix(1.55556,0,0,1.55556,0,0)">
            <path d="M3.85714,3.8565 L14.1429,3.8565 C14.4983,3.8565 14.7864,4.1446 14.7864,4.5 C14.7864,4.8554 14.4983,5.1435 14.1429,5.1435 L3.85714,5.1435 C3.50175,5.1435 3.21364,4.8554 3.21364,4.5 C3.21364,4.1446 3.50175,3.8565 3.85714,3.8565 " fill-rule="nonzero" vector-effect="none"/>
            <path d="M4.45502,7.54498 L9.45502,12.545 L9,13 L8.54498,12.545 L13.545,7.54498 C13.7963,7.29367 14.2037,7.29367 14.455,7.54498 C14.7063,7.79628 14.7063,8.20372 14.455,8.45502 L9.45502,13.455 L9,13.91 L8.54498,13.455 L3.54498,8.45502 C3.29367,8.20372 3.29367,7.79628 3.54498,7.54498 C3.79628,7.29367 4.20372,7.29367 4.45502,7.54498 " fill-rule="nonzero" vector-effect="none"/>
        </g>
    </g>
</svg>
