<?xml version='1.0' encoding='UTF-8' standalone='no'?>
<svg width="4.23333mm" viewBox="0 0 28 28" baseProfile="tiny" xmlns="http://www.w3.org/2000/svg" xmlns:xlink="http://www.w3.org/1999/xlink" version="1.2" height="4.23333mm">
    <style id="current-color-scheme" type="text/css">.ColorScheme-Text {color:#232629;}</style>
    <title>Qt SVG Document</title>
    <desc>Auto-generated by Klassy window decoration</desc>
    <defs/>
    <g stroke-linecap="square" fill-rule="evenodd" stroke-linejoin="bevel" stroke-width="1" fill="none" stroke="black">
        <g class="ColorScheme-Text" font-weight="400" font-family="Noto Sans" font-size="23.3333" transform="matrix(1.55556,0,0,1.55556,6,11)" fill-opacity="1" fill="currentColor" font-style="normal" stroke="none">
            <path fill-rule="nonzero" vector-effect="none" d="M0,-0.642857 L7.07143,-0.642857 L7.71429,0 L7.71429,7.07143 L7.07143,7.71429 L0,7.71429 L-0.642857,7.07143 L-0.642857,0 L0,-0.642857 M0.642857,0 L0.642857,7.07143 L0,7.07143 L0,6.42857 L7.07143,6.42857 L7.07143,7.07143 L6.42857,7.07143 L6.42857,0 L7.07143,0 L7.07143,0.642857 L0,0.642857 L0,0 L0.642857,0"/>
        </g>
        <g class="ColorScheme-Text" font-weight="400" font-family="Noto Sans" font-size="23.3333" transform="matrix(1.55556,0,0,1.55556,6,11)" fill-opacity="1" fill="currentColor" font-style="normal" stroke="none">
            <path fill-rule="nonzero" vector-effect="none" d="M2.57143,-0.642857 L2.57143,-3.21429 L3.21429,-3.85714 L10.2857,-3.85714 L10.9286,-3.21429 L10.9286,3.85714 L10.2857,4.5 L7.71429,4.5 L7.71429,3.21429 L10.2857,3.21429 L10.2857,3.85714 L9.64286,3.85714 L9.64286,-3.21429 L10.2857,-3.21429 L10.2857,-2.57143 L3.21429,-2.57143 L3.21429,-3.21429 L3.85714,-3.21429 L3.85714,-0.642857 L2.57143,-0.642857"/>
        </g>
    </g>
</svg>
