<?xml version='1.0' encoding='UTF-8' standalone='no'?>
<svg width="4.23333mm" viewBox="0 0 28 28" baseProfile="tiny" xmlns="http://www.w3.org/2000/svg" xmlns:xlink="http://www.w3.org/1999/xlink" version="1.2" height="4.23333mm">
    <style id="current-color-scheme" type="text/css">.ColorScheme-Text {color:#232629;}</style>
    <title>Qt SVG Document</title>
    <desc>Auto-generated by Klassy window decoration</desc>
    <defs/>
    <g stroke-linecap="square" fill-rule="evenodd" stroke-linejoin="bevel" stroke-width="1" fill="none" stroke="black">
        <g class="ColorScheme-Text" font-weight="400" font-family="Noto Sans" font-size="23.3333" transform="matrix(1.55556,0,0,1.55556,0,0)" fill-opacity="1" fill="currentColor" font-style="normal" stroke="none">
            <path fill-rule="nonzero" vector-effect="none" d="M3.85714,4.50113 C3.85714,4.23422 4.23422,3.85714 4.50113,3.85714 L13.4989,3.85714 C13.7658,3.85714 14.1429,4.23422 14.1429,4.50113 L14.1429,13.4989 C14.1429,13.7658 13.7658,14.1429 13.4989,14.1429 L4.50113,14.1429 C4.23422,14.1429 3.85714,13.7658 3.85714,13.4989 L3.85714,4.50113 M5.14286,4.50113 L5.14286,13.4989 C5.14286,13.2332 4.76678,12.8571 4.50113,12.8571 L13.4989,12.8571 C13.2332,12.8571 12.8571,13.2332 12.8571,13.4989 L12.8571,4.50113 C12.8571,4.76678 13.2332,5.14286 13.4989,5.14286 L4.50113,5.14286 C4.76678,5.14286 5.14286,4.76678 5.14286,4.50113 "/>
        </g>
    </g>
</svg>
