<?xml version='1.0' encoding='UTF-8' standalone='no'?>
<svg width="5.82083mm" viewBox="0 0 55 55" baseProfile="tiny" xmlns="http://www.w3.org/2000/svg" xmlns:xlink="http://www.w3.org/1999/xlink" version="1.2" height="5.82083mm">
    <style id="current-color-scheme" type="text/css">.ColorScheme-Text {color:#fcfcfc;}</style>
    <title>Qt SVG Document</title>
    <desc>Auto-generated by Klassy window decoration</desc>
    <defs/>
    <g stroke-linecap="square" fill-rule="evenodd" stroke-linejoin="bevel" stroke-width="1" fill="none" stroke="black">
        <g class="ColorScheme-Text" font-weight="400" font-family="Noto Sans" font-size="33.3333" transform="matrix(3.05556,0,0,3.05556,22.5,22.5)" fill-opacity="0.650004" fill="currentColor" font-style="normal" stroke="none">
            <rect width="3.6" y="0" x="0" height="3.6"/>
        </g>
        <g class="ColorScheme-Text" font-weight="400" font-family="Noto Sans" font-size="33.3333" transform="matrix(3.05556,0,0,3.05556,22.5,22.5)" fill-opacity="0.850004" fill="currentColor" font-style="normal" stroke="none">
            <path fill-rule="nonzero" vector-effect="none" d="M0,-0.490909 L3.6,-0.490909 L4.09091,0 L4.09091,3.6 L3.6,4.09091 L0,4.09091 L-0.490909,3.6 L-0.490909,0 L0,-0.490909 M0.490909,0 L0.490909,3.6 L0,3.6 L0,3.10909 L3.6,3.10909 L3.6,3.6 L3.10909,3.6 L3.10909,0 L3.6,0 L3.6,0.490909 L0,0.490909 L0,0 L0.490909,0"/>
        </g>
    </g>
</svg>
