<?xml version='1.0' encoding='UTF-8' standalone='no'?>
<svg baseProfile="tiny" height="5.82083mm" version="1.2" viewBox="0 0 55 55" width="5.82083mm" xmlns="http://www.w3.org/2000/svg" xmlns:xlink="http://www.w3.org/1999/xlink">
    <style id="current-color-scheme" type="text/css">.ColorScheme-Text {color:#fcfcfc;}</style>
    <title>Qt SVG Document</title>
    <desc>Auto-generated by Klassy window decoration</desc>
    <defs/>
    <g fill="none" fill-rule="evenodd" stroke="black" stroke-linecap="square" stroke-linejoin="bevel" stroke-width="1">
        <g class="ColorScheme-Text" fill="currentColor" fill-opacity="0.450004" font-family="Noto Sans" font-size="33.3333" font-style="normal" font-weight="400" stroke="none" transform="matrix(3.05556,0,0,3.05556,23,24)">
            <rect height="2.94545" width="2.94545" x="0" y="0"/>
        </g>
        <g class="ColorScheme-Text" fill="currentColor" fill-opacity="0.902495" font-family="Noto Sans" font-size="33.3333" font-style="normal" font-weight="400" stroke="none" transform="matrix(3.05556,0,0,3.05556,23,24)">
            <path d="M0,-0.819 L2.94545,-0.819 L3.76445,0 L3.76445,2.94545 L2.94545,3.76445 L0,3.76445 L-0.819,2.94545 L-0.819,0 L0,-0.819 M0.819,0 L0.819,2.94545 L0,2.94545 L0,2.12645 L2.94545,2.12645 L2.94545,2.94545 L2.12645,2.94545 L2.12645,0 L2.94545,0 L2.94545,0.819 L0,0.819 L0,0 L0.819,0" fill-rule="nonzero" vector-effect="none"/>
        </g>
    </g>
</svg>
