<?xml version='1.0' encoding='UTF-8' standalone='no'?>
<svg version="1.2" xmlns:xlink="http://www.w3.org/1999/xlink" viewBox="0 0 55 55" xmlns="http://www.w3.org/2000/svg" width="5.82083mm" height="5.82083mm" baseProfile="tiny">
    <style id="current-color-scheme" type="text/css">.ColorScheme-Text {color:#fcfcfc;}</style>
    <title>Qt SVG Document</title>
    <desc>Auto-generated by Klassy window decoration</desc>
    <defs/>
    <g stroke-linejoin="bevel" stroke-linecap="square" fill="none" stroke-width="1" stroke="black" fill-rule="evenodd">
        <g font-weight="400" class="ColorScheme-Text" font-size="33.3333" fill="currentColor" transform="matrix(3.05556,0,0,3.05556,11.5,22.5)" font-style="normal" stroke="none" font-family="Noto Sans" fill-opacity="1">
            <path vector-effect="none" fill-rule="nonzero" d="M0,-0.819 L7.2,-0.819 L8.019,0 L8.019,7.2 L7.2,8.019 L0,8.019 L-0.819,7.2 L-0.819,0 L0,-0.819 M0.819,0 L0.819,7.2 L0,7.2 L0,6.381 L7.2,6.381 L7.2,7.2 L6.381,7.2 L6.381,0 L7.2,0 L7.2,0.819 L0,0.819 L0,0 L0.819,0"/>
        </g>
        <g font-weight="400" class="ColorScheme-Text" font-size="33.3333" fill="currentColor" transform="matrix(3.05556,0,0,3.05556,11.5,22.5)" font-style="normal" stroke="none" font-family="Noto Sans" fill-opacity="1">
            <path vector-effect="none" fill-rule="nonzero" d="M2.45373,-0.819 L2.45373,-3.27273 L3.27273,-4.09173 L10.4727,-4.09173 L11.2917,-3.27273 L11.2917,3.92727 L10.4727,4.74627 L8.019,4.74627 L8.019,3.10827 L10.4727,3.10827 L10.4727,3.92727 L9.65373,3.92727 L9.65373,-3.27273 L10.4727,-3.27273 L10.4727,-2.45373 L3.27273,-2.45373 L3.27273,-3.27273 L4.09173,-3.27273 L4.09173,-0.819 L2.45373,-0.819"/>
        </g>
    </g>
</svg>
