<?xml version='1.0' encoding='UTF-8' standalone='no'?>
<svg baseProfile="tiny" height="5.82083mm" version="1.2" viewBox="0 0 55 55" width="5.82083mm" xmlns="http://www.w3.org/2000/svg" xmlns:xlink="http://www.w3.org/1999/xlink">
    <style id="current-color-scheme" type="text/css">.ColorScheme-Text {color:#fcfcfc;}</style>
    <title>Qt SVG Document</title>
    <desc>Auto-generated by Klassy window decoration</desc>
    <defs/>
    <g fill="none" fill-rule="evenodd" stroke="black" stroke-linecap="square" stroke-linejoin="bevel" stroke-width="1">
        <g class="ColorScheme-Text" fill="currentColor" fill-opacity="0.949996" font-family="Noto Sans" font-size="33.3333" font-style="normal" font-weight="400" stroke="none" transform="matrix(3.05556,0,0,3.05556,0,0)">
            <path d="M3.59918,4.41937 C3.59918,4.07947 4.07947,3.59918 4.41937,3.59918 L13.9079,3.59918 C14.2478,3.59918 14.7281,4.07947 14.7281,4.41937 L14.7281,13.9079 C14.7281,14.2478 14.2478,14.7281 13.9079,14.7281 L4.41937,14.7281 C4.07947,14.7281 3.59918,14.2478 3.59918,13.9079 L3.59918,4.41937 M5.23718,4.41937 L5.23718,13.9079 C5.23718,13.5693 4.75795,13.0901 4.41937,13.0901 L13.9079,13.0901 C13.5693,13.0901 13.0901,13.5693 13.0901,13.9079 L13.0901,4.41937 C13.0901,4.75795 13.5693,5.23718 13.9079,5.23718 L4.41937,5.23718 C4.75795,5.23718 5.23718,4.75795 5.23718,4.41937 " fill-rule="nonzero" vector-effect="none"/>
        </g>
    </g>
</svg>
