<?xml version='1.0' encoding='UTF-8' standalone='no'?>
<svg baseProfile="tiny" height="5.82083mm" version="1.2" viewBox="0 0 55 55" width="5.82083mm" xmlns="http://www.w3.org/2000/svg" xmlns:xlink="http://www.w3.org/1999/xlink">
    <style id="current-color-scheme" type="text/css">.ColorScheme-Text {color:#fcfcfc;}</style>
    <title>Qt SVG Document</title>
    <desc>Auto-generated by Klassy window decoration</desc>
    <defs/>
    <g fill="none" fill-rule="evenodd" stroke="black" stroke-linecap="square" stroke-linejoin="bevel" stroke-width="1">
        <g class="ColorScheme-Text" fill="currentColor" fill-opacity="0.949996" font-family="Noto Sans" font-size="33.3333" font-style="normal" font-weight="400" stroke="none" transform="matrix(3.05556,0,0,3.05556,11.5,22.5)">
            <path d="M0,-0.819 L7.2,-0.819 L8.019,0 L8.019,7.2 L7.2,8.019 L0,8.019 L-0.819,7.2 L-0.819,0 L0,-0.819 M0.819,0 L0.819,7.2 L0,7.2 L0,6.381 L7.2,6.381 L7.2,7.2 L6.381,7.2 L6.381,0 L7.2,0 L7.2,0.819 L0,0.819 L0,0 L0.819,0" fill-rule="nonzero" vector-effect="none"/>
        </g>
        <g class="ColorScheme-Text" fill="currentColor" fill-opacity="0.949996" font-family="Noto Sans" font-size="33.3333" font-style="normal" font-weight="400" stroke="none" transform="matrix(3.05556,0,0,3.05556,11.5,22.5)">
            <path d="M2.45373,-0.819 L2.45373,-3.27273 L3.27273,-4.09173 L10.4727,-4.09173 L11.2917,-3.27273 L11.2917,3.92727 L10.4727,4.74627 L8.019,4.74627 L8.019,3.10827 L10.4727,3.10827 L10.4727,3.92727 L9.65373,3.92727 L9.65373,-3.27273 L10.4727,-3.27273 L10.4727,-2.45373 L3.27273,-2.45373 L3.27273,-3.27273 L4.09173,-3.27273 L4.09173,-0.819 L2.45373,-0.819" fill-rule="nonzero" vector-effect="none"/>
        </g>
    </g>
</svg>
