<?xml version='1.0' encoding='UTF-8' standalone='no'?>
<svg baseProfile="tiny" height="4.23333mm" version="1.2" viewBox="0 0 28 28" width="4.23333mm" xmlns="http://www.w3.org/2000/svg" xmlns:xlink="http://www.w3.org/1999/xlink">
    <style id="current-color-scheme" type="text/css">.ColorScheme-Text {color:#fcfcfc;}</style>
    <title>Qt SVG Document</title>
    <desc>Auto-generated by Klassy window decoration</desc>
    <defs/>
    <g fill="none" fill-rule="evenodd" stroke="black" stroke-linecap="square" stroke-linejoin="bevel" stroke-width="1">
        <g class="ColorScheme-Text" fill="currentColor" fill-opacity="0.549996" font-family="Noto Sans" font-size="23.3333" font-style="normal" font-weight="400" stroke="none" transform="matrix(1.55556,0,0,1.55556,12,12)">
            <rect height="2.57143" width="2.57143" x="0" y="0"/>
        </g>
        <g class="ColorScheme-Text" fill="currentColor" fill-opacity="0.902495" font-family="Noto Sans" font-size="23.3333" font-style="normal" font-weight="400" stroke="none" transform="matrix(1.55556,0,0,1.55556,12,12)">
            <path d="M0,-0.6435 L2.57143,-0.6435 L3.21493,0 L3.21493,2.57143 L2.57143,3.21493 L0,3.21493 L-0.6435,2.57143 L-0.6435,0 L0,-0.6435 M0.6435,0 L0.6435,2.57143 L0,2.57143 L0,1.92793 L2.57143,1.92793 L2.57143,2.57143 L1.92793,2.57143 L1.92793,0 L2.57143,0 L2.57143,0.6435 L0,0.6435 L0,0 L0.6435,0" fill-rule="nonzero" vector-effect="none"/>
        </g>
    </g>
</svg>
