<?xml version='1.0' encoding='UTF-8' standalone='no'?>
<svg version="1.2" xmlns:xlink="http://www.w3.org/1999/xlink" viewBox="0 0 28 28" xmlns="http://www.w3.org/2000/svg" width="4.23333mm" height="4.23333mm" baseProfile="tiny">
    <style id="current-color-scheme" type="text/css">.ColorScheme-Text {color:#fcfcfc;}</style>
    <title>Qt SVG Document</title>
    <desc>Auto-generated by Klassy window decoration</desc>
    <defs/>
    <g stroke-linejoin="bevel" stroke-linecap="square" fill="none" stroke-width="1" stroke="black" fill-rule="evenodd">
        <g font-weight="400" class="ColorScheme-Text" font-size="23.3333" fill="currentColor" transform="matrix(1.55556,0,0,1.55556,12,12)" font-style="normal" stroke="none" font-family="Noto Sans" fill-opacity="0.650004">
            <rect y="0" x="0" width="2.57143" height="2.57143"/>
        </g>
        <g font-weight="400" class="ColorScheme-Text" font-size="23.3333" fill="currentColor" transform="matrix(1.55556,0,0,1.55556,12,12)" font-style="normal" stroke="none" font-family="Noto Sans" fill-opacity="0.850004">
            <path vector-effect="none" fill-rule="nonzero" d="M0,-0.6435 L2.57143,-0.6435 L3.21493,0 L3.21493,2.57143 L2.57143,3.21493 L0,3.21493 L-0.6435,2.57143 L-0.6435,0 L0,-0.6435 M0.6435,0 L0.6435,2.57143 L0,2.57143 L0,1.92793 L2.57143,1.92793 L2.57143,2.57143 L1.92793,2.57143 L1.92793,0 L2.57143,0 L2.57143,0.6435 L0,0.6435 L0,0 L0.6435,0"/>
        </g>
    </g>
</svg>
