<?xml version='1.0' encoding='UTF-8' standalone='no'?>
<svg width="4.23333mm" viewBox="0 0 28 28" baseProfile="tiny" xmlns="http://www.w3.org/2000/svg" xmlns:xlink="http://www.w3.org/1999/xlink" version="1.2" height="4.23333mm">
    <style id="current-color-scheme" type="text/css">.ColorScheme-Text {color:#fcfcfc;}</style>
    <title>Qt SVG Document</title>
    <desc>Auto-generated by Klassy window decoration</desc>
    <defs/>
    <g stroke-linecap="square" fill-rule="evenodd" stroke-linejoin="bevel" stroke-width="1" fill="none" stroke="black">
        <g class="ColorScheme-Text" font-weight="400" font-family="Noto Sans" font-size="23.3333" transform="matrix(1.55556,0,0,1.55556,0,0)" fill-opacity="1" fill="currentColor" font-style="normal" stroke="none">
            <path fill-rule="nonzero" vector-effect="none" d="M4.5,11.5714 L8.35714,11.5714 C8.71218,11.5714 9,11.8592 9,12.2143 C9,12.5693 8.71218,12.8571 8.35714,12.8571 L4.5,12.8571 C4.14496,12.8571 3.85714,12.5693 3.85714,12.2143 C3.85714,11.8592 4.14496,11.5714 4.5,11.5714 "/>
            <path fill-rule="nonzero" vector-effect="none" d="M4.5,7.71429 L8.35714,7.71429 C8.71218,7.71429 9,8.0021 9,8.35714 C9,8.71218 8.71218,9 8.35714,9 L4.5,9 C4.14496,9 3.85714,8.71218 3.85714,8.35714 C3.85714,8.0021 4.14496,7.71429 4.5,7.71429 "/>
            <path fill-rule="nonzero" vector-effect="none" d="M4.5,3.85714 L13.5,3.85714 C13.855,3.85714 14.1429,4.14496 14.1429,4.5 C14.1429,4.85504 13.855,5.14286 13.5,5.14286 L4.5,5.14286 C4.14496,5.14286 3.85714,4.85504 3.85714,4.5 C3.85714,4.14496 4.14496,3.85714 4.5,3.85714 "/>
            <path fill-rule="nonzero" vector-effect="none" d="M14.1429,6.42857 L14.1429,14.7857 C14.1429,15.1408 13.855,15.4286 13.5,15.4286 C13.145,15.4286 12.8571,15.1408 12.8571,14.7857 L12.8571,6.42857 C12.8571,6.07353 13.145,5.78571 13.5,5.78571 C13.855,5.78571 14.1429,6.07353 14.1429,6.42857 "/>
            <path fill-rule="nonzero" vector-effect="none" d="M11.1169,7.90257 L13.0454,5.974 L13.5,5.51943 L13.9546,5.974 L15.8831,7.90257 C16.1342,8.15363 16.1342,8.56066 15.8831,8.81171 C15.6321,9.06276 15.2251,9.06276 14.974,8.81171 L13.0454,6.88314 L13.5,6.42857 L13.9546,6.88314 L12.026,8.81171 C11.7749,9.06276 11.3679,9.06276 11.1169,8.81171 C10.8658,8.56066 10.8658,8.15363 11.1169,7.90257 "/>
        </g>
    </g>
</svg>
