<?xml version='1.0' encoding='UTF-8' standalone='no'?>
<svg baseProfile="tiny" height="4.23333mm" version="1.2" viewBox="0 0 28 28" width="4.23333mm" xmlns="http://www.w3.org/2000/svg" xmlns:xlink="http://www.w3.org/1999/xlink">
    <style id="current-color-scheme" type="text/css">.ColorScheme-Text {color:#fcfcfc;}</style>
    <title>Qt SVG Document</title>
    <desc>Auto-generated by Klassy window decoration</desc>
    <defs/>
    <g fill="none" fill-rule="evenodd" stroke="black" stroke-linecap="square" stroke-linejoin="bevel" stroke-width="1">
        <g class="ColorScheme-Text" fill="currentColor" fill-opacity="0.949996" font-family="Noto Sans" font-size="23.3333" font-style="normal" font-weight="400" stroke="none" transform="matrix(1.55556,0,0,1.55556,6,11)">
            <path d="M0,-0.6435 L7.07143,-0.6435 L7.71493,0 L7.71493,7.07143 L7.07143,7.71493 L0,7.71493 L-0.6435,7.07143 L-0.6435,0 L0,-0.6435 M0.6435,0 L0.6435,7.07143 L0,7.07143 L0,6.42793 L7.07143,6.42793 L7.07143,7.07143 L6.42793,7.07143 L6.42793,0 L7.07143,0 L7.07143,0.6435 L0,0.6435 L0,0 L0.6435,0" fill-rule="nonzero" vector-effect="none"/>
        </g>
        <g class="ColorScheme-Text" fill="currentColor" fill-opacity="0.949996" font-family="Noto Sans" font-size="23.3333" font-style="normal" font-weight="400" stroke="none" transform="matrix(1.55556,0,0,1.55556,6,11)">
            <path d="M2.57079,-0.6435 L2.57079,-3.21429 L3.21429,-3.85779 L10.2857,-3.85779 L10.9292,-3.21429 L10.9292,3.85714 L10.2857,4.50064 L7.71493,4.50064 L7.71493,3.21364 L10.2857,3.21364 L10.2857,3.85714 L9.64221,3.85714 L9.64221,-3.21429 L10.2857,-3.21429 L10.2857,-2.57079 L3.21429,-2.57079 L3.21429,-3.21429 L3.85779,-3.21429 L3.85779,-0.6435 L2.57079,-0.6435" fill-rule="nonzero" vector-effect="none"/>
        </g>
    </g>
</svg>
