<?xml version='1.0' encoding='UTF-8' standalone='no'?>
<svg baseProfile="tiny" height="4.23333mm" version="1.2" viewBox="0 0 28 28" width="4.23333mm" xmlns="http://www.w3.org/2000/svg" xmlns:xlink="http://www.w3.org/1999/xlink">
    <style id="current-color-scheme" type="text/css">.ColorScheme-Text {color:#fcfcfc;}</style>
    <title>Qt SVG Document</title>
    <desc>Auto-generated by Klassy window decoration</desc>
    <defs/>
    <g fill="none" fill-rule="evenodd" stroke="black" stroke-linecap="square" stroke-linejoin="bevel" stroke-width="1">
        <g class="ColorScheme-Text" fill="currentColor" fill-opacity="1" font-family="Noto Sans" font-size="23.3333" font-style="normal" font-weight="400" stroke="none" transform="matrix(1.55556,0,0,1.55556,0,0)">
            <path d="M4.95502,4.04498 L13.955,13.045 C14.2063,13.2963 14.2063,13.7037 13.955,13.955 C13.7037,14.2063 13.2963,14.2063 13.045,13.955 L4.04498,4.95502 C3.79367,4.70372 3.79367,4.29628 4.04498,4.04498 C4.29628,3.79367 4.70372,3.79367 4.95502,4.04498 " fill-rule="nonzero" vector-effect="none"/>
            <path d="M13.955,4.95502 L4.95502,13.955 C4.70372,14.2063 4.29628,14.2063 4.04498,13.955 C3.79367,13.7037 3.79367,13.2963 4.04498,13.045 L13.045,4.04498 C13.2963,3.79367 13.7037,3.79367 13.955,4.04498 C14.2063,4.29628 14.2063,4.70372 13.955,4.95502 " fill-rule="nonzero" vector-effect="none"/>
        </g>
    </g>
</svg>
