<?xml version='1.0' encoding='UTF-8' standalone='no'?>
<svg version="1.2" xmlns:xlink="http://www.w3.org/1999/xlink" viewBox="0 0 28 28" xmlns="http://www.w3.org/2000/svg" width="4.23333mm" height="4.23333mm" baseProfile="tiny">
    <style id="current-color-scheme" type="text/css">.ColorScheme-Text {color:#fcfcfc;}</style>
    <title>Qt SVG Document</title>
    <desc>Auto-generated by Klassy window decoration</desc>
    <defs/>
    <g stroke-linejoin="bevel" stroke-linecap="square" fill="none" stroke-width="1" stroke="black" fill-rule="evenodd">
        <g font-weight="400" class="ColorScheme-Text" font-size="23.3333" fill="currentColor" transform="matrix(1.55556,0,0,1.55556,0,0)" font-style="normal" stroke="none" font-family="Noto Sans" fill-opacity="1">
            <path vector-effect="none" fill-rule="nonzero" d="M4.5,11.5708 L8.35714,11.5708 C8.71254,11.5708 9.00064,11.8589 9.00064,12.2143 C9.00064,12.5697 8.71254,12.8578 8.35714,12.8578 L4.5,12.8578 C4.1446,12.8578 3.8565,12.5697 3.8565,12.2143 C3.8565,11.8589 4.1446,11.5708 4.5,11.5708 "/>
            <path vector-effect="none" fill-rule="nonzero" d="M4.5,7.71364 L8.35714,7.71364 C8.71254,7.71364 9.00064,8.00175 9.00064,8.35714 C9.00064,8.71254 8.71254,9.00064 8.35714,9.00064 L4.5,9.00064 C4.1446,9.00064 3.8565,8.71254 3.8565,8.35714 C3.8565,8.00175 4.1446,7.71364 4.5,7.71364 "/>
            <path vector-effect="none" fill-rule="nonzero" d="M4.5,3.8565 L13.5,3.8565 C13.8554,3.8565 14.1435,4.1446 14.1435,4.5 C14.1435,4.8554 13.8554,5.1435 13.5,5.1435 L4.5,5.1435 C4.1446,5.1435 3.8565,4.8554 3.8565,4.5 C3.8565,4.1446 4.1446,3.8565 4.5,3.8565 "/>
            <path vector-effect="none" fill-rule="nonzero" d="M14.1435,6.42857 L14.1435,14.7857 C14.1435,15.1411 13.8554,15.4292 13.5,15.4292 C13.1446,15.4292 12.8565,15.1411 12.8565,14.7857 L12.8565,6.42857 C12.8565,6.07318 13.1446,5.78507 13.5,5.78507 C13.8554,5.78507 14.1435,6.07318 14.1435,6.42857 "/>
            <path vector-effect="none" fill-rule="nonzero" d="M11.1164,7.90212 L13.045,5.97355 L13.5,5.51853 L13.955,5.97355 L15.8836,7.90212 C16.1349,8.15342 16.1349,8.56086 15.8836,8.81217 C15.6323,9.06347 15.2249,9.06347 14.9735,8.81217 L13.045,6.88359 L13.5,6.42857 L13.955,6.88359 L12.0265,8.81217 C11.7751,9.06347 11.3677,9.06347 11.1164,8.81217 C10.8651,8.56086 10.8651,8.15342 11.1164,7.90212 "/>
        </g>
    </g>
</svg>
