<?xml version='1.0' encoding='UTF-8' standalone='no'?>
<svg baseProfile="tiny" height="8.46667mm" version="1.2" viewBox="0 0 88 88" width="8.46667mm" xmlns="http://www.w3.org/2000/svg" xmlns:xlink="http://www.w3.org/1999/xlink">
    <style id="current-color-scheme" type="text/css">.ColorScheme-Text {color:#232629;}</style>
    <title>Qt SVG Document</title>
    <desc>Auto-generated by Klassy window decoration</desc>
    <defs/>
    <g fill="none" fill-rule="evenodd" stroke="black" stroke-linecap="square" stroke-linejoin="bevel" stroke-width="1">
        <g class="ColorScheme-Text" fill="currentColor" fill-opacity="0.549996" font-family="Noto Sans" font-size="36.6667" font-style="normal" font-weight="400" stroke="none" transform="matrix(4.88889,0,0,4.88889,36.5,36.5)">
            <rect height="3.06818" width="3.06818" x="0" y="0"/>
        </g>
        <g class="ColorScheme-Text" fill="currentColor" fill-opacity="0.902495" font-family="Noto Sans" font-size="36.6667" font-style="normal" font-weight="400" stroke="none" transform="matrix(4.88889,0,0,4.88889,36.5,36.5)">
            <path d="M0,-0.511875 L3.06818,-0.511875 L3.58006,0 L3.58006,3.06818 L3.06818,3.58006 L0,3.58006 L-0.511875,3.06818 L-0.511875,0 L0,-0.511875 M0.511875,0 L0.511875,3.06818 L0,3.06818 L0,2.55631 L3.06818,2.55631 L3.06818,3.06818 L2.55631,3.06818 L2.55631,0 L3.06818,0 L3.06818,0.511875 L0,0.511875 L0,0 L0.511875,0" fill-rule="nonzero" vector-effect="none"/>
        </g>
    </g>
</svg>
