<?xml version='1.0' encoding='UTF-8' standalone='no'?>
<svg baseProfile="tiny" height="8.46667mm" version="1.2" viewBox="0 0 88 88" width="8.46667mm" xmlns="http://www.w3.org/2000/svg" xmlns:xlink="http://www.w3.org/1999/xlink">
    <style id="current-color-scheme" type="text/css">.ColorScheme-Text {color:#232629;}</style>
    <title>Qt SVG Document</title>
    <desc>Auto-generated by Klassy window decoration</desc>
    <defs/>
    <g fill="none" fill-rule="evenodd" stroke="black" stroke-linecap="square" stroke-linejoin="bevel" stroke-width="1">
        <g class="ColorScheme-Text" fill="currentColor" fill-opacity="0.949996" font-family="Noto Sans" font-size="36.6667" font-style="normal" font-weight="400" stroke="none" transform="matrix(4.88889,0,0,4.88889,19.5,33.5)">
            <path d="M0,-0.716625 L7.15909,-0.716625 L7.87572,0 L7.87572,7.15909 L7.15909,7.87572 L0,7.87572 L-0.716625,7.15909 L-0.716625,0 L0,-0.716625 M0.716625,0 L0.716625,7.15909 L0,7.15909 L0,6.44247 L7.15909,6.44247 L7.15909,7.15909 L6.44247,7.15909 L6.44247,0 L7.15909,0 L7.15909,0.716625 L0,0.716625 L0,0 L0.716625,0" fill-rule="nonzero" vector-effect="none"/>
        </g>
        <g class="ColorScheme-Text" fill="currentColor" fill-opacity="0.949996" font-family="Noto Sans" font-size="36.6667" font-style="normal" font-weight="400" stroke="none" transform="matrix(4.88889,0,0,4.88889,19.5,33.5)">
            <path d="M2.14701,-0.716625 L2.14701,-2.86364 L2.86364,-3.58026 L10.0227,-3.58026 L10.7394,-2.86364 L10.7394,4.29545 L10.0227,5.01208 L7.87572,5.01208 L7.87572,3.57883 L10.0227,3.57883 L10.0227,4.29545 L9.3061,4.29545 L9.3061,-2.86364 L10.0227,-2.86364 L10.0227,-2.14701 L2.86364,-2.14701 L2.86364,-2.86364 L3.58026,-2.86364 L3.58026,-0.716625 L2.14701,-0.716625" fill-rule="nonzero" vector-effect="none"/>
        </g>
    </g>
</svg>
