<?xml version='1.0' encoding='UTF-8' standalone='no'?>
<svg version="1.2" xmlns:xlink="http://www.w3.org/1999/xlink" viewBox="0 0 88 88" xmlns="http://www.w3.org/2000/svg" width="8.46667mm" height="8.46667mm" baseProfile="tiny">
    <style id="current-color-scheme" type="text/css">.ColorScheme-Text {color:#232629;}</style>
    <title>Qt SVG Document</title>
    <desc>Auto-generated by Klassy window decoration</desc>
    <defs/>
    <g stroke-linejoin="bevel" stroke-linecap="square" fill="none" stroke-width="1" stroke="black" fill-rule="evenodd">
        <g font-weight="400" class="ColorScheme-Text" font-size="36.6667" fill="currentColor" transform="matrix(4.88889,0,0,4.88889,0,0)" font-style="normal" stroke="none" font-family="Noto Sans" fill-opacity="1">
            <path vector-effect="none" fill-rule="nonzero" d="M4.09091,3.88575 L13.9091,3.88575 C14.2483,3.88575 14.5233,4.16076 14.5233,4.5 C14.5233,4.83924 14.2483,5.11425 13.9091,5.11425 L4.09091,5.11425 C3.75167,5.11425 3.47666,4.83924 3.47666,4.5 C3.47666,4.16076 3.75167,3.88575 4.09091,3.88575 "/>
            <path vector-effect="none" fill-rule="nonzero" d="M4.43434,7.56566 L9.43434,12.5657 L9,13 L8.56566,12.5657 L13.5657,7.56566 C13.8055,7.32578 14.1945,7.32578 14.4343,7.56566 C14.6742,7.80554 14.6742,8.19446 14.4343,8.43434 L9.43434,13.4343 L9,13.8687 L8.56566,13.4343 L3.56566,8.43434 C3.32578,8.19446 3.32578,7.80554 3.56566,7.56566 C3.80554,7.32578 4.19446,7.32578 4.43434,7.56566 "/>
        </g>
    </g>
</svg>
