<?xml version='1.0' encoding='UTF-8' standalone='no'?>
<svg width="8.46667mm" viewBox="0 0 88 88" baseProfile="tiny" xmlns="http://www.w3.org/2000/svg" xmlns:xlink="http://www.w3.org/1999/xlink" version="1.2" height="8.46667mm">
    <style id="current-color-scheme" type="text/css">.ColorScheme-Text {color:#232629;}</style>
    <title>Qt SVG Document</title>
    <desc>Auto-generated by Klassy window decoration</desc>
    <defs/>
    <g stroke-linecap="square" fill-rule="evenodd" stroke-linejoin="bevel" stroke-width="1" fill="none" stroke="black">
        <g class="ColorScheme-Text" font-weight="400" font-family="Noto Sans" font-size="36.6667" transform="matrix(4.88889,0,0,4.88889,0,0)" fill-opacity="1" fill="currentColor" font-style="normal" stroke="none">
            <path fill-rule="nonzero" vector-effect="none" d="M4.5,13.9091 L13.5,13.9091 C13.8389,13.9091 14.1136,14.1838 14.1136,14.5227 C14.1136,14.8616 13.8389,15.1364 13.5,15.1364 L4.5,15.1364 C4.1611,15.1364 3.88636,14.8616 3.88636,14.5227 C3.88636,14.1838 4.1611,13.9091 4.5,13.9091 "/>
            <path fill-rule="nonzero" vector-effect="none" d="M9.40909,9.81818 L13.5,9.81818 C13.8389,9.81818 14.1136,10.0929 14.1136,10.4318 C14.1136,10.7707 13.8389,11.0455 13.5,11.0455 L9.40909,11.0455 C9.07019,11.0455 8.79545,10.7707 8.79545,10.4318 C8.79545,10.0929 9.07019,9.81818 9.40909,9.81818 "/>
            <path fill-rule="nonzero" vector-effect="none" d="M9.40909,5.72727 L13.5,5.72727 C13.8389,5.72727 14.1136,6.00201 14.1136,6.34091 C14.1136,6.67981 13.8389,6.95455 13.5,6.95455 L9.40909,6.95455 C9.07019,6.95455 8.79545,6.67981 8.79545,6.34091 C8.79545,6.00201 9.07019,5.72727 9.40909,5.72727 "/>
            <path fill-rule="nonzero" vector-effect="none" d="M5.11364,4.5 L5.11364,12.4773 C5.11364,12.8162 4.8389,13.0909 4.5,13.0909 C4.1611,13.0909 3.88636,12.8162 3.88636,12.4773 L3.88636,4.5 C3.88636,4.1611 4.1611,3.88636 4.5,3.88636 C4.8389,3.88636 5.11364,4.1611 5.11364,4.5 "/>
            <path fill-rule="nonzero" vector-effect="none" d="M2.88845,9.99791 L4.93391,12.0434 L4.5,12.4773 L4.06609,12.0434 L6.11155,9.99791 C6.35119,9.75827 6.73972,9.75827 6.97936,9.99791 C7.219,10.2376 7.219,10.6261 6.97936,10.8657 L4.93391,12.9112 L4.5,13.3451 L4.06609,12.9112 L2.02064,10.8657 C1.781,10.6261 1.781,10.2376 2.02064,9.99791 C2.26028,9.75827 2.64881,9.75827 2.88845,9.99791 "/>
        </g>
    </g>
</svg>
