<?xml version='1.0' encoding='UTF-8' standalone='no'?>
<svg baseProfile="tiny" height="8.46667mm" version="1.2" viewBox="0 0 88 88" width="8.46667mm" xmlns="http://www.w3.org/2000/svg" xmlns:xlink="http://www.w3.org/1999/xlink">
    <style id="current-color-scheme" type="text/css">.ColorScheme-Text {color:#232629;}</style>
    <title>Qt SVG Document</title>
    <desc>Auto-generated by Klassy window decoration</desc>
    <defs/>
    <g fill="none" fill-rule="evenodd" stroke="black" stroke-linecap="square" stroke-linejoin="bevel" stroke-width="1">
        <g class="ColorScheme-Text" fill="currentColor" fill-opacity="1" font-family="Noto Sans" font-size="36.6667" font-style="normal" font-weight="400" stroke="none" transform="matrix(4.88889,0,0,4.88889,0,0)">
            <path d="M4.90446,3.891 L14.109,13.0955 C14.3889,13.3754 14.3889,13.8291 14.109,14.109 C13.8291,14.3889 13.3754,14.3889 13.0955,14.109 L3.891,4.90446 C3.61114,4.6246 3.61114,4.17086 3.891,3.891 C4.17086,3.61114 4.6246,3.61114 4.90446,3.891 " fill-rule="nonzero" vector-effect="none"/>
            <path d="M14.109,4.90446 L4.90446,14.109 C4.6246,14.3889 4.17086,14.3889 3.891,14.109 C3.61114,13.8291 3.61114,13.3754 3.891,13.0955 L13.0955,3.891 C13.3754,3.61114 13.8291,3.61114 14.109,3.891 C14.3889,4.17086 14.3889,4.6246 14.109,4.90446 " fill-rule="nonzero" vector-effect="none"/>
        </g>
    </g>
</svg>
