<?xml version='1.0' encoding='UTF-8' standalone='no'?>
<svg width="8.46667mm" viewBox="0 0 88 88" baseProfile="tiny" xmlns="http://www.w3.org/2000/svg" xmlns:xlink="http://www.w3.org/1999/xlink" version="1.2" height="8.46667mm">
    <style id="current-color-scheme" type="text/css">.ColorScheme-Text {color:#232629;}</style>
    <title>Qt SVG Document</title>
    <desc>Auto-generated by Klassy window decoration</desc>
    <defs/>
    <g stroke-linecap="square" fill-rule="evenodd" stroke-linejoin="bevel" stroke-width="1" fill="none" stroke="black">
        <g class="ColorScheme-Text" font-weight="400" font-family="Noto Sans" font-size="36.6667" transform="matrix(4.88889,0,0,4.88889,19.5,33.5)" fill-opacity="1" fill="currentColor" font-style="normal" stroke="none">
            <path fill-rule="nonzero" vector-effect="none" d="M0,-0.715909 L7.15909,-0.715909 L7.875,0 L7.875,7.15909 L7.15909,7.875 L0,7.875 L-0.715909,7.15909 L-0.715909,0 L0,-0.715909 M0.715909,0 L0.715909,7.15909 L0,7.15909 L0,6.44318 L7.15909,6.44318 L7.15909,7.15909 L6.44318,7.15909 L6.44318,0 L7.15909,0 L7.15909,0.715909 L0,0.715909 L0,0 L0.715909,0"/>
        </g>
        <g class="ColorScheme-Text" font-weight="400" font-family="Noto Sans" font-size="36.6667" transform="matrix(4.88889,0,0,4.88889,19.5,33.5)" fill-opacity="1" fill="currentColor" font-style="normal" stroke="none">
            <path fill-rule="nonzero" vector-effect="none" d="M2.14773,-0.715909 L2.14773,-2.86364 L2.86364,-3.57955 L10.0227,-3.57955 L10.7386,-2.86364 L10.7386,4.29545 L10.0227,5.01136 L7.875,5.01136 L7.875,3.57955 L10.0227,3.57955 L10.0227,4.29545 L9.30682,4.29545 L9.30682,-2.86364 L10.0227,-2.86364 L10.0227,-2.14773 L2.86364,-2.14773 L2.86364,-2.86364 L3.57955,-2.86364 L3.57955,-0.715909 L2.14773,-0.715909"/>
        </g>
    </g>
</svg>
