<?xml version='1.0' encoding='UTF-8' standalone='no'?>
<svg width="8.46667mm" viewBox="0 0 88 88" baseProfile="tiny" xmlns="http://www.w3.org/2000/svg" xmlns:xlink="http://www.w3.org/1999/xlink" version="1.2" height="8.46667mm">
    <style id="current-color-scheme" type="text/css">.ColorScheme-Text {color:#232629;}</style>
    <title>Qt SVG Document</title>
    <desc>Auto-generated by Klassy window decoration</desc>
    <defs/>
    <g stroke-linecap="square" fill-rule="evenodd" stroke-linejoin="bevel" stroke-width="1" fill="none" stroke="black">
        <g class="ColorScheme-Text" font-weight="400" font-family="Noto Sans" font-size="36.6667" transform="matrix(4.88889,0,0,4.88889,0,0)" fill-opacity="1" fill="currentColor" font-style="normal" stroke="none">
            <path fill-rule="nonzero" vector-effect="none" d="M4.09091,3.88636 L13.9091,3.88636 C14.248,3.88636 14.5227,4.1611 14.5227,4.5 C14.5227,4.8389 14.248,5.11364 13.9091,5.11364 L4.09091,5.11364 C3.75201,5.11364 3.47727,4.8389 3.47727,4.5 C3.47727,4.1611 3.75201,3.88636 4.09091,3.88636 "/>
            <path fill-rule="nonzero" vector-effect="none" d="M3.56609,12.5661 L8.56609,7.56609 L9,7.13219 L9.43391,7.56609 L14.4339,12.5661 C14.6735,12.8057 14.6735,13.1943 14.4339,13.4339 C14.1943,13.6735 13.8057,13.6735 13.5661,13.4339 L8.56609,8.43391 L9,8 L9.43391,8.43391 L4.43391,13.4339 C4.19427,13.6735 3.80573,13.6735 3.56609,13.4339 C3.32645,13.1943 3.32645,12.8057 3.56609,12.5661 "/>
        </g>
    </g>
</svg>
