<?xml version='1.0' encoding='UTF-8' standalone='no'?>
<svg width="8.46667mm" viewBox="0 0 88 88" baseProfile="tiny" xmlns="http://www.w3.org/2000/svg" xmlns:xlink="http://www.w3.org/1999/xlink" version="1.2" height="8.46667mm">
    <style id="current-color-scheme" type="text/css">.ColorScheme-Text {color:#232629;}</style>
    <title>Qt SVG Document</title>
    <desc>Auto-generated by Klassy window decoration</desc>
    <defs/>
    <g stroke-linecap="square" fill-rule="evenodd" stroke-linejoin="bevel" stroke-width="1" fill="none" stroke="black">
        <g class="ColorScheme-Text" font-weight="400" font-family="Noto Sans" font-size="36.6667" transform="matrix(4.88889,0,0,4.88889,0,0)" fill-opacity="0.8" fill="currentColor" font-style="normal" stroke="none">
            <path fill-rule="evenodd" vector-effect="none" d="M15,9 L14.6941,10.8965 L13.8423,12.5435 L12.5435,13.8423 L10.8965,14.6941 L9,15 L7.10354,14.6941 L5.45648,13.8423 L4.15765,12.5435 L3.30588,10.8965 L3,9 L3.30588,7.10354 L4.15765,5.45648 L5.45648,4.15765 L7.10354,3.30588 L9,3 L10.8965,3.30588 L12.5435,4.15765 L13.8423,5.45648 L14.6941,7.10354 L15,9 M10,9 L9.70711,9.70711 L9,10 L8.29289,9.70711 L8,9 L8.29289,8.29289 L9,8 L9.70711,8.29289 L10,9"/>
        </g>
    </g>
</svg>
