<?xml version='1.0' encoding='UTF-8' standalone='no'?>
<svg width="8.46667mm" viewBox="0 0 88 88" baseProfile="tiny" xmlns="http://www.w3.org/2000/svg" xmlns:xlink="http://www.w3.org/1999/xlink" version="1.2" height="8.46667mm">
    <style id="current-color-scheme" type="text/css">.ColorScheme-Text {color:#232629;}</style>
    <title>Qt SVG Document</title>
    <desc>Auto-generated by Klassy window decoration</desc>
    <defs/>
    <g stroke-linecap="square" fill-rule="evenodd" stroke-linejoin="bevel" stroke-width="1" fill="none" stroke="black">
        <g class="ColorScheme-Text" font-weight="400" font-family="Noto Sans" font-size="36.6667" transform="matrix(4.88889,0,0,4.88889,0,0)" fill-opacity="1" fill="currentColor" font-style="normal" stroke="none">
            <path fill-rule="nonzero" vector-effect="none" d="M3.68182,4.39888 C3.68182,4.1017 4.1017,3.68182 4.39888,3.68182 L13.6011,3.68182 C13.8983,3.68182 14.3182,4.1017 14.3182,4.39888 L14.3182,13.6011 C14.3182,13.8983 13.8983,14.3182 13.6011,14.3182 L4.39888,14.3182 C4.1017,14.3182 3.68182,13.8983 3.68182,13.6011 L3.68182,4.39888 M5.11364,4.39888 L5.11364,13.6011 C5.11364,13.3052 4.69478,12.8864 4.39888,12.8864 L13.6011,12.8864 C13.3052,12.8864 12.8864,13.3052 12.8864,13.6011 L12.8864,4.39888 C12.8864,4.69478 13.3052,5.11364 13.6011,5.11364 L4.39888,5.11364 C4.69478,5.11364 5.11364,4.69478 5.11364,4.39888 "/>
        </g>
    </g>
</svg>
