<?xml version='1.0' encoding='UTF-8' standalone='no'?>
<svg width="8.46667mm" viewBox="0 0 88 88" baseProfile="tiny" xmlns="http://www.w3.org/2000/svg" xmlns:xlink="http://www.w3.org/1999/xlink" version="1.2" height="8.46667mm">
    <style id="current-color-scheme" type="text/css">.ColorScheme-Text {color:#232629;}</style>
    <title>Qt SVG Document</title>
    <desc>Auto-generated by Klassy window decoration</desc>
    <defs/>
    <g stroke-linecap="square" fill-rule="evenodd" stroke-linejoin="bevel" stroke-width="1" fill="none" stroke="black">
        <g class="ColorScheme-Text" font-weight="400" font-family="Noto Sans" font-size="36.6667" transform="matrix(4.88889,0,0,4.88889,36.5,36.5)" fill-opacity="0.650004" fill="currentColor" font-style="normal" stroke="none">
            <rect width="3.06818" y="0" x="0" height="3.06818"/>
        </g>
        <g class="ColorScheme-Text" font-weight="400" font-family="Noto Sans" font-size="36.6667" transform="matrix(4.88889,0,0,4.88889,36.5,36.5)" fill-opacity="0.850004" fill="currentColor" font-style="normal" stroke="none">
            <path fill-rule="nonzero" vector-effect="none" d="M0,-0.511364 L3.06818,-0.511364 L3.57955,0 L3.57955,3.06818 L3.06818,3.57955 L0,3.57955 L-0.511364,3.06818 L-0.511364,0 L0,-0.511364 M0.511364,0 L0.511364,3.06818 L0,3.06818 L0,2.55682 L3.06818,2.55682 L3.06818,3.06818 L2.55682,3.06818 L2.55682,0 L3.06818,0 L3.06818,0.511364 L0,0.511364 L0,0 L0.511364,0"/>
        </g>
    </g>
</svg>
