<?xml version='1.0' encoding='UTF-8' standalone='no'?>
<svg width="6.35mm" viewBox="0 0 24 24" baseProfile="tiny" xmlns="http://www.w3.org/2000/svg" xmlns:xlink="http://www.w3.org/1999/xlink" version="1.2" height="6.35mm">
    <style id="current-color-scheme" type="text/css">.ColorScheme-Text {color:#232629;}</style>
    <title>Qt SVG Document</title>
    <desc>Auto-generated by Klassy window decoration</desc>
    <defs/>
    <g stroke-linecap="square" fill-rule="evenodd" stroke-linejoin="bevel" stroke-width="1" fill="none" stroke="black">
        <g class="ColorScheme-Text" font-weight="400" font-family="Noto Sans" font-size="13.3333" transform="matrix(1.33333,0,0,1.33333,0,0)" fill-opacity="0.900008" fill="currentColor" font-style="normal" stroke="none">
            <path fill-rule="nonzero" vector-effect="none" d="M3.75,4.12622 C3.75,3.97022 3.97022,3.75 4.12622,3.75 L13.8738,3.75 C14.0298,3.75 14.25,3.97022 14.25,4.12622 L14.25,13.8738 C14.25,14.0298 14.0298,14.25 13.8738,14.25 L4.12622,14.25 C3.97022,14.25 3.75,14.0298 3.75,13.8738 L3.75,4.12622 M4.5,4.12622 L4.5,13.8738 C4.5,13.7191 4.28088,13.5 4.12622,13.5 L13.8738,13.5 C13.7191,13.5 13.5,13.7191 13.5,13.8738 L13.5,4.12622 C13.5,4.28088 13.7191,4.5 13.8738,4.5 L4.12622,4.5 C4.28088,4.5 4.5,4.28088 4.5,4.12622 "/>
        </g>
    </g>
</svg>
