<?xml version='1.0' encoding='UTF-8' standalone='no'?>
<svg version="1.2" xmlns:xlink="http://www.w3.org/1999/xlink" viewBox="0 0 24 24" xmlns="http://www.w3.org/2000/svg" width="6.35mm" height="6.35mm" baseProfile="tiny">
    <style id="current-color-scheme" type="text/css">.ColorScheme-Text {color:#232629;}</style>
    <title>Qt SVG Document</title>
    <desc>Auto-generated by Klassy window decoration</desc>
    <defs/>
    <g stroke-linejoin="bevel" stroke-linecap="square" fill="none" stroke-width="1" stroke="black" fill-rule="evenodd">
        <g font-weight="400" class="ColorScheme-Text" font-size="13.3333" fill="currentColor" transform="matrix(1.33333,0,0,1.33333,0,0)" font-style="normal" stroke="none" font-family="Noto Sans" fill-opacity="1">
            <path vector-effect="none" fill-rule="nonzero" d="M3.75,4.49962 L14.25,4.49962 C14.4573,4.49962 14.6254,4.66769 14.6254,4.875 C14.6254,5.08231 14.4573,5.25038 14.25,5.25038 L3.75,5.25038 C3.54269,5.25038 3.37462,5.08231 3.37462,4.875 C3.37462,4.66769 3.54269,4.49962 3.75,4.49962 "/>
            <path vector-effect="none" fill-rule="nonzero" d="M3.73457,12.7346 L8.73457,7.73457 L9,7.46914 L9.26543,7.73457 L14.2654,12.7346 C14.412,12.8812 14.412,13.1188 14.2654,13.2654 C14.1188,13.412 13.8812,13.412 13.7346,13.2654 L8.73457,8.26543 L9,8 L9.26543,8.26543 L4.26543,13.2654 C4.11884,13.412 3.88116,13.412 3.73457,13.2654 C3.58798,13.1188 3.58798,12.8812 3.73457,12.7346 "/>
        </g>
    </g>
</svg>
