<?xml version='1.0' encoding='UTF-8' standalone='no'?>
<svg width="6.35mm" viewBox="0 0 24 24" baseProfile="tiny" xmlns="http://www.w3.org/2000/svg" xmlns:xlink="http://www.w3.org/1999/xlink" version="1.2" height="6.35mm">
    <style id="current-color-scheme" type="text/css">.ColorScheme-Text {color:#232629;}</style>
    <title>Qt SVG Document</title>
    <desc>Auto-generated by Klassy window decoration</desc>
    <defs/>
    <g stroke-linecap="square" fill-rule="evenodd" stroke-linejoin="bevel" stroke-width="1" fill="none" stroke="black">
        <g class="ColorScheme-Text" font-weight="400" font-family="Noto Sans" font-size="13.3333" transform="matrix(1.33333,0,0,1.33333,0,0)" fill-opacity="1" fill="currentColor" font-style="normal" stroke="none">
            <path fill-rule="nonzero" vector-effect="none" d="M3.75,4.5 L14.25,4.5 C14.4571,4.5 14.625,4.66789 14.625,4.875 C14.625,5.08211 14.4571,5.25 14.25,5.25 L3.75,5.25 C3.54289,5.25 3.375,5.08211 3.375,4.875 C3.375,4.66789 3.54289,4.5 3.75,4.5 "/>
            <path fill-rule="nonzero" vector-effect="none" d="M3.73483,12.7348 L8.73483,7.73483 L9,7.46967 L9.26517,7.73483 L14.2652,12.7348 C14.4116,12.8813 14.4116,13.1187 14.2652,13.2652 C14.1187,13.4116 13.8813,13.4116 13.7348,13.2652 L8.73483,8.26517 L9,8 L9.26517,8.26517 L4.26517,13.2652 C4.11872,13.4116 3.88128,13.4116 3.73483,13.2652 C3.58839,13.1187 3.58839,12.8813 3.73483,12.7348 "/>
        </g>
    </g>
</svg>
