<?xml version='1.0' encoding='UTF-8' standalone='no'?>
<svg baseProfile="tiny" height="6.35mm" version="1.2" viewBox="0 0 24 24" width="6.35mm" xmlns="http://www.w3.org/2000/svg" xmlns:xlink="http://www.w3.org/1999/xlink">
    <style id="current-color-scheme" type="text/css">.ColorScheme-Text {color:#232629;}</style>
    <title>Qt SVG Document</title>
    <desc>Auto-generated by Klassy window decoration</desc>
    <defs/>
    <g fill="none" fill-rule="evenodd" stroke="black" stroke-linecap="square" stroke-linejoin="bevel" stroke-width="1">
        <g class="ColorScheme-Text" fill="currentColor" fill-opacity="1" font-family="Noto Sans" font-size="13.3333" font-style="normal" font-weight="400" stroke="none" transform="matrix(1.33333,0,0,1.33333,0,0)">
            <path d="M4.125,12.7496 L8.625,12.7496 C8.83231,12.7496 9.00038,12.9177 9.00038,13.125 C9.00038,13.3323 8.83231,13.5004 8.625,13.5004 L4.125,13.5004 C3.91769,13.5004 3.74962,13.3323 3.74962,13.125 C3.74962,12.9177 3.91769,12.7496 4.125,12.7496 " fill-rule="nonzero" vector-effect="none"/>
            <path d="M4.125,8.24962 L8.625,8.24962 C8.83231,8.24962 9.00038,8.41769 9.00038,8.625 C9.00038,8.83231 8.83231,9.00038 8.625,9.00038 L4.125,9.00038 C3.91769,9.00038 3.74962,8.83231 3.74962,8.625 C3.74962,8.41769 3.91769,8.24962 4.125,8.24962 " fill-rule="nonzero" vector-effect="none"/>
            <path d="M4.125,3.74962 L13.125,3.74962 C13.3323,3.74962 13.5004,3.91769 13.5004,4.125 C13.5004,4.33231 13.3323,4.50038 13.125,4.50038 L4.125,4.50038 C3.91769,4.50038 3.74962,4.33231 3.74962,4.125 C3.74962,3.91769 3.91769,3.74962 4.125,3.74962 " fill-rule="nonzero" vector-effect="none"/>
            <path d="M14.2504,6.375 L14.2504,14.625 C14.2504,14.8323 14.0823,15.0004 13.875,15.0004 C13.6677,15.0004 13.4996,14.8323 13.4996,14.625 L13.4996,6.375 C13.4996,6.16769 13.6677,5.99962 13.875,5.99962 C14.0823,5.99962 14.2504,6.16769 14.2504,6.375 " fill-rule="nonzero" vector-effect="none"/>
            <path d="M12.0627,8.41678 L13.5627,6.16678 L13.875,5.69828 L14.1873,6.16678 L15.6873,8.41678 C15.8023,8.58927 15.7557,8.82233 15.5832,8.93733 C15.4107,9.05233 15.1777,9.00572 15.0627,8.83322 L13.5627,6.58322 L13.875,6.375 L14.1873,6.58322 L12.6873,8.83322 C12.5723,9.00572 12.3393,9.05233 12.1668,8.93733 C11.9943,8.82233 11.9477,8.58927 12.0627,8.41678 " fill-rule="nonzero" vector-effect="none"/>
        </g>
    </g>
</svg>
