<?xml version='1.0' encoding='UTF-8' standalone='no'?>
<svg version="1.2" xmlns:xlink="http://www.w3.org/1999/xlink" viewBox="0 0 24 24" xmlns="http://www.w3.org/2000/svg" width="6.35mm" height="6.35mm" baseProfile="tiny">
    <style id="current-color-scheme" type="text/css">.ColorScheme-Text {color:#232629;}</style>
    <title>Qt SVG Document</title>
    <desc>Auto-generated by Klassy window decoration</desc>
    <defs/>
    <g stroke-linejoin="bevel" stroke-linecap="square" fill="none" stroke-width="1" stroke="black" fill-rule="evenodd">
        <g font-weight="400" class="ColorScheme-Text" font-size="13.3333" fill="currentColor" transform="matrix(1.33333,0,0,1.33333,9.5,9.5)" font-style="normal" stroke="none" font-family="Noto Sans" fill-opacity="0.450004">
            <rect y="0" x="0" width="3.75" height="3.75"/>
        </g>
        <g font-weight="400" class="ColorScheme-Text" font-size="13.3333" fill="currentColor" transform="matrix(1.33333,0,0,1.33333,9.5,9.5)" font-style="normal" stroke="none" font-family="Noto Sans" fill-opacity="0.650004">
            <path vector-effect="none" fill-rule="nonzero" d="M0,-0.375375 L3.75,-0.375375 L4.12538,0 L4.12538,3.75 L3.75,4.12538 L0,4.12538 L-0.375375,3.75 L-0.375375,0 L0,-0.375375 M0.375375,0 L0.375375,3.75 L0,3.75 L0,3.37462 L3.75,3.37462 L3.75,3.75 L3.37462,3.75 L3.37462,0 L3.75,0 L3.75,0.375375 L0,0.375375 L0,0 L0.375375,0"/>
        </g>
    </g>
</svg>
