<?xml version='1.0' encoding='UTF-8' standalone='no'?>
<svg width="6.35mm" viewBox="0 0 24 24" baseProfile="tiny" xmlns="http://www.w3.org/2000/svg" xmlns:xlink="http://www.w3.org/1999/xlink" version="1.2" height="6.35mm">
    <style id="current-color-scheme" type="text/css">.ColorScheme-Text {color:#232629;}</style>
    <title>Qt SVG Document</title>
    <desc>Auto-generated by Klassy window decoration</desc>
    <defs/>
    <g stroke-linecap="square" fill-rule="evenodd" stroke-linejoin="bevel" stroke-width="1" fill="none" stroke="black">
        <g class="ColorScheme-Text" font-weight="400" font-family="Noto Sans" font-size="13.3333" transform="matrix(1.33333,0,0,1.33333,9.5,9.5)" fill-opacity="0.450004" fill="currentColor" font-style="normal" stroke="none">
            <rect width="3.75" y="0" x="0" height="3.75"/>
        </g>
        <g class="ColorScheme-Text" font-weight="400" font-family="Noto Sans" font-size="13.3333" transform="matrix(1.33333,0,0,1.33333,9.5,9.5)" fill-opacity="0.650004" fill="currentColor" font-style="normal" stroke="none">
            <path fill-rule="nonzero" vector-effect="none" d="M0,-0.375 L3.75,-0.375 L4.125,0 L4.125,3.75 L3.75,4.125 L0,4.125 L-0.375,3.75 L-0.375,0 L0,-0.375 M0.375,0 L0.375,3.75 L0,3.75 L0,3.375 L3.75,3.375 L3.75,3.75 L3.375,3.75 L3.375,0 L3.75,0 L3.75,0.375 L0,0.375 L0,0 L0.375,0"/>
        </g>
    </g>
</svg>
