<?xml version='1.0' encoding='UTF-8' standalone='no'?>
<svg width="6.35mm" viewBox="0 0 24 24" baseProfile="tiny" xmlns="http://www.w3.org/2000/svg" xmlns:xlink="http://www.w3.org/1999/xlink" version="1.2" height="6.35mm">
    <style id="current-color-scheme" type="text/css">.ColorScheme-Text {color:#232629;}</style>
    <title>Qt SVG Document</title>
    <desc>Auto-generated by Klassy window decoration</desc>
    <defs/>
    <g stroke-linecap="square" fill-rule="evenodd" stroke-linejoin="bevel" stroke-width="1" fill="none" stroke="black">
        <g class="ColorScheme-Text" font-weight="400" font-family="Noto Sans" font-size="13.3333" transform="matrix(1.33333,0,0,1.33333,0,0)" fill-opacity="1" fill="currentColor" font-style="normal" stroke="none">
            <path fill-rule="nonzero" vector-effect="none" d="M4.47891,3.77109 L14.2289,13.5211 C14.4244,13.7166 14.4244,14.0334 14.2289,14.2289 C14.0334,14.4244 13.7166,14.4244 13.5211,14.2289 L3.77109,4.47891 C3.57564,4.28345 3.57564,3.96655 3.77109,3.77109 C3.96655,3.57564 4.28345,3.57564 4.47891,3.77109 "/>
            <path fill-rule="nonzero" vector-effect="none" d="M14.2289,4.47891 L4.47891,14.2289 C4.28345,14.4244 3.96655,14.4244 3.77109,14.2289 C3.57564,14.0334 3.57564,13.7166 3.77109,13.5211 L13.5211,3.77109 C13.7166,3.57564 14.0334,3.57564 14.2289,3.77109 C14.4244,3.96655 14.4244,4.28345 14.2289,4.47891 "/>
        </g>
    </g>
</svg>
