<?xml version='1.0' encoding='UTF-8' standalone='no'?>
<svg version="1.2" xmlns:xlink="http://www.w3.org/1999/xlink" viewBox="0 0 24 24" xmlns="http://www.w3.org/2000/svg" width="6.35mm" height="6.35mm" baseProfile="tiny">
    <style id="current-color-scheme" type="text/css">.ColorScheme-Text {color:#232629;}</style>
    <title>Qt SVG Document</title>
    <desc>Auto-generated by Klassy window decoration</desc>
    <defs/>
    <g stroke-linejoin="bevel" stroke-linecap="square" fill="none" stroke-width="1" stroke="black" fill-rule="evenodd">
        <g font-weight="400" class="ColorScheme-Text" font-size="13.3333" fill="currentColor" transform="matrix(1.33333,0,0,1.33333,0,0)" font-style="normal" stroke="none" font-family="Noto Sans" fill-opacity="1">
            <path vector-effect="none" fill-rule="nonzero" d="M4.39043,3.85957 L14.1404,13.6096 C14.287,13.7562 14.287,13.9938 14.1404,14.1404 C13.9938,14.287 13.7562,14.287 13.6096,14.1404 L3.85957,4.39043 C3.71298,4.24384 3.71298,4.00616 3.85957,3.85957 C4.00616,3.71298 4.24384,3.71298 4.39043,3.85957 "/>
            <path vector-effect="none" fill-rule="nonzero" d="M14.1404,4.39043 L4.39043,14.1404 C4.24384,14.287 4.00616,14.287 3.85957,14.1404 C3.71298,13.9938 3.71298,13.7562 3.85957,13.6096 L13.6096,3.85957 C13.7562,3.71298 13.9938,3.71298 14.1404,3.85957 C14.287,4.00616 14.287,4.24384 14.1404,4.39043 "/>
        </g>
    </g>
</svg>
