<?xml version='1.0' encoding='UTF-8' standalone='no'?>
<svg width="6.35mm" viewBox="0 0 24 24" baseProfile="tiny" xmlns="http://www.w3.org/2000/svg" xmlns:xlink="http://www.w3.org/1999/xlink" version="1.2" height="6.35mm">
    <style id="current-color-scheme" type="text/css">.ColorScheme-Text {color:#232629;}</style>
    <title>Qt SVG Document</title>
    <desc>Auto-generated by Klassy window decoration</desc>
    <defs/>
    <g stroke-linecap="square" fill-rule="evenodd" stroke-linejoin="bevel" stroke-width="1" fill="none" stroke="black">
        <g class="ColorScheme-Text" font-weight="400" font-family="Noto Sans" font-size="13.3333" transform="matrix(1.33333,0,0,1.33333,0,0)" fill-opacity="1" fill="currentColor" font-style="normal" stroke="none">
            <path fill-rule="nonzero" vector-effect="none" d="M4.875,14.25 L13.875,14.25 C14.0821,14.25 14.25,14.4179 14.25,14.625 C14.25,14.8321 14.0821,15 13.875,15 L4.875,15 C4.66789,15 4.5,14.8321 4.5,14.625 C4.5,14.4179 4.66789,14.25 4.875,14.25 "/>
            <path fill-rule="nonzero" vector-effect="none" d="M9.375,9.75 L13.875,9.75 C14.0821,9.75 14.25,9.91789 14.25,10.125 C14.25,10.3321 14.0821,10.5 13.875,10.5 L9.375,10.5 C9.16789,10.5 9,10.3321 9,10.125 C9,9.91789 9.16789,9.75 9.375,9.75 "/>
            <path fill-rule="nonzero" vector-effect="none" d="M9.375,5.25 L13.875,5.25 C14.0821,5.25 14.25,5.41789 14.25,5.625 C14.25,5.83211 14.0821,6 13.875,6 L9.375,6 C9.16789,6 9,5.83211 9,5.625 C9,5.41789 9.16789,5.25 9.375,5.25 "/>
            <path fill-rule="nonzero" vector-effect="none" d="M4.5,4.125 L4.5,12.375 C4.5,12.5821 4.33211,12.75 4.125,12.75 C3.91789,12.75 3.75,12.5821 3.75,12.375 L3.75,4.125 C3.75,3.91789 3.91789,3.75 4.125,3.75 C4.33211,3.75 4.5,3.91789 4.5,4.125 "/>
            <path fill-rule="nonzero" vector-effect="none" d="M2.93702,9.91699 L4.43702,12.167 L4.125,12.375 L3.81298,12.167 L5.31298,9.91699 C5.42786,9.74466 5.66069,9.6981 5.83301,9.81298 C6.00534,9.92786 6.0519,10.1607 5.93702,10.333 L4.43702,12.583 L4.125,13.051 L3.81298,12.583 L2.31298,10.333 C2.1981,10.1607 2.24466,9.92786 2.41699,9.81298 C2.58931,9.6981 2.82214,9.74466 2.93702,9.91699 "/>
        </g>
    </g>
</svg>
