<?xml version='1.0' encoding='UTF-8' standalone='no'?>
<svg baseProfile="tiny" height="12.7mm" version="1.2" viewBox="0 0 96 96" width="12.7mm" xmlns="http://www.w3.org/2000/svg" xmlns:xlink="http://www.w3.org/1999/xlink">
    <style id="current-color-scheme" type="text/css">.ColorScheme-Text {color:#fcfcfc;}</style>
    <title>Qt SVG Document</title>
    <desc>Auto-generated by Klassy window decoration</desc>
    <defs/>
    <g fill="none" fill-rule="evenodd" stroke="black" stroke-linecap="square" stroke-linejoin="bevel" stroke-width="1">
        <g class="ColorScheme-Text" fill="currentColor" fill-opacity="0.949996" font-family="Noto Sans" font-size="26.6667" font-style="normal" font-weight="400" stroke="none" transform="matrix(5.33333,0,0,5.33333,23,35)">
            <path d="M0,-0.75075 L7.125,-0.75075 L7.87575,0 L7.87575,7.125 L7.125,7.87575 L0,7.87575 L-0.75075,7.125 L-0.75075,0 L0,-0.75075 M0.75075,0 L0.75075,7.125 L0,7.125 L0,6.37425 L7.125,6.37425 L7.125,7.125 L6.37425,7.125 L6.37425,0 L7.125,0 L7.125,0.75075 L0,0.75075 L0,0 L0.75075,0" fill-rule="nonzero" vector-effect="none"/>
        </g>
        <g class="ColorScheme-Text" fill="currentColor" fill-opacity="0.949996" font-family="Noto Sans" font-size="26.6667" font-style="normal" font-weight="400" stroke="none" transform="matrix(5.33333,0,0,5.33333,23,35)">
            <path d="M1.49925,-0.75075 L1.49925,-2.25 L2.25,-3.00075 L9.375,-3.00075 L10.1258,-2.25 L10.1258,4.875 L9.375,5.62575 L7.87575,5.62575 L7.87575,4.12425 L9.375,4.12425 L9.375,4.875 L8.62425,4.875 L8.62425,-2.25 L9.375,-2.25 L9.375,-1.49925 L2.25,-1.49925 L2.25,-2.25 L3.00075,-2.25 L3.00075,-0.75075 L1.49925,-0.75075" fill-rule="nonzero" vector-effect="none"/>
        </g>
    </g>
</svg>
