<?xml version='1.0' encoding='UTF-8' standalone='no'?>
<svg width="12.7mm" viewBox="0 0 96 96" baseProfile="tiny" xmlns="http://www.w3.org/2000/svg" xmlns:xlink="http://www.w3.org/1999/xlink" version="1.2" height="12.7mm">
    <style id="current-color-scheme" type="text/css">.ColorScheme-Text {color:#fcfcfc;}</style>
    <title>Qt SVG Document</title>
    <desc>Auto-generated by Klassy window decoration</desc>
    <defs/>
    <g stroke-linecap="square" fill-rule="evenodd" stroke-linejoin="bevel" stroke-width="1" fill="none" stroke="black">
        <g class="ColorScheme-Text" font-weight="400" font-family="Noto Sans" font-size="26.6667" transform="matrix(5.33333,0,0,5.33333,0,0)" fill-opacity="1" fill="currentColor" font-style="normal" stroke="none">
            <path fill-rule="nonzero" vector-effect="none" d="M4.5,12.1875 L8.4375,12.1875 C8.74816,12.1875 9,12.4393 9,12.75 C9,13.0607 8.74816,13.3125 8.4375,13.3125 L4.5,13.3125 C4.18934,13.3125 3.9375,13.0607 3.9375,12.75 C3.9375,12.4393 4.18934,12.1875 4.5,12.1875 "/>
            <path fill-rule="nonzero" vector-effect="none" d="M4.5,8.0625 L8.4375,8.0625 C8.74816,8.0625 9,8.31434 9,8.625 C9,8.93566 8.74816,9.1875 8.4375,9.1875 L4.5,9.1875 C4.18934,9.1875 3.9375,8.93566 3.9375,8.625 C3.9375,8.31434 4.18934,8.0625 4.5,8.0625 "/>
            <path fill-rule="nonzero" vector-effect="none" d="M4.5,3.9375 L13.5,3.9375 C13.8107,3.9375 14.0625,4.18934 14.0625,4.5 C14.0625,4.81066 13.8107,5.0625 13.5,5.0625 L4.5,5.0625 C4.18934,5.0625 3.9375,4.81066 3.9375,4.5 C3.9375,4.18934 4.18934,3.9375 4.5,3.9375 "/>
            <path fill-rule="nonzero" vector-effect="none" d="M14.0625,6.5625 L14.0625,14.4375 C14.0625,14.7482 13.8107,15 13.5,15 C13.1893,15 12.9375,14.7482 12.9375,14.4375 L12.9375,6.5625 C12.9375,6.25184 13.1893,6 13.5,6 C13.8107,6 14.0625,6.25184 14.0625,6.5625 "/>
            <path fill-rule="nonzero" vector-effect="none" d="M11.0591,8.02128 L13.1216,6.14628 L13.5,5.8023 L13.8784,6.14628 L15.9409,8.02128 C16.1707,8.23026 16.1877,8.58601 15.9787,8.81588 C15.7697,9.04575 15.414,9.06269 15.1841,8.85372 L13.1216,6.97872 L13.5,6.5625 L13.8784,6.97872 L11.8159,8.85372 C11.586,9.06269 11.2303,9.04575 11.0213,8.81588 C10.8123,8.58601 10.8293,8.23026 11.0591,8.02128 "/>
        </g>
    </g>
</svg>
