<?xml version='1.0' encoding='UTF-8' standalone='no'?>
<svg baseProfile="tiny" height="12.7mm" version="1.2" viewBox="0 0 96 96" width="12.7mm" xmlns="http://www.w3.org/2000/svg" xmlns:xlink="http://www.w3.org/1999/xlink">
    <style id="current-color-scheme" type="text/css">.ColorScheme-Text {color:#fcfcfc;}</style>
    <title>Qt SVG Document</title>
    <desc>Auto-generated by Klassy window decoration</desc>
    <defs/>
    <g fill="none" fill-rule="evenodd" stroke="black" stroke-linecap="square" stroke-linejoin="bevel" stroke-width="1">
        <g class="ColorScheme-Text" fill="currentColor" fill-opacity="1" font-family="Noto Sans" font-size="26.6667" font-style="normal" font-weight="400" stroke="none" transform="matrix(5.33333,0,0,5.33333,0,0)">
            <path d="M4.5,12.1869 L8.4375,12.1869 C8.74847,12.1869 9.00056,12.439 9.00056,12.75 C9.00056,13.061 8.74847,13.3131 8.4375,13.3131 L4.5,13.3131 C4.18903,13.3131 3.93694,13.061 3.93694,12.75 C3.93694,12.439 4.18903,12.1869 4.5,12.1869 " fill-rule="nonzero" vector-effect="none"/>
            <path d="M4.5,8.06194 L8.4375,8.06194 C8.74847,8.06194 9.00056,8.31403 9.00056,8.625 C9.00056,8.93597 8.74847,9.18806 8.4375,9.18806 L4.5,9.18806 C4.18903,9.18806 3.93694,8.93597 3.93694,8.625 C3.93694,8.31403 4.18903,8.06194 4.5,8.06194 " fill-rule="nonzero" vector-effect="none"/>
            <path d="M4.5,3.93694 L13.5,3.93694 C13.811,3.93694 14.0631,4.18903 14.0631,4.5 C14.0631,4.81097 13.811,5.06306 13.5,5.06306 L4.5,5.06306 C4.18903,5.06306 3.93694,4.81097 3.93694,4.5 C3.93694,4.18903 4.18903,3.93694 4.5,3.93694 " fill-rule="nonzero" vector-effect="none"/>
            <path d="M14.0631,6.5625 L14.0631,14.4375 C14.0631,14.7485 13.811,15.0006 13.5,15.0006 C13.189,15.0006 12.9369,14.7485 12.9369,14.4375 L12.9369,6.5625 C12.9369,6.25153 13.189,5.99944 13.5,5.99944 C13.811,5.99944 14.0631,6.25153 14.0631,6.5625 " fill-rule="nonzero" vector-effect="none"/>
            <path d="M11.0587,8.02087 L13.1212,6.14587 L13.5,5.80154 L13.8788,6.14587 L15.9413,8.02087 C16.1714,8.23005 16.1883,8.58616 15.9791,8.81626 C15.77,9.04636 15.4138,9.06331 15.1837,8.85413 L13.1212,6.97913 L13.5,6.5625 L13.8788,6.97913 L11.8163,8.85413 C11.5862,9.06331 11.23,9.04636 11.0209,8.81626 C10.8117,8.58616 10.8286,8.23005 11.0587,8.02087 " fill-rule="nonzero" vector-effect="none"/>
        </g>
    </g>
</svg>
