<?xml version='1.0' encoding='UTF-8' standalone='no'?>
<svg baseProfile="tiny" height="12.7mm" version="1.2" viewBox="0 0 96 96" width="12.7mm" xmlns="http://www.w3.org/2000/svg" xmlns:xlink="http://www.w3.org/1999/xlink">
    <style id="current-color-scheme" type="text/css">.ColorScheme-Text {color:#fcfcfc;}</style>
    <title>Qt SVG Document</title>
    <desc>Auto-generated by Klassy window decoration</desc>
    <defs/>
    <g fill="none" fill-rule="evenodd" stroke="black" stroke-linecap="square" stroke-linejoin="bevel" stroke-width="1">
        <g class="ColorScheme-Text" fill="currentColor" fill-opacity="1" font-family="Noto Sans" font-size="26.6667" font-style="normal" font-weight="400" stroke="none" transform="matrix(5.33333,0,0,5.33333,0,0)">
            <path d="M4.5,13.8744 L13.5,13.8744 C13.811,13.8744 14.0631,14.1265 14.0631,14.4375 C14.0631,14.7485 13.811,15.0006 13.5,15.0006 L4.5,15.0006 C4.18903,15.0006 3.93694,14.7485 3.93694,14.4375 C3.93694,14.1265 4.18903,13.8744 4.5,13.8744 " fill-rule="nonzero" vector-effect="none"/>
            <path d="M9.5625,9.93694 L13.5,9.93694 C13.811,9.93694 14.0631,10.189 14.0631,10.5 C14.0631,10.811 13.811,11.0631 13.5,11.0631 L9.5625,11.0631 C9.25153,11.0631 8.99944,10.811 8.99944,10.5 C8.99944,10.189 9.25153,9.93694 9.5625,9.93694 " fill-rule="nonzero" vector-effect="none"/>
            <path d="M9.5625,5.99944 L13.5,5.99944 C13.811,5.99944 14.0631,6.25153 14.0631,6.5625 C14.0631,6.87347 13.811,7.12556 13.5,7.12556 L9.5625,7.12556 C9.25153,7.12556 8.99944,6.87347 8.99944,6.5625 C8.99944,6.25153 9.25153,5.99944 9.5625,5.99944 " fill-rule="nonzero" vector-effect="none"/>
            <path d="M5.06306,4.5 L5.06306,12.5625 C5.06306,12.8735 4.81097,13.1256 4.5,13.1256 C4.18903,13.1256 3.93694,12.8735 3.93694,12.5625 L3.93694,4.5 C3.93694,4.18903 4.18903,3.93694 4.5,3.93694 C4.81097,3.93694 5.06306,4.18903 5.06306,4.5 " fill-rule="nonzero" vector-effect="none"/>
            <path d="M2.83565,10.1019 L4.89815,12.1644 L4.5,12.5625 L4.10185,12.1644 L6.16435,10.1019 C6.38424,9.88197 6.74076,9.88197 6.96065,10.1019 C7.18053,10.3217 7.18053,10.6783 6.96065,10.8981 L4.89815,12.9606 L4.5,13.3588 L4.10185,12.9606 L2.03935,10.8981 C1.81947,10.6783 1.81947,10.3217 2.03935,10.1019 C2.25924,9.88197 2.61576,9.88197 2.83565,10.1019 " fill-rule="nonzero" vector-effect="none"/>
        </g>
    </g>
</svg>
