<?xml version='1.0' encoding='UTF-8' standalone='no'?>
<svg width="12.7mm" viewBox="0 0 96 96" baseProfile="tiny" xmlns="http://www.w3.org/2000/svg" xmlns:xlink="http://www.w3.org/1999/xlink" version="1.2" height="12.7mm">
    <style id="current-color-scheme" type="text/css">.ColorScheme-Text {color:#fcfcfc;}</style>
    <title>Qt SVG Document</title>
    <desc>Auto-generated by Klassy window decoration</desc>
    <defs/>
    <g stroke-linecap="square" fill-rule="evenodd" stroke-linejoin="bevel" stroke-width="1" fill="none" stroke="black">
        <g class="ColorScheme-Text" font-weight="400" font-family="Noto Sans" font-size="26.6667" transform="matrix(5.33333,0,0,5.33333,39.5,39.5)" fill-opacity="0.650004" fill="currentColor" font-style="normal" stroke="none">
            <rect width="3.1875" y="0" x="0" height="3.1875"/>
        </g>
        <g class="ColorScheme-Text" font-weight="400" font-family="Noto Sans" font-size="26.6667" transform="matrix(5.33333,0,0,5.33333,39.5,39.5)" fill-opacity="0.850004" fill="currentColor" font-style="normal" stroke="none">
            <path fill-rule="nonzero" vector-effect="none" d="M0,-0.46875 L3.1875,-0.46875 L3.65625,0 L3.65625,3.1875 L3.1875,3.65625 L0,3.65625 L-0.46875,3.1875 L-0.46875,0 L0,-0.46875 M0.46875,0 L0.46875,3.1875 L0,3.1875 L0,2.71875 L3.1875,2.71875 L3.1875,3.1875 L2.71875,3.1875 L2.71875,0 L3.1875,0 L3.1875,0.46875 L0,0.46875 L0,0 L0.46875,0"/>
        </g>
    </g>
</svg>
