<?xml version='1.0' encoding='UTF-8' standalone='no'?>
<svg width="8.46667mm" viewBox="0 0 48 48" baseProfile="tiny" xmlns="http://www.w3.org/2000/svg" xmlns:xlink="http://www.w3.org/1999/xlink" version="1.2" height="8.46667mm">
    <style id="current-color-scheme" type="text/css">.ColorScheme-Text {color:#fcfcfc;}</style>
    <title>Qt SVG Document</title>
    <desc>Auto-generated by Klassy window decoration</desc>
    <defs/>
    <g stroke-linecap="square" fill-rule="evenodd" stroke-linejoin="bevel" stroke-width="1" fill="none" stroke="black">
        <g class="ColorScheme-Text" font-weight="400" font-family="Noto Sans" font-size="20" transform="matrix(3,0,0,3,0,0)" fill-opacity="0.600015" fill="#da0016" font-style="normal" stroke="none">
            <path fill-rule="evenodd" vector-effect="none" d="M2,3.2 C2,2.53726 2.53726,2 3.2,2 L12.8,2 C13.4627,2 14,2.53726 14,3.2 L14,12.8 C14,13.4627 13.4627,14 12.8,14 L3.2,14 C2.53726,14 2,13.4627 2,12.8 L2,3.2"/>
        </g>
        <g class="ColorScheme-Text" font-weight="400" font-family="Noto Sans" font-size="20" transform="matrix(2.66667,0,0,2.66667,0,0)" fill-opacity="1" fill="#ffffff" font-style="normal" stroke="none">
            <path fill-rule="nonzero" vector-effect="none" d="M5.06625,3.93375 L14.0663,12.9337 C14.379,13.2465 14.379,13.7535 14.0663,14.0663 C13.7535,14.379 13.2465,14.379 12.9337,14.0663 L3.93375,5.06625 C3.62102,4.75352 3.62102,4.24648 3.93375,3.93375 C4.24648,3.62102 4.75352,3.62102 5.06625,3.93375 "/>
            <path fill-rule="nonzero" vector-effect="none" d="M14.0663,5.06625 L5.06625,14.0663 C4.75352,14.379 4.24648,14.379 3.93375,14.0663 C3.62102,13.7535 3.62102,13.2465 3.93375,12.9337 L12.9337,3.93375 C13.2465,3.62102 13.7535,3.62102 14.0663,3.93375 C14.379,4.24648 14.379,4.75352 14.0663,5.06625 "/>
        </g>
    </g>
</svg>
