<?xml version='1.0' encoding='UTF-8' standalone='no'?>
<svg width="8.46667mm" viewBox="0 0 48 48" baseProfile="tiny" xmlns="http://www.w3.org/2000/svg" xmlns:xlink="http://www.w3.org/1999/xlink" version="1.2" height="8.46667mm">
    <style id="current-color-scheme" type="text/css">.ColorScheme-Text {color:#fcfcfc;}</style>
    <title>Qt SVG Document</title>
    <desc>Auto-generated by Klassy window decoration</desc>
    <defs/>
    <g stroke-linecap="square" fill-rule="evenodd" stroke-linejoin="bevel" stroke-width="1" fill="none" stroke="black">
        <g class="ColorScheme-Text" font-weight="400" font-family="Noto Sans" font-size="20" transform="matrix(2.66667,0,0,2.66667,11,19)" fill-opacity="1" fill="currentColor" font-style="normal" stroke="none">
            <path fill-rule="nonzero" vector-effect="none" d="M0,-0.75 L7.125,-0.75 L7.875,0 L7.875,7.125 L7.125,7.875 L0,7.875 L-0.75,7.125 L-0.75,0 L0,-0.75 M0.75,0 L0.75,7.125 L0,7.125 L0,6.375 L7.125,6.375 L7.125,7.125 L6.375,7.125 L6.375,0 L7.125,0 L7.125,0.75 L0,0.75 L0,0 L0.75,0"/>
        </g>
        <g class="ColorScheme-Text" font-weight="400" font-family="Noto Sans" font-size="20" transform="matrix(2.66667,0,0,2.66667,11,19)" fill-opacity="1" fill="currentColor" font-style="normal" stroke="none">
            <path fill-rule="nonzero" vector-effect="none" d="M2.25,-0.75 L2.25,-3 L3,-3.75 L10.125,-3.75 L10.875,-3 L10.875,4.125 L10.125,4.875 L7.875,4.875 L7.875,3.375 L10.125,3.375 L10.125,4.125 L9.375,4.125 L9.375,-3 L10.125,-3 L10.125,-2.25 L3,-2.25 L3,-3 L3.75,-3 L3.75,-0.75 L2.25,-0.75"/>
        </g>
    </g>
</svg>
