<?xml version='1.0' encoding='UTF-8' standalone='no'?>
<svg baseProfile="tiny" height="8.46667mm" version="1.2" viewBox="0 0 48 48" width="8.46667mm" xmlns="http://www.w3.org/2000/svg" xmlns:xlink="http://www.w3.org/1999/xlink">
    <style id="current-color-scheme" type="text/css">.ColorScheme-Text {color:#fcfcfc;}</style>
    <title>Qt SVG Document</title>
    <desc>Auto-generated by Klassy window decoration</desc>
    <defs/>
    <g fill="none" fill-rule="evenodd" stroke="black" stroke-linecap="square" stroke-linejoin="bevel" stroke-width="1">
        <g class="ColorScheme-Text" fill="currentColor" fill-opacity="1" font-family="Noto Sans" font-size="20" font-style="normal" font-weight="400" stroke="none" transform="matrix(2.66667,0,0,2.66667,0,0)">
            <path d="M5.03086,3.96914 L14.0309,12.9691 C14.324,13.2623 14.324,13.7377 14.0309,14.0309 C13.7377,14.324 13.2623,14.324 12.9691,14.0309 L3.96914,5.03086 C3.67595,4.73767 3.67595,4.26233 3.96914,3.96914 C4.26233,3.67595 4.73767,3.67595 5.03086,3.96914 " fill-rule="nonzero" vector-effect="none"/>
            <path d="M14.0309,5.03086 L5.03086,14.0309 C4.73767,14.324 4.26233,14.324 3.96914,14.0309 C3.67595,13.7377 3.67595,13.2623 3.96914,12.9691 L12.9691,3.96914 C13.2623,3.67595 13.7377,3.67595 14.0309,3.96914 C14.324,4.26233 14.324,4.73767 14.0309,5.03086 " fill-rule="nonzero" vector-effect="none"/>
        </g>
    </g>
</svg>
