<?xml version='1.0' encoding='UTF-8' standalone='no'?>
<svg version="1.2" xmlns:xlink="http://www.w3.org/1999/xlink" viewBox="0 0 55 55" xmlns="http://www.w3.org/2000/svg" width="5.29167mm" height="5.29167mm" baseProfile="tiny">
    <style id="current-color-scheme" type="text/css">.ColorScheme-Text {color:#232629;}</style>
    <title>Qt SVG Document</title>
    <desc>Auto-generated by Klassy window decoration</desc>
    <defs/>
    <g stroke-linejoin="bevel" stroke-linecap="square" fill="none" stroke-width="1" stroke="black" fill-rule="evenodd">
        <g font-weight="400" class="ColorScheme-Text" font-size="36.6667" fill="currentColor" transform="matrix(3.05556,0,0,3.05556,0,0)" font-style="normal" stroke="none" font-family="Noto Sans" fill-opacity="1">
            <path vector-effect="none" fill-rule="nonzero" d="M3.92727,3.92662 L14.0727,3.92662 C14.4346,3.92662 14.7279,4.21996 14.7279,4.58182 C14.7279,4.94368 14.4346,5.23702 14.0727,5.23702 L3.92727,5.23702 C3.56542,5.23702 3.27207,4.94368 3.27207,4.58182 C3.27207,4.21996 3.56542,3.92662 3.92727,3.92662 "/>
            <path vector-effect="none" fill-rule="nonzero" d="M4.4633,7.5367 L9.4633,12.5367 L9,13 L8.5367,12.5367 L13.5367,7.5367 C13.7926,7.28083 14.2074,7.28083 14.4633,7.5367 C14.7192,7.79258 14.7192,8.20742 14.4633,8.4633 L9.4633,13.4633 L9,13.9266 L8.5367,13.4633 L3.5367,8.4633 C3.28083,8.20742 3.28083,7.79258 3.5367,7.5367 C3.79258,7.28083 4.20742,7.28083 4.4633,7.5367 "/>
        </g>
    </g>
</svg>
