<?xml version='1.0' encoding='UTF-8' standalone='no'?>
<svg width="5.29167mm" viewBox="0 0 55 55" baseProfile="tiny" xmlns="http://www.w3.org/2000/svg" xmlns:xlink="http://www.w3.org/1999/xlink" version="1.2" height="5.29167mm">
    <style id="current-color-scheme" type="text/css">.ColorScheme-Text {color:#232629;}</style>
    <title>Qt SVG Document</title>
    <desc>Auto-generated by Klassy window decoration</desc>
    <defs/>
    <g stroke-linecap="square" fill-rule="evenodd" stroke-linejoin="bevel" stroke-width="1" fill="none" stroke="black">
        <g class="ColorScheme-Text" font-weight="400" font-family="Noto Sans" font-size="36.6667" transform="matrix(3.05556,0,0,3.05556,0,0)" fill-opacity="1" fill="currentColor" font-style="normal" stroke="none">
            <path fill-rule="nonzero" vector-effect="none" d="M4.58182,11.7818 L8.50909,11.7818 C8.87059,11.7818 9.16364,12.0749 9.16364,12.4364 C9.16364,12.7979 8.87059,13.0909 8.50909,13.0909 L4.58182,13.0909 C4.22032,13.0909 3.92727,12.7979 3.92727,12.4364 C3.92727,12.0749 4.22032,11.7818 4.58182,11.7818 "/>
            <path fill-rule="nonzero" vector-effect="none" d="M4.58182,7.85455 L8.50909,7.85455 C8.87059,7.85455 9.16364,8.1476 9.16364,8.50909 C9.16364,8.87059 8.87059,9.16364 8.50909,9.16364 L4.58182,9.16364 C4.22032,9.16364 3.92727,8.87059 3.92727,8.50909 C3.92727,8.1476 4.22032,7.85455 4.58182,7.85455 "/>
            <path fill-rule="nonzero" vector-effect="none" d="M4.58182,3.92727 L13.4182,3.92727 C13.7797,3.92727 14.0727,4.22032 14.0727,4.58182 C14.0727,4.94331 13.7797,5.23636 13.4182,5.23636 L4.58182,5.23636 C4.22032,5.23636 3.92727,4.94331 3.92727,4.58182 C3.92727,4.22032 4.22032,3.92727 4.58182,3.92727 "/>
            <path fill-rule="nonzero" vector-effect="none" d="M14.0727,6.54545 L14.0727,14.4 C14.0727,14.7615 13.7797,15.0545 13.4182,15.0545 C13.0567,15.0545 12.7636,14.7615 12.7636,14.4 L12.7636,6.54545 C12.7636,6.18396 13.0567,5.89091 13.4182,5.89091 C13.7797,5.89091 14.0727,6.18396 14.0727,6.54545 "/>
            <path fill-rule="nonzero" vector-effect="none" d="M10.9917,8.04626 L12.9553,6.08262 L13.4182,5.61979 L13.881,6.08262 L15.8447,8.04626 C16.1003,8.30187 16.1003,8.71631 15.8447,8.97192 C15.589,9.22754 15.1746,9.22754 14.919,8.97192 L12.9553,7.00829 L13.4182,6.54545 L13.881,7.00829 L11.9174,8.97192 C11.6618,9.22754 11.2473,9.22754 10.9917,8.97192 C10.7361,8.71631 10.7361,8.30187 10.9917,8.04626 "/>
        </g>
    </g>
</svg>
