<?xml version='1.0' encoding='UTF-8' standalone='no'?>
<svg version="1.2" xmlns:xlink="http://www.w3.org/1999/xlink" viewBox="0 0 55 55" xmlns="http://www.w3.org/2000/svg" width="5.29167mm" height="5.29167mm" baseProfile="tiny">
    <style id="current-color-scheme" type="text/css">.ColorScheme-Text {color:#232629;}</style>
    <title>Qt SVG Document</title>
    <desc>Auto-generated by Klassy window decoration</desc>
    <defs/>
    <g stroke-linejoin="bevel" stroke-linecap="square" fill="none" stroke-width="1" stroke="black" fill-rule="evenodd">
        <g font-weight="400" class="ColorScheme-Text" font-size="36.6667" fill="currentColor" transform="matrix(3.05556,0,0,3.05556,22.5,22.5)" font-style="normal" stroke="none" font-family="Noto Sans" fill-opacity="0.650004">
            <rect y="0" x="0" width="3.6" height="3.6"/>
        </g>
        <g font-weight="400" class="ColorScheme-Text" font-size="36.6667" fill="currentColor" transform="matrix(3.05556,0,0,3.05556,22.5,22.5)" font-style="normal" stroke="none" font-family="Noto Sans" fill-opacity="0.850004">
            <path vector-effect="none" fill-rule="nonzero" d="M0,-0.4914 L3.6,-0.4914 L4.0914,0 L4.0914,3.6 L3.6,4.0914 L0,4.0914 L-0.4914,3.6 L-0.4914,0 L0,-0.4914 M0.4914,0 L0.4914,3.6 L0,3.6 L0,3.1086 L3.6,3.1086 L3.6,3.6 L3.1086,3.6 L3.1086,0 L3.6,0 L3.6,0.4914 L0,0.4914 L0,0 L0.4914,0"/>
        </g>
    </g>
</svg>
