<?xml version='1.0' encoding='UTF-8' standalone='no'?>
<svg baseProfile="tiny" height="5.29167mm" version="1.2" viewBox="0 0 55 55" width="5.29167mm" xmlns="http://www.w3.org/2000/svg" xmlns:xlink="http://www.w3.org/1999/xlink">
    <style id="current-color-scheme" type="text/css">.ColorScheme-Text {color:#232629;}</style>
    <title>Qt SVG Document</title>
    <desc>Auto-generated by Klassy window decoration</desc>
    <defs/>
    <g fill="none" fill-rule="evenodd" stroke="black" stroke-linecap="square" stroke-linejoin="bevel" stroke-width="1">
        <g class="ColorScheme-Text" fill="currentColor" fill-opacity="0.549996" font-family="Noto Sans" font-size="36.6667" font-style="normal" font-weight="400" stroke="none" transform="matrix(3.05556,0,0,3.05556,22.5,22.5)">
            <rect height="3.6" width="3.6" x="0" y="0"/>
        </g>
        <g class="ColorScheme-Text" fill="currentColor" fill-opacity="0.902495" font-family="Noto Sans" font-size="36.6667" font-style="normal" font-weight="400" stroke="none" transform="matrix(3.05556,0,0,3.05556,22.5,22.5)">
            <path d="M0,-0.4914 L3.6,-0.4914 L4.0914,0 L4.0914,3.6 L3.6,4.0914 L0,4.0914 L-0.4914,3.6 L-0.4914,0 L0,-0.4914 M0.4914,0 L0.4914,3.6 L0,3.6 L0,3.1086 L3.6,3.1086 L3.6,3.6 L3.1086,3.6 L3.1086,0 L3.6,0 L3.6,0.4914 L0,0.4914 L0,0 L0.4914,0" fill-rule="nonzero" vector-effect="none"/>
        </g>
    </g>
</svg>
