<?xml version='1.0' encoding='UTF-8' standalone='no'?>
<svg version="1.2" xmlns:xlink="http://www.w3.org/1999/xlink" viewBox="0 0 55 55" xmlns="http://www.w3.org/2000/svg" width="5.29167mm" height="5.29167mm" baseProfile="tiny">
    <style id="current-color-scheme" type="text/css">.ColorScheme-Text {color:#232629;}</style>
    <title>Qt SVG Document</title>
    <desc>Auto-generated by Klassy window decoration</desc>
    <defs/>
    <g stroke-linejoin="bevel" stroke-linecap="square" fill="none" stroke-width="1" stroke="black" fill-rule="evenodd">
        <g font-weight="400" class="ColorScheme-Text" font-size="36.6667" fill="currentColor" transform="matrix(3.05556,0,0,3.05556,0,0)" font-style="normal" stroke="none" font-family="Noto Sans" fill-opacity="1">
            <path vector-effect="none" fill-rule="nonzero" d="M4.9973,3.83906 L14.4882,13.33 C14.8081,13.6498 14.8081,14.1684 14.4882,14.4882 C14.1684,14.8081 13.6498,14.8081 13.33,14.4882 L3.83906,4.9973 C3.51922,4.67746 3.51922,4.1589 3.83906,3.83906 C4.1589,3.51922 4.67746,3.51922 4.9973,3.83906 "/>
            <path vector-effect="none" fill-rule="nonzero" d="M14.4882,4.9973 L4.9973,14.4882 C4.67746,14.8081 4.1589,14.8081 3.83906,14.4882 C3.51922,14.1684 3.51922,13.6498 3.83906,13.33 L13.33,3.83906 C13.6498,3.51922 14.1684,3.51922 14.4882,3.83906 C14.8081,4.1589 14.8081,4.67746 14.4882,4.9973 "/>
        </g>
    </g>
</svg>
