<?xml version='1.0' encoding='UTF-8' standalone='no'?>
<svg width="5.29167mm" viewBox="0 0 55 55" baseProfile="tiny" xmlns="http://www.w3.org/2000/svg" xmlns:xlink="http://www.w3.org/1999/xlink" version="1.2" height="5.29167mm">
    <style id="current-color-scheme" type="text/css">.ColorScheme-Text {color:#232629;}</style>
    <title>Qt SVG Document</title>
    <desc>Auto-generated by Klassy window decoration</desc>
    <defs/>
    <g stroke-linecap="square" fill-rule="evenodd" stroke-linejoin="bevel" stroke-width="1" fill="none" stroke="black">
        <g class="ColorScheme-Text" font-weight="400" font-family="Noto Sans" font-size="36.6667" transform="matrix(3.05556,0,0,3.05556,0,0)" fill-opacity="1" fill="currentColor" font-style="normal" stroke="none">
            <path fill-rule="nonzero" vector-effect="none" d="M4.58182,13.7455 L13.4182,13.7455 C13.7797,13.7455 14.0727,14.0385 14.0727,14.4 C14.0727,14.7615 13.7797,15.0545 13.4182,15.0545 L4.58182,15.0545 C4.22032,15.0545 3.92727,14.7615 3.92727,14.4 C3.92727,14.0385 4.22032,13.7455 4.58182,13.7455 "/>
            <path fill-rule="nonzero" vector-effect="none" d="M9.49091,9.81818 L13.4182,9.81818 C13.7797,9.81818 14.0727,10.1112 14.0727,10.4727 C14.0727,10.8342 13.7797,11.1273 13.4182,11.1273 L9.49091,11.1273 C9.12941,11.1273 8.83636,10.8342 8.83636,10.4727 C8.83636,10.1112 9.12941,9.81818 9.49091,9.81818 "/>
            <path fill-rule="nonzero" vector-effect="none" d="M9.49091,5.89091 L13.4182,5.89091 C13.7797,5.89091 14.0727,6.18396 14.0727,6.54545 C14.0727,6.90695 13.7797,7.2 13.4182,7.2 L9.49091,7.2 C9.12941,7.2 8.83636,6.90695 8.83636,6.54545 C8.83636,6.18396 9.12941,5.89091 9.49091,5.89091 "/>
            <path fill-rule="nonzero" vector-effect="none" d="M5.23636,4.58182 L5.23636,12.4364 C5.23636,12.7979 4.94331,13.0909 4.58182,13.0909 C4.22032,13.0909 3.92727,12.7979 3.92727,12.4364 L3.92727,4.58182 C3.92727,4.22032 4.22032,3.92727 4.58182,3.92727 C4.94331,3.92727 5.23636,4.22032 5.23636,4.58182 "/>
            <path fill-rule="nonzero" vector-effect="none" d="M3.08102,10.0099 L5.04465,11.9735 L4.58182,12.4364 L4.11898,11.9735 L6.08262,10.0099 C6.33824,9.75428 6.75267,9.75428 7.00829,10.0099 C7.2639,10.2655 7.2639,10.6799 7.00829,10.9356 L5.04465,12.8992 L4.58182,13.362 L4.11898,12.8992 L2.15535,10.9356 C1.89973,10.6799 1.89973,10.2655 2.15535,10.0099 C2.41096,9.75428 2.8254,9.75428 3.08102,10.0099 "/>
        </g>
    </g>
</svg>
