<?xml version='1.0' encoding='UTF-8' standalone='no'?>
<svg baseProfile="tiny" height="8.46667mm" version="1.2" viewBox="0 0 32 32" width="8.46667mm" xmlns="http://www.w3.org/2000/svg" xmlns:xlink="http://www.w3.org/1999/xlink">
    <style id="current-color-scheme" type="text/css">.ColorScheme-Text {color:#232629;}</style>
    <title>Qt SVG Document</title>
    <desc>Auto-generated by Klassy window decoration</desc>
    <defs/>
    <g fill="none" fill-rule="evenodd" stroke="black" stroke-linecap="square" stroke-linejoin="bevel" stroke-width="1">
        <g class="ColorScheme-Text" fill="#da0016" fill-opacity="0.719997" font-family="Noto Sans" font-size="13.3333" font-style="normal" font-weight="400" stroke="none" transform="matrix(2,0,0,2,0,0)">
            <path d="M2,3.2 C2,2.53726 2.53726,2 3.2,2 L12.8,2 C13.4627,2 14,2.53726 14,3.2 L14,12.8 C14,13.4627 13.4627,14 12.8,14 L3.2,14 C2.53726,14 2,13.4627 2,12.8 L2,3.2" fill-rule="evenodd" vector-effect="none"/>
        </g>
        <g class="ColorScheme-Text" fill="#ffffff" fill-opacity="1" font-family="Noto Sans" font-size="13.3333" font-style="normal" font-weight="400" stroke="none" transform="matrix(1.77778,0,0,1.77778,0,0)">
            <path d="M4.89815,4.10185 L13.8981,13.1019 C14.118,13.3217 14.118,13.6783 13.8981,13.8981 C13.6783,14.118 13.3217,14.118 13.1019,13.8981 L4.10185,4.89815 C3.88197,4.67826 3.88197,4.32174 4.10185,4.10185 C4.32174,3.88197 4.67826,3.88197 4.89815,4.10185 " fill-rule="nonzero" vector-effect="none"/>
            <path d="M13.8981,4.89815 L4.89815,13.8981 C4.67826,14.118 4.32174,14.118 4.10185,13.8981 C3.88197,13.6783 3.88197,13.3217 4.10185,13.1019 L13.1019,4.10185 C13.3217,3.88197 13.6783,3.88197 13.8981,4.10185 C14.118,4.32174 14.118,4.67826 13.8981,4.89815 " fill-rule="nonzero" vector-effect="none"/>
        </g>
    </g>
</svg>
