<?xml version='1.0' encoding='UTF-8' standalone='no'?>
<svg version="1.2" xmlns:xlink="http://www.w3.org/1999/xlink" viewBox="0 0 32 32" xmlns="http://www.w3.org/2000/svg" width="8.46667mm" height="8.46667mm" baseProfile="tiny">
    <style id="current-color-scheme" type="text/css">.ColorScheme-Text {color:#232629;}</style>
    <title>Qt SVG Document</title>
    <desc>Auto-generated by Klassy window decoration</desc>
    <defs/>
    <g stroke-linejoin="bevel" stroke-linecap="square" fill="none" stroke-width="1" stroke="black" fill-rule="evenodd">
        <g font-weight="400" class="ColorScheme-Text" font-size="13.3333" fill="currentColor" transform="matrix(1.77778,0,0,1.77778,0,0)" font-style="normal" stroke="none" font-family="Noto Sans" fill-opacity="0.900008">
            <path vector-effect="none" fill-rule="nonzero" d="M3.93694,4.50113 C3.93694,4.26728 4.26728,3.93694 4.50113,3.93694 L13.4989,3.93694 C13.7327,3.93694 14.0631,4.26728 14.0631,4.50113 L14.0631,13.4989 C14.0631,13.7327 13.7327,14.0631 13.4989,14.0631 L4.50113,14.0631 C4.26728,14.0631 3.93694,13.7327 3.93694,13.4989 L3.93694,4.50113 M5.06306,4.50113 L5.06306,13.4989 C5.06306,13.2663 4.73373,12.9369 4.50113,12.9369 L13.4989,12.9369 C13.2663,12.9369 12.9369,13.2663 12.9369,13.4989 L12.9369,4.50113 C12.9369,4.73373 13.2663,5.06306 13.4989,5.06306 L4.50113,5.06306 C4.73373,5.06306 5.06306,4.73373 5.06306,4.50113 "/>
        </g>
    </g>
</svg>
