<?xml version='1.0' encoding='UTF-8' standalone='no'?>
<svg width="8.46667mm" viewBox="0 0 32 32" baseProfile="tiny" xmlns="http://www.w3.org/2000/svg" xmlns:xlink="http://www.w3.org/1999/xlink" version="1.2" height="8.46667mm">
    <style id="current-color-scheme" type="text/css">.ColorScheme-Text {color:#232629;}</style>
    <title>Qt SVG Document</title>
    <desc>Auto-generated by Klassy window decoration</desc>
    <defs/>
    <g stroke-linecap="square" fill-rule="evenodd" stroke-linejoin="bevel" stroke-width="1" fill="none" stroke="black">
        <g class="ColorScheme-Text" font-weight="400" font-family="Noto Sans" font-size="13.3333" transform="matrix(1.77778,0,0,1.77778,8,12)" fill-opacity="0.900008" fill="currentColor" font-style="normal" stroke="none">
            <path fill-rule="nonzero" vector-effect="none" d="M0,-0.5625 L7.3125,-0.5625 L7.875,0 L7.875,7.3125 L7.3125,7.875 L0,7.875 L-0.5625,7.3125 L-0.5625,0 L0,-0.5625 M0.5625,0 L0.5625,7.3125 L0,7.3125 L0,6.75 L7.3125,6.75 L7.3125,7.3125 L6.75,7.3125 L6.75,0 L7.3125,0 L7.3125,0.5625 L0,0.5625 L0,0 L0.5625,0"/>
        </g>
        <g class="ColorScheme-Text" font-weight="400" font-family="Noto Sans" font-size="13.3333" transform="matrix(1.77778,0,0,1.77778,8,12)" fill-opacity="0.900008" fill="currentColor" font-style="normal" stroke="none">
            <path fill-rule="nonzero" vector-effect="none" d="M1.6875,-0.5625 L1.6875,-2.25 L2.25,-2.8125 L9.5625,-2.8125 L10.125,-2.25 L10.125,5.0625 L9.5625,5.625 L7.875,5.625 L7.875,4.5 L9.5625,4.5 L9.5625,5.0625 L9,5.0625 L9,-2.25 L9.5625,-2.25 L9.5625,-1.6875 L2.25,-1.6875 L2.25,-2.25 L2.8125,-2.25 L2.8125,-0.5625 L1.6875,-0.5625"/>
        </g>
    </g>
</svg>
