<?xml version='1.0' encoding='UTF-8' standalone='no'?>
<svg version="1.2" xmlns:xlink="http://www.w3.org/1999/xlink" viewBox="0 0 32 32" xmlns="http://www.w3.org/2000/svg" width="8.46667mm" height="8.46667mm" baseProfile="tiny">
    <style id="current-color-scheme" type="text/css">.ColorScheme-Text {color:#232629;}</style>
    <title>Qt SVG Document</title>
    <desc>Auto-generated by Klassy window decoration</desc>
    <defs/>
    <g stroke-linejoin="bevel" stroke-linecap="square" fill="none" stroke-width="1" stroke="black" fill-rule="evenodd">
        <g font-weight="400" class="ColorScheme-Text" font-size="13.3333" fill="currentColor" transform="matrix(1.77778,0,0,1.77778,0,0)" font-style="normal" stroke="none" font-family="Noto Sans" fill-opacity="1">
            <path vector-effect="none" fill-rule="nonzero" d="M3.9375,3.93694 L14.0625,3.93694 C14.3735,3.93694 14.6256,4.18903 14.6256,4.5 C14.6256,4.81097 14.3735,5.06306 14.0625,5.06306 L3.9375,5.06306 C3.62653,5.06306 3.37444,4.81097 3.37444,4.5 C3.37444,4.18903 3.62653,3.93694 3.9375,3.93694 "/>
            <path vector-effect="none" fill-rule="nonzero" d="M4.39815,7.60185 L9.39815,12.6019 L9,13 L8.60185,12.6019 L13.6019,7.60185 C13.8217,7.38197 14.1783,7.38197 14.3981,7.60185 C14.618,7.82174 14.618,8.17826 14.3981,8.39815 L9.39815,13.3981 L9,13.7963 L8.60185,13.3981 L3.60185,8.39815 C3.38197,8.17826 3.38197,7.82174 3.60185,7.60185 C3.82174,7.38197 4.17826,7.38197 4.39815,7.60185 "/>
        </g>
    </g>
</svg>
