<?xml version='1.0' encoding='UTF-8' standalone='no'?>
<svg baseProfile="tiny" height="8.46667mm" version="1.2" viewBox="0 0 32 32" width="8.46667mm" xmlns="http://www.w3.org/2000/svg" xmlns:xlink="http://www.w3.org/1999/xlink">
    <style id="current-color-scheme" type="text/css">.ColorScheme-Text {color:#232629;}</style>
    <title>Qt SVG Document</title>
    <desc>Auto-generated by Klassy window decoration</desc>
    <defs/>
    <g fill="none" fill-rule="evenodd" stroke="black" stroke-linecap="square" stroke-linejoin="bevel" stroke-width="1">
        <g class="ColorScheme-Text" fill="currentColor" fill-opacity="0.900008" font-family="Noto Sans" font-size="13.3333" font-style="normal" font-weight="400" stroke="none" transform="matrix(1.77778,0,0,1.77778,8,12)">
            <path d="M0,-0.563063 L7.3125,-0.563063 L7.87556,0 L7.87556,7.3125 L7.3125,7.87556 L0,7.87556 L-0.563063,7.3125 L-0.563063,0 L0,-0.563063 M0.563063,0 L0.563063,7.3125 L0,7.3125 L0,6.74944 L7.3125,6.74944 L7.3125,7.3125 L6.74944,7.3125 L6.74944,0 L7.3125,0 L7.3125,0.563063 L0,0.563063 L0,0 L0.563063,0" fill-rule="nonzero" vector-effect="none"/>
        </g>
        <g class="ColorScheme-Text" fill="currentColor" fill-opacity="0.900008" font-family="Noto Sans" font-size="13.3333" font-style="normal" font-weight="400" stroke="none" transform="matrix(1.77778,0,0,1.77778,8,12)">
            <path d="M1.68694,-0.563063 L1.68694,-2.25 L2.25,-2.81306 L9.5625,-2.81306 L10.1256,-2.25 L10.1256,5.0625 L9.5625,5.62556 L7.87556,5.62556 L7.87556,4.49944 L9.5625,4.49944 L9.5625,5.0625 L8.99944,5.0625 L8.99944,-2.25 L9.5625,-2.25 L9.5625,-1.68694 L2.25,-1.68694 L2.25,-2.25 L2.81306,-2.25 L2.81306,-0.563063 L1.68694,-0.563063" fill-rule="nonzero" vector-effect="none"/>
        </g>
    </g>
</svg>
