<?xml version='1.0' encoding='UTF-8' standalone='no'?>
<svg version="1.2" xmlns:xlink="http://www.w3.org/1999/xlink" viewBox="0 0 32 32" xmlns="http://www.w3.org/2000/svg" width="8.46667mm" height="8.46667mm" baseProfile="tiny">
    <style id="current-color-scheme" type="text/css">.ColorScheme-Text {color:#232629;}</style>
    <title>Qt SVG Document</title>
    <desc>Auto-generated by Klassy window decoration</desc>
    <defs/>
    <g stroke-linejoin="bevel" stroke-linecap="square" fill="none" stroke-width="1" stroke="black" fill-rule="evenodd">
        <g font-weight="400" class="ColorScheme-Text" font-size="13.3333" fill="currentColor" transform="matrix(1.77778,0,0,1.77778,0,0)" font-style="normal" stroke="none" font-family="Noto Sans" fill-opacity="1">
            <path vector-effect="none" fill-rule="nonzero" d="M4.89815,4.10185 L13.8981,13.1019 C14.118,13.3217 14.118,13.6783 13.8981,13.8981 C13.6783,14.118 13.3217,14.118 13.1019,13.8981 L4.10185,4.89815 C3.88197,4.67826 3.88197,4.32174 4.10185,4.10185 C4.32174,3.88197 4.67826,3.88197 4.89815,4.10185 "/>
            <path vector-effect="none" fill-rule="nonzero" d="M13.8981,4.89815 L4.89815,13.8981 C4.67826,14.118 4.32174,14.118 4.10185,13.8981 C3.88197,13.6783 3.88197,13.3217 4.10185,13.1019 L13.1019,4.10185 C13.3217,3.88197 13.6783,3.88197 13.8981,4.10185 C14.118,4.32174 14.118,4.67826 13.8981,4.89815 "/>
        </g>
    </g>
</svg>
