<?xml version='1.0' encoding='UTF-8' standalone='no'?>
<svg baseProfile="tiny" height="12.7mm" version="1.2" viewBox="0 0 144 144" width="12.7mm" xmlns="http://www.w3.org/2000/svg" xmlns:xlink="http://www.w3.org/1999/xlink">
    <style id="current-color-scheme" type="text/css">.ColorScheme-Text {color:#232629;}</style>
    <title>Qt SVG Document</title>
    <desc>Auto-generated by Klassy window decoration</desc>
    <defs/>
    <g fill="none" fill-rule="evenodd" stroke="black" stroke-linecap="square" stroke-linejoin="bevel" stroke-width="1">
        <g class="ColorScheme-Text" fill="currentColor" fill-opacity="1" font-family="Noto Sans" font-size="40" font-style="normal" font-weight="400" stroke="none" transform="matrix(8,0,0,8,0,0)">
            <path d="M4.5,11.8744 L8.5,11.8744 C8.84552,11.8744 9.12562,12.1545 9.12562,12.5 C9.12562,12.8455 8.84552,13.1256 8.5,13.1256 L4.5,13.1256 C4.15448,13.1256 3.87438,12.8455 3.87438,12.5 C3.87438,12.1545 4.15448,11.8744 4.5,11.8744 " fill-rule="nonzero" vector-effect="none"/>
            <path d="M4.5,7.87438 L8.5,7.87438 C8.84552,7.87438 9.12562,8.15448 9.12562,8.5 C9.12562,8.84552 8.84552,9.12562 8.5,9.12562 L4.5,9.12562 C4.15448,9.12562 3.87438,8.84552 3.87438,8.5 C3.87438,8.15448 4.15448,7.87438 4.5,7.87438 " fill-rule="nonzero" vector-effect="none"/>
            <path d="M4.5,3.87438 L13.5,3.87438 C13.8455,3.87438 14.1256,4.15448 14.1256,4.5 C14.1256,4.84552 13.8455,5.12562 13.5,5.12562 L4.5,5.12562 C4.15448,5.12562 3.87438,4.84552 3.87438,4.5 C3.87438,4.15448 4.15448,3.87438 4.5,3.87438 " fill-rule="nonzero" vector-effect="none"/>
            <path d="M14.1256,6.5 L14.1256,14.5 C14.1256,14.8455 13.8455,15.1256 13.5,15.1256 C13.1545,15.1256 12.8744,14.8455 12.8744,14.5 L12.8744,6.5 C12.8744,6.15448 13.1545,5.87438 13.5,5.87438 C13.8455,5.87438 14.1256,6.15448 14.1256,6.5 " fill-rule="nonzero" vector-effect="none"/>
            <path d="M11.0576,8.05762 L13.0576,6.05762 L13.5,5.61523 L13.9424,6.05762 L15.9424,8.05762 C16.1867,8.30194 16.1867,8.69806 15.9424,8.94238 C15.6981,9.18671 15.3019,9.18671 15.0576,8.94238 L13.0576,6.94238 L13.5,6.5 L13.9424,6.94238 L11.9424,8.94238 C11.6981,9.18671 11.3019,9.18671 11.0576,8.94238 C10.8133,8.69806 10.8133,8.30194 11.0576,8.05762 " fill-rule="nonzero" vector-effect="none"/>
        </g>
    </g>
</svg>
