<?xml version='1.0' encoding='UTF-8' standalone='no'?>
<svg width="12.7mm" viewBox="0 0 144 144" baseProfile="tiny" xmlns="http://www.w3.org/2000/svg" xmlns:xlink="http://www.w3.org/1999/xlink" version="1.2" height="12.7mm">
    <style id="current-color-scheme" type="text/css">.ColorScheme-Text {color:#232629;}</style>
    <title>Qt SVG Document</title>
    <desc>Auto-generated by Klassy window decoration</desc>
    <defs/>
    <g stroke-linecap="square" fill-rule="evenodd" stroke-linejoin="bevel" stroke-width="1" fill="none" stroke="black">
        <g class="ColorScheme-Text" font-weight="400" font-family="Noto Sans" font-size="40" transform="matrix(8,0,0,8,0,0)" fill-opacity="1" fill="currentColor" font-style="normal" stroke="none">
            <path fill-rule="nonzero" vector-effect="none" d="M4.5,13.875 L13.5,13.875 C13.8452,13.875 14.125,14.1548 14.125,14.5 C14.125,14.8452 13.8452,15.125 13.5,15.125 L4.5,15.125 C4.15482,15.125 3.875,14.8452 3.875,14.5 C3.875,14.1548 4.15482,13.875 4.5,13.875 "/>
            <path fill-rule="nonzero" vector-effect="none" d="M9.5,9.875 L13.5,9.875 C13.8452,9.875 14.125,10.1548 14.125,10.5 C14.125,10.8452 13.8452,11.125 13.5,11.125 L9.5,11.125 C9.15482,11.125 8.875,10.8452 8.875,10.5 C8.875,10.1548 9.15482,9.875 9.5,9.875 "/>
            <path fill-rule="nonzero" vector-effect="none" d="M9.5,5.875 L13.5,5.875 C13.8452,5.875 14.125,6.15482 14.125,6.5 C14.125,6.84518 13.8452,7.125 13.5,7.125 L9.5,7.125 C9.15482,7.125 8.875,6.84518 8.875,6.5 C8.875,6.15482 9.15482,5.875 9.5,5.875 "/>
            <path fill-rule="nonzero" vector-effect="none" d="M5.125,4.5 L5.125,12.5 C5.125,12.8452 4.84518,13.125 4.5,13.125 C4.15482,13.125 3.875,12.8452 3.875,12.5 L3.875,4.5 C3.875,4.15482 4.15482,3.875 4.5,3.875 C4.84518,3.875 5.125,4.15482 5.125,4.5 "/>
            <path fill-rule="nonzero" vector-effect="none" d="M2.94194,10.0581 L4.94194,12.0581 L4.5,12.5 L4.05806,12.0581 L6.05806,10.0581 C6.30214,9.81398 6.69786,9.81398 6.94194,10.0581 C7.18602,10.3021 7.18602,10.6979 6.94194,10.9419 L4.94194,12.9419 L4.5,13.3839 L4.05806,12.9419 L2.05806,10.9419 C1.81398,10.6979 1.81398,10.3021 2.05806,10.0581 C2.30214,9.81398 2.69786,9.81398 2.94194,10.0581 "/>
        </g>
    </g>
</svg>
