<?xml version='1.0' encoding='UTF-8' standalone='no'?>
<svg version="1.2" xmlns:xlink="http://www.w3.org/1999/xlink" viewBox="0 0 144 144" xmlns="http://www.w3.org/2000/svg" width="12.7mm" height="12.7mm" baseProfile="tiny">
    <style id="current-color-scheme" type="text/css">.ColorScheme-Text {color:#232629;}</style>
    <title>Qt SVG Document</title>
    <desc>Auto-generated by Klassy window decoration</desc>
    <defs/>
    <g stroke-linejoin="bevel" stroke-linecap="square" fill="none" stroke-width="1" stroke="black" fill-rule="evenodd">
        <g font-weight="400" class="ColorScheme-Text" font-size="40" fill="currentColor" transform="matrix(8,0,0,8,35,53)" font-style="normal" stroke="none" font-family="Noto Sans" fill-opacity="1">
            <path vector-effect="none" fill-rule="nonzero" d="M0,-0.75075 L7,-0.75075 L7.75075,0 L7.75075,7 L7,7.75075 L0,7.75075 L-0.75075,7 L-0.75075,0 L0,-0.75075 M0.75075,0 L0.75075,7 L0,7 L0,6.24925 L7,6.24925 L7,7 L6.24925,7 L6.24925,0 L7,0 L7,0.75075 L0,0.75075 L0,0 L0.75075,0"/>
        </g>
        <g font-weight="400" class="ColorScheme-Text" font-size="40" fill="currentColor" transform="matrix(8,0,0,8,35,53)" font-style="normal" stroke="none" font-family="Noto Sans" fill-opacity="1">
            <path vector-effect="none" fill-rule="nonzero" d="M1.49925,-0.75075 L1.49925,-2.25 L2.25,-3.00075 L9.25,-3.00075 L10.0008,-2.25 L10.0008,4.75 L9.25,5.50075 L7.75075,5.50075 L7.75075,3.99925 L9.25,3.99925 L9.25,4.75 L8.49925,4.75 L8.49925,-2.25 L9.25,-2.25 L9.25,-1.49925 L2.25,-1.49925 L2.25,-2.25 L3.00075,-2.25 L3.00075,-0.75075 L1.49925,-0.75075"/>
        </g>
    </g>
</svg>
