<?xml version='1.0' encoding='UTF-8' standalone='no'?>
<svg width="12.7mm" viewBox="0 0 144 144" baseProfile="tiny" xmlns="http://www.w3.org/2000/svg" xmlns:xlink="http://www.w3.org/1999/xlink" version="1.2" height="12.7mm">
    <style id="current-color-scheme" type="text/css">.ColorScheme-Text {color:#232629;}</style>
    <title>Qt SVG Document</title>
    <desc>Auto-generated by Klassy window decoration</desc>
    <defs/>
    <g stroke-linecap="square" fill-rule="evenodd" stroke-linejoin="bevel" stroke-width="1" fill="none" stroke="black">
        <g class="ColorScheme-Text" font-weight="400" font-family="Noto Sans" font-size="40" transform="matrix(8,0,0,8,35,53)" fill-opacity="1" fill="currentColor" font-style="normal" stroke="none">
            <path fill-rule="nonzero" vector-effect="none" d="M0,-0.75 L7,-0.75 L7.75,0 L7.75,7 L7,7.75 L0,7.75 L-0.75,7 L-0.75,0 L0,-0.75 M0.75,0 L0.75,7 L0,7 L0,6.25 L7,6.25 L7,7 L6.25,7 L6.25,0 L7,0 L7,0.75 L0,0.75 L0,0 L0.75,0"/>
        </g>
        <g class="ColorScheme-Text" font-weight="400" font-family="Noto Sans" font-size="40" transform="matrix(8,0,0,8,35,53)" fill-opacity="1" fill="currentColor" font-style="normal" stroke="none">
            <path fill-rule="nonzero" vector-effect="none" d="M1.5,-0.75 L1.5,-2.25 L2.25,-3 L9.25,-3 L10,-2.25 L10,4.75 L9.25,5.5 L7.75,5.5 L7.75,4 L9.25,4 L9.25,4.75 L8.5,4.75 L8.5,-2.25 L9.25,-2.25 L9.25,-1.5 L2.25,-1.5 L2.25,-2.25 L3,-2.25 L3,-0.75 L1.5,-0.75"/>
        </g>
    </g>
</svg>
