<?xml version='1.0' encoding='UTF-8' standalone='no'?>
<svg version="1.2" xmlns:xlink="http://www.w3.org/1999/xlink" viewBox="0 0 56 56" xmlns="http://www.w3.org/2000/svg" width="8.46667mm" height="8.46667mm" baseProfile="tiny">
    <style id="current-color-scheme" type="text/css">.ColorScheme-Text {color:#fcfcfc;}</style>
    <title>Qt SVG Document</title>
    <desc>Auto-generated by Klassy window decoration</desc>
    <defs/>
    <g stroke-linejoin="bevel" stroke-linecap="square" fill="none" stroke-width="1" stroke="black" fill-rule="evenodd">
        <g font-weight="400" class="ColorScheme-Text" font-size="23.3333" fill="#da0016" transform="matrix(3.5,0,0,3.5,0,0)" font-style="normal" stroke="none" font-family="Noto Sans" fill-opacity="0.719997">
            <path vector-effect="none" fill-rule="evenodd" d="M2,3.2 C2,2.53726 2.53726,2 3.2,2 L12.8,2 C13.4627,2 14,2.53726 14,3.2 L14,12.8 C14,13.4627 13.4627,14 12.8,14 L3.2,14 C2.53726,14 2,13.4627 2,12.8 L2,3.2"/>
        </g>
        <g font-weight="400" class="ColorScheme-Text" font-size="23.3333" fill="#ffffff" transform="matrix(3.11111,0,0,3.11111,0,0)" font-style="normal" stroke="none" font-family="Noto Sans" fill-opacity="1">
            <path vector-effect="none" fill-rule="nonzero" d="M4.90806,3.77051 L14.2295,13.0919 C14.5436,13.4061 14.5436,13.9154 14.2295,14.2295 C13.9154,14.5436 13.4061,14.5436 13.0919,14.2295 L3.77051,4.90806 C3.45638,4.59394 3.45638,4.08463 3.77051,3.77051 C4.08463,3.45638 4.59394,3.45638 4.90806,3.77051 "/>
            <path vector-effect="none" fill-rule="nonzero" d="M14.2295,4.90806 L4.90806,14.2295 C4.59394,14.5436 4.08463,14.5436 3.77051,14.2295 C3.45638,13.9154 3.45638,13.4061 3.77051,13.0919 L13.0919,3.77051 C13.4061,3.45638 13.9154,3.45638 14.2295,3.77051 C14.5436,4.08463 14.5436,4.59394 14.2295,4.90806 "/>
        </g>
    </g>
</svg>
