<?xml version='1.0' encoding='UTF-8' standalone='no'?>
<svg width="8.46667mm" viewBox="0 0 56 56" baseProfile="tiny" xmlns="http://www.w3.org/2000/svg" xmlns:xlink="http://www.w3.org/1999/xlink" version="1.2" height="8.46667mm">
    <style id="current-color-scheme" type="text/css">.ColorScheme-Text {color:#fcfcfc;}</style>
    <title>Qt SVG Document</title>
    <desc>Auto-generated by Klassy window decoration</desc>
    <defs/>
    <g stroke-linecap="square" fill-rule="evenodd" stroke-linejoin="bevel" stroke-width="1" fill="none" stroke="black">
        <g class="ColorScheme-Text" font-weight="400" font-family="Noto Sans" font-size="23.3333" transform="matrix(3.11111,0,0,3.11111,0,0)" fill-opacity="1" fill="currentColor" font-style="normal" stroke="none">
            <path fill-rule="nonzero" vector-effect="none" d="M4.5,13.8214 L13.5,13.8214 C13.855,13.8214 14.1429,14.1092 14.1429,14.4643 C14.1429,14.8193 13.855,15.1071 13.5,15.1071 L4.5,15.1071 C4.14496,15.1071 3.85714,14.8193 3.85714,14.4643 C3.85714,14.1092 4.14496,13.8214 4.5,13.8214 "/>
            <path fill-rule="nonzero" vector-effect="none" d="M9.64286,9.64286 L13.5,9.64286 C13.855,9.64286 14.1429,9.93067 14.1429,10.2857 C14.1429,10.6408 13.855,10.9286 13.5,10.9286 L9.64286,10.9286 C9.28782,10.9286 9,10.6408 9,10.2857 C9,9.93067 9.28782,9.64286 9.64286,9.64286 "/>
            <path fill-rule="nonzero" vector-effect="none" d="M9.64286,5.46429 L13.5,5.46429 C13.855,5.46429 14.1429,5.7521 14.1429,6.10714 C14.1429,6.46218 13.855,6.75 13.5,6.75 L9.64286,6.75 C9.28782,6.75 9,6.46218 9,6.10714 C9,5.7521 9.28782,5.46429 9.64286,5.46429 "/>
            <path fill-rule="nonzero" vector-effect="none" d="M5.14286,4.5 L5.14286,12.5357 C5.14286,12.8908 4.85504,13.1786 4.5,13.1786 C4.14496,13.1786 3.85714,12.8908 3.85714,12.5357 L3.85714,4.5 C3.85714,4.14496 4.14496,3.85714 4.5,3.85714 C4.85504,3.85714 5.14286,4.14496 5.14286,4.5 "/>
            <path fill-rule="nonzero" vector-effect="none" d="M3.026,10.1526 L4.95457,12.0811 L4.5,12.5357 L4.04543,12.0811 L5.974,10.1526 C6.22505,9.90152 6.63209,9.90152 6.88314,10.1526 C7.13419,10.4036 7.13419,10.8107 6.88314,11.0617 L4.95457,12.9903 L4.5,13.4449 L4.04543,12.9903 L2.11686,11.0617 C1.86581,10.8107 1.86581,10.4036 2.11686,10.1526 C2.36791,9.90152 2.77495,9.90152 3.026,10.1526 "/>
        </g>
    </g>
</svg>
