<?xml version='1.0' encoding='UTF-8' standalone='no'?>
<svg baseProfile="tiny" height="8.46667mm" version="1.2" viewBox="0 0 56 56" width="8.46667mm" xmlns="http://www.w3.org/2000/svg" xmlns:xlink="http://www.w3.org/1999/xlink">
    <style id="current-color-scheme" type="text/css">.ColorScheme-Text {color:#fcfcfc;}</style>
    <title>Qt SVG Document</title>
    <desc>Auto-generated by Klassy window decoration</desc>
    <defs/>
    <g fill="none" fill-rule="evenodd" stroke="black" stroke-linecap="square" stroke-linejoin="bevel" stroke-width="1">
        <g class="ColorScheme-Text" fill="currentColor" fill-opacity="1" font-family="Noto Sans" font-size="23.3333" font-style="normal" font-weight="400" stroke="none" transform="matrix(3.11111,0,0,3.11111,0,0)">
            <path d="M4.5,13.8208 L13.5,13.8208 C13.8554,13.8208 14.1435,14.1089 14.1435,14.4643 C14.1435,14.8197 13.8554,15.1078 13.5,15.1078 L4.5,15.1078 C4.1446,15.1078 3.8565,14.8197 3.8565,14.4643 C3.8565,14.1089 4.1446,13.8208 4.5,13.8208 " fill-rule="nonzero" vector-effect="none"/>
            <path d="M9.64286,9.64221 L13.5,9.64221 C13.8554,9.64221 14.1435,9.93032 14.1435,10.2857 C14.1435,10.6411 13.8554,10.9292 13.5,10.9292 L9.64286,10.9292 C9.28746,10.9292 8.99936,10.6411 8.99936,10.2857 C8.99936,9.93032 9.28746,9.64221 9.64286,9.64221 " fill-rule="nonzero" vector-effect="none"/>
            <path d="M9.64286,5.46364 L13.5,5.46364 C13.8554,5.46364 14.1435,5.75175 14.1435,6.10714 C14.1435,6.46254 13.8554,6.75064 13.5,6.75064 L9.64286,6.75064 C9.28746,6.75064 8.99936,6.46254 8.99936,6.10714 C8.99936,5.75175 9.28746,5.46364 9.64286,5.46364 " fill-rule="nonzero" vector-effect="none"/>
            <path d="M5.1435,4.5 L5.1435,12.5357 C5.1435,12.8911 4.8554,13.1792 4.5,13.1792 C4.1446,13.1792 3.8565,12.8911 3.8565,12.5357 L3.8565,4.5 C3.8565,4.1446 4.1446,3.8565 4.5,3.8565 C4.8554,3.8565 5.1435,4.1446 5.1435,4.5 " fill-rule="nonzero" vector-effect="none"/>
            <path d="M3.02645,10.1521 L4.95502,12.0807 L4.5,12.5357 L4.04498,12.0807 L5.97355,10.1521 C6.22485,9.90082 6.63229,9.90082 6.88359,10.1521 C7.1349,10.4034 7.1349,10.8109 6.88359,11.0622 L4.95502,12.9907 L4.5,13.4458 L4.04498,12.9907 L2.11641,11.0622 C1.8651,10.8109 1.8651,10.4034 2.11641,10.1521 C2.36771,9.90082 2.77515,9.90082 3.02645,10.1521 " fill-rule="nonzero" vector-effect="none"/>
        </g>
    </g>
</svg>
