<?xml version='1.0' encoding='UTF-8' standalone='no'?>
<svg width="8.46667mm" viewBox="0 0 56 56" baseProfile="tiny" xmlns="http://www.w3.org/2000/svg" xmlns:xlink="http://www.w3.org/1999/xlink" version="1.2" height="8.46667mm">
    <style id="current-color-scheme" type="text/css">.ColorScheme-Text {color:#fcfcfc;}</style>
    <title>Qt SVG Document</title>
    <desc>Auto-generated by Klassy window decoration</desc>
    <defs/>
    <g stroke-linecap="square" fill-rule="evenodd" stroke-linejoin="bevel" stroke-width="1" fill="none" stroke="black">
        <g class="ColorScheme-Text" font-weight="400" font-family="Noto Sans" font-size="23.3333" transform="matrix(3.11111,0,0,3.11111,12.5,22.5)" fill-opacity="1" fill="currentColor" font-style="normal" stroke="none">
            <path fill-rule="nonzero" vector-effect="none" d="M0,-0.803571 L7.07143,-0.803571 L7.875,0 L7.875,7.07143 L7.07143,7.875 L0,7.875 L-0.803571,7.07143 L-0.803571,0 L0,-0.803571 M0.803571,0 L0.803571,7.07143 L0,7.07143 L0,6.26786 L7.07143,6.26786 L7.07143,7.07143 L6.26786,7.07143 L6.26786,0 L7.07143,0 L7.07143,0.803571 L0,0.803571 L0,0 L0.803571,0"/>
        </g>
        <g class="ColorScheme-Text" font-weight="400" font-family="Noto Sans" font-size="23.3333" transform="matrix(3.11111,0,0,3.11111,12.5,22.5)" fill-opacity="1" fill="currentColor" font-style="normal" stroke="none">
            <path fill-rule="nonzero" vector-effect="none" d="M2.41071,-0.803571 L2.41071,-3.21429 L3.21429,-4.01786 L10.2857,-4.01786 L11.0893,-3.21429 L11.0893,3.85714 L10.2857,4.66071 L7.875,4.66071 L7.875,3.05357 L10.2857,3.05357 L10.2857,3.85714 L9.48214,3.85714 L9.48214,-3.21429 L10.2857,-3.21429 L10.2857,-2.41071 L3.21429,-2.41071 L3.21429,-3.21429 L4.01786,-3.21429 L4.01786,-0.803571 L2.41071,-0.803571"/>
        </g>
    </g>
</svg>
