<?xml version='1.0' encoding='UTF-8' standalone='no'?>
<svg baseProfile="tiny" height="8.46667mm" version="1.2" viewBox="0 0 56 56" width="8.46667mm" xmlns="http://www.w3.org/2000/svg" xmlns:xlink="http://www.w3.org/1999/xlink">
    <style id="current-color-scheme" type="text/css">.ColorScheme-Text {color:#fcfcfc;}</style>
    <title>Qt SVG Document</title>
    <desc>Auto-generated by Klassy window decoration</desc>
    <defs/>
    <g fill="none" fill-rule="evenodd" stroke="black" stroke-linecap="square" stroke-linejoin="bevel" stroke-width="1">
        <g class="ColorScheme-Text" fill="currentColor" fill-opacity="0.949996" font-family="Noto Sans" font-size="23.3333" font-style="normal" font-weight="400" stroke="none" transform="matrix(3.11111,0,0,3.11111,0,0)">
            <path d="M3.53491,4.34045 C3.53491,4.00662 4.00662,3.53491 4.34045,3.53491 L13.6595,3.53491 C13.9934,3.53491 14.4651,4.00662 14.4651,4.34045 L14.4651,13.6595 C14.4651,13.9934 13.9934,14.4651 13.6595,14.4651 L4.34045,14.4651 C4.00662,14.4651 3.53491,13.9934 3.53491,13.6595 L3.53491,4.34045 M5.14366,4.34045 L5.14366,13.6595 C5.14366,13.327 4.67299,12.8563 4.34045,12.8563 L13.6595,12.8563 C13.327,12.8563 12.8563,13.327 12.8563,13.6595 L12.8563,4.34045 C12.8563,4.67299 13.327,5.14366 13.6595,5.14366 L4.34045,5.14366 C4.67299,5.14366 5.14366,4.67299 5.14366,4.34045 " fill-rule="nonzero" vector-effect="none"/>
        </g>
    </g>
</svg>
