<?xml version='1.0' encoding='UTF-8' standalone='no'?>
<svg version="1.2" xmlns:xlink="http://www.w3.org/1999/xlink" viewBox="0 0 56 56" xmlns="http://www.w3.org/2000/svg" width="8.46667mm" height="8.46667mm" baseProfile="tiny">
    <style id="current-color-scheme" type="text/css">.ColorScheme-Text {color:#fcfcfc;}</style>
    <title>Qt SVG Document</title>
    <desc>Auto-generated by Klassy window decoration</desc>
    <defs/>
    <g stroke-linejoin="bevel" stroke-linecap="square" fill="none" stroke-width="1" stroke="black" fill-rule="evenodd">
        <g font-weight="400" class="ColorScheme-Text" font-size="23.3333" fill="currentColor" transform="matrix(3.11111,0,0,3.11111,23.5,23.5)" font-style="normal" stroke="none" font-family="Noto Sans" fill-opacity="0.650004">
            <rect y="0" x="0" width="2.89286" height="2.89286"/>
        </g>
        <g font-weight="400" class="ColorScheme-Text" font-size="23.3333" fill="currentColor" transform="matrix(3.11111,0,0,3.11111,23.5,23.5)" font-style="normal" stroke="none" font-family="Noto Sans" fill-opacity="0.850004">
            <path vector-effect="none" fill-rule="nonzero" d="M0,-0.482625 L2.89286,-0.482625 L3.37548,0 L3.37548,2.89286 L2.89286,3.37548 L0,3.37548 L-0.482625,2.89286 L-0.482625,0 L0,-0.482625 M0.482625,0 L0.482625,2.89286 L0,2.89286 L0,2.41023 L2.89286,2.41023 L2.89286,2.89286 L2.41023,2.89286 L2.41023,0 L2.89286,0 L2.89286,0.482625 L0,0.482625 L0,0 L0.482625,0"/>
        </g>
    </g>
</svg>
