<?xml version='1.0' encoding='UTF-8' standalone='no'?>
<svg baseProfile="tiny" height="8.46667mm" version="1.2" viewBox="0 0 56 56" width="8.46667mm" xmlns="http://www.w3.org/2000/svg" xmlns:xlink="http://www.w3.org/1999/xlink">
    <style id="current-color-scheme" type="text/css">.ColorScheme-Text {color:#fcfcfc;}</style>
    <title>Qt SVG Document</title>
    <desc>Auto-generated by Klassy window decoration</desc>
    <defs/>
    <g fill="none" fill-rule="evenodd" stroke="black" stroke-linecap="square" stroke-linejoin="bevel" stroke-width="1">
        <g class="ColorScheme-Text" fill="currentColor" fill-opacity="0.949996" font-family="Noto Sans" font-size="23.3333" font-style="normal" font-weight="400" stroke="none" transform="matrix(3.11111,0,0,3.11111,12.5,22.5)">
            <path d="M0,-0.804375 L7.07143,-0.804375 L7.8758,0 L7.8758,7.07143 L7.07143,7.8758 L0,7.8758 L-0.804375,7.07143 L-0.804375,0 L0,-0.804375 M0.804375,0 L0.804375,7.07143 L0,7.07143 L0,6.26705 L7.07143,6.26705 L7.07143,7.07143 L6.26705,7.07143 L6.26705,0 L7.07143,0 L7.07143,0.804375 L0,0.804375 L0,0 L0.804375,0" fill-rule="nonzero" vector-effect="none"/>
        </g>
        <g class="ColorScheme-Text" fill="currentColor" fill-opacity="0.949996" font-family="Noto Sans" font-size="23.3333" font-style="normal" font-weight="400" stroke="none" transform="matrix(3.11111,0,0,3.11111,12.5,22.5)">
            <path d="M2.40991,-0.804375 L2.40991,-3.21429 L3.21429,-4.01866 L10.2857,-4.01866 L11.0901,-3.21429 L11.0901,3.85714 L10.2857,4.66152 L7.8758,4.66152 L7.8758,3.05277 L10.2857,3.05277 L10.2857,3.85714 L9.48134,3.85714 L9.48134,-3.21429 L10.2857,-3.21429 L10.2857,-2.40991 L3.21429,-2.40991 L3.21429,-3.21429 L4.01866,-3.21429 L4.01866,-0.804375 L2.40991,-0.804375" fill-rule="nonzero" vector-effect="none"/>
        </g>
    </g>
</svg>
