<?xml version='1.0' encoding='UTF-8' standalone='no'?>
<svg version="1.2" xmlns:xlink="http://www.w3.org/1999/xlink" viewBox="0 0 56 56" xmlns="http://www.w3.org/2000/svg" width="8.46667mm" height="8.46667mm" baseProfile="tiny">
    <style id="current-color-scheme" type="text/css">.ColorScheme-Text {color:#fcfcfc;}</style>
    <title>Qt SVG Document</title>
    <desc>Auto-generated by Klassy window decoration</desc>
    <defs/>
    <g stroke-linejoin="bevel" stroke-linecap="square" fill="none" stroke-width="1" stroke="black" fill-rule="evenodd">
        <g font-weight="400" class="ColorScheme-Text" font-size="23.3333" fill="currentColor" transform="matrix(3.11111,0,0,3.11111,0,0)" font-style="normal" stroke="none" font-family="Noto Sans" fill-opacity="1">
            <path vector-effect="none" fill-rule="nonzero" d="M3.85714,3.8565 L14.1429,3.8565 C14.4983,3.8565 14.7864,4.1446 14.7864,4.5 C14.7864,4.8554 14.4983,5.1435 14.1429,5.1435 L3.85714,5.1435 C3.50175,5.1435 3.21364,4.8554 3.21364,4.5 C3.21364,4.1446 3.50175,3.8565 3.85714,3.8565 "/>
            <path vector-effect="none" fill-rule="nonzero" d="M3.54498,12.545 L8.54498,7.54498 L9,7.08995 L9.45502,7.54498 L14.455,12.545 C14.7063,12.7963 14.7063,13.2037 14.455,13.455 C14.2037,13.7063 13.7963,13.7063 13.545,13.455 L8.54498,8.45502 L9,8 L9.45502,8.45502 L4.45502,13.455 C4.20372,13.7063 3.79628,13.7063 3.54498,13.455 C3.29367,13.2037 3.29367,12.7963 3.54498,12.545 "/>
        </g>
    </g>
</svg>
