<?xml version='1.0' encoding='UTF-8' standalone='no'?>
<svg baseProfile="tiny" height="5.89643mm" version="1.2" viewBox="0 0 39 39" width="5.89643mm" xmlns="http://www.w3.org/2000/svg" xmlns:xlink="http://www.w3.org/1999/xlink">
    <style id="current-color-scheme" type="text/css">.ColorScheme-Text {color:#232629;}</style>
    <title>Qt SVG Document</title>
    <desc>Auto-generated by Klassy window decoration</desc>
    <defs/>
    <g fill="none" fill-rule="evenodd" stroke="black" stroke-linecap="square" stroke-linejoin="bevel" stroke-width="1">
        <g class="ColorScheme-Text" fill="currentColor" fill-opacity="1" font-family="Noto Sans" font-size="23.3333" font-style="normal" font-weight="400" stroke="none" transform="matrix(2.16667,0,0,2.16667,0,0)">
            <path d="M4.38462,11.9993 L8.53846,11.9993 C8.92119,11.9993 9.23146,12.3096 9.23146,12.6923 C9.23146,13.075 8.92119,13.3853 8.53846,13.3853 L4.38462,13.3853 C4.00188,13.3853 3.69162,13.075 3.69162,12.6923 C3.69162,12.3096 4.00188,11.9993 4.38462,11.9993 " fill-rule="nonzero" vector-effect="none"/>
            <path d="M4.38462,7.84546 L8.53846,7.84546 C8.92119,7.84546 9.23146,8.15573 9.23146,8.53846 C9.23146,8.92119 8.92119,9.23146 8.53846,9.23146 L4.38462,9.23146 C4.00188,9.23146 3.69162,8.92119 3.69162,8.53846 C3.69162,8.15573 4.00188,7.84546 4.38462,7.84546 " fill-rule="nonzero" vector-effect="none"/>
            <path d="M4.38462,3.69162 L13.6154,3.69162 C13.9981,3.69162 14.3084,4.00188 14.3084,4.38462 C14.3084,4.76735 13.9981,5.07762 13.6154,5.07762 L4.38462,5.07762 C4.00188,5.07762 3.69162,4.76735 3.69162,4.38462 C3.69162,4.00188 4.00188,3.69162 4.38462,3.69162 " fill-rule="nonzero" vector-effect="none"/>
            <path d="M14.3084,6.69231 L14.3084,14.5385 C14.3084,14.9212 13.9981,15.2315 13.6154,15.2315 C13.2327,15.2315 12.9224,14.9212 12.9224,14.5385 L12.9224,6.69231 C12.9224,6.30957 13.2327,5.99931 13.6154,5.99931 C13.9981,5.99931 14.3084,6.30957 14.3084,6.69231 " fill-rule="nonzero" vector-effect="none"/>
            <path d="M11.2792,8.04844 L13.1254,6.20228 L13.6154,5.71226 L14.1054,6.20228 L15.9516,8.04844 C16.2222,8.31907 16.2222,8.75785 15.9516,9.02849 C15.6809,9.29912 15.2421,9.29912 14.9715,9.02849 L13.1254,7.18233 L13.6154,6.69231 L14.1054,7.18233 L12.2593,9.02849 C11.9886,9.29912 11.5498,9.29912 11.2792,9.02849 C11.0086,8.75785 11.0086,8.31907 11.2792,8.04844 " fill-rule="nonzero" vector-effect="none"/>
        </g>
    </g>
</svg>
