<?xml version='1.0' encoding='UTF-8' standalone='no'?>
<svg version="1.2" xmlns:xlink="http://www.w3.org/1999/xlink" viewBox="0 0 39 39" xmlns="http://www.w3.org/2000/svg" width="5.89643mm" height="5.89643mm" baseProfile="tiny">
    <style id="current-color-scheme" type="text/css">.ColorScheme-Text {color:#232629;}</style>
    <title>Qt SVG Document</title>
    <desc>Auto-generated by Klassy window decoration</desc>
    <defs/>
    <g stroke-linejoin="bevel" stroke-linecap="square" fill="none" stroke-width="1" stroke="black" fill-rule="evenodd">
        <g font-weight="400" class="ColorScheme-Text" font-size="23.3333" fill="currentColor" transform="matrix(2.16667,0,0,2.16667,16,16)" font-style="normal" stroke="none" font-family="Noto Sans" fill-opacity="0.650004">
            <rect y="0" x="0" width="3.69231" height="3.69231"/>
        </g>
        <g font-weight="400" class="ColorScheme-Text" font-size="23.3333" fill="currentColor" transform="matrix(2.16667,0,0,2.16667,16,16)" font-style="normal" stroke="none" font-family="Noto Sans" fill-opacity="0.850004">
            <path vector-effect="none" fill-rule="nonzero" d="M0,-0.462 L3.69231,-0.462 L4.15431,0 L4.15431,3.69231 L3.69231,4.15431 L0,4.15431 L-0.462,3.69231 L-0.462,0 L0,-0.462 M0.462,0 L0.462,3.69231 L0,3.69231 L0,3.23031 L3.69231,3.23031 L3.69231,3.69231 L3.23031,3.69231 L3.23031,0 L3.69231,0 L3.69231,0.462 L0,0.462 L0,0 L0.462,0"/>
        </g>
    </g>
</svg>
