<?xml version='1.0' encoding='UTF-8' standalone='no'?>
<svg width="5.89643mm" viewBox="0 0 39 39" baseProfile="tiny" xmlns="http://www.w3.org/2000/svg" xmlns:xlink="http://www.w3.org/1999/xlink" version="1.2" height="5.89643mm">
    <style id="current-color-scheme" type="text/css">.ColorScheme-Text {color:#232629;}</style>
    <title>Qt SVG Document</title>
    <desc>Auto-generated by Klassy window decoration</desc>
    <defs/>
    <g stroke-linecap="square" fill-rule="evenodd" stroke-linejoin="bevel" stroke-width="1" fill="none" stroke="black">
        <g class="ColorScheme-Text" font-weight="400" font-family="Noto Sans" font-size="23.3333" transform="matrix(2.16667,0,0,2.16667,0,0)" fill-opacity="1" fill="currentColor" font-style="normal" stroke="none">
            <path fill-rule="nonzero" vector-effect="none" d="M3.69231,4.38583 C3.69231,4.09839 4.09839,3.69231 4.38583,3.69231 L14.0757,3.69231 C14.3631,3.69231 14.7692,4.09839 14.7692,4.38583 L14.7692,14.0757 C14.7692,14.3631 14.3631,14.7692 14.0757,14.7692 L4.38583,14.7692 C4.09839,14.7692 3.69231,14.3631 3.69231,14.0757 L3.69231,4.38583 M5.07692,4.38583 L5.07692,14.0757 C5.07692,13.7896 4.67192,13.3846 4.38583,13.3846 L14.0757,13.3846 C13.7896,13.3846 13.3846,13.7896 13.3846,14.0757 L13.3846,4.38583 C13.3846,4.67192 13.7896,5.07692 14.0757,5.07692 L4.38583,5.07692 C4.67192,5.07692 5.07692,4.67192 5.07692,4.38583 "/>
        </g>
    </g>
</svg>
