<?xml version='1.0' encoding='UTF-8' standalone='no'?>
<svg version="1.2" xmlns:xlink="http://www.w3.org/1999/xlink" viewBox="0 0 39 39" xmlns="http://www.w3.org/2000/svg" width="5.89643mm" height="5.89643mm" baseProfile="tiny">
    <style id="current-color-scheme" type="text/css">.ColorScheme-Text {color:#232629;}</style>
    <title>Qt SVG Document</title>
    <desc>Auto-generated by Klassy window decoration</desc>
    <defs/>
    <g stroke-linejoin="bevel" stroke-linecap="square" fill="none" stroke-width="1" stroke="black" fill-rule="evenodd">
        <g font-weight="400" class="ColorScheme-Text" font-size="23.3333" fill="currentColor" transform="matrix(2.16667,0,0,2.16667,0,0)" font-style="normal" stroke="none" font-family="Noto Sans" fill-opacity="1">
            <path vector-effect="none" fill-rule="nonzero" d="M4.15385,3.69162 L13.8462,3.69162 C14.2289,3.69162 14.5392,4.00188 14.5392,4.38462 C14.5392,4.76735 14.2289,5.07762 13.8462,5.07762 L4.15385,5.07762 C3.77111,5.07762 3.46085,4.76735 3.46085,4.38462 C3.46085,4.00188 3.77111,3.69162 4.15385,3.69162 "/>
            <path vector-effect="none" fill-rule="nonzero" d="M4.49002,7.50998 L9.49002,12.51 L9,13 L8.50998,12.51 L13.51,7.50998 C13.7806,7.23934 14.2194,7.23934 14.49,7.50998 C14.7607,7.78061 14.7607,8.21939 14.49,8.49002 L9.49002,13.49 L9,13.98 L8.50998,13.49 L3.50998,8.49002 C3.23934,8.21939 3.23934,7.78061 3.50998,7.50998 C3.78061,7.23934 4.21939,7.23934 4.49002,7.50998 "/>
        </g>
    </g>
</svg>
