<?xml version='1.0' encoding='UTF-8' standalone='no'?>
<svg width="5.89643mm" viewBox="0 0 39 39" baseProfile="tiny" xmlns="http://www.w3.org/2000/svg" xmlns:xlink="http://www.w3.org/1999/xlink" version="1.2" height="5.89643mm">
    <style id="current-color-scheme" type="text/css">.ColorScheme-Text {color:#232629;}</style>
    <title>Qt SVG Document</title>
    <desc>Auto-generated by Klassy window decoration</desc>
    <defs/>
    <g stroke-linecap="square" fill-rule="evenodd" stroke-linejoin="bevel" stroke-width="1" fill="none" stroke="black">
        <g class="ColorScheme-Text" font-weight="400" font-family="Noto Sans" font-size="23.3333" transform="matrix(2.16667,0,0,2.16667,0,0)" fill-opacity="1" fill="currentColor" font-style="normal" stroke="none">
            <path fill-rule="nonzero" vector-effect="none" d="M4.38462,12 L8.53846,12 C8.92081,12 9.23077,12.31 9.23077,12.6923 C9.23077,13.0747 8.92081,13.3846 8.53846,13.3846 L4.38462,13.3846 C4.00226,13.3846 3.69231,13.0747 3.69231,12.6923 C3.69231,12.31 4.00226,12 4.38462,12 "/>
            <path fill-rule="nonzero" vector-effect="none" d="M4.38462,7.84615 L8.53846,7.84615 C8.92081,7.84615 9.23077,8.15611 9.23077,8.53846 C9.23077,8.92081 8.92081,9.23077 8.53846,9.23077 L4.38462,9.23077 C4.00226,9.23077 3.69231,8.92081 3.69231,8.53846 C3.69231,8.15611 4.00226,7.84615 4.38462,7.84615 "/>
            <path fill-rule="nonzero" vector-effect="none" d="M4.38462,3.69231 L13.6154,3.69231 C13.9977,3.69231 14.3077,4.00226 14.3077,4.38462 C14.3077,4.76697 13.9977,5.07692 13.6154,5.07692 L4.38462,5.07692 C4.00226,5.07692 3.69231,4.76697 3.69231,4.38462 C3.69231,4.00226 4.00226,3.69231 4.38462,3.69231 "/>
            <path fill-rule="nonzero" vector-effect="none" d="M14.3077,6.69231 L14.3077,14.5385 C14.3077,14.9208 13.9977,15.2308 13.6154,15.2308 C13.233,15.2308 12.9231,14.9208 12.9231,14.5385 L12.9231,6.69231 C12.9231,6.30996 13.233,6 13.6154,6 C13.9977,6 14.3077,6.30996 14.3077,6.69231 "/>
            <path fill-rule="nonzero" vector-effect="none" d="M11.2797,8.04893 L13.1258,6.20277 L13.6154,5.71324 L14.1049,6.20277 L15.9511,8.04893 C16.2214,8.31929 16.2214,8.75763 15.9511,9.028 C15.6807,9.29836 15.2424,9.29836 14.972,9.028 L13.1258,7.18184 L13.6154,6.69231 L14.1049,7.18184 L12.2588,9.028 C11.9884,9.29836 11.5501,9.29836 11.2797,9.028 C11.0093,8.75763 11.0093,8.31929 11.2797,8.04893 "/>
        </g>
    </g>
</svg>
