<?xml version='1.0' encoding='UTF-8' standalone='no'?>
<svg version="1.2" xmlns:xlink="http://www.w3.org/1999/xlink" viewBox="0 0 39 39" xmlns="http://www.w3.org/2000/svg" width="5.89643mm" height="5.89643mm" baseProfile="tiny">
    <style id="current-color-scheme" type="text/css">.ColorScheme-Text {color:#232629;}</style>
    <title>Qt SVG Document</title>
    <desc>Auto-generated by Klassy window decoration</desc>
    <defs/>
    <g stroke-linejoin="bevel" stroke-linecap="square" fill="none" stroke-width="1" stroke="black" fill-rule="evenodd">
        <g font-weight="400" class="ColorScheme-Text" font-size="23.3333" fill="currentColor" transform="matrix(2.16667,0,0,2.16667,0,0)" font-style="normal" stroke="none" font-family="Noto Sans" fill-opacity="1">
            <path vector-effect="none" fill-rule="nonzero" d="M4.87464,3.89459 L14.5669,13.5869 C14.8376,13.8575 14.8376,14.2963 14.5669,14.5669 C14.2963,14.8376 13.8575,14.8376 13.5869,14.5669 L3.89459,4.87464 C3.62396,4.60401 3.62396,4.16522 3.89459,3.89459 C4.16522,3.62396 4.60401,3.62396 4.87464,3.89459 "/>
            <path vector-effect="none" fill-rule="nonzero" d="M14.5669,4.87464 L4.87464,14.5669 C4.60401,14.8376 4.16522,14.8376 3.89459,14.5669 C3.62396,14.2963 3.62396,13.8575 3.89459,13.5869 L13.5869,3.89459 C13.8575,3.62396 14.2963,3.62396 14.5669,3.89459 C14.8376,4.16522 14.8376,4.60401 14.5669,4.87464 "/>
        </g>
    </g>
</svg>
