<?xml version='1.0' encoding='UTF-8' standalone='no'?>
<svg baseProfile="tiny" height="5.89643mm" version="1.2" viewBox="0 0 39 39" width="5.89643mm" xmlns="http://www.w3.org/2000/svg" xmlns:xlink="http://www.w3.org/1999/xlink">
    <style id="current-color-scheme" type="text/css">.ColorScheme-Text {color:#232629;}</style>
    <title>Qt SVG Document</title>
    <desc>Auto-generated by Klassy window decoration</desc>
    <defs/>
    <g fill="none" fill-rule="evenodd" stroke="black" stroke-linecap="square" stroke-linejoin="bevel" stroke-width="1">
        <g class="ColorScheme-Text" fill="currentColor" fill-opacity="1" font-family="Noto Sans" font-size="23.3333" font-style="normal" font-weight="400" stroke="none" transform="matrix(2.16667,0,0,2.16667,0,0)">
            <path d="M4.38462,13.8455 L13.6154,13.8455 C13.9981,13.8455 14.3084,14.1557 14.3084,14.5385 C14.3084,14.9212 13.9981,15.2315 13.6154,15.2315 L4.38462,15.2315 C4.00188,15.2315 3.69162,14.9212 3.69162,14.5385 C3.69162,14.1557 4.00188,13.8455 4.38462,13.8455 " fill-rule="nonzero" vector-effect="none"/>
            <path d="M9.46154,9.69162 L13.6154,9.69162 C13.9981,9.69162 14.3084,10.0019 14.3084,10.3846 C14.3084,10.7673 13.9981,11.0776 13.6154,11.0776 L9.46154,11.0776 C9.07881,11.0776 8.76854,10.7673 8.76854,10.3846 C8.76854,10.0019 9.07881,9.69162 9.46154,9.69162 " fill-rule="nonzero" vector-effect="none"/>
            <path d="M9.46154,5.53777 L13.6154,5.53777 C13.9981,5.53777 14.3084,5.84804 14.3084,6.23077 C14.3084,6.6135 13.9981,6.92377 13.6154,6.92377 L9.46154,6.92377 C9.07881,6.92377 8.76854,6.6135 8.76854,6.23077 C8.76854,5.84804 9.07881,5.53777 9.46154,5.53777 " fill-rule="nonzero" vector-effect="none"/>
            <path d="M5.07762,4.38462 L5.07762,12.6923 C5.07762,13.075 4.76735,13.3853 4.38462,13.3853 C4.00188,13.3853 3.69162,13.075 3.69162,12.6923 L3.69162,4.38462 C3.69162,4.00188 4.00188,3.69162 4.38462,3.69162 C4.76735,3.69162 5.07762,4.00188 5.07762,4.38462 " fill-rule="nonzero" vector-effect="none"/>
            <path d="M3.0796,9.9517 L4.92576,12.2594 L4.38462,12.6923 L3.84347,12.2594 L5.68963,9.9517 C5.92872,9.65284 6.36482,9.60438 6.66368,9.84347 C6.96255,10.0826 7.011,10.5187 6.77191,10.8175 L4.92576,13.1252 L4.38462,13.8016 L3.84347,13.1252 L1.99732,10.8175 C1.75823,10.5187 1.80668,10.0826 2.10555,9.84347 C2.40441,9.60438 2.84051,9.65284 3.0796,9.9517 " fill-rule="nonzero" vector-effect="none"/>
        </g>
    </g>
</svg>
