<?xml version='1.0' encoding='UTF-8' standalone='no'?>
<svg width="5.89643mm" viewBox="0 0 39 39" baseProfile="tiny" xmlns="http://www.w3.org/2000/svg" xmlns:xlink="http://www.w3.org/1999/xlink" version="1.2" height="5.89643mm">
    <style id="current-color-scheme" type="text/css">.ColorScheme-Text {color:#232629;}</style>
    <title>Qt SVG Document</title>
    <desc>Auto-generated by Klassy window decoration</desc>
    <defs/>
    <g stroke-linecap="square" fill-rule="evenodd" stroke-linejoin="bevel" stroke-width="1" fill="none" stroke="black">
        <g class="ColorScheme-Text" font-weight="400" font-family="Noto Sans" font-size="23.3333" transform="matrix(2.16667,0,0,2.16667,8.5,15.5)" fill-opacity="1" fill="currentColor" font-style="normal" stroke="none">
            <path fill-rule="nonzero" vector-effect="none" d="M0,-0.692308 L7.38462,-0.692308 L8.07692,0 L8.07692,7.38462 L7.38462,8.07692 L0,8.07692 L-0.692308,7.38462 L-0.692308,0 L0,-0.692308 M0.692308,0 L0.692308,7.38462 L0,7.38462 L0,6.69231 L7.38462,6.69231 L7.38462,7.38462 L6.69231,7.38462 L6.69231,0 L7.38462,0 L7.38462,0.692308 L0,0.692308 L0,0 L0.692308,0"/>
        </g>
        <g class="ColorScheme-Text" font-weight="400" font-family="Noto Sans" font-size="23.3333" transform="matrix(2.16667,0,0,2.16667,8.5,15.5)" fill-opacity="1" fill="currentColor" font-style="normal" stroke="none">
            <path fill-rule="nonzero" vector-effect="none" d="M2.07692,-0.692308 L2.07692,-2.76923 L2.76923,-3.46154 L10.1538,-3.46154 L10.8462,-2.76923 L10.8462,4.61538 L10.1538,5.30769 L8.07692,5.30769 L8.07692,3.92308 L10.1538,3.92308 L10.1538,4.61538 L9.46154,4.61538 L9.46154,-2.76923 L10.1538,-2.76923 L10.1538,-2.07692 L2.76923,-2.07692 L2.76923,-2.76923 L3.46154,-2.76923 L3.46154,-0.692308 L2.07692,-0.692308"/>
        </g>
    </g>
</svg>
