<?xml version='1.0' encoding='UTF-8' standalone='no'?>
<svg version="1.2" xmlns:xlink="http://www.w3.org/1999/xlink" viewBox="0 0 39 39" xmlns="http://www.w3.org/2000/svg" width="5.89643mm" height="5.89643mm" baseProfile="tiny">
    <style id="current-color-scheme" type="text/css">.ColorScheme-Text {color:#232629;}</style>
    <title>Qt SVG Document</title>
    <desc>Auto-generated by Klassy window decoration</desc>
    <defs/>
    <g stroke-linejoin="bevel" stroke-linecap="square" fill="none" stroke-width="1" stroke="black" fill-rule="evenodd">
        <g font-weight="400" class="ColorScheme-Text" font-size="23.3333" fill="currentColor" transform="matrix(2.16667,0,0,2.16667,8.5,15.5)" font-style="normal" stroke="none" font-family="Noto Sans" fill-opacity="1">
            <path vector-effect="none" fill-rule="nonzero" d="M0,-0.693 L7.38462,-0.693 L8.07762,0 L8.07762,7.38462 L7.38462,8.07762 L0,8.07762 L-0.693,7.38462 L-0.693,0 L0,-0.693 M0.693,0 L0.693,7.38462 L0,7.38462 L0,6.69162 L7.38462,6.69162 L7.38462,7.38462 L6.69162,7.38462 L6.69162,0 L7.38462,0 L7.38462,0.693 L0,0.693 L0,0 L0.693,0"/>
        </g>
        <g font-weight="400" class="ColorScheme-Text" font-size="23.3333" fill="currentColor" transform="matrix(2.16667,0,0,2.16667,8.5,15.5)" font-style="normal" stroke="none" font-family="Noto Sans" fill-opacity="1">
            <path vector-effect="none" fill-rule="nonzero" d="M2.07623,-0.693 L2.07623,-2.76923 L2.76923,-3.46223 L10.1538,-3.46223 L10.8468,-2.76923 L10.8468,4.61538 L10.1538,5.30838 L8.07762,5.30838 L8.07762,3.92238 L10.1538,3.92238 L10.1538,4.61538 L9.46085,4.61538 L9.46085,-2.76923 L10.1538,-2.76923 L10.1538,-2.07623 L2.76923,-2.07623 L2.76923,-2.76923 L3.46223,-2.76923 L3.46223,-0.693 L2.07623,-0.693"/>
        </g>
    </g>
</svg>
