<?xml version='1.0' encoding='UTF-8' standalone='no'?>
<svg width="5.89643mm" viewBox="0 0 39 39" baseProfile="tiny" xmlns="http://www.w3.org/2000/svg" xmlns:xlink="http://www.w3.org/1999/xlink" version="1.2" height="5.89643mm">
    <style id="current-color-scheme" type="text/css">.ColorScheme-Text {color:#232629;}</style>
    <title>Qt SVG Document</title>
    <desc>Auto-generated by Klassy window decoration</desc>
    <defs/>
    <g stroke-linecap="square" fill-rule="evenodd" stroke-linejoin="bevel" stroke-width="1" fill="none" stroke="black">
        <g class="ColorScheme-Text" font-weight="400" font-family="Noto Sans" font-size="23.3333" transform="matrix(2.16667,0,0,2.16667,16,16)" fill-opacity="0.650004" fill="currentColor" font-style="normal" stroke="none">
            <rect width="3.69231" y="0" x="0" height="3.69231"/>
        </g>
        <g class="ColorScheme-Text" font-weight="400" font-family="Noto Sans" font-size="23.3333" transform="matrix(2.16667,0,0,2.16667,16,16)" fill-opacity="0.850004" fill="currentColor" font-style="normal" stroke="none">
            <path fill-rule="nonzero" vector-effect="none" d="M0,-0.461538 L3.69231,-0.461538 L4.15385,0 L4.15385,3.69231 L3.69231,4.15385 L0,4.15385 L-0.461538,3.69231 L-0.461538,0 L0,-0.461538 M0.461538,0 L0.461538,3.69231 L0,3.69231 L0,3.23077 L3.69231,3.23077 L3.69231,3.69231 L3.23077,3.69231 L3.23077,0 L3.69231,0 L3.69231,0.461538 L0,0.461538 L0,0 L0.461538,0"/>
        </g>
    </g>
</svg>
