<?xml version='1.0' encoding='UTF-8' standalone='no'?>
<svg baseProfile="tiny" height="5.89643mm" version="1.2" viewBox="0 0 39 39" width="5.89643mm" xmlns="http://www.w3.org/2000/svg" xmlns:xlink="http://www.w3.org/1999/xlink">
    <style id="current-color-scheme" type="text/css">.ColorScheme-Text {color:#232629;}</style>
    <title>Qt SVG Document</title>
    <desc>Auto-generated by Klassy window decoration</desc>
    <defs/>
    <g fill="none" fill-rule="evenodd" stroke="black" stroke-linecap="square" stroke-linejoin="bevel" stroke-width="1">
        <g class="ColorScheme-Text" fill="currentColor" fill-opacity="0.549996" font-family="Noto Sans" font-size="23.3333" font-style="normal" font-weight="400" stroke="none" transform="matrix(2.16667,0,0,2.16667,16,16)">
            <rect height="3.69231" width="3.69231" x="0" y="0"/>
        </g>
        <g class="ColorScheme-Text" fill="currentColor" fill-opacity="0.902495" font-family="Noto Sans" font-size="23.3333" font-style="normal" font-weight="400" stroke="none" transform="matrix(2.16667,0,0,2.16667,16,16)">
            <path d="M0,-0.462 L3.69231,-0.462 L4.15431,0 L4.15431,3.69231 L3.69231,4.15431 L0,4.15431 L-0.462,3.69231 L-0.462,0 L0,-0.462 M0.462,0 L0.462,3.69231 L0,3.69231 L0,3.23031 L3.69231,3.23031 L3.69231,3.69231 L3.23031,3.69231 L3.23031,0 L3.69231,0 L3.69231,0.462 L0,0.462 L0,0 L0.462,0" fill-rule="nonzero" vector-effect="none"/>
        </g>
    </g>
</svg>
