<?xml version='1.0' encoding='UTF-8' standalone='no'?>
<svg width="12.7mm" viewBox="0 0 72 72" baseProfile="tiny" xmlns="http://www.w3.org/2000/svg" xmlns:xlink="http://www.w3.org/1999/xlink" version="1.2" height="12.7mm">
    <style id="current-color-scheme" type="text/css">.ColorScheme-Text {color:#232629;}</style>
    <title>Qt SVG Document</title>
    <desc>Auto-generated by Klassy window decoration</desc>
    <defs/>
    <g stroke-linecap="square" fill-rule="evenodd" stroke-linejoin="bevel" stroke-width="1" fill="none" stroke="black">
        <g class="ColorScheme-Text" font-weight="400" font-family="Noto Sans" font-size="20" transform="matrix(4,0,0,4,0,0)" fill-opacity="1" fill="currentColor" font-style="normal" stroke="none">
            <path fill-rule="nonzero" vector-effect="none" d="M3.75,4.50113 C3.75,4.18984 4.18984,3.75 4.50113,3.75 L13.4989,3.75 C13.8102,3.75 14.25,4.18984 14.25,4.50113 L14.25,13.4989 C14.25,13.8102 13.8102,14.25 13.4989,14.25 L4.50113,14.25 C4.18984,14.25 3.75,13.8102 3.75,13.4989 L3.75,4.50113 M5.25,4.50113 L5.25,13.4989 C5.25,13.1888 4.81116,12.75 4.50113,12.75 L13.4989,12.75 C13.1888,12.75 12.75,13.1888 12.75,13.4989 L12.75,4.50113 C12.75,4.81116 13.1888,5.25 13.4989,5.25 L4.50113,5.25 C4.81116,5.25 5.25,4.81116 5.25,4.50113 "/>
        </g>
    </g>
</svg>
