<?xml version='1.0' encoding='UTF-8' standalone='no'?>
<svg version="1.2" xmlns:xlink="http://www.w3.org/1999/xlink" viewBox="0 0 72 72" xmlns="http://www.w3.org/2000/svg" width="12.7mm" height="12.7mm" baseProfile="tiny">
    <style id="current-color-scheme" type="text/css">.ColorScheme-Text {color:#232629;}</style>
    <title>Qt SVG Document</title>
    <desc>Auto-generated by Klassy window decoration</desc>
    <defs/>
    <g stroke-linejoin="bevel" stroke-linecap="square" fill="none" stroke-width="1" stroke="black" fill-rule="evenodd">
        <g font-weight="400" class="ColorScheme-Text" font-size="20" fill="currentColor" transform="matrix(4,0,0,4,0,0)" font-style="normal" stroke="none" font-family="Noto Sans" fill-opacity="1">
            <path vector-effect="none" fill-rule="nonzero" d="M4.625,13.9994 L13.625,13.9994 C13.9705,13.9994 14.2506,14.2795 14.2506,14.625 C14.2506,14.9705 13.9705,15.2506 13.625,15.2506 L4.625,15.2506 C4.27948,15.2506 3.99938,14.9705 3.99938,14.625 C3.99938,14.2795 4.27948,13.9994 4.625,13.9994 "/>
            <path vector-effect="none" fill-rule="nonzero" d="M9.625,9.99938 L13.625,9.99938 C13.9705,9.99938 14.2506,10.2795 14.2506,10.625 C14.2506,10.9705 13.9705,11.2506 13.625,11.2506 L9.625,11.2506 C9.27948,11.2506 8.99938,10.9705 8.99938,10.625 C8.99938,10.2795 9.27948,9.99938 9.625,9.99938 "/>
            <path vector-effect="none" fill-rule="nonzero" d="M9.625,5.99938 L13.625,5.99938 C13.9705,5.99938 14.2506,6.27948 14.2506,6.625 C14.2506,6.97052 13.9705,7.25062 13.625,7.25062 L9.625,7.25062 C9.27948,7.25062 8.99938,6.97052 8.99938,6.625 C8.99938,6.27948 9.27948,5.99938 9.625,5.99938 "/>
            <path vector-effect="none" fill-rule="nonzero" d="M5.00062,4.375 L5.00062,12.375 C5.00062,12.7205 4.72052,13.0006 4.375,13.0006 C4.02948,13.0006 3.74938,12.7205 3.74938,12.375 L3.74938,4.375 C3.74938,4.02948 4.02948,3.74938 4.375,3.74938 C4.72052,3.74938 5.00062,4.02948 5.00062,4.375 "/>
            <path vector-effect="none" fill-rule="nonzero" d="M2.81738,9.93262 L4.81738,11.9326 L4.375,12.375 L3.93262,11.9326 L5.93262,9.93262 C6.17694,9.68829 6.57306,9.68829 6.81738,9.93262 C7.06171,10.1769 7.06171,10.5731 6.81738,10.8174 L4.81738,12.8174 L4.375,13.2598 L3.93262,12.8174 L1.93262,10.8174 C1.68829,10.5731 1.68829,10.1769 1.93262,9.93262 C2.17694,9.68829 2.57306,9.68829 2.81738,9.93262 "/>
        </g>
    </g>
</svg>
