<?xml version='1.0' encoding='UTF-8' standalone='no'?>
<svg version="1.2" xmlns:xlink="http://www.w3.org/1999/xlink" viewBox="0 0 72 72" xmlns="http://www.w3.org/2000/svg" width="12.7mm" height="12.7mm" baseProfile="tiny">
    <style id="current-color-scheme" type="text/css">.ColorScheme-Text {color:#232629;}</style>
    <title>Qt SVG Document</title>
    <desc>Auto-generated by Klassy window decoration</desc>
    <defs/>
    <g stroke-linejoin="bevel" stroke-linecap="square" fill="none" stroke-width="1" stroke="black" fill-rule="evenodd">
        <g font-weight="400" class="ColorScheme-Text" font-size="20" fill="currentColor" transform="matrix(4,0,0,4,0,0)" font-style="normal" stroke="none" font-family="Noto Sans" fill-opacity="1">
            <path vector-effect="none" fill-rule="nonzero" d="M4,3.99938 L14,3.99938 C14.3455,3.99938 14.6256,4.27948 14.6256,4.625 C14.6256,4.97052 14.3455,5.25062 14,5.25062 L4,5.25062 C3.65448,5.25062 3.37438,4.97052 3.37438,4.625 C3.37438,4.27948 3.65448,3.99938 4,3.99938 "/>
            <path vector-effect="none" fill-rule="nonzero" d="M4.44238,7.55762 L9.44238,12.5576 L9,13 L8.55762,12.5576 L13.5576,7.55762 C13.8019,7.31329 14.1981,7.31329 14.4424,7.55762 C14.6867,7.80194 14.6867,8.19806 14.4424,8.44238 L9.44238,13.4424 L9,13.8848 L8.55762,13.4424 L3.55762,8.44238 C3.31329,8.19806 3.31329,7.80194 3.55762,7.55762 C3.80194,7.31329 4.19806,7.31329 4.44238,7.55762 "/>
        </g>
    </g>
</svg>
