<?xml version='1.0' encoding='UTF-8' standalone='no'?>
<svg baseProfile="tiny" height="12.7mm" version="1.2" viewBox="0 0 72 72" width="12.7mm" xmlns="http://www.w3.org/2000/svg" xmlns:xlink="http://www.w3.org/1999/xlink">
    <style id="current-color-scheme" type="text/css">.ColorScheme-Text {color:#232629;}</style>
    <title>Qt SVG Document</title>
    <desc>Auto-generated by Klassy window decoration</desc>
    <defs/>
    <g fill="none" fill-rule="evenodd" stroke="black" stroke-linecap="square" stroke-linejoin="bevel" stroke-width="1">
        <g class="ColorScheme-Text" fill="currentColor" fill-opacity="1" font-family="Noto Sans" font-size="20" font-style="normal" font-weight="400" stroke="none" transform="matrix(4,0,0,4,0,0)">
            <path d="M4,3.99938 L14,3.99938 C14.3455,3.99938 14.6256,4.27948 14.6256,4.625 C14.6256,4.97052 14.3455,5.25062 14,5.25062 L4,5.25062 C3.65448,5.25062 3.37438,4.97052 3.37438,4.625 C3.37438,4.27948 3.65448,3.99938 4,3.99938 " fill-rule="nonzero" vector-effect="none"/>
            <path d="M3.55762,12.5576 L8.55762,7.55762 L9,7.11523 L9.44238,7.55762 L14.4424,12.5576 C14.6867,12.8019 14.6867,13.1981 14.4424,13.4424 C14.1981,13.6867 13.8019,13.6867 13.5576,13.4424 L8.55762,8.44238 L9,8 L9.44238,8.44238 L4.44238,13.4424 C4.19806,13.6867 3.80194,13.6867 3.55762,13.4424 C3.31329,13.1981 3.31329,12.8019 3.55762,12.5576 " fill-rule="nonzero" vector-effect="none"/>
        </g>
    </g>
</svg>
