<?xml version='1.0' encoding='UTF-8' standalone='no'?>
<svg version="1.2" xmlns:xlink="http://www.w3.org/1999/xlink" viewBox="0 0 144 144" xmlns="http://www.w3.org/2000/svg" width="12.7mm" height="12.7mm" baseProfile="tiny">
    <style id="current-color-scheme" type="text/css">.ColorScheme-Text {color:#fcfcfc;}</style>
    <title>Qt SVG Document</title>
    <desc>Auto-generated by Klassy window decoration</desc>
    <defs/>
    <g stroke-linejoin="bevel" stroke-linecap="square" fill="none" stroke-width="1" stroke="black" fill-rule="evenodd">
        <g font-weight="400" class="ColorScheme-Text" font-size="40" fill="currentColor" transform="matrix(8,0,0,8,0,0)" font-style="normal" stroke="none" font-family="Noto Sans" fill-opacity="1">
            <path vector-effect="none" fill-rule="nonzero" d="M4.5,13.8744 L13.5,13.8744 C13.8455,13.8744 14.1256,14.1545 14.1256,14.5 C14.1256,14.8455 13.8455,15.1256 13.5,15.1256 L4.5,15.1256 C4.15448,15.1256 3.87438,14.8455 3.87438,14.5 C3.87438,14.1545 4.15448,13.8744 4.5,13.8744 "/>
            <path vector-effect="none" fill-rule="nonzero" d="M9.5,9.87438 L13.5,9.87438 C13.8455,9.87438 14.1256,10.1545 14.1256,10.5 C14.1256,10.8455 13.8455,11.1256 13.5,11.1256 L9.5,11.1256 C9.15448,11.1256 8.87438,10.8455 8.87438,10.5 C8.87438,10.1545 9.15448,9.87438 9.5,9.87438 "/>
            <path vector-effect="none" fill-rule="nonzero" d="M9.5,5.87438 L13.5,5.87438 C13.8455,5.87438 14.1256,6.15448 14.1256,6.5 C14.1256,6.84552 13.8455,7.12562 13.5,7.12562 L9.5,7.12562 C9.15448,7.12562 8.87438,6.84552 8.87438,6.5 C8.87438,6.15448 9.15448,5.87438 9.5,5.87438 "/>
            <path vector-effect="none" fill-rule="nonzero" d="M5.12562,4.5 L5.12562,12.5 C5.12562,12.8455 4.84552,13.1256 4.5,13.1256 C4.15448,13.1256 3.87438,12.8455 3.87438,12.5 L3.87438,4.5 C3.87438,4.15448 4.15448,3.87438 4.5,3.87438 C4.84552,3.87438 5.12562,4.15448 5.12562,4.5 "/>
            <path vector-effect="none" fill-rule="nonzero" d="M2.94238,10.0576 L4.94238,12.0576 L4.5,12.5 L4.05762,12.0576 L6.05762,10.0576 C6.30194,9.81329 6.69806,9.81329 6.94238,10.0576 C7.18671,10.3019 7.18671,10.6981 6.94238,10.9424 L4.94238,12.9424 L4.5,13.3848 L4.05762,12.9424 L2.05762,10.9424 C1.81329,10.6981 1.81329,10.3019 2.05762,10.0576 C2.30194,9.81329 2.69806,9.81329 2.94238,10.0576 "/>
        </g>
    </g>
</svg>
