<?xml version='1.0' encoding='UTF-8' standalone='no'?>
<svg width="12.7mm" viewBox="0 0 144 144" baseProfile="tiny" xmlns="http://www.w3.org/2000/svg" xmlns:xlink="http://www.w3.org/1999/xlink" version="1.2" height="12.7mm">
    <style id="current-color-scheme" type="text/css">.ColorScheme-Text {color:#fcfcfc;}</style>
    <title>Qt SVG Document</title>
    <desc>Auto-generated by Klassy window decoration</desc>
    <defs/>
    <g stroke-linecap="square" fill-rule="evenodd" stroke-linejoin="bevel" stroke-width="1" fill="none" stroke="black">
        <g class="ColorScheme-Text" font-weight="400" font-family="Noto Sans" font-size="40" transform="matrix(8,0,0,8,0,0)" fill-opacity="1" fill="currentColor" font-style="normal" stroke="none">
            <path fill-rule="nonzero" vector-effect="none" d="M4.5,11.875 L8.5,11.875 C8.84518,11.875 9.125,12.1548 9.125,12.5 C9.125,12.8452 8.84518,13.125 8.5,13.125 L4.5,13.125 C4.15482,13.125 3.875,12.8452 3.875,12.5 C3.875,12.1548 4.15482,11.875 4.5,11.875 "/>
            <path fill-rule="nonzero" vector-effect="none" d="M4.5,7.875 L8.5,7.875 C8.84518,7.875 9.125,8.15482 9.125,8.5 C9.125,8.84518 8.84518,9.125 8.5,9.125 L4.5,9.125 C4.15482,9.125 3.875,8.84518 3.875,8.5 C3.875,8.15482 4.15482,7.875 4.5,7.875 "/>
            <path fill-rule="nonzero" vector-effect="none" d="M4.5,3.875 L13.5,3.875 C13.8452,3.875 14.125,4.15482 14.125,4.5 C14.125,4.84518 13.8452,5.125 13.5,5.125 L4.5,5.125 C4.15482,5.125 3.875,4.84518 3.875,4.5 C3.875,4.15482 4.15482,3.875 4.5,3.875 "/>
            <path fill-rule="nonzero" vector-effect="none" d="M14.125,6.5 L14.125,14.5 C14.125,14.8452 13.8452,15.125 13.5,15.125 C13.1548,15.125 12.875,14.8452 12.875,14.5 L12.875,6.5 C12.875,6.15482 13.1548,5.875 13.5,5.875 C13.8452,5.875 14.125,6.15482 14.125,6.5 "/>
            <path fill-rule="nonzero" vector-effect="none" d="M11.0581,8.05806 L13.0581,6.05806 L13.5,5.61612 L13.9419,6.05806 L15.9419,8.05806 C16.186,8.30214 16.186,8.69786 15.9419,8.94194 C15.6979,9.18602 15.3021,9.18602 15.0581,8.94194 L13.0581,6.94194 L13.5,6.5 L13.9419,6.94194 L11.9419,8.94194 C11.6979,9.18602 11.3021,9.18602 11.0581,8.94194 C10.814,8.69786 10.814,8.30214 11.0581,8.05806 "/>
        </g>
    </g>
</svg>
