<?xml version='1.0' encoding='UTF-8' standalone='no'?>
<svg width="5.82083mm" viewBox="0 0 22 22" baseProfile="tiny" xmlns="http://www.w3.org/2000/svg" xmlns:xlink="http://www.w3.org/1999/xlink" version="1.2" height="5.82083mm">
    <style id="current-color-scheme" type="text/css">.ColorScheme-Text {color:#232629;}</style>
    <title>Qt SVG Document</title>
    <desc>Auto-generated by Klassy window decoration</desc>
    <defs/>
    <g stroke-linecap="square" fill-rule="evenodd" stroke-linejoin="bevel" stroke-width="1" fill="none" stroke="black">
        <g class="ColorScheme-Text" font-weight="400" font-family="Noto Sans" font-size="13.3333" transform="matrix(1.22222,0,0,1.22222,0,0)" fill-opacity="1" fill="currentColor" font-style="normal" stroke="none">
            <path fill-rule="nonzero" vector-effect="none" d="M4.5,13.9091 L13.5,13.9091 L13.5,14.7273 L4.5,14.7273 L4.5,13.9091"/>
            <path fill-rule="nonzero" vector-effect="none" d="M9.40909,9.81818 L13.5,9.81818 L13.5,10.6364 L9.40909,10.6364 L9.40909,9.81818"/>
            <path fill-rule="nonzero" vector-effect="none" d="M9.40909,5.72727 L13.5,5.72727 L13.5,6.54545 L9.40909,6.54545 L9.40909,5.72727"/>
            <path fill-rule="nonzero" vector-effect="none" d="M4.90909,4.5 L4.90909,12.6818 L4.09091,12.6818 L4.09091,4.5 L4.90909,4.5"/>
            <path fill-rule="nonzero" vector-effect="none" d="M1.92563,9.52891 L4.78927,12.3925 L4.5,12.6818 L4.21073,12.3925 L7.07437,9.52891 L7.65291,10.1075 L4.78927,12.9711 L4.5,13.2604 L4.21073,12.9711 L1.34709,10.1075 L1.92563,9.52891"/>
        </g>
    </g>
</svg>
