<?xml version='1.0' encoding='UTF-8' standalone='no'?>
<svg width="5.82083mm" viewBox="0 0 22 22" baseProfile="tiny" xmlns="http://www.w3.org/2000/svg" xmlns:xlink="http://www.w3.org/1999/xlink" version="1.2" height="5.82083mm">
    <style id="current-color-scheme" type="text/css">.ColorScheme-Text {color:#232629;}</style>
    <title>Qt SVG Document</title>
    <desc>Auto-generated by Klassy window decoration</desc>
    <defs/>
    <g stroke-linecap="square" fill-rule="evenodd" stroke-linejoin="bevel" stroke-width="1" fill="none" stroke="black">
        <g class="ColorScheme-Text" font-weight="400" font-family="Noto Sans" font-size="13.3333" transform="matrix(1.22222,0,0,1.22222,0,0)" fill-opacity="0.900008" fill="currentColor" font-style="normal" stroke="none">
            <path fill-rule="nonzero" vector-effect="none" d="M4.09091,4.50113 C4.09091,4.33105 4.33105,4.09091 4.50113,4.09091 L13.4989,4.09091 C13.6689,4.09091 13.9091,4.33105 13.9091,4.50113 L13.9091,13.4989 C13.9091,13.6689 13.6689,13.9091 13.4989,13.9091 L4.50113,13.9091 C4.33105,13.9091 4.09091,13.6689 4.09091,13.4989 L4.09091,4.50113 M4.90909,4.50113 L4.90909,13.4989 C4.90909,13.33 4.66995,13.0909 4.50113,13.0909 L13.4989,13.0909 C13.33,13.0909 13.0909,13.33 13.0909,13.4989 L13.0909,4.50113 C13.0909,4.66995 13.33,4.90909 13.4989,4.90909 L4.50113,4.90909 C4.66995,4.90909 4.90909,4.66995 4.90909,4.50113 "/>
        </g>
    </g>
</svg>
