<?xml version='1.0' encoding='UTF-8' standalone='no'?>
<svg version="1.2" xmlns:xlink="http://www.w3.org/1999/xlink" viewBox="0 0 22 22" xmlns="http://www.w3.org/2000/svg" width="5.82083mm" height="5.82083mm" baseProfile="tiny">
    <style id="current-color-scheme" type="text/css">.ColorScheme-Text {color:#232629;}</style>
    <title>Qt SVG Document</title>
    <desc>Auto-generated by Klassy window decoration</desc>
    <defs/>
    <g stroke-linejoin="bevel" stroke-linecap="square" fill="none" stroke-width="1" stroke="black" fill-rule="evenodd">
        <g font-weight="400" class="ColorScheme-Text" font-size="13.3333" fill="currentColor" transform="matrix(1.22222,0,0,1.22222,0,0)" font-style="normal" stroke="none" font-family="Noto Sans" fill-opacity="1">
            <path vector-effect="none" fill-rule="nonzero" d="M4.78956,4.21044 L13.7896,13.2104 C13.9495,13.3704 13.9495,13.6296 13.7896,13.7896 C13.6296,13.9495 13.3704,13.9495 13.2104,13.7896 L4.21044,4.78956 C4.05052,4.62964 4.05052,4.37036 4.21044,4.21044 C4.37036,4.05052 4.62964,4.05052 4.78956,4.21044 "/>
            <path vector-effect="none" fill-rule="nonzero" d="M13.7896,4.78956 L4.78956,13.7896 C4.62964,13.9495 4.37036,13.9495 4.21044,13.7896 C4.05052,13.6296 4.05052,13.3704 4.21044,13.2104 L13.2104,4.21044 C13.3704,4.05052 13.6296,4.05052 13.7896,4.21044 C13.9495,4.37036 13.9495,4.62964 13.7896,4.78956 "/>
        </g>
    </g>
</svg>
