<?xml version='1.0' encoding='UTF-8' standalone='no'?>
<svg width="5.82083mm" viewBox="0 0 22 22" baseProfile="tiny" xmlns="http://www.w3.org/2000/svg" xmlns:xlink="http://www.w3.org/1999/xlink" version="1.2" height="5.82083mm">
    <style id="current-color-scheme" type="text/css">.ColorScheme-Text {color:#232629;}</style>
    <title>Qt SVG Document</title>
    <desc>Auto-generated by Klassy window decoration</desc>
    <defs/>
    <g stroke-linecap="square" fill-rule="evenodd" stroke-linejoin="bevel" stroke-width="1" fill="none" stroke="black">
        <g class="ColorScheme-Text" font-weight="400" font-family="Noto Sans" font-size="13.3333" transform="matrix(1.22222,0,0,1.22222,5.5,8.5)" fill-opacity="0.900008" fill="currentColor" font-style="normal" stroke="none">
            <path fill-rule="nonzero" vector-effect="none" d="M0,-0.409091 L7.36364,-0.409091 L7.77273,0 L7.77273,7.36364 L7.36364,7.77273 L0,7.77273 L-0.409091,7.36364 L-0.409091,0 L0,-0.409091 M0.409091,0 L0.409091,7.36364 L0,7.36364 L0,6.95455 L7.36364,6.95455 L7.36364,7.36364 L6.95455,7.36364 L6.95455,0 L7.36364,0 L7.36364,0.409091 L0,0.409091 L0,0 L0.409091,0"/>
        </g>
        <g class="ColorScheme-Text" font-weight="400" font-family="Noto Sans" font-size="13.3333" transform="matrix(1.22222,0,0,1.22222,5.5,8.5)" fill-opacity="0.900008" fill="currentColor" font-style="normal" stroke="none">
            <path fill-rule="nonzero" vector-effect="none" d="M2.04545,-0.409091 L2.04545,-2.45455 L2.45455,-2.86364 L9.81818,-2.86364 L10.2273,-2.45455 L10.2273,4.90909 L9.81818,5.31818 L7.77273,5.31818 L7.77273,4.5 L9.81818,4.5 L9.81818,4.90909 L9.40909,4.90909 L9.40909,-2.45455 L9.81818,-2.45455 L9.81818,-2.04545 L2.45455,-2.04545 L2.45455,-2.45455 L2.86364,-2.45455 L2.86364,-0.409091 L2.04545,-0.409091"/>
        </g>
    </g>
</svg>
