<?xml version='1.0' encoding='UTF-8' standalone='no'?>
<svg baseProfile="tiny" height="5.82083mm" version="1.2" viewBox="0 0 22 22" width="5.82083mm" xmlns="http://www.w3.org/2000/svg" xmlns:xlink="http://www.w3.org/1999/xlink">
    <style id="current-color-scheme" type="text/css">.ColorScheme-Text {color:#232629;}</style>
    <title>Qt SVG Document</title>
    <desc>Auto-generated by Klassy window decoration</desc>
    <defs/>
    <g fill="none" fill-rule="evenodd" stroke="black" stroke-linecap="square" stroke-linejoin="bevel" stroke-width="1">
        <g class="ColorScheme-Text" fill="currentColor" fill-opacity="0.900008" font-family="Noto Sans" font-size="13.3333" font-style="normal" font-weight="400" stroke="none" transform="matrix(1.22222,0,0,1.22222,5.5,8.5)">
            <path d="M0,-0.4095 L7.36364,-0.4095 L7.77314,0 L7.77314,7.36364 L7.36364,7.77314 L0,7.77314 L-0.4095,7.36364 L-0.4095,0 L0,-0.4095 M0.4095,0 L0.4095,7.36364 L0,7.36364 L0,6.95414 L7.36364,6.95414 L7.36364,7.36364 L6.95414,7.36364 L6.95414,0 L7.36364,0 L7.36364,0.4095 L0,0.4095 L0,0 L0.4095,0" fill-rule="nonzero" vector-effect="none"/>
        </g>
        <g class="ColorScheme-Text" fill="currentColor" fill-opacity="0.900008" font-family="Noto Sans" font-size="13.3333" font-style="normal" font-weight="400" stroke="none" transform="matrix(1.22222,0,0,1.22222,5.5,8.5)">
            <path d="M2.04505,-0.4095 L2.04505,-2.45455 L2.45455,-2.86405 L9.81818,-2.86405 L10.2277,-2.45455 L10.2277,4.90909 L9.81818,5.31859 L7.77314,5.31859 L7.77314,4.49959 L9.81818,4.49959 L9.81818,4.90909 L9.40868,4.90909 L9.40868,-2.45455 L9.81818,-2.45455 L9.81818,-2.04505 L2.45455,-2.04505 L2.45455,-2.45455 L2.86405,-2.45455 L2.86405,-0.4095 L2.04505,-0.4095" fill-rule="nonzero" vector-effect="none"/>
        </g>
    </g>
</svg>
