<?xml version='1.0' encoding='UTF-8' standalone='no'?>
<svg width="5.82083mm" viewBox="0 0 22 22" baseProfile="tiny" xmlns="http://www.w3.org/2000/svg" xmlns:xlink="http://www.w3.org/1999/xlink" version="1.2" height="5.82083mm">
    <style id="current-color-scheme" type="text/css">.ColorScheme-Text {color:#232629;}</style>
    <title>Qt SVG Document</title>
    <desc>Auto-generated by Klassy window decoration</desc>
    <defs/>
    <g stroke-linecap="square" fill-rule="evenodd" stroke-linejoin="bevel" stroke-width="1" fill="none" stroke="black">
        <g class="ColorScheme-Text" font-weight="400" font-family="Noto Sans" font-size="13.3333" transform="matrix(1.22222,0,0,1.22222,9.5,9.5)" fill-opacity="0.450004" fill="currentColor" font-style="normal" stroke="none">
            <rect width="2.45455" y="0" x="0" height="2.45455"/>
        </g>
        <g class="ColorScheme-Text" font-weight="400" font-family="Noto Sans" font-size="13.3333" transform="matrix(1.22222,0,0,1.22222,9.5,9.5)" fill-opacity="0.650004" fill="currentColor" font-style="normal" stroke="none">
            <path fill-rule="nonzero" vector-effect="none" d="M0,-0.409091 L2.45455,-0.409091 L2.86364,0 L2.86364,2.45455 L2.45455,2.86364 L0,2.86364 L-0.409091,2.45455 L-0.409091,0 L0,-0.409091 M0.409091,0 L0.409091,2.45455 L0,2.45455 L0,2.04545 L2.45455,2.04545 L2.45455,2.45455 L2.04545,2.45455 L2.04545,0 L2.45455,0 L2.45455,0.409091 L0,0.409091 L0,0 L0.409091,0"/>
        </g>
    </g>
</svg>
