<?xml version='1.0' encoding='UTF-8' standalone='no'?>
<svg version="1.2" xmlns:xlink="http://www.w3.org/1999/xlink" viewBox="0 0 22 22" xmlns="http://www.w3.org/2000/svg" width="5.82083mm" height="5.82083mm" baseProfile="tiny">
    <style id="current-color-scheme" type="text/css">.ColorScheme-Text {color:#232629;}</style>
    <title>Qt SVG Document</title>
    <desc>Auto-generated by Klassy window decoration</desc>
    <defs/>
    <g stroke-linejoin="bevel" stroke-linecap="square" fill="none" stroke-width="1" stroke="black" fill-rule="evenodd">
        <g font-weight="400" class="ColorScheme-Text" font-size="13.3333" fill="currentColor" transform="matrix(1.22222,0,0,1.22222,5.5,8.5)" font-style="normal" stroke="none" font-family="Noto Sans" fill-opacity="0.900008">
            <path vector-effect="none" fill-rule="nonzero" d="M0,-0.4095 L7.36364,-0.4095 L7.77314,0 L7.77314,7.36364 L7.36364,7.77314 L0,7.77314 L-0.4095,7.36364 L-0.4095,0 L0,-0.4095 M0.4095,0 L0.4095,7.36364 L0,7.36364 L0,6.95414 L7.36364,6.95414 L7.36364,7.36364 L6.95414,7.36364 L6.95414,0 L7.36364,0 L7.36364,0.4095 L0,0.4095 L0,0 L0.4095,0"/>
        </g>
        <g font-weight="400" class="ColorScheme-Text" font-size="13.3333" fill="currentColor" transform="matrix(1.22222,0,0,1.22222,5.5,8.5)" font-style="normal" stroke="none" font-family="Noto Sans" fill-opacity="0.900008">
            <path vector-effect="none" fill-rule="nonzero" d="M2.04505,-0.4095 L2.04505,-2.45455 L2.45455,-2.86405 L9.81818,-2.86405 L10.2277,-2.45455 L10.2277,4.90909 L9.81818,5.31859 L7.77314,5.31859 L7.77314,4.49959 L9.81818,4.49959 L9.81818,4.90909 L9.40868,4.90909 L9.40868,-2.45455 L9.81818,-2.45455 L9.81818,-2.04505 L2.45455,-2.04505 L2.45455,-2.45455 L2.86405,-2.45455 L2.86405,-0.4095 L2.04505,-0.4095"/>
        </g>
    </g>
</svg>
