<?xml version='1.0' encoding='UTF-8' standalone='no'?>
<svg version="1.2" xmlns:xlink="http://www.w3.org/1999/xlink" viewBox="0 0 42 42" xmlns="http://www.w3.org/2000/svg" width="6.35mm" height="6.35mm" baseProfile="tiny">
    <style id="current-color-scheme" type="text/css">.ColorScheme-Text {color:#fcfcfc;}</style>
    <title>Qt SVG Document</title>
    <desc>Auto-generated by Klassy window decoration</desc>
    <defs/>
    <g stroke-linejoin="bevel" stroke-linecap="square" fill="none" stroke-width="1" stroke="black" fill-rule="evenodd">
        <g font-weight="400" class="ColorScheme-Text" font-size="23.3333" fill="#da0016" transform="matrix(2.625,0,0,2.625,0,0)" font-style="normal" stroke="none" font-family="Noto Sans" fill-opacity="0.719997">
            <path vector-effect="none" fill-rule="evenodd" d="M2,3.2 C2,2.53726 2.53726,2 3.2,2 L12.8,2 C13.4627,2 14,2.53726 14,3.2 L14,12.8 C14,13.4627 13.4627,14 12.8,14 L3.2,14 C2.53726,14 2,13.4627 2,12.8 L2,3.2"/>
        </g>
        <g font-weight="400" class="ColorScheme-Text" font-size="23.3333" fill="#ffffff" transform="matrix(2.33333,0,0,2.33333,0,0)" font-style="normal" stroke="none" font-family="Noto Sans" fill-opacity="1">
            <path vector-effect="none" fill-rule="nonzero" d="M4.89241,3.67902 L14.321,13.1076 C14.6561,13.4427 14.6561,13.9859 14.321,14.321 C13.9859,14.6561 13.4427,14.6561 13.1076,14.321 L3.67902,4.89241 C3.34395,4.55734 3.34395,4.01409 3.67902,3.67902 C4.01409,3.34395 4.55734,3.34395 4.89241,3.67902 "/>
            <path vector-effect="none" fill-rule="nonzero" d="M14.321,4.89241 L4.89241,14.321 C4.55734,14.6561 4.01409,14.6561 3.67902,14.321 C3.34395,13.9859 3.34395,13.4427 3.67902,13.1076 L13.1076,3.67902 C13.4427,3.34395 13.9859,3.34395 14.321,3.67902 C14.6561,4.01409 14.6561,4.55734 14.321,4.89241 "/>
        </g>
    </g>
</svg>
