<?xml version='1.0' encoding='UTF-8' standalone='no'?>
<svg version="1.2" xmlns:xlink="http://www.w3.org/1999/xlink" viewBox="0 0 42 42" xmlns="http://www.w3.org/2000/svg" width="6.35mm" height="6.35mm" baseProfile="tiny">
    <style id="current-color-scheme" type="text/css">.ColorScheme-Text {color:#fcfcfc;}</style>
    <title>Qt SVG Document</title>
    <desc>Auto-generated by Klassy window decoration</desc>
    <defs/>
    <g stroke-linejoin="bevel" stroke-linecap="square" fill="none" stroke-width="1" stroke="black" fill-rule="evenodd">
        <g font-weight="400" class="ColorScheme-Text" font-size="23.3333" fill="currentColor" transform="matrix(2.33333,0,0,2.33333,9,17)" font-style="normal" stroke="none" font-family="Noto Sans" fill-opacity="1">
            <path vector-effect="none" fill-rule="nonzero" d="M0,-0.858 L7.28571,-0.858 L8.14371,0 L8.14371,7.28571 L7.28571,8.14371 L0,8.14371 L-0.858,7.28571 L-0.858,0 L0,-0.858 M0.858,0 L0.858,7.28571 L0,7.28571 L0,6.42771 L7.28571,6.42771 L7.28571,7.28571 L6.42771,7.28571 L6.42771,0 L7.28571,0 L7.28571,0.858 L0,0.858 L0,0 L0.858,0"/>
        </g>
        <g font-weight="400" class="ColorScheme-Text" font-size="23.3333" fill="currentColor" transform="matrix(2.33333,0,0,2.33333,9,17)" font-style="normal" stroke="none" font-family="Noto Sans" fill-opacity="1">
            <path vector-effect="none" fill-rule="nonzero" d="M2.57057,-0.858 L2.57057,-3.42857 L3.42857,-4.28657 L10.7143,-4.28657 L11.5723,-3.42857 L11.5723,3.85714 L10.7143,4.71514 L8.14371,4.71514 L8.14371,2.99914 L10.7143,2.99914 L10.7143,3.85714 L9.85629,3.85714 L9.85629,-3.42857 L10.7143,-3.42857 L10.7143,-2.57057 L3.42857,-2.57057 L3.42857,-3.42857 L4.28657,-3.42857 L4.28657,-0.858 L2.57057,-0.858"/>
        </g>
    </g>
</svg>
