<?xml version='1.0' encoding='UTF-8' standalone='no'?>
<svg baseProfile="tiny" height="6.35mm" version="1.2" viewBox="0 0 42 42" width="6.35mm" xmlns="http://www.w3.org/2000/svg" xmlns:xlink="http://www.w3.org/1999/xlink">
    <style id="current-color-scheme" type="text/css">.ColorScheme-Text {color:#fcfcfc;}</style>
    <title>Qt SVG Document</title>
    <desc>Auto-generated by Klassy window decoration</desc>
    <defs/>
    <g fill="none" fill-rule="evenodd" stroke="black" stroke-linecap="square" stroke-linejoin="bevel" stroke-width="1">
        <g class="ColorScheme-Text" fill="currentColor" fill-opacity="0.949996" font-family="Noto Sans" font-size="23.3333" font-style="normal" font-weight="400" stroke="none" transform="matrix(2.33333,0,0,2.33333,9,17)">
            <path d="M0,-0.858 L7.28571,-0.858 L8.14371,0 L8.14371,7.28571 L7.28571,8.14371 L0,8.14371 L-0.858,7.28571 L-0.858,0 L0,-0.858 M0.858,0 L0.858,7.28571 L0,7.28571 L0,6.42771 L7.28571,6.42771 L7.28571,7.28571 L6.42771,7.28571 L6.42771,0 L7.28571,0 L7.28571,0.858 L0,0.858 L0,0 L0.858,0" fill-rule="nonzero" vector-effect="none"/>
        </g>
        <g class="ColorScheme-Text" fill="currentColor" fill-opacity="0.949996" font-family="Noto Sans" font-size="23.3333" font-style="normal" font-weight="400" stroke="none" transform="matrix(2.33333,0,0,2.33333,9,17)">
            <path d="M2.57057,-0.858 L2.57057,-3.42857 L3.42857,-4.28657 L10.7143,-4.28657 L11.5723,-3.42857 L11.5723,3.85714 L10.7143,4.71514 L8.14371,4.71514 L8.14371,2.99914 L10.7143,2.99914 L10.7143,3.85714 L9.85629,3.85714 L9.85629,-3.42857 L10.7143,-3.42857 L10.7143,-2.57057 L3.42857,-2.57057 L3.42857,-3.42857 L4.28657,-3.42857 L4.28657,-0.858 L2.57057,-0.858" fill-rule="nonzero" vector-effect="none"/>
        </g>
    </g>
</svg>
