<?xml version='1.0' encoding='UTF-8' standalone='no'?>
<svg width="6.35mm" viewBox="0 0 42 42" baseProfile="tiny" xmlns="http://www.w3.org/2000/svg" xmlns:xlink="http://www.w3.org/1999/xlink" version="1.2" height="6.35mm">
    <style id="current-color-scheme" type="text/css">.ColorScheme-Text {color:#fcfcfc;}</style>
    <title>Qt SVG Document</title>
    <desc>Auto-generated by Klassy window decoration</desc>
    <defs/>
    <g stroke-linecap="square" fill-rule="evenodd" stroke-linejoin="bevel" stroke-width="1" fill="none" stroke="black">
        <g class="ColorScheme-Text" font-weight="400" font-family="Noto Sans" font-size="23.3333" transform="matrix(2.33333,0,0,2.33333,9,17)" fill-opacity="1" fill="currentColor" font-style="normal" stroke="none">
            <path fill-rule="nonzero" vector-effect="none" d="M0,-0.857143 L7.28571,-0.857143 L8.14286,0 L8.14286,7.28571 L7.28571,8.14286 L0,8.14286 L-0.857143,7.28571 L-0.857143,0 L0,-0.857143 M0.857143,0 L0.857143,7.28571 L0,7.28571 L0,6.42857 L7.28571,6.42857 L7.28571,7.28571 L6.42857,7.28571 L6.42857,0 L7.28571,0 L7.28571,0.857143 L0,0.857143 L0,0 L0.857143,0"/>
        </g>
        <g class="ColorScheme-Text" font-weight="400" font-family="Noto Sans" font-size="23.3333" transform="matrix(2.33333,0,0,2.33333,9,17)" fill-opacity="1" fill="currentColor" font-style="normal" stroke="none">
            <path fill-rule="nonzero" vector-effect="none" d="M2.57143,-0.857143 L2.57143,-3.42857 L3.42857,-4.28571 L10.7143,-4.28571 L11.5714,-3.42857 L11.5714,3.85714 L10.7143,4.71429 L8.14286,4.71429 L8.14286,3 L10.7143,3 L10.7143,3.85714 L9.85714,3.85714 L9.85714,-3.42857 L10.7143,-3.42857 L10.7143,-2.57143 L3.42857,-2.57143 L3.42857,-3.42857 L4.28571,-3.42857 L4.28571,-0.857143 L2.57143,-0.857143"/>
        </g>
    </g>
</svg>
