<?xml version='1.0' encoding='UTF-8' standalone='no'?>
<svg width="6.35mm" viewBox="0 0 42 42" baseProfile="tiny" xmlns="http://www.w3.org/2000/svg" xmlns:xlink="http://www.w3.org/1999/xlink" version="1.2" height="6.35mm">
    <style id="current-color-scheme" type="text/css">.ColorScheme-Text {color:#fcfcfc;}</style>
    <title>Qt SVG Document</title>
    <desc>Auto-generated by Klassy window decoration</desc>
    <defs/>
    <g stroke-linecap="square" fill-rule="evenodd" stroke-linejoin="bevel" stroke-width="1" fill="none" stroke="black">
        <g class="ColorScheme-Text" font-weight="400" font-family="Noto Sans" font-size="23.3333" transform="matrix(2.33333,0,0,2.33333,17,17)" fill-opacity="0.650004" fill="currentColor" font-style="normal" stroke="none">
            <rect width="3.42857" y="0" x="0" height="3.42857"/>
        </g>
        <g class="ColorScheme-Text" font-weight="400" font-family="Noto Sans" font-size="23.3333" transform="matrix(2.33333,0,0,2.33333,17,17)" fill-opacity="0.850004" fill="currentColor" font-style="normal" stroke="none">
            <path fill-rule="nonzero" vector-effect="none" d="M0,-0.428571 L3.42857,-0.428571 L3.85714,0 L3.85714,3.42857 L3.42857,3.85714 L0,3.85714 L-0.428571,3.42857 L-0.428571,0 L0,-0.428571 M0.428571,0 L0.428571,3.42857 L0,3.42857 L0,3 L3.42857,3 L3.42857,3.42857 L3,3.42857 L3,0 L3.42857,0 L3.42857,0.428571 L0,0.428571 L0,0 L0.428571,0"/>
        </g>
    </g>
</svg>
