<?xml version='1.0' encoding='UTF-8' standalone='no'?>
<svg width="8.46667mm" viewBox="0 0 64 64" baseProfile="tiny" xmlns="http://www.w3.org/2000/svg" xmlns:xlink="http://www.w3.org/1999/xlink" version="1.2" height="8.46667mm">
    <style id="current-color-scheme" type="text/css">.ColorScheme-Text {color:#fcfcfc;}</style>
    <title>Qt SVG Document</title>
    <desc>Auto-generated by Klassy window decoration</desc>
    <defs/>
    <g stroke-linecap="square" fill-rule="evenodd" stroke-linejoin="bevel" stroke-width="1" fill="none" stroke="black">
        <g class="ColorScheme-Text" font-weight="400" font-family="Noto Sans" font-size="26.6667" transform="matrix(4,0,0,4,0,0)" fill-opacity="0.600015" fill="#da0016" font-style="normal" stroke="none">
            <path fill-rule="evenodd" vector-effect="none" d="M2,3.2 C2,2.53726 2.53726,2 3.2,2 L12.8,2 C13.4627,2 14,2.53726 14,3.2 L14,12.8 C14,13.4627 13.4627,14 12.8,14 L3.2,14 C2.53726,14 2,13.4627 2,12.8 L2,3.2"/>
        </g>
        <g class="ColorScheme-Text" font-weight="400" font-family="Noto Sans" font-size="26.6667" transform="matrix(3.55556,0,0,3.55556,0,0)" fill-opacity="1" fill="#ffffff" font-style="normal" stroke="none">
            <path fill-rule="nonzero" vector-effect="none" d="M4.92563,3.79312 L14.2069,13.0744 C14.5196,13.3871 14.5196,13.8941 14.2069,14.2069 C13.8941,14.5196 13.3871,14.5196 13.0744,14.2069 L3.79312,4.92563 C3.48039,4.61289 3.48039,4.10586 3.79312,3.79312 C4.10586,3.48039 4.61289,3.48039 4.92563,3.79312 "/>
            <path fill-rule="nonzero" vector-effect="none" d="M14.2069,4.92563 L4.92563,14.2069 C4.61289,14.5196 4.10586,14.5196 3.79312,14.2069 C3.48039,13.8941 3.48039,13.3871 3.79312,13.0744 L13.0744,3.79312 C13.3871,3.48039 13.8941,3.48039 14.2069,3.79312 C14.5196,4.10586 14.5196,4.61289 14.2069,4.92563 "/>
        </g>
    </g>
</svg>
