<?xml version='1.0' encoding='UTF-8' standalone='no'?>
<svg width="8.46667mm" viewBox="0 0 64 64" baseProfile="tiny" xmlns="http://www.w3.org/2000/svg" xmlns:xlink="http://www.w3.org/1999/xlink" version="1.2" height="8.46667mm">
    <style id="current-color-scheme" type="text/css">.ColorScheme-Text {color:#fcfcfc;}</style>
    <title>Qt SVG Document</title>
    <desc>Auto-generated by Klassy window decoration</desc>
    <defs/>
    <g stroke-linecap="square" fill-rule="evenodd" stroke-linejoin="bevel" stroke-width="1" fill="none" stroke="black">
        <g class="ColorScheme-Text" font-weight="400" font-family="Noto Sans" font-size="26.6667" transform="matrix(3.55556,0,0,3.55556,14.5,24.5)" fill-opacity="1" fill="currentColor" font-style="normal" stroke="none">
            <path fill-rule="nonzero" vector-effect="none" d="M0,-0.703125 L7.03125,-0.703125 L7.73438,0 L7.73438,7.03125 L7.03125,7.73438 L0,7.73438 L-0.703125,7.03125 L-0.703125,0 L0,-0.703125 M0.703125,0 L0.703125,7.03125 L0,7.03125 L0,6.32813 L7.03125,6.32813 L7.03125,7.03125 L6.32813,7.03125 L6.32813,0 L7.03125,0 L7.03125,0.703125 L0,0.703125 L0,0 L0.703125,0"/>
        </g>
        <g class="ColorScheme-Text" font-weight="400" font-family="Noto Sans" font-size="26.6667" transform="matrix(3.55556,0,0,3.55556,14.5,24.5)" fill-opacity="1" fill="currentColor" font-style="normal" stroke="none">
            <path fill-rule="nonzero" vector-effect="none" d="M2.10938,-0.703125 L2.10938,-2.8125 L2.8125,-3.51563 L9.84375,-3.51563 L10.5469,-2.8125 L10.5469,4.21875 L9.84375,4.92188 L7.73438,4.92188 L7.73438,3.51563 L9.84375,3.51563 L9.84375,4.21875 L9.14063,4.21875 L9.14063,-2.8125 L9.84375,-2.8125 L9.84375,-2.10938 L2.8125,-2.10938 L2.8125,-2.8125 L3.51563,-2.8125 L3.51563,-0.703125 L2.10938,-0.703125"/>
        </g>
    </g>
</svg>
