<?xml version='1.0' encoding='UTF-8' standalone='no'?>
<svg baseProfile="tiny" height="8.46667mm" version="1.2" viewBox="0 0 64 64" width="8.46667mm" xmlns="http://www.w3.org/2000/svg" xmlns:xlink="http://www.w3.org/1999/xlink">
    <style id="current-color-scheme" type="text/css">.ColorScheme-Text {color:#fcfcfc;}</style>
    <title>Qt SVG Document</title>
    <desc>Auto-generated by Klassy window decoration</desc>
    <defs/>
    <g fill="none" fill-rule="evenodd" stroke="black" stroke-linecap="square" stroke-linejoin="bevel" stroke-width="1">
        <g class="ColorScheme-Text" fill="currentColor" fill-opacity="1" font-family="Noto Sans" font-size="26.6667" font-style="normal" font-weight="400" stroke="none" transform="matrix(3.55556,0,0,3.55556,0,0)">
            <path d="M4.5,14.0619 L13.5,14.0619 C13.811,14.0619 14.0631,14.314 14.0631,14.625 C14.0631,14.936 13.811,15.1881 13.5,15.1881 L4.5,15.1881 C4.18903,15.1881 3.93694,14.936 3.93694,14.625 C3.93694,14.314 4.18903,14.0619 4.5,14.0619 " fill-rule="nonzero" vector-effect="none"/>
            <path d="M9.5625,9.84319 L13.5,9.84319 C13.811,9.84319 14.0631,10.0953 14.0631,10.4063 C14.0631,10.7172 13.811,10.9693 13.5,10.9693 L9.5625,10.9693 C9.25153,10.9693 8.99944,10.7172 8.99944,10.4063 C8.99944,10.0953 9.25153,9.84319 9.5625,9.84319 " fill-rule="nonzero" vector-effect="none"/>
            <path d="M9.5625,5.62444 L13.5,5.62444 C13.811,5.62444 14.0631,5.87653 14.0631,6.1875 C14.0631,6.49847 13.811,6.75056 13.5,6.75056 L9.5625,6.75056 C9.25153,6.75056 8.99944,6.49847 8.99944,6.1875 C8.99944,5.87653 9.25153,5.62444 9.5625,5.62444 " fill-rule="nonzero" vector-effect="none"/>
            <path d="M5.06306,4.5 L5.06306,12.375 C5.06306,12.686 4.81097,12.9381 4.5,12.9381 C4.18903,12.9381 3.93694,12.686 3.93694,12.375 L3.93694,4.5 C3.93694,4.18903 4.18903,3.93694 4.5,3.93694 C4.81097,3.93694 5.06306,4.18903 5.06306,4.5 " fill-rule="nonzero" vector-effect="none"/>
            <path d="M2.9294,10.0081 L4.89815,11.9769 L4.5,12.375 L4.10185,11.9769 L6.0706,10.0081 C6.29049,9.78822 6.64701,9.78822 6.8669,10.0081 C7.08678,10.228 7.08678,10.5845 6.8669,10.8044 L4.89815,12.7731 L4.5,13.1713 L4.10185,12.7731 L2.1331,10.8044 C1.91322,10.5845 1.91322,10.228 2.1331,10.0081 C2.35299,9.78822 2.70951,9.78822 2.9294,10.0081 " fill-rule="nonzero" vector-effect="none"/>
        </g>
    </g>
</svg>
