<?xml version='1.0' encoding='UTF-8' standalone='no'?>
<svg baseProfile="tiny" height="8.46667mm" version="1.2" viewBox="0 0 64 64" width="8.46667mm" xmlns="http://www.w3.org/2000/svg" xmlns:xlink="http://www.w3.org/1999/xlink">
    <style id="current-color-scheme" type="text/css">.ColorScheme-Text {color:#fcfcfc;}</style>
    <title>Qt SVG Document</title>
    <desc>Auto-generated by Klassy window decoration</desc>
    <defs/>
    <g fill="none" fill-rule="evenodd" stroke="black" stroke-linecap="square" stroke-linejoin="bevel" stroke-width="1">
        <g class="ColorScheme-Text" fill="currentColor" fill-opacity="0.949996" font-family="Noto Sans" font-size="26.6667" font-style="normal" font-weight="400" stroke="none" transform="matrix(3.55556,0,0,3.55556,14.5,24.5)">
            <path d="M0,-0.703828 L7.03125,-0.703828 L7.73508,0 L7.73508,7.03125 L7.03125,7.73508 L0,7.73508 L-0.703828,7.03125 L-0.703828,0 L0,-0.703828 M0.703828,0 L0.703828,7.03125 L0,7.03125 L0,6.32742 L7.03125,6.32742 L7.03125,7.03125 L6.32742,7.03125 L6.32742,0 L7.03125,0 L7.03125,0.703828 L0,0.703828 L0,0 L0.703828,0" fill-rule="nonzero" vector-effect="none"/>
        </g>
        <g class="ColorScheme-Text" fill="currentColor" fill-opacity="0.949996" font-family="Noto Sans" font-size="26.6667" font-style="normal" font-weight="400" stroke="none" transform="matrix(3.55556,0,0,3.55556,14.5,24.5)">
            <path d="M2.10867,-0.703828 L2.10867,-2.8125 L2.8125,-3.51633 L9.84375,-3.51633 L10.5476,-2.8125 L10.5476,4.21875 L9.84375,4.92258 L7.73508,4.92258 L7.73508,3.51492 L9.84375,3.51492 L9.84375,4.21875 L9.13992,4.21875 L9.13992,-2.8125 L9.84375,-2.8125 L9.84375,-2.10867 L2.8125,-2.10867 L2.8125,-2.8125 L3.51633,-2.8125 L3.51633,-0.703828 L2.10867,-0.703828" fill-rule="nonzero" vector-effect="none"/>
        </g>
    </g>
</svg>
