<?xml version='1.0' encoding='UTF-8' standalone='no'?>
<svg width="8.46667mm" viewBox="0 0 64 64" baseProfile="tiny" xmlns="http://www.w3.org/2000/svg" xmlns:xlink="http://www.w3.org/1999/xlink" version="1.2" height="8.46667mm">
    <style id="current-color-scheme" type="text/css">.ColorScheme-Text {color:#fcfcfc;}</style>
    <title>Qt SVG Document</title>
    <desc>Auto-generated by Klassy window decoration</desc>
    <defs/>
    <g stroke-linecap="square" fill-rule="evenodd" stroke-linejoin="bevel" stroke-width="1" fill="none" stroke="black">
        <g class="ColorScheme-Text" font-weight="400" font-family="Noto Sans" font-size="26.6667" transform="matrix(3.55556,0,0,3.55556,0,0)" fill-opacity="1" fill="currentColor" font-style="normal" stroke="none">
            <path fill-rule="nonzero" vector-effect="none" d="M3.65625,4.36054 C3.65625,4.06865 4.06865,3.65625 4.36054,3.65625 L13.6395,3.65625 C13.9313,3.65625 14.3438,4.06865 14.3438,4.36054 L14.3438,13.6395 C14.3438,13.9313 13.9313,14.3438 13.6395,14.3438 L4.36054,14.3438 C4.06865,14.3438 3.65625,13.9313 3.65625,13.6395 L3.65625,4.36054 M5.0625,4.36054 L5.0625,13.6395 C5.0625,13.3489 4.65114,12.9375 4.36054,12.9375 L13.6395,12.9375 C13.3489,12.9375 12.9375,13.3489 12.9375,13.6395 L12.9375,4.36054 C12.9375,4.65114 13.3489,5.0625 13.6395,5.0625 L4.36054,5.0625 C4.65114,5.0625 5.0625,4.65114 5.0625,4.36054 "/>
        </g>
    </g>
</svg>
