<?xml version='1.0' encoding='UTF-8' standalone='no'?>
<svg version="1.2" xmlns:xlink="http://www.w3.org/1999/xlink" viewBox="0 0 64 64" xmlns="http://www.w3.org/2000/svg" width="8.46667mm" height="8.46667mm" baseProfile="tiny">
    <style id="current-color-scheme" type="text/css">.ColorScheme-Text {color:#fcfcfc;}</style>
    <title>Qt SVG Document</title>
    <desc>Auto-generated by Klassy window decoration</desc>
    <defs/>
    <g stroke-linejoin="bevel" stroke-linecap="square" fill="none" stroke-width="1" stroke="black" fill-rule="evenodd">
        <g font-weight="400" class="ColorScheme-Text" font-size="26.6667" fill="currentColor" transform="matrix(3.55556,0,0,3.55556,14.5,24.5)" font-style="normal" stroke="none" font-family="Noto Sans" fill-opacity="1">
            <path vector-effect="none" fill-rule="nonzero" d="M0,-0.703828 L7.03125,-0.703828 L7.73508,0 L7.73508,7.03125 L7.03125,7.73508 L0,7.73508 L-0.703828,7.03125 L-0.703828,0 L0,-0.703828 M0.703828,0 L0.703828,7.03125 L0,7.03125 L0,6.32742 L7.03125,6.32742 L7.03125,7.03125 L6.32742,7.03125 L6.32742,0 L7.03125,0 L7.03125,0.703828 L0,0.703828 L0,0 L0.703828,0"/>
        </g>
        <g font-weight="400" class="ColorScheme-Text" font-size="26.6667" fill="currentColor" transform="matrix(3.55556,0,0,3.55556,14.5,24.5)" font-style="normal" stroke="none" font-family="Noto Sans" fill-opacity="1">
            <path vector-effect="none" fill-rule="nonzero" d="M2.10867,-0.703828 L2.10867,-2.8125 L2.8125,-3.51633 L9.84375,-3.51633 L10.5476,-2.8125 L10.5476,4.21875 L9.84375,4.92258 L7.73508,4.92258 L7.73508,3.51492 L9.84375,3.51492 L9.84375,4.21875 L9.13992,4.21875 L9.13992,-2.8125 L9.84375,-2.8125 L9.84375,-2.10867 L2.8125,-2.10867 L2.8125,-2.8125 L3.51633,-2.8125 L3.51633,-0.703828 L2.10867,-0.703828"/>
        </g>
    </g>
</svg>
