<?xml version='1.0' encoding='UTF-8' standalone='no'?>
<svg version="1.2" xmlns:xlink="http://www.w3.org/1999/xlink" viewBox="0 0 64 64" xmlns="http://www.w3.org/2000/svg" width="8.46667mm" height="8.46667mm" baseProfile="tiny">
    <style id="current-color-scheme" type="text/css">.ColorScheme-Text {color:#fcfcfc;}</style>
    <title>Qt SVG Document</title>
    <desc>Auto-generated by Klassy window decoration</desc>
    <defs/>
    <g stroke-linejoin="bevel" stroke-linecap="square" fill="none" stroke-width="1" stroke="black" fill-rule="evenodd">
        <g font-weight="400" class="ColorScheme-Text" font-size="26.6667" fill="currentColor" transform="matrix(3.55556,0,0,3.55556,0,0)" font-style="normal" stroke="none" font-family="Noto Sans" fill-opacity="1">
            <path vector-effect="none" fill-rule="nonzero" d="M3.9375,3.9368 L14.0625,3.9368 C14.4512,3.9368 14.7663,4.25191 14.7663,4.64063 C14.7663,5.02934 14.4512,5.34445 14.0625,5.34445 L3.9375,5.34445 C3.54879,5.34445 3.23367,5.02934 3.23367,4.64063 C3.23367,4.25191 3.54879,3.9368 3.9375,3.9368 "/>
            <path vector-effect="none" fill-rule="nonzero" d="M4.49768,7.50232 L9.49768,12.5023 L9,13 L8.50232,12.5023 L13.5023,7.50232 C13.7772,7.22746 14.2228,7.22746 14.4977,7.50232 C14.7725,7.77718 14.7725,8.22282 14.4977,8.49768 L9.49768,13.4977 L9,13.9954 L8.50232,13.4977 L3.50232,8.49768 C3.22746,8.22282 3.22746,7.77718 3.50232,7.50232 C3.77718,7.22746 4.22282,7.22746 4.49768,7.50232 "/>
        </g>
    </g>
</svg>
