<?xml version='1.0' encoding='UTF-8' standalone='no'?>
<svg baseProfile="tiny" height="8.46667mm" version="1.2" viewBox="0 0 64 64" width="8.46667mm" xmlns="http://www.w3.org/2000/svg" xmlns:xlink="http://www.w3.org/1999/xlink">
    <style id="current-color-scheme" type="text/css">.ColorScheme-Text {color:#fcfcfc;}</style>
    <title>Qt SVG Document</title>
    <desc>Auto-generated by Klassy window decoration</desc>
    <defs/>
    <g fill="none" fill-rule="evenodd" stroke="black" stroke-linecap="square" stroke-linejoin="bevel" stroke-width="1">
        <g class="ColorScheme-Text" fill="currentColor" fill-opacity="0.549996" font-family="Noto Sans" font-size="26.6667" font-style="normal" font-weight="400" stroke="none" transform="matrix(3.55556,0,0,3.55556,27,27)">
            <rect height="2.8125" width="2.8125" x="0" y="0"/>
        </g>
        <g class="ColorScheme-Text" fill="currentColor" fill-opacity="0.902495" font-family="Noto Sans" font-size="26.6667" font-style="normal" font-weight="400" stroke="none" transform="matrix(3.55556,0,0,3.55556,27,27)">
            <path d="M0,-0.563063 L2.8125,-0.563063 L3.37556,0 L3.37556,2.8125 L2.8125,3.37556 L0,3.37556 L-0.563063,2.8125 L-0.563063,0 L0,-0.563063 M0.563063,0 L0.563063,2.8125 L0,2.8125 L0,2.24944 L2.8125,2.24944 L2.8125,2.8125 L2.24944,2.8125 L2.24944,0 L2.8125,0 L2.8125,0.563063 L0,0.563063 L0,0 L0.563063,0" fill-rule="nonzero" vector-effect="none"/>
        </g>
    </g>
</svg>
