<?xml version='1.0' encoding='UTF-8' standalone='no'?>
<svg baseProfile="tiny" height="6.35mm" version="1.2" viewBox="0 0 54 54" width="6.35mm" xmlns="http://www.w3.org/2000/svg" xmlns:xlink="http://www.w3.org/1999/xlink">
    <style id="current-color-scheme" type="text/css">.ColorScheme-Text {color:#232629;}</style>
    <title>Qt SVG Document</title>
    <desc>Auto-generated by Klassy window decoration</desc>
    <defs/>
    <g fill="none" fill-rule="evenodd" stroke="black" stroke-linecap="square" stroke-linejoin="bevel" stroke-width="1">
        <g class="ColorScheme-Text" fill="currentColor" fill-opacity="1" font-family="Noto Sans" font-size="30" font-style="normal" font-weight="400" stroke="none" transform="matrix(3,0,0,3,0,0)">
            <path d="M4.33333,11.666 L8.33333,11.666 C8.70189,11.666 9.00067,11.9648 9.00067,12.3333 C9.00067,12.7019 8.70189,13.0007 8.33333,13.0007 L4.33333,13.0007 C3.96478,13.0007 3.666,12.7019 3.666,12.3333 C3.666,11.9648 3.96478,11.666 4.33333,11.666 " fill-rule="nonzero" vector-effect="none"/>
            <path d="M4.33333,7.666 L8.33333,7.666 C8.70189,7.666 9.00067,7.96478 9.00067,8.33333 C9.00067,8.70189 8.70189,9.00067 8.33333,9.00067 L4.33333,9.00067 C3.96478,9.00067 3.666,8.70189 3.666,8.33333 C3.666,7.96478 3.96478,7.666 4.33333,7.666 " fill-rule="nonzero" vector-effect="none"/>
            <path d="M4.33333,3.666 L13.3333,3.666 C13.7019,3.666 14.0007,3.96478 14.0007,4.33333 C14.0007,4.70189 13.7019,5.00067 13.3333,5.00067 L4.33333,5.00067 C3.96478,5.00067 3.666,4.70189 3.666,4.33333 C3.666,3.96478 3.96478,3.666 4.33333,3.666 " fill-rule="nonzero" vector-effect="none"/>
            <path d="M14.334,6.66667 L14.334,14.6667 C14.334,15.0352 14.0352,15.334 13.6667,15.334 C13.2981,15.334 12.9993,15.0352 12.9993,14.6667 L12.9993,6.66667 C12.9993,6.29811 13.2981,5.99933 13.6667,5.99933 C14.0352,5.99933 14.334,6.29811 14.334,6.66667 " fill-rule="nonzero" vector-effect="none"/>
            <path d="M11.1948,8.19479 L13.1948,6.19479 L13.6667,5.72291 L14.1385,6.19479 L16.1385,8.19479 C16.3992,8.4554 16.3992,8.87793 16.1385,9.13854 C15.8779,9.39915 15.4554,9.39915 15.1948,9.13854 L13.1948,7.13854 L13.6667,6.66667 L14.1385,7.13854 L12.1385,9.13854 C11.8779,9.39915 11.4554,9.39915 11.1948,9.13854 C10.9342,8.87793 10.9342,8.4554 11.1948,8.19479 " fill-rule="nonzero" vector-effect="none"/>
        </g>
    </g>
</svg>
