<?xml version='1.0' encoding='UTF-8' standalone='no'?>
<svg width="6.35mm" viewBox="0 0 54 54" baseProfile="tiny" xmlns="http://www.w3.org/2000/svg" xmlns:xlink="http://www.w3.org/1999/xlink" version="1.2" height="6.35mm">
    <style id="current-color-scheme" type="text/css">.ColorScheme-Text {color:#232629;}</style>
    <title>Qt SVG Document</title>
    <desc>Auto-generated by Klassy window decoration</desc>
    <defs/>
    <g stroke-linecap="square" fill-rule="evenodd" stroke-linejoin="bevel" stroke-width="1" fill="none" stroke="black">
        <g class="ColorScheme-Text" font-weight="400" font-family="Noto Sans" font-size="30" transform="matrix(3,0,0,3,0,0)" fill-opacity="1" fill="currentColor" font-style="normal" stroke="none">
            <path fill-rule="nonzero" vector-effect="none" d="M4.66667,14 L13.6667,14 C14.0349,14 14.3333,14.2985 14.3333,14.6667 C14.3333,15.0349 14.0349,15.3333 13.6667,15.3333 L4.66667,15.3333 C4.29848,15.3333 4,15.0349 4,14.6667 C4,14.2985 4.29848,14 4.66667,14 "/>
            <path fill-rule="nonzero" vector-effect="none" d="M9.66667,10 L13.6667,10 C14.0349,10 14.3333,10.2985 14.3333,10.6667 C14.3333,11.0349 14.0349,11.3333 13.6667,11.3333 L9.66667,11.3333 C9.29848,11.3333 9,11.0349 9,10.6667 C9,10.2985 9.29848,10 9.66667,10 "/>
            <path fill-rule="nonzero" vector-effect="none" d="M9.66667,6 L13.6667,6 C14.0349,6 14.3333,6.29848 14.3333,6.66667 C14.3333,7.03486 14.0349,7.33333 13.6667,7.33333 L9.66667,7.33333 C9.29848,7.33333 9,7.03486 9,6.66667 C9,6.29848 9.29848,6 9.66667,6 "/>
            <path fill-rule="nonzero" vector-effect="none" d="M5,4.33333 L5,12.3333 C5,12.7015 4.70152,13 4.33333,13 C3.96514,13 3.66667,12.7015 3.66667,12.3333 L3.66667,4.33333 C3.66667,3.96514 3.96514,3.66667 4.33333,3.66667 C4.70152,3.66667 5,3.96514 5,4.33333 "/>
            <path fill-rule="nonzero" vector-effect="none" d="M2.80474,9.86193 L4.80474,11.8619 L4.33333,12.3333 L3.86193,11.8619 L5.86193,9.86193 C6.12228,9.60158 6.54439,9.60158 6.80474,9.86193 C7.06509,10.1223 7.06509,10.5444 6.80474,10.8047 L4.80474,12.8047 L4.33333,13.2761 L3.86193,12.8047 L1.86193,10.8047 C1.60158,10.5444 1.60158,10.1223 1.86193,9.86193 C2.12228,9.60158 2.54439,9.60158 2.80474,9.86193 "/>
        </g>
    </g>
</svg>
