<?xml version='1.0' encoding='UTF-8' standalone='no'?>
<svg width="12.7mm" viewBox="0 0 120 120" baseProfile="tiny" xmlns="http://www.w3.org/2000/svg" xmlns:xlink="http://www.w3.org/1999/xlink" version="1.2" height="12.7mm">
    <style id="current-color-scheme" type="text/css">.ColorScheme-Text {color:#fcfcfc;}</style>
    <title>Qt SVG Document</title>
    <desc>Auto-generated by Klassy window decoration</desc>
    <defs/>
    <g stroke-linecap="square" fill-rule="evenodd" stroke-linejoin="bevel" stroke-width="1" fill="none" stroke="black">
        <g class="ColorScheme-Text" font-weight="400" font-family="Noto Sans" font-size="33.3333" transform="matrix(6.66667,0,0,6.66667,0,0)" fill-opacity="1" fill="currentColor" font-style="normal" stroke="none">
            <path fill-rule="nonzero" vector-effect="none" d="M4.5,13.95 L13.5,13.95 C13.8314,13.95 14.1,14.2186 14.1,14.55 C14.1,14.8814 13.8314,15.15 13.5,15.15 L4.5,15.15 C4.16863,15.15 3.9,14.8814 3.9,14.55 C3.9,14.2186 4.16863,13.95 4.5,13.95 "/>
            <path fill-rule="nonzero" vector-effect="none" d="M9.45,9.9 L13.5,9.9 C13.8314,9.9 14.1,10.1686 14.1,10.5 C14.1,10.8314 13.8314,11.1 13.5,11.1 L9.45,11.1 C9.11863,11.1 8.85,10.8314 8.85,10.5 C8.85,10.1686 9.11863,9.9 9.45,9.9 "/>
            <path fill-rule="nonzero" vector-effect="none" d="M9.45,5.85 L13.5,5.85 C13.8314,5.85 14.1,6.11863 14.1,6.45 C14.1,6.78137 13.8314,7.05 13.5,7.05 L9.45,7.05 C9.11863,7.05 8.85,6.78137 8.85,6.45 C8.85,6.11863 9.11863,5.85 9.45,5.85 "/>
            <path fill-rule="nonzero" vector-effect="none" d="M5.1,4.5 L5.1,12.45 C5.1,12.7814 4.83137,13.05 4.5,13.05 C4.16863,13.05 3.9,12.7814 3.9,12.45 L3.9,4.5 C3.9,4.16863 4.16863,3.9 4.5,3.9 C4.83137,3.9 5.1,4.16863 5.1,4.5 "/>
            <path fill-rule="nonzero" vector-effect="none" d="M2.97426,10.0757 L4.92426,12.0257 L4.5,12.45 L4.07574,12.0257 L6.02574,10.0757 C6.26005,9.84142 6.63995,9.84142 6.87426,10.0757 C7.10858,10.3101 7.10858,10.6899 6.87426,10.9243 L4.92426,12.8743 L4.5,13.2985 L4.07574,12.8743 L2.12574,10.9243 C1.89142,10.6899 1.89142,10.3101 2.12574,10.0757 C2.36005,9.84142 2.73995,9.84142 2.97426,10.0757 "/>
        </g>
    </g>
</svg>
