<?xml version='1.0' encoding='UTF-8' standalone='no'?>
<svg version="1.2" xmlns:xlink="http://www.w3.org/1999/xlink" viewBox="0 0 120 120" xmlns="http://www.w3.org/2000/svg" width="12.7mm" height="12.7mm" baseProfile="tiny">
    <style id="current-color-scheme" type="text/css">.ColorScheme-Text {color:#fcfcfc;}</style>
    <title>Qt SVG Document</title>
    <desc>Auto-generated by Klassy window decoration</desc>
    <defs/>
    <g stroke-linejoin="bevel" stroke-linecap="square" fill="none" stroke-width="1" stroke="black" fill-rule="evenodd">
        <g font-weight="400" class="ColorScheme-Text" font-size="33.3333" fill="currentColor" transform="matrix(6.66667,0,0,6.66667,28,46)" font-style="normal" stroke="none" font-family="Noto Sans" fill-opacity="1">
            <path vector-effect="none" fill-rule="nonzero" d="M0,-0.75075 L7.05,-0.75075 L7.80075,0 L7.80075,7.05 L7.05,7.80075 L0,7.80075 L-0.75075,7.05 L-0.75075,0 L0,-0.75075 M0.75075,0 L0.75075,7.05 L0,7.05 L0,6.29925 L7.05,6.29925 L7.05,7.05 L6.29925,7.05 L6.29925,0 L7.05,0 L7.05,0.75075 L0,0.75075 L0,0 L0.75075,0"/>
        </g>
        <g font-weight="400" class="ColorScheme-Text" font-size="33.3333" fill="currentColor" transform="matrix(6.66667,0,0,6.66667,28,46)" font-style="normal" stroke="none" font-family="Noto Sans" fill-opacity="1">
            <path vector-effect="none" fill-rule="nonzero" d="M1.94925,-0.75075 L1.94925,-2.7 L2.7,-3.45075 L9.75,-3.45075 L10.5008,-2.7 L10.5008,4.35 L9.75,5.10075 L7.80075,5.10075 L7.80075,3.59925 L9.75,3.59925 L9.75,4.35 L8.99925,4.35 L8.99925,-2.7 L9.75,-2.7 L9.75,-1.94925 L2.7,-1.94925 L2.7,-2.7 L3.45075,-2.7 L3.45075,-0.75075 L1.94925,-0.75075"/>
        </g>
    </g>
</svg>
