<?xml version='1.0' encoding='UTF-8' standalone='no'?>
<svg version="1.2" xmlns:xlink="http://www.w3.org/1999/xlink" viewBox="0 0 120 120" xmlns="http://www.w3.org/2000/svg" width="12.7mm" height="12.7mm" baseProfile="tiny">
    <style id="current-color-scheme" type="text/css">.ColorScheme-Text {color:#fcfcfc;}</style>
    <title>Qt SVG Document</title>
    <desc>Auto-generated by Klassy window decoration</desc>
    <defs/>
    <g stroke-linejoin="bevel" stroke-linecap="square" fill="none" stroke-width="1" stroke="black" fill-rule="evenodd">
        <g font-weight="400" class="ColorScheme-Text" font-size="33.3333" fill="currentColor" transform="matrix(6.66667,0,0,6.66667,49.5,49.5)" font-style="normal" stroke="none" font-family="Noto Sans" fill-opacity="0.650004">
            <rect y="0" x="0" width="3.15" height="3.15"/>
        </g>
        <g font-weight="400" class="ColorScheme-Text" font-size="33.3333" fill="currentColor" transform="matrix(6.66667,0,0,6.66667,49.5,49.5)" font-style="normal" stroke="none" font-family="Noto Sans" fill-opacity="0.850004">
            <path vector-effect="none" fill-rule="nonzero" d="M0,-0.525525 L3.15,-0.525525 L3.67552,0 L3.67552,3.15 L3.15,3.67552 L0,3.67552 L-0.525525,3.15 L-0.525525,0 L0,-0.525525 M0.525525,0 L0.525525,3.15 L0,3.15 L0,2.62447 L3.15,2.62447 L3.15,3.15 L2.62447,3.15 L2.62447,0 L3.15,0 L3.15,0.525525 L0,0.525525 L0,0 L0.525525,0"/>
        </g>
    </g>
</svg>
