<?xml version='1.0' encoding='UTF-8' standalone='no'?>
<svg width="12.7mm" viewBox="0 0 120 120" baseProfile="tiny" xmlns="http://www.w3.org/2000/svg" xmlns:xlink="http://www.w3.org/1999/xlink" version="1.2" height="12.7mm">
    <style id="current-color-scheme" type="text/css">.ColorScheme-Text {color:#fcfcfc;}</style>
    <title>Qt SVG Document</title>
    <desc>Auto-generated by Klassy window decoration</desc>
    <defs/>
    <g stroke-linecap="square" fill-rule="evenodd" stroke-linejoin="bevel" stroke-width="1" fill="none" stroke="black">
        <g class="ColorScheme-Text" font-weight="400" font-family="Noto Sans" font-size="33.3333" transform="matrix(6.66667,0,0,6.66667,0,0)" fill-opacity="1" fill="currentColor" font-style="normal" stroke="none">
            <path fill-rule="nonzero" vector-effect="none" d="M4.05,3.9 L13.95,3.9 C14.3228,3.9 14.625,4.20221 14.625,4.575 C14.625,4.94779 14.3228,5.25 13.95,5.25 L4.05,5.25 C3.67721,5.25 3.375,4.94779 3.375,4.575 C3.375,4.20221 3.67721,3.9 4.05,3.9 "/>
            <path fill-rule="nonzero" vector-effect="none" d="M3.5227,12.5227 L8.5227,7.5227 L9,7.04541 L9.4773,7.5227 L14.4773,12.5227 C14.7409,12.7863 14.7409,13.2137 14.4773,13.4773 C14.2137,13.7409 13.7863,13.7409 13.5227,13.4773 L8.5227,8.4773 L9,8 L9.4773,8.4773 L4.4773,13.4773 C4.21369,13.7409 3.78631,13.7409 3.5227,13.4773 C3.2591,13.2137 3.2591,12.7863 3.5227,12.5227 "/>
        </g>
    </g>
</svg>
