<?xml version='1.0' encoding='UTF-8' standalone='no'?>
<svg version="1.2" xmlns:xlink="http://www.w3.org/1999/xlink" viewBox="0 0 28 28" xmlns="http://www.w3.org/2000/svg" width="5.92667mm" height="5.92667mm" baseProfile="tiny">
    <style id="current-color-scheme" type="text/css">.ColorScheme-Text {color:#fcfcfc;}</style>
    <title>Qt SVG Document</title>
    <desc>Auto-generated by Klassy window decoration</desc>
    <defs/>
    <g stroke-linejoin="bevel" stroke-linecap="square" fill="none" stroke-width="1" stroke="black" fill-rule="evenodd">
        <g font-weight="400" class="ColorScheme-Text" font-size="16.6667" fill="#da0016" transform="matrix(1.75,0,0,1.75,0,0)" font-style="normal" stroke="none" font-family="Noto Sans" fill-opacity="0.719997">
            <path vector-effect="none" fill-rule="evenodd" d="M2,3.2 C2,2.53726 2.53726,2 3.2,2 L12.8,2 C13.4627,2 14,2.53726 14,3.2 L14,12.8 C14,13.4627 13.4627,14 12.8,14 L3.2,14 C2.53726,14 2,13.4627 2,12.8 L2,3.2"/>
        </g>
        <g font-weight="400" class="ColorScheme-Text" font-size="16.6667" fill="#ffffff" transform="matrix(1.55556,0,0,1.55556,0,0)" font-style="normal" stroke="none" font-family="Noto Sans" fill-opacity="1">
            <path vector-effect="none" fill-rule="nonzero" d="M4.95502,4.04498 L13.955,13.045 C14.2063,13.2963 14.2063,13.7037 13.955,13.955 C13.7037,14.2063 13.2963,14.2063 13.045,13.955 L4.04498,4.95502 C3.79367,4.70372 3.79367,4.29628 4.04498,4.04498 C4.29628,3.79367 4.70372,3.79367 4.95502,4.04498 "/>
            <path vector-effect="none" fill-rule="nonzero" d="M13.955,4.95502 L4.95502,13.955 C4.70372,14.2063 4.29628,14.2063 4.04498,13.955 C3.79367,13.7037 3.79367,13.2963 4.04498,13.045 L13.045,4.04498 C13.2963,3.79367 13.7037,3.79367 13.955,4.04498 C14.2063,4.29628 14.2063,4.70372 13.955,4.95502 "/>
        </g>
    </g>
</svg>
