<?xml version='1.0' encoding='UTF-8' standalone='no'?>
<svg width="5.92667mm" viewBox="0 0 28 28" baseProfile="tiny" xmlns="http://www.w3.org/2000/svg" xmlns:xlink="http://www.w3.org/1999/xlink" version="1.2" height="5.92667mm">
    <style id="current-color-scheme" type="text/css">.ColorScheme-Text {color:#fcfcfc;}</style>
    <title>Qt SVG Document</title>
    <desc>Auto-generated by Klassy window decoration</desc>
    <defs/>
    <g stroke-linecap="square" fill-rule="evenodd" stroke-linejoin="bevel" stroke-width="1" fill="none" stroke="black">
        <g class="ColorScheme-Text" font-weight="400" font-family="Noto Sans" font-size="16.6667" transform="matrix(1.55556,0,0,1.55556,0,0)" fill-opacity="1" fill="currentColor" font-style="normal" stroke="none">
            <path fill-rule="nonzero" vector-effect="none" d="M4.5,14.1429 L13.5,14.1429 C13.855,14.1429 14.1429,14.4307 14.1429,14.7857 C14.1429,15.1408 13.855,15.4286 13.5,15.4286 L4.5,15.4286 C4.14496,15.4286 3.85714,15.1408 3.85714,14.7857 C3.85714,14.4307 4.14496,14.1429 4.5,14.1429 "/>
            <path fill-rule="nonzero" vector-effect="none" d="M9.64286,9.64286 L13.5,9.64286 C13.855,9.64286 14.1429,9.93067 14.1429,10.2857 C14.1429,10.6408 13.855,10.9286 13.5,10.9286 L9.64286,10.9286 C9.28782,10.9286 9,10.6408 9,10.2857 C9,9.93067 9.28782,9.64286 9.64286,9.64286 "/>
            <path fill-rule="nonzero" vector-effect="none" d="M9.64286,5.14286 L13.5,5.14286 C13.855,5.14286 14.1429,5.43067 14.1429,5.78571 C14.1429,6.14075 13.855,6.42857 13.5,6.42857 L9.64286,6.42857 C9.28782,6.42857 9,6.14075 9,5.78571 C9,5.43067 9.28782,5.14286 9.64286,5.14286 "/>
            <path fill-rule="nonzero" vector-effect="none" d="M5.14286,4.5 L5.14286,12.2143 C5.14286,12.5693 4.85504,12.8571 4.5,12.8571 C4.14496,12.8571 3.85714,12.5693 3.85714,12.2143 L3.85714,4.5 C3.85714,4.14496 4.14496,3.85714 4.5,3.85714 C4.85504,3.85714 5.14286,4.14496 5.14286,4.5 "/>
            <path fill-rule="nonzero" vector-effect="none" d="M3.026,9.83115 L4.95457,11.7597 L4.5,12.2143 L4.04543,11.7597 L5.974,9.83115 C6.22505,9.58009 6.63209,9.58009 6.88314,9.83115 C7.13419,10.0822 7.13419,10.4892 6.88314,10.7403 L4.95457,12.6689 L4.5,13.1234 L4.04543,12.6689 L2.11686,10.7403 C1.86581,10.4892 1.86581,10.0822 2.11686,9.83115 C2.36791,9.58009 2.77495,9.58009 3.026,9.83115 "/>
        </g>
    </g>
</svg>
