<?xml version='1.0' encoding='UTF-8' standalone='no'?>
<svg baseProfile="tiny" height="5.92667mm" version="1.2" viewBox="0 0 28 28" width="5.92667mm" xmlns="http://www.w3.org/2000/svg" xmlns:xlink="http://www.w3.org/1999/xlink">
    <style id="current-color-scheme" type="text/css">.ColorScheme-Text {color:#fcfcfc;}</style>
    <title>Qt SVG Document</title>
    <desc>Auto-generated by Klassy window decoration</desc>
    <defs/>
    <g fill="none" fill-rule="evenodd" stroke="black" stroke-linecap="square" stroke-linejoin="bevel" stroke-width="1">
        <g class="ColorScheme-Text" fill="currentColor" fill-opacity="0.450004" font-family="Noto Sans" font-size="16.6667" font-style="normal" font-weight="400" stroke="none" transform="matrix(1.55556,0,0,1.55556,11.5,11.5)">
            <rect height="3.85714" width="3.85714" x="0" y="0"/>
        </g>
        <g class="ColorScheme-Text" fill="currentColor" fill-opacity="0.902495" font-family="Noto Sans" font-size="16.6667" font-style="normal" font-weight="400" stroke="none" transform="matrix(1.55556,0,0,1.55556,11.5,11.5)">
            <path d="M0,-0.6435 L3.85714,-0.6435 L4.50064,0 L4.50064,3.85714 L3.85714,4.50064 L0,4.50064 L-0.6435,3.85714 L-0.6435,0 L0,-0.6435 M0.6435,0 L0.6435,3.85714 L0,3.85714 L0,3.21364 L3.85714,3.21364 L3.85714,3.85714 L3.21364,3.85714 L3.21364,0 L3.85714,0 L3.85714,0.6435 L0,0.6435 L0,0 L0.6435,0" fill-rule="nonzero" vector-effect="none"/>
        </g>
    </g>
</svg>
