<?xml version='1.0' encoding='UTF-8' standalone='no'?>
<svg version="1.2" xmlns:xlink="http://www.w3.org/1999/xlink" viewBox="0 0 24 24" xmlns="http://www.w3.org/2000/svg" width="4.23333mm" height="4.23333mm" baseProfile="tiny">
    <style id="current-color-scheme" type="text/css">.ColorScheme-Text {color:#232629;}</style>
    <title>Qt SVG Document</title>
    <desc>Auto-generated by Klassy window decoration</desc>
    <defs/>
    <g stroke-linejoin="bevel" stroke-linecap="square" fill="none" stroke-width="1" stroke="black" fill-rule="evenodd">
        <g font-weight="400" class="ColorScheme-Text" font-size="20" fill="currentColor" transform="matrix(1.33333,0,0,1.33333,0,0)" font-style="normal" stroke="none" font-family="Noto Sans" fill-opacity="1">
            <path vector-effect="none" fill-rule="nonzero" d="M3.74925,4.50113 C3.74925,4.18953 4.18953,3.74925 4.50113,3.74925 L13.4989,3.74925 C13.8105,3.74925 14.2508,4.18953 14.2508,4.50113 L14.2508,13.4989 C14.2508,13.8105 13.8105,14.2508 13.4989,14.2508 L4.50113,14.2508 C4.18953,14.2508 3.74925,13.8105 3.74925,13.4989 L3.74925,4.50113 M5.25075,4.50113 L5.25075,13.4989 C5.25075,13.1885 4.81147,12.7492 4.50113,12.7492 L13.4989,12.7492 C13.1885,12.7492 12.7492,13.1885 12.7492,13.4989 L12.7492,4.50113 C12.7492,4.81147 13.1885,5.25075 13.4989,5.25075 L4.50113,5.25075 C4.81147,5.25075 5.25075,4.81147 5.25075,4.50113 "/>
        </g>
    </g>
</svg>
