<?xml version='1.0' encoding='UTF-8' standalone='no'?>
<svg baseProfile="tiny" height="4.23333mm" version="1.2" viewBox="0 0 24 24" width="4.23333mm" xmlns="http://www.w3.org/2000/svg" xmlns:xlink="http://www.w3.org/1999/xlink">
    <style id="current-color-scheme" type="text/css">.ColorScheme-Text {color:#232629;}</style>
    <title>Qt SVG Document</title>
    <desc>Auto-generated by Klassy window decoration</desc>
    <defs/>
    <g fill="none" fill-rule="evenodd" stroke="black" stroke-linecap="square" stroke-linejoin="bevel" stroke-width="1">
        <g class="ColorScheme-Text" fill="currentColor" fill-opacity="0.549996" font-family="Noto Sans" font-size="20" font-style="normal" font-weight="400" stroke="none" transform="matrix(1.33333,0,0,1.33333,9.5,9.5)">
            <rect height="3.75" width="3.75" x="0" y="0"/>
        </g>
        <g class="ColorScheme-Text" fill="currentColor" fill-opacity="0.902495" font-family="Noto Sans" font-size="20" font-style="normal" font-weight="400" stroke="none" transform="matrix(1.33333,0,0,1.33333,9.5,9.5)">
            <path d="M0,-0.375375 L3.75,-0.375375 L4.12538,0 L4.12538,3.75 L3.75,4.12538 L0,4.12538 L-0.375375,3.75 L-0.375375,0 L0,-0.375375 M0.375375,0 L0.375375,3.75 L0,3.75 L0,3.37462 L3.75,3.37462 L3.75,3.75 L3.37462,3.75 L3.37462,0 L3.75,0 L3.75,0.375375 L0,0.375375 L0,0 L0.375375,0" fill-rule="nonzero" vector-effect="none"/>
        </g>
    </g>
</svg>
