<?xml version='1.0' encoding='UTF-8' standalone='no'?>
<svg width="4.23333mm" viewBox="0 0 24 24" baseProfile="tiny" xmlns="http://www.w3.org/2000/svg" xmlns:xlink="http://www.w3.org/1999/xlink" version="1.2" height="4.23333mm">
    <style id="current-color-scheme" type="text/css">.ColorScheme-Text {color:#232629;}</style>
    <title>Qt SVG Document</title>
    <desc>Auto-generated by Klassy window decoration</desc>
    <defs/>
    <g stroke-linecap="square" fill-rule="evenodd" stroke-linejoin="bevel" stroke-width="1" fill="none" stroke="black">
        <g class="ColorScheme-Text" font-weight="400" font-family="Noto Sans" font-size="20" transform="matrix(1.33333,0,0,1.33333,0,0)" fill-opacity="1" fill="currentColor" font-style="normal" stroke="none">
            <path fill-rule="nonzero" vector-effect="none" d="M4.5,12.75 L8.25,12.75 C8.66421,12.75 9,13.0858 9,13.5 C9,13.9142 8.66421,14.25 8.25,14.25 L4.5,14.25 C4.08579,14.25 3.75,13.9142 3.75,13.5 C3.75,13.0858 4.08579,12.75 4.5,12.75 "/>
            <path fill-rule="nonzero" vector-effect="none" d="M4.5,8.25 L8.25,8.25 C8.66421,8.25 9,8.58579 9,9 C9,9.41421 8.66421,9.75 8.25,9.75 L4.5,9.75 C4.08579,9.75 3.75,9.41421 3.75,9 C3.75,8.58579 4.08579,8.25 4.5,8.25 "/>
            <path fill-rule="nonzero" vector-effect="none" d="M4.5,3.75 L13.5,3.75 C13.9142,3.75 14.25,4.08579 14.25,4.5 C14.25,4.91421 13.9142,5.25 13.5,5.25 L4.5,5.25 C4.08579,5.25 3.75,4.91421 3.75,4.5 C3.75,4.08579 4.08579,3.75 4.5,3.75 "/>
            <path fill-rule="nonzero" vector-effect="none" d="M14.25,6.75 L14.25,14.25 C14.25,14.6642 13.9142,15 13.5,15 C13.0858,15 12.75,14.6642 12.75,14.25 L12.75,6.75 C12.75,6.33579 13.0858,6 13.5,6 C13.9142,6 14.25,6.33579 14.25,6.75 "/>
            <path fill-rule="nonzero" vector-effect="none" d="M10.834,7.62596 L13.084,6.12596 L13.5,5.84861 L13.916,6.12596 L16.166,7.62596 C16.5107,7.85573 16.6038,8.32138 16.374,8.66603 C16.1443,9.01067 15.6786,9.1038 15.334,8.87404 L13.084,7.37404 L13.5,6.75 L13.916,7.37404 L11.666,8.87404 C11.3214,9.1038 10.8557,9.01067 10.626,8.66603 C10.3962,8.32138 10.4893,7.85573 10.834,7.62596 "/>
        </g>
    </g>
</svg>
