<?xml version='1.0' encoding='UTF-8' standalone='no'?>
<svg width="4.23333mm" viewBox="0 0 24 24" baseProfile="tiny" xmlns="http://www.w3.org/2000/svg" xmlns:xlink="http://www.w3.org/1999/xlink" version="1.2" height="4.23333mm">
    <style id="current-color-scheme" type="text/css">.ColorScheme-Text {color:#232629;}</style>
    <title>Qt SVG Document</title>
    <desc>Auto-generated by Klassy window decoration</desc>
    <defs/>
    <g stroke-linecap="square" fill-rule="evenodd" stroke-linejoin="bevel" stroke-width="1" fill="none" stroke="black">
        <g class="ColorScheme-Text" font-weight="400" font-family="Noto Sans" font-size="20" transform="matrix(1.33333,0,0,1.33333,0,0)" fill-opacity="1" fill="currentColor" font-style="normal" stroke="none">
            <path fill-rule="nonzero" vector-effect="none" d="M3.75,3.75 L14.25,3.75 C14.6642,3.75 15,4.08579 15,4.5 C15,4.91421 14.6642,5.25 14.25,5.25 L3.75,5.25 C3.33579,5.25 3,4.91421 3,4.5 C3,4.08579 3.33579,3.75 3.75,3.75 "/>
            <path fill-rule="nonzero" vector-effect="none" d="M4.53033,7.46967 L9.53033,12.4697 L9,13 L8.46967,12.4697 L13.4697,7.46967 C13.7626,7.17678 14.2374,7.17678 14.5303,7.46967 C14.8232,7.76256 14.8232,8.23744 14.5303,8.53033 L9.53033,13.5303 L9,14.0607 L8.46967,13.5303 L3.46967,8.53033 C3.17678,8.23744 3.17678,7.76256 3.46967,7.46967 C3.76256,7.17678 4.23744,7.17678 4.53033,7.46967 "/>
        </g>
    </g>
</svg>
