<?xml version='1.0' encoding='UTF-8' standalone='no'?>
<svg width="4.23333mm" viewBox="0 0 24 24" baseProfile="tiny" xmlns="http://www.w3.org/2000/svg" xmlns:xlink="http://www.w3.org/1999/xlink" version="1.2" height="4.23333mm">
    <style id="current-color-scheme" type="text/css">.ColorScheme-Text {color:#232629;}</style>
    <title>Qt SVG Document</title>
    <desc>Auto-generated by Klassy window decoration</desc>
    <defs/>
    <g stroke-linecap="square" fill-rule="evenodd" stroke-linejoin="bevel" stroke-width="1" fill="none" stroke="black">
        <g class="ColorScheme-Text" font-weight="400" font-family="Noto Sans" font-size="20" transform="matrix(1.33333,0,0,1.33333,5,9)" fill-opacity="1" fill="currentColor" font-style="normal" stroke="none">
            <path fill-rule="nonzero" vector-effect="none" d="M0,-0.75 L7.5,-0.75 L8.25,0 L8.25,7.5 L7.5,8.25 L0,8.25 L-0.75,7.5 L-0.75,0 L0,-0.75 M0.75,0 L0.75,7.5 L0,7.5 L0,6.75 L7.5,6.75 L7.5,7.5 L6.75,7.5 L6.75,0 L7.5,0 L7.5,0.75 L0,0.75 L0,0 L0.75,0"/>
        </g>
        <g class="ColorScheme-Text" font-weight="400" font-family="Noto Sans" font-size="20" transform="matrix(1.33333,0,0,1.33333,5,9)" fill-opacity="1" fill="currentColor" font-style="normal" stroke="none">
            <path fill-rule="nonzero" vector-effect="none" d="M2.25,-0.75 L2.25,-3 L3,-3.75 L10.5,-3.75 L11.25,-3 L11.25,4.5 L10.5,5.25 L8.25,5.25 L8.25,3.75 L10.5,3.75 L10.5,4.5 L9.75,4.5 L9.75,-3 L10.5,-3 L10.5,-2.25 L3,-2.25 L3,-3 L3.75,-3 L3.75,-0.75 L2.25,-0.75"/>
        </g>
    </g>
</svg>
