<?xml version='1.0' encoding='UTF-8' standalone='no'?>
<svg version="1.2" xmlns:xlink="http://www.w3.org/1999/xlink" viewBox="0 0 24 24" xmlns="http://www.w3.org/2000/svg" width="4.23333mm" height="4.23333mm" baseProfile="tiny">
    <style id="current-color-scheme" type="text/css">.ColorScheme-Text {color:#232629;}</style>
    <title>Qt SVG Document</title>
    <desc>Auto-generated by Klassy window decoration</desc>
    <defs/>
    <g stroke-linejoin="bevel" stroke-linecap="square" fill="none" stroke-width="1" stroke="black" fill-rule="evenodd">
        <g font-weight="400" class="ColorScheme-Text" font-size="20" fill="currentColor" transform="matrix(1.33333,0,0,1.33333,0,0)" font-style="normal" stroke="none" font-family="Noto Sans" fill-opacity="1">
            <path vector-effect="none" fill-rule="nonzero" d="M3.75,3.74925 L14.25,3.74925 C14.6646,3.74925 15.0008,4.08537 15.0008,4.5 C15.0008,4.91463 14.6646,5.25075 14.25,5.25075 L3.75,5.25075 C3.33537,5.25075 2.99925,4.91463 2.99925,4.5 C2.99925,4.08537 3.33537,3.74925 3.75,3.74925 "/>
            <path vector-effect="none" fill-rule="nonzero" d="M4.53086,7.46914 L9.53086,12.4691 L9,13 L8.46914,12.4691 L13.4691,7.46914 C13.7623,7.17595 14.2377,7.17595 14.5309,7.46914 C14.824,7.76233 14.824,8.23767 14.5309,8.53086 L9.53086,13.5309 L9,14.0617 L8.46914,13.5309 L3.46914,8.53086 C3.17595,8.23767 3.17595,7.76233 3.46914,7.46914 C3.76233,7.17595 4.23767,7.17595 4.53086,7.46914 "/>
        </g>
    </g>
</svg>
