<?xml version='1.0' encoding='UTF-8' standalone='no'?>
<svg width="4.23333mm" viewBox="0 0 24 24" baseProfile="tiny" xmlns="http://www.w3.org/2000/svg" xmlns:xlink="http://www.w3.org/1999/xlink" version="1.2" height="4.23333mm">
    <style id="current-color-scheme" type="text/css">.ColorScheme-Text {color:#232629;}</style>
    <title>Qt SVG Document</title>
    <desc>Auto-generated by Klassy window decoration</desc>
    <defs/>
    <g stroke-linecap="square" fill-rule="evenodd" stroke-linejoin="bevel" stroke-width="1" fill="none" stroke="black">
        <g class="ColorScheme-Text" font-weight="400" font-family="Noto Sans" font-size="20" transform="matrix(1.33333,0,0,1.33333,0,0)" fill-opacity="1" fill="currentColor" font-style="normal" stroke="none">
            <path fill-rule="nonzero" vector-effect="none" d="M4.5,13.5 L13.5,13.5 C13.9142,13.5 14.25,13.8358 14.25,14.25 C14.25,14.6642 13.9142,15 13.5,15 L4.5,15 C4.08579,15 3.75,14.6642 3.75,14.25 C3.75,13.8358 4.08579,13.5 4.5,13.5 "/>
            <path fill-rule="nonzero" vector-effect="none" d="M9.75,9.75 L13.5,9.75 C13.9142,9.75 14.25,10.0858 14.25,10.5 C14.25,10.9142 13.9142,11.25 13.5,11.25 L9.75,11.25 C9.33579,11.25 9,10.9142 9,10.5 C9,10.0858 9.33579,9.75 9.75,9.75 "/>
            <path fill-rule="nonzero" vector-effect="none" d="M9.75,6 L13.5,6 C13.9142,6 14.25,6.33579 14.25,6.75 C14.25,7.16421 13.9142,7.5 13.5,7.5 L9.75,7.5 C9.33579,7.5 9,7.16421 9,6.75 C9,6.33579 9.33579,6 9.75,6 "/>
            <path fill-rule="nonzero" vector-effect="none" d="M5.25,4.5 L5.25,12.75 C5.25,13.1642 4.91421,13.5 4.5,13.5 C4.08579,13.5 3.75,13.1642 3.75,12.75 L3.75,4.5 C3.75,4.08579 4.08579,3.75 4.5,3.75 C4.91421,3.75 5.25,4.08579 5.25,4.5 "/>
            <path fill-rule="nonzero" vector-effect="none" d="M2.78033,9.96967 L5.03033,12.2197 L4.5,12.75 L3.96967,12.2197 L6.21967,9.96967 C6.51256,9.67678 6.98744,9.67678 7.28033,9.96967 C7.57322,10.2626 7.57322,10.7374 7.28033,11.0303 L5.03033,13.2803 L4.5,13.8107 L3.96967,13.2803 L1.71967,11.0303 C1.42678,10.7374 1.42678,10.2626 1.71967,9.96967 C2.01256,9.67678 2.48744,9.67678 2.78033,9.96967 "/>
        </g>
    </g>
</svg>
