<?xml version='1.0' encoding='UTF-8' standalone='no'?>
<svg width="12.7mm" viewBox="0 0 108 108" baseProfile="tiny" xmlns="http://www.w3.org/2000/svg" xmlns:xlink="http://www.w3.org/1999/xlink" version="1.2" height="12.7mm">
    <style id="current-color-scheme" type="text/css">.ColorScheme-Text {color:#232629;}</style>
    <title>Qt SVG Document</title>
    <desc>Auto-generated by Klassy window decoration</desc>
    <defs/>
    <g stroke-linecap="square" fill-rule="evenodd" stroke-linejoin="bevel" stroke-width="1" fill="none" stroke="black">
        <g class="ColorScheme-Text" font-weight="400" font-family="Noto Sans" font-size="30" transform="matrix(6,0,0,6,0,0)" fill-opacity="1" fill="currentColor" font-style="normal" stroke="none">
            <path fill-rule="nonzero" vector-effect="none" d="M3.66667,4.41781 C3.66667,4.10652 4.10652,3.66667 4.41781,3.66667 L13.5822,3.66667 C13.8935,3.66667 14.3333,4.10652 14.3333,4.41781 L14.3333,13.5822 C14.3333,13.8935 13.8935,14.3333 13.5822,14.3333 L4.41781,14.3333 C4.10652,14.3333 3.66667,13.8935 3.66667,13.5822 L3.66667,4.41781 M5.16667,4.41781 L5.16667,13.5822 C5.16667,13.2722 4.72784,12.8333 4.41781,12.8333 L13.5822,12.8333 C13.2722,12.8333 12.8333,13.2722 12.8333,13.5822 L12.8333,4.41781 C12.8333,4.72784 13.2722,5.16667 13.5822,5.16667 L4.41781,5.16667 C4.72784,5.16667 5.16667,4.72784 5.16667,4.41781 "/>
        </g>
    </g>
</svg>
