<?xml version='1.0' encoding='UTF-8' standalone='no'?>
<svg version="1.2" xmlns:xlink="http://www.w3.org/1999/xlink" viewBox="0 0 108 108" xmlns="http://www.w3.org/2000/svg" width="12.7mm" height="12.7mm" baseProfile="tiny">
    <style id="current-color-scheme" type="text/css">.ColorScheme-Text {color:#232629;}</style>
    <title>Qt SVG Document</title>
    <desc>Auto-generated by Klassy window decoration</desc>
    <defs/>
    <g stroke-linejoin="bevel" stroke-linecap="square" fill="none" stroke-width="1" stroke="black" fill-rule="evenodd">
        <g font-weight="400" class="ColorScheme-Text" font-size="30" fill="#da0016" transform="matrix(6.75,0,0,6.75,0,0)" font-style="normal" stroke="none" font-family="Noto Sans" fill-opacity="0.719997">
            <path vector-effect="none" fill-rule="evenodd" d="M2,3.2 C2,2.53726 2.53726,2 3.2,2 L12.8,2 C13.4627,2 14,2.53726 14,3.2 L14,12.8 C14,13.4627 13.4627,14 12.8,14 L3.2,14 C2.53726,14 2,13.4627 2,12.8 L2,3.2"/>
        </g>
        <g font-weight="400" class="ColorScheme-Text" font-size="30" fill="#ffffff" transform="matrix(6,0,0,6,0,0)" font-style="normal" stroke="none" font-family="Noto Sans" fill-opacity="1">
            <path vector-effect="none" fill-rule="nonzero" d="M4.94753,3.88581 L14.1142,13.0525 C14.4074,13.3457 14.4074,13.821 14.1142,14.1142 C13.821,14.4074 13.3457,14.4074 13.0525,14.1142 L3.88581,4.94753 C3.59262,4.65434 3.59262,4.17899 3.88581,3.88581 C4.17899,3.59262 4.65434,3.59262 4.94753,3.88581 "/>
            <path vector-effect="none" fill-rule="nonzero" d="M14.1142,4.94753 L4.94753,14.1142 C4.65434,14.4074 4.17899,14.4074 3.88581,14.1142 C3.59262,13.821 3.59262,13.3457 3.88581,13.0525 L13.0525,3.88581 C13.3457,3.59262 13.821,3.59262 14.1142,3.88581 C14.4074,4.17899 14.4074,4.65434 14.1142,4.94753 "/>
        </g>
    </g>
</svg>
