<?xml version='1.0' encoding='UTF-8' standalone='no'?>
<svg width="12.7mm" viewBox="0 0 108 108" baseProfile="tiny" xmlns="http://www.w3.org/2000/svg" xmlns:xlink="http://www.w3.org/1999/xlink" version="1.2" height="12.7mm">
    <style id="current-color-scheme" type="text/css">.ColorScheme-Text {color:#232629;}</style>
    <title>Qt SVG Document</title>
    <desc>Auto-generated by Klassy window decoration</desc>
    <defs/>
    <g stroke-linecap="square" fill-rule="evenodd" stroke-linejoin="bevel" stroke-width="1" fill="none" stroke="black">
        <g class="ColorScheme-Text" font-weight="400" font-family="Noto Sans" font-size="30" transform="matrix(6,0,0,6,0,0)" fill-opacity="1" fill="currentColor" font-style="normal" stroke="none">
            <path fill-rule="nonzero" vector-effect="none" d="M4,3.83333 L14,3.83333 C14.3682,3.83333 14.6667,4.13181 14.6667,4.5 C14.6667,4.86819 14.3682,5.16667 14,5.16667 L4,5.16667 C3.63181,5.16667 3.33333,4.86819 3.33333,4.5 C3.33333,4.13181 3.63181,3.83333 4,3.83333 "/>
            <path fill-rule="nonzero" vector-effect="none" d="M4.4714,7.5286 L9.4714,12.5286 L9,13 L8.5286,12.5286 L13.5286,7.5286 C13.7889,7.26825 14.2111,7.26825 14.4714,7.5286 C14.7318,7.78895 14.7318,8.21105 14.4714,8.4714 L9.4714,13.4714 L9,13.9428 L8.5286,13.4714 L3.5286,8.4714 C3.26825,8.21105 3.26825,7.78895 3.5286,7.5286 C3.78895,7.26825 4.21105,7.26825 4.4714,7.5286 "/>
        </g>
    </g>
</svg>
