<?xml version='1.0' encoding='UTF-8' standalone='no'?>
<svg baseProfile="tiny" height="12.7mm" version="1.2" viewBox="0 0 108 108" width="12.7mm" xmlns="http://www.w3.org/2000/svg" xmlns:xlink="http://www.w3.org/1999/xlink">
    <style id="current-color-scheme" type="text/css">.ColorScheme-Text {color:#232629;}</style>
    <title>Qt SVG Document</title>
    <desc>Auto-generated by Klassy window decoration</desc>
    <defs/>
    <g fill="none" fill-rule="evenodd" stroke="black" stroke-linecap="square" stroke-linejoin="bevel" stroke-width="1">
        <g class="ColorScheme-Text" fill="currentColor" fill-opacity="1" font-family="Noto Sans" font-size="30" font-style="normal" font-weight="400" stroke="none" transform="matrix(6,0,0,6,0,0)">
            <path d="M4,3.83267 L14,3.83267 C14.3686,3.83267 14.6673,4.13144 14.6673,4.5 C14.6673,4.86856 14.3686,5.16733 14,5.16733 L4,5.16733 C3.63144,5.16733 3.33267,4.86856 3.33267,4.5 C3.33267,4.13144 3.63144,3.83267 4,3.83267 " fill-rule="nonzero" vector-effect="none"/>
            <path d="M4.47188,7.52812 L9.47188,12.5281 L9,13 L8.52812,12.5281 L13.5281,7.52812 C13.7887,7.26751 14.2113,7.26751 14.4719,7.52812 C14.7325,7.78873 14.7325,8.21127 14.4719,8.47188 L9.47188,13.4719 L9,13.9438 L8.52812,13.4719 L3.52812,8.47188 C3.26751,8.21127 3.26751,7.78873 3.52812,7.52812 C3.78873,7.26751 4.21127,7.26751 4.47188,7.52812 " fill-rule="nonzero" vector-effect="none"/>
        </g>
    </g>
</svg>
