<?xml version='1.0' encoding='UTF-8' standalone='no'?>
<svg version="1.2" xmlns:xlink="http://www.w3.org/1999/xlink" viewBox="0 0 132 132" xmlns="http://www.w3.org/2000/svg" width="12.7mm" height="12.7mm" baseProfile="tiny">
    <style id="current-color-scheme" type="text/css">.ColorScheme-Text {color:#fcfcfc;}</style>
    <title>Qt SVG Document</title>
    <desc>Auto-generated by Klassy window decoration</desc>
    <defs/>
    <g stroke-linejoin="bevel" stroke-linecap="square" fill="none" stroke-width="1" stroke="black" fill-rule="evenodd">
        <g font-weight="400" class="ColorScheme-Text" font-size="36.6667" fill="currentColor" transform="matrix(7.33333,0,0,7.33333,31.5,49.5)" font-style="normal" stroke="none" font-family="Noto Sans" fill-opacity="1">
            <path vector-effect="none" fill-rule="nonzero" d="M0,-0.75075 L7.09091,-0.75075 L7.84166,0 L7.84166,7.09091 L7.09091,7.84166 L0,7.84166 L-0.75075,7.09091 L-0.75075,0 L0,-0.75075 M0.75075,0 L0.75075,7.09091 L0,7.09091 L0,6.34016 L7.09091,6.34016 L7.09091,7.09091 L6.34016,7.09091 L6.34016,0 L7.09091,0 L7.09091,0.75075 L0,0.75075 L0,0 L0.75075,0"/>
        </g>
        <g font-weight="400" class="ColorScheme-Text" font-size="36.6667" fill="currentColor" transform="matrix(7.33333,0,0,7.33333,31.5,49.5)" font-style="normal" stroke="none" font-family="Noto Sans" fill-opacity="1">
            <path vector-effect="none" fill-rule="nonzero" d="M1.7038,-0.75075 L1.7038,-2.45455 L2.45455,-3.2053 L9.54545,-3.2053 L10.2962,-2.45455 L10.2962,4.63636 L9.54545,5.38711 L7.84166,5.38711 L7.84166,3.88561 L9.54545,3.88561 L9.54545,4.63636 L8.7947,4.63636 L8.7947,-2.45455 L9.54545,-2.45455 L9.54545,-1.7038 L2.45455,-1.7038 L2.45455,-2.45455 L3.2053,-2.45455 L3.2053,-0.75075 L1.7038,-0.75075"/>
        </g>
    </g>
</svg>
