<?xml version='1.0' encoding='UTF-8' standalone='no'?>
<svg version="1.2" xmlns:xlink="http://www.w3.org/1999/xlink" viewBox="0 0 132 132" xmlns="http://www.w3.org/2000/svg" width="12.7mm" height="12.7mm" baseProfile="tiny">
    <style id="current-color-scheme" type="text/css">.ColorScheme-Text {color:#fcfcfc;}</style>
    <title>Qt SVG Document</title>
    <desc>Auto-generated by Klassy window decoration</desc>
    <defs/>
    <g stroke-linejoin="bevel" stroke-linecap="square" fill="none" stroke-width="1" stroke="black" fill-rule="evenodd">
        <g font-weight="400" class="ColorScheme-Text" font-size="36.6667" fill="currentColor" transform="matrix(7.33333,0,0,7.33333,0,0)" font-style="normal" stroke="none" font-family="Noto Sans" fill-opacity="1">
            <path vector-effect="none" fill-rule="nonzero" d="M4.43182,11.9994 L8.52273,11.9994 C8.86197,11.9994 9.13698,12.2744 9.13698,12.6136 C9.13698,12.9529 8.86197,13.2279 8.52273,13.2279 L4.43182,13.2279 C4.09258,13.2279 3.81757,12.9529 3.81757,12.6136 C3.81757,12.2744 4.09258,11.9994 4.43182,11.9994 "/>
            <path vector-effect="none" fill-rule="nonzero" d="M4.43182,7.90848 L8.52273,7.90848 C8.86197,7.90848 9.13698,8.18349 9.13698,8.52273 C9.13698,8.86197 8.86197,9.13698 8.52273,9.13698 L4.43182,9.13698 C4.09258,9.13698 3.81757,8.86197 3.81757,8.52273 C3.81757,8.18349 4.09258,7.90848 4.43182,7.90848 "/>
            <path vector-effect="none" fill-rule="nonzero" d="M4.43182,3.81757 L13.4318,3.81757 C13.7711,3.81757 14.0461,4.09258 14.0461,4.43182 C14.0461,4.77106 13.7711,5.04607 13.4318,5.04607 L4.43182,5.04607 C4.09258,5.04607 3.81757,4.77106 3.81757,4.43182 C3.81757,4.09258 4.09258,3.81757 4.43182,3.81757 "/>
            <path vector-effect="none" fill-rule="nonzero" d="M14.1824,6.47727 L14.1824,14.5227 C14.1824,14.862 13.9074,15.137 13.5682,15.137 C13.2289,15.137 12.9539,14.862 12.9539,14.5227 L12.9539,6.47727 C12.9539,6.13803 13.2289,5.86302 13.5682,5.86302 C13.9074,5.86302 14.1824,6.13803 14.1824,6.47727 "/>
            <path vector-effect="none" fill-rule="nonzero" d="M11.21,8.10361 L13.1191,6.05816 L13.5682,5.57703 L14.0172,6.05816 L15.9263,8.10361 C16.1578,8.35162 16.1444,8.74031 15.8964,8.97178 C15.6484,9.20325 15.2597,9.18985 15.0282,8.94184 L13.1191,6.89639 L13.5682,6.47727 L14.0172,6.89639 L12.1081,8.94184 C11.8767,9.18985 11.488,9.20325 11.24,8.97178 C10.992,8.74031 10.9786,8.35162 11.21,8.10361 "/>
        </g>
    </g>
</svg>
