<?xml version='1.0' encoding='UTF-8' standalone='no'?>
<svg version="1.2" xmlns:xlink="http://www.w3.org/1999/xlink" viewBox="0 0 132 132" xmlns="http://www.w3.org/2000/svg" width="12.7mm" height="12.7mm" baseProfile="tiny">
    <style id="current-color-scheme" type="text/css">.ColorScheme-Text {color:#fcfcfc;}</style>
    <title>Qt SVG Document</title>
    <desc>Auto-generated by Klassy window decoration</desc>
    <defs/>
    <g stroke-linejoin="bevel" stroke-linecap="square" fill="none" stroke-width="1" stroke="black" fill-rule="evenodd">
        <g font-weight="400" class="ColorScheme-Text" font-size="36.6667" fill="currentColor" transform="matrix(7.33333,0,0,7.33333,0,0)" font-style="normal" stroke="none" font-family="Noto Sans" fill-opacity="1">
            <path vector-effect="none" fill-rule="nonzero" d="M3.95455,3.8175 L14.0455,3.8175 C14.4224,3.8175 14.728,4.12307 14.728,4.5 C14.728,4.87693 14.4224,5.1825 14.0455,5.1825 L3.95455,5.1825 C3.57761,5.1825 3.27205,4.87693 3.27205,4.5 C3.27205,4.12307 3.57761,3.8175 3.95455,3.8175 "/>
            <path vector-effect="none" fill-rule="nonzero" d="M4.4826,7.5174 L9.4826,12.5174 L9,13 L8.5174,12.5174 L13.5174,7.5174 C13.7839,7.25087 14.2161,7.25087 14.4826,7.5174 C14.7491,7.78393 14.7491,8.21607 14.4826,8.4826 L9.4826,13.4826 L9,13.9652 L8.5174,13.4826 L3.5174,8.4826 C3.25087,8.21607 3.25087,7.78393 3.5174,7.5174 C3.78393,7.25087 4.21607,7.25087 4.4826,7.5174 "/>
        </g>
    </g>
</svg>
