<?xml version='1.0' encoding='UTF-8' standalone='no'?>
<svg width="12.7mm" viewBox="0 0 132 132" baseProfile="tiny" xmlns="http://www.w3.org/2000/svg" xmlns:xlink="http://www.w3.org/1999/xlink" version="1.2" height="12.7mm">
    <style id="current-color-scheme" type="text/css">.ColorScheme-Text {color:#fcfcfc;}</style>
    <title>Qt SVG Document</title>
    <desc>Auto-generated by Klassy window decoration</desc>
    <defs/>
    <g stroke-linecap="square" fill-rule="evenodd" stroke-linejoin="bevel" stroke-width="1" fill="none" stroke="black">
        <g class="ColorScheme-Text" font-weight="400" font-family="Noto Sans" font-size="36.6667" transform="matrix(7.33333,0,0,7.33333,54.5,54.5)" fill-opacity="0.650004" fill="currentColor" font-style="normal" stroke="none">
            <rect width="3.13636" y="0" x="0" height="3.13636"/>
        </g>
        <g class="ColorScheme-Text" font-weight="400" font-family="Noto Sans" font-size="36.6667" transform="matrix(7.33333,0,0,7.33333,54.5,54.5)" fill-opacity="0.850004" fill="currentColor" font-style="normal" stroke="none">
            <path fill-rule="nonzero" vector-effect="none" d="M0,-0.477273 L3.13636,-0.477273 L3.61364,0 L3.61364,3.13636 L3.13636,3.61364 L0,3.61364 L-0.477273,3.13636 L-0.477273,0 L0,-0.477273 M0.477273,0 L0.477273,3.13636 L0,3.13636 L0,2.65909 L3.13636,2.65909 L3.13636,3.13636 L2.65909,3.13636 L2.65909,0 L3.13636,0 L3.13636,0.477273 L0,0.477273 L0,0 L0.477273,0"/>
        </g>
    </g>
</svg>
