<?xml version='1.0' encoding='UTF-8' standalone='no'?>
<svg width="12.7mm" viewBox="0 0 132 132" baseProfile="tiny" xmlns="http://www.w3.org/2000/svg" xmlns:xlink="http://www.w3.org/1999/xlink" version="1.2" height="12.7mm">
    <style id="current-color-scheme" type="text/css">.ColorScheme-Text {color:#fcfcfc;}</style>
    <title>Qt SVG Document</title>
    <desc>Auto-generated by Klassy window decoration</desc>
    <defs/>
    <g stroke-linecap="square" fill-rule="evenodd" stroke-linejoin="bevel" stroke-width="1" fill="none" stroke="black">
        <g class="ColorScheme-Text" font-weight="400" font-family="Noto Sans" font-size="36.6667" transform="matrix(7.33333,0,0,7.33333,0,0)" fill-opacity="1" fill="currentColor" font-style="normal" stroke="none">
            <path fill-rule="nonzero" vector-effect="none" d="M3.68182,4.43296 C3.68182,4.12167 4.12167,3.68182 4.43296,3.68182 L13.567,3.68182 C13.7741,3.68182 13.9515,3.75561 14.0979,3.90206 C14.2444,4.04851 14.3182,4.22585 14.3182,4.43296 L14.3182,13.567 C14.3182,13.7741 14.2444,13.9515 14.0979,14.0979 C13.9515,14.2444 13.7741,14.3182 13.567,14.3182 L4.43296,14.3182 C4.22585,14.3182 4.04851,14.2444 3.90206,14.0979 C3.75561,13.9515 3.68182,13.7741 3.68182,13.567 L3.68182,4.43296 M5.18182,4.43296 L5.18182,13.567 C5.18182,13.3599 5.10917,13.1837 4.96272,13.0373 C4.81627,12.8908 4.64007,12.8182 4.43296,12.8182 L13.567,12.8182 C13.3599,12.8182 13.1837,12.8908 13.0373,13.0373 C12.8908,13.1837 12.8182,13.3599 12.8182,13.567 L12.8182,4.43296 C12.8182,4.64007 12.8908,4.81627 13.0373,4.96272 C13.1837,5.10917 13.3599,5.18182 13.567,5.18182 L4.43296,5.18182 C4.74299,5.18182 5.18182,4.74299 5.18182,4.43296 "/>
        </g>
    </g>
</svg>
