<?xml version='1.0' encoding='UTF-8' standalone='no'?>
<svg baseProfile="tiny" height="12.7mm" version="1.2" viewBox="0 0 132 132" width="12.7mm" xmlns="http://www.w3.org/2000/svg" xmlns:xlink="http://www.w3.org/1999/xlink">
    <style id="current-color-scheme" type="text/css">.ColorScheme-Text {color:#fcfcfc;}</style>
    <title>Qt SVG Document</title>
    <desc>Auto-generated by Klassy window decoration</desc>
    <defs/>
    <g fill="none" fill-rule="evenodd" stroke="black" stroke-linecap="square" stroke-linejoin="bevel" stroke-width="1">
        <g class="ColorScheme-Text" fill="currentColor" fill-opacity="1" font-family="Noto Sans" font-size="36.6667" font-style="normal" font-weight="400" stroke="none" transform="matrix(7.33333,0,0,7.33333,0,0)">
            <path d="M3.95455,3.8175 L14.0455,3.8175 C14.4224,3.8175 14.728,4.12307 14.728,4.5 C14.728,4.87693 14.4224,5.1825 14.0455,5.1825 L3.95455,5.1825 C3.57761,5.1825 3.27205,4.87693 3.27205,4.5 C3.27205,4.12307 3.57761,3.8175 3.95455,3.8175 " fill-rule="nonzero" vector-effect="none"/>
            <path d="M3.5174,12.5174 L8.5174,7.5174 L9,7.0348 L9.4826,7.5174 L14.4826,12.5174 C14.7491,12.7839 14.7491,13.2161 14.4826,13.4826 C14.2161,13.7491 13.7839,13.7491 13.5174,13.4826 L8.5174,8.4826 L9,8 L9.4826,8.4826 L4.4826,13.4826 C4.21607,13.7491 3.78393,13.7491 3.5174,13.4826 C3.25087,13.2161 3.25087,12.7839 3.5174,12.5174 " fill-rule="nonzero" vector-effect="none"/>
        </g>
    </g>
</svg>
