<?xml version='1.0' encoding='UTF-8' standalone='no'?>
<svg version="1.2" xmlns:xlink="http://www.w3.org/1999/xlink" viewBox="0 0 132 132" xmlns="http://www.w3.org/2000/svg" width="12.7mm" height="12.7mm" baseProfile="tiny">
    <style id="current-color-scheme" type="text/css">.ColorScheme-Text {color:#fcfcfc;}</style>
    <title>Qt SVG Document</title>
    <desc>Auto-generated by Klassy window decoration</desc>
    <defs/>
    <g stroke-linejoin="bevel" stroke-linecap="square" fill="none" stroke-width="1" stroke="black" fill-rule="evenodd">
        <g font-weight="400" class="ColorScheme-Text" font-size="36.6667" fill="currentColor" transform="matrix(7.33333,0,0,7.33333,0,0)" font-style="normal" stroke="none" font-family="Noto Sans" fill-opacity="1">
            <path vector-effect="none" fill-rule="nonzero" d="M4.56818,13.9085 L13.5682,13.9085 C13.9074,13.9085 14.1824,14.1835 14.1824,14.5227 C14.1824,14.862 13.9074,15.137 13.5682,15.137 L4.56818,15.137 C4.22894,15.137 3.95393,14.862 3.95393,14.5227 C3.95393,14.1835 4.22894,13.9085 4.56818,13.9085 "/>
            <path vector-effect="none" fill-rule="nonzero" d="M9.47727,9.81757 L13.5682,9.81757 C13.9074,9.81757 14.1824,10.0926 14.1824,10.4318 C14.1824,10.7711 13.9074,11.0461 13.5682,11.0461 L9.47727,11.0461 C9.13803,11.0461 8.86302,10.7711 8.86302,10.4318 C8.86302,10.0926 9.13803,9.81757 9.47727,9.81757 "/>
            <path vector-effect="none" fill-rule="nonzero" d="M9.47727,5.72666 L13.5682,5.72666 C13.9074,5.72666 14.1824,6.00167 14.1824,6.34091 C14.1824,6.68015 13.9074,6.95516 13.5682,6.95516 L9.47727,6.95516 C9.13803,6.95516 8.86302,6.68015 8.86302,6.34091 C8.86302,6.00167 9.13803,5.72666 9.47727,5.72666 "/>
            <path vector-effect="none" fill-rule="nonzero" d="M5.04607,4.43182 L5.04607,12.4773 C5.04607,12.8165 4.77106,13.0915 4.43182,13.0915 C4.09258,13.0915 3.81757,12.8165 3.81757,12.4773 L3.81757,4.43182 C3.81757,4.09258 4.09258,3.81757 4.43182,3.81757 C4.77106,3.81757 5.04607,4.09258 5.04607,4.43182 "/>
            <path vector-effect="none" fill-rule="nonzero" d="M2.97178,10.0127 L4.88087,12.0582 L4.43182,12.4773 L3.98277,12.0582 L5.89186,10.0127 C6.12333,9.7647 6.51202,9.7513 6.76002,9.98277 C7.00803,10.2142 7.02143,10.6029 6.78996,10.8509 L4.88087,12.8964 L4.43182,13.3775 L3.98277,12.8964 L2.07368,10.8509 C1.84221,10.6029 1.85561,10.2142 2.10361,9.98277 C2.35162,9.7513 2.74031,9.7647 2.97178,10.0127 "/>
        </g>
    </g>
</svg>
