<?xml version='1.0' encoding='UTF-8' standalone='no'?>
<svg baseProfile="tiny" height="12.7mm" version="1.2" viewBox="0 0 132 132" width="12.7mm" xmlns="http://www.w3.org/2000/svg" xmlns:xlink="http://www.w3.org/1999/xlink">
    <style id="current-color-scheme" type="text/css">.ColorScheme-Text {color:#fcfcfc;}</style>
    <title>Qt SVG Document</title>
    <desc>Auto-generated by Klassy window decoration</desc>
    <defs/>
    <g fill="none" fill-rule="evenodd" stroke="black" stroke-linecap="square" stroke-linejoin="bevel" stroke-width="1">
        <g class="ColorScheme-Text" fill="currentColor" fill-opacity="0.949996" font-family="Noto Sans" font-size="36.6667" font-style="normal" font-weight="400" stroke="none" transform="matrix(7.33333,0,0,7.33333,0,0)">
            <path d="M3.68107,4.43296 C3.68107,4.12136 4.12136,3.68107 4.43296,3.68107 L13.567,3.68107 C13.7744,3.68107 13.9519,3.75494 14.0985,3.90153 C14.2451,4.04812 14.3189,4.22565 14.3189,4.43296 L14.3189,13.567 C14.3189,13.7744 14.2451,13.9519 14.0985,14.0985 C13.9519,14.2451 13.7744,14.3189 13.567,14.3189 L4.43296,14.3189 C4.22565,14.3189 4.04812,14.2451 3.90153,14.0985 C3.75494,13.9519 3.68107,13.7744 3.68107,13.567 L3.68107,4.43296 M5.18257,4.43296 L5.18257,13.567 C5.18257,13.3597 5.10984,13.1833 4.96325,13.0368 C4.81666,12.8902 4.64027,12.8174 4.43296,12.8174 L13.567,12.8174 C13.3597,12.8174 13.1833,12.8902 13.0368,13.0368 C12.8902,13.1833 12.8174,13.3597 12.8174,13.567 L12.8174,4.43296 C12.8174,4.64027 12.8902,4.81666 13.0368,4.96325 C13.1833,5.10984 13.3597,5.18257 13.567,5.18257 L4.43296,5.18257 C4.7433,5.18257 5.18257,4.7433 5.18257,4.43296 " fill-rule="nonzero" vector-effect="none"/>
        </g>
    </g>
</svg>
