<?xml version='1.0' encoding='UTF-8' standalone='no'?>
<svg width="12.7mm" viewBox="0 0 132 132" baseProfile="tiny" xmlns="http://www.w3.org/2000/svg" xmlns:xlink="http://www.w3.org/1999/xlink" version="1.2" height="12.7mm">
    <style id="current-color-scheme" type="text/css">.ColorScheme-Text {color:#fcfcfc;}</style>
    <title>Qt SVG Document</title>
    <desc>Auto-generated by Klassy window decoration</desc>
    <defs/>
    <g stroke-linecap="square" fill-rule="evenodd" stroke-linejoin="bevel" stroke-width="1" fill="none" stroke="black">
        <g class="ColorScheme-Text" font-weight="400" font-family="Noto Sans" font-size="36.6667" transform="matrix(7.33333,0,0,7.33333,0,0)" fill-opacity="1" fill="currentColor" font-style="normal" stroke="none">
            <path fill-rule="nonzero" vector-effect="none" d="M3.95455,3.81818 L14.0455,3.81818 C14.422,3.81818 14.7273,4.12344 14.7273,4.5 C14.7273,4.87656 14.422,5.18182 14.0455,5.18182 L3.95455,5.18182 C3.57799,5.18182 3.27273,4.87656 3.27273,4.5 C3.27273,4.12344 3.57799,3.81818 3.95455,3.81818 "/>
            <path fill-rule="nonzero" vector-effect="none" d="M4.48212,7.51788 L9.48212,12.5179 L9,13 L8.51788,12.5179 L13.5179,7.51788 C13.7841,7.25162 14.2159,7.25162 14.4821,7.51788 C14.7484,7.78415 14.7484,8.21585 14.4821,8.48212 L9.48212,13.4821 L9,13.9642 L8.51788,13.4821 L3.51788,8.48212 C3.25162,8.21585 3.25162,7.78415 3.51788,7.51788 C3.78415,7.25162 4.21585,7.25162 4.48212,7.51788 "/>
        </g>
    </g>
</svg>
