<?xml version='1.0' encoding='UTF-8' standalone='no'?>
<svg baseProfile="tiny" height="4.23333mm" version="1.2" viewBox="0 0 40 40" width="4.23333mm" xmlns="http://www.w3.org/2000/svg" xmlns:xlink="http://www.w3.org/1999/xlink">
    <style id="current-color-scheme" type="text/css">.ColorScheme-Text {color:#fcfcfc;}</style>
    <title>Qt SVG Document</title>
    <desc>Auto-generated by Klassy window decoration</desc>
    <defs/>
    <g fill="none" fill-rule="evenodd" stroke="black" stroke-linecap="square" stroke-linejoin="bevel" stroke-width="1">
        <g class="ColorScheme-Text" fill="#da0016" fill-opacity="0.719997" font-family="Noto Sans" font-size="33.3333" font-style="normal" font-weight="400" stroke="none" transform="matrix(2.5,0,0,2.5,0,0)">
            <path d="M2,3.2 C2,2.53726 2.53726,2 3.2,2 L12.8,2 C13.4627,2 14,2.53726 14,3.2 L14,12.8 C14,13.4627 13.4627,14 12.8,14 L3.2,14 C2.53726,14 2,13.4627 2,12.8 L2,3.2" fill-rule="evenodd" vector-effect="none"/>
        </g>
        <g class="ColorScheme-Text" fill="#ffffff" fill-opacity="1" font-family="Noto Sans" font-size="33.3333" font-style="normal" font-weight="400" stroke="none" transform="matrix(2.22222,0,0,2.22222,0,0)">
            <path d="M4.75277,3.79723 L14.2028,13.2472 C14.4666,13.5111 14.4666,13.9389 14.2028,14.2028 C13.9389,14.4666 13.5111,14.4666 13.2472,14.2028 L3.79723,4.75277 C3.53336,4.48891 3.53336,4.06109 3.79723,3.79723 C4.06109,3.53336 4.48891,3.53336 4.75277,3.79723 " fill-rule="nonzero" vector-effect="none"/>
            <path d="M14.2028,4.75277 L4.75277,14.2028 C4.48891,14.4666 4.06109,14.4666 3.79723,14.2028 C3.53336,13.9389 3.53336,13.5111 3.79723,13.2472 L13.2472,3.79723 C13.5111,3.53336 13.9389,3.53336 14.2028,3.79723 C14.4666,4.06109 14.4666,4.48891 14.2028,4.75277 " fill-rule="nonzero" vector-effect="none"/>
        </g>
    </g>
</svg>
