<?xml version='1.0' encoding='UTF-8' standalone='no'?>
<svg baseProfile="tiny" height="4.23333mm" version="1.2" viewBox="0 0 40 40" width="4.23333mm" xmlns="http://www.w3.org/2000/svg" xmlns:xlink="http://www.w3.org/1999/xlink">
    <style id="current-color-scheme" type="text/css">.ColorScheme-Text {color:#fcfcfc;}</style>
    <title>Qt SVG Document</title>
    <desc>Auto-generated by Klassy window decoration</desc>
    <defs/>
    <g fill="none" fill-rule="evenodd" stroke="black" stroke-linecap="square" stroke-linejoin="bevel" stroke-width="1">
        <g class="ColorScheme-Text" fill="currentColor" fill-opacity="0.549996" font-family="Noto Sans" font-size="33.3333" font-style="normal" font-weight="400" stroke="none" transform="matrix(2.22222,0,0,2.22222,17,17)">
            <rect height="2.7" width="2.7" x="0" y="0"/>
        </g>
        <g class="ColorScheme-Text" fill="currentColor" fill-opacity="0.902495" font-family="Noto Sans" font-size="33.3333" font-style="normal" font-weight="400" stroke="none" transform="matrix(2.22222,0,0,2.22222,17,17)">
            <path d="M0,-0.45045 L2.7,-0.45045 L3.15045,0 L3.15045,2.7 L2.7,3.15045 L0,3.15045 L-0.45045,2.7 L-0.45045,0 L0,-0.45045 M0.45045,0 L0.45045,2.7 L0,2.7 L0,2.24955 L2.7,2.24955 L2.7,2.7 L2.24955,2.7 L2.24955,0 L2.7,0 L2.7,0.45045 L0,0.45045 L0,0 L0.45045,0" fill-rule="nonzero" vector-effect="none"/>
        </g>
    </g>
</svg>
