<?xml version='1.0' encoding='UTF-8' standalone='no'?>
<svg width="4.23333mm" viewBox="0 0 40 40" baseProfile="tiny" xmlns="http://www.w3.org/2000/svg" xmlns:xlink="http://www.w3.org/1999/xlink" version="1.2" height="4.23333mm">
    <style id="current-color-scheme" type="text/css">.ColorScheme-Text {color:#fcfcfc;}</style>
    <title>Qt SVG Document</title>
    <desc>Auto-generated by Klassy window decoration</desc>
    <defs/>
    <g stroke-linecap="square" fill-rule="evenodd" stroke-linejoin="bevel" stroke-width="1" fill="none" stroke="black">
        <g class="ColorScheme-Text" font-weight="400" font-family="Noto Sans" font-size="33.3333" transform="matrix(2.22222,0,0,2.22222,0,0)" fill-opacity="1" fill="currentColor" font-style="normal" stroke="none">
            <path fill-rule="nonzero" vector-effect="none" d="M4.725,13.95 L13.725,13.95 C14.0978,13.95 14.4,14.2522 14.4,14.625 C14.4,14.9978 14.0978,15.3 13.725,15.3 L4.725,15.3 C4.35221,15.3 4.05,14.9978 4.05,14.625 C4.05,14.2522 4.35221,13.95 4.725,13.95 "/>
            <path fill-rule="nonzero" vector-effect="none" d="M9.675,9.9 L13.725,9.9 C14.0978,9.9 14.4,10.2022 14.4,10.575 C14.4,10.9478 14.0978,11.25 13.725,11.25 L9.675,11.25 C9.30221,11.25 9,10.9478 9,10.575 C9,10.2022 9.30221,9.9 9.675,9.9 "/>
            <path fill-rule="nonzero" vector-effect="none" d="M9.675,5.85 L13.725,5.85 C14.0978,5.85 14.4,6.15221 14.4,6.525 C14.4,6.89779 14.0978,7.2 13.725,7.2 L9.675,7.2 C9.30221,7.2 9,6.89779 9,6.525 C9,6.15221 9.30221,5.85 9.675,5.85 "/>
            <path fill-rule="nonzero" vector-effect="none" d="M4.95,4.275 L4.95,12.375 C4.95,12.7478 4.64779,13.05 4.275,13.05 C3.90221,13.05 3.6,12.7478 3.6,12.375 L3.6,4.275 C3.6,3.90221 3.90221,3.6 4.275,3.6 C4.64779,3.6 4.95,3.90221 4.95,4.275 "/>
            <path fill-rule="nonzero" vector-effect="none" d="M2.9523,10.0977 L4.7523,11.8977 L4.275,12.375 L3.7977,11.8977 L5.5977,10.0977 C5.86131,9.8341 6.28869,9.8341 6.5523,10.0977 C6.8159,10.3613 6.8159,10.7887 6.5523,11.0523 L4.7523,12.8523 L4.275,13.3296 L3.7977,12.8523 L1.9977,11.0523 C1.7341,10.7887 1.7341,10.3613 1.9977,10.0977 C2.26131,9.8341 2.68869,9.8341 2.9523,10.0977 "/>
        </g>
    </g>
</svg>
