<?xml version='1.0' encoding='UTF-8' standalone='no'?>
<svg baseProfile="tiny" height="4.23333mm" version="1.2" viewBox="0 0 40 40" width="4.23333mm" xmlns="http://www.w3.org/2000/svg" xmlns:xlink="http://www.w3.org/1999/xlink">
    <style id="current-color-scheme" type="text/css">.ColorScheme-Text {color:#fcfcfc;}</style>
    <title>Qt SVG Document</title>
    <desc>Auto-generated by Klassy window decoration</desc>
    <defs/>
    <g fill="none" fill-rule="evenodd" stroke="black" stroke-linecap="square" stroke-linejoin="bevel" stroke-width="1">
        <g class="ColorScheme-Text" fill="currentColor" fill-opacity="1" font-family="Noto Sans" font-size="33.3333" font-style="normal" font-weight="400" stroke="none" transform="matrix(2.22222,0,0,2.22222,0,0)">
            <path d="M4.725,13.9493 L13.725,13.9493 C14.0982,13.9493 14.4007,14.2518 14.4007,14.625 C14.4007,14.9982 14.0982,15.3007 13.725,15.3007 L4.725,15.3007 C4.35184,15.3007 4.04932,14.9982 4.04932,14.625 C4.04932,14.2518 4.35184,13.9493 4.725,13.9493 " fill-rule="nonzero" vector-effect="none"/>
            <path d="M9.675,9.89932 L13.725,9.89932 C14.0982,9.89932 14.4007,10.2018 14.4007,10.575 C14.4007,10.9482 14.0982,11.2507 13.725,11.2507 L9.675,11.2507 C9.30184,11.2507 8.99932,10.9482 8.99932,10.575 C8.99932,10.2018 9.30184,9.89932 9.675,9.89932 " fill-rule="nonzero" vector-effect="none"/>
            <path d="M9.675,5.84932 L13.725,5.84932 C14.0982,5.84932 14.4007,6.15184 14.4007,6.525 C14.4007,6.89816 14.0982,7.20067 13.725,7.20067 L9.675,7.20067 C9.30184,7.20067 8.99932,6.89816 8.99932,6.525 C8.99932,6.15184 9.30184,5.84932 9.675,5.84932 " fill-rule="nonzero" vector-effect="none"/>
            <path d="M4.95067,4.275 L4.95067,12.375 C4.95067,12.7482 4.64816,13.0507 4.275,13.0507 C3.90184,13.0507 3.59932,12.7482 3.59932,12.375 L3.59932,4.275 C3.59932,3.90184 3.90184,3.59932 4.275,3.59932 C4.64816,3.59932 4.95067,3.90184 4.95067,4.275 " fill-rule="nonzero" vector-effect="none"/>
            <path d="M2.95277,10.0972 L4.75277,11.8972 L4.275,12.375 L3.79723,11.8972 L5.59723,10.0972 C5.86109,9.83336 6.28891,9.83336 6.55277,10.0972 C6.81664,10.3611 6.81664,10.7889 6.55277,11.0528 L4.75277,12.8528 L4.275,13.3305 L3.79723,12.8528 L1.99723,11.0528 C1.73336,10.7889 1.73336,10.3611 1.99723,10.0972 C2.26109,9.83336 2.68891,9.83336 2.95277,10.0972 " fill-rule="nonzero" vector-effect="none"/>
        </g>
    </g>
</svg>
