<?xml version='1.0' encoding='UTF-8' standalone='no'?>
<svg version="1.2" xmlns:xlink="http://www.w3.org/1999/xlink" viewBox="0 0 40 40" xmlns="http://www.w3.org/2000/svg" width="4.23333mm" height="4.23333mm" baseProfile="tiny">
    <style id="current-color-scheme" type="text/css">.ColorScheme-Text {color:#fcfcfc;}</style>
    <title>Qt SVG Document</title>
    <desc>Auto-generated by Klassy window decoration</desc>
    <defs/>
    <g stroke-linejoin="bevel" stroke-linecap="square" fill="none" stroke-width="1" stroke="black" fill-rule="evenodd">
        <g font-weight="400" class="ColorScheme-Text" font-size="33.3333" fill="currentColor" transform="matrix(2.22222,0,0,2.22222,17,17)" font-style="normal" stroke="none" font-family="Noto Sans" fill-opacity="0.650004">
            <rect y="0" x="0" width="2.7" height="2.7"/>
        </g>
        <g font-weight="400" class="ColorScheme-Text" font-size="33.3333" fill="currentColor" transform="matrix(2.22222,0,0,2.22222,17,17)" font-style="normal" stroke="none" font-family="Noto Sans" fill-opacity="0.850004">
            <path vector-effect="none" fill-rule="nonzero" d="M0,-0.45045 L2.7,-0.45045 L3.15045,0 L3.15045,2.7 L2.7,3.15045 L0,3.15045 L-0.45045,2.7 L-0.45045,0 L0,-0.45045 M0.45045,0 L0.45045,2.7 L0,2.7 L0,2.24955 L2.7,2.24955 L2.7,2.7 L2.24955,2.7 L2.24955,0 L2.7,0 L2.7,0.45045 L0,0.45045 L0,0 L0.45045,0"/>
        </g>
    </g>
</svg>
