<?xml version='1.0' encoding='UTF-8' standalone='no'?>
<svg version="1.2" xmlns:xlink="http://www.w3.org/1999/xlink" viewBox="0 0 45 45" xmlns="http://www.w3.org/2000/svg" width="5.29167mm" height="5.29167mm" baseProfile="tiny">
    <style id="current-color-scheme" type="text/css">.ColorScheme-Text {color:#fcfcfc;}</style>
    <title>Qt SVG Document</title>
    <desc>Auto-generated by Klassy window decoration</desc>
    <defs/>
    <g stroke-linejoin="bevel" stroke-linecap="square" fill="none" stroke-width="1" stroke="black" fill-rule="evenodd">
        <g font-weight="400" class="ColorScheme-Text" font-size="30" fill="currentColor" transform="matrix(2.5,0,0,2.5,10,18)" font-style="normal" stroke="none" font-family="Noto Sans" fill-opacity="1">
            <path vector-effect="none" fill-rule="nonzero" d="M0,-0.8008 L7.2,-0.8008 L8.0008,0 L8.0008,7.2 L7.2,8.0008 L0,8.0008 L-0.8008,7.2 L-0.8008,0 L0,-0.8008 M0.8008,0 L0.8008,7.2 L0,7.2 L0,6.3992 L7.2,6.3992 L7.2,7.2 L6.3992,7.2 L6.3992,0 L7.2,0 L7.2,0.8008 L0,0.8008 L0,0 L0.8008,0"/>
        </g>
        <g font-weight="400" class="ColorScheme-Text" font-size="30" fill="currentColor" transform="matrix(2.5,0,0,2.5,10,18)" font-style="normal" stroke="none" font-family="Noto Sans" fill-opacity="1">
            <path vector-effect="none" fill-rule="nonzero" d="M2.3992,-0.8008 L2.3992,-3.2 L3.2,-4.0008 L10.4,-4.0008 L11.2008,-3.2 L11.2008,4 L10.4,4.8008 L8.0008,4.8008 L8.0008,3.1992 L10.4,3.1992 L10.4,4 L9.5992,4 L9.5992,-3.2 L10.4,-3.2 L10.4,-2.3992 L3.2,-2.3992 L3.2,-3.2 L4.0008,-3.2 L4.0008,-0.8008 L2.3992,-0.8008"/>
        </g>
    </g>
</svg>
