<?xml version='1.0' encoding='UTF-8' standalone='no'?>
<svg baseProfile="tiny" height="5.29167mm" version="1.2" viewBox="0 0 45 45" width="5.29167mm" xmlns="http://www.w3.org/2000/svg" xmlns:xlink="http://www.w3.org/1999/xlink">
    <style id="current-color-scheme" type="text/css">.ColorScheme-Text {color:#fcfcfc;}</style>
    <title>Qt SVG Document</title>
    <desc>Auto-generated by Klassy window decoration</desc>
    <defs/>
    <g fill="none" fill-rule="evenodd" stroke="black" stroke-linecap="square" stroke-linejoin="bevel" stroke-width="1">
        <g class="ColorScheme-Text" fill="currentColor" fill-opacity="1" font-family="Noto Sans" font-size="30" font-style="normal" font-weight="400" stroke="none" transform="matrix(2.5,0,0,2.5,0,0)">
            <path d="M4,3.9994 L14,3.9994 C14.3317,3.9994 14.6006,4.2683 14.6006,4.6 C14.6006,4.9317 14.3317,5.2006 14,5.2006 L4,5.2006 C3.6683,5.2006 3.3994,4.9317 3.3994,4.6 C3.3994,4.2683 3.6683,3.9994 4,3.9994 " fill-rule="nonzero" vector-effect="none"/>
            <path d="M3.57531,12.5753 L8.57531,7.57531 L9,7.15062 L9.42469,7.57531 L14.4247,12.5753 C14.6592,12.8099 14.6592,13.1901 14.4247,13.4247 C14.1901,13.6592 13.8099,13.6592 13.5753,13.4247 L8.57531,8.42469 L9,8 L9.42469,8.42469 L4.42469,13.4247 C4.19014,13.6592 3.80986,13.6592 3.57531,13.4247 C3.34076,13.1901 3.34076,12.8099 3.57531,12.5753 " fill-rule="nonzero" vector-effect="none"/>
        </g>
    </g>
</svg>
