<?xml version='1.0' encoding='UTF-8' standalone='no'?>
<svg baseProfile="tiny" height="5.29167mm" version="1.2" viewBox="0 0 45 45" width="5.29167mm" xmlns="http://www.w3.org/2000/svg" xmlns:xlink="http://www.w3.org/1999/xlink">
    <style id="current-color-scheme" type="text/css">.ColorScheme-Text {color:#fcfcfc;}</style>
    <title>Qt SVG Document</title>
    <desc>Auto-generated by Klassy window decoration</desc>
    <defs/>
    <g fill="none" fill-rule="evenodd" stroke="black" stroke-linecap="square" stroke-linejoin="bevel" stroke-width="1">
        <g class="ColorScheme-Text" fill="currentColor" fill-opacity="0.949996" font-family="Noto Sans" font-size="30" font-style="normal" font-weight="400" stroke="none" transform="matrix(2.5,0,0,2.5,10,18)">
            <path d="M0,-0.8008 L7.2,-0.8008 L8.0008,0 L8.0008,7.2 L7.2,8.0008 L0,8.0008 L-0.8008,7.2 L-0.8008,0 L0,-0.8008 M0.8008,0 L0.8008,7.2 L0,7.2 L0,6.3992 L7.2,6.3992 L7.2,7.2 L6.3992,7.2 L6.3992,0 L7.2,0 L7.2,0.8008 L0,0.8008 L0,0 L0.8008,0" fill-rule="nonzero" vector-effect="none"/>
        </g>
        <g class="ColorScheme-Text" fill="currentColor" fill-opacity="0.949996" font-family="Noto Sans" font-size="30" font-style="normal" font-weight="400" stroke="none" transform="matrix(2.5,0,0,2.5,10,18)">
            <path d="M2.3992,-0.8008 L2.3992,-3.2 L3.2,-4.0008 L10.4,-4.0008 L11.2008,-3.2 L11.2008,4 L10.4,4.8008 L8.0008,4.8008 L8.0008,3.1992 L10.4,3.1992 L10.4,4 L9.5992,4 L9.5992,-3.2 L10.4,-3.2 L10.4,-2.3992 L3.2,-2.3992 L3.2,-3.2 L4.0008,-3.2 L4.0008,-0.8008 L2.3992,-0.8008" fill-rule="nonzero" vector-effect="none"/>
        </g>
    </g>
</svg>
