<?xml version='1.0' encoding='UTF-8' standalone='no'?>
<svg width="5.29167mm" viewBox="0 0 45 45" baseProfile="tiny" xmlns="http://www.w3.org/2000/svg" xmlns:xlink="http://www.w3.org/1999/xlink" version="1.2" height="5.29167mm">
    <style id="current-color-scheme" type="text/css">.ColorScheme-Text {color:#fcfcfc;}</style>
    <title>Qt SVG Document</title>
    <desc>Auto-generated by Klassy window decoration</desc>
    <defs/>
    <g stroke-linecap="square" fill-rule="evenodd" stroke-linejoin="bevel" stroke-width="1" fill="none" stroke="black">
        <g class="ColorScheme-Text" font-weight="400" font-family="Noto Sans" font-size="30" transform="matrix(2.5,0,0,2.5,0,0)" fill-opacity="1" fill="currentColor" font-style="normal" stroke="none">
            <path fill-rule="nonzero" vector-effect="none" d="M4.96625,3.83375 L14.5663,13.4337 C14.879,13.7465 14.879,14.2535 14.5663,14.5663 C14.2535,14.879 13.7465,14.879 13.4337,14.5663 L3.83375,4.96625 C3.52102,4.65352 3.52102,4.14648 3.83375,3.83375 C4.14648,3.52102 4.65352,3.52102 4.96625,3.83375 "/>
            <path fill-rule="nonzero" vector-effect="none" d="M14.5663,4.96625 L4.96625,14.5663 C4.65352,14.879 4.14648,14.879 3.83375,14.5663 C3.52102,14.2535 3.52102,13.7465 3.83375,13.4337 L13.4337,3.83375 C13.7465,3.52102 14.2535,3.52102 14.5663,3.83375 C14.879,4.14648 14.879,4.65352 14.5663,4.96625 "/>
        </g>
    </g>
</svg>
