<?xml version='1.0' encoding='UTF-8' standalone='no'?>
<svg width="5.29167mm" viewBox="0 0 45 45" baseProfile="tiny" xmlns="http://www.w3.org/2000/svg" xmlns:xlink="http://www.w3.org/1999/xlink" version="1.2" height="5.29167mm">
    <style id="current-color-scheme" type="text/css">.ColorScheme-Text {color:#fcfcfc;}</style>
    <title>Qt SVG Document</title>
    <desc>Auto-generated by Klassy window decoration</desc>
    <defs/>
    <g stroke-linecap="square" fill-rule="evenodd" stroke-linejoin="bevel" stroke-width="1" fill="none" stroke="black">
        <g class="ColorScheme-Text" font-weight="400" font-family="Noto Sans" font-size="30" transform="matrix(2.5,0,0,2.5,0,0)" fill-opacity="1" fill="currentColor" font-style="normal" stroke="none">
            <path fill-rule="nonzero" vector-effect="none" d="M4.6,12 L8.6,12 C8.93137,12 9.2,12.2686 9.2,12.6 C9.2,12.9314 8.93137,13.2 8.6,13.2 L4.6,13.2 C4.26863,13.2 4,12.9314 4,12.6 C4,12.2686 4.26863,12 4.6,12 "/>
            <path fill-rule="nonzero" vector-effect="none" d="M4.6,8 L8.6,8 C8.93137,8 9.2,8.26863 9.2,8.6 C9.2,8.93137 8.93137,9.2 8.6,9.2 L4.6,9.2 C4.26863,9.2 4,8.93137 4,8.6 C4,8.26863 4.26863,8 4.6,8 "/>
            <path fill-rule="nonzero" vector-effect="none" d="M4.6,4 L13.4,4 C13.7314,4 14,4.26863 14,4.6 C14,4.93137 13.7314,5.2 13.4,5.2 L4.6,5.2 C4.26863,5.2 4,4.93137 4,4.6 C4,4.26863 4.26863,4 4.6,4 "/>
            <path fill-rule="nonzero" vector-effect="none" d="M14,6.6 L14,14.6 C14,14.9314 13.7314,15.2 13.4,15.2 C13.0686,15.2 12.8,14.9314 12.8,14.6 L12.8,6.6 C12.8,6.26863 13.0686,6 13.4,6 C13.7314,6 14,6.26863 14,6.6 "/>
            <path fill-rule="nonzero" vector-effect="none" d="M10.9757,8.17574 L12.9757,6.17574 L13.4,5.75147 L13.8243,6.17574 L15.8243,8.17574 C16.0586,8.41005 16.0586,8.78995 15.8243,9.02426 C15.5899,9.25858 15.2101,9.25858 14.9757,9.02426 L12.9757,7.02426 L13.4,6.6 L13.8243,7.02426 L11.8243,9.02426 C11.5899,9.25858 11.2101,9.25858 10.9757,9.02426 C10.7414,8.78995 10.7414,8.41005 10.9757,8.17574 "/>
        </g>
    </g>
</svg>
