<?xml version='1.0' encoding='UTF-8' standalone='no'?>
<svg version="1.2" xmlns:xlink="http://www.w3.org/1999/xlink" viewBox="0 0 45 45" xmlns="http://www.w3.org/2000/svg" width="5.29167mm" height="5.29167mm" baseProfile="tiny">
    <style id="current-color-scheme" type="text/css">.ColorScheme-Text {color:#fcfcfc;}</style>
    <title>Qt SVG Document</title>
    <desc>Auto-generated by Klassy window decoration</desc>
    <defs/>
    <g stroke-linejoin="bevel" stroke-linecap="square" fill="none" stroke-width="1" stroke="black" fill-rule="evenodd">
        <g font-weight="400" class="ColorScheme-Text" font-size="30" fill="currentColor" transform="matrix(2.5,0,0,2.5,0,0)" font-style="normal" stroke="none" font-family="Noto Sans" fill-opacity="1">
            <path vector-effect="none" fill-rule="nonzero" d="M3.5992,4.4012 C3.5992,4.06884 4.06884,3.5992 4.4012,3.5992 L13.9988,3.5992 C14.3312,3.5992 14.8008,4.06884 14.8008,4.4012 L14.8008,13.9988 C14.8008,14.3312 14.3312,14.8008 13.9988,14.8008 L4.4012,14.8008 C4.06884,14.8008 3.5992,14.3312 3.5992,13.9988 L3.5992,4.4012 M5.2008,4.4012 L5.2008,13.9988 C5.2008,13.6678 4.73224,13.1992 4.4012,13.1992 L13.9988,13.1992 C13.6678,13.1992 13.1992,13.6678 13.1992,13.9988 L13.1992,4.4012 C13.1992,4.73224 13.6678,5.2008 13.9988,5.2008 L4.4012,5.2008 C4.73224,5.2008 5.2008,4.73224 5.2008,4.4012 "/>
        </g>
    </g>
</svg>
