<?xml version='1.0' encoding='UTF-8' standalone='no'?>
<svg width="8.46667mm" viewBox="0 0 40 40" baseProfile="tiny" xmlns="http://www.w3.org/2000/svg" xmlns:xlink="http://www.w3.org/1999/xlink" version="1.2" height="8.46667mm">
    <style id="current-color-scheme" type="text/css">.ColorScheme-Text {color:#232629;}</style>
    <title>Qt SVG Document</title>
    <desc>Auto-generated by Klassy window decoration</desc>
    <defs/>
    <g stroke-linecap="square" fill-rule="evenodd" stroke-linejoin="bevel" stroke-width="1" fill="none" stroke="black">
        <g class="ColorScheme-Text" font-weight="400" font-family="Noto Sans" font-size="16.6667" transform="matrix(2.5,0,0,2.5,0,0)" fill-opacity="0.600015" fill="#da0016" font-style="normal" stroke="none">
            <path fill-rule="evenodd" vector-effect="none" d="M2,3.2 C2,2.53726 2.53726,2 3.2,2 L12.8,2 C13.4627,2 14,2.53726 14,3.2 L14,12.8 C14,13.4627 13.4627,14 12.8,14 L3.2,14 C2.53726,14 2,13.4627 2,12.8 L2,3.2"/>
        </g>
        <g class="ColorScheme-Text" font-weight="400" font-family="Noto Sans" font-size="16.6667" transform="matrix(2.22222,0,0,2.22222,0,0)" fill-opacity="1" fill="#ffffff" font-style="normal" stroke="none">
            <path fill-rule="nonzero" vector-effect="none" d="M4.84125,3.70875 L14.2913,13.1587 C14.604,13.4715 14.604,13.9785 14.2913,14.2913 C13.9785,14.604 13.4715,14.604 13.1587,14.2913 L3.70875,4.84125 C3.39602,4.52852 3.39602,4.02148 3.70875,3.70875 C4.02148,3.39602 4.52852,3.39602 4.84125,3.70875 "/>
            <path fill-rule="nonzero" vector-effect="none" d="M14.2913,4.84125 L4.84125,14.2913 C4.52852,14.604 4.02148,14.604 3.70875,14.2913 C3.39602,13.9785 3.39602,13.4715 3.70875,13.1587 L13.1587,3.70875 C13.4715,3.39602 13.9785,3.39602 14.2913,3.70875 C14.604,4.02148 14.604,4.52852 14.2913,4.84125 "/>
        </g>
    </g>
</svg>
