<?xml version='1.0' encoding='UTF-8' standalone='no'?>
<svg version="1.2" xmlns:xlink="http://www.w3.org/1999/xlink" viewBox="0 0 40 40" xmlns="http://www.w3.org/2000/svg" width="8.46667mm" height="8.46667mm" baseProfile="tiny">
    <style id="current-color-scheme" type="text/css">.ColorScheme-Text {color:#232629;}</style>
    <title>Qt SVG Document</title>
    <desc>Auto-generated by Klassy window decoration</desc>
    <defs/>
    <g stroke-linejoin="bevel" stroke-linecap="square" fill="none" stroke-width="1" stroke="black" fill-rule="evenodd">
        <g font-weight="400" class="ColorScheme-Text" font-size="16.6667" fill="currentColor" transform="matrix(2.22222,0,0,2.22222,0,0)" font-style="normal" stroke="none" font-family="Noto Sans" fill-opacity="1">
            <path vector-effect="none" fill-rule="nonzero" d="M3.59932,4.27618 C3.59932,3.99566 3.99566,3.59932 4.27618,3.59932 L13.7238,3.59932 C14.0043,3.59932 14.4007,3.99566 14.4007,4.27618 L14.4007,13.7238 C14.4007,14.0043 14.0043,14.4007 13.7238,14.4007 L4.27618,14.4007 C3.99566,14.4007 3.59932,14.0043 3.59932,13.7238 L3.59932,4.27618 M4.95067,4.27618 L4.95067,13.7238 C4.95067,13.4446 4.5554,13.0493 4.27618,13.0493 L13.7238,13.0493 C13.4446,13.0493 13.0493,13.4446 13.0493,13.7238 L13.0493,4.27618 C13.0493,4.5554 13.4446,4.95067 13.7238,4.95067 L4.27618,4.95067 C4.5554,4.95067 4.95067,4.5554 4.95067,4.27618 "/>
        </g>
    </g>
</svg>
