<?xml version='1.0' encoding='UTF-8' standalone='no'?>
<svg baseProfile="tiny" height="8.46667mm" version="1.2" viewBox="0 0 40 40" width="8.46667mm" xmlns="http://www.w3.org/2000/svg" xmlns:xlink="http://www.w3.org/1999/xlink">
    <style id="current-color-scheme" type="text/css">.ColorScheme-Text {color:#232629;}</style>
    <title>Qt SVG Document</title>
    <desc>Auto-generated by Klassy window decoration</desc>
    <defs/>
    <g fill="none" fill-rule="evenodd" stroke="black" stroke-linecap="square" stroke-linejoin="bevel" stroke-width="1">
        <g class="ColorScheme-Text" fill="currentColor" fill-opacity="1" font-family="Noto Sans" font-size="16.6667" font-style="normal" font-weight="400" stroke="none" transform="matrix(2.22222,0,0,2.22222,0,0)">
            <path d="M4.275,11.6993 L8.325,11.6993 C8.69816,11.6993 9.00067,12.0018 9.00067,12.375 C9.00067,12.7482 8.69816,13.0507 8.325,13.0507 L4.275,13.0507 C3.90184,13.0507 3.59932,12.7482 3.59932,12.375 C3.59932,12.0018 3.90184,11.6993 4.275,11.6993 " fill-rule="nonzero" vector-effect="none"/>
            <path d="M4.275,7.64932 L8.325,7.64932 C8.69816,7.64932 9.00067,7.95184 9.00067,8.325 C9.00067,8.69816 8.69816,9.00067 8.325,9.00067 L4.275,9.00067 C3.90184,9.00067 3.59932,8.69816 3.59932,8.325 C3.59932,7.95184 3.90184,7.64932 4.275,7.64932 " fill-rule="nonzero" vector-effect="none"/>
            <path d="M4.275,3.59932 L13.275,3.59932 C13.6482,3.59932 13.9507,3.90184 13.9507,4.275 C13.9507,4.64816 13.6482,4.95067 13.275,4.95067 L4.275,4.95067 C3.90184,4.95067 3.59932,4.64816 3.59932,4.275 C3.59932,3.90184 3.90184,3.59932 4.275,3.59932 " fill-rule="nonzero" vector-effect="none"/>
            <path d="M14.4007,6.525 L14.4007,14.625 C14.4007,14.9982 14.0982,15.3007 13.725,15.3007 C13.3518,15.3007 13.0493,14.9982 13.0493,14.625 L13.0493,6.525 C13.0493,6.15184 13.3518,5.84932 13.725,5.84932 C14.0982,5.84932 14.4007,6.15184 14.4007,6.525 " fill-rule="nonzero" vector-effect="none"/>
            <path d="M11.4472,7.84723 L13.2472,6.04723 L13.725,5.56945 L14.2028,6.04723 L16.0028,7.84723 C16.2666,8.11109 16.2666,8.53891 16.0028,8.80277 C15.7389,9.06664 15.3111,9.06664 15.0472,8.80277 L13.2472,7.00277 L13.725,6.525 L14.2028,7.00277 L12.4028,8.80277 C12.1389,9.06664 11.7111,9.06664 11.4472,8.80277 C11.1834,8.53891 11.1834,8.11109 11.4472,7.84723 " fill-rule="nonzero" vector-effect="none"/>
        </g>
    </g>
</svg>
