<?xml version='1.0' encoding='UTF-8' standalone='no'?>
<svg version="1.2" xmlns:xlink="http://www.w3.org/1999/xlink" viewBox="0 0 44 44" xmlns="http://www.w3.org/2000/svg" width="5.82083mm" height="5.82083mm" baseProfile="tiny">
    <style id="current-color-scheme" type="text/css">.ColorScheme-Text {color:#232629;}</style>
    <title>Qt SVG Document</title>
    <desc>Auto-generated by Klassy window decoration</desc>
    <defs/>
    <g stroke-linejoin="bevel" stroke-linecap="square" fill="none" stroke-width="1" stroke="black" fill-rule="evenodd">
        <g font-weight="400" class="ColorScheme-Text" font-size="26.6667" fill="currentColor" transform="matrix(2.44444,0,0,2.44444,0,0)" font-style="normal" stroke="none" font-family="Noto Sans" fill-opacity="1">
            <path vector-effect="none" fill-rule="nonzero" d="M3.681,4.50113 C3.681,4.16126 4.16126,3.681 4.50113,3.681 L13.4989,3.681 C13.8387,3.681 14.319,4.16126 14.319,4.50113 L14.319,13.4989 C14.319,13.8387 13.8387,14.319 13.4989,14.319 L4.50113,14.319 C4.16126,14.319 3.681,13.8387 3.681,13.4989 L3.681,4.50113 M5.319,4.50113 L5.319,13.4989 C5.319,13.1603 4.83974,12.681 4.50113,12.681 L13.4989,12.681 C13.1603,12.681 12.681,13.1603 12.681,13.4989 L12.681,4.50113 C12.681,4.83974 13.1603,5.319 13.4989,5.319 L4.50113,5.319 C4.83974,5.319 5.319,4.83974 5.319,4.50113 "/>
        </g>
    </g>
</svg>
