<?xml version='1.0' encoding='UTF-8' standalone='no'?>
<svg baseProfile="tiny" height="5.82083mm" version="1.2" viewBox="0 0 44 44" width="5.82083mm" xmlns="http://www.w3.org/2000/svg" xmlns:xlink="http://www.w3.org/1999/xlink">
    <style id="current-color-scheme" type="text/css">.ColorScheme-Text {color:#232629;}</style>
    <title>Qt SVG Document</title>
    <desc>Auto-generated by Klassy window decoration</desc>
    <defs/>
    <g fill="none" fill-rule="evenodd" stroke="black" stroke-linecap="square" stroke-linejoin="bevel" stroke-width="1">
        <g class="ColorScheme-Text" fill="currentColor" fill-opacity="1" font-family="Noto Sans" font-size="26.6667" font-style="normal" font-weight="400" stroke="none" transform="matrix(2.44444,0,0,2.44444,0,0)">
            <path d="M5.07912,3.92088 L14.0791,12.9209 C14.399,13.2407 14.399,13.7593 14.0791,14.0791 C13.7593,14.399 13.2407,14.399 12.9209,14.0791 L3.92088,5.07912 C3.60104,4.75928 3.60104,4.24072 3.92088,3.92088 C4.24072,3.60104 4.75928,3.60104 5.07912,3.92088 " fill-rule="nonzero" vector-effect="none"/>
            <path d="M14.0791,5.07912 L5.07912,14.0791 C4.75928,14.399 4.24072,14.399 3.92088,14.0791 C3.60104,13.7593 3.60104,13.2407 3.92088,12.9209 L12.9209,3.92088 C13.2407,3.60104 13.7593,3.60104 14.0791,3.92088 C14.399,4.24072 14.399,4.75928 14.0791,5.07912 " fill-rule="nonzero" vector-effect="none"/>
        </g>
    </g>
</svg>
