<?xml version='1.0' encoding='UTF-8' standalone='no'?>
<svg width="5.82083mm" viewBox="0 0 44 44" baseProfile="tiny" xmlns="http://www.w3.org/2000/svg" xmlns:xlink="http://www.w3.org/1999/xlink" version="1.2" height="5.82083mm">
    <style id="current-color-scheme" type="text/css">.ColorScheme-Text {color:#232629;}</style>
    <title>Qt SVG Document</title>
    <desc>Auto-generated by Klassy window decoration</desc>
    <defs/>
    <g stroke-linecap="square" fill-rule="evenodd" stroke-linejoin="bevel" stroke-width="1" fill="none" stroke="black">
        <g class="ColorScheme-Text" font-weight="400" font-family="Noto Sans" font-size="26.6667" transform="matrix(2.44444,0,0,2.44444,0,0)" fill-opacity="1" fill="currentColor" font-style="normal" stroke="none">
            <path fill-rule="nonzero" vector-effect="none" d="M4.70455,13.9091 L13.7045,13.9091 C14.0434,13.9091 14.3182,14.1838 14.3182,14.5227 C14.3182,14.8616 14.0434,15.1364 13.7045,15.1364 L4.70455,15.1364 C4.36564,15.1364 4.09091,14.8616 4.09091,14.5227 C4.09091,14.1838 4.36564,13.9091 4.70455,13.9091 "/>
            <path fill-rule="nonzero" vector-effect="none" d="M9.61364,9.81818 L13.7045,9.81818 C14.0434,9.81818 14.3182,10.0929 14.3182,10.4318 C14.3182,10.7707 14.0434,11.0455 13.7045,11.0455 L9.61364,11.0455 C9.27473,11.0455 9,10.7707 9,10.4318 C9,10.0929 9.27473,9.81818 9.61364,9.81818 "/>
            <path fill-rule="nonzero" vector-effect="none" d="M9.61364,5.72727 L13.7045,5.72727 C14.0434,5.72727 14.3182,6.00201 14.3182,6.34091 C14.3182,6.67981 14.0434,6.95455 13.7045,6.95455 L9.61364,6.95455 C9.27473,6.95455 9,6.67981 9,6.34091 C9,6.00201 9.27473,5.72727 9.61364,5.72727 "/>
            <path fill-rule="nonzero" vector-effect="none" d="M4.90909,4.29545 L4.90909,12.4773 C4.90909,12.8162 4.63436,13.0909 4.29545,13.0909 C3.95655,13.0909 3.68182,12.8162 3.68182,12.4773 L3.68182,4.29545 C3.68182,3.95655 3.95655,3.68182 4.29545,3.68182 C4.63436,3.68182 4.90909,3.95655 4.90909,4.29545 "/>
            <path fill-rule="nonzero" vector-effect="none" d="M3.13826,10.0485 L4.77462,12.0939 L4.29545,12.4773 L3.81629,12.0939 L5.45265,10.0485 C5.66436,9.78384 6.05052,9.74094 6.31515,9.95265 C6.57979,10.1644 6.6227,10.5505 6.41099,10.8152 L4.77462,12.8606 L4.29545,13.4596 L3.81629,12.8606 L2.17992,10.8152 C1.96821,10.5505 2.01112,10.1644 2.27576,9.95265 C2.54039,9.74094 2.92655,9.78384 3.13826,10.0485 "/>
        </g>
    </g>
</svg>
