<?xml version='1.0' encoding='UTF-8' standalone='no'?>
<svg baseProfile="tiny" height="5.82083mm" version="1.2" viewBox="0 0 44 44" width="5.82083mm" xmlns="http://www.w3.org/2000/svg" xmlns:xlink="http://www.w3.org/1999/xlink">
    <style id="current-color-scheme" type="text/css">.ColorScheme-Text {color:#232629;}</style>
    <title>Qt SVG Document</title>
    <desc>Auto-generated by Klassy window decoration</desc>
    <defs/>
    <g fill="none" fill-rule="evenodd" stroke="black" stroke-linecap="square" stroke-linejoin="bevel" stroke-width="1">
        <g class="ColorScheme-Text" fill="currentColor" fill-opacity="0.949996" font-family="Noto Sans" font-size="26.6667" font-style="normal" font-weight="400" stroke="none" transform="matrix(2.44444,0,0,2.44444,9,17)">
            <path d="M0,-0.819 L7.36364,-0.819 L8.18264,0 L8.18264,7.36364 L7.36364,8.18264 L0,8.18264 L-0.819,7.36364 L-0.819,0 L0,-0.819 M0.819,0 L0.819,7.36364 L0,7.36364 L0,6.54464 L7.36364,6.54464 L7.36364,7.36364 L6.54464,7.36364 L6.54464,0 L7.36364,0 L7.36364,0.819 L0,0.819 L0,0 L0.819,0" fill-rule="nonzero" vector-effect="none"/>
        </g>
        <g class="ColorScheme-Text" fill="currentColor" fill-opacity="0.949996" font-family="Noto Sans" font-size="26.6667" font-style="normal" font-weight="400" stroke="none" transform="matrix(2.44444,0,0,2.44444,9,17)">
            <path d="M2.45373,-0.819 L2.45373,-3.27273 L3.27273,-4.09173 L10.6364,-4.09173 L11.4554,-3.27273 L11.4554,4.09091 L10.6364,4.90991 L8.18264,4.90991 L8.18264,3.27191 L10.6364,3.27191 L10.6364,4.09091 L9.81736,4.09091 L9.81736,-3.27273 L10.6364,-3.27273 L10.6364,-2.45373 L3.27273,-2.45373 L3.27273,-3.27273 L4.09173,-3.27273 L4.09173,-0.819 L2.45373,-0.819" fill-rule="nonzero" vector-effect="none"/>
        </g>
    </g>
</svg>
