<?xml version='1.0' encoding='UTF-8' standalone='no'?>
<svg version="1.2" xmlns:xlink="http://www.w3.org/1999/xlink" viewBox="0 0 30 30" xmlns="http://www.w3.org/2000/svg" width="5.29167mm" height="5.29167mm" baseProfile="tiny">
    <style id="current-color-scheme" type="text/css">.ColorScheme-Text {color:#232629;}</style>
    <title>Qt SVG Document</title>
    <desc>Auto-generated by Klassy window decoration</desc>
    <defs/>
    <g stroke-linejoin="bevel" stroke-linecap="square" fill="none" stroke-width="1" stroke="black" fill-rule="evenodd">
        <g font-weight="400" class="ColorScheme-Text" font-size="20" fill="currentColor" transform="matrix(1.66667,0,0,1.66667,0,0)" font-style="normal" stroke="none" font-family="Noto Sans" fill-opacity="1">
            <path vector-effect="none" fill-rule="nonzero" d="M4.2,4.1994 L13.8,4.1994 C14.1317,4.1994 14.4006,4.4683 14.4006,4.8 C14.4006,5.1317 14.1317,5.4006 13.8,5.4006 L4.2,5.4006 C3.8683,5.4006 3.5994,5.1317 3.5994,4.8 C3.5994,4.4683 3.8683,4.1994 4.2,4.1994 "/>
            <path vector-effect="none" fill-rule="nonzero" d="M3.57531,12.5753 L8.57531,7.57531 L9,7.15062 L9.42469,7.57531 L14.4247,12.5753 C14.6592,12.8099 14.6592,13.1901 14.4247,13.4247 C14.1901,13.6592 13.8099,13.6592 13.5753,13.4247 L8.57531,8.42469 L9,8 L9.42469,8.42469 L4.42469,13.4247 C4.19014,13.6592 3.80986,13.6592 3.57531,13.4247 C3.34076,13.1901 3.34076,12.8099 3.57531,12.5753 "/>
        </g>
    </g>
</svg>
