<?xml version='1.0' encoding='UTF-8' standalone='no'?>
<svg width="5.29167mm" viewBox="0 0 30 30" baseProfile="tiny" xmlns="http://www.w3.org/2000/svg" xmlns:xlink="http://www.w3.org/1999/xlink" version="1.2" height="5.29167mm">
    <style id="current-color-scheme" type="text/css">.ColorScheme-Text {color:#232629;}</style>
    <title>Qt SVG Document</title>
    <desc>Auto-generated by Klassy window decoration</desc>
    <defs/>
    <g stroke-linecap="square" fill-rule="evenodd" stroke-linejoin="bevel" stroke-width="1" fill="none" stroke="black">
        <g class="ColorScheme-Text" font-weight="400" font-family="Noto Sans" font-size="20" transform="matrix(1.66667,0,0,1.66667,0,0)" fill-opacity="1" fill="currentColor" font-style="normal" stroke="none">
            <path fill-rule="nonzero" vector-effect="none" d="M4.8,13.8 L13.8,13.8 C14.1314,13.8 14.4,14.0686 14.4,14.4 C14.4,14.7314 14.1314,15 13.8,15 L4.8,15 C4.46863,15 4.2,14.7314 4.2,14.4 C4.2,14.0686 4.46863,13.8 4.8,13.8 "/>
            <path fill-rule="nonzero" vector-effect="none" d="M9.6,9.6 L13.8,9.6 C14.1314,9.6 14.4,9.86863 14.4,10.2 C14.4,10.5314 14.1314,10.8 13.8,10.8 L9.6,10.8 C9.26863,10.8 9,10.5314 9,10.2 C9,9.86863 9.26863,9.6 9.6,9.6 "/>
            <path fill-rule="nonzero" vector-effect="none" d="M9.6,5.4 L13.8,5.4 C14.1314,5.4 14.4,5.66863 14.4,6 C14.4,6.33137 14.1314,6.6 13.8,6.6 L9.6,6.6 C9.26863,6.6 9,6.33137 9,6 C9,5.66863 9.26863,5.4 9.6,5.4 "/>
            <path fill-rule="nonzero" vector-effect="none" d="M4.8,4.2 L4.8,12.6 C4.8,12.9314 4.53137,13.2 4.2,13.2 C3.86863,13.2 3.6,12.9314 3.6,12.6 L3.6,4.2 C3.6,3.86863 3.86863,3.6 4.2,3.6 C4.53137,3.6 4.8,3.86863 4.8,4.2 "/>
            <path fill-rule="nonzero" vector-effect="none" d="M2.88,9.84 L4.68,12.24 L4.2,12.6 L3.72,12.24 L5.52,9.84 C5.71882,9.5749 6.0949,9.52118 6.36,9.72 C6.6251,9.91882 6.67882,10.2949 6.48,10.56 L4.68,12.96 L4.2,13.6 L3.72,12.96 L1.92,10.56 C1.72118,10.2949 1.7749,9.91882 2.04,9.72 C2.3051,9.52118 2.68118,9.5749 2.88,9.84 "/>
        </g>
    </g>
</svg>
