<?xml version='1.0' encoding='UTF-8' standalone='no'?>
<svg width="5.29167mm" viewBox="0 0 30 30" baseProfile="tiny" xmlns="http://www.w3.org/2000/svg" xmlns:xlink="http://www.w3.org/1999/xlink" version="1.2" height="5.29167mm">
    <style id="current-color-scheme" type="text/css">.ColorScheme-Text {color:#232629;}</style>
    <title>Qt SVG Document</title>
    <desc>Auto-generated by Klassy window decoration</desc>
    <defs/>
    <g stroke-linecap="square" fill-rule="evenodd" stroke-linejoin="bevel" stroke-width="1" fill="none" stroke="black">
        <g class="ColorScheme-Text" font-weight="400" font-family="Noto Sans" font-size="20" transform="matrix(1.66667,0,0,1.66667,0,0)" fill-opacity="1" fill="currentColor" font-style="normal" stroke="none">
            <path fill-rule="nonzero" vector-effect="none" d="M4.2,4.2 L13.8,4.2 C14.1314,4.2 14.4,4.46863 14.4,4.8 C14.4,5.13137 14.1314,5.4 13.8,5.4 L4.2,5.4 C3.86863,5.4 3.6,5.13137 3.6,4.8 C3.6,4.46863 3.86863,4.2 4.2,4.2 "/>
            <path fill-rule="nonzero" vector-effect="none" d="M3.57574,12.5757 L8.57574,7.57574 L9,7.15147 L9.42426,7.57574 L14.4243,12.5757 C14.6586,12.8101 14.6586,13.1899 14.4243,13.4243 C14.1899,13.6586 13.8101,13.6586 13.5757,13.4243 L8.57574,8.42426 L9,8 L9.42426,8.42426 L4.42426,13.4243 C4.18995,13.6586 3.81005,13.6586 3.57574,13.4243 C3.34142,13.1899 3.34142,12.8101 3.57574,12.5757 "/>
        </g>
    </g>
</svg>
