<?xml version='1.0' encoding='UTF-8' standalone='no'?>
<svg baseProfile="tiny" height="6.35mm" version="1.2" viewBox="0 0 30 30" width="6.35mm" xmlns="http://www.w3.org/2000/svg" xmlns:xlink="http://www.w3.org/1999/xlink">
    <style id="current-color-scheme" type="text/css">.ColorScheme-Text {color:#fcfcfc;}</style>
    <title>Qt SVG Document</title>
    <desc>Auto-generated by Klassy window decoration</desc>
    <defs/>
    <g fill="none" fill-rule="evenodd" stroke="black" stroke-linecap="square" stroke-linejoin="bevel" stroke-width="1">
        <g class="ColorScheme-Text" fill="currentColor" fill-opacity="0.549996" font-family="Noto Sans" font-size="16.6667" font-style="normal" font-weight="400" stroke="none" transform="matrix(1.66667,0,0,1.66667,12,12)">
            <rect height="3.6" width="3.6" x="0" y="0"/>
        </g>
        <g class="ColorScheme-Text" fill="currentColor" fill-opacity="0.902495" font-family="Noto Sans" font-size="16.6667" font-style="normal" font-weight="400" stroke="none" transform="matrix(1.66667,0,0,1.66667,12,12)">
            <path d="M0,-0.6006 L3.6,-0.6006 L4.2006,0 L4.2006,3.6 L3.6,4.2006 L0,4.2006 L-0.6006,3.6 L-0.6006,0 L0,-0.6006 M0.6006,0 L0.6006,3.6 L0,3.6 L0,2.9994 L3.6,2.9994 L3.6,3.6 L2.9994,3.6 L2.9994,0 L3.6,0 L3.6,0.6006 L0,0.6006 L0,0 L0.6006,0" fill-rule="nonzero" vector-effect="none"/>
        </g>
    </g>
</svg>
