<?xml version='1.0' encoding='UTF-8' standalone='no'?>
<svg width="6.35mm" viewBox="0 0 30 30" baseProfile="tiny" xmlns="http://www.w3.org/2000/svg" xmlns:xlink="http://www.w3.org/1999/xlink" version="1.2" height="6.35mm">
    <style id="current-color-scheme" type="text/css">.ColorScheme-Text {color:#fcfcfc;}</style>
    <title>Qt SVG Document</title>
    <desc>Auto-generated by Klassy window decoration</desc>
    <defs/>
    <g stroke-linecap="square" fill-rule="evenodd" stroke-linejoin="bevel" stroke-width="1" fill="none" stroke="black">
        <g class="ColorScheme-Text" font-weight="400" font-family="Noto Sans" font-size="16.6667" transform="matrix(1.66667,0,0,1.66667,0,0)" fill-opacity="1" fill="currentColor" font-style="normal" stroke="none">
            <path fill-rule="nonzero" vector-effect="none" d="M3.6,4.50113 C3.6,4.12771 4.12771,3.6 4.50113,3.6 L13.4989,3.6 C13.8723,3.6 14.4,4.12771 14.4,4.50113 L14.4,13.4989 C14.4,13.8723 13.8723,14.4 13.4989,14.4 L4.50113,14.4 C4.12771,14.4 3.6,13.8723 3.6,13.4989 L3.6,4.50113 M5.4,4.50113 L5.4,13.4989 C5.4,13.1267 4.8733,12.6 4.50113,12.6 L13.4989,12.6 C13.1267,12.6 12.6,13.1267 12.6,13.4989 L12.6,4.50113 C12.6,4.8733 13.1267,5.4 13.4989,5.4 L4.50113,5.4 C4.8733,5.4 5.4,4.8733 5.4,4.50113 "/>
        </g>
    </g>
</svg>
