<?xml version='1.0' encoding='UTF-8' standalone='no'?>
<svg version="1.2" xmlns:xlink="http://www.w3.org/1999/xlink" viewBox="0 0 30 30" xmlns="http://www.w3.org/2000/svg" width="6.35mm" height="6.35mm" baseProfile="tiny">
    <style id="current-color-scheme" type="text/css">.ColorScheme-Text {color:#fcfcfc;}</style>
    <title>Qt SVG Document</title>
    <desc>Auto-generated by Klassy window decoration</desc>
    <defs/>
    <g stroke-linejoin="bevel" stroke-linecap="square" fill="none" stroke-width="1" stroke="black" fill-rule="evenodd">
        <g font-weight="400" class="ColorScheme-Text" font-size="16.6667" fill="currentColor" transform="matrix(1.66667,0,0,1.66667,12,12)" font-style="normal" stroke="none" font-family="Noto Sans" fill-opacity="0.650004">
            <rect y="0" x="0" width="3.6" height="3.6"/>
        </g>
        <g font-weight="400" class="ColorScheme-Text" font-size="16.6667" fill="currentColor" transform="matrix(1.66667,0,0,1.66667,12,12)" font-style="normal" stroke="none" font-family="Noto Sans" fill-opacity="0.850004">
            <path vector-effect="none" fill-rule="nonzero" d="M0,-0.6006 L3.6,-0.6006 L4.2006,0 L4.2006,3.6 L3.6,4.2006 L0,4.2006 L-0.6006,3.6 L-0.6006,0 L0,-0.6006 M0.6006,0 L0.6006,3.6 L0,3.6 L0,2.9994 L3.6,2.9994 L3.6,3.6 L2.9994,3.6 L2.9994,0 L3.6,0 L3.6,0.6006 L0,0.6006 L0,0 L0.6006,0"/>
        </g>
    </g>
</svg>
