<?xml version='1.0' encoding='UTF-8' standalone='no'?>
<svg width="6.35mm" viewBox="0 0 66 66" baseProfile="tiny" xmlns="http://www.w3.org/2000/svg" xmlns:xlink="http://www.w3.org/1999/xlink" version="1.2" height="6.35mm">
    <style id="current-color-scheme" type="text/css">.ColorScheme-Text {color:#fcfcfc;}</style>
    <title>Qt SVG Document</title>
    <desc>Auto-generated by Klassy window decoration</desc>
    <defs/>
    <g stroke-linecap="square" fill-rule="evenodd" stroke-linejoin="bevel" stroke-width="1" fill="none" stroke="black">
        <g class="ColorScheme-Text" font-weight="400" font-family="Noto Sans" font-size="36.6667" transform="matrix(3.66667,0,0,3.66667,0,0)" fill-opacity="1" fill="currentColor" font-style="normal" stroke="none">
            <path fill-rule="nonzero" vector-effect="none" d="M4.36364,12 L8.45455,12 C8.75579,12 9,12.2442 9,12.5455 C9,12.8467 8.75579,13.0909 8.45455,13.0909 L4.36364,13.0909 C4.06239,13.0909 3.81818,12.8467 3.81818,12.5455 C3.81818,12.2442 4.06239,12 4.36364,12 "/>
            <path fill-rule="nonzero" vector-effect="none" d="M4.36364,7.90909 L8.45455,7.90909 C8.75579,7.90909 9,8.1533 9,8.45455 C9,8.75579 8.75579,9 8.45455,9 L4.36364,9 C4.06239,9 3.81818,8.75579 3.81818,8.45455 C3.81818,8.1533 4.06239,7.90909 4.36364,7.90909 "/>
            <path fill-rule="nonzero" vector-effect="none" d="M4.36364,3.81818 L13.3636,3.81818 C13.6649,3.81818 13.9091,4.06239 13.9091,4.36364 C13.9091,4.66488 13.6649,4.90909 13.3636,4.90909 L4.36364,4.90909 C4.06239,4.90909 3.81818,4.66488 3.81818,4.36364 C3.81818,4.06239 4.06239,3.81818 4.36364,3.81818 "/>
            <path fill-rule="nonzero" vector-effect="none" d="M14.1818,6.54545 L14.1818,14.4545 C14.1818,14.7558 13.9376,15 13.6364,15 C13.3351,15 13.0909,14.7558 13.0909,14.4545 L13.0909,6.54545 C13.0909,6.24421 13.3351,6 13.6364,6 C13.9376,6 14.1818,6.24421 14.1818,6.54545 "/>
            <path fill-rule="nonzero" vector-effect="none" d="M11.3416,8.06885 L13.2507,6.15976 L13.6364,5.77407 L14.0221,6.15976 L15.9311,8.06885 C16.1442,8.28186 16.1442,8.62723 15.9311,8.84024 C15.7181,9.05325 15.3728,9.05325 15.1598,8.84024 L13.2507,6.93115 L13.6364,6.54545 L14.0221,6.93115 L12.113,8.84024 C11.9,9.05325 11.5546,9.05325 11.3416,8.84024 C11.1286,8.62723 11.1286,8.28186 11.3416,8.06885 "/>
        </g>
    </g>
</svg>
