<?xml version='1.0' encoding='UTF-8' standalone='no'?>
<svg version="1.2" xmlns:xlink="http://www.w3.org/1999/xlink" viewBox="0 0 66 66" xmlns="http://www.w3.org/2000/svg" width="6.35mm" height="6.35mm" baseProfile="tiny">
    <style id="current-color-scheme" type="text/css">.ColorScheme-Text {color:#fcfcfc;}</style>
    <title>Qt SVG Document</title>
    <desc>Auto-generated by Klassy window decoration</desc>
    <defs/>
    <g stroke-linejoin="bevel" stroke-linecap="square" fill="none" stroke-width="1" stroke="black" fill-rule="evenodd">
        <g font-weight="400" class="ColorScheme-Text" font-size="36.6667" fill="currentColor" transform="matrix(3.66667,0,0,3.66667,0,0)" font-style="normal" stroke="none" font-family="Noto Sans" fill-opacity="1">
            <path vector-effect="none" fill-rule="nonzero" d="M4.09091,3.8175 L13.9091,3.8175 C14.286,3.8175 14.5916,4.12307 14.5916,4.5 C14.5916,4.87693 14.286,5.1825 13.9091,5.1825 L4.09091,5.1825 C3.71397,5.1825 3.40841,4.87693 3.40841,4.5 C3.40841,4.12307 3.71397,3.8175 4.09091,3.8175 "/>
            <path vector-effect="none" fill-rule="nonzero" d="M4.4826,7.5174 L9.4826,12.5174 L9,13 L8.5174,12.5174 L13.5174,7.5174 C13.7839,7.25087 14.2161,7.25087 14.4826,7.5174 C14.7491,7.78393 14.7491,8.21607 14.4826,8.4826 L9.4826,13.4826 L9,13.9652 L8.5174,13.4826 L3.5174,8.4826 C3.25087,8.21607 3.25087,7.78393 3.5174,7.5174 C3.78393,7.25087 4.21607,7.25087 4.4826,7.5174 "/>
        </g>
    </g>
</svg>
