<?xml version='1.0' encoding='UTF-8' standalone='no'?>
<svg width="4.23333mm" viewBox="0 0 32 32" baseProfile="tiny" xmlns="http://www.w3.org/2000/svg" xmlns:xlink="http://www.w3.org/1999/xlink" version="1.2" height="4.23333mm">
    <style id="current-color-scheme" type="text/css">.ColorScheme-Text {color:#232629;}</style>
    <title>Qt SVG Document</title>
    <desc>Auto-generated by Klassy window decoration</desc>
    <defs/>
    <g stroke-linecap="square" fill-rule="evenodd" stroke-linejoin="bevel" stroke-width="1" fill="none" stroke="black">
        <g class="ColorScheme-Text" font-weight="400" font-family="Noto Sans" font-size="26.6667" transform="matrix(1.77778,0,0,1.77778,0,0)" fill-opacity="1" fill="currentColor" font-style="normal" stroke="none">
            <path fill-rule="nonzero" vector-effect="none" d="M4.785,3.6525 L14.3475,13.215 C14.6602,13.5277 14.6602,14.0348 14.3475,14.3475 C14.0348,14.6602 13.5277,14.6602 13.215,14.3475 L3.6525,4.785 C3.33977,4.47227 3.33977,3.96523 3.6525,3.6525 C3.96523,3.33977 4.47227,3.33977 4.785,3.6525 "/>
            <path fill-rule="nonzero" vector-effect="none" d="M14.3475,4.785 L4.785,14.3475 C4.47227,14.6602 3.96523,14.6602 3.6525,14.3475 C3.33977,14.0348 3.33977,13.5277 3.6525,13.215 L13.215,3.6525 C13.5277,3.33977 14.0348,3.33977 14.3475,3.6525 C14.6602,3.96523 14.6602,4.47227 14.3475,4.785 "/>
        </g>
    </g>
</svg>
