<?xml version='1.0' encoding='UTF-8' standalone='no'?>
<svg width="4.23333mm" viewBox="0 0 32 32" baseProfile="tiny" xmlns="http://www.w3.org/2000/svg" xmlns:xlink="http://www.w3.org/1999/xlink" version="1.2" height="4.23333mm">
    <style id="current-color-scheme" type="text/css">.ColorScheme-Text {color:#232629;}</style>
    <title>Qt SVG Document</title>
    <desc>Auto-generated by Klassy window decoration</desc>
    <defs/>
    <g stroke-linecap="square" fill-rule="evenodd" stroke-linejoin="bevel" stroke-width="1" fill="none" stroke="black">
        <g class="ColorScheme-Text" font-weight="400" font-family="Noto Sans" font-size="26.6667" transform="matrix(1.77778,0,0,1.77778,0,0)" fill-opacity="1" fill="currentColor" font-style="normal" stroke="none">
            <path fill-rule="nonzero" vector-effect="none" d="M4.5,11.8125 L8.4375,11.8125 C8.74816,11.8125 9,12.0643 9,12.375 C9,12.6857 8.74816,12.9375 8.4375,12.9375 L4.5,12.9375 C4.18934,12.9375 3.9375,12.6857 3.9375,12.375 C3.9375,12.0643 4.18934,11.8125 4.5,11.8125 "/>
            <path fill-rule="nonzero" vector-effect="none" d="M4.5,7.875 L8.4375,7.875 C8.74816,7.875 9,8.12684 9,8.4375 C9,8.74816 8.74816,9 8.4375,9 L4.5,9 C4.18934,9 3.9375,8.74816 3.9375,8.4375 C3.9375,8.12684 4.18934,7.875 4.5,7.875 "/>
            <path fill-rule="nonzero" vector-effect="none" d="M4.5,3.9375 L13.5,3.9375 C13.8107,3.9375 14.0625,4.18934 14.0625,4.5 C14.0625,4.81066 13.8107,5.0625 13.5,5.0625 L4.5,5.0625 C4.18934,5.0625 3.9375,4.81066 3.9375,4.5 C3.9375,4.18934 4.18934,3.9375 4.5,3.9375 "/>
            <path fill-rule="nonzero" vector-effect="none" d="M14.0625,6.75 L14.0625,14.625 C14.0625,14.9357 13.8107,15.1875 13.5,15.1875 C13.1893,15.1875 12.9375,14.9357 12.9375,14.625 L12.9375,6.75 C12.9375,6.43934 13.1893,6.1875 13.5,6.1875 C13.8107,6.1875 14.0625,6.43934 14.0625,6.75 "/>
            <path fill-rule="nonzero" vector-effect="none" d="M10.9125,7.9875 L13.1625,6.3 L13.5,6.04687 L13.8375,6.3 L16.0875,7.9875 C16.336,8.1739 16.3864,8.52647 16.2,8.775 C16.0136,9.02353 15.661,9.0739 15.4125,8.8875 L13.1625,7.2 L13.5,6.75 L13.8375,7.2 L11.5875,8.8875 C11.339,9.0739 10.9864,9.02353 10.8,8.775 C10.6136,8.52647 10.664,8.1739 10.9125,7.9875 "/>
        </g>
    </g>
</svg>
