<?xml version='1.0' encoding='UTF-8' standalone='no'?>
<svg width="5.29167mm" viewBox="0 0 55 55" baseProfile="tiny" xmlns="http://www.w3.org/2000/svg" xmlns:xlink="http://www.w3.org/1999/xlink" version="1.2" height="5.29167mm">
    <style id="current-color-scheme" type="text/css">.ColorScheme-Text {color:#fcfcfc;}</style>
    <title>Qt SVG Document</title>
    <desc>Auto-generated by Klassy window decoration</desc>
    <defs/>
    <g stroke-linecap="square" fill-rule="evenodd" stroke-linejoin="bevel" stroke-width="1" fill="none" stroke="black">
        <g class="ColorScheme-Text" font-weight="400" font-family="Noto Sans" font-size="36.6667" transform="matrix(3.05556,0,0,3.05556,0,0)" fill-opacity="1" fill="currentColor" font-style="normal" stroke="none">
            <path fill-rule="nonzero" vector-effect="none" d="M3.92727,3.92727 L14.0727,3.92727 C14.4342,3.92727 14.7273,4.22032 14.7273,4.58182 C14.7273,4.94331 14.4342,5.23636 14.0727,5.23636 L3.92727,5.23636 C3.56578,5.23636 3.27273,4.94331 3.27273,4.58182 C3.27273,4.22032 3.56578,3.92727 3.92727,3.92727 "/>
            <path fill-rule="nonzero" vector-effect="none" d="M4.46283,7.53717 L9.46283,12.5372 L9,13 L8.53717,12.5372 L13.5372,7.53717 C13.7928,7.28155 14.2072,7.28155 14.4628,7.53717 C14.7184,7.79278 14.7184,8.20722 14.4628,8.46283 L9.46283,13.4628 L9,13.9257 L8.53717,13.4628 L3.53717,8.46283 C3.28155,8.20722 3.28155,7.79278 3.53717,7.53717 C3.79278,7.28155 4.20722,7.28155 4.46283,7.53717 "/>
        </g>
    </g>
</svg>
