<?xml version='1.0' encoding='UTF-8' standalone='no'?>
<svg version="1.2" xmlns:xlink="http://www.w3.org/1999/xlink" viewBox="0 0 55 55" xmlns="http://www.w3.org/2000/svg" width="5.29167mm" height="5.29167mm" baseProfile="tiny">
    <style id="current-color-scheme" type="text/css">.ColorScheme-Text {color:#fcfcfc;}</style>
    <title>Qt SVG Document</title>
    <desc>Auto-generated by Klassy window decoration</desc>
    <defs/>
    <g stroke-linejoin="bevel" stroke-linecap="square" fill="none" stroke-width="1" stroke="black" fill-rule="evenodd">
        <g font-weight="400" class="ColorScheme-Text" font-size="36.6667" fill="currentColor" transform="matrix(3.05556,0,0,3.05556,0,0)" font-style="normal" stroke="none" font-family="Noto Sans" fill-opacity="1">
            <path vector-effect="none" fill-rule="nonzero" d="M4.58182,11.7812 L8.50909,11.7812 C8.87095,11.7812 9.16429,12.0745 9.16429,12.4364 C9.16429,12.7982 8.87095,13.0916 8.50909,13.0916 L4.58182,13.0916 C4.21996,13.0916 3.92662,12.7982 3.92662,12.4364 C3.92662,12.0745 4.21996,11.7812 4.58182,11.7812 "/>
            <path vector-effect="none" fill-rule="nonzero" d="M4.58182,7.85389 L8.50909,7.85389 C8.87095,7.85389 9.16429,8.14723 9.16429,8.50909 C9.16429,8.87095 8.87095,9.16429 8.50909,9.16429 L4.58182,9.16429 C4.21996,9.16429 3.92662,8.87095 3.92662,8.50909 C3.92662,8.14723 4.21996,7.85389 4.58182,7.85389 "/>
            <path vector-effect="none" fill-rule="nonzero" d="M4.58182,3.92662 L13.4182,3.92662 C13.78,3.92662 14.0734,4.21996 14.0734,4.58182 C14.0734,4.94368 13.78,5.23702 13.4182,5.23702 L4.58182,5.23702 C4.21996,5.23702 3.92662,4.94368 3.92662,4.58182 C3.92662,4.21996 4.21996,3.92662 4.58182,3.92662 "/>
            <path vector-effect="none" fill-rule="nonzero" d="M14.0734,6.54545 L14.0734,14.4 C14.0734,14.7619 13.78,15.0552 13.4182,15.0552 C13.0563,15.0552 12.763,14.7619 12.763,14.4 L12.763,6.54545 C12.763,6.1836 13.0563,5.89025 13.4182,5.89025 C13.78,5.89025 14.0734,6.1836 14.0734,6.54545 "/>
            <path vector-effect="none" fill-rule="nonzero" d="M10.9912,8.04579 L12.9549,6.08216 L13.4182,5.61886 L13.8815,6.08216 L15.8451,8.04579 C16.101,8.30167 16.101,8.71652 15.8451,8.97239 C15.5892,9.22826 15.1744,9.22826 14.9185,8.97239 L12.9549,7.00875 L13.4182,6.54545 L13.8815,7.00875 L11.9178,8.97239 C11.662,9.22826 11.2471,9.22826 10.9912,8.97239 C10.7354,8.71652 10.7354,8.30167 10.9912,8.04579 "/>
        </g>
    </g>
</svg>
