<?xml version='1.0' encoding='UTF-8' standalone='no'?>
<svg width="5.29167mm" viewBox="0 0 55 55" baseProfile="tiny" xmlns="http://www.w3.org/2000/svg" xmlns:xlink="http://www.w3.org/1999/xlink" version="1.2" height="5.29167mm">
    <style id="current-color-scheme" type="text/css">.ColorScheme-Text {color:#fcfcfc;}</style>
    <title>Qt SVG Document</title>
    <desc>Auto-generated by Klassy window decoration</desc>
    <defs/>
    <g stroke-linecap="square" fill-rule="evenodd" stroke-linejoin="bevel" stroke-width="1" fill="none" stroke="black">
        <g class="ColorScheme-Text" font-weight="400" font-family="Noto Sans" font-size="36.6667" transform="matrix(3.05556,0,0,3.05556,0,0)" fill-opacity="1" fill="currentColor" font-style="normal" stroke="none">
            <path fill-rule="nonzero" vector-effect="none" d="M4.98443,3.85193 L14.4753,13.3428 C14.7881,13.6556 14.7881,14.1626 14.4753,14.4753 C14.1626,14.7881 13.6556,14.7881 13.3428,14.4753 L3.85193,4.98443 C3.5392,4.6717 3.5392,4.16466 3.85193,3.85193 C4.16466,3.5392 4.6717,3.5392 4.98443,3.85193 "/>
            <path fill-rule="nonzero" vector-effect="none" d="M14.4753,4.98443 L4.98443,14.4753 C4.6717,14.7881 4.16466,14.7881 3.85193,14.4753 C3.5392,14.1626 3.5392,13.6556 3.85193,13.3428 L13.3428,3.85193 C13.6556,3.5392 14.1626,3.5392 14.4753,3.85193 C14.7881,4.16466 14.7881,4.6717 14.4753,4.98443 "/>
        </g>
    </g>
</svg>
