<?xml version='1.0' encoding='UTF-8' standalone='no'?>
<svg width="5.29167mm" viewBox="0 0 55 55" baseProfile="tiny" xmlns="http://www.w3.org/2000/svg" xmlns:xlink="http://www.w3.org/1999/xlink" version="1.2" height="5.29167mm">
    <style id="current-color-scheme" type="text/css">.ColorScheme-Text {color:#fcfcfc;}</style>
    <title>Qt SVG Document</title>
    <desc>Auto-generated by Klassy window decoration</desc>
    <defs/>
    <g stroke-linecap="square" fill-rule="evenodd" stroke-linejoin="bevel" stroke-width="1" fill="none" stroke="black">
        <g class="ColorScheme-Text" font-weight="400" font-family="Noto Sans" font-size="36.6667" transform="matrix(3.05556,0,0,3.05556,0,0)" fill-opacity="1" fill="currentColor" font-style="normal" stroke="none">
            <path fill-rule="nonzero" vector-effect="none" d="M3.6,4.41937 C3.6,4.07981 4.07981,3.6 4.41937,3.6 L13.9079,3.6 C14.2475,3.6 14.7273,4.07981 14.7273,4.41937 L14.7273,13.9079 C14.7273,14.2475 14.2475,14.7273 13.9079,14.7273 L4.41937,14.7273 C4.07981,14.7273 3.6,14.2475 3.6,13.9079 L3.6,4.41937 M5.23636,4.41937 L5.23636,13.9079 C5.23636,13.5697 4.75761,13.0909 4.41937,13.0909 L13.9079,13.0909 C13.5697,13.0909 13.0909,13.5697 13.0909,13.9079 L13.0909,4.41937 C13.0909,4.75761 13.5697,5.23636 13.9079,5.23636 L4.41937,5.23636 C4.75761,5.23636 5.23636,4.75761 5.23636,4.41937 "/>
        </g>
    </g>
</svg>
