<?xml version='1.0' encoding='UTF-8' standalone='no'?>
<svg version="1.2" xmlns:xlink="http://www.w3.org/1999/xlink" viewBox="0 0 55 55" xmlns="http://www.w3.org/2000/svg" width="5.29167mm" height="5.29167mm" baseProfile="tiny">
    <style id="current-color-scheme" type="text/css">.ColorScheme-Text {color:#fcfcfc;}</style>
    <title>Qt SVG Document</title>
    <desc>Auto-generated by Klassy window decoration</desc>
    <defs/>
    <g stroke-linejoin="bevel" stroke-linecap="square" fill="none" stroke-width="1" stroke="black" fill-rule="evenodd">
        <g font-weight="400" class="ColorScheme-Text" font-size="36.6667" fill="currentColor" transform="matrix(3.05556,0,0,3.05556,0,0)" font-style="normal" stroke="none" font-family="Noto Sans" fill-opacity="1">
            <path vector-effect="none" fill-rule="nonzero" d="M4.58182,13.7448 L13.4182,13.7448 C13.78,13.7448 14.0734,14.0381 14.0734,14.4 C14.0734,14.7619 13.78,15.0552 13.4182,15.0552 L4.58182,15.0552 C4.21996,15.0552 3.92662,14.7619 3.92662,14.4 C3.92662,14.0381 4.21996,13.7448 4.58182,13.7448 "/>
            <path vector-effect="none" fill-rule="nonzero" d="M9.49091,9.81753 L13.4182,9.81753 C13.78,9.81753 14.0734,10.1109 14.0734,10.4727 C14.0734,10.8346 13.78,11.1279 13.4182,11.1279 L9.49091,11.1279 C9.12905,11.1279 8.83571,10.8346 8.83571,10.4727 C8.83571,10.1109 9.12905,9.81753 9.49091,9.81753 "/>
            <path vector-effect="none" fill-rule="nonzero" d="M9.49091,5.89025 L13.4182,5.89025 C13.78,5.89025 14.0734,6.1836 14.0734,6.54545 C14.0734,6.90731 13.78,7.20065 13.4182,7.20065 L9.49091,7.20065 C9.12905,7.20065 8.83571,6.90731 8.83571,6.54545 C8.83571,6.1836 9.12905,5.89025 9.49091,5.89025 "/>
            <path vector-effect="none" fill-rule="nonzero" d="M5.23702,4.58182 L5.23702,12.4364 C5.23702,12.7982 4.94368,13.0916 4.58182,13.0916 C4.21996,13.0916 3.92662,12.7982 3.92662,12.4364 L3.92662,4.58182 C3.92662,4.21996 4.21996,3.92662 4.58182,3.92662 C4.94368,3.92662 5.23702,4.21996 5.23702,4.58182 "/>
            <path vector-effect="none" fill-rule="nonzero" d="M3.08148,10.0094 L5.04511,11.9731 L4.58182,12.4364 L4.11852,11.9731 L6.08216,10.0094 C6.33803,9.75356 6.75288,9.75356 7.00875,10.0094 C7.26462,10.2653 7.26462,10.6802 7.00875,10.936 L5.04511,12.8997 L4.58182,13.363 L4.11852,12.8997 L2.15489,10.936 C1.89901,10.6802 1.89901,10.2653 2.15489,10.0094 C2.41076,9.75356 2.82561,9.75356 3.08148,10.0094 "/>
        </g>
    </g>
</svg>
