<?xml version='1.0' encoding='UTF-8' standalone='no'?>
<svg baseProfile="tiny" height="8.46667mm" version="1.2" viewBox="0 0 80 80" width="8.46667mm" xmlns="http://www.w3.org/2000/svg" xmlns:xlink="http://www.w3.org/1999/xlink">
    <style id="current-color-scheme" type="text/css">.ColorScheme-Text {color:#fcfcfc;}</style>
    <title>Qt SVG Document</title>
    <desc>Auto-generated by Klassy window decoration</desc>
    <defs/>
    <g fill="none" fill-rule="evenodd" stroke="black" stroke-linecap="square" stroke-linejoin="bevel" stroke-width="1">
        <g class="ColorScheme-Text" fill="#da0016" fill-opacity="0.719997" font-family="Noto Sans" font-size="33.3333" font-style="normal" font-weight="400" stroke="none" transform="matrix(5,0,0,5,0,0)">
            <path d="M2,3.2 C2,2.53726 2.53726,2 3.2,2 L12.8,2 C13.4627,2 14,2.53726 14,3.2 L14,12.8 C14,13.4627 13.4627,14 12.8,14 L3.2,14 C2.53726,14 2,13.4627 2,12.8 L2,3.2" fill-rule="evenodd" vector-effect="none"/>
        </g>
        <g class="ColorScheme-Text" fill="#ffffff" fill-opacity="1" font-family="Noto Sans" font-size="33.3333" font-style="normal" font-weight="400" stroke="none" transform="matrix(4.44444,0,0,4.44444,0,0)">
            <path d="M4.9449,3.8301 L14.1699,13.0551 C14.4777,13.3629 14.4777,13.8621 14.1699,14.1699 C13.8621,14.4777 13.3629,14.4777 13.0551,14.1699 L3.8301,4.9449 C3.52225,4.63706 3.52225,4.13794 3.8301,3.8301 C4.13794,3.52225 4.63706,3.52225 4.9449,3.8301 " fill-rule="nonzero" vector-effect="none"/>
            <path d="M14.1699,4.9449 L4.9449,14.1699 C4.63706,14.4777 4.13794,14.4777 3.8301,14.1699 C3.52225,13.8621 3.52225,13.3629 3.8301,13.0551 L13.0551,3.8301 C13.3629,3.52225 13.8621,3.52225 14.1699,3.8301 C14.4777,4.13794 14.4777,4.63706 14.1699,4.9449 " fill-rule="nonzero" vector-effect="none"/>
        </g>
    </g>
</svg>
