<?xml version='1.0' encoding='UTF-8' standalone='no'?>
<svg width="8.46667mm" viewBox="0 0 80 80" baseProfile="tiny" xmlns="http://www.w3.org/2000/svg" xmlns:xlink="http://www.w3.org/1999/xlink" version="1.2" height="8.46667mm">
    <style id="current-color-scheme" type="text/css">.ColorScheme-Text {color:#fcfcfc;}</style>
    <title>Qt SVG Document</title>
    <desc>Auto-generated by Klassy window decoration</desc>
    <defs/>
    <g stroke-linecap="square" fill-rule="evenodd" stroke-linejoin="bevel" stroke-width="1" fill="none" stroke="black">
        <g class="ColorScheme-Text" font-weight="400" font-family="Noto Sans" font-size="33.3333" transform="matrix(4.44444,0,0,4.44444,0,0)" fill-opacity="1" fill="currentColor" font-style="normal" stroke="none">
            <path fill-rule="nonzero" vector-effect="none" d="M4.3875,11.925 L8.4375,11.925 C8.74816,11.925 9,12.1768 9,12.4875 C9,12.7982 8.74816,13.05 8.4375,13.05 L4.3875,13.05 C4.07684,13.05 3.825,12.7982 3.825,12.4875 C3.825,12.1768 4.07684,11.925 4.3875,11.925 "/>
            <path fill-rule="nonzero" vector-effect="none" d="M4.3875,7.875 L8.4375,7.875 C8.74816,7.875 9,8.12684 9,8.4375 C9,8.74816 8.74816,9 8.4375,9 L4.3875,9 C4.07684,9 3.825,8.74816 3.825,8.4375 C3.825,8.12684 4.07684,7.875 4.3875,7.875 "/>
            <path fill-rule="nonzero" vector-effect="none" d="M4.3875,3.825 L13.3875,3.825 C13.6982,3.825 13.95,4.07684 13.95,4.3875 C13.95,4.69816 13.6982,4.95 13.3875,4.95 L4.3875,4.95 C4.07684,4.95 3.825,4.69816 3.825,4.3875 C3.825,4.07684 4.07684,3.825 4.3875,3.825 "/>
            <path fill-rule="nonzero" vector-effect="none" d="M14.175,6.4125 L14.175,14.5125 C14.175,14.8232 13.9232,15.075 13.6125,15.075 C13.3018,15.075 13.05,14.8232 13.05,14.5125 L13.05,6.4125 C13.05,6.10184 13.3018,5.85 13.6125,5.85 C13.9232,5.85 14.175,6.10184 14.175,6.4125 "/>
            <path fill-rule="nonzero" vector-effect="none" d="M11.3921,8.0638 L13.1921,6.0388 L13.6125,5.56583 L14.0329,6.0388 L15.8329,8.0638 C16.0393,8.29599 16.0184,8.65153 15.7862,8.85792 C15.554,9.06431 15.1985,9.04339 14.9921,8.8112 L13.1921,6.7862 L13.6125,6.4125 L14.0329,6.7862 L12.2329,8.8112 C12.0265,9.04339 11.671,9.06431 11.4388,8.85792 C11.2066,8.65153 11.1857,8.29599 11.3921,8.0638 "/>
        </g>
    </g>
</svg>
