<?xml version='1.0' encoding='UTF-8' standalone='no'?>
<svg width="8.46667mm" viewBox="0 0 80 80" baseProfile="tiny" xmlns="http://www.w3.org/2000/svg" xmlns:xlink="http://www.w3.org/1999/xlink" version="1.2" height="8.46667mm">
    <style id="current-color-scheme" type="text/css">.ColorScheme-Text {color:#fcfcfc;}</style>
    <title>Qt SVG Document</title>
    <desc>Auto-generated by Klassy window decoration</desc>
    <defs/>
    <g stroke-linecap="square" fill-rule="evenodd" stroke-linejoin="bevel" stroke-width="1" fill="none" stroke="black">
        <g class="ColorScheme-Text" font-weight="400" font-family="Noto Sans" font-size="33.3333" transform="matrix(4.44444,0,0,4.44444,0,0)" fill-opacity="1" fill="currentColor" font-style="normal" stroke="none">
            <path fill-rule="nonzero" vector-effect="none" d="M4.95375,3.82125 L14.1788,13.0462 C14.4915,13.359 14.4915,13.866 14.1788,14.1788 C13.866,14.4915 13.359,14.4915 13.0462,14.1788 L3.82125,4.95375 C3.50852,4.64102 3.50852,4.13398 3.82125,3.82125 C4.13398,3.50852 4.64102,3.50852 4.95375,3.82125 "/>
            <path fill-rule="nonzero" vector-effect="none" d="M14.1788,4.95375 L4.95375,14.1788 C4.64102,14.4915 4.13398,14.4915 3.82125,14.1788 C3.50852,13.866 3.50852,13.359 3.82125,13.0462 L13.0462,3.82125 C13.359,3.50852 13.866,3.50852 14.1788,3.82125 C14.4915,4.13398 14.4915,4.64102 14.1788,4.95375 "/>
        </g>
    </g>
</svg>
