<?xml version='1.0' encoding='UTF-8' standalone='no'?>
<svg width="8.46667mm" viewBox="0 0 80 80" baseProfile="tiny" xmlns="http://www.w3.org/2000/svg" xmlns:xlink="http://www.w3.org/1999/xlink" version="1.2" height="8.46667mm">
    <style id="current-color-scheme" type="text/css">.ColorScheme-Text {color:#fcfcfc;}</style>
    <title>Qt SVG Document</title>
    <desc>Auto-generated by Klassy window decoration</desc>
    <defs/>
    <g stroke-linecap="square" fill-rule="evenodd" stroke-linejoin="bevel" stroke-width="1" fill="none" stroke="black">
        <g class="ColorScheme-Text" font-weight="400" font-family="Noto Sans" font-size="33.3333" transform="matrix(4.44444,0,0,4.44444,0,0)" fill-opacity="1" fill="currentColor" font-style="normal" stroke="none">
            <path fill-rule="nonzero" vector-effect="none" d="M3.6,4.38865 C3.6,4.06182 4.06182,3.6 4.38865,3.6 L13.6113,3.6 C13.9382,3.6 14.4,4.06182 14.4,4.38865 L14.4,13.6113 C14.4,13.9382 13.9382,14.4 13.6113,14.4 L4.38865,14.4 C4.06182,14.4 3.6,13.9382 3.6,13.6113 L3.6,4.38865 M5.175,4.38865 L5.175,13.6113 C5.175,13.2858 4.71421,12.825 4.38865,12.825 L13.6113,12.825 C13.2858,12.825 12.825,13.2858 12.825,13.6113 L12.825,4.38865 C12.825,4.71421 13.2858,5.175 13.6113,5.175 L4.38865,5.175 C4.71421,5.175 5.175,4.71421 5.175,4.38865 "/>
        </g>
    </g>
</svg>
