<?xml version='1.0' encoding='UTF-8' standalone='no'?>
<svg baseProfile="tiny" height="8.46667mm" version="1.2" viewBox="0 0 80 80" width="8.46667mm" xmlns="http://www.w3.org/2000/svg" xmlns:xlink="http://www.w3.org/1999/xlink">
    <style id="current-color-scheme" type="text/css">.ColorScheme-Text {color:#fcfcfc;}</style>
    <title>Qt SVG Document</title>
    <desc>Auto-generated by Klassy window decoration</desc>
    <defs/>
    <g fill="none" fill-rule="evenodd" stroke="black" stroke-linecap="square" stroke-linejoin="bevel" stroke-width="1">
        <g class="ColorScheme-Text" fill="currentColor" fill-opacity="0.949996" font-family="Noto Sans" font-size="33.3333" font-style="normal" font-weight="400" stroke="none" transform="matrix(4.44444,0,0,4.44444,0,0)">
            <path d="M3.59921,4.38865 C3.59921,4.0615 4.0615,3.59921 4.38865,3.59921 L13.6113,3.59921 C13.9385,3.59921 14.4008,4.0615 14.4008,4.38865 L14.4008,13.6113 C14.4008,13.9385 13.9385,14.4008 13.6113,14.4008 L4.38865,14.4008 C4.0615,14.4008 3.59921,13.9385 3.59921,13.6113 L3.59921,4.38865 M5.17579,4.38865 L5.17579,13.6113 C5.17579,13.2855 4.71454,12.8242 4.38865,12.8242 L13.6113,12.8242 C13.2855,12.8242 12.8242,13.2855 12.8242,13.6113 L12.8242,4.38865 C12.8242,4.71454 13.2855,5.17579 13.6113,5.17579 L4.38865,5.17579 C4.71454,5.17579 5.17579,4.71454 5.17579,4.38865 " fill-rule="nonzero" vector-effect="none"/>
        </g>
    </g>
</svg>
