<?xml version='1.0' encoding='UTF-8' standalone='no'?>
<svg baseProfile="tiny" height="8.46667mm" version="1.2" viewBox="0 0 80 80" width="8.46667mm" xmlns="http://www.w3.org/2000/svg" xmlns:xlink="http://www.w3.org/1999/xlink">
    <style id="current-color-scheme" type="text/css">.ColorScheme-Text {color:#fcfcfc;}</style>
    <title>Qt SVG Document</title>
    <desc>Auto-generated by Klassy window decoration</desc>
    <defs/>
    <g fill="none" fill-rule="evenodd" stroke="black" stroke-linecap="square" stroke-linejoin="bevel" stroke-width="1">
        <g class="ColorScheme-Text" fill="currentColor" fill-opacity="1" font-family="Noto Sans" font-size="33.3333" font-style="normal" font-weight="400" stroke="none" transform="matrix(4.44444,0,0,4.44444,0,0)">
            <path d="M4.05,3.82432 L13.95,3.82432 C14.3232,3.82432 14.6257,4.12684 14.6257,4.5 C14.6257,4.87316 14.3232,5.17568 13.95,5.17568 L4.05,5.17568 C3.67684,5.17568 3.37432,4.87316 3.37432,4.5 C3.37432,4.12684 3.67684,3.82432 4.05,3.82432 " fill-rule="nonzero" vector-effect="none"/>
            <path d="M3.52223,12.5222 L8.52223,7.52223 L9,7.04445 L9.47777,7.52223 L14.4778,12.5222 C14.7416,12.7861 14.7416,13.2139 14.4778,13.4778 C14.2139,13.7416 13.7861,13.7416 13.5222,13.4778 L8.52223,8.47777 L9,8 L9.47777,8.47777 L4.47777,13.4778 C4.21391,13.7416 3.78609,13.7416 3.52223,13.4778 C3.25836,13.2139 3.25836,12.7861 3.52223,12.5222 " fill-rule="nonzero" vector-effect="none"/>
        </g>
    </g>
</svg>
