<?xml version='1.0' encoding='UTF-8' standalone='no'?>
<svg width="8.46667mm" viewBox="0 0 80 80" baseProfile="tiny" xmlns="http://www.w3.org/2000/svg" xmlns:xlink="http://www.w3.org/1999/xlink" version="1.2" height="8.46667mm">
    <style id="current-color-scheme" type="text/css">.ColorScheme-Text {color:#fcfcfc;}</style>
    <title>Qt SVG Document</title>
    <desc>Auto-generated by Klassy window decoration</desc>
    <defs/>
    <g stroke-linecap="square" fill-rule="evenodd" stroke-linejoin="bevel" stroke-width="1" fill="none" stroke="black">
        <g class="ColorScheme-Text" font-weight="400" font-family="Noto Sans" font-size="33.3333" transform="matrix(4.44444,0,0,4.44444,0,0)" fill-opacity="1" fill="currentColor" font-style="normal" stroke="none">
            <path fill-rule="nonzero" vector-effect="none" d="M4.6125,13.95 L13.6125,13.95 C13.9232,13.95 14.175,14.2018 14.175,14.5125 C14.175,14.8232 13.9232,15.075 13.6125,15.075 L4.6125,15.075 C4.30184,15.075 4.05,14.8232 4.05,14.5125 C4.05,14.2018 4.30184,13.95 4.6125,13.95 "/>
            <path fill-rule="nonzero" vector-effect="none" d="M9.5625,9.9 L13.6125,9.9 C13.9232,9.9 14.175,10.1518 14.175,10.4625 C14.175,10.7732 13.9232,11.025 13.6125,11.025 L9.5625,11.025 C9.25184,11.025 9,10.7732 9,10.4625 C9,10.1518 9.25184,9.9 9.5625,9.9 "/>
            <path fill-rule="nonzero" vector-effect="none" d="M9.5625,5.85 L13.6125,5.85 C13.9232,5.85 14.175,6.10184 14.175,6.4125 C14.175,6.72316 13.9232,6.975 13.6125,6.975 L9.5625,6.975 C9.25184,6.975 9,6.72316 9,6.4125 C9,6.10184 9.25184,5.85 9.5625,5.85 "/>
            <path fill-rule="nonzero" vector-effect="none" d="M4.95,4.3875 L4.95,12.4875 C4.95,12.7982 4.69816,13.05 4.3875,13.05 C4.07684,13.05 3.825,12.7982 3.825,12.4875 L3.825,4.3875 C3.825,4.07684 4.07684,3.825 4.3875,3.825 C4.69816,3.825 4.95,4.07684 4.95,4.3875 "/>
            <path fill-rule="nonzero" vector-effect="none" d="M3.00792,10.0888 L4.80792,12.1138 L4.3875,12.4875 L3.96708,12.1138 L5.76708,10.0888 C5.97347,9.85661 6.32901,9.83569 6.5612,10.0421 C6.79339,10.2485 6.81431,10.604 6.60792,10.8362 L4.80792,12.8612 L4.3875,13.3342 L3.96708,12.8612 L2.16708,10.8362 C1.96069,10.604 1.98161,10.2485 2.2138,10.0421 C2.44599,9.83569 2.80153,9.85661 3.00792,10.0888 "/>
        </g>
    </g>
</svg>
