<?xml version='1.0' encoding='UTF-8' standalone='no'?>
<svg version="1.2" xmlns:xlink="http://www.w3.org/1999/xlink" viewBox="0 0 80 80" xmlns="http://www.w3.org/2000/svg" width="8.46667mm" height="8.46667mm" baseProfile="tiny">
    <style id="current-color-scheme" type="text/css">.ColorScheme-Text {color:#fcfcfc;}</style>
    <title>Qt SVG Document</title>
    <desc>Auto-generated by Klassy window decoration</desc>
    <defs/>
    <g stroke-linejoin="bevel" stroke-linecap="square" fill="none" stroke-width="1" stroke="black" fill-rule="evenodd">
        <g font-weight="400" class="ColorScheme-Text" font-size="33.3333" fill="currentColor" transform="matrix(4.44444,0,0,4.44444,33,33)" font-style="normal" stroke="none" font-family="Noto Sans" fill-opacity="0.650004">
            <rect y="0" x="0" width="3.15" height="3.15"/>
        </g>
        <g font-weight="400" class="ColorScheme-Text" font-size="33.3333" fill="currentColor" transform="matrix(4.44444,0,0,4.44444,33,33)" font-style="normal" stroke="none" font-family="Noto Sans" fill-opacity="0.850004">
            <path vector-effect="none" fill-rule="nonzero" d="M0,-0.45045 L3.15,-0.45045 L3.60045,0 L3.60045,3.15 L3.15,3.60045 L0,3.60045 L-0.45045,3.15 L-0.45045,0 L0,-0.45045 M0.45045,0 L0.45045,3.15 L0,3.15 L0,2.69955 L3.15,2.69955 L3.15,3.15 L2.69955,3.15 L2.69955,0 L3.15,0 L3.15,0.45045 L0,0.45045 L0,0 L0.45045,0"/>
        </g>
    </g>
</svg>
