<?xml version='1.0' encoding='UTF-8' standalone='no'?>
<svg width="5.86894mm" viewBox="0 0 61 61" baseProfile="tiny" xmlns="http://www.w3.org/2000/svg" xmlns:xlink="http://www.w3.org/1999/xlink" version="1.2" height="5.86894mm">
    <style id="current-color-scheme" type="text/css">.ColorScheme-Text {color:#fcfcfc;}</style>
    <title>Qt SVG Document</title>
    <desc>Auto-generated by Klassy window decoration</desc>
    <defs/>
    <g stroke-linecap="square" fill-rule="evenodd" stroke-linejoin="bevel" stroke-width="1" fill="none" stroke="black">
        <g class="ColorScheme-Text" font-weight="400" font-family="Noto Sans" font-size="36.6667" transform="matrix(3.38889,0,0,3.38889,0,0)" fill-opacity="1" fill="currentColor" font-style="normal" stroke="none">
            <path fill-rule="nonzero" vector-effect="none" d="M4.42623,13.8689 L13.5738,13.8689 C13.8997,13.8689 14.1639,14.1331 14.1639,14.459 C14.1639,14.785 13.8997,15.0492 13.5738,15.0492 L4.42623,15.0492 C4.10029,15.0492 3.83607,14.785 3.83607,14.459 C3.83607,14.1331 4.10029,13.8689 4.42623,13.8689 "/>
            <path fill-rule="nonzero" vector-effect="none" d="M9.44262,9.7377 L13.5738,9.7377 C13.8997,9.7377 14.1639,10.0019 14.1639,10.3279 C14.1639,10.6538 13.8997,10.918 13.5738,10.918 L9.44262,10.918 C9.11668,10.918 8.85246,10.6538 8.85246,10.3279 C8.85246,10.0019 9.11668,9.7377 9.44262,9.7377 "/>
            <path fill-rule="nonzero" vector-effect="none" d="M9.44262,5.60656 L13.5738,5.60656 C13.8997,5.60656 14.1639,5.87078 14.1639,6.19672 C14.1639,6.52266 13.8997,6.78689 13.5738,6.78689 L9.44262,6.78689 C9.11668,6.78689 8.85246,6.52266 8.85246,6.19672 C8.85246,5.87078 9.11668,5.60656 9.44262,5.60656 "/>
            <path fill-rule="nonzero" vector-effect="none" d="M5.01639,4.42623 L5.01639,12.3934 C5.01639,12.7194 4.75217,12.9836 4.42623,12.9836 C4.10029,12.9836 3.83607,12.7194 3.83607,12.3934 L3.83607,4.42623 C3.83607,4.10029 4.10029,3.83607 4.42623,3.83607 C4.75217,3.83607 5.01639,4.10029 5.01639,4.42623 "/>
            <path fill-rule="nonzero" vector-effect="none" d="M2.74473,10.1749 L4.8103,11.9454 L4.42623,12.3934 L4.04216,11.9454 L6.10773,10.1749 C6.3552,9.96275 6.72777,9.99141 6.93989,10.2389 C7.15201,10.4863 7.12335,10.8589 6.87588,11.071 L4.8103,12.8415 L4.42623,13.1707 L4.04216,12.8415 L1.97658,11.071 C1.72911,10.8589 1.70045,10.4863 1.91257,10.2389 C2.12469,9.99141 2.49726,9.96275 2.74473,10.1749 "/>
        </g>
    </g>
</svg>
