<?xml version='1.0' encoding='UTF-8' standalone='no'?>
<svg width="5.86894mm" viewBox="0 0 61 61" baseProfile="tiny" xmlns="http://www.w3.org/2000/svg" xmlns:xlink="http://www.w3.org/1999/xlink" version="1.2" height="5.86894mm">
    <style id="current-color-scheme" type="text/css">.ColorScheme-Text {color:#fcfcfc;}</style>
    <title>Qt SVG Document</title>
    <desc>Auto-generated by Klassy window decoration</desc>
    <defs/>
    <g stroke-linecap="square" fill-rule="evenodd" stroke-linejoin="bevel" stroke-width="1" fill="none" stroke="black">
        <g class="ColorScheme-Text" font-weight="400" font-family="Noto Sans" font-size="36.6667" transform="matrix(3.38889,0,0,3.38889,25.5,25.5)" fill-opacity="0.650004" fill="currentColor" font-style="normal" stroke="none">
            <rect width="3.2459" y="0" x="0" height="3.2459"/>
        </g>
        <g class="ColorScheme-Text" font-weight="400" font-family="Noto Sans" font-size="36.6667" transform="matrix(3.38889,0,0,3.38889,25.5,25.5)" fill-opacity="0.850004" fill="currentColor" font-style="normal" stroke="none">
            <path fill-rule="nonzero" vector-effect="none" d="M0,-0.442623 L3.2459,-0.442623 L3.68852,0 L3.68852,3.2459 L3.2459,3.68852 L0,3.68852 L-0.442623,3.2459 L-0.442623,0 L0,-0.442623 M0.442623,0 L0.442623,3.2459 L0,3.2459 L0,2.80328 L3.2459,2.80328 L3.2459,3.2459 L2.80328,3.2459 L2.80328,0 L3.2459,0 L3.2459,0.442623 L0,0.442623 L0,0 L0.442623,0"/>
        </g>
    </g>
</svg>
