<?xml version='1.0' encoding='UTF-8' standalone='no'?>
<svg baseProfile="tiny" height="5.86894mm" version="1.2" viewBox="0 0 61 61" width="5.86894mm" xmlns="http://www.w3.org/2000/svg" xmlns:xlink="http://www.w3.org/1999/xlink">
    <style id="current-color-scheme" type="text/css">.ColorScheme-Text {color:#fcfcfc;}</style>
    <title>Qt SVG Document</title>
    <desc>Auto-generated by Klassy window decoration</desc>
    <defs/>
    <g fill="none" fill-rule="evenodd" stroke="black" stroke-linecap="square" stroke-linejoin="bevel" stroke-width="1">
        <g class="ColorScheme-Text" fill="currentColor" fill-opacity="1" font-family="Noto Sans" font-size="36.6667" font-style="normal" font-weight="400" stroke="none" transform="matrix(3.38889,0,0,3.38889,0,0)">
            <path d="M5.09593,4.05161 L14.2435,13.1992 C14.5318,13.4875 14.5318,13.9551 14.2435,14.2435 C13.9551,14.5318 13.4875,14.5318 13.1992,14.2435 L4.05161,5.09593 C3.76323,4.80755 3.76323,4.33999 4.05161,4.05161 C4.33999,3.76323 4.80755,3.76323 5.09593,4.05161 " fill-rule="nonzero" vector-effect="none"/>
            <path d="M14.2435,5.09593 L5.09593,14.2435 C4.80755,14.5318 4.33999,14.5318 4.05161,14.2435 C3.76323,13.9551 3.76323,13.4875 4.05161,13.1992 L13.1992,4.05161 C13.4875,3.76323 13.9551,3.76323 14.2435,4.05161 C14.5318,4.33999 14.5318,4.80755 14.2435,5.09593 " fill-rule="nonzero" vector-effect="none"/>
        </g>
    </g>
</svg>
