<?xml version='1.0' encoding='UTF-8' standalone='no'?>
<svg baseProfile="tiny" height="5.86894mm" version="1.2" viewBox="0 0 61 61" width="5.86894mm" xmlns="http://www.w3.org/2000/svg" xmlns:xlink="http://www.w3.org/1999/xlink">
    <style id="current-color-scheme" type="text/css">.ColorScheme-Text {color:#fcfcfc;}</style>
    <title>Qt SVG Document</title>
    <desc>Auto-generated by Klassy window decoration</desc>
    <defs/>
    <g fill="none" fill-rule="evenodd" stroke="black" stroke-linecap="square" stroke-linejoin="bevel" stroke-width="1">
        <g class="ColorScheme-Text" fill="currentColor" fill-opacity="0.949996" font-family="Noto Sans" font-size="36.6667" font-style="normal" font-weight="400" stroke="none" transform="matrix(3.38889,0,0,3.38889,13.5,24.5)">
            <path d="M0,-0.738443 L7.08197,-0.738443 L7.82041,0 L7.82041,7.08197 L7.08197,7.82041 L0,7.82041 L-0.738443,7.08197 L-0.738443,0 L0,-0.738443 M0.738443,0 L0.738443,7.08197 L0,7.08197 L0,6.34352 L7.08197,6.34352 L7.08197,7.08197 L6.34352,7.08197 L6.34352,0 L7.08197,0 L7.08197,0.738443 L0,0.738443 L0,0 L0.738443,0" fill-rule="nonzero" vector-effect="none"/>
        </g>
        <g class="ColorScheme-Text" fill="currentColor" fill-opacity="0.949996" font-family="Noto Sans" font-size="36.6667" font-style="normal" font-weight="400" stroke="none" transform="matrix(3.38889,0,0,3.38889,13.5,24.5)">
            <path d="M2.21238,-0.738443 L2.21238,-2.95082 L2.95082,-3.68926 L10.0328,-3.68926 L10.7712,-2.95082 L10.7712,4.13115 L10.0328,4.86959 L7.82041,4.86959 L7.82041,3.3927 L10.0328,3.3927 L10.0328,4.13115 L9.29434,4.13115 L9.29434,-2.95082 L10.0328,-2.95082 L10.0328,-2.21238 L2.95082,-2.21238 L2.95082,-2.95082 L3.68926,-2.95082 L3.68926,-0.738443 L2.21238,-0.738443" fill-rule="nonzero" vector-effect="none"/>
        </g>
    </g>
</svg>
