<?xml version='1.0' encoding='UTF-8' standalone='no'?>
<svg version="1.2" xmlns:xlink="http://www.w3.org/1999/xlink" viewBox="0 0 61 61" xmlns="http://www.w3.org/2000/svg" width="5.86894mm" height="5.86894mm" baseProfile="tiny">
    <style id="current-color-scheme" type="text/css">.ColorScheme-Text {color:#fcfcfc;}</style>
    <title>Qt SVG Document</title>
    <desc>Auto-generated by Klassy window decoration</desc>
    <defs/>
    <g stroke-linejoin="bevel" stroke-linecap="square" fill="none" stroke-width="1" stroke="black" fill-rule="evenodd">
        <g font-weight="400" class="ColorScheme-Text" font-size="36.6667" fill="currentColor" transform="matrix(3.38889,0,0,3.38889,25.5,25.5)" font-style="normal" stroke="none" font-family="Noto Sans" fill-opacity="0.650004">
            <rect y="0" x="0" width="3.2459" height="3.2459"/>
        </g>
        <g font-weight="400" class="ColorScheme-Text" font-size="36.6667" fill="currentColor" transform="matrix(3.38889,0,0,3.38889,25.5,25.5)" font-style="normal" stroke="none" font-family="Noto Sans" fill-opacity="0.850004">
            <path vector-effect="none" fill-rule="nonzero" d="M0,-0.443066 L3.2459,-0.443066 L3.68897,0 L3.68897,3.2459 L3.2459,3.68897 L0,3.68897 L-0.443066,3.2459 L-0.443066,0 L0,-0.443066 M0.443066,0 L0.443066,3.2459 L0,3.2459 L0,2.80284 L3.2459,2.80284 L3.2459,3.2459 L2.80284,3.2459 L2.80284,0 L3.2459,0 L3.2459,0.443066 L0,0.443066 L0,0 L0.443066,0"/>
        </g>
    </g>
</svg>
