<?xml version='1.0' encoding='UTF-8' standalone='no'?>
<svg version="1.2" xmlns:xlink="http://www.w3.org/1999/xlink" viewBox="0 0 61 61" xmlns="http://www.w3.org/2000/svg" width="5.86894mm" height="5.86894mm" baseProfile="tiny">
    <style id="current-color-scheme" type="text/css">.ColorScheme-Text {color:#fcfcfc;}</style>
    <title>Qt SVG Document</title>
    <desc>Auto-generated by Klassy window decoration</desc>
    <defs/>
    <g stroke-linejoin="bevel" stroke-linecap="square" fill="none" stroke-width="1" stroke="black" fill-rule="evenodd">
        <g font-weight="400" class="ColorScheme-Text" font-size="36.6667" fill="currentColor" transform="matrix(3.38889,0,0,3.38889,0,0)" font-style="normal" stroke="none" font-family="Noto Sans" fill-opacity="1">
            <path vector-effect="none" fill-rule="nonzero" d="M4.42623,13.8683 L13.5738,13.8683 C13.9,13.8683 14.1645,14.1328 14.1645,14.459 C14.1645,14.7853 13.9,15.0498 13.5738,15.0498 L4.42623,15.0498 C4.09997,15.0498 3.83548,14.7853 3.83548,14.459 C3.83548,14.1328 4.09997,13.8683 4.42623,13.8683 "/>
            <path vector-effect="none" fill-rule="nonzero" d="M9.44262,9.73711 L13.5738,9.73711 C13.9,9.73711 14.1645,10.0016 14.1645,10.3279 C14.1645,10.6541 13.9,10.9186 13.5738,10.9186 L9.44262,10.9186 C9.11636,10.9186 8.85187,10.6541 8.85187,10.3279 C8.85187,10.0016 9.11636,9.73711 9.44262,9.73711 "/>
            <path vector-effect="none" fill-rule="nonzero" d="M9.44262,5.60597 L13.5738,5.60597 C13.9,5.60597 14.1645,5.87046 14.1645,6.19672 C14.1645,6.52299 13.9,6.78748 13.5738,6.78748 L9.44262,6.78748 C9.11636,6.78748 8.85187,6.52299 8.85187,6.19672 C8.85187,5.87046 9.11636,5.60597 9.44262,5.60597 "/>
            <path vector-effect="none" fill-rule="nonzero" d="M5.01698,4.42623 L5.01698,12.3934 C5.01698,12.7197 4.75249,12.9842 4.42623,12.9842 C4.09997,12.9842 3.83548,12.7197 3.83548,12.3934 L3.83548,4.42623 C3.83548,4.09997 4.09997,3.83548 4.42623,3.83548 C4.75249,3.83548 5.01698,4.09997 5.01698,4.42623 "/>
            <path vector-effect="none" fill-rule="nonzero" d="M2.74511,10.1744 L4.81069,11.9449 L4.42623,12.3934 L4.04177,11.9449 L6.10735,10.1744 C6.35506,9.96209 6.72801,9.99077 6.94034,10.2385 C7.15267,10.4862 7.12398,10.8592 6.87626,11.0715 L4.81069,12.842 L4.42623,13.1715 L4.04177,12.842 L1.9762,11.0715 C1.72848,10.8592 1.69979,10.4862 1.91212,10.2385 C2.12445,9.99077 2.49739,9.96209 2.74511,10.1744 "/>
        </g>
    </g>
</svg>
