<?xml version='1.0' encoding='UTF-8' standalone='no'?>
<svg width="5.86894mm" viewBox="0 0 61 61" baseProfile="tiny" xmlns="http://www.w3.org/2000/svg" xmlns:xlink="http://www.w3.org/1999/xlink" version="1.2" height="5.86894mm">
    <style id="current-color-scheme" type="text/css">.ColorScheme-Text {color:#fcfcfc;}</style>
    <title>Qt SVG Document</title>
    <desc>Auto-generated by Klassy window decoration</desc>
    <defs/>
    <g stroke-linecap="square" fill-rule="evenodd" stroke-linejoin="bevel" stroke-width="1" fill="none" stroke="black">
        <g class="ColorScheme-Text" font-weight="400" font-family="Noto Sans" font-size="36.6667" transform="matrix(3.38889,0,0,3.38889,13.5,24.5)" fill-opacity="1" fill="currentColor" font-style="normal" stroke="none">
            <path fill-rule="nonzero" vector-effect="none" d="M0,-0.737705 L7.08197,-0.737705 L7.81967,0 L7.81967,7.08197 L7.08197,7.81967 L0,7.81967 L-0.737705,7.08197 L-0.737705,0 L0,-0.737705 M0.737705,0 L0.737705,7.08197 L0,7.08197 L0,6.34426 L7.08197,6.34426 L7.08197,7.08197 L6.34426,7.08197 L6.34426,0 L7.08197,0 L7.08197,0.737705 L0,0.737705 L0,0 L0.737705,0"/>
        </g>
        <g class="ColorScheme-Text" font-weight="400" font-family="Noto Sans" font-size="36.6667" transform="matrix(3.38889,0,0,3.38889,13.5,24.5)" fill-opacity="1" fill="currentColor" font-style="normal" stroke="none">
            <path fill-rule="nonzero" vector-effect="none" d="M2.21311,-0.737705 L2.21311,-2.95082 L2.95082,-3.68852 L10.0328,-3.68852 L10.7705,-2.95082 L10.7705,4.13115 L10.0328,4.86885 L7.81967,4.86885 L7.81967,3.39344 L10.0328,3.39344 L10.0328,4.13115 L9.29508,4.13115 L9.29508,-2.95082 L10.0328,-2.95082 L10.0328,-2.21311 L2.95082,-2.21311 L2.95082,-2.95082 L3.68852,-2.95082 L3.68852,-0.737705 L2.21311,-0.737705"/>
        </g>
    </g>
</svg>
