<?xml version='1.0' encoding='UTF-8' standalone='no'?>
<svg width="6.35mm" viewBox="0 0 60 60" baseProfile="tiny" xmlns="http://www.w3.org/2000/svg" xmlns:xlink="http://www.w3.org/1999/xlink" version="1.2" height="6.35mm">
    <style id="current-color-scheme" type="text/css">.ColorScheme-Text {color:#fcfcfc;}</style>
    <title>Qt SVG Document</title>
    <desc>Auto-generated by Klassy window decoration</desc>
    <defs/>
    <g stroke-linecap="square" fill-rule="evenodd" stroke-linejoin="bevel" stroke-width="1" fill="none" stroke="black">
        <g class="ColorScheme-Text" font-weight="400" font-family="Noto Sans" font-size="33.3333" transform="matrix(3.33333,0,0,3.33333,13.5,23.5)" fill-opacity="1" fill="currentColor" font-style="normal" stroke="none">
            <path fill-rule="nonzero" vector-effect="none" d="M0,-0.75 L7.2,-0.75 L7.95,0 L7.95,7.2 L7.2,7.95 L0,7.95 L-0.75,7.2 L-0.75,0 L0,-0.75 M0.75,0 L0.75,7.2 L0,7.2 L0,6.45 L7.2,6.45 L7.2,7.2 L6.45,7.2 L6.45,0 L7.2,0 L7.2,0.75 L0,0.75 L0,0 L0.75,0"/>
        </g>
        <g class="ColorScheme-Text" font-weight="400" font-family="Noto Sans" font-size="33.3333" transform="matrix(3.33333,0,0,3.33333,13.5,23.5)" fill-opacity="1" fill="currentColor" font-style="normal" stroke="none">
            <path fill-rule="nonzero" vector-effect="none" d="M2.25,-0.75 L2.25,-3 L3,-3.75 L10.2,-3.75 L10.95,-3 L10.95,4.2 L10.2,4.95 L7.95,4.95 L7.95,3.45 L10.2,3.45 L10.2,4.2 L9.45,4.2 L9.45,-3 L10.2,-3 L10.2,-2.25 L3,-2.25 L3,-3 L3.75,-3 L3.75,-0.75 L2.25,-0.75"/>
        </g>
    </g>
</svg>
