<?xml version='1.0' encoding='UTF-8' standalone='no'?>
<svg width="8.46667mm" viewBox="0 0 72 72" baseProfile="tiny" xmlns="http://www.w3.org/2000/svg" xmlns:xlink="http://www.w3.org/1999/xlink" version="1.2" height="8.46667mm">
    <style id="current-color-scheme" type="text/css">.ColorScheme-Text {color:#fcfcfc;}</style>
    <title>Qt SVG Document</title>
    <desc>Auto-generated by Klassy window decoration</desc>
    <defs/>
    <g stroke-linecap="square" fill-rule="evenodd" stroke-linejoin="bevel" stroke-width="1" fill="none" stroke="black">
        <g class="ColorScheme-Text" font-weight="400" font-family="Noto Sans" font-size="30" transform="matrix(4,0,0,4,0,0)" fill-opacity="1" fill="currentColor" font-style="normal" stroke="none">
            <path fill-rule="nonzero" vector-effect="none" d="M4.625,14 L13.625,14 C13.9702,14 14.25,14.2798 14.25,14.625 C14.25,14.9702 13.9702,15.25 13.625,15.25 L4.625,15.25 C4.27982,15.25 4,14.9702 4,14.625 C4,14.2798 4.27982,14 4.625,14 "/>
            <path fill-rule="nonzero" vector-effect="none" d="M9.625,10 L13.625,10 C13.9702,10 14.25,10.2798 14.25,10.625 C14.25,10.9702 13.9702,11.25 13.625,11.25 L9.625,11.25 C9.27982,11.25 9,10.9702 9,10.625 C9,10.2798 9.27982,10 9.625,10 "/>
            <path fill-rule="nonzero" vector-effect="none" d="M9.625,6 L13.625,6 C13.9702,6 14.25,6.27982 14.25,6.625 C14.25,6.97018 13.9702,7.25 13.625,7.25 L9.625,7.25 C9.27982,7.25 9,6.97018 9,6.625 C9,6.27982 9.27982,6 9.625,6 "/>
            <path fill-rule="nonzero" vector-effect="none" d="M5,4.375 L5,12.375 C5,12.7202 4.72018,13 4.375,13 C4.02982,13 3.75,12.7202 3.75,12.375 L3.75,4.375 C3.75,4.02982 4.02982,3.75 4.375,3.75 C4.72018,3.75 5,4.02982 5,4.375 "/>
            <path fill-rule="nonzero" vector-effect="none" d="M2.81694,9.93306 L4.81694,11.9331 L4.375,12.375 L3.93306,11.9331 L5.93306,9.93306 C6.17714,9.68898 6.57286,9.68898 6.81694,9.93306 C7.06102,10.1771 7.06102,10.5729 6.81694,10.8169 L4.81694,12.8169 L4.375,13.2589 L3.93306,12.8169 L1.93306,10.8169 C1.68898,10.5729 1.68898,10.1771 1.93306,9.93306 C2.17714,9.68898 2.57286,9.68898 2.81694,9.93306 "/>
        </g>
    </g>
</svg>
