<?xml version='1.0' encoding='UTF-8' standalone='no'?>
<svg width="8.46667mm" viewBox="0 0 72 72" baseProfile="tiny" xmlns="http://www.w3.org/2000/svg" xmlns:xlink="http://www.w3.org/1999/xlink" version="1.2" height="8.46667mm">
    <style id="current-color-scheme" type="text/css">.ColorScheme-Text {color:#fcfcfc;}</style>
    <title>Qt SVG Document</title>
    <desc>Auto-generated by Klassy window decoration</desc>
    <defs/>
    <g stroke-linecap="square" fill-rule="evenodd" stroke-linejoin="bevel" stroke-width="1" fill="none" stroke="black">
        <g class="ColorScheme-Text" font-weight="400" font-family="Noto Sans" font-size="30" transform="matrix(4,0,0,4,0,0)" fill-opacity="1" fill="currentColor" font-style="normal" stroke="none">
            <path fill-rule="nonzero" vector-effect="none" d="M4.375,11.75 L8.375,11.75 C8.72018,11.75 9,12.0298 9,12.375 C9,12.7202 8.72018,13 8.375,13 L4.375,13 C4.02982,13 3.75,12.7202 3.75,12.375 C3.75,12.0298 4.02982,11.75 4.375,11.75 "/>
            <path fill-rule="nonzero" vector-effect="none" d="M4.375,7.75 L8.375,7.75 C8.72018,7.75 9,8.02982 9,8.375 C9,8.72018 8.72018,9 8.375,9 L4.375,9 C4.02982,9 3.75,8.72018 3.75,8.375 C3.75,8.02982 4.02982,7.75 4.375,7.75 "/>
            <path fill-rule="nonzero" vector-effect="none" d="M4.375,3.75 L13.375,3.75 C13.7202,3.75 14,4.02982 14,4.375 C14,4.72018 13.7202,5 13.375,5 L4.375,5 C4.02982,5 3.75,4.72018 3.75,4.375 C3.75,4.02982 4.02982,3.75 4.375,3.75 "/>
            <path fill-rule="nonzero" vector-effect="none" d="M14.25,6.625 L14.25,14.625 C14.25,14.9702 13.9702,15.25 13.625,15.25 C13.2798,15.25 13,14.9702 13,14.625 L13,6.625 C13,6.27982 13.2798,6 13.625,6 C13.9702,6 14.25,6.27982 14.25,6.625 "/>
            <path fill-rule="nonzero" vector-effect="none" d="M11.1831,8.18306 L13.1831,6.18306 L13.625,5.74112 L14.0669,6.18306 L16.0669,8.18306 C16.311,8.42714 16.311,8.82286 16.0669,9.06694 C15.8229,9.31102 15.4271,9.31102 15.1831,9.06694 L13.1831,7.06694 L13.625,6.625 L14.0669,7.06694 L12.0669,9.06694 C11.8229,9.31102 11.4271,9.31102 11.1831,9.06694 C10.939,8.82286 10.939,8.42714 11.1831,8.18306 "/>
        </g>
    </g>
</svg>
