<?xml version='1.0' encoding='UTF-8' standalone='no'?>
<svg baseProfile="tiny" height="8.46667mm" version="1.2" viewBox="0 0 72 72" width="8.46667mm" xmlns="http://www.w3.org/2000/svg" xmlns:xlink="http://www.w3.org/1999/xlink">
    <style id="current-color-scheme" type="text/css">.ColorScheme-Text {color:#fcfcfc;}</style>
    <title>Qt SVG Document</title>
    <desc>Auto-generated by Klassy window decoration</desc>
    <defs/>
    <g fill="none" fill-rule="evenodd" stroke="black" stroke-linecap="square" stroke-linejoin="bevel" stroke-width="1">
        <g class="ColorScheme-Text" fill="currentColor" fill-opacity="0.549996" font-family="Noto Sans" font-size="30" font-style="normal" font-weight="400" stroke="none" transform="matrix(4,0,0,4,30,30)">
            <rect height="3" width="3" x="0" y="0"/>
        </g>
        <g class="ColorScheme-Text" fill="currentColor" fill-opacity="0.902495" font-family="Noto Sans" font-size="30" font-style="normal" font-weight="400" stroke="none" transform="matrix(4,0,0,4,30,30)">
            <path d="M0,-0.5005 L3,-0.5005 L3.5005,0 L3.5005,3 L3,3.5005 L0,3.5005 L-0.5005,3 L-0.5005,0 L0,-0.5005 M0.5005,0 L0.5005,3 L0,3 L0,2.4995 L3,2.4995 L3,3 L2.4995,3 L2.4995,0 L3,0 L3,0.5005 L0,0.5005 L0,0 L0.5005,0" fill-rule="nonzero" vector-effect="none"/>
        </g>
    </g>
</svg>
