<?xml version='1.0' encoding='UTF-8' standalone='no'?>
<svg version="1.2" xmlns:xlink="http://www.w3.org/1999/xlink" viewBox="0 0 44 44" xmlns="http://www.w3.org/2000/svg" width="5.82083mm" height="5.82083mm" baseProfile="tiny">
    <style id="current-color-scheme" type="text/css">.ColorScheme-Text {color:#fcfcfc;}</style>
    <title>Qt SVG Document</title>
    <desc>Auto-generated by Klassy window decoration</desc>
    <defs/>
    <g stroke-linejoin="bevel" stroke-linecap="square" fill="none" stroke-width="1" stroke="black" fill-rule="evenodd">
        <g font-weight="400" class="ColorScheme-Text" font-size="26.6667" fill="currentColor" transform="matrix(2.44444,0,0,2.44444,0,0)" font-style="normal" stroke="none" font-family="Noto Sans" fill-opacity="1">
            <path vector-effect="none" fill-rule="nonzero" d="M4.29545,11.863 L8.38636,11.863 C8.7256,11.863 9.00061,12.138 9.00061,12.4773 C9.00061,12.8165 8.7256,13.0915 8.38636,13.0915 L4.29545,13.0915 C3.95621,13.0915 3.6812,12.8165 3.6812,12.4773 C3.6812,12.138 3.95621,11.863 4.29545,11.863 "/>
            <path vector-effect="none" fill-rule="nonzero" d="M4.29545,7.77211 L8.38636,7.77211 C8.7256,7.77211 9.00061,8.04712 9.00061,8.38636 C9.00061,8.7256 8.7256,9.00061 8.38636,9.00061 L4.29545,9.00061 C3.95621,9.00061 3.6812,8.7256 3.6812,8.38636 C3.6812,8.04712 3.95621,7.77211 4.29545,7.77211 "/>
            <path vector-effect="none" fill-rule="nonzero" d="M4.29545,3.6812 L13.2955,3.6812 C13.6347,3.6812 13.9097,3.95621 13.9097,4.29545 C13.9097,4.6347 13.6347,4.9097 13.2955,4.9097 L4.29545,4.9097 C3.95621,4.9097 3.6812,4.6347 3.6812,4.29545 C3.6812,3.95621 3.95621,3.6812 4.29545,3.6812 "/>
            <path vector-effect="none" fill-rule="nonzero" d="M14.3188,6.34091 L14.3188,14.5227 C14.3188,14.862 14.0438,15.137 13.7045,15.137 C13.3653,15.137 13.0903,14.862 13.0903,14.5227 L13.0903,6.34091 C13.0903,6.00167 13.3653,5.72666 13.7045,5.72666 C14.0438,5.72666 14.3188,6.00167 14.3188,6.34091 "/>
            <path vector-effect="none" fill-rule="nonzero" d="M11.5885,8.00264 L13.2249,5.95719 L13.7045,5.35763 L14.1842,5.95719 L15.8206,8.00264 C16.0325,8.26755 15.9895,8.65409 15.7246,8.86601 C15.4597,9.07793 15.0732,9.03499 14.8613,8.77008 L13.2249,6.72463 L13.7045,6.34091 L14.1842,6.72463 L12.5478,8.77008 C12.3359,9.03499 11.9494,9.07793 11.6845,8.86601 C11.4196,8.65409 11.3766,8.26755 11.5885,8.00264 "/>
        </g>
    </g>
</svg>
