<?xml version='1.0' encoding='UTF-8' standalone='no'?>
<svg version="1.2" xmlns:xlink="http://www.w3.org/1999/xlink" viewBox="0 0 44 44" xmlns="http://www.w3.org/2000/svg" width="5.82083mm" height="5.82083mm" baseProfile="tiny">
    <style id="current-color-scheme" type="text/css">.ColorScheme-Text {color:#fcfcfc;}</style>
    <title>Qt SVG Document</title>
    <desc>Auto-generated by Klassy window decoration</desc>
    <defs/>
    <g stroke-linejoin="bevel" stroke-linecap="square" fill="none" stroke-width="1" stroke="black" fill-rule="evenodd">
        <g font-weight="400" class="ColorScheme-Text" font-size="26.6667" fill="currentColor" transform="matrix(2.44444,0,0,2.44444,0,0)" font-style="normal" stroke="none" font-family="Noto Sans" fill-opacity="1">
            <path vector-effect="none" fill-rule="nonzero" d="M5.07912,3.92088 L14.0791,12.9209 C14.399,13.2407 14.399,13.7593 14.0791,14.0791 C13.7593,14.399 13.2407,14.399 12.9209,14.0791 L3.92088,5.07912 C3.60104,4.75928 3.60104,4.24072 3.92088,3.92088 C4.24072,3.60104 4.75928,3.60104 5.07912,3.92088 "/>
            <path vector-effect="none" fill-rule="nonzero" d="M14.0791,5.07912 L5.07912,14.0791 C4.75928,14.399 4.24072,14.399 3.92088,14.0791 C3.60104,13.7593 3.60104,13.2407 3.92088,12.9209 L12.9209,3.92088 C13.2407,3.60104 13.7593,3.60104 14.0791,3.92088 C14.399,4.24072 14.399,4.75928 14.0791,5.07912 "/>
        </g>
    </g>
</svg>
