<?xml version='1.0' encoding='UTF-8' standalone='no'?>
<svg width="5.82083mm" viewBox="0 0 44 44" baseProfile="tiny" xmlns="http://www.w3.org/2000/svg" xmlns:xlink="http://www.w3.org/1999/xlink" version="1.2" height="5.82083mm">
    <style id="current-color-scheme" type="text/css">.ColorScheme-Text {color:#fcfcfc;}</style>
    <title>Qt SVG Document</title>
    <desc>Auto-generated by Klassy window decoration</desc>
    <defs/>
    <g stroke-linecap="square" fill-rule="evenodd" stroke-linejoin="bevel" stroke-width="1" fill="none" stroke="black">
        <g class="ColorScheme-Text" font-weight="400" font-family="Noto Sans" font-size="26.6667" transform="matrix(2.44444,0,0,2.44444,0,0)" fill-opacity="1" fill="currentColor" font-style="normal" stroke="none">
            <path fill-rule="nonzero" vector-effect="none" d="M4.09091,4.09091 L13.9091,4.09091 C14.248,4.09091 14.5227,4.36564 14.5227,4.70455 C14.5227,5.04345 14.248,5.31818 13.9091,5.31818 L4.09091,5.31818 C3.75201,5.31818 3.47727,5.04345 3.47727,4.70455 C3.47727,4.36564 3.75201,4.09091 4.09091,4.09091 "/>
            <path fill-rule="nonzero" vector-effect="none" d="M4.43391,7.56609 L9.43391,12.5661 L9,13 L8.56609,12.5661 L13.5661,7.56609 C13.8057,7.32645 14.1943,7.32645 14.4339,7.56609 C14.6735,7.80573 14.6735,8.19427 14.4339,8.43391 L9.43391,13.4339 L9,13.8678 L8.56609,13.4339 L3.56609,8.43391 C3.32645,8.19427 3.32645,7.80573 3.56609,7.56609 C3.80573,7.32645 4.19427,7.32645 4.43391,7.56609 "/>
        </g>
    </g>
</svg>
