<?xml version='1.0' encoding='UTF-8' standalone='no'?>
<svg version="1.2" xmlns:xlink="http://www.w3.org/1999/xlink" viewBox="0 0 50 50" xmlns="http://www.w3.org/2000/svg" width="5.87963mm" height="5.87963mm" baseProfile="tiny">
    <style id="current-color-scheme" type="text/css">.ColorScheme-Text {color:#fcfcfc;}</style>
    <title>Qt SVG Document</title>
    <desc>Auto-generated by Klassy window decoration</desc>
    <defs/>
    <g stroke-linejoin="bevel" stroke-linecap="square" fill="none" stroke-width="1" stroke="black" fill-rule="evenodd">
        <g font-weight="400" class="ColorScheme-Text" font-size="30" fill="#da0016" transform="matrix(3.125,0,0,3.125,0,0)" font-style="normal" stroke="none" font-family="Noto Sans" fill-opacity="0.719997">
            <path vector-effect="none" fill-rule="evenodd" d="M2,3.2 C2,2.53726 2.53726,2 3.2,2 L12.8,2 C13.4627,2 14,2.53726 14,3.2 L14,12.8 C14,13.4627 13.4627,14 12.8,14 L3.2,14 C2.53726,14 2,13.4627 2,12.8 L2,3.2"/>
        </g>
        <g font-weight="400" class="ColorScheme-Text" font-size="30" fill="#ffffff" transform="matrix(2.77778,0,0,2.77778,0,0)" font-style="normal" stroke="none" font-family="Noto Sans" fill-opacity="1">
            <path vector-effect="none" fill-rule="nonzero" d="M4.82963,3.81037 L14.1896,13.1704 C14.4711,13.4518 14.4711,13.9082 14.1896,14.1896 C13.9082,14.4711 13.4518,14.4711 13.1704,14.1896 L3.81037,4.82963 C3.52892,4.54817 3.52892,4.09183 3.81037,3.81037 C4.09183,3.52892 4.54817,3.52892 4.82963,3.81037 "/>
            <path vector-effect="none" fill-rule="nonzero" d="M14.1896,4.82963 L4.82963,14.1896 C4.54817,14.4711 4.09183,14.4711 3.81037,14.1896 C3.52892,13.9082 3.52892,13.4518 3.81037,13.1704 L13.1704,3.81037 C13.4518,3.52892 13.9082,3.52892 14.1896,3.81037 C14.4711,4.09183 14.4711,4.54817 14.1896,4.82963 "/>
        </g>
    </g>
</svg>
