<?xml version='1.0' encoding='UTF-8' standalone='no'?>
<svg width="5.87963mm" viewBox="0 0 50 50" baseProfile="tiny" xmlns="http://www.w3.org/2000/svg" xmlns:xlink="http://www.w3.org/1999/xlink" version="1.2" height="5.87963mm">
    <style id="current-color-scheme" type="text/css">.ColorScheme-Text {color:#fcfcfc;}</style>
    <title>Qt SVG Document</title>
    <desc>Auto-generated by Klassy window decoration</desc>
    <defs/>
    <g stroke-linecap="square" fill-rule="evenodd" stroke-linejoin="bevel" stroke-width="1" fill="none" stroke="black">
        <g class="ColorScheme-Text" font-weight="400" font-family="Noto Sans" font-size="30" transform="matrix(2.77778,0,0,2.77778,20.5,20.5)" fill-opacity="0.650004" fill="currentColor" font-style="normal" stroke="none">
            <rect width="3.24" y="0" x="0" height="3.24"/>
        </g>
        <g class="ColorScheme-Text" font-weight="400" font-family="Noto Sans" font-size="30" transform="matrix(2.77778,0,0,2.77778,20.5,20.5)" fill-opacity="0.850004" fill="currentColor" font-style="normal" stroke="none">
            <path fill-rule="nonzero" vector-effect="none" d="M0,-0.54 L3.24,-0.54 L3.78,0 L3.78,3.24 L3.24,3.78 L0,3.78 L-0.54,3.24 L-0.54,0 L0,-0.54 M0.54,0 L0.54,3.24 L0,3.24 L0,2.7 L3.24,2.7 L3.24,3.24 L2.7,3.24 L2.7,0 L3.24,0 L3.24,0.54 L0,0.54 L0,0 L0.54,0"/>
        </g>
    </g>
</svg>
