<?xml version='1.0' encoding='UTF-8' standalone='no'?>
<svg width="5.87963mm" viewBox="0 0 50 50" baseProfile="tiny" xmlns="http://www.w3.org/2000/svg" xmlns:xlink="http://www.w3.org/1999/xlink" version="1.2" height="5.87963mm">
    <style id="current-color-scheme" type="text/css">.ColorScheme-Text {color:#fcfcfc;}</style>
    <title>Qt SVG Document</title>
    <desc>Auto-generated by Klassy window decoration</desc>
    <defs/>
    <g stroke-linecap="square" fill-rule="evenodd" stroke-linejoin="bevel" stroke-width="1" fill="none" stroke="black">
        <g class="ColorScheme-Text" font-weight="400" font-family="Noto Sans" font-size="30" transform="matrix(2.77778,0,0,2.77778,0,0)" fill-opacity="1" fill="currentColor" font-style="normal" stroke="none">
            <path fill-rule="nonzero" vector-effect="none" d="M4.5,11.88 L8.46,11.88 C8.75823,11.88 9,12.1218 9,12.42 C9,12.7182 8.75823,12.96 8.46,12.96 L4.5,12.96 C4.20177,12.96 3.96,12.7182 3.96,12.42 C3.96,12.1218 4.20177,11.88 4.5,11.88 "/>
            <path fill-rule="nonzero" vector-effect="none" d="M4.5,7.92 L8.46,7.92 C8.75823,7.92 9,8.16177 9,8.46 C9,8.75823 8.75823,9 8.46,9 L4.5,9 C4.20177,9 3.96,8.75823 3.96,8.46 C3.96,8.16177 4.20177,7.92 4.5,7.92 "/>
            <path fill-rule="nonzero" vector-effect="none" d="M4.5,3.96 L13.5,3.96 C13.7982,3.96 14.04,4.20177 14.04,4.5 C14.04,4.79823 13.7982,5.04 13.5,5.04 L4.5,5.04 C4.20177,5.04 3.96,4.79823 3.96,4.5 C3.96,4.20177 4.20177,3.96 4.5,3.96 "/>
            <path fill-rule="nonzero" vector-effect="none" d="M14.04,6.66 L14.04,14.58 C14.04,14.8782 13.7982,15.12 13.5,15.12 C13.2018,15.12 12.96,14.8782 12.96,14.58 L12.96,6.66 C12.96,6.36177 13.2018,6.12 13.5,6.12 C13.7982,6.12 14.04,6.36177 14.04,6.66 "/>
            <path fill-rule="nonzero" vector-effect="none" d="M10.9943,8.04516 L13.1543,6.24516 L13.5,5.95708 L13.8457,6.24516 L16.0057,8.04516 C16.2348,8.23609 16.2658,8.57659 16.0748,8.8057 C15.8839,9.03481 15.5434,9.06576 15.3143,8.87484 L13.1543,7.07484 L13.5,6.66 L13.8457,7.07484 L11.6857,8.87484 C11.4566,9.06576 11.1161,9.03481 10.9252,8.8057 C10.7342,8.57659 10.7652,8.23609 10.9943,8.04516 "/>
        </g>
    </g>
</svg>
