<?xml version='1.0' encoding='UTF-8' standalone='no'?>
<svg baseProfile="tiny" height="5.87963mm" version="1.2" viewBox="0 0 50 50" width="5.87963mm" xmlns="http://www.w3.org/2000/svg" xmlns:xlink="http://www.w3.org/1999/xlink">
    <style id="current-color-scheme" type="text/css">.ColorScheme-Text {color:#fcfcfc;}</style>
    <title>Qt SVG Document</title>
    <desc>Auto-generated by Klassy window decoration</desc>
    <defs/>
    <g fill="none" fill-rule="evenodd" stroke="black" stroke-linecap="square" stroke-linejoin="bevel" stroke-width="1">
        <g class="ColorScheme-Text" fill="currentColor" fill-opacity="0.8" font-family="Noto Sans" font-size="30" font-style="normal" font-weight="400" stroke="none" transform="matrix(2.77778,0,0,2.77778,0,0)">
            <path d="M6.5,8.5 L12,3 L15,6 L9.5,11.5 L6.5,8.5" fill-rule="evenodd" vector-effect="none"/>
        </g>
        <g class="ColorScheme-Text" fill="currentColor" fill-opacity="0.8" font-family="Noto Sans" font-size="30" font-style="normal" font-weight="400" stroke="none" transform="matrix(2.77778,0,0,2.77778,0,0)">
            <path d="M5.85391,7.14609 L10.8539,12.1461 C11.0494,12.3416 11.0494,12.6584 10.8539,12.8539 C10.6584,13.0494 10.3416,13.0494 10.1461,12.8539 L5.14609,7.85391 C4.95064,7.65845 4.95064,7.34155 5.14609,7.14609 C5.34155,6.95064 5.65845,6.95064 5.85391,7.14609 " fill-rule="nonzero" vector-effect="none"/>
            <path d="M8.35391,10.3539 L4.85391,13.8539 C4.65845,14.0494 4.34155,14.0494 4.14609,13.8539 C3.95064,13.6584 3.95064,13.3416 4.14609,13.1461 L7.64609,9.64609 C7.84155,9.45064 8.15845,9.45064 8.35391,9.64609 C8.54936,9.84155 8.54936,10.1584 8.35391,10.3539 " fill-rule="nonzero" vector-effect="none"/>
        </g>
    </g>
</svg>
