<?xml version='1.0' encoding='UTF-8' standalone='no'?>
<svg version="1.2" xmlns:xlink="http://www.w3.org/1999/xlink" viewBox="0 0 32 32" xmlns="http://www.w3.org/2000/svg" width="4.23333mm" height="4.23333mm" baseProfile="tiny">
    <style id="current-color-scheme" type="text/css">.ColorScheme-Text {color:#fcfcfc;}</style>
    <title>Qt SVG Document</title>
    <desc>Auto-generated by Klassy window decoration</desc>
    <defs/>
    <g stroke-linejoin="bevel" stroke-linecap="square" fill="none" stroke-width="1" stroke="black" fill-rule="evenodd">
        <g font-weight="400" class="ColorScheme-Text" font-size="26.6667" fill="#da0016" transform="matrix(2,0,0,2,0,0)" font-style="normal" stroke="none" font-family="Noto Sans" fill-opacity="0.719997">
            <path vector-effect="none" fill-rule="evenodd" d="M2,3.2 C2,2.53726 2.53726,2 3.2,2 L12.8,2 C13.4627,2 14,2.53726 14,3.2 L14,12.8 C14,13.4627 13.4627,14 12.8,14 L3.2,14 C2.53726,14 2,13.4627 2,12.8 L2,3.2"/>
        </g>
        <g font-weight="400" class="ColorScheme-Text" font-size="26.6667" fill="#ffffff" transform="matrix(1.77778,0,0,1.77778,0,0)" font-style="normal" stroke="none" font-family="Noto Sans" fill-opacity="1">
            <path vector-effect="none" fill-rule="nonzero" d="M4.81597,3.62153 L14.3785,13.184 C14.7083,13.5139 14.7083,14.0486 14.3785,14.3785 C14.0486,14.7083 13.5139,14.7083 13.184,14.3785 L3.62153,4.81597 C3.2917,4.48613 3.2917,3.95137 3.62153,3.62153 C3.95137,3.2917 4.48613,3.2917 4.81597,3.62153 "/>
            <path vector-effect="none" fill-rule="nonzero" d="M14.3785,4.81597 L4.81597,14.3785 C4.48613,14.7083 3.95137,14.7083 3.62153,14.3785 C3.2917,14.0486 3.2917,13.5139 3.62153,13.184 L13.184,3.62153 C13.5139,3.2917 14.0486,3.2917 14.3785,3.62153 C14.7083,3.95137 14.7083,4.48613 14.3785,4.81597 "/>
        </g>
    </g>
</svg>
