<?xml version='1.0' encoding='UTF-8' standalone='no'?>
<svg version="1.2" xmlns:xlink="http://www.w3.org/1999/xlink" viewBox="0 0 32 32" xmlns="http://www.w3.org/2000/svg" width="4.23333mm" height="4.23333mm" baseProfile="tiny">
    <style id="current-color-scheme" type="text/css">.ColorScheme-Text {color:#fcfcfc;}</style>
    <title>Qt SVG Document</title>
    <desc>Auto-generated by Klassy window decoration</desc>
    <defs/>
    <g stroke-linejoin="bevel" stroke-linecap="square" fill="none" stroke-width="1" stroke="black" fill-rule="evenodd">
        <g font-weight="400" class="ColorScheme-Text" font-size="26.6667" fill="currentColor" transform="matrix(1.77778,0,0,1.77778,6.5,12.5)" font-style="normal" stroke="none" font-family="Noto Sans" fill-opacity="1">
            <path vector-effect="none" fill-rule="nonzero" d="M0,-0.844594 L7.3125,-0.844594 L8.15709,0 L8.15709,7.3125 L7.3125,8.15709 L0,8.15709 L-0.844594,7.3125 L-0.844594,0 L0,-0.844594 M0.844594,0 L0.844594,7.3125 L0,7.3125 L0,6.46791 L7.3125,6.46791 L7.3125,7.3125 L6.46791,7.3125 L6.46791,0 L7.3125,0 L7.3125,0.844594 L0,0.844594 L0,0 L0.844594,0"/>
        </g>
        <g font-weight="400" class="ColorScheme-Text" font-size="26.6667" fill="currentColor" transform="matrix(1.77778,0,0,1.77778,6.5,12.5)" font-style="normal" stroke="none" font-family="Noto Sans" fill-opacity="1">
            <path vector-effect="none" fill-rule="nonzero" d="M2.53041,-0.844594 L2.53041,-3.375 L3.375,-4.21959 L10.6875,-4.21959 L11.5321,-3.375 L11.5321,3.9375 L10.6875,4.78209 L8.15709,4.78209 L8.15709,3.09291 L10.6875,3.09291 L10.6875,3.9375 L9.84291,3.9375 L9.84291,-3.375 L10.6875,-3.375 L10.6875,-2.53041 L3.375,-2.53041 L3.375,-3.375 L4.21959,-3.375 L4.21959,-0.844594 L2.53041,-0.844594"/>
        </g>
    </g>
</svg>
