<?xml version='1.0' encoding='UTF-8' standalone='no'?>
<svg version="1.2" xmlns:xlink="http://www.w3.org/1999/xlink" viewBox="0 0 32 32" xmlns="http://www.w3.org/2000/svg" width="4.23333mm" height="4.23333mm" baseProfile="tiny">
    <style id="current-color-scheme" type="text/css">.ColorScheme-Text {color:#fcfcfc;}</style>
    <title>Qt SVG Document</title>
    <desc>Auto-generated by Klassy window decoration</desc>
    <defs/>
    <g stroke-linejoin="bevel" stroke-linecap="square" fill="none" stroke-width="1" stroke="black" fill-rule="evenodd">
        <g font-weight="400" class="ColorScheme-Text" font-size="26.6667" fill="currentColor" transform="matrix(1.77778,0,0,1.77778,13,13)" font-style="normal" stroke="none" font-family="Noto Sans" fill-opacity="0.650004">
            <rect y="0" x="0" width="3.375" height="3.375"/>
        </g>
        <g font-weight="400" class="ColorScheme-Text" font-size="26.6667" fill="currentColor" transform="matrix(1.77778,0,0,1.77778,13,13)" font-style="normal" stroke="none" font-family="Noto Sans" fill-opacity="0.850004">
            <path vector-effect="none" fill-rule="nonzero" d="M0,-0.563063 L3.375,-0.563063 L3.93806,0 L3.93806,3.375 L3.375,3.93806 L0,3.93806 L-0.563063,3.375 L-0.563063,0 L0,-0.563063 M0.563063,0 L0.563063,3.375 L0,3.375 L0,2.81194 L3.375,2.81194 L3.375,3.375 L2.81194,3.375 L2.81194,0 L3.375,0 L3.375,0.563063 L0,0.563063 L0,0 L0.563063,0"/>
        </g>
    </g>
</svg>
