<?xml version='1.0' encoding='UTF-8' standalone='no'?>
<svg baseProfile="tiny" height="4.23333mm" version="1.2" viewBox="0 0 32 32" width="4.23333mm" xmlns="http://www.w3.org/2000/svg" xmlns:xlink="http://www.w3.org/1999/xlink">
    <style id="current-color-scheme" type="text/css">.ColorScheme-Text {color:#fcfcfc;}</style>
    <title>Qt SVG Document</title>
    <desc>Auto-generated by Klassy window decoration</desc>
    <defs/>
    <g fill="none" fill-rule="evenodd" stroke="black" stroke-linecap="square" stroke-linejoin="bevel" stroke-width="1">
        <g class="ColorScheme-Text" fill="currentColor" fill-opacity="1" font-family="Noto Sans" font-size="26.6667" font-style="normal" font-weight="400" stroke="none" transform="matrix(1.77778,0,0,1.77778,0,0)">
            <path d="M4.81597,3.62153 L14.3785,13.184 C14.7083,13.5139 14.7083,14.0486 14.3785,14.3785 C14.0486,14.7083 13.5139,14.7083 13.184,14.3785 L3.62153,4.81597 C3.2917,4.48613 3.2917,3.95137 3.62153,3.62153 C3.95137,3.2917 4.48613,3.2917 4.81597,3.62153 " fill-rule="nonzero" vector-effect="none"/>
            <path d="M14.3785,4.81597 L4.81597,14.3785 C4.48613,14.7083 3.95137,14.7083 3.62153,14.3785 C3.2917,14.0486 3.2917,13.5139 3.62153,13.184 L13.184,3.62153 C13.5139,3.2917 14.0486,3.2917 14.3785,3.62153 C14.7083,3.95137 14.7083,4.48613 14.3785,4.81597 " fill-rule="nonzero" vector-effect="none"/>
        </g>
    </g>
</svg>
