<?xml version='1.0' encoding='UTF-8' standalone='no'?>
<svg width="4.23333mm" viewBox="0 0 32 32" baseProfile="tiny" xmlns="http://www.w3.org/2000/svg" xmlns:xlink="http://www.w3.org/1999/xlink" version="1.2" height="4.23333mm">
    <style id="current-color-scheme" type="text/css">.ColorScheme-Text {color:#fcfcfc;}</style>
    <title>Qt SVG Document</title>
    <desc>Auto-generated by Klassy window decoration</desc>
    <defs/>
    <g stroke-linecap="square" fill-rule="evenodd" stroke-linejoin="bevel" stroke-width="1" fill="none" stroke="black">
        <g class="ColorScheme-Text" font-weight="400" font-family="Noto Sans" font-size="26.6667" transform="matrix(1.77778,0,0,1.77778,0,0)" fill-opacity="1" fill="currentColor" font-style="normal" stroke="none">
            <path fill-rule="nonzero" vector-effect="none" d="M3.9375,3.9375 L14.0625,3.9375 C14.3732,3.9375 14.625,4.18934 14.625,4.5 C14.625,4.81066 14.3732,5.0625 14.0625,5.0625 L3.9375,5.0625 C3.62684,5.0625 3.375,4.81066 3.375,4.5 C3.375,4.18934 3.62684,3.9375 3.9375,3.9375 "/>
            <path fill-rule="nonzero" vector-effect="none" d="M3.60225,12.6023 L8.60225,7.60225 L9,7.2045 L9.39775,7.60225 L14.3977,12.6023 C14.6174,12.8219 14.6174,13.1781 14.3977,13.3977 C14.1781,13.6174 13.8219,13.6174 13.6023,13.3977 L8.60225,8.39775 L9,8 L9.39775,8.39775 L4.39775,13.3977 C4.17808,13.6174 3.82192,13.6174 3.60225,13.3977 C3.38258,13.1781 3.38258,12.8219 3.60225,12.6023 "/>
        </g>
    </g>
</svg>
