<?xml version='1.0' encoding='UTF-8' standalone='no'?>
<svg width="12.7mm" viewBox="0 0 48 48" baseProfile="tiny" xmlns="http://www.w3.org/2000/svg" xmlns:xlink="http://www.w3.org/1999/xlink" version="1.2" height="12.7mm">
    <style id="current-color-scheme" type="text/css">.ColorScheme-Text {color:#fcfcfc;}</style>
    <title>Qt SVG Document</title>
    <desc>Auto-generated by Klassy window decoration</desc>
    <defs/>
    <g stroke-linecap="square" fill-rule="evenodd" stroke-linejoin="bevel" stroke-width="1" fill="none" stroke="black">
        <g class="ColorScheme-Text" font-weight="400" font-family="Noto Sans" font-size="13.3333" transform="matrix(3,0,0,3,0,0)" fill-opacity="0.600015" fill="#da0016" font-style="normal" stroke="none">
            <path fill-rule="evenodd" vector-effect="none" d="M2,3.2 C2,2.53726 2.53726,2 3.2,2 L12.8,2 C13.4627,2 14,2.53726 14,3.2 L14,12.8 C14,13.4627 13.4627,14 12.8,14 L3.2,14 C2.53726,14 2,13.4627 2,12.8 L2,3.2"/>
        </g>
        <g class="ColorScheme-Text" font-weight="400" font-family="Noto Sans" font-size="13.3333" transform="matrix(2.66667,0,0,2.66667,0,0)" fill-opacity="1" fill="#ffffff" font-style="normal" stroke="none">
            <path fill-rule="nonzero" vector-effect="none" d="M4.66641,3.95859 L14.0414,13.3336 C14.2369,13.5291 14.2369,13.8459 14.0414,14.0414 C13.8459,14.2369 13.5291,14.2369 13.3336,14.0414 L3.95859,4.66641 C3.76314,4.47095 3.76314,4.15405 3.95859,3.95859 C4.15405,3.76314 4.47095,3.76314 4.66641,3.95859 "/>
            <path fill-rule="nonzero" vector-effect="none" d="M14.0414,4.66641 L4.66641,14.0414 C4.47095,14.2369 4.15405,14.2369 3.95859,14.0414 C3.76314,13.8459 3.76314,13.5291 3.95859,13.3336 L13.3336,3.95859 C13.5291,3.76314 13.8459,3.76314 14.0414,3.95859 C14.2369,4.15405 14.2369,4.47095 14.0414,4.66641 "/>
        </g>
    </g>
</svg>
