<?xml version='1.0' encoding='UTF-8' standalone='no'?>
<svg width="12.7mm" viewBox="0 0 48 48" baseProfile="tiny" xmlns="http://www.w3.org/2000/svg" xmlns:xlink="http://www.w3.org/1999/xlink" version="1.2" height="12.7mm">
    <style id="current-color-scheme" type="text/css">.ColorScheme-Text {color:#fcfcfc;}</style>
    <title>Qt SVG Document</title>
    <desc>Auto-generated by Klassy window decoration</desc>
    <defs/>
    <g stroke-linecap="square" fill-rule="evenodd" stroke-linejoin="bevel" stroke-width="1" fill="none" stroke="black">
        <g class="ColorScheme-Text" font-weight="400" font-family="Noto Sans" font-size="13.3333" transform="matrix(2.66667,0,0,2.66667,0,0)" fill-opacity="0.900008" fill="currentColor" font-style="normal" stroke="none">
            <path fill-rule="nonzero" vector-effect="none" d="M3.75,4.31367 C3.75,4.08003 4.08003,3.75 4.31367,3.75 L13.6863,3.75 C13.92,3.75 14.25,4.08003 14.25,4.31367 L14.25,13.6863 C14.25,13.92 13.92,14.25 13.6863,14.25 L4.31367,14.25 C4.08003,14.25 3.75,13.92 3.75,13.6863 L3.75,4.31367 M4.875,4.31367 L4.875,13.6863 C4.875,13.454 4.54602,13.125 4.31367,13.125 L13.6863,13.125 C13.454,13.125 13.125,13.454 13.125,13.6863 L13.125,4.31367 C13.125,4.54602 13.454,4.875 13.6863,4.875 L4.31367,4.875 C4.54602,4.875 4.875,4.54602 4.875,4.31367 "/>
        </g>
    </g>
</svg>
