<?xml version='1.0' encoding='UTF-8' standalone='no'?>
<svg baseProfile="tiny" height="12.7mm" version="1.2" viewBox="0 0 48 48" width="12.7mm" xmlns="http://www.w3.org/2000/svg" xmlns:xlink="http://www.w3.org/1999/xlink">
    <style id="current-color-scheme" type="text/css">.ColorScheme-Text {color:#fcfcfc;}</style>
    <title>Qt SVG Document</title>
    <desc>Auto-generated by Klassy window decoration</desc>
    <defs/>
    <g fill="none" fill-rule="evenodd" stroke="black" stroke-linecap="square" stroke-linejoin="bevel" stroke-width="1">
        <g class="ColorScheme-Text" fill="currentColor" fill-opacity="1" font-family="Noto Sans" font-size="13.3333" font-style="normal" font-weight="400" stroke="none" transform="matrix(2.66667,0,0,2.66667,0,0)">
            <path d="M4.125,4.12444 L13.875,4.12444 C14.186,4.12444 14.4381,4.37653 14.4381,4.6875 C14.4381,4.99847 14.186,5.25056 13.875,5.25056 L4.125,5.25056 C3.81403,5.25056 3.56194,4.99847 3.56194,4.6875 C3.56194,4.37653 3.81403,4.12444 4.125,4.12444 " fill-rule="nonzero" vector-effect="none"/>
            <path d="M4.39815,7.60185 L9.39815,12.6019 L9,13 L8.60185,12.6019 L13.6019,7.60185 C13.8217,7.38197 14.1783,7.38197 14.3981,7.60185 C14.618,7.82174 14.618,8.17826 14.3981,8.39815 L9.39815,13.3981 L9,13.7963 L8.60185,13.3981 L3.60185,8.39815 C3.38197,8.17826 3.38197,7.82174 3.60185,7.60185 C3.82174,7.38197 4.17826,7.38197 4.39815,7.60185 " fill-rule="nonzero" vector-effect="none"/>
        </g>
    </g>
</svg>
