<?xml version='1.0' encoding='UTF-8' standalone='no'?>
<svg width="12.7mm" viewBox="0 0 48 48" baseProfile="tiny" xmlns="http://www.w3.org/2000/svg" xmlns:xlink="http://www.w3.org/1999/xlink" version="1.2" height="12.7mm">
    <style id="current-color-scheme" type="text/css">.ColorScheme-Text {color:#fcfcfc;}</style>
    <title>Qt SVG Document</title>
    <desc>Auto-generated by Klassy window decoration</desc>
    <defs/>
    <g stroke-linecap="square" fill-rule="evenodd" stroke-linejoin="bevel" stroke-width="1" fill="none" stroke="black">
        <g class="ColorScheme-Text" font-weight="400" font-family="Noto Sans" font-size="13.3333" transform="matrix(2.66667,0,0,2.66667,11.5,17.5)" fill-opacity="0.900008" fill="currentColor" font-style="normal" stroke="none">
            <path fill-rule="nonzero" vector-effect="none" d="M0,-0.5625 L7.125,-0.5625 L7.6875,0 L7.6875,7.125 L7.125,7.6875 L0,7.6875 L-0.5625,7.125 L-0.5625,0 L0,-0.5625 M0.5625,0 L0.5625,7.125 L0,7.125 L0,6.5625 L7.125,6.5625 L7.125,7.125 L6.5625,7.125 L6.5625,0 L7.125,0 L7.125,0.5625 L0,0.5625 L0,0 L0.5625,0"/>
        </g>
        <g class="ColorScheme-Text" font-weight="400" font-family="Noto Sans" font-size="13.3333" transform="matrix(2.66667,0,0,2.66667,11.5,17.5)" fill-opacity="0.900008" fill="currentColor" font-style="normal" stroke="none">
            <path fill-rule="nonzero" vector-effect="none" d="M1.6875,-0.5625 L1.6875,-2.25 L2.25,-2.8125 L9.375,-2.8125 L9.9375,-2.25 L9.9375,4.875 L9.375,5.4375 L7.6875,5.4375 L7.6875,4.3125 L9.375,4.3125 L9.375,4.875 L8.8125,4.875 L8.8125,-2.25 L9.375,-2.25 L9.375,-1.6875 L2.25,-1.6875 L2.25,-2.25 L2.8125,-2.25 L2.8125,-0.5625 L1.6875,-0.5625"/>
        </g>
    </g>
</svg>
