<?xml version='1.0' encoding='UTF-8' standalone='no'?>
<svg version="1.2" xmlns:xlink="http://www.w3.org/1999/xlink" viewBox="0 0 48 48" xmlns="http://www.w3.org/2000/svg" width="12.7mm" height="12.7mm" baseProfile="tiny">
    <style id="current-color-scheme" type="text/css">.ColorScheme-Text {color:#fcfcfc;}</style>
    <title>Qt SVG Document</title>
    <desc>Auto-generated by Klassy window decoration</desc>
    <defs/>
    <g stroke-linejoin="bevel" stroke-linecap="square" fill="none" stroke-width="1" stroke="black" fill-rule="evenodd">
        <g font-weight="400" class="ColorScheme-Text" font-size="13.3333" fill="currentColor" transform="matrix(2.66667,0,0,2.66667,0,0)" font-style="normal" stroke="none" font-family="Noto Sans" fill-opacity="1">
            <path vector-effect="none" fill-rule="nonzero" d="M4.71065,3.91435 L14.0856,13.2894 C14.3055,13.5092 14.3055,13.8658 14.0856,14.0856 C13.8658,14.3055 13.5092,14.3055 13.2894,14.0856 L3.91435,4.71065 C3.69447,4.49076 3.69447,4.13424 3.91435,3.91435 C4.13424,3.69447 4.49076,3.69447 4.71065,3.91435 "/>
            <path vector-effect="none" fill-rule="nonzero" d="M14.0856,4.71065 L4.71065,14.0856 C4.49076,14.3055 4.13424,14.3055 3.91435,14.0856 C3.69447,13.8658 3.69447,13.5092 3.91435,13.2894 L13.2894,3.91435 C13.5092,3.69447 13.8658,3.69447 14.0856,3.91435 C14.3055,4.13424 14.3055,4.49076 14.0856,4.71065 "/>
        </g>
    </g>
</svg>
