<?xml version='1.0' encoding='UTF-8' standalone='no'?>
<svg baseProfile="tiny" height="12.7mm" version="1.2" viewBox="0 0 48 48" width="12.7mm" xmlns="http://www.w3.org/2000/svg" xmlns:xlink="http://www.w3.org/1999/xlink">
    <style id="current-color-scheme" type="text/css">.ColorScheme-Text {color:#fcfcfc;}</style>
    <title>Qt SVG Document</title>
    <desc>Auto-generated by Klassy window decoration</desc>
    <defs/>
    <g fill="none" fill-rule="evenodd" stroke="black" stroke-linecap="square" stroke-linejoin="bevel" stroke-width="1">
        <g class="ColorScheme-Text" fill="currentColor" fill-opacity="0.900008" font-family="Noto Sans" font-size="13.3333" font-style="normal" font-weight="400" stroke="none" transform="matrix(2.66667,0,0,2.66667,0,0)">
            <path d="M3.74944,4.31367 C3.74944,4.0798 4.0798,3.74944 4.31367,3.74944 L13.6863,3.74944 C13.9202,3.74944 14.2506,4.0798 14.2506,4.31367 L14.2506,13.6863 C14.2506,13.9202 13.9202,14.2506 13.6863,14.2506 L4.31367,14.2506 C4.0798,14.2506 3.74944,13.9202 3.74944,13.6863 L3.74944,4.31367 M4.87556,4.31367 L4.87556,13.6863 C4.87556,13.4537 4.54625,13.1244 4.31367,13.1244 L13.6863,13.1244 C13.4537,13.1244 13.1244,13.4537 13.1244,13.6863 L13.1244,4.31367 C13.1244,4.54625 13.4537,4.87556 13.6863,4.87556 L4.31367,4.87556 C4.54625,4.87556 4.87556,4.54625 4.87556,4.31367 " fill-rule="nonzero" vector-effect="none"/>
        </g>
    </g>
</svg>
