<?xml version='1.0' encoding='UTF-8' standalone='no'?>
<svg baseProfile="tiny" height="5.29167mm" version="1.2" viewBox="0 0 20 20" width="5.29167mm" xmlns="http://www.w3.org/2000/svg" xmlns:xlink="http://www.w3.org/1999/xlink">
    <style id="current-color-scheme" type="text/css">.ColorScheme-Text {color:#fcfcfc;}</style>
    <title>Qt SVG Document</title>
    <desc>Auto-generated by Klassy window decoration</desc>
    <defs/>
    <g fill="none" fill-rule="evenodd" stroke="black" stroke-linecap="square" stroke-linejoin="bevel" stroke-width="1">
        <g class="ColorScheme-Text" fill="#da0016" fill-opacity="0.719997" font-family="Noto Sans" font-size="13.3333" font-style="normal" font-weight="400" stroke="none" transform="matrix(1.25,0,0,1.25,0,0)">
            <path d="M2,3.2 C2,2.53726 2.53726,2 3.2,2 L12.8,2 C13.4627,2 14,2.53726 14,3.2 L14,12.8 C14,13.4627 13.4627,14 12.8,14 L3.2,14 C2.53726,14 2,13.4627 2,12.8 L2,3.2" fill-rule="evenodd" vector-effect="none"/>
        </g>
        <g class="ColorScheme-Text" fill="#ffffff" fill-opacity="1" font-family="Noto Sans" font-size="13.3333" font-style="normal" font-weight="400" stroke="none" transform="matrix(1.11111,0,0,1.11111,0,0)">
            <path d="M4.36852,3.73148 L14.2685,13.6315 C14.4444,13.8074 14.4444,14.0926 14.2685,14.2685 C14.0926,14.4444 13.8074,14.4444 13.6315,14.2685 L3.73148,4.36852 C3.55557,4.1926 3.55557,3.9074 3.73148,3.73148 C3.9074,3.55557 4.1926,3.55557 4.36852,3.73148 " fill-rule="nonzero" vector-effect="none"/>
            <path d="M14.2685,4.36852 L4.36852,14.2685 C4.1926,14.4444 3.9074,14.4444 3.73148,14.2685 C3.55557,14.0926 3.55557,13.8074 3.73148,13.6315 L13.6315,3.73148 C13.8074,3.55557 14.0926,3.55557 14.2685,3.73148 C14.4444,3.9074 14.4444,4.1926 14.2685,4.36852 " fill-rule="nonzero" vector-effect="none"/>
        </g>
    </g>
</svg>
