<?xml version='1.0' encoding='UTF-8' standalone='no'?>
<svg width="5.29167mm" viewBox="0 0 20 20" baseProfile="tiny" xmlns="http://www.w3.org/2000/svg" xmlns:xlink="http://www.w3.org/1999/xlink" version="1.2" height="5.29167mm">
    <style id="current-color-scheme" type="text/css">.ColorScheme-Text {color:#fcfcfc;}</style>
    <title>Qt SVG Document</title>
    <desc>Auto-generated by Klassy window decoration</desc>
    <defs/>
    <g stroke-linecap="square" fill-rule="evenodd" stroke-linejoin="bevel" stroke-width="1" fill="none" stroke="black">
        <g class="ColorScheme-Text" font-weight="400" font-family="Noto Sans" font-size="13.3333" transform="matrix(1.25,0,0,1.25,0,0)" fill-opacity="0.600015" fill="#da0016" font-style="normal" stroke="none">
            <path fill-rule="evenodd" vector-effect="none" d="M2,3.2 C2,2.53726 2.53726,2 3.2,2 L12.8,2 C13.4627,2 14,2.53726 14,3.2 L14,12.8 C14,13.4627 13.4627,14 12.8,14 L3.2,14 C2.53726,14 2,13.4627 2,12.8 L2,3.2"/>
        </g>
        <g class="ColorScheme-Text" font-weight="400" font-family="Noto Sans" font-size="13.3333" transform="matrix(1.11111,0,0,1.11111,0,0)" fill-opacity="1" fill="#ffffff" font-style="normal" stroke="none">
            <path fill-rule="nonzero" vector-effect="none" d="M4.40391,3.69609 L14.3039,13.5961 C14.4994,13.7916 14.4994,14.1084 14.3039,14.3039 C14.1084,14.4994 13.7916,14.4994 13.5961,14.3039 L3.69609,4.40391 C3.50064,4.20845 3.50064,3.89155 3.69609,3.69609 C3.89155,3.50064 4.20845,3.50064 4.40391,3.69609 "/>
            <path fill-rule="nonzero" vector-effect="none" d="M14.3039,4.40391 L4.40391,14.3039 C4.20845,14.4994 3.89155,14.4994 3.69609,14.3039 C3.50064,14.1084 3.50064,13.7916 3.69609,13.5961 L13.5961,3.69609 C13.7916,3.50064 14.1084,3.50064 14.3039,3.69609 C14.4994,3.89155 14.4994,4.20845 14.3039,4.40391 "/>
        </g>
    </g>
</svg>
