<?xml version='1.0' encoding='UTF-8' standalone='no'?>
<svg version="1.2" xmlns:xlink="http://www.w3.org/1999/xlink" viewBox="0 0 20 20" xmlns="http://www.w3.org/2000/svg" width="5.29167mm" height="5.29167mm" baseProfile="tiny">
    <style id="current-color-scheme" type="text/css">.ColorScheme-Text {color:#fcfcfc;}</style>
    <title>Qt SVG Document</title>
    <desc>Auto-generated by Klassy window decoration</desc>
    <defs/>
    <g stroke-linejoin="bevel" stroke-linecap="square" fill="none" stroke-width="1" stroke="black" fill-rule="evenodd">
        <g font-weight="400" class="ColorScheme-Text" font-size="13.3333" fill="currentColor" transform="matrix(1.11111,0,0,1.11111,0,0)" font-style="normal" stroke="none" font-family="Noto Sans" fill-opacity="0.900008">
            <path vector-effect="none" fill-rule="nonzero" d="M3.59955,4.05124 C3.59955,3.86397 3.86397,3.59955 4.05124,3.59955 L13.9488,3.59955 C14.136,3.59955 14.4004,3.86397 14.4004,4.05124 L14.4004,13.9488 C14.4004,14.136 14.136,14.4004 13.9488,14.4004 L4.05124,14.4004 C3.86397,14.4004 3.59955,14.136 3.59955,13.9488 L3.59955,4.05124 M4.50045,4.05124 L4.50045,13.9488 C4.50045,13.7629 4.23714,13.4995 4.05124,13.4995 L13.9488,13.4995 C13.7629,13.4995 13.4995,13.7629 13.4995,13.9488 L13.4995,4.05124 C13.4995,4.23714 13.7629,4.50045 13.9488,4.50045 L4.05124,4.50045 C4.23714,4.50045 4.50045,4.23714 4.50045,4.05124 "/>
        </g>
    </g>
</svg>
