<?xml version='1.0' encoding='UTF-8' standalone='no'?>
<svg baseProfile="tiny" height="5.29167mm" version="1.2" viewBox="0 0 20 20" width="5.29167mm" xmlns="http://www.w3.org/2000/svg" xmlns:xlink="http://www.w3.org/1999/xlink">
    <style id="current-color-scheme" type="text/css">.ColorScheme-Text {color:#fcfcfc;}</style>
    <title>Qt SVG Document</title>
    <desc>Auto-generated by Klassy window decoration</desc>
    <defs/>
    <g fill="none" fill-rule="evenodd" stroke="black" stroke-linecap="square" stroke-linejoin="bevel" stroke-width="1">
        <g class="ColorScheme-Text" fill="currentColor" fill-opacity="1" font-family="Noto Sans" font-size="13.3333" font-style="normal" font-weight="400" stroke="none" transform="matrix(1.11111,0,0,1.11111,0,0)">
            <path d="M4.05,12.5995 L8.55,12.5995 L8.55,13.5004 L4.05,13.5004 L4.05,12.5995" fill-rule="nonzero" vector-effect="none"/>
            <path d="M4.05,8.09955 L8.55,8.09955 L8.55,9.00045 L4.05,9.00045 L4.05,8.09955" fill-rule="nonzero" vector-effect="none"/>
            <path d="M4.05,3.59955 L13.05,3.59955 L13.05,4.50045 L4.05,4.50045 L4.05,3.59955" fill-rule="nonzero" vector-effect="none"/>
            <path d="M14.4004,6.75 L14.4004,14.85 L13.4995,14.85 L13.4995,6.75 L14.4004,6.75" fill-rule="nonzero" vector-effect="none"/>
            <path d="M11.3815,8.68148 L13.6315,6.43148 L13.95,6.11297 L14.2685,6.43148 L16.5185,8.68148 L15.8815,9.31852 L13.6315,7.06852 L13.95,6.75 L14.2685,7.06852 L12.0185,9.31852 L11.3815,8.68148" fill-rule="nonzero" vector-effect="none"/>
        </g>
    </g>
</svg>
