<?xml version='1.0' encoding='UTF-8' standalone='no'?>
<svg version="1.2" xmlns:xlink="http://www.w3.org/1999/xlink" viewBox="0 0 20 20" xmlns="http://www.w3.org/2000/svg" width="5.29167mm" height="5.29167mm" baseProfile="tiny">
    <style id="current-color-scheme" type="text/css">.ColorScheme-Text {color:#fcfcfc;}</style>
    <title>Qt SVG Document</title>
    <desc>Auto-generated by Klassy window decoration</desc>
    <defs/>
    <g stroke-linejoin="bevel" stroke-linecap="square" fill="none" stroke-width="1" stroke="black" fill-rule="evenodd">
        <g font-weight="400" class="ColorScheme-Text" font-size="13.3333" fill="currentColor" transform="matrix(1.11111,0,0,1.11111,0,0)" font-style="normal" stroke="none" font-family="Noto Sans" fill-opacity="1">
            <path vector-effect="none" fill-rule="nonzero" d="M4.36852,3.73148 L14.2685,13.6315 C14.4444,13.8074 14.4444,14.0926 14.2685,14.2685 C14.0926,14.4444 13.8074,14.4444 13.6315,14.2685 L3.73148,4.36852 C3.55557,4.1926 3.55557,3.9074 3.73148,3.73148 C3.9074,3.55557 4.1926,3.55557 4.36852,3.73148 "/>
            <path vector-effect="none" fill-rule="nonzero" d="M14.2685,4.36852 L4.36852,14.2685 C4.1926,14.4444 3.9074,14.4444 3.73148,14.2685 C3.55557,14.0926 3.55557,13.8074 3.73148,13.6315 L13.6315,3.73148 C13.8074,3.55557 14.0926,3.55557 14.2685,3.73148 C14.4444,3.9074 14.4444,4.1926 14.2685,4.36852 "/>
        </g>
    </g>
</svg>
