<?xml version='1.0' encoding='UTF-8' standalone='no'?>
<svg baseProfile="tiny" height="5.29167mm" version="1.2" viewBox="0 0 20 20" width="5.29167mm" xmlns="http://www.w3.org/2000/svg" xmlns:xlink="http://www.w3.org/1999/xlink">
    <style id="current-color-scheme" type="text/css">.ColorScheme-Text {color:#fcfcfc;}</style>
    <title>Qt SVG Document</title>
    <desc>Auto-generated by Klassy window decoration</desc>
    <defs/>
    <g fill="none" fill-rule="evenodd" stroke="black" stroke-linecap="square" stroke-linejoin="bevel" stroke-width="1">
        <g class="ColorScheme-Text" fill="currentColor" fill-opacity="1" font-family="Noto Sans" font-size="13.3333" font-style="normal" font-weight="400" stroke="none" transform="matrix(1.11111,0,0,1.11111,0,0)">
            <path d="M4.95,14.3995 L13.95,14.3995 L13.95,15.3004 L4.95,15.3004 L4.95,14.3995" fill-rule="nonzero" vector-effect="none"/>
            <path d="M9.45,9.89955 L13.95,9.89955 L13.95,10.8004 L9.45,10.8004 L9.45,9.89955" fill-rule="nonzero" vector-effect="none"/>
            <path d="M9.45,5.39955 L13.95,5.39955 L13.95,6.30045 L9.45,6.30045 L9.45,5.39955" fill-rule="nonzero" vector-effect="none"/>
            <path d="M4.50045,4.05 L4.50045,12.15 L3.59955,12.15 L3.59955,4.05 L4.50045,4.05" fill-rule="nonzero" vector-effect="none"/>
            <path d="M2.11852,9.58148 L4.36852,11.8315 L4.05,12.15 L3.73148,11.8315 L5.98148,9.58148 L6.61852,10.2185 L4.36852,12.4685 L4.05,12.787 L3.73148,12.4685 L1.48148,10.2185 L2.11852,9.58148" fill-rule="nonzero" vector-effect="none"/>
        </g>
    </g>
</svg>
