<?xml version='1.0' encoding='UTF-8' standalone='no'?>
<svg version="1.2" xmlns:xlink="http://www.w3.org/1999/xlink" viewBox="0 0 20 20" xmlns="http://www.w3.org/2000/svg" width="5.29167mm" height="5.29167mm" baseProfile="tiny">
    <style id="current-color-scheme" type="text/css">.ColorScheme-Text {color:#fcfcfc;}</style>
    <title>Qt SVG Document</title>
    <desc>Auto-generated by Klassy window decoration</desc>
    <defs/>
    <g stroke-linejoin="bevel" stroke-linecap="square" fill="none" stroke-width="1" stroke="black" fill-rule="evenodd">
        <g font-weight="400" class="ColorScheme-Text" font-size="13.3333" fill="currentColor" transform="matrix(1.11111,0,0,1.11111,4.5,7.5)" font-style="normal" stroke="none" font-family="Noto Sans" fill-opacity="0.900008">
            <path vector-effect="none" fill-rule="nonzero" d="M0,-0.45045 L7.2,-0.45045 L7.65045,0 L7.65045,7.2 L7.2,7.65045 L0,7.65045 L-0.45045,7.2 L-0.45045,0 L0,-0.45045 M0.45045,0 L0.45045,7.2 L0,7.2 L0,6.74955 L7.2,6.74955 L7.2,7.2 L6.74955,7.2 L6.74955,0 L7.2,0 L7.2,0.45045 L0,0.45045 L0,0 L0.45045,0"/>
        </g>
        <g font-weight="400" class="ColorScheme-Text" font-size="13.3333" fill="currentColor" transform="matrix(1.11111,0,0,1.11111,4.5,7.5)" font-style="normal" stroke="none" font-family="Noto Sans" fill-opacity="0.900008">
            <path vector-effect="none" fill-rule="nonzero" d="M2.24955,-0.45045 L2.24955,-2.7 L2.7,-3.15045 L9.9,-3.15045 L10.3504,-2.7 L10.3504,4.5 L9.9,4.95045 L7.65045,4.95045 L7.65045,4.04955 L9.9,4.04955 L9.9,4.5 L9.44955,4.5 L9.44955,-2.7 L9.9,-2.7 L9.9,-2.24955 L2.7,-2.24955 L2.7,-2.7 L3.15045,-2.7 L3.15045,-0.45045 L2.24955,-0.45045"/>
        </g>
    </g>
</svg>
