<?xml version='1.0' encoding='UTF-8' standalone='no'?>
<svg version="1.2" xmlns:xlink="http://www.w3.org/1999/xlink" viewBox="0 0 20 20" xmlns="http://www.w3.org/2000/svg" width="5.29167mm" height="5.29167mm" baseProfile="tiny">
    <style id="current-color-scheme" type="text/css">.ColorScheme-Text {color:#fcfcfc;}</style>
    <title>Qt SVG Document</title>
    <desc>Auto-generated by Klassy window decoration</desc>
    <defs/>
    <g stroke-linejoin="bevel" stroke-linecap="square" fill="none" stroke-width="1" stroke="black" fill-rule="evenodd">
        <g font-weight="400" class="ColorScheme-Text" font-size="13.3333" fill="currentColor" transform="matrix(1.11111,0,0,1.11111,0,0)" font-style="normal" stroke="none" font-family="Noto Sans" fill-opacity="1">
            <path vector-effect="none" fill-rule="nonzero" d="M4.95,14.3995 L13.95,14.3995 L13.95,15.3004 L4.95,15.3004 L4.95,14.3995"/>
            <path vector-effect="none" fill-rule="nonzero" d="M9.45,9.89955 L13.95,9.89955 L13.95,10.8004 L9.45,10.8004 L9.45,9.89955"/>
            <path vector-effect="none" fill-rule="nonzero" d="M9.45,5.39955 L13.95,5.39955 L13.95,6.30045 L9.45,6.30045 L9.45,5.39955"/>
            <path vector-effect="none" fill-rule="nonzero" d="M4.50045,4.05 L4.50045,12.15 L3.59955,12.15 L3.59955,4.05 L4.50045,4.05"/>
            <path vector-effect="none" fill-rule="nonzero" d="M2.11852,9.58148 L4.36852,11.8315 L4.05,12.15 L3.73148,11.8315 L5.98148,9.58148 L6.61852,10.2185 L4.36852,12.4685 L4.05,12.787 L3.73148,12.4685 L1.48148,10.2185 L2.11852,9.58148"/>
        </g>
    </g>
</svg>
