<?xml version='1.0' encoding='UTF-8' standalone='no'?>
<svg version="1.2" xmlns:xlink="http://www.w3.org/1999/xlink" viewBox="0 0 48 48" xmlns="http://www.w3.org/2000/svg" width="6.35mm" height="6.35mm" baseProfile="tiny">
    <style id="current-color-scheme" type="text/css">.ColorScheme-Text {color:#232629;}</style>
    <title>Qt SVG Document</title>
    <desc>Auto-generated by Klassy window decoration</desc>
    <defs/>
    <g stroke-linejoin="bevel" stroke-linecap="square" fill="none" stroke-width="1" stroke="black" fill-rule="evenodd">
        <g font-weight="400" class="ColorScheme-Text" font-size="26.6667" fill="currentColor" transform="matrix(2.66667,0,0,2.66667,0,0)" font-style="normal" stroke="none" font-family="Noto Sans" fill-opacity="1">
            <path vector-effect="none" fill-rule="nonzero" d="M4.6875,13.8744 L13.6875,13.8744 C13.9985,13.8744 14.2506,14.1265 14.2506,14.4375 C14.2506,14.7485 13.9985,15.0006 13.6875,15.0006 L4.6875,15.0006 C4.37653,15.0006 4.12444,14.7485 4.12444,14.4375 C4.12444,14.1265 4.37653,13.8744 4.6875,13.8744 "/>
            <path vector-effect="none" fill-rule="nonzero" d="M9.5625,9.74944 L13.6875,9.74944 C13.9985,9.74944 14.2506,10.0015 14.2506,10.3125 C14.2506,10.6235 13.9985,10.8756 13.6875,10.8756 L9.5625,10.8756 C9.25153,10.8756 8.99944,10.6235 8.99944,10.3125 C8.99944,10.0015 9.25153,9.74944 9.5625,9.74944 "/>
            <path vector-effect="none" fill-rule="nonzero" d="M9.5625,5.62444 L13.6875,5.62444 C13.9985,5.62444 14.2506,5.87653 14.2506,6.1875 C14.2506,6.49847 13.9985,6.75056 13.6875,6.75056 L9.5625,6.75056 C9.25153,6.75056 8.99944,6.49847 8.99944,6.1875 C8.99944,5.87653 9.25153,5.62444 9.5625,5.62444 "/>
            <path vector-effect="none" fill-rule="nonzero" d="M4.87556,4.3125 L4.87556,12.5625 C4.87556,12.8735 4.62347,13.1256 4.3125,13.1256 C4.00153,13.1256 3.74944,12.8735 3.74944,12.5625 L3.74944,4.3125 C3.74944,4.00153 4.00153,3.74944 4.3125,3.74944 C4.62347,3.74944 4.87556,4.00153 4.87556,4.3125 "/>
            <path vector-effect="none" fill-rule="nonzero" d="M2.87006,9.95204 L4.74506,12.202 L4.3125,12.5625 L3.87994,12.202 L5.75494,9.95204 C5.95402,9.71314 6.30907,9.68086 6.54796,9.87994 C6.78686,10.079 6.81914,10.4341 6.62006,10.673 L4.74506,12.923 L4.3125,13.442 L3.87994,12.923 L2.00494,10.673 C1.80586,10.4341 1.83814,10.079 2.07704,9.87994 C2.31593,9.68086 2.67098,9.71314 2.87006,9.95204 "/>
        </g>
    </g>
</svg>
