<?xml version='1.0' encoding='UTF-8' standalone='no'?>
<svg width="6.35mm" viewBox="0 0 48 48" baseProfile="tiny" xmlns="http://www.w3.org/2000/svg" xmlns:xlink="http://www.w3.org/1999/xlink" version="1.2" height="6.35mm">
    <style id="current-color-scheme" type="text/css">.ColorScheme-Text {color:#232629;}</style>
    <title>Qt SVG Document</title>
    <desc>Auto-generated by Klassy window decoration</desc>
    <defs/>
    <g stroke-linecap="square" fill-rule="evenodd" stroke-linejoin="bevel" stroke-width="1" fill="none" stroke="black">
        <g class="ColorScheme-Text" font-weight="400" font-family="Noto Sans" font-size="26.6667" transform="matrix(2.66667,0,0,2.66667,0,0)" fill-opacity="1" fill="currentColor" font-style="normal" stroke="none">
            <path fill-rule="nonzero" vector-effect="none" d="M4.125,4.125 L13.875,4.125 C14.1857,4.125 14.4375,4.37684 14.4375,4.6875 C14.4375,4.99816 14.1857,5.25 13.875,5.25 L4.125,5.25 C3.81434,5.25 3.5625,4.99816 3.5625,4.6875 C3.5625,4.37684 3.81434,4.125 4.125,4.125 "/>
            <path fill-rule="nonzero" vector-effect="none" d="M3.60225,12.6023 L8.60225,7.60225 L9,7.2045 L9.39775,7.60225 L14.3977,12.6023 C14.6174,12.8219 14.6174,13.1781 14.3977,13.3977 C14.1781,13.6174 13.8219,13.6174 13.6023,13.3977 L8.60225,8.39775 L9,8 L9.39775,8.39775 L4.39775,13.3977 C4.17808,13.6174 3.82192,13.6174 3.60225,13.3977 C3.38258,13.1781 3.38258,12.8219 3.60225,12.6023 "/>
        </g>
    </g>
</svg>
