<?xml version='1.0' encoding='UTF-8' standalone='no'?>
<svg baseProfile="tiny" height="12.7mm" version="1.2" viewBox="0 0 84 84" width="12.7mm" xmlns="http://www.w3.org/2000/svg" xmlns:xlink="http://www.w3.org/1999/xlink">
    <style id="current-color-scheme" type="text/css">.ColorScheme-Text {color:#232629;}</style>
    <title>Qt SVG Document</title>
    <desc>Auto-generated by Klassy window decoration</desc>
    <defs/>
    <g fill="none" fill-rule="evenodd" stroke="black" stroke-linecap="square" stroke-linejoin="bevel" stroke-width="1">
        <g class="ColorScheme-Text" fill="#da0016" fill-opacity="0.719997" font-family="Noto Sans" font-size="23.3333" font-style="normal" font-weight="400" stroke="none" transform="matrix(5.25,0,0,5.25,0,0)">
            <path d="M2,3.2 C2,2.53726 2.53726,2 3.2,2 L12.8,2 C13.4627,2 14,2.53726 14,3.2 L14,12.8 C14,13.4627 13.4627,14 12.8,14 L3.2,14 C2.53726,14 2,13.4627 2,12.8 L2,3.2" fill-rule="evenodd" vector-effect="none"/>
        </g>
        <g class="ColorScheme-Text" fill="#ffffff" fill-opacity="1" font-family="Noto Sans" font-size="23.3333" font-style="normal" font-weight="400" stroke="none" transform="matrix(4.66667,0,0,4.66667,0,0)">
            <path d="M4.92372,3.862 L14.138,13.0763 C14.4312,13.3695 14.4312,13.8448 14.138,14.138 C13.8448,14.4312 13.3695,14.4312 13.0763,14.138 L3.862,4.92372 C3.56881,4.63053 3.56881,4.15518 3.862,3.862 C4.15518,3.56881 4.63053,3.56881 4.92372,3.862 " fill-rule="nonzero" vector-effect="none"/>
            <path d="M14.138,4.92372 L4.92372,14.138 C4.63053,14.4312 4.15518,14.4312 3.862,14.138 C3.56881,13.8448 3.56881,13.3695 3.862,13.0763 L13.0763,3.862 C13.3695,3.56881 13.8448,3.56881 14.138,3.862 C14.4312,4.15518 14.4312,4.63053 14.138,4.92372 " fill-rule="nonzero" vector-effect="none"/>
        </g>
    </g>
</svg>
