<?xml version='1.0' encoding='UTF-8' standalone='no'?>
<svg width="12.7mm" viewBox="0 0 84 84" baseProfile="tiny" xmlns="http://www.w3.org/2000/svg" xmlns:xlink="http://www.w3.org/1999/xlink" version="1.2" height="12.7mm">
    <style id="current-color-scheme" type="text/css">.ColorScheme-Text {color:#232629;}</style>
    <title>Qt SVG Document</title>
    <desc>Auto-generated by Klassy window decoration</desc>
    <defs/>
    <g stroke-linecap="square" fill-rule="evenodd" stroke-linejoin="bevel" stroke-width="1" fill="none" stroke="black">
        <g class="ColorScheme-Text" font-weight="400" font-family="Noto Sans" font-size="23.3333" transform="matrix(5.25,0,0,5.25,0,0)" fill-opacity="0.600015" fill="#da0016" font-style="normal" stroke="none">
            <path fill-rule="evenodd" vector-effect="none" d="M2,3.2 C2,2.53726 2.53726,2 3.2,2 L12.8,2 C13.4627,2 14,2.53726 14,3.2 L14,12.8 C14,13.4627 13.4627,14 12.8,14 L3.2,14 C2.53726,14 2,13.4627 2,12.8 L2,3.2"/>
        </g>
        <g class="ColorScheme-Text" font-weight="400" font-family="Noto Sans" font-size="23.3333" transform="matrix(4.66667,0,0,4.66667,0,0)" fill-opacity="1" fill="#ffffff" font-style="normal" stroke="none">
            <path fill-rule="nonzero" vector-effect="none" d="M4.95911,3.82661 L14.1734,13.0409 C14.4861,13.3536 14.4861,13.8607 14.1734,14.1734 C13.8607,14.4861 13.3536,14.4861 13.0409,14.1734 L3.82661,4.95911 C3.51387,4.64638 3.51387,4.13934 3.82661,3.82661 C4.13934,3.51387 4.64638,3.51387 4.95911,3.82661 "/>
            <path fill-rule="nonzero" vector-effect="none" d="M14.1734,4.95911 L4.95911,14.1734 C4.64638,14.4861 4.13934,14.4861 3.82661,14.1734 C3.51387,13.8607 3.51387,13.3536 3.82661,13.0409 L13.0409,3.82661 C13.3536,3.51387 13.8607,3.51387 14.1734,3.82661 C14.4861,4.13934 14.4861,4.64638 14.1734,4.95911 "/>
        </g>
    </g>
</svg>
