<?xml version='1.0' encoding='UTF-8' standalone='no'?>
<svg baseProfile="tiny" height="12.7mm" version="1.2" viewBox="0 0 84 84" width="12.7mm" xmlns="http://www.w3.org/2000/svg" xmlns:xlink="http://www.w3.org/1999/xlink">
    <style id="current-color-scheme" type="text/css">.ColorScheme-Text {color:#232629;}</style>
    <title>Qt SVG Document</title>
    <desc>Auto-generated by Klassy window decoration</desc>
    <defs/>
    <g fill="none" fill-rule="evenodd" stroke="black" stroke-linecap="square" stroke-linejoin="bevel" stroke-width="1">
        <g class="ColorScheme-Text" fill="currentColor" fill-opacity="1" font-family="Noto Sans" font-size="23.3333" font-style="normal" font-weight="400" stroke="none" transform="matrix(4.66667,0,0,4.66667,0,0)">
            <path d="M6.19257,4.31965 C6.77554,3.4039 8.02154,2.6992 9.25,2.6992 C11.0784,2.6992 12.8008,4.26504 12.8008,6 C12.8008,8.24492 11.6312,8.82972 10.9035,9.25421 C10.1742,9.67962 9.8008,9.92858 9.8008,11.5 C9.8008,11.9423 9.44227,12.3008 9,12.3008 C8.55773,12.3008 8.1992,11.9423 8.1992,11.5 C8.1992,9.07142 9.32577,8.32038 10.0965,7.87079 C10.8688,7.42028 11.1992,7.25508 11.1992,6 C11.1992,4.97354 10.4592,4.3008 9.25,4.3008 C8.44308,4.3008 7.91193,4.6012 7.54362,5.17975 C7.30611,5.55283 6.81113,5.66273 6.43804,5.42522 C6.06496,5.18771 5.95506,4.69273 6.19257,4.31965 " fill-rule="nonzero" vector-effect="none"/>
        </g>
        <g class="ColorScheme-Text" fill="currentColor" fill-opacity="1" font-family="Noto Sans" font-size="23.3333" font-style="normal" font-weight="400" stroke="none" transform="matrix(4.66667,0,0,4.66667,0,0)">
            <circle cx="9" cy="15" r="1"/>
        </g>
    </g>
</svg>
