<?xml version='1.0' encoding='UTF-8' standalone='no'?>
<svg version="1.2" xmlns:xlink="http://www.w3.org/1999/xlink" viewBox="0 0 84 84" xmlns="http://www.w3.org/2000/svg" width="12.7mm" height="12.7mm" baseProfile="tiny">
    <style id="current-color-scheme" type="text/css">.ColorScheme-Text {color:#232629;}</style>
    <title>Qt SVG Document</title>
    <desc>Auto-generated by Klassy window decoration</desc>
    <defs/>
    <g stroke-linejoin="bevel" stroke-linecap="square" fill="none" stroke-width="1" stroke="black" fill-rule="evenodd">
        <g font-weight="400" class="ColorScheme-Text" font-size="23.3333" fill="currentColor" transform="matrix(4.66667,0,0,4.66667,0,0)" font-style="normal" stroke="none" font-family="Noto Sans" fill-opacity="1">
            <path vector-effect="none" fill-rule="nonzero" d="M3.64211,4.39401 C3.64211,4.0824 4.0824,3.64211 4.39401,3.64211 L13.606,3.64211 C13.8133,3.64211 13.9908,3.71598 14.1374,3.86257 C14.284,4.00917 14.3579,4.1867 14.3579,4.39401 L14.3579,13.606 C14.3579,13.8133 14.284,13.9908 14.1374,14.1374 C13.9908,14.284 13.8133,14.3579 13.606,14.3579 L4.39401,14.3579 C4.1867,14.3579 4.00917,14.284 3.86257,14.1374 C3.71598,13.9908 3.64211,13.8133 3.64211,13.606 L3.64211,4.39401 M5.14361,4.39401 L5.14361,13.606 C5.14361,13.3987 5.07089,13.2223 4.92429,13.0757 C4.7777,12.9291 4.60132,12.8564 4.39401,12.8564 L13.606,12.8564 C13.3987,12.8564 13.2223,12.9291 13.0757,13.0757 C12.9291,13.2223 12.8564,13.3987 12.8564,13.606 L12.8564,4.39401 C12.8564,4.60132 12.9291,4.7777 13.0757,4.92429 C13.2223,5.07089 13.3987,5.14361 13.606,5.14361 L4.39401,5.14361 C4.70434,5.14361 5.14361,4.70434 5.14361,4.39401 "/>
        </g>
    </g>
</svg>
