<?xml version='1.0' encoding='UTF-8' standalone='no'?>
<svg width="12.7mm" viewBox="0 0 84 84" baseProfile="tiny" xmlns="http://www.w3.org/2000/svg" xmlns:xlink="http://www.w3.org/1999/xlink" version="1.2" height="12.7mm">
    <style id="current-color-scheme" type="text/css">.ColorScheme-Text {color:#232629;}</style>
    <title>Qt SVG Document</title>
    <desc>Auto-generated by Klassy window decoration</desc>
    <defs/>
    <g stroke-linecap="square" fill-rule="evenodd" stroke-linejoin="bevel" stroke-width="1" fill="none" stroke="black">
        <g class="ColorScheme-Text" font-weight="400" font-family="Noto Sans" font-size="23.3333" transform="matrix(4.66667,0,0,4.66667,0,0)" fill-opacity="1" fill="currentColor" font-style="normal" stroke="none">
            <path fill-rule="nonzero" vector-effect="none" d="M4.07143,3.85714 L13.9286,3.85714 C14.2836,3.85714 14.5714,4.14496 14.5714,4.5 C14.5714,4.85504 14.2836,5.14286 13.9286,5.14286 L4.07143,5.14286 C3.71639,5.14286 3.42857,4.85504 3.42857,4.5 C3.42857,4.14496 3.71639,3.85714 4.07143,3.85714 "/>
            <path fill-rule="nonzero" vector-effect="none" d="M4.45457,7.54543 L9.45457,12.5454 L9,13 L8.54543,12.5454 L13.5454,7.54543 C13.7965,7.29438 14.2035,7.29438 14.4546,7.54543 C14.7056,7.79648 14.7056,8.20352 14.4546,8.45457 L9.45457,13.4546 L9,13.9091 L8.54543,13.4546 L3.54543,8.45457 C3.29438,8.20352 3.29438,7.79648 3.54543,7.54543 C3.79648,7.29438 4.20352,7.29438 4.45457,7.54543 "/>
        </g>
    </g>
</svg>
