<?xml version='1.0' encoding='UTF-8' standalone='no'?>
<svg baseProfile="tiny" height="12.7mm" version="1.2" viewBox="0 0 84 84" width="12.7mm" xmlns="http://www.w3.org/2000/svg" xmlns:xlink="http://www.w3.org/1999/xlink">
    <style id="current-color-scheme" type="text/css">.ColorScheme-Text {color:#232629;}</style>
    <title>Qt SVG Document</title>
    <desc>Auto-generated by Klassy window decoration</desc>
    <defs/>
    <g fill="none" fill-rule="evenodd" stroke="black" stroke-linecap="square" stroke-linejoin="bevel" stroke-width="1">
        <g class="ColorScheme-Text" fill="currentColor" fill-opacity="1" font-family="Noto Sans" font-size="23.3333" font-style="normal" font-weight="400" stroke="none" transform="matrix(4.66667,0,0,4.66667,0,0)">
            <path d="M4.5,11.9994 L8.57143,11.9994 C8.92682,11.9994 9.21493,12.2875 9.21493,12.6429 C9.21493,12.9983 8.92682,13.2864 8.57143,13.2864 L4.5,13.2864 C4.1446,13.2864 3.8565,12.9983 3.8565,12.6429 C3.8565,12.2875 4.1446,11.9994 4.5,11.9994 " fill-rule="nonzero" vector-effect="none"/>
            <path d="M4.5,7.92793 L8.57143,7.92793 C8.92682,7.92793 9.21493,8.21603 9.21493,8.57143 C9.21493,8.92682 8.92682,9.21493 8.57143,9.21493 L4.5,9.21493 C4.1446,9.21493 3.8565,8.92682 3.8565,8.57143 C3.8565,8.21603 4.1446,7.92793 4.5,7.92793 " fill-rule="nonzero" vector-effect="none"/>
            <path d="M4.5,3.8565 L13.5,3.8565 C13.8554,3.8565 14.1435,4.1446 14.1435,4.5 C14.1435,4.8554 13.8554,5.1435 13.5,5.1435 L4.5,5.1435 C4.1446,5.1435 3.8565,4.8554 3.8565,4.5 C3.8565,4.1446 4.1446,3.8565 4.5,3.8565 " fill-rule="nonzero" vector-effect="none"/>
            <path d="M14.1435,6.42857 L14.1435,14.5714 C14.1435,14.9268 13.8554,15.2149 13.5,15.2149 C13.1446,15.2149 12.8565,14.9268 12.8565,14.5714 L12.8565,6.42857 C12.8565,6.07318 13.1446,5.78507 13.5,5.78507 C13.8554,5.78507 14.1435,6.07318 14.1435,6.42857 " fill-rule="nonzero" vector-effect="none"/>
            <path d="M11.0931,8.14095 L13.0217,5.99809 L13.5,5.46664 L13.9783,5.99809 L15.9069,8.14095 C16.1446,8.40511 16.1232,8.81199 15.8591,9.04974 C15.5949,9.28749 15.188,9.26607 14.9503,9.00191 L13.0217,6.85905 L13.5,6.42857 L13.9783,6.85905 L12.0497,9.00191 C11.812,9.26607 11.4051,9.28749 11.1409,9.04974 C10.8768,8.81199 10.8554,8.40511 11.0931,8.14095 " fill-rule="nonzero" vector-effect="none"/>
        </g>
    </g>
</svg>
