<?xml version='1.0' encoding='UTF-8' standalone='no'?>
<svg width="12.7mm" viewBox="0 0 84 84" baseProfile="tiny" xmlns="http://www.w3.org/2000/svg" xmlns:xlink="http://www.w3.org/1999/xlink" version="1.2" height="12.7mm">
    <style id="current-color-scheme" type="text/css">.ColorScheme-Text {color:#232629;}</style>
    <title>Qt SVG Document</title>
    <desc>Auto-generated by Klassy window decoration</desc>
    <defs/>
    <g stroke-linecap="square" fill-rule="evenodd" stroke-linejoin="bevel" stroke-width="1" fill="none" stroke="black">
        <g class="ColorScheme-Text" font-weight="400" font-family="Noto Sans" font-size="23.3333" transform="matrix(4.66667,0,0,4.66667,0,0)" fill-opacity="1" fill="currentColor" font-style="normal" stroke="none">
            <path fill-rule="nonzero" vector-effect="none" d="M4.5,12 L8.57143,12 C8.92647,12 9.21429,12.2878 9.21429,12.6429 C9.21429,12.9979 8.92647,13.2857 8.57143,13.2857 L4.5,13.2857 C4.14496,13.2857 3.85714,12.9979 3.85714,12.6429 C3.85714,12.2878 4.14496,12 4.5,12 "/>
            <path fill-rule="nonzero" vector-effect="none" d="M4.5,7.92857 L8.57143,7.92857 C8.92647,7.92857 9.21429,8.21639 9.21429,8.57143 C9.21429,8.92647 8.92647,9.21429 8.57143,9.21429 L4.5,9.21429 C4.14496,9.21429 3.85714,8.92647 3.85714,8.57143 C3.85714,8.21639 4.14496,7.92857 4.5,7.92857 "/>
            <path fill-rule="nonzero" vector-effect="none" d="M4.5,3.85714 L13.5,3.85714 C13.855,3.85714 14.1429,4.14496 14.1429,4.5 C14.1429,4.85504 13.855,5.14286 13.5,5.14286 L4.5,5.14286 C4.14496,5.14286 3.85714,4.85504 3.85714,4.5 C3.85714,4.14496 4.14496,3.85714 4.5,3.85714 "/>
            <path fill-rule="nonzero" vector-effect="none" d="M14.1429,6.42857 L14.1429,14.5714 C14.1429,14.9265 13.855,15.2143 13.5,15.2143 C13.145,15.2143 12.8571,14.9265 12.8571,14.5714 L12.8571,6.42857 C12.8571,6.07353 13.145,5.78571 13.5,5.78571 C13.855,5.78571 14.1429,6.07353 14.1429,6.42857 "/>
            <path fill-rule="nonzero" vector-effect="none" d="M11.0936,8.14138 L13.0222,5.99852 L13.5,5.4676 L13.9778,5.99852 L15.9064,8.14138 C16.1439,8.40528 16.1225,8.81175 15.8586,9.04926 C15.5947,9.28677 15.1882,9.26538 14.9507,9.00148 L13.0222,6.85862 L13.5,6.42857 L13.9778,6.85862 L12.0493,9.00148 C11.8118,9.26538 11.4053,9.28677 11.1414,9.04926 C10.8775,8.81175 10.8561,8.40528 11.0936,8.14138 "/>
        </g>
    </g>
</svg>
