<?xml version='1.0' encoding='UTF-8' standalone='no'?>
<svg baseProfile="tiny" height="12.7mm" version="1.2" viewBox="0 0 84 84" width="12.7mm" xmlns="http://www.w3.org/2000/svg" xmlns:xlink="http://www.w3.org/1999/xlink">
    <style id="current-color-scheme" type="text/css">.ColorScheme-Text {color:#232629;}</style>
    <title>Qt SVG Document</title>
    <desc>Auto-generated by Klassy window decoration</desc>
    <defs/>
    <g fill="none" fill-rule="evenodd" stroke="black" stroke-linecap="square" stroke-linejoin="bevel" stroke-width="1">
        <g class="ColorScheme-Text" fill="currentColor" fill-opacity="0.949996" font-family="Noto Sans" font-size="23.3333" font-style="normal" font-weight="400" stroke="none" transform="matrix(4.66667,0,0,4.66667,19.5,31.5)">
            <path d="M0,-0.75075 L7.07143,-0.75075 L7.82218,0 L7.82218,7.07143 L7.07143,7.82218 L0,7.82218 L-0.75075,7.07143 L-0.75075,0 L0,-0.75075 M0.75075,0 L0.75075,7.07143 L0,7.07143 L0,6.32068 L7.07143,6.32068 L7.07143,7.07143 L6.32068,7.07143 L6.32068,0 L7.07143,0 L7.07143,0.75075 L0,0.75075 L0,0 L0.75075,0" fill-rule="nonzero" vector-effect="none"/>
        </g>
        <g class="ColorScheme-Text" fill="currentColor" fill-opacity="0.949996" font-family="Noto Sans" font-size="23.3333" font-style="normal" font-weight="400" stroke="none" transform="matrix(4.66667,0,0,4.66667,19.5,31.5)">
            <path d="M1.82068,-0.75075 L1.82068,-2.57143 L2.57143,-3.32218 L9.64286,-3.32218 L10.3936,-2.57143 L10.3936,4.5 L9.64286,5.25075 L7.82218,5.25075 L7.82218,3.74925 L9.64286,3.74925 L9.64286,4.5 L8.89211,4.5 L8.89211,-2.57143 L9.64286,-2.57143 L9.64286,-1.82068 L2.57143,-1.82068 L2.57143,-2.57143 L3.32218,-2.57143 L3.32218,-0.75075 L1.82068,-0.75075" fill-rule="nonzero" vector-effect="none"/>
        </g>
    </g>
</svg>
