<?xml version='1.0' encoding='UTF-8' standalone='no'?>
<svg version="1.2" xmlns:xlink="http://www.w3.org/1999/xlink" viewBox="0 0 84 84" xmlns="http://www.w3.org/2000/svg" width="12.7mm" height="12.7mm" baseProfile="tiny">
    <style id="current-color-scheme" type="text/css">.ColorScheme-Text {color:#232629;}</style>
    <title>Qt SVG Document</title>
    <desc>Auto-generated by Klassy window decoration</desc>
    <defs/>
    <g stroke-linejoin="bevel" stroke-linecap="square" fill="none" stroke-width="1" stroke="black" fill-rule="evenodd">
        <g font-weight="400" class="ColorScheme-Text" font-size="23.3333" fill="currentColor" transform="matrix(4.66667,0,0,4.66667,0,0)" font-style="normal" stroke="none" font-family="Noto Sans" fill-opacity="1">
            <path vector-effect="none" fill-rule="nonzero" d="M4.07143,3.8565 L13.9286,3.8565 C14.284,3.8565 14.5721,4.1446 14.5721,4.5 C14.5721,4.8554 14.284,5.1435 13.9286,5.1435 L4.07143,5.1435 C3.71603,5.1435 3.42793,4.8554 3.42793,4.5 C3.42793,4.1446 3.71603,3.8565 4.07143,3.8565 "/>
            <path vector-effect="none" fill-rule="nonzero" d="M4.45502,7.54498 L9.45502,12.545 L9,13 L8.54498,12.545 L13.545,7.54498 C13.7963,7.29367 14.2037,7.29367 14.455,7.54498 C14.7063,7.79628 14.7063,8.20372 14.455,8.45502 L9.45502,13.455 L9,13.91 L8.54498,13.455 L3.54498,8.45502 C3.29367,8.20372 3.29367,7.79628 3.54498,7.54498 C3.79628,7.29367 4.20372,7.29367 4.45502,7.54498 "/>
        </g>
    </g>
</svg>
