<?xml version='1.0' encoding='UTF-8' standalone='no'?>
<svg version="1.2" xmlns:xlink="http://www.w3.org/1999/xlink" viewBox="0 0 84 84" xmlns="http://www.w3.org/2000/svg" width="12.7mm" height="12.7mm" baseProfile="tiny">
    <style id="current-color-scheme" type="text/css">.ColorScheme-Text {color:#232629;}</style>
    <title>Qt SVG Document</title>
    <desc>Auto-generated by Klassy window decoration</desc>
    <defs/>
    <g stroke-linejoin="bevel" stroke-linecap="square" fill="none" stroke-width="1" stroke="black" fill-rule="evenodd">
        <g font-weight="400" class="ColorScheme-Text" font-size="23.3333" fill="currentColor" transform="matrix(4.66667,0,0,4.66667,0,0)" font-style="normal" stroke="none" font-family="Noto Sans" fill-opacity="1">
            <path vector-effect="none" fill-rule="nonzero" d="M4.92372,3.862 L14.138,13.0763 C14.4312,13.3695 14.4312,13.8448 14.138,14.138 C13.8448,14.4312 13.3695,14.4312 13.0763,14.138 L3.862,4.92372 C3.56881,4.63053 3.56881,4.15518 3.862,3.862 C4.15518,3.56881 4.63053,3.56881 4.92372,3.862 "/>
            <path vector-effect="none" fill-rule="nonzero" d="M14.138,4.92372 L4.92372,14.138 C4.63053,14.4312 4.15518,14.4312 3.862,14.138 C3.56881,13.8448 3.56881,13.3695 3.862,13.0763 L13.0763,3.862 C13.3695,3.56881 13.8448,3.56881 14.138,3.862 C14.4312,4.15518 14.4312,4.63053 14.138,4.92372 "/>
        </g>
    </g>
</svg>
