<?xml version='1.0' encoding='UTF-8' standalone='no'?>
<svg width="12.7mm" viewBox="0 0 84 84" baseProfile="tiny" xmlns="http://www.w3.org/2000/svg" xmlns:xlink="http://www.w3.org/1999/xlink" version="1.2" height="12.7mm">
    <style id="current-color-scheme" type="text/css">.ColorScheme-Text {color:#232629;}</style>
    <title>Qt SVG Document</title>
    <desc>Auto-generated by Klassy window decoration</desc>
    <defs/>
    <g stroke-linecap="square" fill-rule="evenodd" stroke-linejoin="bevel" stroke-width="1" fill="none" stroke="black">
        <g class="ColorScheme-Text" font-weight="400" font-family="Noto Sans" font-size="23.3333" transform="matrix(4.66667,0,0,4.66667,19.5,31.5)" fill-opacity="1" fill="currentColor" font-style="normal" stroke="none">
            <path fill-rule="nonzero" vector-effect="none" d="M0,-0.75 L7.07143,-0.75 L7.82143,0 L7.82143,7.07143 L7.07143,7.82143 L0,7.82143 L-0.75,7.07143 L-0.75,0 L0,-0.75 M0.75,0 L0.75,7.07143 L0,7.07143 L0,6.32143 L7.07143,6.32143 L7.07143,7.07143 L6.32143,7.07143 L6.32143,0 L7.07143,0 L7.07143,0.75 L0,0.75 L0,0 L0.75,0"/>
        </g>
        <g class="ColorScheme-Text" font-weight="400" font-family="Noto Sans" font-size="23.3333" transform="matrix(4.66667,0,0,4.66667,19.5,31.5)" fill-opacity="1" fill="currentColor" font-style="normal" stroke="none">
            <path fill-rule="nonzero" vector-effect="none" d="M1.82143,-0.75 L1.82143,-2.57143 L2.57143,-3.32143 L9.64286,-3.32143 L10.3929,-2.57143 L10.3929,4.5 L9.64286,5.25 L7.82143,5.25 L7.82143,3.75 L9.64286,3.75 L9.64286,4.5 L8.89286,4.5 L8.89286,-2.57143 L9.64286,-2.57143 L9.64286,-1.82143 L2.57143,-1.82143 L2.57143,-2.57143 L3.32143,-2.57143 L3.32143,-0.75 L1.82143,-0.75"/>
        </g>
    </g>
</svg>
