<?xml version='1.0' encoding='UTF-8' standalone='no'?>
<svg width="12.7mm" viewBox="0 0 84 84" baseProfile="tiny" xmlns="http://www.w3.org/2000/svg" xmlns:xlink="http://www.w3.org/1999/xlink" version="1.2" height="12.7mm">
    <style id="current-color-scheme" type="text/css">.ColorScheme-Text {color:#232629;}</style>
    <title>Qt SVG Document</title>
    <desc>Auto-generated by Klassy window decoration</desc>
    <defs/>
    <g stroke-linecap="square" fill-rule="evenodd" stroke-linejoin="bevel" stroke-width="1" fill="none" stroke="black">
        <g class="ColorScheme-Text" font-weight="400" font-family="Noto Sans" font-size="23.3333" transform="matrix(4.66667,0,0,4.66667,0,0)" fill-opacity="1" fill="currentColor" font-style="normal" stroke="none">
            <path fill-rule="nonzero" vector-effect="none" d="M3.64286,4.39401 C3.64286,4.08271 4.08271,3.64286 4.39401,3.64286 L13.606,3.64286 C13.8131,3.64286 13.9905,3.71666 14.1369,3.8631 C14.2833,4.00955 14.3571,4.1869 14.3571,4.39401 L14.3571,13.606 C14.3571,13.8131 14.2833,13.9905 14.1369,14.1369 C13.9905,14.2833 13.8131,14.3571 13.606,14.3571 L4.39401,14.3571 C4.1869,14.3571 4.00955,14.2833 3.8631,14.1369 C3.71666,13.9905 3.64286,13.8131 3.64286,13.606 L3.64286,4.39401 M5.14286,4.39401 L5.14286,13.606 C5.14286,13.3989 5.07021,13.2227 4.92376,13.0762 C4.77732,12.9298 4.60112,12.8571 4.39401,12.8571 L13.606,12.8571 C13.3989,12.8571 13.2227,12.9298 13.0762,13.0762 C12.9298,13.2227 12.8571,13.3989 12.8571,13.606 L12.8571,4.39401 C12.8571,4.60112 12.9298,4.77732 13.0762,4.92376 C13.2227,5.07021 13.3989,5.14286 13.606,5.14286 L4.39401,5.14286 C4.70403,5.14286 5.14286,4.70403 5.14286,4.39401 "/>
        </g>
    </g>
</svg>
