<?xml version='1.0' encoding='UTF-8' standalone='no'?>
<svg width="12.7mm" viewBox="0 0 84 84" baseProfile="tiny" xmlns="http://www.w3.org/2000/svg" xmlns:xlink="http://www.w3.org/1999/xlink" version="1.2" height="12.7mm">
    <style id="current-color-scheme" type="text/css">.ColorScheme-Text {color:#232629;}</style>
    <title>Qt SVG Document</title>
    <desc>Auto-generated by Klassy window decoration</desc>
    <defs/>
    <g stroke-linecap="square" fill-rule="evenodd" stroke-linejoin="bevel" stroke-width="1" fill="none" stroke="black">
        <g class="ColorScheme-Text" font-weight="400" font-family="Noto Sans" font-size="23.3333" transform="matrix(4.66667,0,0,4.66667,34.5,34.5)" fill-opacity="0.650004" fill="currentColor" font-style="normal" stroke="none">
            <rect width="3.21429" y="0" x="0" height="3.21429"/>
        </g>
        <g class="ColorScheme-Text" font-weight="400" font-family="Noto Sans" font-size="23.3333" transform="matrix(4.66667,0,0,4.66667,34.5,34.5)" fill-opacity="0.850004" fill="currentColor" font-style="normal" stroke="none">
            <path fill-rule="nonzero" vector-effect="none" d="M0,-0.535714 L3.21429,-0.535714 L3.75,0 L3.75,3.21429 L3.21429,3.75 L0,3.75 L-0.535714,3.21429 L-0.535714,0 L0,-0.535714 M0.535714,0 L0.535714,3.21429 L0,3.21429 L0,2.67857 L3.21429,2.67857 L3.21429,3.21429 L2.67857,3.21429 L2.67857,0 L3.21429,0 L3.21429,0.535714 L0,0.535714 L0,0 L0.535714,0"/>
        </g>
    </g>
</svg>
