<?xml version='1.0' encoding='UTF-8' standalone='no'?>
<svg width="4.8381mm" viewBox="0 0 32 32" baseProfile="tiny" xmlns="http://www.w3.org/2000/svg" xmlns:xlink="http://www.w3.org/1999/xlink" version="1.2" height="4.8381mm">
    <style id="current-color-scheme" type="text/css">.ColorScheme-Text {color:#232629;}</style>
    <title>Qt SVG Document</title>
    <desc>Auto-generated by Klassy window decoration</desc>
    <defs/>
    <g stroke-linecap="square" fill-rule="evenodd" stroke-linejoin="bevel" stroke-width="1" fill="none" stroke="black">
        <g class="ColorScheme-Text" font-weight="400" font-family="Noto Sans" font-size="23.3333" transform="matrix(1.77778,0,0,1.77778,0,0)" fill-opacity="1" fill="currentColor" font-style="normal" stroke="none">
            <path fill-rule="nonzero" vector-effect="none" d="M3.375,4.21995 C3.375,3.86979 3.86979,3.375 4.21995,3.375 L13.7801,3.375 C14.1302,3.375 14.625,3.86979 14.625,4.21995 L14.625,13.7801 C14.625,14.1302 14.1302,14.625 13.7801,14.625 L4.21995,14.625 C3.86979,14.625 3.375,14.1302 3.375,13.7801 L3.375,4.21995 M5.0625,4.21995 L5.0625,13.7801 C5.0625,13.4312 4.56878,12.9375 4.21995,12.9375 L13.7801,12.9375 C13.4312,12.9375 12.9375,13.4312 12.9375,13.7801 L12.9375,4.21995 C12.9375,4.56878 13.4312,5.0625 13.7801,5.0625 L4.21995,5.0625 C4.56878,5.0625 5.0625,4.56878 5.0625,4.21995 "/>
        </g>
    </g>
</svg>
