<?xml version='1.0' encoding='UTF-8' standalone='no'?>
<svg version="1.2" xmlns:xlink="http://www.w3.org/1999/xlink" viewBox="0 0 27 27" xmlns="http://www.w3.org/2000/svg" width="4.7625mm" height="4.7625mm" baseProfile="tiny">
    <style id="current-color-scheme" type="text/css">.ColorScheme-Text {color:#232629;}</style>
    <title>Qt SVG Document</title>
    <desc>Auto-generated by Klassy window decoration</desc>
    <defs/>
    <g stroke-linejoin="bevel" stroke-linecap="square" fill="none" stroke-width="1" stroke="black" fill-rule="evenodd">
        <g font-weight="400" class="ColorScheme-Text" font-size="20" fill="#da0016" transform="matrix(1.6875,0,0,1.6875,0,0)" font-style="normal" stroke="none" font-family="Noto Sans" fill-opacity="0.719997">
            <path vector-effect="none" fill-rule="evenodd" d="M2,3.2 C2,2.53726 2.53726,2 3.2,2 L12.8,2 C13.4627,2 14,2.53726 14,3.2 L14,12.8 C14,13.4627 13.4627,14 12.8,14 L3.2,14 C2.53726,14 2,13.4627 2,12.8 L2,3.2"/>
        </g>
        <g font-weight="400" class="ColorScheme-Text" font-size="20" fill="#ffffff" transform="matrix(1.5,0,0,1.5,0,0)" font-style="normal" stroke="none" font-family="Noto Sans" fill-opacity="1">
            <path vector-effect="none" fill-rule="nonzero" d="M5.13854,4.19479 L14.4719,13.5281 C14.7325,13.7887 14.7325,14.2113 14.4719,14.4719 C14.2113,14.7325 13.7887,14.7325 13.5281,14.4719 L4.19479,5.13854 C3.93418,4.87793 3.93418,4.4554 4.19479,4.19479 C4.4554,3.93418 4.87793,3.93418 5.13854,4.19479 "/>
            <path vector-effect="none" fill-rule="nonzero" d="M14.4719,5.13854 L5.13854,14.4719 C4.87793,14.7325 4.4554,14.7325 4.19479,14.4719 C3.93418,14.2113 3.93418,13.7887 4.19479,13.5281 L13.5281,4.19479 C13.7887,3.93418 14.2113,3.93418 14.4719,4.19479 C14.7325,4.4554 14.7325,4.87793 14.4719,5.13854 "/>
        </g>
    </g>
</svg>
