<?xml version='1.0' encoding='UTF-8' standalone='no'?>
<svg width="4.7625mm" viewBox="0 0 27 27" baseProfile="tiny" xmlns="http://www.w3.org/2000/svg" xmlns:xlink="http://www.w3.org/1999/xlink" version="1.2" height="4.7625mm">
    <style id="current-color-scheme" type="text/css">.ColorScheme-Text {color:#232629;}</style>
    <title>Qt SVG Document</title>
    <desc>Auto-generated by Klassy window decoration</desc>
    <defs/>
    <g stroke-linecap="square" fill-rule="evenodd" stroke-linejoin="bevel" stroke-width="1" fill="none" stroke="black">
        <g class="ColorScheme-Text" font-weight="400" font-family="Noto Sans" font-size="20" transform="matrix(1.5,0,0,1.5,11,11)" fill-opacity="0.650004" fill="currentColor" font-style="normal" stroke="none">
            <rect width="4" y="0" x="0" height="4"/>
        </g>
        <g class="ColorScheme-Text" font-weight="400" font-family="Noto Sans" font-size="20" transform="matrix(1.5,0,0,1.5,11,11)" fill-opacity="0.850004" fill="currentColor" font-style="normal" stroke="none">
            <path fill-rule="nonzero" vector-effect="none" d="M0,-0.666667 L4,-0.666667 L4.66667,0 L4.66667,4 L4,4.66667 L0,4.66667 L-0.666667,4 L-0.666667,0 L0,-0.666667 M0.666667,0 L0.666667,4 L0,4 L0,3.33333 L4,3.33333 L4,4 L3.33333,4 L3.33333,0 L4,0 L4,0.666667 L0,0.666667 L0,0 L0.666667,0"/>
        </g>
    </g>
</svg>
