<?xml version='1.0' encoding='UTF-8' standalone='no'?>
<svg baseProfile="tiny" height="4.7625mm" version="1.2" viewBox="0 0 27 27" width="4.7625mm" xmlns="http://www.w3.org/2000/svg" xmlns:xlink="http://www.w3.org/1999/xlink">
    <style id="current-color-scheme" type="text/css">.ColorScheme-Text {color:#232629;}</style>
    <title>Qt SVG Document</title>
    <desc>Auto-generated by Klassy window decoration</desc>
    <defs/>
    <g fill="none" fill-rule="evenodd" stroke="black" stroke-linecap="square" stroke-linejoin="bevel" stroke-width="1">
        <g class="ColorScheme-Text" fill="currentColor" fill-opacity="1" font-family="Noto Sans" font-size="20" font-style="normal" font-weight="400" stroke="none" transform="matrix(1.5,0,0,1.5,0,0)">
            <path d="M5.13854,4.19479 L14.4719,13.5281 C14.7325,13.7887 14.7325,14.2113 14.4719,14.4719 C14.2113,14.7325 13.7887,14.7325 13.5281,14.4719 L4.19479,5.13854 C3.93418,4.87793 3.93418,4.4554 4.19479,4.19479 C4.4554,3.93418 4.87793,3.93418 5.13854,4.19479 " fill-rule="nonzero" vector-effect="none"/>
            <path d="M14.4719,5.13854 L5.13854,14.4719 C4.87793,14.7325 4.4554,14.7325 4.19479,14.4719 C3.93418,14.2113 3.93418,13.7887 4.19479,13.5281 L13.5281,4.19479 C13.7887,3.93418 14.2113,3.93418 14.4719,4.19479 C14.7325,4.4554 14.7325,4.87793 14.4719,5.13854 " fill-rule="nonzero" vector-effect="none"/>
        </g>
    </g>
</svg>
