<?xml version='1.0' encoding='UTF-8' standalone='no'?>
<svg baseProfile="tiny" height="4.7625mm" version="1.2" viewBox="0 0 27 27" width="4.7625mm" xmlns="http://www.w3.org/2000/svg" xmlns:xlink="http://www.w3.org/1999/xlink">
    <style id="current-color-scheme" type="text/css">.ColorScheme-Text {color:#232629;}</style>
    <title>Qt SVG Document</title>
    <desc>Auto-generated by Klassy window decoration</desc>
    <defs/>
    <g fill="none" fill-rule="evenodd" stroke="black" stroke-linecap="square" stroke-linejoin="bevel" stroke-width="1">
        <g class="ColorScheme-Text" fill="currentColor" fill-opacity="0.450004" font-family="Noto Sans" font-size="20" font-style="normal" font-weight="400" stroke="none" transform="matrix(1.5,0,0,1.5,11.5,12.5)">
            <rect height="2.66667" width="2.66667" x="0" y="0"/>
        </g>
        <g class="ColorScheme-Text" fill="currentColor" fill-opacity="0.902495" font-family="Noto Sans" font-size="20" font-style="normal" font-weight="400" stroke="none" transform="matrix(1.5,0,0,1.5,11.5,12.5)">
            <path d="M0,-0.667333 L2.66667,-0.667333 L3.334,0 L3.334,2.66667 L2.66667,3.334 L0,3.334 L-0.667333,2.66667 L-0.667333,0 L0,-0.667333 M0.667333,0 L0.667333,2.66667 L0,2.66667 L0,1.99933 L2.66667,1.99933 L2.66667,2.66667 L1.99933,2.66667 L1.99933,0 L2.66667,0 L2.66667,0.667333 L0,0.667333 L0,0 L0.667333,0" fill-rule="nonzero" vector-effect="none"/>
        </g>
    </g>
</svg>
