<?xml version='1.0' encoding='UTF-8' standalone='no'?>
<svg version="1.2" xmlns:xlink="http://www.w3.org/1999/xlink" viewBox="0 0 27 27" xmlns="http://www.w3.org/2000/svg" width="4.7625mm" height="4.7625mm" baseProfile="tiny">
    <style id="current-color-scheme" type="text/css">.ColorScheme-Text {color:#232629;}</style>
    <title>Qt SVG Document</title>
    <desc>Auto-generated by Klassy window decoration</desc>
    <defs/>
    <g stroke-linejoin="bevel" stroke-linecap="square" fill="none" stroke-width="1" stroke="black" fill-rule="evenodd">
        <g font-weight="400" class="ColorScheme-Text" font-size="20" fill="currentColor" transform="matrix(1.5,0,0,1.5,0,0)" font-style="normal" stroke="none" font-family="Noto Sans" fill-opacity="1">
            <path vector-effect="none" fill-rule="nonzero" d="M3.99933,4.66783 C3.99933,4.39077 4.39077,3.99933 4.66783,3.99933 L13.9988,3.99933 C14.2759,3.99933 14.6673,4.39077 14.6673,4.66783 L14.6673,13.9988 C14.6673,14.2759 14.2759,14.6673 13.9988,14.6673 L4.66783,14.6673 C4.39077,14.6673 3.99933,14.2759 3.99933,13.9988 L3.99933,4.66783 M5.334,4.66783 L5.334,13.9988 C5.334,13.7231 4.94361,13.3327 4.66783,13.3327 L13.9988,13.3327 C13.7231,13.3327 13.3327,13.7231 13.3327,13.9988 L13.3327,4.66783 C13.3327,4.94361 13.7231,5.334 13.9988,5.334 L4.66783,5.334 C4.94361,5.334 5.334,4.94361 5.334,4.66783 "/>
        </g>
    </g>
</svg>
