<?xml version='1.0' encoding='UTF-8' standalone='no'?>
<svg width="4.7625mm" viewBox="0 0 27 27" baseProfile="tiny" xmlns="http://www.w3.org/2000/svg" xmlns:xlink="http://www.w3.org/1999/xlink" version="1.2" height="4.7625mm">
    <style id="current-color-scheme" type="text/css">.ColorScheme-Text {color:#232629;}</style>
    <title>Qt SVG Document</title>
    <desc>Auto-generated by Klassy window decoration</desc>
    <defs/>
    <g stroke-linecap="square" fill-rule="evenodd" stroke-linejoin="bevel" stroke-width="1" fill="none" stroke="black">
        <g class="ColorScheme-Text" font-weight="400" font-family="Noto Sans" font-size="20" transform="matrix(1.5,0,0,1.5,6,11)" fill-opacity="1" fill="currentColor" font-style="normal" stroke="none">
            <path fill-rule="nonzero" vector-effect="none" d="M0,-0.666667 L7.33333,-0.666667 L8,0 L8,7.33333 L7.33333,8 L0,8 L-0.666667,7.33333 L-0.666667,0 L0,-0.666667 M0.666667,0 L0.666667,7.33333 L0,7.33333 L0,6.66667 L7.33333,6.66667 L7.33333,7.33333 L6.66667,7.33333 L6.66667,0 L7.33333,0 L7.33333,0.666667 L0,0.666667 L0,0 L0.666667,0"/>
        </g>
        <g class="ColorScheme-Text" font-weight="400" font-family="Noto Sans" font-size="20" transform="matrix(1.5,0,0,1.5,6,11)" fill-opacity="1" fill="currentColor" font-style="normal" stroke="none">
            <path fill-rule="nonzero" vector-effect="none" d="M2,-0.666667 L2,-2.66667 L2.66667,-3.33333 L10,-3.33333 L10.6667,-2.66667 L10.6667,4.66667 L10,5.33333 L8,5.33333 L8,4 L10,4 L10,4.66667 L9.33333,4.66667 L9.33333,-2.66667 L10,-2.66667 L10,-2 L2.66667,-2 L2.66667,-2.66667 L3.33333,-2.66667 L3.33333,-0.666667 L2,-0.666667"/>
        </g>
    </g>
</svg>
