<?xml version='1.0' encoding='UTF-8' standalone='no'?>
<svg width="4.7625mm" viewBox="0 0 27 27" baseProfile="tiny" xmlns="http://www.w3.org/2000/svg" xmlns:xlink="http://www.w3.org/1999/xlink" version="1.2" height="4.7625mm">
    <style id="current-color-scheme" type="text/css">.ColorScheme-Text {color:#232629;}</style>
    <title>Qt SVG Document</title>
    <desc>Auto-generated by Klassy window decoration</desc>
    <defs/>
    <g stroke-linecap="square" fill-rule="evenodd" stroke-linejoin="bevel" stroke-width="1" fill="none" stroke="black">
        <g class="ColorScheme-Text" font-weight="400" font-family="Noto Sans" font-size="20" transform="matrix(1.5,0,0,1.5,0,0)" fill-opacity="1" fill="currentColor" font-style="normal" stroke="none">
            <path fill-rule="nonzero" vector-effect="none" d="M4.66667,14 L13.3333,14 C13.7015,14 14,14.2985 14,14.6667 C14,15.0349 13.7015,15.3333 13.3333,15.3333 L4.66667,15.3333 C4.29848,15.3333 4,15.0349 4,14.6667 C4,14.2985 4.29848,14 4.66667,14 "/>
            <path fill-rule="nonzero" vector-effect="none" d="M9.33333,10 L13.3333,10 C13.7015,10 14,10.2985 14,10.6667 C14,11.0349 13.7015,11.3333 13.3333,11.3333 L9.33333,11.3333 C8.96514,11.3333 8.66667,11.0349 8.66667,10.6667 C8.66667,10.2985 8.96514,10 9.33333,10 "/>
            <path fill-rule="nonzero" vector-effect="none" d="M9.33333,6 L13.3333,6 C13.7015,6 14,6.29848 14,6.66667 C14,7.03486 13.7015,7.33333 13.3333,7.33333 L9.33333,7.33333 C8.96514,7.33333 8.66667,7.03486 8.66667,6.66667 C8.66667,6.29848 8.96514,6 9.33333,6 "/>
            <path fill-rule="nonzero" vector-effect="none" d="M5.33333,4.66667 L5.33333,12.6667 C5.33333,13.0349 5.03486,13.3333 4.66667,13.3333 C4.29848,13.3333 4,13.0349 4,12.6667 L4,4.66667 C4,4.29848 4.29848,4 4.66667,4 C5.03486,4 5.33333,4.29848 5.33333,4.66667 "/>
            <path fill-rule="nonzero" vector-effect="none" d="M3.13807,10.1953 L5.13807,12.1953 L4.66667,12.6667 L4.19526,12.1953 L6.19526,10.1953 C6.45561,9.93491 6.87772,9.93491 7.13807,10.1953 C7.39842,10.4556 7.39842,10.8777 7.13807,11.1381 L5.13807,13.1381 L4.66667,13.6095 L4.19526,13.1381 L2.19526,11.1381 C1.93491,10.8777 1.93491,10.4556 2.19526,10.1953 C2.45561,9.93491 2.87772,9.93491 3.13807,10.1953 "/>
        </g>
    </g>
</svg>
