<?xml version='1.0' encoding='UTF-8' standalone='no'?>
<svg baseProfile="tiny" height="4.7625mm" version="1.2" viewBox="0 0 27 27" width="4.7625mm" xmlns="http://www.w3.org/2000/svg" xmlns:xlink="http://www.w3.org/1999/xlink">
    <style id="current-color-scheme" type="text/css">.ColorScheme-Text {color:#232629;}</style>
    <title>Qt SVG Document</title>
    <desc>Auto-generated by Klassy window decoration</desc>
    <defs/>
    <g fill="none" fill-rule="evenodd" stroke="black" stroke-linecap="square" stroke-linejoin="bevel" stroke-width="1">
        <g class="ColorScheme-Text" fill="currentColor" fill-opacity="1" font-family="Noto Sans" font-size="20" font-style="normal" font-weight="400" stroke="none" transform="matrix(1.5,0,0,1.5,0,0)">
            <path d="M4.66667,11.9993 L8.66667,11.9993 C9.03522,11.9993 9.334,12.2981 9.334,12.6667 C9.334,13.0352 9.03522,13.334 8.66667,13.334 L4.66667,13.334 C4.29811,13.334 3.99933,13.0352 3.99933,12.6667 C3.99933,12.2981 4.29811,11.9993 4.66667,11.9993 " fill-rule="nonzero" vector-effect="none"/>
            <path d="M4.66667,7.99933 L8.66667,7.99933 C9.03522,7.99933 9.334,8.29811 9.334,8.66667 C9.334,9.03522 9.03522,9.334 8.66667,9.334 L4.66667,9.334 C4.29811,9.334 3.99933,9.03522 3.99933,8.66667 C3.99933,8.29811 4.29811,7.99933 4.66667,7.99933 " fill-rule="nonzero" vector-effect="none"/>
            <path d="M4.66667,3.99933 L13.3333,3.99933 C13.7019,3.99933 14.0007,4.29811 14.0007,4.66667 C14.0007,5.03522 13.7019,5.334 13.3333,5.334 L4.66667,5.334 C4.29811,5.334 3.99933,5.03522 3.99933,4.66667 C3.99933,4.29811 4.29811,3.99933 4.66667,3.99933 " fill-rule="nonzero" vector-effect="none"/>
            <path d="M14.0007,6.66667 L14.0007,14.6667 C14.0007,15.0352 13.7019,15.334 13.3333,15.334 C12.9648,15.334 12.666,15.0352 12.666,14.6667 L12.666,6.66667 C12.666,6.29811 12.9648,5.99933 13.3333,5.99933 C13.7019,5.99933 14.0007,6.29811 14.0007,6.66667 " fill-rule="nonzero" vector-effect="none"/>
            <path d="M10.8615,8.19479 L12.8615,6.19479 L13.3333,5.72291 L13.8052,6.19479 L15.8052,8.19479 C16.0658,8.4554 16.0658,8.87793 15.8052,9.13854 C15.5446,9.39915 15.1221,9.39915 14.8615,9.13854 L12.8615,7.13854 L13.3333,6.66667 L13.8052,7.13854 L11.8052,9.13854 C11.5446,9.39915 11.1221,9.39915 10.8615,9.13854 C10.6008,8.87793 10.6008,8.4554 10.8615,8.19479 " fill-rule="nonzero" vector-effect="none"/>
        </g>
    </g>
</svg>
