<?xml version='1.0' encoding='UTF-8' standalone='no'?>
<svg baseProfile="tiny" height="4.7625mm" version="1.2" viewBox="0 0 27 27" width="4.7625mm" xmlns="http://www.w3.org/2000/svg" xmlns:xlink="http://www.w3.org/1999/xlink">
    <style id="current-color-scheme" type="text/css">.ColorScheme-Text {color:#232629;}</style>
    <title>Qt SVG Document</title>
    <desc>Auto-generated by Klassy window decoration</desc>
    <defs/>
    <g fill="none" fill-rule="evenodd" stroke="black" stroke-linecap="square" stroke-linejoin="bevel" stroke-width="1">
        <g class="ColorScheme-Text" fill="currentColor" fill-opacity="0.549996" font-family="Noto Sans" font-size="20" font-style="normal" font-weight="400" stroke="none" transform="matrix(1.5,0,0,1.5,11,11)">
            <rect height="4" width="4" x="0" y="0"/>
        </g>
        <g class="ColorScheme-Text" fill="currentColor" fill-opacity="0.902495" font-family="Noto Sans" font-size="20" font-style="normal" font-weight="400" stroke="none" transform="matrix(1.5,0,0,1.5,11,11)">
            <path d="M0,-0.667333 L4,-0.667333 L4.66733,0 L4.66733,4 L4,4.66733 L0,4.66733 L-0.667333,4 L-0.667333,0 L0,-0.667333 M0.667333,0 L0.667333,4 L0,4 L0,3.33267 L4,3.33267 L4,4 L3.33267,4 L3.33267,0 L4,0 L4,0.667333 L0,0.667333 L0,0 L0.667333,0" fill-rule="nonzero" vector-effect="none"/>
        </g>
    </g>
</svg>
