<?xml version='1.0' encoding='UTF-8' standalone='no'?>
<svg baseProfile="tiny" height="4.23333mm" version="1.2" viewBox="0 0 20 20" width="4.23333mm" xmlns="http://www.w3.org/2000/svg" xmlns:xlink="http://www.w3.org/1999/xlink">
    <style id="current-color-scheme" type="text/css">.ColorScheme-Text {color:#232629;}</style>
    <title>Qt SVG Document</title>
    <desc>Auto-generated by Klassy window decoration</desc>
    <defs/>
    <g fill="none" fill-rule="evenodd" stroke="black" stroke-linecap="square" stroke-linejoin="bevel" stroke-width="1">
        <g class="ColorScheme-Text" fill="#da0016" fill-opacity="0.719997" font-family="Noto Sans" font-size="16.6667" font-style="normal" font-weight="400" stroke="none" transform="matrix(1.25,0,0,1.25,0,0)">
            <path d="M2,3.2 C2,2.53726 2.53726,2 3.2,2 L12.8,2 C13.4627,2 14,2.53726 14,3.2 L14,12.8 C14,13.4627 13.4627,14 12.8,14 L3.2,14 C2.53726,14 2,13.4627 2,12.8 L2,3.2" fill-rule="evenodd" vector-effect="none"/>
        </g>
        <g class="ColorScheme-Text" fill="#ffffff" fill-opacity="1" font-family="Noto Sans" font-size="16.6667" font-style="normal" font-weight="400" stroke="none" transform="matrix(1.11111,0,0,1.11111,0,0)">
            <path d="M5.13703,3.86297 L14.137,12.863 C14.4889,13.2148 14.4889,13.7852 14.137,14.137 C13.7852,14.4889 13.2148,14.4889 12.863,14.137 L3.86297,5.13703 C3.51114,4.78521 3.51114,4.21479 3.86297,3.86297 C4.21479,3.51114 4.78521,3.51114 5.13703,3.86297 " fill-rule="nonzero" vector-effect="none"/>
            <path d="M14.137,5.13703 L5.13703,14.137 C4.78521,14.4889 4.21479,14.4889 3.86297,14.137 C3.51114,13.7852 3.51114,13.2148 3.86297,12.863 L12.863,3.86297 C13.2148,3.51114 13.7852,3.51114 14.137,3.86297 C14.4889,4.21479 14.4889,4.78521 14.137,5.13703 " fill-rule="nonzero" vector-effect="none"/>
        </g>
    </g>
</svg>
