<?xml version='1.0' encoding='UTF-8' standalone='no'?>
<svg width="4.23333mm" viewBox="0 0 20 20" baseProfile="tiny" xmlns="http://www.w3.org/2000/svg" xmlns:xlink="http://www.w3.org/1999/xlink" version="1.2" height="4.23333mm">
    <style id="current-color-scheme" type="text/css">.ColorScheme-Text {color:#232629;}</style>
    <title>Qt SVG Document</title>
    <desc>Auto-generated by Klassy window decoration</desc>
    <defs/>
    <g stroke-linecap="square" fill-rule="evenodd" stroke-linejoin="bevel" stroke-width="1" fill="none" stroke="black">
        <g class="ColorScheme-Text" font-weight="400" font-family="Noto Sans" font-size="16.6667" transform="matrix(1.11111,0,0,1.11111,0,0)" fill-opacity="1" fill="currentColor" font-style="normal" stroke="none">
            <path fill-rule="nonzero" vector-effect="none" d="M4.95,14.4 L13.95,14.4 L13.95,15.3 L4.95,15.3 L4.95,14.4"/>
            <path fill-rule="nonzero" vector-effect="none" d="M9.45,9.9 L13.95,9.9 L13.95,10.8 L9.45,10.8 L9.45,9.9"/>
            <path fill-rule="nonzero" vector-effect="none" d="M9.45,5.4 L13.95,5.4 L13.95,6.3 L9.45,6.3 L9.45,5.4"/>
            <path fill-rule="nonzero" vector-effect="none" d="M4.5,4.05 L4.5,12.15 L3.6,12.15 L3.6,4.05 L4.5,4.05"/>
            <path fill-rule="nonzero" vector-effect="none" d="M2.1182,9.5818 L4.3682,11.8318 L4.05,12.15 L3.7318,11.8318 L5.9818,9.5818 L6.6182,10.2182 L4.3682,12.4682 L4.05,12.7864 L3.7318,12.4682 L1.4818,10.2182 L2.1182,9.5818"/>
        </g>
    </g>
</svg>
