<?xml version='1.0' encoding='UTF-8' standalone='no'?>
<svg version="1.2" xmlns:xlink="http://www.w3.org/1999/xlink" viewBox="0 0 20 20" xmlns="http://www.w3.org/2000/svg" width="4.23333mm" height="4.23333mm" baseProfile="tiny">
    <style id="current-color-scheme" type="text/css">.ColorScheme-Text {color:#232629;}</style>
    <title>Qt SVG Document</title>
    <desc>Auto-generated by Klassy window decoration</desc>
    <defs/>
    <g stroke-linejoin="bevel" stroke-linecap="square" fill="none" stroke-width="1" stroke="black" fill-rule="evenodd">
        <g font-weight="400" class="ColorScheme-Text" font-size="16.6667" fill="currentColor" transform="matrix(1.11111,0,0,1.11111,0,0)" font-style="normal" stroke="none" font-family="Noto Sans" fill-opacity="1">
            <path vector-effect="none" fill-rule="nonzero" d="M5.13703,3.86297 L14.137,12.863 C14.4889,13.2148 14.4889,13.7852 14.137,14.137 C13.7852,14.4889 13.2148,14.4889 12.863,14.137 L3.86297,5.13703 C3.51114,4.78521 3.51114,4.21479 3.86297,3.86297 C4.21479,3.51114 4.78521,3.51114 5.13703,3.86297 "/>
            <path vector-effect="none" fill-rule="nonzero" d="M14.137,5.13703 L5.13703,14.137 C4.78521,14.4889 4.21479,14.4889 3.86297,14.137 C3.51114,13.7852 3.51114,13.2148 3.86297,12.863 L12.863,3.86297 C13.2148,3.51114 13.7852,3.51114 14.137,3.86297 C14.4889,4.21479 14.4889,4.78521 14.137,5.13703 "/>
        </g>
    </g>
</svg>
