<?xml version='1.0' encoding='UTF-8' standalone='no'?>
<svg baseProfile="tiny" height="4.23333mm" version="1.2" viewBox="0 0 20 20" width="4.23333mm" xmlns="http://www.w3.org/2000/svg" xmlns:xlink="http://www.w3.org/1999/xlink">
    <style id="current-color-scheme" type="text/css">.ColorScheme-Text {color:#232629;}</style>
    <title>Qt SVG Document</title>
    <desc>Auto-generated by Klassy window decoration</desc>
    <defs/>
    <g fill="none" fill-rule="evenodd" stroke="black" stroke-linecap="square" stroke-linejoin="bevel" stroke-width="1">
        <g class="ColorScheme-Text" fill="currentColor" fill-opacity="0.949996" font-family="Noto Sans" font-size="16.6667" font-style="normal" font-weight="400" stroke="none" transform="matrix(1.11111,0,0,1.11111,4,8)">
            <path d="M0,-0.9009 L7.2,-0.9009 L8.1009,0 L8.1009,7.2 L7.2,8.1009 L0,8.1009 L-0.9009,7.2 L-0.9009,0 L0,-0.9009 M0.9009,0 L0.9009,7.2 L0,7.2 L0,6.2991 L7.2,6.2991 L7.2,7.2 L6.2991,7.2 L6.2991,0 L7.2,0 L7.2,0.9009 L0,0.9009 L0,0 L0.9009,0" fill-rule="nonzero" vector-effect="none"/>
        </g>
        <g class="ColorScheme-Text" fill="currentColor" fill-opacity="0.949996" font-family="Noto Sans" font-size="16.6667" font-style="normal" font-weight="400" stroke="none" transform="matrix(1.11111,0,0,1.11111,4,8)">
            <path d="M2.6991,-0.9009 L2.6991,-3.6 L3.6,-4.5009 L10.8,-4.5009 L11.7009,-3.6 L11.7009,3.6 L10.8,4.5009 L8.1009,4.5009 L8.1009,2.6991 L10.8,2.6991 L10.8,3.6 L9.8991,3.6 L9.8991,-3.6 L10.8,-3.6 L10.8,-2.6991 L3.6,-2.6991 L3.6,-3.6 L4.5009,-3.6 L4.5009,-0.9009 L2.6991,-0.9009" fill-rule="nonzero" vector-effect="none"/>
        </g>
    </g>
</svg>
