<?xml version='1.0' encoding='UTF-8' standalone='no'?>
<svg version="1.2" xmlns:xlink="http://www.w3.org/1999/xlink" viewBox="0 0 50 50" xmlns="http://www.w3.org/2000/svg" width="5.29167mm" height="5.29167mm" baseProfile="tiny">
    <style id="current-color-scheme" type="text/css">.ColorScheme-Text {color:#fcfcfc;}</style>
    <title>Qt SVG Document</title>
    <desc>Auto-generated by Klassy window decoration</desc>
    <defs/>
    <g stroke-linejoin="bevel" stroke-linecap="square" fill="none" stroke-width="1" stroke="black" fill-rule="evenodd">
        <g font-weight="400" class="ColorScheme-Text" font-size="33.3333" fill="currentColor" transform="matrix(2.77778,0,0,2.77778,20.5,20.5)" font-style="normal" stroke="none" font-family="Noto Sans" fill-opacity="0.650004">
            <rect y="0" x="0" width="3.24" height="3.24"/>
        </g>
        <g font-weight="400" class="ColorScheme-Text" font-size="33.3333" fill="currentColor" transform="matrix(2.77778,0,0,2.77778,20.5,20.5)" font-style="normal" stroke="none" font-family="Noto Sans" fill-opacity="0.850004">
            <path vector-effect="none" fill-rule="nonzero" d="M0,-0.54054 L3.24,-0.54054 L3.78054,0 L3.78054,3.24 L3.24,3.78054 L0,3.78054 L-0.54054,3.24 L-0.54054,0 L0,-0.54054 M0.54054,0 L0.54054,3.24 L0,3.24 L0,2.69946 L3.24,2.69946 L3.24,3.24 L2.69946,3.24 L2.69946,0 L3.24,0 L3.24,0.54054 L0,0.54054 L0,0 L0.54054,0"/>
        </g>
    </g>
</svg>
