<?xml version='1.0' encoding='UTF-8' standalone='no'?>
<svg baseProfile="tiny" height="5.29167mm" version="1.2" viewBox="0 0 50 50" width="5.29167mm" xmlns="http://www.w3.org/2000/svg" xmlns:xlink="http://www.w3.org/1999/xlink">
    <style id="current-color-scheme" type="text/css">.ColorScheme-Text {color:#fcfcfc;}</style>
    <title>Qt SVG Document</title>
    <desc>Auto-generated by Klassy window decoration</desc>
    <defs/>
    <g fill="none" fill-rule="evenodd" stroke="black" stroke-linecap="square" stroke-linejoin="bevel" stroke-width="1">
        <g class="ColorScheme-Text" fill="currentColor" fill-opacity="0.450004" font-family="Noto Sans" font-size="33.3333" font-style="normal" font-weight="400" stroke="none" transform="matrix(2.77778,0,0,2.77778,20.5,20.5)">
            <rect height="3.6" width="3.6" x="0" y="0"/>
        </g>
        <g class="ColorScheme-Text" fill="currentColor" fill-opacity="0.902495" font-family="Noto Sans" font-size="33.3333" font-style="normal" font-weight="400" stroke="none" transform="matrix(2.77778,0,0,2.77778,20.5,20.5)">
            <path d="M0,-0.72072 L3.6,-0.72072 L4.32072,0 L4.32072,3.6 L3.6,4.32072 L0,4.32072 L-0.72072,3.6 L-0.72072,0 L0,-0.72072 M0.72072,0 L0.72072,3.6 L0,3.6 L0,2.87928 L3.6,2.87928 L3.6,3.6 L2.87928,3.6 L2.87928,0 L3.6,0 L3.6,0.72072 L0,0.72072 L0,0 L0.72072,0" fill-rule="nonzero" vector-effect="none"/>
        </g>
    </g>
</svg>
