<?xml version='1.0' encoding='UTF-8' standalone='no'?>
<svg version="1.2" xmlns:xlink="http://www.w3.org/1999/xlink" viewBox="0 0 50 50" xmlns="http://www.w3.org/2000/svg" width="5.29167mm" height="5.29167mm" baseProfile="tiny">
    <style id="current-color-scheme" type="text/css">.ColorScheme-Text {color:#fcfcfc;}</style>
    <title>Qt SVG Document</title>
    <desc>Auto-generated by Klassy window decoration</desc>
    <defs/>
    <g stroke-linejoin="bevel" stroke-linecap="square" fill="none" stroke-width="1" stroke="black" fill-rule="evenodd">
        <g font-weight="400" class="ColorScheme-Text" font-size="33.3333" fill="currentColor" transform="matrix(2.77778,0,0,2.77778,0,0)" font-style="normal" stroke="none" font-family="Noto Sans" fill-opacity="1">
            <path vector-effect="none" fill-rule="nonzero" d="M3.59928,4.32117 C3.59928,4.02199 4.02199,3.59928 4.32117,3.59928 L13.6788,3.59928 C13.978,3.59928 14.4007,4.02199 14.4007,4.32117 L14.4007,13.6788 C14.4007,13.978 13.978,14.4007 13.6788,14.4007 L4.32117,14.4007 C4.02199,14.4007 3.59928,13.978 3.59928,13.6788 L3.59928,4.32117 M5.04072,4.32117 L5.04072,13.6788 C5.04072,13.3809 4.61906,12.9593 4.32117,12.9593 L13.6788,12.9593 C13.3809,12.9593 12.9593,13.3809 12.9593,13.6788 L12.9593,4.32117 C12.9593,4.61906 13.3809,5.04072 13.6788,5.04072 L4.32117,5.04072 C4.61906,5.04072 5.04072,4.61906 5.04072,4.32117 "/>
        </g>
    </g>
</svg>
