<?xml version='1.0' encoding='UTF-8' standalone='no'?>
<svg version="1.2" xmlns:xlink="http://www.w3.org/1999/xlink" viewBox="0 0 50 50" xmlns="http://www.w3.org/2000/svg" width="4.81061mm" height="4.81061mm" baseProfile="tiny">
    <style id="current-color-scheme" type="text/css">.ColorScheme-Text {color:#fcfcfc;}</style>
    <title>Qt SVG Document</title>
    <desc>Auto-generated by Klassy window decoration</desc>
    <defs/>
    <g stroke-linejoin="bevel" stroke-linecap="square" fill="none" stroke-width="1" stroke="black" fill-rule="evenodd">
        <g font-weight="400" class="ColorScheme-Text" font-size="36.6667" fill="currentColor" transform="matrix(2.77778,0,0,2.77778,0,0)" font-style="normal" stroke="none" font-family="Noto Sans" fill-opacity="1">
            <path vector-effect="none" fill-rule="nonzero" d="M3.96,3.95928 L14.04,3.95928 C14.438,3.95928 14.7607,4.28196 14.7607,4.68 C14.7607,5.07804 14.438,5.40072 14.04,5.40072 L3.96,5.40072 C3.56196,5.40072 3.23928,5.07804 3.23928,4.68 C3.23928,4.28196 3.56196,3.95928 3.96,3.95928 "/>
            <path vector-effect="none" fill-rule="nonzero" d="M3.49037,12.4904 L8.49037,7.49037 L9,6.98075 L9.50963,7.49037 L14.5096,12.4904 C14.7911,12.7718 14.7911,13.2282 14.5096,13.5096 C14.2282,13.7911 13.7718,13.7911 13.4904,13.5096 L8.49037,8.50963 L9,8 L9.50963,8.50963 L4.50963,13.5096 C4.22817,13.7911 3.77183,13.7911 3.49037,13.5096 C3.20892,13.2282 3.20892,12.7718 3.49037,12.4904 "/>
        </g>
    </g>
</svg>
