<?xml version='1.0' encoding='UTF-8' standalone='no'?>
<svg version="1.2" xmlns:xlink="http://www.w3.org/1999/xlink" viewBox="0 0 50 50" xmlns="http://www.w3.org/2000/svg" width="4.81061mm" height="4.81061mm" baseProfile="tiny">
    <style id="current-color-scheme" type="text/css">.ColorScheme-Text {color:#fcfcfc;}</style>
    <title>Qt SVG Document</title>
    <desc>Auto-generated by Klassy window decoration</desc>
    <defs/>
    <g stroke-linejoin="bevel" stroke-linecap="square" fill="none" stroke-width="1" stroke="black" fill-rule="evenodd">
        <g font-weight="400" class="ColorScheme-Text" font-size="36.6667" fill="currentColor" transform="matrix(2.77778,0,0,2.77778,11,19)" font-style="normal" stroke="none" font-family="Noto Sans" fill-opacity="1">
            <path vector-effect="none" fill-rule="nonzero" d="M0,-0.72072 L7.2,-0.72072 L7.92072,0 L7.92072,7.2 L7.2,7.92072 L0,7.92072 L-0.72072,7.2 L-0.72072,0 L0,-0.72072 M0.72072,0 L0.72072,7.2 L0,7.2 L0,6.47928 L7.2,6.47928 L7.2,7.2 L6.47928,7.2 L6.47928,0 L7.2,0 L7.2,0.72072 L0,0.72072 L0,0 L0.72072,0"/>
        </g>
        <g font-weight="400" class="ColorScheme-Text" font-size="36.6667" fill="currentColor" transform="matrix(2.77778,0,0,2.77778,11,19)" font-style="normal" stroke="none" font-family="Noto Sans" fill-opacity="1">
            <path vector-effect="none" fill-rule="nonzero" d="M2.15928,-0.72072 L2.15928,-2.88 L2.88,-3.60072 L10.08,-3.60072 L10.8007,-2.88 L10.8007,4.32 L10.08,5.04072 L7.92072,5.04072 L7.92072,3.59928 L10.08,3.59928 L10.08,4.32 L9.35928,4.32 L9.35928,-2.88 L10.08,-2.88 L10.08,-2.15928 L2.88,-2.15928 L2.88,-2.88 L3.60072,-2.88 L3.60072,-0.72072 L2.15928,-0.72072"/>
        </g>
    </g>
</svg>
