<?xml version='1.0' encoding='UTF-8' standalone='no'?>
<svg width="8.46667mm" viewBox="0 0 56 56" baseProfile="tiny" xmlns="http://www.w3.org/2000/svg" xmlns:xlink="http://www.w3.org/1999/xlink" version="1.2" height="8.46667mm">
    <style id="current-color-scheme" type="text/css">.ColorScheme-Text {color:#232629;}</style>
    <title>Qt SVG Document</title>
    <desc>Auto-generated by Klassy window decoration</desc>
    <defs/>
    <g stroke-linecap="square" fill-rule="evenodd" stroke-linejoin="bevel" stroke-width="1" fill="none" stroke="black">
        <g class="ColorScheme-Text" font-weight="400" font-family="Noto Sans" font-size="23.3333" transform="matrix(3.5,0,0,3.5,0,0)" fill-opacity="0.600015" fill="#da0016" font-style="normal" stroke="none">
            <path fill-rule="evenodd" vector-effect="none" d="M2,3.2 C2,2.53726 2.53726,2 3.2,2 L12.8,2 C13.4627,2 14,2.53726 14,3.2 L14,12.8 C14,13.4627 13.4627,14 12.8,14 L3.2,14 C2.53726,14 2,13.4627 2,12.8 L2,3.2"/>
        </g>
        <g class="ColorScheme-Text" font-weight="400" font-family="Noto Sans" font-size="23.3333" transform="matrix(3.11111,0,0,3.11111,0,0)" fill-opacity="1" fill="#ffffff" font-style="normal" stroke="none">
            <path fill-rule="nonzero" vector-effect="none" d="M4.90554,3.77303 L14.227,13.0945 C14.5397,13.4072 14.5397,13.9142 14.227,14.227 C13.9142,14.5397 13.4072,14.5397 13.0945,14.227 L3.77303,4.90554 C3.4603,4.5928 3.4603,4.08577 3.77303,3.77303 C4.08577,3.4603 4.5928,3.4603 4.90554,3.77303 "/>
            <path fill-rule="nonzero" vector-effect="none" d="M14.227,4.90554 L4.90554,14.227 C4.5928,14.5397 4.08577,14.5397 3.77303,14.227 C3.4603,13.9142 3.4603,13.4072 3.77303,13.0945 L13.0945,3.77303 C13.4072,3.4603 13.9142,3.4603 14.227,3.77303 C14.5397,4.08577 14.5397,4.5928 14.227,4.90554 "/>
        </g>
    </g>
</svg>
