<?xml version='1.0' encoding='UTF-8' standalone='no'?>
<svg width="8.46667mm" viewBox="0 0 56 56" baseProfile="tiny" xmlns="http://www.w3.org/2000/svg" xmlns:xlink="http://www.w3.org/1999/xlink" version="1.2" height="8.46667mm">
    <style id="current-color-scheme" type="text/css">.ColorScheme-Text {color:#232629;}</style>
    <title>Qt SVG Document</title>
    <desc>Auto-generated by Klassy window decoration</desc>
    <defs/>
    <g stroke-linecap="square" fill-rule="evenodd" stroke-linejoin="bevel" stroke-width="1" fill="none" stroke="black">
        <g class="ColorScheme-Text" font-weight="400" font-family="Noto Sans" font-size="23.3333" transform="matrix(3.11111,0,0,3.11111,0,0)" fill-opacity="1" fill="currentColor" font-style="normal" stroke="none">
            <path fill-rule="nonzero" vector-effect="none" d="M3.53571,4.34045 C3.53571,4.00696 4.00696,3.53571 4.34045,3.53571 L13.6595,3.53571 C13.993,3.53571 14.4643,4.00696 14.4643,4.34045 L14.4643,13.6595 C14.4643,13.993 13.993,14.4643 13.6595,14.4643 L4.34045,14.4643 C4.00696,14.4643 3.53571,13.993 3.53571,13.6595 L3.53571,4.34045 M5.14286,4.34045 L5.14286,13.6595 C5.14286,13.3273 4.67266,12.8571 4.34045,12.8571 L13.6595,12.8571 C13.3273,12.8571 12.8571,13.3273 12.8571,13.6595 L12.8571,4.34045 C12.8571,4.67266 13.3273,5.14286 13.6595,5.14286 L4.34045,5.14286 C4.67266,5.14286 5.14286,4.67266 5.14286,4.34045 "/>
        </g>
    </g>
</svg>
