<?xml version='1.0' encoding='UTF-8' standalone='no'?>
<svg width="8.46667mm" viewBox="0 0 56 56" baseProfile="tiny" xmlns="http://www.w3.org/2000/svg" xmlns:xlink="http://www.w3.org/1999/xlink" version="1.2" height="8.46667mm">
    <style id="current-color-scheme" type="text/css">.ColorScheme-Text {color:#232629;}</style>
    <title>Qt SVG Document</title>
    <desc>Auto-generated by Klassy window decoration</desc>
    <defs/>
    <g stroke-linecap="square" fill-rule="evenodd" stroke-linejoin="bevel" stroke-width="1" fill="none" stroke="black">
        <g class="ColorScheme-Text" font-weight="400" font-family="Noto Sans" font-size="23.3333" transform="matrix(3.11111,0,0,3.11111,23.5,23.5)" fill-opacity="0.650004" fill="currentColor" font-style="normal" stroke="none">
            <rect width="2.89286" y="0" x="0" height="2.89286"/>
        </g>
        <g class="ColorScheme-Text" font-weight="400" font-family="Noto Sans" font-size="23.3333" transform="matrix(3.11111,0,0,3.11111,23.5,23.5)" fill-opacity="0.850004" fill="currentColor" font-style="normal" stroke="none">
            <path fill-rule="nonzero" vector-effect="none" d="M0,-0.482143 L2.89286,-0.482143 L3.375,0 L3.375,2.89286 L2.89286,3.375 L0,3.375 L-0.482143,2.89286 L-0.482143,0 L0,-0.482143 M0.482143,0 L0.482143,2.89286 L0,2.89286 L0,2.41071 L2.89286,2.41071 L2.89286,2.89286 L2.41071,2.89286 L2.41071,0 L2.89286,0 L2.89286,0.482143 L0,0.482143 L0,0 L0.482143,0"/>
        </g>
    </g>
</svg>
