<?xml version='1.0' encoding='UTF-8' standalone='no'?>
<svg baseProfile="tiny" height="8.46667mm" version="1.2" viewBox="0 0 56 56" width="8.46667mm" xmlns="http://www.w3.org/2000/svg" xmlns:xlink="http://www.w3.org/1999/xlink">
    <style id="current-color-scheme" type="text/css">.ColorScheme-Text {color:#232629;}</style>
    <title>Qt SVG Document</title>
    <desc>Auto-generated by Klassy window decoration</desc>
    <defs/>
    <g fill="none" fill-rule="evenodd" stroke="black" stroke-linecap="square" stroke-linejoin="bevel" stroke-width="1">
        <g class="ColorScheme-Text" fill="currentColor" fill-opacity="0.549996" font-family="Noto Sans" font-size="23.3333" font-style="normal" font-weight="400" stroke="none" transform="matrix(3.11111,0,0,3.11111,23.5,23.5)">
            <rect height="2.89286" width="2.89286" x="0" y="0"/>
        </g>
        <g class="ColorScheme-Text" fill="currentColor" fill-opacity="0.902495" font-family="Noto Sans" font-size="23.3333" font-style="normal" font-weight="400" stroke="none" transform="matrix(3.11111,0,0,3.11111,23.5,23.5)">
            <path d="M0,-0.482625 L2.89286,-0.482625 L3.37548,0 L3.37548,2.89286 L2.89286,3.37548 L0,3.37548 L-0.482625,2.89286 L-0.482625,0 L0,-0.482625 M0.482625,0 L0.482625,2.89286 L0,2.89286 L0,2.41023 L2.89286,2.41023 L2.89286,2.89286 L2.41023,2.89286 L2.41023,0 L2.89286,0 L2.89286,0.482625 L0,0.482625 L0,0 L0.482625,0" fill-rule="nonzero" vector-effect="none"/>
        </g>
    </g>
</svg>
