<?xml version='1.0' encoding='UTF-8' standalone='no'?>
<svg baseProfile="tiny" height="8.46667mm" version="1.2" viewBox="0 0 56 56" width="8.46667mm" xmlns="http://www.w3.org/2000/svg" xmlns:xlink="http://www.w3.org/1999/xlink">
    <style id="current-color-scheme" type="text/css">.ColorScheme-Text {color:#232629;}</style>
    <title>Qt SVG Document</title>
    <desc>Auto-generated by Klassy window decoration</desc>
    <defs/>
    <g fill="none" fill-rule="evenodd" stroke="black" stroke-linecap="square" stroke-linejoin="bevel" stroke-width="1">
        <g class="ColorScheme-Text" fill="currentColor" fill-opacity="1" font-family="Noto Sans" font-size="23.3333" font-style="normal" font-weight="400" stroke="none" transform="matrix(3.11111,0,0,3.11111,0,0)">
            <path d="M4.5,12.2136 L8.35714,12.2136 C8.71254,12.2136 9.00064,12.5017 9.00064,12.8571 C9.00064,13.2125 8.71254,13.5006 8.35714,13.5006 L4.5,13.5006 C4.1446,13.5006 3.8565,13.2125 3.8565,12.8571 C3.8565,12.5017 4.1446,12.2136 4.5,12.2136 " fill-rule="nonzero" vector-effect="none"/>
            <path d="M4.5,8.03507 L8.35714,8.03507 C8.71254,8.03507 9.00064,8.32318 9.00064,8.67857 C9.00064,9.03397 8.71254,9.32207 8.35714,9.32207 L4.5,9.32207 C4.1446,9.32207 3.8565,9.03397 3.8565,8.67857 C3.8565,8.32318 4.1446,8.03507 4.5,8.03507 " fill-rule="nonzero" vector-effect="none"/>
            <path d="M4.5,3.8565 L13.5,3.8565 C13.8554,3.8565 14.1435,4.1446 14.1435,4.5 C14.1435,4.8554 13.8554,5.1435 13.5,5.1435 L4.5,5.1435 C4.1446,5.1435 3.8565,4.8554 3.8565,4.5 C3.8565,4.1446 4.1446,3.8565 4.5,3.8565 " fill-rule="nonzero" vector-effect="none"/>
            <path d="M14.1435,6.42857 L14.1435,14.4643 C14.1435,14.8197 13.8554,15.1078 13.5,15.1078 C13.1446,15.1078 12.8565,14.8197 12.8565,14.4643 L12.8565,6.42857 C12.8565,6.07318 13.1446,5.78507 13.5,5.78507 C13.8554,5.78507 14.1435,6.07318 14.1435,6.42857 " fill-rule="nonzero" vector-effect="none"/>
            <path d="M11.1164,7.90212 L13.045,5.97355 L13.5,5.51853 L13.955,5.97355 L15.8836,7.90212 C16.1349,8.15342 16.1349,8.56086 15.8836,8.81217 C15.6323,9.06347 15.2249,9.06347 14.9735,8.81217 L13.045,6.88359 L13.5,6.42857 L13.955,6.88359 L12.0265,8.81217 C11.7751,9.06347 11.3677,9.06347 11.1164,8.81217 C10.8651,8.56086 10.8651,8.15342 11.1164,7.90212 " fill-rule="nonzero" vector-effect="none"/>
        </g>
    </g>
</svg>
