<?xml version='1.0' encoding='UTF-8' standalone='no'?>
<svg version="1.2" xmlns:xlink="http://www.w3.org/1999/xlink" viewBox="0 0 24 24" xmlns="http://www.w3.org/2000/svg" width="6.35mm" height="6.35mm" baseProfile="tiny">
    <style id="current-color-scheme" type="text/css">.ColorScheme-Text {color:#fcfcfc;}</style>
    <title>Qt SVG Document</title>
    <desc>Auto-generated by Klassy window decoration</desc>
    <defs/>
    <g stroke-linejoin="bevel" stroke-linecap="square" fill="none" stroke-width="1" stroke="black" fill-rule="evenodd">
        <g font-weight="400" class="ColorScheme-Text" font-size="13.3333" fill="currentColor" transform="matrix(1.33333,0,0,1.33333,5.5,8.5)" font-style="normal" stroke="none" font-family="Noto Sans" fill-opacity="0.900008">
            <path vector-effect="none" fill-rule="nonzero" d="M0,-0.375375 L7.5,-0.375375 L7.87538,0 L7.87538,7.5 L7.5,7.87538 L0,7.87538 L-0.375375,7.5 L-0.375375,0 L0,-0.375375 M0.375375,0 L0.375375,7.5 L0,7.5 L0,7.12462 L7.5,7.12462 L7.5,7.5 L7.12462,7.5 L7.12462,0 L7.5,0 L7.5,0.375375 L0,0.375375 L0,0 L0.375375,0"/>
        </g>
        <g font-weight="400" class="ColorScheme-Text" font-size="13.3333" fill="currentColor" transform="matrix(1.33333,0,0,1.33333,5.5,8.5)" font-style="normal" stroke="none" font-family="Noto Sans" fill-opacity="0.900008">
            <path vector-effect="none" fill-rule="nonzero" d="M1.87462,-0.375375 L1.87462,-2.25 L2.25,-2.62538 L9.75,-2.62538 L10.1254,-2.25 L10.1254,5.25 L9.75,5.62538 L7.87538,5.62538 L7.87538,4.87462 L9.75,4.87462 L9.75,5.25 L9.37462,5.25 L9.37462,-2.25 L9.75,-2.25 L9.75,-1.87462 L2.25,-1.87462 L2.25,-2.25 L2.62538,-2.25 L2.62538,-0.375375 L1.87462,-0.375375"/>
        </g>
    </g>
</svg>
