<?xml version='1.0' encoding='UTF-8' standalone='no'?>
<svg width="6.35mm" viewBox="0 0 24 24" baseProfile="tiny" xmlns="http://www.w3.org/2000/svg" xmlns:xlink="http://www.w3.org/1999/xlink" version="1.2" height="6.35mm">
    <style id="current-color-scheme" type="text/css">.ColorScheme-Text {color:#fcfcfc;}</style>
    <title>Qt SVG Document</title>
    <desc>Auto-generated by Klassy window decoration</desc>
    <defs/>
    <g stroke-linecap="square" fill-rule="evenodd" stroke-linejoin="bevel" stroke-width="1" fill="none" stroke="black">
        <g class="ColorScheme-Text" font-weight="400" font-family="Noto Sans" font-size="13.3333" transform="matrix(1.33333,0,0,1.33333,5.5,8.5)" fill-opacity="0.900008" fill="currentColor" font-style="normal" stroke="none">
            <path fill-rule="nonzero" vector-effect="none" d="M0,-0.375 L7.5,-0.375 L7.875,0 L7.875,7.5 L7.5,7.875 L0,7.875 L-0.375,7.5 L-0.375,0 L0,-0.375 M0.375,0 L0.375,7.5 L0,7.5 L0,7.125 L7.5,7.125 L7.5,7.5 L7.125,7.5 L7.125,0 L7.5,0 L7.5,0.375 L0,0.375 L0,0 L0.375,0"/>
        </g>
        <g class="ColorScheme-Text" font-weight="400" font-family="Noto Sans" font-size="13.3333" transform="matrix(1.33333,0,0,1.33333,5.5,8.5)" fill-opacity="0.900008" fill="currentColor" font-style="normal" stroke="none">
            <path fill-rule="nonzero" vector-effect="none" d="M1.875,-0.375 L1.875,-2.25 L2.25,-2.625 L9.75,-2.625 L10.125,-2.25 L10.125,5.25 L9.75,5.625 L7.875,5.625 L7.875,4.875 L9.75,4.875 L9.75,5.25 L9.375,5.25 L9.375,-2.25 L9.75,-2.25 L9.75,-1.875 L2.25,-1.875 L2.25,-2.25 L2.625,-2.25 L2.625,-0.375 L1.875,-0.375"/>
        </g>
    </g>
</svg>
