<?xml version='1.0' encoding='UTF-8' standalone='no'?>
<svg width="6.35mm" viewBox="0 0 24 24" baseProfile="tiny" xmlns="http://www.w3.org/2000/svg" xmlns:xlink="http://www.w3.org/1999/xlink" version="1.2" height="6.35mm">
    <style id="current-color-scheme" type="text/css">.ColorScheme-Text {color:#fcfcfc;}</style>
    <title>Qt SVG Document</title>
    <desc>Auto-generated by Klassy window decoration</desc>
    <defs/>
    <g stroke-linecap="square" fill-rule="evenodd" stroke-linejoin="bevel" stroke-width="1" fill="none" stroke="black">
        <g class="ColorScheme-Text" font-weight="400" font-family="Noto Sans" font-size="13.3333" transform="matrix(1.33333,0,0,1.33333,0,0)" fill-opacity="1" fill="currentColor" font-style="normal" stroke="none">
            <path fill-rule="nonzero" vector-effect="none" d="M4.125,12.75 L8.625,12.75 C8.83211,12.75 9,12.9179 9,13.125 C9,13.3321 8.83211,13.5 8.625,13.5 L4.125,13.5 C3.91789,13.5 3.75,13.3321 3.75,13.125 C3.75,12.9179 3.91789,12.75 4.125,12.75 "/>
            <path fill-rule="nonzero" vector-effect="none" d="M4.125,8.25 L8.625,8.25 C8.83211,8.25 9,8.41789 9,8.625 C9,8.83211 8.83211,9 8.625,9 L4.125,9 C3.91789,9 3.75,8.83211 3.75,8.625 C3.75,8.41789 3.91789,8.25 4.125,8.25 "/>
            <path fill-rule="nonzero" vector-effect="none" d="M4.125,3.75 L13.125,3.75 C13.3321,3.75 13.5,3.91789 13.5,4.125 C13.5,4.33211 13.3321,4.5 13.125,4.5 L4.125,4.5 C3.91789,4.5 3.75,4.33211 3.75,4.125 C3.75,3.91789 3.91789,3.75 4.125,3.75 "/>
            <path fill-rule="nonzero" vector-effect="none" d="M14.25,6.375 L14.25,14.625 C14.25,14.8321 14.0821,15 13.875,15 C13.6679,15 13.5,14.8321 13.5,14.625 L13.5,6.375 C13.5,6.16789 13.6679,6 13.875,6 C14.0821,6 14.25,6.16789 14.25,6.375 "/>
            <path fill-rule="nonzero" vector-effect="none" d="M12.063,8.41699 L13.563,6.16699 L13.875,5.69896 L14.187,6.16699 L15.687,8.41699 C15.8019,8.58931 15.7553,8.82214 15.583,8.93702 C15.4107,9.0519 15.1779,9.00534 15.063,8.83301 L13.563,6.58301 L13.875,6.375 L14.187,6.58301 L12.687,8.83301 C12.5721,9.00534 12.3393,9.0519 12.167,8.93702 C11.9947,8.82214 11.9481,8.58931 12.063,8.41699 "/>
        </g>
    </g>
</svg>
