<?xml version='1.0' encoding='UTF-8' standalone='no'?>
<svg baseProfile="tiny" height="6.35mm" version="1.2" viewBox="0 0 24 24" width="6.35mm" xmlns="http://www.w3.org/2000/svg" xmlns:xlink="http://www.w3.org/1999/xlink">
    <style id="current-color-scheme" type="text/css">.ColorScheme-Text {color:#fcfcfc;}</style>
    <title>Qt SVG Document</title>
    <desc>Auto-generated by Klassy window decoration</desc>
    <defs/>
    <g fill="none" fill-rule="evenodd" stroke="black" stroke-linecap="square" stroke-linejoin="bevel" stroke-width="1">
        <g class="ColorScheme-Text" fill="currentColor" fill-opacity="0.900008" font-family="Noto Sans" font-size="13.3333" font-style="normal" font-weight="400" stroke="none" transform="matrix(1.33333,0,0,1.33333,0,0)">
            <path d="M3.74962,4.12622 C3.74962,3.97006 3.97006,3.74962 4.12622,3.74962 L13.8738,3.74962 C14.0299,3.74962 14.2504,3.97006 14.2504,4.12622 L14.2504,13.8738 C14.2504,14.0299 14.0299,14.2504 13.8738,14.2504 L4.12622,14.2504 C3.97006,14.2504 3.74962,14.0299 3.74962,13.8738 L3.74962,4.12622 M4.50038,4.12622 L4.50038,13.8738 C4.50038,13.719 4.28103,13.4996 4.12622,13.4996 L13.8738,13.4996 C13.719,13.4996 13.4996,13.719 13.4996,13.8738 L13.4996,4.12622 C13.4996,4.28103 13.719,4.50038 13.8738,4.50038 L4.12622,4.50038 C4.28103,4.50038 4.50038,4.28103 4.50038,4.12622 " fill-rule="nonzero" vector-effect="none"/>
        </g>
    </g>
</svg>
