<?xml version='1.0' encoding='UTF-8' standalone='no'?>
<svg baseProfile="tiny" height="6.35mm" version="1.2" viewBox="0 0 24 24" width="6.35mm" xmlns="http://www.w3.org/2000/svg" xmlns:xlink="http://www.w3.org/1999/xlink">
    <style id="current-color-scheme" type="text/css">.ColorScheme-Text {color:#fcfcfc;}</style>
    <title>Qt SVG Document</title>
    <desc>Auto-generated by Klassy window decoration</desc>
    <defs/>
    <g fill="none" fill-rule="evenodd" stroke="black" stroke-linecap="square" stroke-linejoin="bevel" stroke-width="1">
        <g class="ColorScheme-Text" fill="currentColor" fill-opacity="1" font-family="Noto Sans" font-size="13.3333" font-style="normal" font-weight="400" stroke="none" transform="matrix(1.33333,0,0,1.33333,0,0)">
            <path d="M4.875,14.2496 L13.875,14.2496 C14.0823,14.2496 14.2504,14.4177 14.2504,14.625 C14.2504,14.8323 14.0823,15.0004 13.875,15.0004 L4.875,15.0004 C4.66769,15.0004 4.49962,14.8323 4.49962,14.625 C4.49962,14.4177 4.66769,14.2496 4.875,14.2496 " fill-rule="nonzero" vector-effect="none"/>
            <path d="M9.375,9.74962 L13.875,9.74962 C14.0823,9.74962 14.2504,9.91769 14.2504,10.125 C14.2504,10.3323 14.0823,10.5004 13.875,10.5004 L9.375,10.5004 C9.16769,10.5004 8.99962,10.3323 8.99962,10.125 C8.99962,9.91769 9.16769,9.74962 9.375,9.74962 " fill-rule="nonzero" vector-effect="none"/>
            <path d="M9.375,5.24962 L13.875,5.24962 C14.0823,5.24962 14.2504,5.41769 14.2504,5.625 C14.2504,5.83231 14.0823,6.00038 13.875,6.00038 L9.375,6.00038 C9.16769,6.00038 8.99962,5.83231 8.99962,5.625 C8.99962,5.41769 9.16769,5.24962 9.375,5.24962 " fill-rule="nonzero" vector-effect="none"/>
            <path d="M4.50038,4.125 L4.50038,12.375 C4.50038,12.5823 4.33231,12.7504 4.125,12.7504 C3.91769,12.7504 3.74962,12.5823 3.74962,12.375 L3.74962,4.125 C3.74962,3.91769 3.91769,3.74962 4.125,3.74962 C4.33231,3.74962 4.50038,3.91769 4.50038,4.125 " fill-rule="nonzero" vector-effect="none"/>
            <path d="M2.93733,9.91678 L4.43733,12.1668 L4.125,12.375 L3.81267,12.1668 L5.31267,9.91678 C5.42767,9.74428 5.66073,9.69767 5.83322,9.81267 C6.00572,9.92767 6.05233,10.1607 5.93733,10.3332 L4.43733,12.5832 L4.125,13.0517 L3.81267,12.5832 L2.31267,10.3332 C2.19767,10.1607 2.24428,9.92767 2.41678,9.81267 C2.58927,9.69767 2.82233,9.74428 2.93733,9.91678 " fill-rule="nonzero" vector-effect="none"/>
        </g>
    </g>
</svg>
