<?xml version='1.0' encoding='UTF-8' standalone='no'?>
<svg version="1.2" xmlns:xlink="http://www.w3.org/1999/xlink" viewBox="0 0 120 120" xmlns="http://www.w3.org/2000/svg" width="12.7mm" height="12.7mm" baseProfile="tiny">
    <style id="current-color-scheme" type="text/css">.ColorScheme-Text {color:#232629;}</style>
    <title>Qt SVG Document</title>
    <desc>Auto-generated by Klassy window decoration</desc>
    <defs/>
    <g stroke-linejoin="bevel" stroke-linecap="square" fill="none" stroke-width="1" stroke="black" fill-rule="evenodd">
        <g font-weight="400" class="ColorScheme-Text" font-size="33.3333" fill="currentColor" transform="matrix(6.66667,0,0,6.66667,0,0)" font-style="normal" stroke="none" font-family="Noto Sans" fill-opacity="1">
            <path vector-effect="none" fill-rule="nonzero" d="M4.05,3.89933 L13.95,3.89933 C14.3232,3.89933 14.6257,4.20184 14.6257,4.575 C14.6257,4.94816 14.3232,5.25068 13.95,5.25068 L4.05,5.25068 C3.67684,5.25068 3.37432,4.94816 3.37432,4.575 C3.37432,4.20184 3.67684,3.89933 4.05,3.89933 "/>
            <path vector-effect="none" fill-rule="nonzero" d="M3.52223,12.5222 L8.52223,7.52223 L9,7.04445 L9.47777,7.52223 L14.4778,12.5222 C14.7416,12.7861 14.7416,13.2139 14.4778,13.4778 C14.2139,13.7416 13.7861,13.7416 13.5222,13.4778 L8.52223,8.47777 L9,8 L9.47777,8.47777 L4.47777,13.4778 C4.21391,13.7416 3.78609,13.7416 3.52223,13.4778 C3.25836,13.2139 3.25836,12.7861 3.52223,12.5222 "/>
        </g>
    </g>
</svg>
