<?xml version='1.0' encoding='UTF-8' standalone='no'?>
<svg width="12.7mm" viewBox="0 0 120 120" baseProfile="tiny" xmlns="http://www.w3.org/2000/svg" xmlns:xlink="http://www.w3.org/1999/xlink" version="1.2" height="12.7mm">
    <style id="current-color-scheme" type="text/css">.ColorScheme-Text {color:#232629;}</style>
    <title>Qt SVG Document</title>
    <desc>Auto-generated by Klassy window decoration</desc>
    <defs/>
    <g stroke-linecap="square" fill-rule="evenodd" stroke-linejoin="bevel" stroke-width="1" fill="none" stroke="black">
        <g class="ColorScheme-Text" font-weight="400" font-family="Noto Sans" font-size="33.3333" transform="matrix(6.66667,0,0,6.66667,28,46)" fill-opacity="1" fill="currentColor" font-style="normal" stroke="none">
            <path fill-rule="nonzero" vector-effect="none" d="M0,-0.75 L7.05,-0.75 L7.8,0 L7.8,7.05 L7.05,7.8 L0,7.8 L-0.75,7.05 L-0.75,0 L0,-0.75 M0.75,0 L0.75,7.05 L0,7.05 L0,6.3 L7.05,6.3 L7.05,7.05 L6.3,7.05 L6.3,0 L7.05,0 L7.05,0.75 L0,0.75 L0,0 L0.75,0"/>
        </g>
        <g class="ColorScheme-Text" font-weight="400" font-family="Noto Sans" font-size="33.3333" transform="matrix(6.66667,0,0,6.66667,28,46)" fill-opacity="1" fill="currentColor" font-style="normal" stroke="none">
            <path fill-rule="nonzero" vector-effect="none" d="M1.95,-0.75 L1.95,-2.7 L2.7,-3.45 L9.75,-3.45 L10.5,-2.7 L10.5,4.35 L9.75,5.1 L7.8,5.1 L7.8,3.6 L9.75,3.6 L9.75,4.35 L9,4.35 L9,-2.7 L9.75,-2.7 L9.75,-1.95 L2.7,-1.95 L2.7,-2.7 L3.45,-2.7 L3.45,-0.75 L1.95,-0.75"/>
        </g>
    </g>
</svg>
