<?xml version='1.0' encoding='UTF-8' standalone='no'?>
<svg baseProfile="tiny" height="12.7mm" version="1.2" viewBox="0 0 120 120" width="12.7mm" xmlns="http://www.w3.org/2000/svg" xmlns:xlink="http://www.w3.org/1999/xlink">
    <style id="current-color-scheme" type="text/css">.ColorScheme-Text {color:#232629;}</style>
    <title>Qt SVG Document</title>
    <desc>Auto-generated by Klassy window decoration</desc>
    <defs/>
    <g fill="none" fill-rule="evenodd" stroke="black" stroke-linecap="square" stroke-linejoin="bevel" stroke-width="1">
        <g class="ColorScheme-Text" fill="currentColor" fill-opacity="0.949996" font-family="Noto Sans" font-size="33.3333" font-style="normal" font-weight="400" stroke="none" transform="matrix(6.66667,0,0,6.66667,28,46)">
            <path d="M0,-0.75075 L7.05,-0.75075 L7.80075,0 L7.80075,7.05 L7.05,7.80075 L0,7.80075 L-0.75075,7.05 L-0.75075,0 L0,-0.75075 M0.75075,0 L0.75075,7.05 L0,7.05 L0,6.29925 L7.05,6.29925 L7.05,7.05 L6.29925,7.05 L6.29925,0 L7.05,0 L7.05,0.75075 L0,0.75075 L0,0 L0.75075,0" fill-rule="nonzero" vector-effect="none"/>
        </g>
        <g class="ColorScheme-Text" fill="currentColor" fill-opacity="0.949996" font-family="Noto Sans" font-size="33.3333" font-style="normal" font-weight="400" stroke="none" transform="matrix(6.66667,0,0,6.66667,28,46)">
            <path d="M1.94925,-0.75075 L1.94925,-2.7 L2.7,-3.45075 L9.75,-3.45075 L10.5008,-2.7 L10.5008,4.35 L9.75,5.10075 L7.80075,5.10075 L7.80075,3.59925 L9.75,3.59925 L9.75,4.35 L8.99925,4.35 L8.99925,-2.7 L9.75,-2.7 L9.75,-1.94925 L2.7,-1.94925 L2.7,-2.7 L3.45075,-2.7 L3.45075,-0.75075 L1.94925,-0.75075" fill-rule="nonzero" vector-effect="none"/>
        </g>
    </g>
</svg>
