<?xml version='1.0' encoding='UTF-8' standalone='no'?>
<svg baseProfile="tiny" height="12.7mm" version="1.2" viewBox="0 0 120 120" width="12.7mm" xmlns="http://www.w3.org/2000/svg" xmlns:xlink="http://www.w3.org/1999/xlink">
    <style id="current-color-scheme" type="text/css">.ColorScheme-Text {color:#232629;}</style>
    <title>Qt SVG Document</title>
    <desc>Auto-generated by Klassy window decoration</desc>
    <defs/>
    <g fill="none" fill-rule="evenodd" stroke="black" stroke-linecap="square" stroke-linejoin="bevel" stroke-width="1">
        <g class="ColorScheme-Text" fill="currentColor" fill-opacity="0.549996" font-family="Noto Sans" font-size="33.3333" font-style="normal" font-weight="400" stroke="none" transform="matrix(6.66667,0,0,6.66667,49.5,49.5)">
            <rect height="3.15" width="3.15" x="0" y="0"/>
        </g>
        <g class="ColorScheme-Text" fill="currentColor" fill-opacity="0.902495" font-family="Noto Sans" font-size="33.3333" font-style="normal" font-weight="400" stroke="none" transform="matrix(6.66667,0,0,6.66667,49.5,49.5)">
            <path d="M0,-0.525525 L3.15,-0.525525 L3.67552,0 L3.67552,3.15 L3.15,3.67552 L0,3.67552 L-0.525525,3.15 L-0.525525,0 L0,-0.525525 M0.525525,0 L0.525525,3.15 L0,3.15 L0,2.62447 L3.15,2.62447 L3.15,3.15 L2.62447,3.15 L2.62447,0 L3.15,0 L3.15,0.525525 L0,0.525525 L0,0 L0.525525,0" fill-rule="nonzero" vector-effect="none"/>
        </g>
    </g>
</svg>
