<?xml version='1.0' encoding='UTF-8' standalone='no'?>
<svg baseProfile="tiny" height="12.7mm" version="1.2" viewBox="0 0 120 120" width="12.7mm" xmlns="http://www.w3.org/2000/svg" xmlns:xlink="http://www.w3.org/1999/xlink">
    <style id="current-color-scheme" type="text/css">.ColorScheme-Text {color:#232629;}</style>
    <title>Qt SVG Document</title>
    <desc>Auto-generated by Klassy window decoration</desc>
    <defs/>
    <g fill="none" fill-rule="evenodd" stroke="black" stroke-linecap="square" stroke-linejoin="bevel" stroke-width="1">
        <g class="ColorScheme-Text" fill="currentColor" fill-opacity="1" font-family="Noto Sans" font-size="33.3333" font-style="normal" font-weight="400" stroke="none" transform="matrix(6.66667,0,0,6.66667,0,0)">
            <path d="M4.5,11.9994 L8.55,11.9994 C8.8817,11.9994 9.1506,12.2683 9.1506,12.6 C9.1506,12.9317 8.8817,13.2006 8.55,13.2006 L4.5,13.2006 C4.1683,13.2006 3.8994,12.9317 3.8994,12.6 C3.8994,12.2683 4.1683,11.9994 4.5,11.9994 " fill-rule="nonzero" vector-effect="none"/>
            <path d="M4.5,7.9494 L8.55,7.9494 C8.8817,7.9494 9.1506,8.2183 9.1506,8.55 C9.1506,8.8817 8.8817,9.1506 8.55,9.1506 L4.5,9.1506 C4.1683,9.1506 3.8994,8.8817 3.8994,8.55 C3.8994,8.2183 4.1683,7.9494 4.5,7.9494 " fill-rule="nonzero" vector-effect="none"/>
            <path d="M4.5,3.8994 L13.5,3.8994 C13.8317,3.8994 14.1006,4.1683 14.1006,4.5 C14.1006,4.8317 13.8317,5.1006 13.5,5.1006 L4.5,5.1006 C4.1683,5.1006 3.8994,4.8317 3.8994,4.5 C3.8994,4.1683 4.1683,3.8994 4.5,3.8994 " fill-rule="nonzero" vector-effect="none"/>
            <path d="M14.1006,6.45 L14.1006,14.55 C14.1006,14.8817 13.8317,15.1506 13.5,15.1506 C13.1683,15.1506 12.8994,14.8817 12.8994,14.55 L12.8994,6.45 C12.8994,6.1183 13.1683,5.8494 13.5,5.8494 C13.8317,5.8494 14.1006,6.1183 14.1006,6.45 " fill-rule="nonzero" vector-effect="none"/>
            <path d="M11.1099,8.14132 L13.0599,6.04132 L13.5,5.56735 L13.9401,6.04132 L15.8901,8.14132 C16.1158,8.38439 16.1017,8.76441 15.8587,8.99012 C15.6156,9.21582 15.2356,9.20175 15.0099,8.95868 L13.0599,6.85868 L13.5,6.45 L13.9401,6.85868 L11.9901,8.95868 C11.7644,9.20175 11.3844,9.21582 11.1413,8.99012 C10.8983,8.76441 10.8842,8.38439 11.1099,8.14132 " fill-rule="nonzero" vector-effect="none"/>
        </g>
    </g>
</svg>
