<?xml version='1.0' encoding='UTF-8' standalone='no'?>
<svg width="12.7mm" viewBox="0 0 120 120" baseProfile="tiny" xmlns="http://www.w3.org/2000/svg" xmlns:xlink="http://www.w3.org/1999/xlink" version="1.2" height="12.7mm">
    <style id="current-color-scheme" type="text/css">.ColorScheme-Text {color:#232629;}</style>
    <title>Qt SVG Document</title>
    <desc>Auto-generated by Klassy window decoration</desc>
    <defs/>
    <g stroke-linecap="square" fill-rule="evenodd" stroke-linejoin="bevel" stroke-width="1" fill="none" stroke="black">
        <g class="ColorScheme-Text" font-weight="400" font-family="Noto Sans" font-size="33.3333" transform="matrix(6.66667,0,0,6.66667,49.5,49.5)" fill-opacity="0.650004" fill="currentColor" font-style="normal" stroke="none">
            <rect width="3.15" y="0" x="0" height="3.15"/>
        </g>
        <g class="ColorScheme-Text" font-weight="400" font-family="Noto Sans" font-size="33.3333" transform="matrix(6.66667,0,0,6.66667,49.5,49.5)" fill-opacity="0.850004" fill="currentColor" font-style="normal" stroke="none">
            <path fill-rule="nonzero" vector-effect="none" d="M0,-0.525 L3.15,-0.525 L3.675,0 L3.675,3.15 L3.15,3.675 L0,3.675 L-0.525,3.15 L-0.525,0 L0,-0.525 M0.525,0 L0.525,3.15 L0,3.15 L0,2.625 L3.15,2.625 L3.15,3.15 L2.625,3.15 L2.625,0 L3.15,0 L3.15,0.525 L0,0.525 L0,0 L0.525,0"/>
        </g>
    </g>
</svg>
