<?xml version='1.0' encoding='UTF-8' standalone='no'?>
<svg width="12.7mm" viewBox="0 0 120 120" baseProfile="tiny" xmlns="http://www.w3.org/2000/svg" xmlns:xlink="http://www.w3.org/1999/xlink" version="1.2" height="12.7mm">
    <style id="current-color-scheme" type="text/css">.ColorScheme-Text {color:#232629;}</style>
    <title>Qt SVG Document</title>
    <desc>Auto-generated by Klassy window decoration</desc>
    <defs/>
    <g stroke-linecap="square" fill-rule="evenodd" stroke-linejoin="bevel" stroke-width="1" fill="none" stroke="black">
        <g class="ColorScheme-Text" font-weight="400" font-family="Noto Sans" font-size="33.3333" transform="matrix(6.66667,0,0,6.66667,0,0)" fill-opacity="1" fill="currentColor" font-style="normal" stroke="none">
            <path fill-rule="nonzero" vector-effect="none" d="M4.5,12 L8.55,12 C8.88137,12 9.15,12.2686 9.15,12.6 C9.15,12.9314 8.88137,13.2 8.55,13.2 L4.5,13.2 C4.16863,13.2 3.9,12.9314 3.9,12.6 C3.9,12.2686 4.16863,12 4.5,12 "/>
            <path fill-rule="nonzero" vector-effect="none" d="M4.5,7.95 L8.55,7.95 C8.88137,7.95 9.15,8.21863 9.15,8.55 C9.15,8.88137 8.88137,9.15 8.55,9.15 L4.5,9.15 C4.16863,9.15 3.9,8.88137 3.9,8.55 C3.9,8.21863 4.16863,7.95 4.5,7.95 "/>
            <path fill-rule="nonzero" vector-effect="none" d="M4.5,3.9 L13.5,3.9 C13.8314,3.9 14.1,4.16863 14.1,4.5 C14.1,4.83137 13.8314,5.1 13.5,5.1 L4.5,5.1 C4.16863,5.1 3.9,4.83137 3.9,4.5 C3.9,4.16863 4.16863,3.9 4.5,3.9 "/>
            <path fill-rule="nonzero" vector-effect="none" d="M14.1,6.45 L14.1,14.55 C14.1,14.8814 13.8314,15.15 13.5,15.15 C13.1686,15.15 12.9,14.8814 12.9,14.55 L12.9,6.45 C12.9,6.11863 13.1686,5.85 13.5,5.85 C13.8314,5.85 14.1,6.11863 14.1,6.45 "/>
            <path fill-rule="nonzero" vector-effect="none" d="M11.1103,8.14173 L13.0603,6.04173 L13.5,5.56823 L13.9397,6.04173 L15.8897,8.14173 C16.1152,8.38456 16.1011,8.76419 15.8583,8.98968 C15.6154,9.21516 15.2358,9.2011 15.0103,8.95827 L13.0603,6.85827 L13.5,6.45 L13.9397,6.85827 L11.9897,8.95827 C11.7642,9.2011 11.3846,9.21516 11.1417,8.98968 C10.8989,8.76419 10.8848,8.38456 11.1103,8.14173 "/>
        </g>
    </g>
</svg>
