<?xml version='1.0' encoding='UTF-8' standalone='no'?>
<svg baseProfile="tiny" height="12.7mm" version="1.2" viewBox="0 0 120 120" width="12.7mm" xmlns="http://www.w3.org/2000/svg" xmlns:xlink="http://www.w3.org/1999/xlink">
    <style id="current-color-scheme" type="text/css">.ColorScheme-Text {color:#232629;}</style>
    <title>Qt SVG Document</title>
    <desc>Auto-generated by Klassy window decoration</desc>
    <defs/>
    <g fill="none" fill-rule="evenodd" stroke="black" stroke-linecap="square" stroke-linejoin="bevel" stroke-width="1">
        <g class="ColorScheme-Text" fill="currentColor" fill-opacity="1" font-family="Noto Sans" font-size="33.3333" font-style="normal" font-weight="400" stroke="none" transform="matrix(6.66667,0,0,6.66667,0,0)">
            <path d="M4.5,13.9494 L13.5,13.9494 C13.8317,13.9494 14.1006,14.2183 14.1006,14.55 C14.1006,14.8817 13.8317,15.1506 13.5,15.1506 L4.5,15.1506 C4.1683,15.1506 3.8994,14.8817 3.8994,14.55 C3.8994,14.2183 4.1683,13.9494 4.5,13.9494 " fill-rule="nonzero" vector-effect="none"/>
            <path d="M9.45,9.8994 L13.5,9.8994 C13.8317,9.8994 14.1006,10.1683 14.1006,10.5 C14.1006,10.8317 13.8317,11.1006 13.5,11.1006 L9.45,11.1006 C9.1183,11.1006 8.8494,10.8317 8.8494,10.5 C8.8494,10.1683 9.1183,9.8994 9.45,9.8994 " fill-rule="nonzero" vector-effect="none"/>
            <path d="M9.45,5.8494 L13.5,5.8494 C13.8317,5.8494 14.1006,6.1183 14.1006,6.45 C14.1006,6.7817 13.8317,7.0506 13.5,7.0506 L9.45,7.0506 C9.1183,7.0506 8.8494,6.7817 8.8494,6.45 C8.8494,6.1183 9.1183,5.8494 9.45,5.8494 " fill-rule="nonzero" vector-effect="none"/>
            <path d="M5.1006,4.5 L5.1006,12.45 C5.1006,12.7817 4.8317,13.0506 4.5,13.0506 C4.1683,13.0506 3.8994,12.7817 3.8994,12.45 L3.8994,4.5 C3.8994,4.1683 4.1683,3.8994 4.5,3.8994 C4.8317,3.8994 5.1006,4.1683 5.1006,4.5 " fill-rule="nonzero" vector-effect="none"/>
            <path d="M2.97469,10.0753 L4.92469,12.0253 L4.5,12.45 L4.07531,12.0253 L6.02531,10.0753 C6.25986,9.84076 6.64014,9.84076 6.87469,10.0753 C7.10924,10.3099 7.10924,10.6901 6.87469,10.9247 L4.92469,12.8747 L4.5,13.2994 L4.07531,12.8747 L2.12531,10.9247 C1.89076,10.6901 1.89076,10.3099 2.12531,10.0753 C2.35986,9.84076 2.74014,9.84076 2.97469,10.0753 " fill-rule="nonzero" vector-effect="none"/>
        </g>
    </g>
</svg>
