<?xml version='1.0' encoding='UTF-8' standalone='no'?>
<svg version="1.2" xmlns:xlink="http://www.w3.org/1999/xlink" viewBox="0 0 60 60" xmlns="http://www.w3.org/2000/svg" width="5.29167mm" height="5.29167mm" baseProfile="tiny">
    <style id="current-color-scheme" type="text/css">.ColorScheme-Text {color:#232629;}</style>
    <title>Qt SVG Document</title>
    <desc>Auto-generated by Klassy window decoration</desc>
    <defs/>
    <g stroke-linejoin="bevel" stroke-linecap="square" fill="none" stroke-width="1" stroke="black" fill-rule="evenodd">
        <g font-weight="400" class="ColorScheme-Text" font-size="40" fill="#da0016" transform="matrix(3.75,0,0,3.75,0,0)" font-style="normal" stroke="none" font-family="Noto Sans" fill-opacity="0.719997">
            <path vector-effect="none" fill-rule="evenodd" d="M2,3.2 C2,2.53726 2.53726,2 3.2,2 L12.8,2 C13.4627,2 14,2.53726 14,3.2 L14,12.8 C14,13.4627 13.4627,14 12.8,14 L3.2,14 C2.53726,14 2,13.4627 2,12.8 L2,3.2"/>
        </g>
        <g font-weight="400" class="ColorScheme-Text" font-size="40" fill="#ffffff" transform="matrix(3.33333,0,0,3.33333,0,0)" font-style="normal" stroke="none" font-family="Noto Sans" fill-opacity="1">
            <path vector-effect="none" fill-rule="nonzero" d="M4.88086,3.81914 L14.1809,13.1191 C14.474,13.4123 14.474,13.8877 14.1809,14.1809 C13.8877,14.474 13.4123,14.474 13.1191,14.1809 L3.81914,4.88086 C3.52595,4.58767 3.52595,4.11233 3.81914,3.81914 C4.11233,3.52595 4.58767,3.52595 4.88086,3.81914 "/>
            <path vector-effect="none" fill-rule="nonzero" d="M14.1809,4.88086 L4.88086,14.1809 C4.58767,14.474 4.11233,14.474 3.81914,14.1809 C3.52595,13.8877 3.52595,13.4123 3.81914,13.1191 L13.1191,3.81914 C13.4123,3.52595 13.8877,3.52595 14.1809,3.81914 C14.474,4.11233 14.474,4.58767 14.1809,4.88086 "/>
        </g>
    </g>
</svg>
