<?xml version='1.0' encoding='UTF-8' standalone='no'?>
<svg width="5.29167mm" viewBox="0 0 60 60" baseProfile="tiny" xmlns="http://www.w3.org/2000/svg" xmlns:xlink="http://www.w3.org/1999/xlink" version="1.2" height="5.29167mm">
    <style id="current-color-scheme" type="text/css">.ColorScheme-Text {color:#232629;}</style>
    <title>Qt SVG Document</title>
    <desc>Auto-generated by Klassy window decoration</desc>
    <defs/>
    <g stroke-linecap="square" fill-rule="evenodd" stroke-linejoin="bevel" stroke-width="1" fill="none" stroke="black">
        <g class="ColorScheme-Text" font-weight="400" font-family="Noto Sans" font-size="40" transform="matrix(3.75,0,0,3.75,0,0)" fill-opacity="0.600015" fill="#da0016" font-style="normal" stroke="none">
            <path fill-rule="evenodd" vector-effect="none" d="M2,3.2 C2,2.53726 2.53726,2 3.2,2 L12.8,2 C13.4627,2 14,2.53726 14,3.2 L14,12.8 C14,13.4627 13.4627,14 12.8,14 L3.2,14 C2.53726,14 2,13.4627 2,12.8 L2,3.2"/>
        </g>
        <g class="ColorScheme-Text" font-weight="400" font-family="Noto Sans" font-size="40" transform="matrix(3.33333,0,0,3.33333,0,0)" fill-opacity="1" fill="#ffffff" font-style="normal" stroke="none">
            <path fill-rule="nonzero" vector-effect="none" d="M4.91625,3.78375 L14.2163,13.0837 C14.529,13.3965 14.529,13.9035 14.2163,14.2163 C13.9035,14.529 13.3965,14.529 13.0837,14.2163 L3.78375,4.91625 C3.47102,4.60352 3.47102,4.09648 3.78375,3.78375 C4.09648,3.47102 4.60352,3.47102 4.91625,3.78375 "/>
            <path fill-rule="nonzero" vector-effect="none" d="M14.2163,4.91625 L4.91625,14.2163 C4.60352,14.529 4.09648,14.529 3.78375,14.2163 C3.47102,13.9035 3.47102,13.3965 3.78375,13.0837 L13.0837,3.78375 C13.3965,3.47102 13.9035,3.47102 14.2163,3.78375 C14.529,4.09648 14.529,4.60352 14.2163,4.91625 "/>
        </g>
    </g>
</svg>
