<?xml version='1.0' encoding='UTF-8' standalone='no'?>
<svg baseProfile="tiny" height="5.29167mm" version="1.2" viewBox="0 0 60 60" width="5.29167mm" xmlns="http://www.w3.org/2000/svg" xmlns:xlink="http://www.w3.org/1999/xlink">
    <style id="current-color-scheme" type="text/css">.ColorScheme-Text {color:#232629;}</style>
    <title>Qt SVG Document</title>
    <desc>Auto-generated by Klassy window decoration</desc>
    <defs/>
    <g fill="none" fill-rule="evenodd" stroke="black" stroke-linecap="square" stroke-linejoin="bevel" stroke-width="1">
        <g class="ColorScheme-Text" fill="currentColor" fill-opacity="1" font-family="Noto Sans" font-size="40" font-style="normal" font-weight="400" stroke="none" transform="matrix(3.33333,0,0,3.33333,0,0)">
            <path d="M3.9,3.8994 L14.1,3.8994 C14.4317,3.8994 14.7006,4.1683 14.7006,4.5 C14.7006,4.8317 14.4317,5.1006 14.1,5.1006 L3.9,5.1006 C3.5683,5.1006 3.2994,4.8317 3.2994,4.5 C3.2994,4.1683 3.5683,3.8994 3.9,3.8994 " fill-rule="nonzero" vector-effect="none"/>
            <path d="M3.57531,12.5753 L8.57531,7.57531 L9,7.15062 L9.42469,7.57531 L14.4247,12.5753 C14.6592,12.8099 14.6592,13.1901 14.4247,13.4247 C14.1901,13.6592 13.8099,13.6592 13.5753,13.4247 L8.57531,8.42469 L9,8 L9.42469,8.42469 L4.42469,13.4247 C4.19014,13.6592 3.80986,13.6592 3.57531,13.4247 C3.34076,13.1901 3.34076,12.8099 3.57531,12.5753 " fill-rule="nonzero" vector-effect="none"/>
        </g>
    </g>
</svg>
