<?xml version='1.0' encoding='UTF-8' standalone='no'?>
<svg width="5.29167mm" viewBox="0 0 60 60" baseProfile="tiny" xmlns="http://www.w3.org/2000/svg" xmlns:xlink="http://www.w3.org/1999/xlink" version="1.2" height="5.29167mm">
    <style id="current-color-scheme" type="text/css">.ColorScheme-Text {color:#232629;}</style>
    <title>Qt SVG Document</title>
    <desc>Auto-generated by Klassy window decoration</desc>
    <defs/>
    <g stroke-linecap="square" fill-rule="evenodd" stroke-linejoin="bevel" stroke-width="1" fill="none" stroke="black">
        <g class="ColorScheme-Text" font-weight="400" font-family="Noto Sans" font-size="40" transform="matrix(3.33333,0,0,3.33333,0,0)" fill-opacity="1" fill="currentColor" font-style="normal" stroke="none">
            <path fill-rule="nonzero" vector-effect="none" d="M3.6,4.35116 C3.6,4.03986 4.03986,3.6 4.35116,3.6 L13.6488,3.6 C13.8559,3.6 14.0333,3.6738 14.1797,3.82025 C14.3262,3.9667 14.4,4.14406 14.4,4.35116 L14.4,13.6488 C14.4,13.8559 14.3262,14.0333 14.1797,14.1797 C14.0333,14.3262 13.8559,14.4 13.6488,14.4 L4.35116,14.4 C4.14406,14.4 3.9667,14.3262 3.82025,14.1797 C3.6738,14.0333 3.6,13.8559 3.6,13.6488 L3.6,4.35116 M5.1,4.35116 L5.1,13.6488 C5.1,13.4417 5.02736,13.2655 4.88091,13.1191 C4.73446,12.9726 4.55827,12.9 4.35116,12.9 L13.6488,12.9 C13.4417,12.9 13.2655,12.9726 13.1191,13.1191 C12.9726,13.2655 12.9,13.4417 12.9,13.6488 L12.9,4.35116 C12.9,4.55827 12.9726,4.73446 13.1191,4.88091 C13.2655,5.02736 13.4417,5.1 13.6488,5.1 L4.35116,5.1 C4.66118,5.1 5.1,4.66118 5.1,4.35116 "/>
        </g>
    </g>
</svg>
