<?xml version='1.0' encoding='UTF-8' standalone='no'?>
<svg baseProfile="tiny" height="5.29167mm" version="1.2" viewBox="0 0 60 60" width="5.29167mm" xmlns="http://www.w3.org/2000/svg" xmlns:xlink="http://www.w3.org/1999/xlink">
    <style id="current-color-scheme" type="text/css">.ColorScheme-Text {color:#232629;}</style>
    <title>Qt SVG Document</title>
    <desc>Auto-generated by Klassy window decoration</desc>
    <defs/>
    <g fill="none" fill-rule="evenodd" stroke="black" stroke-linecap="square" stroke-linejoin="bevel" stroke-width="1">
        <g class="ColorScheme-Text" fill="currentColor" fill-opacity="0.949996" font-family="Noto Sans" font-size="40" font-style="normal" font-weight="400" stroke="none" transform="matrix(3.33333,0,0,3.33333,13.5,23.5)">
            <path d="M0,-0.75075 L7.2,-0.75075 L7.95075,0 L7.95075,7.2 L7.2,7.95075 L0,7.95075 L-0.75075,7.2 L-0.75075,0 L0,-0.75075 M0.75075,0 L0.75075,7.2 L0,7.2 L0,6.44925 L7.2,6.44925 L7.2,7.2 L6.44925,7.2 L6.44925,0 L7.2,0 L7.2,0.75075 L0,0.75075 L0,0 L0.75075,0" fill-rule="nonzero" vector-effect="none"/>
        </g>
        <g class="ColorScheme-Text" fill="currentColor" fill-opacity="0.949996" font-family="Noto Sans" font-size="40" font-style="normal" font-weight="400" stroke="none" transform="matrix(3.33333,0,0,3.33333,13.5,23.5)">
            <path d="M2.24925,-0.75075 L2.24925,-3 L3,-3.75075 L10.2,-3.75075 L10.9507,-3 L10.9507,4.2 L10.2,4.95075 L7.95075,4.95075 L7.95075,3.44925 L10.2,3.44925 L10.2,4.2 L9.44925,4.2 L9.44925,-3 L10.2,-3 L10.2,-2.24925 L3,-2.24925 L3,-3 L3.75075,-3 L3.75075,-0.75075 L2.24925,-0.75075" fill-rule="nonzero" vector-effect="none"/>
        </g>
    </g>
</svg>
