<?xml version='1.0' encoding='UTF-8' standalone='no'?>
<svg baseProfile="tiny" height="5.29167mm" version="1.2" viewBox="0 0 60 60" width="5.29167mm" xmlns="http://www.w3.org/2000/svg" xmlns:xlink="http://www.w3.org/1999/xlink">
    <style id="current-color-scheme" type="text/css">.ColorScheme-Text {color:#232629;}</style>
    <title>Qt SVG Document</title>
    <desc>Auto-generated by Klassy window decoration</desc>
    <defs/>
    <g fill="none" fill-rule="evenodd" stroke="black" stroke-linecap="square" stroke-linejoin="bevel" stroke-width="1">
        <g class="ColorScheme-Text" fill="currentColor" fill-opacity="0.549996" font-family="Noto Sans" font-size="40" font-style="normal" font-weight="400" stroke="none" transform="matrix(3.33333,0,0,3.33333,24.5,24.5)">
            <rect height="3.3" width="3.3" x="0" y="0"/>
        </g>
        <g class="ColorScheme-Text" fill="currentColor" fill-opacity="0.902495" font-family="Noto Sans" font-size="40" font-style="normal" font-weight="400" stroke="none" transform="matrix(3.33333,0,0,3.33333,24.5,24.5)">
            <path d="M0,-0.45045 L3.3,-0.45045 L3.75045,0 L3.75045,3.3 L3.3,3.75045 L0,3.75045 L-0.45045,3.3 L-0.45045,0 L0,-0.45045 M0.45045,0 L0.45045,3.3 L0,3.3 L0,2.84955 L3.3,2.84955 L3.3,3.3 L2.84955,3.3 L2.84955,0 L3.3,0 L3.3,0.45045 L0,0.45045 L0,0 L0.45045,0" fill-rule="nonzero" vector-effect="none"/>
        </g>
    </g>
</svg>
