<?xml version='1.0' encoding='UTF-8' standalone='no'?>
<svg width="4.23333mm" viewBox="0 0 20 20" baseProfile="tiny" xmlns="http://www.w3.org/2000/svg" xmlns:xlink="http://www.w3.org/1999/xlink" version="1.2" height="4.23333mm">
    <style id="current-color-scheme" type="text/css">.ColorScheme-Text {color:#fcfcfc;}</style>
    <title>Qt SVG Document</title>
    <desc>Auto-generated by Klassy window decoration</desc>
    <defs/>
    <g stroke-linecap="square" fill-rule="evenodd" stroke-linejoin="bevel" stroke-width="1" fill="none" stroke="black">
        <g class="ColorScheme-Text" font-weight="400" font-family="Noto Sans" font-size="16.6667" transform="matrix(1.11111,0,0,1.11111,0,0)" fill-opacity="1" fill="currentColor" font-style="normal" stroke="none">
            <path fill-rule="nonzero" vector-effect="none" d="M4.05,12.6 L8.55,12.6 L8.55,13.5 L4.05,13.5 L4.05,12.6"/>
            <path fill-rule="nonzero" vector-effect="none" d="M4.05,8.1 L8.55,8.1 L8.55,9 L4.05,9 L4.05,8.1"/>
            <path fill-rule="nonzero" vector-effect="none" d="M4.05,3.6 L13.05,3.6 L13.05,4.5 L4.05,4.5 L4.05,3.6"/>
            <path fill-rule="nonzero" vector-effect="none" d="M14.4,6.75 L14.4,14.85 L13.5,14.85 L13.5,6.75 L14.4,6.75"/>
            <path fill-rule="nonzero" vector-effect="none" d="M11.3818,8.6818 L13.6318,6.4318 L13.95,6.1136 L14.2682,6.4318 L16.5182,8.6818 L15.8818,9.3182 L13.6318,7.0682 L13.95,6.75 L14.2682,7.0682 L12.0182,9.3182 L11.3818,8.6818"/>
        </g>
    </g>
</svg>
