<?xml version='1.0' encoding='UTF-8' standalone='no'?>
<svg version="1.2" xmlns:xlink="http://www.w3.org/1999/xlink" viewBox="0 0 72 72" xmlns="http://www.w3.org/2000/svg" width="8.46667mm" height="8.46667mm" baseProfile="tiny">
    <style id="current-color-scheme" type="text/css">.ColorScheme-Text {color:#232629;}</style>
    <title>Qt SVG Document</title>
    <desc>Auto-generated by Klassy window decoration</desc>
    <defs/>
    <g stroke-linejoin="bevel" stroke-linecap="square" fill="none" stroke-width="1" stroke="black" fill-rule="evenodd">
        <g font-weight="400" class="ColorScheme-Text" font-size="30" fill="#da0016" transform="matrix(4.5,0,0,4.5,0,0)" font-style="normal" stroke="none" font-family="Noto Sans" fill-opacity="0.719997">
            <path vector-effect="none" fill-rule="evenodd" d="M2,3.2 C2,2.53726 2.53726,2 3.2,2 L12.8,2 C13.4627,2 14,2.53726 14,3.2 L14,12.8 C14,13.4627 13.4627,14 12.8,14 L3.2,14 C2.53726,14 2,13.4627 2,12.8 L2,3.2"/>
        </g>
        <g font-weight="400" class="ColorScheme-Text" font-size="30" fill="#ffffff" transform="matrix(4,0,0,4,0,0)" font-style="normal" stroke="none" font-family="Noto Sans" fill-opacity="1">
            <path vector-effect="none" fill-rule="nonzero" d="M5.03086,3.96914 L14.0309,12.9691 C14.324,13.2623 14.324,13.7377 14.0309,14.0309 C13.7377,14.324 13.2623,14.324 12.9691,14.0309 L3.96914,5.03086 C3.67595,4.73767 3.67595,4.26233 3.96914,3.96914 C4.26233,3.67595 4.73767,3.67595 5.03086,3.96914 "/>
            <path vector-effect="none" fill-rule="nonzero" d="M14.0309,5.03086 L5.03086,14.0309 C4.73767,14.324 4.26233,14.324 3.96914,14.0309 C3.67595,13.7377 3.67595,13.2623 3.96914,12.9691 L12.9691,3.96914 C13.2623,3.67595 13.7377,3.67595 14.0309,3.96914 C14.324,4.26233 14.324,4.73767 14.0309,5.03086 "/>
        </g>
    </g>
</svg>
