<?xml version='1.0' encoding='UTF-8' standalone='no'?>
<svg baseProfile="tiny" height="5.82083mm" version="1.2" viewBox="0 0 55 55" width="5.82083mm" xmlns="http://www.w3.org/2000/svg" xmlns:xlink="http://www.w3.org/1999/xlink">
    <style id="current-color-scheme" type="text/css">.ColorScheme-Text {color:#232629;}</style>
    <title>Qt SVG Document</title>
    <desc>Auto-generated by Klassy window decoration</desc>
    <defs/>
    <g fill="none" fill-rule="evenodd" stroke="black" stroke-linecap="square" stroke-linejoin="bevel" stroke-width="1">
        <g class="ColorScheme-Text" fill="currentColor" fill-opacity="1" font-family="Noto Sans" font-size="33.3333" font-style="normal" font-weight="400" stroke="none" transform="matrix(3.05556,0,0,3.05556,0,0)">
            <path d="M4.9973,3.83906 L14.4882,13.33 C14.8081,13.6498 14.8081,14.1684 14.4882,14.4882 C14.1684,14.8081 13.6498,14.8081 13.33,14.4882 L3.83906,4.9973 C3.51922,4.67746 3.51922,4.1589 3.83906,3.83906 C4.1589,3.51922 4.67746,3.51922 4.9973,3.83906 " fill-rule="nonzero" vector-effect="none"/>
            <path d="M14.4882,4.9973 L4.9973,14.4882 C4.67746,14.8081 4.1589,14.8081 3.83906,14.4882 C3.51922,14.1684 3.51922,13.6498 3.83906,13.33 L13.33,3.83906 C13.6498,3.51922 14.1684,3.51922 14.4882,3.83906 C14.8081,4.1589 14.8081,4.67746 14.4882,4.9973 " fill-rule="nonzero" vector-effect="none"/>
        </g>
    </g>
</svg>
