<?xml version='1.0' encoding='UTF-8' standalone='no'?>
<svg baseProfile="tiny" height="5.82083mm" version="1.2" viewBox="0 0 55 55" width="5.82083mm" xmlns="http://www.w3.org/2000/svg" xmlns:xlink="http://www.w3.org/1999/xlink">
    <style id="current-color-scheme" type="text/css">.ColorScheme-Text {color:#232629;}</style>
    <title>Qt SVG Document</title>
    <desc>Auto-generated by Klassy window decoration</desc>
    <defs/>
    <g fill="none" fill-rule="evenodd" stroke="black" stroke-linecap="square" stroke-linejoin="bevel" stroke-width="1">
        <g class="ColorScheme-Text" fill="currentColor" fill-opacity="1" font-family="Noto Sans" font-size="33.3333" font-style="normal" font-weight="400" stroke="none" transform="matrix(3.05556,0,0,3.05556,0,0)">
            <path d="M3.92727,3.92662 L14.0727,3.92662 C14.4346,3.92662 14.7279,4.21996 14.7279,4.58182 C14.7279,4.94368 14.4346,5.23702 14.0727,5.23702 L3.92727,5.23702 C3.56542,5.23702 3.27207,4.94368 3.27207,4.58182 C3.27207,4.21996 3.56542,3.92662 3.92727,3.92662 " fill-rule="nonzero" vector-effect="none"/>
            <path d="M3.5367,12.5367 L8.5367,7.5367 L9,7.07341 L9.4633,7.5367 L14.4633,12.5367 C14.7192,12.7926 14.7192,13.2074 14.4633,13.4633 C14.2074,13.7192 13.7926,13.7192 13.5367,13.4633 L8.5367,8.4633 L9,8 L9.4633,8.4633 L4.4633,13.4633 C4.20742,13.7192 3.79258,13.7192 3.5367,13.4633 C3.28083,13.2074 3.28083,12.7926 3.5367,12.5367 " fill-rule="nonzero" vector-effect="none"/>
        </g>
    </g>
</svg>
