<?xml version='1.0' encoding='UTF-8' standalone='no'?>
<svg width="5.82083mm" viewBox="0 0 55 55" baseProfile="tiny" xmlns="http://www.w3.org/2000/svg" xmlns:xlink="http://www.w3.org/1999/xlink" version="1.2" height="5.82083mm">
    <style id="current-color-scheme" type="text/css">.ColorScheme-Text {color:#232629;}</style>
    <title>Qt SVG Document</title>
    <desc>Auto-generated by Klassy window decoration</desc>
    <defs/>
    <g stroke-linecap="square" fill-rule="evenodd" stroke-linejoin="bevel" stroke-width="1" fill="none" stroke="black">
        <g class="ColorScheme-Text" font-weight="400" font-family="Noto Sans" font-size="33.3333" transform="matrix(3.05556,0,0,3.05556,11.5,22.5)" fill-opacity="1" fill="currentColor" font-style="normal" stroke="none">
            <path fill-rule="nonzero" vector-effect="none" d="M0,-0.818182 L7.2,-0.818182 L8.01818,0 L8.01818,7.2 L7.2,8.01818 L0,8.01818 L-0.818182,7.2 L-0.818182,0 L0,-0.818182 M0.818182,0 L0.818182,7.2 L0,7.2 L0,6.38182 L7.2,6.38182 L7.2,7.2 L6.38182,7.2 L6.38182,0 L7.2,0 L7.2,0.818182 L0,0.818182 L0,0 L0.818182,0"/>
        </g>
        <g class="ColorScheme-Text" font-weight="400" font-family="Noto Sans" font-size="33.3333" transform="matrix(3.05556,0,0,3.05556,11.5,22.5)" fill-opacity="1" fill="currentColor" font-style="normal" stroke="none">
            <path fill-rule="nonzero" vector-effect="none" d="M2.45455,-0.818182 L2.45455,-3.27273 L3.27273,-4.09091 L10.4727,-4.09091 L11.2909,-3.27273 L11.2909,3.92727 L10.4727,4.74545 L8.01818,4.74545 L8.01818,3.10909 L10.4727,3.10909 L10.4727,3.92727 L9.65455,3.92727 L9.65455,-3.27273 L10.4727,-3.27273 L10.4727,-2.45455 L3.27273,-2.45455 L3.27273,-3.27273 L4.09091,-3.27273 L4.09091,-0.818182 L2.45455,-0.818182"/>
        </g>
    </g>
</svg>
