<?xml version='1.0' encoding='UTF-8' standalone='no'?>
<svg width="5.29167mm" viewBox="0 0 35 35" baseProfile="tiny" xmlns="http://www.w3.org/2000/svg" xmlns:xlink="http://www.w3.org/1999/xlink" version="1.2" height="5.29167mm">
    <style id="current-color-scheme" type="text/css">.ColorScheme-Text {color:#232629;}</style>
    <title>Qt SVG Document</title>
    <desc>Auto-generated by Klassy window decoration</desc>
    <defs/>
    <g stroke-linecap="square" fill-rule="evenodd" stroke-linejoin="bevel" stroke-width="1" fill="none" stroke="black">
        <g class="ColorScheme-Text" font-weight="400" font-family="Noto Sans" font-size="23.3333" transform="matrix(2.1875,0,0,2.1875,0,0)" fill-opacity="0.600015" fill="#da0016" font-style="normal" stroke="none">
            <path fill-rule="evenodd" vector-effect="none" d="M2,3.2 C2,2.53726 2.53726,2 3.2,2 L12.8,2 C13.4627,2 14,2.53726 14,3.2 L14,12.8 C14,13.4627 13.4627,14 12.8,14 L3.2,14 C2.53726,14 2,13.4627 2,12.8 L2,3.2"/>
        </g>
        <g class="ColorScheme-Text" font-weight="400" font-family="Noto Sans" font-size="23.3333" transform="matrix(1.94444,0,0,1.94444,0,0)" fill-opacity="1" fill="#ffffff" font-style="normal" stroke="none">
            <path fill-rule="nonzero" vector-effect="none" d="M4.93768,3.80518 L14.7091,13.5766 C15.0218,13.8893 15.0218,14.3964 14.7091,14.7091 C14.3964,15.0218 13.8893,15.0218 13.5766,14.7091 L3.80518,4.93768 C3.49245,4.62495 3.49245,4.11791 3.80518,3.80518 C4.11791,3.49245 4.62495,3.49245 4.93768,3.80518 "/>
            <path fill-rule="nonzero" vector-effect="none" d="M14.7091,4.93768 L4.93768,14.7091 C4.62495,15.0218 4.11791,15.0218 3.80518,14.7091 C3.49245,14.3964 3.49245,13.8893 3.80518,13.5766 L13.5766,3.80518 C13.8893,3.49245 14.3964,3.49245 14.7091,3.80518 C15.0218,4.11791 15.0218,4.62495 14.7091,4.93768 "/>
        </g>
    </g>
</svg>
