<?xml version='1.0' encoding='UTF-8' standalone='no'?>
<svg baseProfile="tiny" height="5.29167mm" version="1.2" viewBox="0 0 35 35" width="5.29167mm" xmlns="http://www.w3.org/2000/svg" xmlns:xlink="http://www.w3.org/1999/xlink">
    <style id="current-color-scheme" type="text/css">.ColorScheme-Text {color:#232629;}</style>
    <title>Qt SVG Document</title>
    <desc>Auto-generated by Klassy window decoration</desc>
    <defs/>
    <g fill="none" fill-rule="evenodd" stroke="black" stroke-linecap="square" stroke-linejoin="bevel" stroke-width="1">
        <g class="ColorScheme-Text" fill="currentColor" fill-opacity="0.450004" font-family="Noto Sans" font-size="23.3333" font-style="normal" font-weight="400" stroke="none" transform="matrix(1.94444,0,0,1.94444,15,16)">
            <rect height="2.57143" width="2.57143" x="0" y="0"/>
        </g>
        <g class="ColorScheme-Text" fill="currentColor" fill-opacity="0.902495" font-family="Noto Sans" font-size="23.3333" font-style="normal" font-weight="400" stroke="none" transform="matrix(1.94444,0,0,1.94444,15,16)">
            <path d="M0,-0.7722 L2.57143,-0.7722 L3.34363,0 L3.34363,2.57143 L2.57143,3.34363 L0,3.34363 L-0.7722,2.57143 L-0.7722,0 L0,-0.7722 M0.7722,0 L0.7722,2.57143 L0,2.57143 L0,1.79923 L2.57143,1.79923 L2.57143,2.57143 L1.79923,2.57143 L1.79923,0 L2.57143,0 L2.57143,0.7722 L0,0.7722 L0,0 L0.7722,0" fill-rule="nonzero" vector-effect="none"/>
        </g>
    </g>
</svg>
