<?xml version='1.0' encoding='UTF-8' standalone='no'?>
<svg version="1.2" xmlns:xlink="http://www.w3.org/1999/xlink" viewBox="0 0 35 35" xmlns="http://www.w3.org/2000/svg" width="5.29167mm" height="5.29167mm" baseProfile="tiny">
    <style id="current-color-scheme" type="text/css">.ColorScheme-Text {color:#232629;}</style>
    <title>Qt SVG Document</title>
    <desc>Auto-generated by Klassy window decoration</desc>
    <defs/>
    <g stroke-linejoin="bevel" stroke-linecap="square" fill="none" stroke-width="1" stroke="black" fill-rule="evenodd">
        <g font-weight="400" class="ColorScheme-Text" font-size="23.3333" fill="currentColor" transform="matrix(1.94444,0,0,1.94444,0,0)" font-style="normal" stroke="none" font-family="Noto Sans" fill-opacity="1">
            <path vector-effect="none" fill-rule="nonzero" d="M4.62857,13.8852 L13.3714,13.8852 C13.6557,13.8852 13.8862,14.1157 13.8862,14.4 C13.8862,14.6843 13.6557,14.9148 13.3714,14.9148 L4.62857,14.9148 C4.34426,14.9148 4.11377,14.6843 4.11377,14.4 C4.11377,14.1157 4.34426,13.8852 4.62857,13.8852 "/>
            <path vector-effect="none" fill-rule="nonzero" d="M9.25714,9.77091 L13.3714,9.77091 C13.6557,9.77091 13.8862,10.0014 13.8862,10.2857 C13.8862,10.57 13.6557,10.8005 13.3714,10.8005 L9.25714,10.8005 C8.97283,10.8005 8.74234,10.57 8.74234,10.2857 C8.74234,10.0014 8.97283,9.77091 9.25714,9.77091 "/>
            <path vector-effect="none" fill-rule="nonzero" d="M9.25714,5.65663 L13.3714,5.65663 C13.6557,5.65663 13.8862,5.88711 13.8862,6.17143 C13.8862,6.45574 13.6557,6.68623 13.3714,6.68623 L9.25714,6.68623 C8.97283,6.68623 8.74234,6.45574 8.74234,6.17143 C8.74234,5.88711 8.97283,5.65663 9.25714,5.65663 "/>
            <path vector-effect="none" fill-rule="nonzero" d="M5.14337,4.62857 L5.14337,12.3429 C5.14337,12.6272 4.91289,12.8577 4.62857,12.8577 C4.34426,12.8577 4.11377,12.6272 4.11377,12.3429 L4.11377,4.62857 C4.11377,4.34426 4.34426,4.11377 4.62857,4.11377 C4.91289,4.11377 5.14337,4.34426 5.14337,4.62857 "/>
            <path vector-effect="none" fill-rule="nonzero" d="M2.93545,9.9217 L4.99259,11.9788 L4.62857,12.3429 L4.26455,11.9788 L6.3217,9.9217 C6.52274,9.72065 6.84869,9.72065 7.04973,9.9217 C7.25077,10.1227 7.25077,10.4487 7.04973,10.6497 L4.99259,12.7069 L4.62857,13.0709 L4.26455,12.7069 L2.20741,10.6497 C2.00637,10.4487 2.00637,10.1227 2.20741,9.9217 C2.40845,9.72065 2.73441,9.72065 2.93545,9.9217 "/>
        </g>
    </g>
</svg>
