<?xml version='1.0' encoding='UTF-8' standalone='no'?>
<svg width="5.29167mm" viewBox="0 0 35 35" baseProfile="tiny" xmlns="http://www.w3.org/2000/svg" xmlns:xlink="http://www.w3.org/1999/xlink" version="1.2" height="5.29167mm">
    <style id="current-color-scheme" type="text/css">.ColorScheme-Text {color:#232629;}</style>
    <title>Qt SVG Document</title>
    <desc>Auto-generated by Klassy window decoration</desc>
    <defs/>
    <g stroke-linecap="square" fill-rule="evenodd" stroke-linejoin="bevel" stroke-width="1" fill="none" stroke="black">
        <g class="ColorScheme-Text" font-weight="400" font-family="Noto Sans" font-size="23.3333" transform="matrix(1.94444,0,0,1.94444,0,0)" fill-opacity="1" fill="currentColor" font-style="normal" stroke="none">
            <path fill-rule="nonzero" vector-effect="none" d="M4.11429,3.6 L13.8857,3.6 C14.3118,3.6 14.6571,3.94538 14.6571,4.37143 C14.6571,4.79748 14.3118,5.14286 13.8857,5.14286 L4.11429,5.14286 C3.68824,5.14286 3.34286,4.79748 3.34286,4.37143 C3.34286,3.94538 3.68824,3.6 4.11429,3.6 "/>
            <path fill-rule="nonzero" vector-effect="none" d="M4.54548,7.45452 L9.54548,12.4545 L9,13 L8.45452,12.4545 L13.4545,7.45452 C13.7558,7.15326 14.2442,7.15326 14.5455,7.45452 C14.8467,7.75578 14.8467,8.24422 14.5455,8.54548 L9.54548,13.5455 L9,14.091 L8.45452,13.5455 L3.45452,8.54548 C3.15326,8.24422 3.15326,7.75578 3.45452,7.45452 C3.75578,7.15326 4.24422,7.15326 4.54548,7.45452 "/>
        </g>
    </g>
</svg>
