<?xml version='1.0' encoding='UTF-8' standalone='no'?>
<svg width="5.29167mm" viewBox="0 0 35 35" baseProfile="tiny" xmlns="http://www.w3.org/2000/svg" xmlns:xlink="http://www.w3.org/1999/xlink" version="1.2" height="5.29167mm">
    <style id="current-color-scheme" type="text/css">.ColorScheme-Text {color:#232629;}</style>
    <title>Qt SVG Document</title>
    <desc>Auto-generated by Klassy window decoration</desc>
    <defs/>
    <g stroke-linecap="square" fill-rule="evenodd" stroke-linejoin="bevel" stroke-width="1" fill="none" stroke="black">
        <g class="ColorScheme-Text" font-weight="400" font-family="Noto Sans" font-size="23.3333" transform="matrix(1.94444,0,0,1.94444,7.5,14.5)" fill-opacity="1" fill="currentColor" font-style="normal" stroke="none">
            <path fill-rule="nonzero" vector-effect="none" d="M0,-0.771429 L7.2,-0.771429 L7.97143,0 L7.97143,7.2 L7.2,7.97143 L0,7.97143 L-0.771429,7.2 L-0.771429,0 L0,-0.771429 M0.771429,0 L0.771429,7.2 L0,7.2 L0,6.42857 L7.2,6.42857 L7.2,7.2 L6.42857,7.2 L6.42857,0 L7.2,0 L7.2,0.771429 L0,0.771429 L0,0 L0.771429,0"/>
        </g>
        <g class="ColorScheme-Text" font-weight="400" font-family="Noto Sans" font-size="23.3333" transform="matrix(1.94444,0,0,1.94444,7.5,14.5)" fill-opacity="1" fill="currentColor" font-style="normal" stroke="none">
            <path fill-rule="nonzero" vector-effect="none" d="M2.31429,-0.771429 L2.31429,-3.08571 L3.08571,-3.85714 L10.2857,-3.85714 L11.0571,-3.08571 L11.0571,4.11429 L10.2857,4.88571 L7.97143,4.88571 L7.97143,3.34286 L10.2857,3.34286 L10.2857,4.11429 L9.51429,4.11429 L9.51429,-3.08571 L10.2857,-3.08571 L10.2857,-2.31429 L3.08571,-2.31429 L3.08571,-3.08571 L3.85714,-3.08571 L3.85714,-0.771429 L2.31429,-0.771429"/>
        </g>
    </g>
</svg>
