<?xml version='1.0' encoding='UTF-8' standalone='no'?>
<svg width="5.29167mm" viewBox="0 0 35 35" baseProfile="tiny" xmlns="http://www.w3.org/2000/svg" xmlns:xlink="http://www.w3.org/1999/xlink" version="1.2" height="5.29167mm">
    <style id="current-color-scheme" type="text/css">.ColorScheme-Text {color:#232629;}</style>
    <title>Qt SVG Document</title>
    <desc>Auto-generated by Klassy window decoration</desc>
    <defs/>
    <g stroke-linecap="square" fill-rule="evenodd" stroke-linejoin="bevel" stroke-width="1" fill="none" stroke="black">
        <g class="ColorScheme-Text" font-weight="400" font-family="Noto Sans" font-size="23.3333" transform="matrix(1.94444,0,0,1.94444,15,15)" fill-opacity="0.650004" fill="currentColor" font-style="normal" stroke="none">
            <rect width="3.08571" y="0" x="0" height="3.08571"/>
        </g>
        <g class="ColorScheme-Text" font-weight="400" font-family="Noto Sans" font-size="23.3333" transform="matrix(1.94444,0,0,1.94444,15,15)" fill-opacity="0.850004" fill="currentColor" font-style="normal" stroke="none">
            <path fill-rule="nonzero" vector-effect="none" d="M0,-0.514286 L3.08571,-0.514286 L3.6,0 L3.6,3.08571 L3.08571,3.6 L0,3.6 L-0.514286,3.08571 L-0.514286,0 L0,-0.514286 M0.514286,0 L0.514286,3.08571 L0,3.08571 L0,2.57143 L3.08571,2.57143 L3.08571,3.08571 L2.57143,3.08571 L2.57143,0 L3.08571,0 L3.08571,0.514286 L0,0.514286 L0,0 L0.514286,0"/>
        </g>
    </g>
</svg>
