<?xml version='1.0' encoding='UTF-8' standalone='no'?>
<svg width="6.35mm" viewBox="0 0 36 36" baseProfile="tiny" xmlns="http://www.w3.org/2000/svg" xmlns:xlink="http://www.w3.org/1999/xlink" version="1.2" height="6.35mm">
    <style id="current-color-scheme" type="text/css">.ColorScheme-Text {color:#232629;}</style>
    <title>Qt SVG Document</title>
    <desc>Auto-generated by Klassy window decoration</desc>
    <defs/>
    <g stroke-linecap="square" fill-rule="evenodd" stroke-linejoin="bevel" stroke-width="1" fill="none" stroke="black">
        <g class="ColorScheme-Text" font-weight="400" font-family="Noto Sans" font-size="20" transform="matrix(2,0,0,2,0,0)" fill-opacity="1" fill="currentColor" font-style="normal" stroke="none">
            <path fill-rule="nonzero" vector-effect="none" d="M4,4 L14,4 C14.4142,4 14.75,4.33579 14.75,4.75 C14.75,5.16421 14.4142,5.5 14,5.5 L4,5.5 C3.58579,5.5 3.25,5.16421 3.25,4.75 C3.25,4.33579 3.58579,4 4,4 "/>
            <path fill-rule="nonzero" vector-effect="none" d="M4.53033,7.46967 L9.53033,12.4697 L9,13 L8.46967,12.4697 L13.4697,7.46967 C13.7626,7.17678 14.2374,7.17678 14.5303,7.46967 C14.8232,7.76256 14.8232,8.23744 14.5303,8.53033 L9.53033,13.5303 L9,14.0607 L8.46967,13.5303 L3.46967,8.53033 C3.17678,8.23744 3.17678,7.76256 3.46967,7.46967 C3.76256,7.17678 4.23744,7.17678 4.53033,7.46967 "/>
        </g>
    </g>
</svg>
