<?xml version='1.0' encoding='UTF-8' standalone='no'?>
<svg baseProfile="tiny" height="6.35mm" version="1.2" viewBox="0 0 36 36" width="6.35mm" xmlns="http://www.w3.org/2000/svg" xmlns:xlink="http://www.w3.org/1999/xlink">
    <style id="current-color-scheme" type="text/css">.ColorScheme-Text {color:#232629;}</style>
    <title>Qt SVG Document</title>
    <desc>Auto-generated by Klassy window decoration</desc>
    <defs/>
    <g fill="none" fill-rule="evenodd" stroke="black" stroke-linecap="square" stroke-linejoin="bevel" stroke-width="1">
        <g class="ColorScheme-Text" fill="currentColor" fill-opacity="1" font-family="Noto Sans" font-size="20" font-style="normal" font-weight="400" stroke="none" transform="matrix(2,0,0,2,0,0)">
            <path d="M4,3.99925 L14,3.99925 C14.4146,3.99925 14.7508,4.33537 14.7508,4.75 C14.7508,5.16463 14.4146,5.50075 14,5.50075 L4,5.50075 C3.58537,5.50075 3.24925,5.16463 3.24925,4.75 C3.24925,4.33537 3.58537,3.99925 4,3.99925 " fill-rule="nonzero" vector-effect="none"/>
            <path d="M4.53086,7.46914 L9.53086,12.4691 L9,13 L8.46914,12.4691 L13.4691,7.46914 C13.7623,7.17595 14.2377,7.17595 14.5309,7.46914 C14.824,7.76233 14.824,8.23767 14.5309,8.53086 L9.53086,13.5309 L9,14.0617 L8.46914,13.5309 L3.46914,8.53086 C3.17595,8.23767 3.17595,7.76233 3.46914,7.46914 C3.76233,7.17595 4.23767,7.17595 4.53086,7.46914 " fill-rule="nonzero" vector-effect="none"/>
        </g>
    </g>
</svg>
