<?xml version='1.0' encoding='UTF-8' standalone='no'?>
<svg baseProfile="tiny" height="5.29167mm" version="1.2" viewBox="0 0 25 25" width="5.29167mm" xmlns="http://www.w3.org/2000/svg" xmlns:xlink="http://www.w3.org/1999/xlink">
    <style id="current-color-scheme" type="text/css">.ColorScheme-Text {color:#232629;}</style>
    <title>Qt SVG Document</title>
    <desc>Auto-generated by Klassy window decoration</desc>
    <defs/>
    <g fill="none" fill-rule="evenodd" stroke="black" stroke-linecap="square" stroke-linejoin="bevel" stroke-width="1">
        <g class="ColorScheme-Text" fill="currentColor" fill-opacity="0.949996" font-family="Noto Sans" font-size="16.6667" font-style="normal" font-weight="400" stroke="none" transform="matrix(1.38889,0,0,1.38889,0,0)">
            <path d="M3.59928,4.32126 C3.59928,4.02203 4.02203,3.59928 4.32126,3.59928 L14.3987,3.59928 C14.698,3.59928 15.1207,4.02203 15.1207,4.32126 L15.1207,14.3987 C15.1207,14.698 14.698,15.1207 14.3987,15.1207 L4.32126,15.1207 C4.02203,15.1207 3.59928,14.698 3.59928,14.3987 L3.59928,4.32126 M5.04072,4.32126 L5.04072,14.3987 C5.04072,14.1009 4.6191,13.6793 4.32126,13.6793 L14.3987,13.6793 C14.1009,13.6793 13.6793,14.1009 13.6793,14.3987 L13.6793,4.32126 C13.6793,4.6191 14.1009,5.04072 14.3987,5.04072 L4.32126,5.04072 C4.6191,5.04072 5.04072,4.6191 5.04072,4.32126 " fill-rule="nonzero" vector-effect="none"/>
        </g>
    </g>
</svg>
