<?xml version='1.0' encoding='UTF-8' standalone='no'?>
<svg baseProfile="tiny" height="5.29167mm" version="1.2" viewBox="0 0 25 25" width="5.29167mm" xmlns="http://www.w3.org/2000/svg" xmlns:xlink="http://www.w3.org/1999/xlink">
    <style id="current-color-scheme" type="text/css">.ColorScheme-Text {color:#232629;}</style>
    <title>Qt SVG Document</title>
    <desc>Auto-generated by Klassy window decoration</desc>
    <defs/>
    <g fill="none" fill-rule="evenodd" stroke="black" stroke-linecap="square" stroke-linejoin="bevel" stroke-width="1">
        <g class="ColorScheme-Text" fill="currentColor" fill-opacity="1" font-family="Noto Sans" font-size="16.6667" font-style="normal" font-weight="400" stroke="none" transform="matrix(1.38889,0,0,1.38889,0,0)">
            <path d="M4.32,12.2393 L8.64,12.2393 C9.03804,12.2393 9.36072,12.562 9.36072,12.96 C9.36072,13.358 9.03804,13.6807 8.64,13.6807 L4.32,13.6807 C3.92196,13.6807 3.59928,13.358 3.59928,12.96 C3.59928,12.562 3.92196,12.2393 4.32,12.2393 " fill-rule="nonzero" vector-effect="none"/>
            <path d="M4.32,7.91928 L8.64,7.91928 C9.03804,7.91928 9.36072,8.24196 9.36072,8.64 C9.36072,9.03804 9.03804,9.36072 8.64,9.36072 L4.32,9.36072 C3.92196,9.36072 3.59928,9.03804 3.59928,8.64 C3.59928,8.24196 3.92196,7.91928 4.32,7.91928 " fill-rule="nonzero" vector-effect="none"/>
            <path d="M4.32,3.59928 L13.68,3.59928 C14.078,3.59928 14.4007,3.92196 14.4007,4.32 C14.4007,4.71804 14.078,5.04072 13.68,5.04072 L4.32,5.04072 C3.92196,5.04072 3.59928,4.71804 3.59928,4.32 C3.59928,3.92196 3.92196,3.59928 4.32,3.59928 " fill-rule="nonzero" vector-effect="none"/>
            <path d="M14.4007,6.48 L14.4007,14.4 C14.4007,14.798 14.078,15.1207 13.68,15.1207 C13.282,15.1207 12.9593,14.798 12.9593,14.4 L12.9593,6.48 C12.9593,6.08196 13.282,5.75928 13.68,5.75928 C14.078,5.75928 14.4007,6.08196 14.4007,6.48 " fill-rule="nonzero" vector-effect="none"/>
            <path d="M11.0104,8.13037 L13.1704,5.97037 L13.68,5.46075 L14.1896,5.97037 L16.3496,8.13037 C16.6311,8.41183 16.6311,8.86817 16.3496,9.14963 C16.0682,9.43108 15.6118,9.43108 15.3304,9.14963 L13.1704,6.98963 L13.68,6.48 L14.1896,6.98963 L12.0296,9.14963 C11.7482,9.43108 11.2918,9.43108 11.0104,9.14963 C10.7289,8.86817 10.7289,8.41183 11.0104,8.13037 " fill-rule="nonzero" vector-effect="none"/>
        </g>
    </g>
</svg>
