<?xml version='1.0' encoding='UTF-8' standalone='no'?>
<svg version="1.2" xmlns:xlink="http://www.w3.org/1999/xlink" viewBox="0 0 25 25" xmlns="http://www.w3.org/2000/svg" width="5.29167mm" height="5.29167mm" baseProfile="tiny">
    <style id="current-color-scheme" type="text/css">.ColorScheme-Text {color:#232629;}</style>
    <title>Qt SVG Document</title>
    <desc>Auto-generated by Klassy window decoration</desc>
    <defs/>
    <g stroke-linejoin="bevel" stroke-linecap="square" fill="none" stroke-width="1" stroke="black" fill-rule="evenodd">
        <g font-weight="400" class="ColorScheme-Text" font-size="16.6667" fill="currentColor" transform="matrix(1.38889,0,0,1.38889,0,0)" font-style="normal" stroke="none" font-family="Noto Sans" fill-opacity="1">
            <path vector-effect="none" fill-rule="nonzero" d="M4.32,13.6793 L13.68,13.6793 C14.078,13.6793 14.4007,14.002 14.4007,14.4 C14.4007,14.798 14.078,15.1207 13.68,15.1207 L4.32,15.1207 C3.92196,15.1207 3.59928,14.798 3.59928,14.4 C3.59928,14.002 3.92196,13.6793 4.32,13.6793 "/>
            <path vector-effect="none" fill-rule="nonzero" d="M9.36,9.35928 L13.68,9.35928 C14.078,9.35928 14.4007,9.68196 14.4007,10.08 C14.4007,10.478 14.078,10.8007 13.68,10.8007 L9.36,10.8007 C8.96196,10.8007 8.63928,10.478 8.63928,10.08 C8.63928,9.68196 8.96196,9.35928 9.36,9.35928 "/>
            <path vector-effect="none" fill-rule="nonzero" d="M9.36,5.03928 L13.68,5.03928 C14.078,5.03928 14.4007,5.36196 14.4007,5.76 C14.4007,6.15804 14.078,6.48072 13.68,6.48072 L9.36,6.48072 C8.96196,6.48072 8.63928,6.15804 8.63928,5.76 C8.63928,5.36196 8.96196,5.03928 9.36,5.03928 "/>
            <path vector-effect="none" fill-rule="nonzero" d="M5.04072,4.32 L5.04072,12.24 C5.04072,12.638 4.71804,12.9607 4.32,12.9607 C3.92196,12.9607 3.59928,12.638 3.59928,12.24 L3.59928,4.32 C3.59928,3.92196 3.92196,3.59928 4.32,3.59928 C4.71804,3.59928 5.04072,3.92196 5.04072,4.32 "/>
            <path vector-effect="none" fill-rule="nonzero" d="M2.55978,10.2003 L4.71978,11.6403 L4.32,12.24 L3.92022,11.6403 L6.08022,10.2003 C6.41141,9.97953 6.85888,10.069 7.07968,10.4002 C7.30047,10.7314 7.21098,11.1789 6.87978,11.3997 L4.71978,12.8397 L4.32,13.1062 L3.92022,12.8397 L1.76022,11.3997 C1.42902,11.1789 1.33953,10.7314 1.56032,10.4002 C1.78112,10.069 2.22859,9.97953 2.55978,10.2003 "/>
        </g>
    </g>
</svg>
