<?xml version='1.0' encoding='UTF-8' standalone='no'?>
<svg baseProfile="tiny" height="5.29167mm" version="1.2" viewBox="0 0 25 25" width="5.29167mm" xmlns="http://www.w3.org/2000/svg" xmlns:xlink="http://www.w3.org/1999/xlink">
    <style id="current-color-scheme" type="text/css">.ColorScheme-Text {color:#232629;}</style>
    <title>Qt SVG Document</title>
    <desc>Auto-generated by Klassy window decoration</desc>
    <defs/>
    <g fill="none" fill-rule="evenodd" stroke="black" stroke-linecap="square" stroke-linejoin="bevel" stroke-width="1">
        <g class="ColorScheme-Text" fill="currentColor" fill-opacity="1" font-family="Noto Sans" font-size="16.6667" font-style="normal" font-weight="400" stroke="none" transform="matrix(1.38889,0,0,1.38889,0,0)">
            <path d="M4.82963,3.81037 L14.9096,13.8904 C15.1911,14.1718 15.1911,14.6282 14.9096,14.9096 C14.6282,15.1911 14.1718,15.1911 13.8904,14.9096 L3.81037,4.82963 C3.52892,4.54817 3.52892,4.09183 3.81037,3.81037 C4.09183,3.52892 4.54817,3.52892 4.82963,3.81037 " fill-rule="nonzero" vector-effect="none"/>
            <path d="M14.9096,4.82963 L4.82963,14.9096 C4.54817,15.1911 4.09183,15.1911 3.81037,14.9096 C3.52892,14.6282 3.52892,14.1718 3.81037,13.8904 L13.8904,3.81037 C14.1718,3.52892 14.6282,3.52892 14.9096,3.81037 C15.1911,4.09183 15.1911,4.54817 14.9096,4.82963 " fill-rule="nonzero" vector-effect="none"/>
        </g>
    </g>
</svg>
