<?xml version='1.0' encoding='UTF-8' standalone='no'?>
<svg baseProfile="tiny" height="5.29167mm" version="1.2" viewBox="0 0 25 25" width="5.29167mm" xmlns="http://www.w3.org/2000/svg" xmlns:xlink="http://www.w3.org/1999/xlink">
    <style id="current-color-scheme" type="text/css">.ColorScheme-Text {color:#232629;}</style>
    <title>Qt SVG Document</title>
    <desc>Auto-generated by Klassy window decoration</desc>
    <defs/>
    <g fill="none" fill-rule="evenodd" stroke="black" stroke-linecap="square" stroke-linejoin="bevel" stroke-width="1">
        <g class="ColorScheme-Text" fill="currentColor" fill-opacity="0.450004" font-family="Noto Sans" font-size="16.6667" font-style="normal" font-weight="400" stroke="none" transform="matrix(1.38889,0,0,1.38889,10.5,11.5)">
            <rect height="2.88" width="2.88" x="0" y="0"/>
        </g>
        <g class="ColorScheme-Text" fill="currentColor" fill-opacity="0.902495" font-family="Noto Sans" font-size="16.6667" font-style="normal" font-weight="400" stroke="none" transform="matrix(1.38889,0,0,1.38889,10.5,11.5)">
            <path d="M0,-0.72072 L2.88,-0.72072 L3.60072,0 L3.60072,2.88 L2.88,3.60072 L0,3.60072 L-0.72072,2.88 L-0.72072,0 L0,-0.72072 M0.72072,0 L0.72072,2.88 L0,2.88 L0,2.15928 L2.88,2.15928 L2.88,2.88 L2.15928,2.88 L2.15928,0 L2.88,0 L2.88,0.72072 L0,0.72072 L0,0 L0.72072,0" fill-rule="nonzero" vector-effect="none"/>
        </g>
    </g>
</svg>
