<?xml version='1.0' encoding='UTF-8' standalone='no'?>
<svg width="5.29167mm" viewBox="0 0 25 25" baseProfile="tiny" xmlns="http://www.w3.org/2000/svg" xmlns:xlink="http://www.w3.org/1999/xlink" version="1.2" height="5.29167mm">
    <style id="current-color-scheme" type="text/css">.ColorScheme-Text {color:#232629;}</style>
    <title>Qt SVG Document</title>
    <desc>Auto-generated by Klassy window decoration</desc>
    <defs/>
    <g stroke-linecap="square" fill-rule="evenodd" stroke-linejoin="bevel" stroke-width="1" fill="none" stroke="black">
        <g class="ColorScheme-Text" font-weight="400" font-family="Noto Sans" font-size="16.6667" transform="matrix(1.38889,0,0,1.38889,0,0)" fill-opacity="1" fill="currentColor" font-style="normal" stroke="none">
            <path fill-rule="nonzero" vector-effect="none" d="M3.6,4.32126 C3.6,4.02233 4.02233,3.6 4.32126,3.6 L14.3987,3.6 C14.6977,3.6 15.12,4.02233 15.12,4.32126 L15.12,14.3987 C15.12,14.6977 14.6977,15.12 14.3987,15.12 L4.32126,15.12 C4.02233,15.12 3.6,14.6977 3.6,14.3987 L3.6,4.32126 M5.04,4.32126 L5.04,14.3987 C5.04,14.1012 4.6188,13.68 4.32126,13.68 L14.3987,13.68 C14.1012,13.68 13.68,14.1012 13.68,14.3987 L13.68,4.32126 C13.68,4.6188 14.1012,5.04 14.3987,5.04 L4.32126,5.04 C4.6188,5.04 5.04,4.6188 5.04,4.32126 "/>
        </g>
    </g>
</svg>
