<?xml version='1.0' encoding='UTF-8' standalone='no'?>
<svg width="5.29167mm" viewBox="0 0 25 25" baseProfile="tiny" xmlns="http://www.w3.org/2000/svg" xmlns:xlink="http://www.w3.org/1999/xlink" version="1.2" height="5.29167mm">
    <style id="current-color-scheme" type="text/css">.ColorScheme-Text {color:#232629;}</style>
    <title>Qt SVG Document</title>
    <desc>Auto-generated by Klassy window decoration</desc>
    <defs/>
    <g stroke-linecap="square" fill-rule="evenodd" stroke-linejoin="bevel" stroke-width="1" fill="none" stroke="black">
        <g class="ColorScheme-Text" font-weight="400" font-family="Noto Sans" font-size="16.6667" transform="matrix(1.38889,0,0,1.38889,10.5,10.5)" fill-opacity="0.650004" fill="currentColor" font-style="normal" stroke="none">
            <rect width="3.6" y="0" x="0" height="3.6"/>
        </g>
        <g class="ColorScheme-Text" font-weight="400" font-family="Noto Sans" font-size="16.6667" transform="matrix(1.38889,0,0,1.38889,10.5,10.5)" fill-opacity="0.850004" fill="currentColor" font-style="normal" stroke="none">
            <path fill-rule="nonzero" vector-effect="none" d="M0,-0.36 L3.6,-0.36 L3.96,0 L3.96,3.6 L3.6,3.96 L0,3.96 L-0.36,3.6 L-0.36,0 L0,-0.36 M0.36,0 L0.36,3.6 L0,3.6 L0,3.24 L3.6,3.24 L3.6,3.6 L3.24,3.6 L3.24,0 L3.6,0 L3.6,0.36 L0,0.36 L0,0 L0.36,0"/>
        </g>
    </g>
</svg>
