<?xml version='1.0' encoding='UTF-8' standalone='no'?>
<svg width="5.86894mm" viewBox="0 0 61 61" baseProfile="tiny" xmlns="http://www.w3.org/2000/svg" xmlns:xlink="http://www.w3.org/1999/xlink" version="1.2" height="5.86894mm">
    <style id="current-color-scheme" type="text/css">.ColorScheme-Text {color:#232629;}</style>
    <title>Qt SVG Document</title>
    <desc>Auto-generated by Klassy window decoration</desc>
    <defs/>
    <g stroke-linecap="square" fill-rule="evenodd" stroke-linejoin="bevel" stroke-width="1" fill="none" stroke="black">
        <g class="ColorScheme-Text" font-weight="400" font-family="Noto Sans" font-size="36.6667" transform="matrix(3.8125,0,0,3.8125,0,0)" fill-opacity="0.600015" fill="#da0016" font-style="normal" stroke="none">
            <path fill-rule="evenodd" vector-effect="none" d="M2,3.2 C2,2.53726 2.53726,2 3.2,2 L12.8,2 C13.4627,2 14,2.53726 14,3.2 L14,12.8 C14,13.4627 13.4627,14 12.8,14 L3.2,14 C2.53726,14 2,13.4627 2,12.8 L2,3.2"/>
        </g>
        <g class="ColorScheme-Text" font-weight="400" font-family="Noto Sans" font-size="36.6667" transform="matrix(3.38889,0,0,3.38889,0,0)" fill-opacity="1" fill="#ffffff" font-style="normal" stroke="none">
            <path fill-rule="nonzero" vector-effect="none" d="M5.14002,4.00752 L14.2876,13.1551 C14.6003,13.4678 14.6003,13.9748 14.2876,14.2876 C13.9748,14.6003 13.4678,14.6003 13.1551,14.2876 L4.00752,5.14002 C3.69479,4.82729 3.69479,4.32025 4.00752,4.00752 C4.32025,3.69479 4.82729,3.69479 5.14002,4.00752 "/>
            <path fill-rule="nonzero" vector-effect="none" d="M14.2876,5.14002 L5.14002,14.2876 C4.82729,14.6003 4.32025,14.6003 4.00752,14.2876 C3.69479,13.9748 3.69479,13.4678 4.00752,13.1551 L13.1551,4.00752 C13.4678,3.69479 13.9748,3.69479 14.2876,4.00752 C14.6003,4.32025 14.6003,4.82729 14.2876,5.14002 "/>
        </g>
    </g>
</svg>
