<?xml version='1.0' encoding='UTF-8' standalone='no'?>
<svg baseProfile="tiny" height="5.86894mm" version="1.2" viewBox="0 0 61 61" width="5.86894mm" xmlns="http://www.w3.org/2000/svg" xmlns:xlink="http://www.w3.org/1999/xlink">
    <style id="current-color-scheme" type="text/css">.ColorScheme-Text {color:#232629;}</style>
    <title>Qt SVG Document</title>
    <desc>Auto-generated by Klassy window decoration</desc>
    <defs/>
    <g fill="none" fill-rule="evenodd" stroke="black" stroke-linecap="square" stroke-linejoin="bevel" stroke-width="1">
        <g class="ColorScheme-Text" fill="currentColor" fill-opacity="0.949996" font-family="Noto Sans" font-size="36.6667" font-style="normal" font-weight="400" stroke="none" transform="matrix(3.38889,0,0,3.38889,0,0)">
            <path d="M3.83533,4.57491 C3.83533,4.26841 4.26841,3.83533 4.57491,3.83533 L13.7202,3.83533 C14.0267,3.83533 14.4598,4.26841 14.4598,4.57491 L14.4598,13.7202 C14.4598,14.0267 14.0267,14.4598 13.7202,14.4598 L4.57491,14.4598 C4.26841,14.4598 3.83533,14.0267 3.83533,13.7202 L3.83533,4.57491 M5.31221,4.57491 L5.31221,13.7202 C5.31221,13.4149 4.88016,12.9829 4.57491,12.9829 L13.7202,12.9829 C13.4149,12.9829 12.9829,13.4149 12.9829,13.7202 L12.9829,4.57491 C12.9829,4.88016 13.4149,5.31221 13.7202,5.31221 L4.57491,5.31221 C4.88016,5.31221 5.31221,4.88016 5.31221,4.57491 " fill-rule="nonzero" vector-effect="none"/>
        </g>
    </g>
</svg>
