<?xml version='1.0' encoding='UTF-8' standalone='no'?>
<svg baseProfile="tiny" height="5.86894mm" version="1.2" viewBox="0 0 61 61" width="5.86894mm" xmlns="http://www.w3.org/2000/svg" xmlns:xlink="http://www.w3.org/1999/xlink">
    <style id="current-color-scheme" type="text/css">.ColorScheme-Text {color:#232629;}</style>
    <title>Qt SVG Document</title>
    <desc>Auto-generated by Klassy window decoration</desc>
    <defs/>
    <g fill="none" fill-rule="evenodd" stroke="black" stroke-linecap="square" stroke-linejoin="bevel" stroke-width="1">
        <g class="ColorScheme-Text" fill="currentColor" fill-opacity="0.549996" font-family="Noto Sans" font-size="36.6667" font-style="normal" font-weight="400" stroke="none" transform="matrix(3.38889,0,0,3.38889,25.5,25.5)">
            <rect height="3.2459" width="3.2459" x="0" y="0"/>
        </g>
        <g class="ColorScheme-Text" fill="currentColor" fill-opacity="0.902495" font-family="Noto Sans" font-size="36.6667" font-style="normal" font-weight="400" stroke="none" transform="matrix(3.38889,0,0,3.38889,25.5,25.5)">
            <path d="M0,-0.443066 L3.2459,-0.443066 L3.68897,0 L3.68897,3.2459 L3.2459,3.68897 L0,3.68897 L-0.443066,3.2459 L-0.443066,0 L0,-0.443066 M0.443066,0 L0.443066,3.2459 L0,3.2459 L0,2.80284 L3.2459,2.80284 L3.2459,3.2459 L2.80284,3.2459 L2.80284,0 L3.2459,0 L3.2459,0.443066 L0,0.443066 L0,0 L0.443066,0" fill-rule="nonzero" vector-effect="none"/>
        </g>
    </g>
</svg>
