<?xml version='1.0' encoding='UTF-8' standalone='no'?>
<svg width="5.86894mm" viewBox="0 0 61 61" baseProfile="tiny" xmlns="http://www.w3.org/2000/svg" xmlns:xlink="http://www.w3.org/1999/xlink" version="1.2" height="5.86894mm">
    <style id="current-color-scheme" type="text/css">.ColorScheme-Text {color:#232629;}</style>
    <title>Qt SVG Document</title>
    <desc>Auto-generated by Klassy window decoration</desc>
    <defs/>
    <g stroke-linecap="square" fill-rule="evenodd" stroke-linejoin="bevel" stroke-width="1" fill="none" stroke="black">
        <g class="ColorScheme-Text" font-weight="400" font-family="Noto Sans" font-size="36.6667" transform="matrix(3.38889,0,0,3.38889,0,0)" fill-opacity="1" fill="currentColor" font-style="normal" stroke="none">
            <path fill-rule="nonzero" vector-effect="none" d="M4.13115,3.83607 L13.8689,3.83607 C14.1948,3.83607 14.459,4.10029 14.459,4.42623 C14.459,4.75217 14.1948,5.01639 13.8689,5.01639 L4.13115,5.01639 C3.80521,5.01639 3.54098,4.75217 3.54098,4.42623 C3.54098,4.10029 3.80521,3.83607 4.13115,3.83607 "/>
            <path fill-rule="nonzero" vector-effect="none" d="M4.41731,7.58269 L9.41731,12.5827 L9,13 L8.58269,12.5827 L13.5827,7.58269 C13.8132,7.35222 14.1868,7.35222 14.4173,7.58269 C14.6478,7.81316 14.6478,8.18684 14.4173,8.41731 L9.41731,13.4173 L9,13.8346 L8.58269,13.4173 L3.58269,8.41731 C3.35222,8.18684 3.35222,7.81316 3.58269,7.58269 C3.81316,7.35222 4.18684,7.35222 4.41731,7.58269 "/>
        </g>
    </g>
</svg>
