<?xml version='1.0' encoding='UTF-8' standalone='no'?>
<svg baseProfile="tiny" height="5.86894mm" version="1.2" viewBox="0 0 61 61" width="5.86894mm" xmlns="http://www.w3.org/2000/svg" xmlns:xlink="http://www.w3.org/1999/xlink">
    <style id="current-color-scheme" type="text/css">.ColorScheme-Text {color:#232629;}</style>
    <title>Qt SVG Document</title>
    <desc>Auto-generated by Klassy window decoration</desc>
    <defs/>
    <g fill="none" fill-rule="evenodd" stroke="black" stroke-linecap="square" stroke-linejoin="bevel" stroke-width="1">
        <g class="ColorScheme-Text" fill="currentColor" fill-opacity="1" font-family="Noto Sans" font-size="36.6667" font-style="normal" font-weight="400" stroke="none" transform="matrix(3.38889,0,0,3.38889,0,0)">
            <path d="M4.13115,3.83548 L13.8689,3.83548 C14.1951,3.83548 14.4596,4.09997 14.4596,4.42623 C14.4596,4.75249 14.1951,5.01698 13.8689,5.01698 L4.13115,5.01698 C3.80488,5.01698 3.54039,4.75249 3.54039,4.42623 C3.54039,4.09997 3.80488,3.83548 4.13115,3.83548 " fill-rule="nonzero" vector-effect="none"/>
            <path d="M3.58227,12.5823 L8.58227,7.58227 L9,7.16455 L9.41773,7.58227 L14.4177,12.5823 C14.6484,12.813 14.6484,13.187 14.4177,13.4177 C14.187,13.6484 13.813,13.6484 13.5823,13.4177 L8.58227,8.41773 L9,8 L9.41773,8.41773 L4.41773,13.4177 C4.18702,13.6484 3.81298,13.6484 3.58227,13.4177 C3.35157,13.187 3.35157,12.813 3.58227,12.5823 " fill-rule="nonzero" vector-effect="none"/>
        </g>
    </g>
</svg>
