<?xml version='1.0' encoding='UTF-8' standalone='no'?>
<svg version="1.2" xmlns:xlink="http://www.w3.org/1999/xlink" viewBox="0 0 61 61" xmlns="http://www.w3.org/2000/svg" width="5.86894mm" height="5.86894mm" baseProfile="tiny">
    <style id="current-color-scheme" type="text/css">.ColorScheme-Text {color:#232629;}</style>
    <title>Qt SVG Document</title>
    <desc>Auto-generated by Klassy window decoration</desc>
    <defs/>
    <g stroke-linejoin="bevel" stroke-linecap="square" fill="none" stroke-width="1" stroke="black" fill-rule="evenodd">
        <g font-weight="400" class="ColorScheme-Text" font-size="36.6667" fill="currentColor" transform="matrix(3.38889,0,0,3.38889,0,0)" font-style="normal" stroke="none" font-family="Noto Sans" fill-opacity="1">
            <path vector-effect="none" fill-rule="nonzero" d="M4.42623,12.0978 L8.55738,12.0978 C8.88364,12.0978 9.14813,12.3623 9.14813,12.6885 C9.14813,13.0148 8.88364,13.2793 8.55738,13.2793 L4.42623,13.2793 C4.09997,13.2793 3.83548,13.0148 3.83548,12.6885 C3.83548,12.3623 4.09997,12.0978 4.42623,12.0978 "/>
            <path vector-effect="none" fill-rule="nonzero" d="M4.42623,7.96662 L8.55738,7.96662 C8.88364,7.96662 9.14813,8.23111 9.14813,8.55738 C9.14813,8.88364 8.88364,9.14813 8.55738,9.14813 L4.42623,9.14813 C4.09997,9.14813 3.83548,8.88364 3.83548,8.55738 C3.83548,8.23111 4.09997,7.96662 4.42623,7.96662 "/>
            <path vector-effect="none" fill-rule="nonzero" d="M4.42623,3.83548 L13.5738,3.83548 C13.9,3.83548 14.1645,4.09997 14.1645,4.42623 C14.1645,4.75249 13.9,5.01698 13.5738,5.01698 L4.42623,5.01698 C4.09997,5.01698 3.83548,4.75249 3.83548,4.42623 C3.83548,4.09997 4.09997,3.83548 4.42623,3.83548 "/>
            <path vector-effect="none" fill-rule="nonzero" d="M14.1645,6.4918 L14.1645,14.459 C14.1645,14.7853 13.9,15.0498 13.5738,15.0498 C13.2475,15.0498 12.983,14.7853 12.983,14.459 L12.983,6.4918 C12.983,6.16554 13.2475,5.90105 13.5738,5.90105 C13.9,5.90105 14.1645,6.16554 14.1645,6.4918 "/>
            <path vector-effect="none" fill-rule="nonzero" d="M11.0905,8.13965 L13.156,6.07408 L13.5738,5.65635 L13.9915,6.07408 L16.0571,8.13965 C16.2878,8.37035 16.2878,8.7444 16.0571,8.9751 C15.8264,9.20581 15.4523,9.20581 15.2216,8.9751 L13.156,6.90953 L13.5738,6.4918 L13.9915,6.90953 L11.9259,8.9751 C11.6952,9.20581 11.3212,9.20581 11.0905,8.9751 C10.8598,8.7444 10.8598,8.37035 11.0905,8.13965 "/>
        </g>
    </g>
</svg>
