<?xml version='1.0' encoding='UTF-8' standalone='no'?>
<svg width="5.86894mm" viewBox="0 0 61 61" baseProfile="tiny" xmlns="http://www.w3.org/2000/svg" xmlns:xlink="http://www.w3.org/1999/xlink" version="1.2" height="5.86894mm">
    <style id="current-color-scheme" type="text/css">.ColorScheme-Text {color:#232629;}</style>
    <title>Qt SVG Document</title>
    <desc>Auto-generated by Klassy window decoration</desc>
    <defs/>
    <g stroke-linecap="square" fill-rule="evenodd" stroke-linejoin="bevel" stroke-width="1" fill="none" stroke="black">
        <g class="ColorScheme-Text" font-weight="400" font-family="Noto Sans" font-size="36.6667" transform="matrix(3.38889,0,0,3.38889,0,0)" fill-opacity="1" fill="currentColor" font-style="normal" stroke="none">
            <path fill-rule="nonzero" vector-effect="none" d="M4.42623,12.0984 L8.55738,12.0984 C8.88332,12.0984 9.14754,12.3626 9.14754,12.6885 C9.14754,13.0145 8.88332,13.2787 8.55738,13.2787 L4.42623,13.2787 C4.10029,13.2787 3.83607,13.0145 3.83607,12.6885 C3.83607,12.3626 4.10029,12.0984 4.42623,12.0984 "/>
            <path fill-rule="nonzero" vector-effect="none" d="M4.42623,7.96721 L8.55738,7.96721 C8.88332,7.96721 9.14754,8.23144 9.14754,8.55738 C9.14754,8.88332 8.88332,9.14754 8.55738,9.14754 L4.42623,9.14754 C4.10029,9.14754 3.83607,8.88332 3.83607,8.55738 C3.83607,8.23144 4.10029,7.96721 4.42623,7.96721 "/>
            <path fill-rule="nonzero" vector-effect="none" d="M4.42623,3.83607 L13.5738,3.83607 C13.8997,3.83607 14.1639,4.10029 14.1639,4.42623 C14.1639,4.75217 13.8997,5.01639 13.5738,5.01639 L4.42623,5.01639 C4.10029,5.01639 3.83607,4.75217 3.83607,4.42623 C3.83607,4.10029 4.10029,3.83607 4.42623,3.83607 "/>
            <path fill-rule="nonzero" vector-effect="none" d="M14.1639,6.4918 L14.1639,14.459 C14.1639,14.785 13.8997,15.0492 13.5738,15.0492 C13.2478,15.0492 12.9836,14.785 12.9836,14.459 L12.9836,6.4918 C12.9836,6.16586 13.2478,5.90164 13.5738,5.90164 C13.8997,5.90164 14.1639,6.16586 14.1639,6.4918 "/>
            <path fill-rule="nonzero" vector-effect="none" d="M11.0909,8.14007 L13.1565,6.07449 L13.5738,5.65719 L13.9911,6.07449 L16.0567,8.14007 C16.2871,8.37054 16.2871,8.74421 16.0567,8.97469 C15.8262,9.20516 15.4525,9.20516 15.222,8.97469 L13.1565,6.90911 L13.5738,6.4918 L13.9911,6.90911 L11.9255,8.97469 C11.695,9.20516 11.3214,9.20516 11.0909,8.97469 C10.8604,8.74421 10.8604,8.37054 11.0909,8.14007 "/>
        </g>
    </g>
</svg>
