<?xml version='1.0' encoding='UTF-8' standalone='no'?>
<svg width="5.86894mm" viewBox="0 0 61 61" baseProfile="tiny" xmlns="http://www.w3.org/2000/svg" xmlns:xlink="http://www.w3.org/1999/xlink" version="1.2" height="5.86894mm">
    <style id="current-color-scheme" type="text/css">.ColorScheme-Text {color:#232629;}</style>
    <title>Qt SVG Document</title>
    <desc>Auto-generated by Klassy window decoration</desc>
    <defs/>
    <g stroke-linecap="square" fill-rule="evenodd" stroke-linejoin="bevel" stroke-width="1" fill="none" stroke="black">
        <g class="ColorScheme-Text" font-weight="400" font-family="Noto Sans" font-size="36.6667" transform="matrix(3.38889,0,0,3.38889,0,0)" fill-opacity="1" fill="currentColor" font-style="normal" stroke="none">
            <path fill-rule="nonzero" vector-effect="none" d="M3.83607,4.57491 C3.83607,4.26872 4.26872,3.83607 4.57491,3.83607 L13.7202,3.83607 C14.0264,3.83607 14.459,4.26872 14.459,4.57491 L14.459,13.7202 C14.459,14.0264 14.0264,14.459 13.7202,14.459 L4.57491,14.459 C4.26872,14.459 3.83607,14.0264 3.83607,13.7202 L3.83607,4.57491 M5.31148,4.57491 L5.31148,13.7202 C5.31148,13.4152 4.87985,12.9836 4.57491,12.9836 L13.7202,12.9836 C13.4152,12.9836 12.9836,13.4152 12.9836,13.7202 L12.9836,4.57491 C12.9836,4.87985 13.4152,5.31148 13.7202,5.31148 L4.57491,5.31148 C4.87985,5.31148 5.31148,4.87985 5.31148,4.57491 "/>
        </g>
    </g>
</svg>
