<?xml version='1.0' encoding='UTF-8' standalone='no'?>
<svg width="4.23333mm" viewBox="0 0 40 40" baseProfile="tiny" xmlns="http://www.w3.org/2000/svg" xmlns:xlink="http://www.w3.org/1999/xlink" version="1.2" height="4.23333mm">
    <style id="current-color-scheme" type="text/css">.ColorScheme-Text {color:#232629;}</style>
    <title>Qt SVG Document</title>
    <desc>Auto-generated by Klassy window decoration</desc>
    <defs/>
    <g stroke-linecap="square" fill-rule="evenodd" stroke-linejoin="bevel" stroke-width="1" fill="none" stroke="black">
        <g class="ColorScheme-Text" font-weight="400" font-family="Noto Sans" font-size="33.3333" transform="matrix(2.22222,0,0,2.22222,9.5,15.5)" fill-opacity="1" fill="currentColor" font-style="normal" stroke="none">
            <path fill-rule="nonzero" vector-effect="none" d="M0,-0.675 L7.2,-0.675 L7.875,0 L7.875,7.2 L7.2,7.875 L0,7.875 L-0.675,7.2 L-0.675,0 L0,-0.675 M0.675,0 L0.675,7.2 L0,7.2 L0,6.525 L7.2,6.525 L7.2,7.2 L6.525,7.2 L6.525,0 L7.2,0 L7.2,0.675 L0,0.675 L0,0 L0.675,0"/>
        </g>
        <g class="ColorScheme-Text" font-weight="400" font-family="Noto Sans" font-size="33.3333" transform="matrix(2.22222,0,0,2.22222,9.5,15.5)" fill-opacity="1" fill="currentColor" font-style="normal" stroke="none">
            <path fill-rule="nonzero" vector-effect="none" d="M2.025,-0.675 L2.025,-2.7 L2.7,-3.375 L9.9,-3.375 L10.575,-2.7 L10.575,4.5 L9.9,5.175 L7.875,5.175 L7.875,3.825 L9.9,3.825 L9.9,4.5 L9.225,4.5 L9.225,-2.7 L9.9,-2.7 L9.9,-2.025 L2.7,-2.025 L2.7,-2.7 L3.375,-2.7 L3.375,-0.675 L2.025,-0.675"/>
        </g>
    </g>
</svg>
