<?xml version='1.0' encoding='UTF-8' standalone='no'?>
<svg width="4.23333mm" viewBox="0 0 40 40" baseProfile="tiny" xmlns="http://www.w3.org/2000/svg" xmlns:xlink="http://www.w3.org/1999/xlink" version="1.2" height="4.23333mm">
    <style id="current-color-scheme" type="text/css">.ColorScheme-Text {color:#232629;}</style>
    <title>Qt SVG Document</title>
    <desc>Auto-generated by Klassy window decoration</desc>
    <defs/>
    <g stroke-linecap="square" fill-rule="evenodd" stroke-linejoin="bevel" stroke-width="1" fill="none" stroke="black">
        <g class="ColorScheme-Text" font-weight="400" font-family="Noto Sans" font-size="33.3333" transform="matrix(2.22222,0,0,2.22222,0,0)" fill-opacity="1" fill="currentColor" font-style="normal" stroke="none">
            <path fill-rule="nonzero" vector-effect="none" d="M3.6,4.27618 C3.6,3.99593 3.99593,3.6 4.27618,3.6 L13.7238,3.6 C14.0041,3.6 14.4,3.99593 14.4,4.27618 L14.4,13.7238 C14.4,14.0041 14.0041,14.4 13.7238,14.4 L4.27618,14.4 C3.99593,14.4 3.6,14.0041 3.6,13.7238 L3.6,4.27618 M4.95,4.27618 L4.95,13.7238 C4.95,13.4449 4.55512,13.05 4.27618,13.05 L13.7238,13.05 C13.4449,13.05 13.05,13.4449 13.05,13.7238 L13.05,4.27618 C13.05,4.55512 13.4449,4.95 13.7238,4.95 L4.27618,4.95 C4.55512,4.95 4.95,4.55512 4.95,4.27618 "/>
        </g>
    </g>
</svg>
