<?xml version='1.0' encoding='UTF-8' standalone='no'?>
<svg baseProfile="tiny" height="4.23333mm" version="1.2" viewBox="0 0 48 48" width="4.23333mm" xmlns="http://www.w3.org/2000/svg" xmlns:xlink="http://www.w3.org/1999/xlink">
    <style id="current-color-scheme" type="text/css">.ColorScheme-Text {color:#232629;}</style>
    <title>Qt SVG Document</title>
    <desc>Auto-generated by Klassy window decoration</desc>
    <defs/>
    <g fill="none" fill-rule="evenodd" stroke="black" stroke-linecap="square" stroke-linejoin="bevel" stroke-width="1">
        <g class="ColorScheme-Text" fill="#da0016" fill-opacity="0.719997" font-family="Noto Sans" font-size="40" font-style="normal" font-weight="400" stroke="none" transform="matrix(3,0,0,3,0,0)">
            <path d="M2,3.2 C2,2.53726 2.53726,2 3.2,2 L12.8,2 C13.4627,2 14,2.53726 14,3.2 L14,12.8 C14,13.4627 13.4627,14 12.8,14 L3.2,14 C2.53726,14 2,13.4627 2,12.8 L2,3.2" fill-rule="evenodd" vector-effect="none"/>
        </g>
        <g class="ColorScheme-Text" fill="#ffffff" fill-opacity="1" font-family="Noto Sans" font-size="40" font-style="normal" font-weight="400" stroke="none" transform="matrix(2.66667,0,0,2.66667,0,0)">
            <path d="M5.03086,3.96914 L14.0309,12.9691 C14.324,13.2623 14.324,13.7377 14.0309,14.0309 C13.7377,14.324 13.2623,14.324 12.9691,14.0309 L3.96914,5.03086 C3.67595,4.73767 3.67595,4.26233 3.96914,3.96914 C4.26233,3.67595 4.73767,3.67595 5.03086,3.96914 " fill-rule="nonzero" vector-effect="none"/>
            <path d="M14.0309,5.03086 L5.03086,14.0309 C4.73767,14.324 4.26233,14.324 3.96914,14.0309 C3.67595,13.7377 3.67595,13.2623 3.96914,12.9691 L12.9691,3.96914 C13.2623,3.67595 13.7377,3.67595 14.0309,3.96914 C14.324,4.26233 14.324,4.73767 14.0309,5.03086 " fill-rule="nonzero" vector-effect="none"/>
        </g>
    </g>
</svg>
