<?xml version='1.0' encoding='UTF-8' standalone='no'?>
<svg width="4.23333mm" viewBox="0 0 48 48" baseProfile="tiny" xmlns="http://www.w3.org/2000/svg" xmlns:xlink="http://www.w3.org/1999/xlink" version="1.2" height="4.23333mm">
    <style id="current-color-scheme" type="text/css">.ColorScheme-Text {color:#232629;}</style>
    <title>Qt SVG Document</title>
    <desc>Auto-generated by Klassy window decoration</desc>
    <defs/>
    <g stroke-linecap="square" fill-rule="evenodd" stroke-linejoin="bevel" stroke-width="1" fill="none" stroke="black">
        <g class="ColorScheme-Text" font-weight="400" font-family="Noto Sans" font-size="40" transform="matrix(2.66667,0,0,2.66667,0,0)" fill-opacity="1" fill="currentColor" font-style="normal" stroke="none">
            <path fill-rule="nonzero" vector-effect="none" d="M4.6875,13.875 L13.6875,13.875 C13.9982,13.875 14.25,14.1268 14.25,14.4375 C14.25,14.7482 13.9982,15 13.6875,15 L4.6875,15 C4.37684,15 4.125,14.7482 4.125,14.4375 C4.125,14.1268 4.37684,13.875 4.6875,13.875 "/>
            <path fill-rule="nonzero" vector-effect="none" d="M9.5625,9.75 L13.6875,9.75 C13.9982,9.75 14.25,10.0018 14.25,10.3125 C14.25,10.6232 13.9982,10.875 13.6875,10.875 L9.5625,10.875 C9.25184,10.875 9,10.6232 9,10.3125 C9,10.0018 9.25184,9.75 9.5625,9.75 "/>
            <path fill-rule="nonzero" vector-effect="none" d="M9.5625,5.625 L13.6875,5.625 C13.9982,5.625 14.25,5.87684 14.25,6.1875 C14.25,6.49816 13.9982,6.75 13.6875,6.75 L9.5625,6.75 C9.25184,6.75 9,6.49816 9,6.1875 C9,5.87684 9.25184,5.625 9.5625,5.625 "/>
            <path fill-rule="nonzero" vector-effect="none" d="M4.875,4.3125 L4.875,12.5625 C4.875,12.8732 4.62316,13.125 4.3125,13.125 C4.00184,13.125 3.75,12.8732 3.75,12.5625 L3.75,4.3125 C3.75,4.00184 4.00184,3.75 4.3125,3.75 C4.62316,3.75 4.875,4.00184 4.875,4.3125 "/>
            <path fill-rule="nonzero" vector-effect="none" d="M2.86962,9.9524 L4.74462,12.2024 L4.3125,12.5625 L3.88038,12.2024 L5.75538,9.9524 C5.95426,9.71374 6.30895,9.6815 6.5476,9.88038 C6.78626,10.0793 6.8185,10.4339 6.61962,10.6726 L4.74462,12.9226 L4.3125,13.4412 L3.88038,12.9226 L2.00538,10.6726 C1.8065,10.4339 1.83874,10.0793 2.0774,9.88038 C2.31605,9.6815 2.67074,9.71374 2.86962,9.9524 "/>
        </g>
    </g>
</svg>
