<?xml version='1.0' encoding='UTF-8' standalone='no'?>
<svg version="1.2" xmlns:xlink="http://www.w3.org/1999/xlink" viewBox="0 0 48 48" xmlns="http://www.w3.org/2000/svg" width="4.23333mm" height="4.23333mm" baseProfile="tiny">
    <style id="current-color-scheme" type="text/css">.ColorScheme-Text {color:#232629;}</style>
    <title>Qt SVG Document</title>
    <desc>Auto-generated by Klassy window decoration</desc>
    <defs/>
    <g stroke-linejoin="bevel" stroke-linecap="square" fill="none" stroke-width="1" stroke="black" fill-rule="evenodd">
        <g font-weight="400" class="ColorScheme-Text" font-size="40" fill="currentColor" transform="matrix(2.66667,0,0,2.66667,0,0)" font-style="normal" stroke="none" font-family="Noto Sans" fill-opacity="1">
            <path vector-effect="none" fill-rule="nonzero" d="M4.125,4.12444 L13.875,4.12444 C14.186,4.12444 14.4381,4.37653 14.4381,4.6875 C14.4381,4.99847 14.186,5.25056 13.875,5.25056 L4.125,5.25056 C3.81403,5.25056 3.56194,4.99847 3.56194,4.6875 C3.56194,4.37653 3.81403,4.12444 4.125,4.12444 "/>
            <path vector-effect="none" fill-rule="nonzero" d="M4.39815,7.60185 L9.39815,12.6019 L9,13 L8.60185,12.6019 L13.6019,7.60185 C13.8217,7.38197 14.1783,7.38197 14.3981,7.60185 C14.618,7.82174 14.618,8.17826 14.3981,8.39815 L9.39815,13.3981 L9,13.7963 L8.60185,13.3981 L3.60185,8.39815 C3.38197,8.17826 3.38197,7.82174 3.60185,7.60185 C3.82174,7.38197 4.17826,7.38197 4.39815,7.60185 "/>
        </g>
    </g>
</svg>
