<?xml version='1.0' encoding='UTF-8' standalone='no'?>
<svg width="5.87963mm" viewBox="0 0 50 50" baseProfile="tiny" xmlns="http://www.w3.org/2000/svg" xmlns:xlink="http://www.w3.org/1999/xlink" version="1.2" height="5.87963mm">
    <style id="current-color-scheme" type="text/css">.ColorScheme-Text {color:#232629;}</style>
    <title>Qt SVG Document</title>
    <desc>Auto-generated by Klassy window decoration</desc>
    <defs/>
    <g stroke-linecap="square" fill-rule="evenodd" stroke-linejoin="bevel" stroke-width="1" fill="none" stroke="black">
        <g class="ColorScheme-Text" font-weight="400" font-family="Noto Sans" font-size="30" transform="matrix(2.77778,0,0,2.77778,0,0)" fill-opacity="1" fill="currentColor" font-style="normal" stroke="none">
            <path fill-rule="nonzero" vector-effect="none" d="M4.5,14.04 L13.5,14.04 C13.7982,14.04 14.04,14.2818 14.04,14.58 C14.04,14.8782 13.7982,15.12 13.5,15.12 L4.5,15.12 C4.20177,15.12 3.96,14.8782 3.96,14.58 C3.96,14.2818 4.20177,14.04 4.5,14.04 "/>
            <path fill-rule="nonzero" vector-effect="none" d="M9.54,10.08 L13.5,10.08 C13.7982,10.08 14.04,10.3218 14.04,10.62 C14.04,10.9182 13.7982,11.16 13.5,11.16 L9.54,11.16 C9.24177,11.16 9,10.9182 9,10.62 C9,10.3218 9.24177,10.08 9.54,10.08 "/>
            <path fill-rule="nonzero" vector-effect="none" d="M9.54,6.12 L13.5,6.12 C13.7982,6.12 14.04,6.36177 14.04,6.66 C14.04,6.95823 13.7982,7.2 13.5,7.2 L9.54,7.2 C9.24177,7.2 9,6.95823 9,6.66 C9,6.36177 9.24177,6.12 9.54,6.12 "/>
            <path fill-rule="nonzero" vector-effect="none" d="M5.04,4.5 L5.04,12.42 C5.04,12.7182 4.79823,12.96 4.5,12.96 C4.20177,12.96 3.96,12.7182 3.96,12.42 L3.96,4.5 C3.96,4.20177 4.20177,3.96 4.5,3.96 C4.79823,3.96 5.04,4.20177 5.04,4.5 "/>
            <path fill-rule="nonzero" vector-effect="none" d="M2.6857,10.2052 L4.8457,12.0052 L4.5,12.42 L4.1543,12.0052 L6.3143,10.2052 C6.54341,10.0142 6.88391,10.0452 7.07484,10.2743 C7.26576,10.5034 7.23481,10.8439 7.0057,11.0348 L4.8457,12.8348 L4.5,13.1229 L4.1543,12.8348 L1.9943,11.0348 C1.76519,10.8439 1.73424,10.5034 1.92516,10.2743 C2.11609,10.0452 2.45659,10.0142 2.6857,10.2052 "/>
        </g>
    </g>
</svg>
