<?xml version='1.0' encoding='UTF-8' standalone='no'?>
<svg baseProfile="tiny" height="5.87963mm" version="1.2" viewBox="0 0 50 50" width="5.87963mm" xmlns="http://www.w3.org/2000/svg" xmlns:xlink="http://www.w3.org/1999/xlink">
    <style id="current-color-scheme" type="text/css">.ColorScheme-Text {color:#232629;}</style>
    <title>Qt SVG Document</title>
    <desc>Auto-generated by Klassy window decoration</desc>
    <defs/>
    <g fill="none" fill-rule="evenodd" stroke="black" stroke-linecap="square" stroke-linejoin="bevel" stroke-width="1">
        <g class="ColorScheme-Text" fill="currentColor" fill-opacity="0.949996" font-family="Noto Sans" font-size="30" font-style="normal" font-weight="400" stroke="none" transform="matrix(2.77778,0,0,2.77778,11,19)">
            <path d="M0,-0.72072 L7.2,-0.72072 L7.92072,0 L7.92072,7.2 L7.2,7.92072 L0,7.92072 L-0.72072,7.2 L-0.72072,0 L0,-0.72072 M0.72072,0 L0.72072,7.2 L0,7.2 L0,6.47928 L7.2,6.47928 L7.2,7.2 L6.47928,7.2 L6.47928,0 L7.2,0 L7.2,0.72072 L0,0.72072 L0,0 L0.72072,0" fill-rule="nonzero" vector-effect="none"/>
        </g>
        <g class="ColorScheme-Text" fill="currentColor" fill-opacity="0.949996" font-family="Noto Sans" font-size="30" font-style="normal" font-weight="400" stroke="none" transform="matrix(2.77778,0,0,2.77778,11,19)">
            <path d="M2.15928,-0.72072 L2.15928,-2.88 L2.88,-3.60072 L10.08,-3.60072 L10.8007,-2.88 L10.8007,4.32 L10.08,5.04072 L7.92072,5.04072 L7.92072,3.59928 L10.08,3.59928 L10.08,4.32 L9.35928,4.32 L9.35928,-2.88 L10.08,-2.88 L10.08,-2.15928 L2.88,-2.15928 L2.88,-2.88 L3.60072,-2.88 L3.60072,-0.72072 L2.15928,-0.72072" fill-rule="nonzero" vector-effect="none"/>
        </g>
    </g>
</svg>
