<?xml version='1.0' encoding='UTF-8' standalone='no'?>
<svg width="6.35mm" viewBox="0 0 54 54" baseProfile="tiny" xmlns="http://www.w3.org/2000/svg" xmlns:xlink="http://www.w3.org/1999/xlink" version="1.2" height="6.35mm">
    <style id="current-color-scheme" type="text/css">.ColorScheme-Text {color:#fcfcfc;}</style>
    <title>Qt SVG Document</title>
    <desc>Auto-generated by Klassy window decoration</desc>
    <defs/>
    <g stroke-linecap="square" fill-rule="evenodd" stroke-linejoin="bevel" stroke-width="1" fill="none" stroke="black">
        <g class="ColorScheme-Text" font-weight="400" font-family="Noto Sans" font-size="30" transform="matrix(3,0,0,3,11.5,21.5)" fill-opacity="1" fill="currentColor" font-style="normal" stroke="none">
            <path fill-rule="nonzero" vector-effect="none" d="M0,-0.833333 L7,-0.833333 L7.83333,0 L7.83333,7 L7,7.83333 L0,7.83333 L-0.833333,7 L-0.833333,0 L0,-0.833333 M0.833333,0 L0.833333,7 L0,7 L0,6.16667 L7,6.16667 L7,7 L6.16667,7 L6.16667,0 L7,0 L7,0.833333 L0,0.833333 L0,0 L0.833333,0"/>
        </g>
        <g class="ColorScheme-Text" font-weight="400" font-family="Noto Sans" font-size="30" transform="matrix(3,0,0,3,11.5,21.5)" fill-opacity="1" fill="currentColor" font-style="normal" stroke="none">
            <path fill-rule="nonzero" vector-effect="none" d="M2.5,-0.833333 L2.5,-3.33333 L3.33333,-4.16667 L10.3333,-4.16667 L11.1667,-3.33333 L11.1667,3.66667 L10.3333,4.5 L7.83333,4.5 L7.83333,2.83333 L10.3333,2.83333 L10.3333,3.66667 L9.5,3.66667 L9.5,-3.33333 L10.3333,-3.33333 L10.3333,-2.5 L3.33333,-2.5 L3.33333,-3.33333 L4.16667,-3.33333 L4.16667,-0.833333 L2.5,-0.833333"/>
        </g>
    </g>
</svg>
