<?xml version='1.0' encoding='UTF-8' standalone='no'?>
<svg version="1.2" xmlns:xlink="http://www.w3.org/1999/xlink" viewBox="0 0 54 54" xmlns="http://www.w3.org/2000/svg" width="6.35mm" height="6.35mm" baseProfile="tiny">
    <style id="current-color-scheme" type="text/css">.ColorScheme-Text {color:#fcfcfc;}</style>
    <title>Qt SVG Document</title>
    <desc>Auto-generated by Klassy window decoration</desc>
    <defs/>
    <g stroke-linejoin="bevel" stroke-linecap="square" fill="none" stroke-width="1" stroke="black" fill-rule="evenodd">
        <g font-weight="400" class="ColorScheme-Text" font-size="30" fill="currentColor" transform="matrix(3,0,0,3,11.5,21.5)" font-style="normal" stroke="none" font-family="Noto Sans" fill-opacity="1">
            <path vector-effect="none" fill-rule="nonzero" d="M0,-0.834167 L7,-0.834167 L7.83417,0 L7.83417,7 L7,7.83417 L0,7.83417 L-0.834167,7 L-0.834167,0 L0,-0.834167 M0.834167,0 L0.834167,7 L0,7 L0,6.16583 L7,6.16583 L7,7 L6.16583,7 L6.16583,0 L7,0 L7,0.834167 L0,0.834167 L0,0 L0.834167,0"/>
        </g>
        <g font-weight="400" class="ColorScheme-Text" font-size="30" fill="currentColor" transform="matrix(3,0,0,3,11.5,21.5)" font-style="normal" stroke="none" font-family="Noto Sans" fill-opacity="1">
            <path vector-effect="none" fill-rule="nonzero" d="M2.49917,-0.834167 L2.49917,-3.33333 L3.33333,-4.1675 L10.3333,-4.1675 L11.1675,-3.33333 L11.1675,3.66667 L10.3333,4.50083 L7.83417,4.50083 L7.83417,2.8325 L10.3333,2.8325 L10.3333,3.66667 L9.49917,3.66667 L9.49917,-3.33333 L10.3333,-3.33333 L10.3333,-2.49917 L3.33333,-2.49917 L3.33333,-3.33333 L4.1675,-3.33333 L4.1675,-0.834167 L2.49917,-0.834167"/>
        </g>
    </g>
</svg>
