<?xml version='1.0' encoding='UTF-8' standalone='no'?>
<svg baseProfile="tiny" height="6.35mm" version="1.2" viewBox="0 0 54 54" width="6.35mm" xmlns="http://www.w3.org/2000/svg" xmlns:xlink="http://www.w3.org/1999/xlink">
    <style id="current-color-scheme" type="text/css">.ColorScheme-Text {color:#fcfcfc;}</style>
    <title>Qt SVG Document</title>
    <desc>Auto-generated by Klassy window decoration</desc>
    <defs/>
    <g fill="none" fill-rule="evenodd" stroke="black" stroke-linecap="square" stroke-linejoin="bevel" stroke-width="1">
        <g class="ColorScheme-Text" fill="currentColor" fill-opacity="0.450004" font-family="Noto Sans" font-size="30" font-style="normal" font-weight="400" stroke="none" transform="matrix(3,0,0,3,23,23)">
            <rect height="3" width="3" x="0" y="0"/>
        </g>
        <g class="ColorScheme-Text" fill="currentColor" fill-opacity="0.902495" font-family="Noto Sans" font-size="30" font-style="normal" font-weight="400" stroke="none" transform="matrix(3,0,0,3,23,23)">
            <path d="M0,-0.834167 L3,-0.834167 L3.83417,0 L3.83417,3 L3,3.83417 L0,3.83417 L-0.834167,3 L-0.834167,0 L0,-0.834167 M0.834167,0 L0.834167,3 L0,3 L0,2.16583 L3,2.16583 L3,3 L2.16583,3 L2.16583,0 L3,0 L3,0.834167 L0,0.834167 L0,0 L0.834167,0" fill-rule="nonzero" vector-effect="none"/>
        </g>
    </g>
</svg>
