<?xml version='1.0' encoding='UTF-8' standalone='no'?>
<svg version="1.2" xmlns:xlink="http://www.w3.org/1999/xlink" viewBox="0 0 33 33" xmlns="http://www.w3.org/2000/svg" width="5.82083mm" height="5.82083mm" baseProfile="tiny">
    <style id="current-color-scheme" type="text/css">.ColorScheme-Text {color:#232629;}</style>
    <title>Qt SVG Document</title>
    <desc>Auto-generated by Klassy window decoration</desc>
    <defs/>
    <g stroke-linejoin="bevel" stroke-linecap="square" fill="none" stroke-width="1" stroke="black" fill-rule="evenodd">
        <g font-weight="400" class="ColorScheme-Text" font-size="20" fill="currentColor" transform="matrix(1.83333,0,0,1.83333,0,0)" font-style="normal" stroke="none" font-family="Noto Sans" fill-opacity="1">
            <path vector-effect="none" fill-rule="nonzero" d="M3.81818,3.81764 L14.1818,3.81764 C14.4834,3.81764 14.7278,4.06209 14.7278,4.36364 C14.7278,4.66518 14.4834,4.90964 14.1818,4.90964 L3.81818,4.90964 C3.51663,4.90964 3.27218,4.66518 3.27218,4.36364 C3.27218,4.06209 3.51663,3.81764 3.81818,3.81764 "/>
            <path vector-effect="none" fill-rule="nonzero" d="M3.61392,12.6139 L8.61392,7.61392 L9,7.22784 L9.38608,7.61392 L14.3861,12.6139 C14.5993,12.8271 14.5993,13.1729 14.3861,13.3861 C14.1729,13.5993 13.8271,13.5993 13.6139,13.3861 L8.61392,8.38608 L9,8 L9.38608,8.38608 L4.38608,13.3861 C4.17285,13.5993 3.82715,13.5993 3.61392,13.3861 C3.40069,13.1729 3.40069,12.8271 3.61392,12.6139 "/>
        </g>
    </g>
</svg>
