<?xml version='1.0' encoding='UTF-8' standalone='no'?>
<svg width="5.82083mm" viewBox="0 0 33 33" baseProfile="tiny" xmlns="http://www.w3.org/2000/svg" xmlns:xlink="http://www.w3.org/1999/xlink" version="1.2" height="5.82083mm">
    <style id="current-color-scheme" type="text/css">.ColorScheme-Text {color:#232629;}</style>
    <title>Qt SVG Document</title>
    <desc>Auto-generated by Klassy window decoration</desc>
    <defs/>
    <g stroke-linecap="square" fill-rule="evenodd" stroke-linejoin="bevel" stroke-width="1" fill="none" stroke="black">
        <g class="ColorScheme-Text" font-weight="400" font-family="Noto Sans" font-size="20" transform="matrix(1.83333,0,0,1.83333,0,0)" fill-opacity="1" fill="currentColor" font-style="normal" stroke="none">
            <path fill-rule="nonzero" vector-effect="none" d="M3.81818,3.81818 L14.1818,3.81818 C14.4831,3.81818 14.7273,4.06239 14.7273,4.36364 C14.7273,4.66488 14.4831,4.90909 14.1818,4.90909 L3.81818,4.90909 C3.51694,4.90909 3.27273,4.66488 3.27273,4.36364 C3.27273,4.06239 3.51694,3.81818 3.81818,3.81818 "/>
            <path fill-rule="nonzero" vector-effect="none" d="M3.61431,12.6143 L8.61431,7.61431 L9,7.22861 L9.38569,7.61431 L14.3857,12.6143 C14.5987,12.8273 14.5987,13.1727 14.3857,13.3857 C14.1727,13.5987 13.8273,13.5987 13.6143,13.3857 L8.61431,8.38569 L9,8 L9.38569,8.38569 L4.38569,13.3857 C4.17268,13.5987 3.82732,13.5987 3.61431,13.3857 C3.40129,13.1727 3.40129,12.8273 3.61431,12.6143 "/>
        </g>
    </g>
</svg>
