<?xml version='1.0' encoding='UTF-8' standalone='no'?>
<svg width="5.82083mm" viewBox="0 0 33 33" baseProfile="tiny" xmlns="http://www.w3.org/2000/svg" xmlns:xlink="http://www.w3.org/1999/xlink" version="1.2" height="5.82083mm">
    <style id="current-color-scheme" type="text/css">.ColorScheme-Text {color:#232629;}</style>
    <title>Qt SVG Document</title>
    <desc>Auto-generated by Klassy window decoration</desc>
    <defs/>
    <g stroke-linecap="square" fill-rule="evenodd" stroke-linejoin="bevel" stroke-width="1" fill="none" stroke="black">
        <g class="ColorScheme-Text" font-weight="400" font-family="Noto Sans" font-size="20" transform="matrix(1.83333,0,0,1.83333,7.5,13.5)" fill-opacity="1" fill="currentColor" font-style="normal" stroke="none">
            <path fill-rule="nonzero" vector-effect="none" d="M0,-0.818182 L7.09091,-0.818182 L7.90909,0 L7.90909,7.09091 L7.09091,7.90909 L0,7.90909 L-0.818182,7.09091 L-0.818182,0 L0,-0.818182 M0.818182,0 L0.818182,7.09091 L0,7.09091 L0,6.27273 L7.09091,6.27273 L7.09091,7.09091 L6.27273,7.09091 L6.27273,0 L7.09091,0 L7.09091,0.818182 L0,0.818182 L0,0 L0.818182,0"/>
        </g>
        <g class="ColorScheme-Text" font-weight="400" font-family="Noto Sans" font-size="20" transform="matrix(1.83333,0,0,1.83333,7.5,13.5)" fill-opacity="1" fill="currentColor" font-style="normal" stroke="none">
            <path fill-rule="nonzero" vector-effect="none" d="M2.45455,-0.818182 L2.45455,-3.27273 L3.27273,-4.09091 L10.3636,-4.09091 L11.1818,-3.27273 L11.1818,3.81818 L10.3636,4.63636 L7.90909,4.63636 L7.90909,3 L10.3636,3 L10.3636,3.81818 L9.54545,3.81818 L9.54545,-3.27273 L10.3636,-3.27273 L10.3636,-2.45455 L3.27273,-2.45455 L3.27273,-3.27273 L4.09091,-3.27273 L4.09091,-0.818182 L2.45455,-0.818182"/>
        </g>
    </g>
</svg>
