<?xml version='1.0' encoding='UTF-8' standalone='no'?>
<svg width="5.82083mm" viewBox="0 0 33 33" baseProfile="tiny" xmlns="http://www.w3.org/2000/svg" xmlns:xlink="http://www.w3.org/1999/xlink" version="1.2" height="5.82083mm">
    <style id="current-color-scheme" type="text/css">.ColorScheme-Text {color:#232629;}</style>
    <title>Qt SVG Document</title>
    <desc>Auto-generated by Klassy window decoration</desc>
    <defs/>
    <g stroke-linecap="square" fill-rule="evenodd" stroke-linejoin="bevel" stroke-width="1" fill="none" stroke="black">
        <g class="ColorScheme-Text" font-weight="400" font-family="Noto Sans" font-size="20" transform="matrix(1.83333,0,0,1.83333,0,0)" fill-opacity="1" fill="currentColor" font-style="normal" stroke="none">
            <path fill-rule="nonzero" vector-effect="none" d="M3.81818,4.63752 C3.81818,4.29798 4.29798,3.81818 4.63752,3.81818 L13.9079,3.81818 C14.2475,3.81818 14.7273,4.29798 14.7273,4.63752 L14.7273,13.9079 C14.7273,14.2475 14.2475,14.7273 13.9079,14.7273 L4.63752,14.7273 C4.29798,14.7273 3.81818,14.2475 3.81818,13.9079 L3.81818,4.63752 M5.45455,4.63752 L5.45455,13.9079 C5.45455,13.5697 4.97578,13.0909 4.63752,13.0909 L13.9079,13.0909 C13.5697,13.0909 13.0909,13.5697 13.0909,13.9079 L13.0909,4.63752 C13.0909,4.97578 13.5697,5.45455 13.9079,5.45455 L4.63752,5.45455 C4.97578,5.45455 5.45455,4.97578 5.45455,4.63752 "/>
        </g>
    </g>
</svg>
