<?xml version='1.0' encoding='UTF-8' standalone='no'?>
<svg width="5.82083mm" viewBox="0 0 33 33" baseProfile="tiny" xmlns="http://www.w3.org/2000/svg" xmlns:xlink="http://www.w3.org/1999/xlink" version="1.2" height="5.82083mm">
    <style id="current-color-scheme" type="text/css">.ColorScheme-Text {color:#232629;}</style>
    <title>Qt SVG Document</title>
    <desc>Auto-generated by Klassy window decoration</desc>
    <defs/>
    <g stroke-linecap="square" fill-rule="evenodd" stroke-linejoin="bevel" stroke-width="1" fill="none" stroke="black">
        <g class="ColorScheme-Text" font-weight="400" font-family="Noto Sans" font-size="20" transform="matrix(1.83333,0,0,1.83333,0,0)" fill-opacity="1" fill="currentColor" font-style="normal" stroke="none">
            <path fill-rule="nonzero" vector-effect="none" d="M5.20261,4.07011 L14.4753,13.3428 C14.7881,13.6556 14.7881,14.1626 14.4753,14.4753 C14.1626,14.7881 13.6556,14.7881 13.3428,14.4753 L4.07011,5.20261 C3.75738,4.88988 3.75738,4.38284 4.07011,4.07011 C4.38284,3.75738 4.88988,3.75738 5.20261,4.07011 "/>
            <path fill-rule="nonzero" vector-effect="none" d="M14.4753,5.20261 L5.20261,14.4753 C4.88988,14.7881 4.38284,14.7881 4.07011,14.4753 C3.75738,14.1626 3.75738,13.6556 4.07011,13.3428 L13.3428,4.07011 C13.6556,3.75738 14.1626,3.75738 14.4753,4.07011 C14.7881,4.38284 14.7881,4.88988 14.4753,5.20261 "/>
        </g>
    </g>
</svg>
