<?xml version='1.0' encoding='UTF-8' standalone='no'?>
<svg version="1.2" xmlns:xlink="http://www.w3.org/1999/xlink" viewBox="0 0 33 33" xmlns="http://www.w3.org/2000/svg" width="5.82083mm" height="5.82083mm" baseProfile="tiny">
    <style id="current-color-scheme" type="text/css">.ColorScheme-Text {color:#232629;}</style>
    <title>Qt SVG Document</title>
    <desc>Auto-generated by Klassy window decoration</desc>
    <defs/>
    <g stroke-linejoin="bevel" stroke-linecap="square" fill="none" stroke-width="1" stroke="black" fill-rule="evenodd">
        <g font-weight="400" class="ColorScheme-Text" font-size="20" fill="currentColor" transform="matrix(1.83333,0,0,1.83333,7.5,13.5)" font-style="normal" stroke="none" font-family="Noto Sans" fill-opacity="1">
            <path vector-effect="none" fill-rule="nonzero" d="M0,-0.819 L7.09091,-0.819 L7.90991,0 L7.90991,7.09091 L7.09091,7.90991 L0,7.90991 L-0.819,7.09091 L-0.819,0 L0,-0.819 M0.819,0 L0.819,7.09091 L0,7.09091 L0,6.27191 L7.09091,6.27191 L7.09091,7.09091 L6.27191,7.09091 L6.27191,0 L7.09091,0 L7.09091,0.819 L0,0.819 L0,0 L0.819,0"/>
        </g>
        <g font-weight="400" class="ColorScheme-Text" font-size="20" fill="currentColor" transform="matrix(1.83333,0,0,1.83333,7.5,13.5)" font-style="normal" stroke="none" font-family="Noto Sans" fill-opacity="1">
            <path vector-effect="none" fill-rule="nonzero" d="M2.45373,-0.819 L2.45373,-3.27273 L3.27273,-4.09173 L10.3636,-4.09173 L11.1826,-3.27273 L11.1826,3.81818 L10.3636,4.63718 L7.90991,4.63718 L7.90991,2.99918 L10.3636,2.99918 L10.3636,3.81818 L9.54464,3.81818 L9.54464,-3.27273 L10.3636,-3.27273 L10.3636,-2.45373 L3.27273,-2.45373 L3.27273,-3.27273 L4.09173,-3.27273 L4.09173,-0.819 L2.45373,-0.819"/>
        </g>
    </g>
</svg>
