<?xml version='1.0' encoding='UTF-8' standalone='no'?>
<svg baseProfile="tiny" height="5.82083mm" version="1.2" viewBox="0 0 33 33" width="5.82083mm" xmlns="http://www.w3.org/2000/svg" xmlns:xlink="http://www.w3.org/1999/xlink">
    <style id="current-color-scheme" type="text/css">.ColorScheme-Text {color:#232629;}</style>
    <title>Qt SVG Document</title>
    <desc>Auto-generated by Klassy window decoration</desc>
    <defs/>
    <g fill="none" fill-rule="evenodd" stroke="black" stroke-linecap="square" stroke-linejoin="bevel" stroke-width="1">
        <g class="ColorScheme-Text" fill="currentColor" fill-opacity="0.549996" font-family="Noto Sans" font-size="20" font-style="normal" font-weight="400" stroke="none" transform="matrix(1.83333,0,0,1.83333,14,14)">
            <rect height="3.27273" width="3.27273" x="0" y="0"/>
        </g>
        <g class="ColorScheme-Text" fill="currentColor" fill-opacity="0.902495" font-family="Noto Sans" font-size="20" font-style="normal" font-weight="400" stroke="none" transform="matrix(1.83333,0,0,1.83333,14,14)">
            <path d="M0,-0.546 L3.27273,-0.546 L3.81873,0 L3.81873,3.27273 L3.27273,3.81873 L0,3.81873 L-0.546,3.27273 L-0.546,0 L0,-0.546 M0.546,0 L0.546,3.27273 L0,3.27273 L0,2.72673 L3.27273,2.72673 L3.27273,3.27273 L2.72673,3.27273 L2.72673,0 L3.27273,0 L3.27273,0.546 L0,0.546 L0,0 L0.546,0" fill-rule="nonzero" vector-effect="none"/>
        </g>
    </g>
</svg>
