<?xml version='1.0' encoding='UTF-8' standalone='no'?>
<svg version="1.2" xmlns:xlink="http://www.w3.org/1999/xlink" viewBox="0 0 96 96" xmlns="http://www.w3.org/2000/svg" width="8.46667mm" height="8.46667mm" baseProfile="tiny">
    <style id="current-color-scheme" type="text/css">.ColorScheme-Text {color:#fcfcfc;}</style>
    <title>Qt SVG Document</title>
    <desc>Auto-generated by Klassy window decoration</desc>
    <defs/>
    <g stroke-linejoin="bevel" stroke-linecap="square" fill="none" stroke-width="1" stroke="black" fill-rule="evenodd">
        <g font-weight="400" class="ColorScheme-Text" font-size="40" fill="currentColor" transform="matrix(5.33333,0,0,5.33333,21,37)" font-style="normal" stroke="none" font-family="Noto Sans" fill-opacity="1">
            <path vector-effect="none" fill-rule="nonzero" d="M0,-0.75075 L7.125,-0.75075 L7.87575,0 L7.87575,7.125 L7.125,7.87575 L0,7.87575 L-0.75075,7.125 L-0.75075,0 L0,-0.75075 M0.75075,0 L0.75075,7.125 L0,7.125 L0,6.37425 L7.125,6.37425 L7.125,7.125 L6.37425,7.125 L6.37425,0 L7.125,0 L7.125,0.75075 L0,0.75075 L0,0 L0.75075,0"/>
        </g>
        <g font-weight="400" class="ColorScheme-Text" font-size="40" fill="currentColor" transform="matrix(5.33333,0,0,5.33333,21,37)" font-style="normal" stroke="none" font-family="Noto Sans" fill-opacity="1">
            <path vector-effect="none" fill-rule="nonzero" d="M2.24925,-0.75075 L2.24925,-3 L3,-3.75075 L10.125,-3.75075 L10.8758,-3 L10.8758,4.125 L10.125,4.87575 L7.87575,4.87575 L7.87575,3.37425 L10.125,3.37425 L10.125,4.125 L9.37425,4.125 L9.37425,-3 L10.125,-3 L10.125,-2.24925 L3,-2.24925 L3,-3 L3.75075,-3 L3.75075,-0.75075 L2.24925,-0.75075"/>
        </g>
    </g>
</svg>
