<?xml version='1.0' encoding='UTF-8' standalone='no'?>
<svg version="1.2" xmlns:xlink="http://www.w3.org/1999/xlink" viewBox="0 0 35 35" xmlns="http://www.w3.org/2000/svg" width="5.29167mm" height="5.29167mm" baseProfile="tiny">
    <style id="current-color-scheme" type="text/css">.ColorScheme-Text {color:#fcfcfc;}</style>
    <title>Qt SVG Document</title>
    <desc>Auto-generated by Klassy window decoration</desc>
    <defs/>
    <g stroke-linejoin="bevel" stroke-linecap="square" fill="none" stroke-width="1" stroke="black" fill-rule="evenodd">
        <g font-weight="400" class="ColorScheme-Text" font-size="23.3333" fill="currentColor" transform="matrix(1.94444,0,0,1.94444,0,0)" font-style="normal" stroke="none" font-family="Noto Sans" fill-opacity="1">
            <path vector-effect="none" fill-rule="nonzero" d="M4.91746,3.8254 L14.6889,13.5968 C14.9904,13.8984 14.9904,14.3873 14.6889,14.6889 C14.3873,14.9904 13.8984,14.9904 13.5968,14.6889 L3.8254,4.91746 C3.52384,4.61589 3.52384,4.12696 3.8254,3.8254 C4.12696,3.52384 4.61589,3.52384 4.91746,3.8254 "/>
            <path vector-effect="none" fill-rule="nonzero" d="M14.6889,4.91746 L4.91746,14.6889 C4.61589,14.9904 4.12696,14.9904 3.8254,14.6889 C3.52384,14.3873 3.52384,13.8984 3.8254,13.5968 L13.5968,3.8254 C13.8984,3.52384 14.3873,3.52384 14.6889,3.8254 C14.9904,4.12696 14.9904,4.61589 14.6889,4.91746 "/>
        </g>
    </g>
</svg>
