<?xml version='1.0' encoding='UTF-8' standalone='no'?>
<svg width="5.29167mm" viewBox="0 0 35 35" baseProfile="tiny" xmlns="http://www.w3.org/2000/svg" xmlns:xlink="http://www.w3.org/1999/xlink" version="1.2" height="5.29167mm">
    <style id="current-color-scheme" type="text/css">.ColorScheme-Text {color:#fcfcfc;}</style>
    <title>Qt SVG Document</title>
    <desc>Auto-generated by Klassy window decoration</desc>
    <defs/>
    <g stroke-linecap="square" fill-rule="evenodd" stroke-linejoin="bevel" stroke-width="1" fill="none" stroke="black">
        <g class="ColorScheme-Text" font-weight="400" font-family="Noto Sans" font-size="23.3333" transform="matrix(1.94444,0,0,1.94444,0,0)" fill-opacity="1" fill="currentColor" font-style="normal" stroke="none">
            <path fill-rule="nonzero" vector-effect="none" d="M4.93768,3.80518 L14.7091,13.5766 C15.0218,13.8893 15.0218,14.3964 14.7091,14.7091 C14.3964,15.0218 13.8893,15.0218 13.5766,14.7091 L3.80518,4.93768 C3.49245,4.62495 3.49245,4.11791 3.80518,3.80518 C4.11791,3.49245 4.62495,3.49245 4.93768,3.80518 "/>
            <path fill-rule="nonzero" vector-effect="none" d="M14.7091,4.93768 L4.93768,14.7091 C4.62495,15.0218 4.11791,15.0218 3.80518,14.7091 C3.49245,14.3964 3.49245,13.8893 3.80518,13.5766 L13.5766,3.80518 C13.8893,3.49245 14.3964,3.49245 14.7091,3.80518 C15.0218,4.11791 15.0218,4.62495 14.7091,4.93768 "/>
        </g>
    </g>
</svg>
