<?xml version='1.0' encoding='UTF-8' standalone='no'?>
<svg width="5.29167mm" viewBox="0 0 35 35" baseProfile="tiny" xmlns="http://www.w3.org/2000/svg" xmlns:xlink="http://www.w3.org/1999/xlink" version="1.2" height="5.29167mm">
    <style id="current-color-scheme" type="text/css">.ColorScheme-Text {color:#fcfcfc;}</style>
    <title>Qt SVG Document</title>
    <desc>Auto-generated by Klassy window decoration</desc>
    <defs/>
    <g stroke-linecap="square" fill-rule="evenodd" stroke-linejoin="bevel" stroke-width="1" fill="none" stroke="black">
        <g class="ColorScheme-Text" font-weight="400" font-family="Noto Sans" font-size="23.3333" transform="matrix(1.94444,0,0,1.94444,0,0)" fill-opacity="1" fill="currentColor" font-style="normal" stroke="none">
            <path fill-rule="nonzero" vector-effect="none" d="M4.62857,12.3429 L8.74286,12.3429 C9.02689,12.3429 9.25714,12.5731 9.25714,12.8571 C9.25714,13.1412 9.02689,13.3714 8.74286,13.3714 L4.62857,13.3714 C4.34454,13.3714 4.11429,13.1412 4.11429,12.8571 C4.11429,12.5731 4.34454,12.3429 4.62857,12.3429 "/>
            <path fill-rule="nonzero" vector-effect="none" d="M4.62857,8.22857 L8.74286,8.22857 C9.02689,8.22857 9.25714,8.45882 9.25714,8.74286 C9.25714,9.02689 9.02689,9.25714 8.74286,9.25714 L4.62857,9.25714 C4.34454,9.25714 4.11429,9.02689 4.11429,8.74286 C4.11429,8.45882 4.34454,8.22857 4.62857,8.22857 "/>
            <path fill-rule="nonzero" vector-effect="none" d="M4.62857,4.11429 L13.3714,4.11429 C13.6555,4.11429 13.8857,4.34454 13.8857,4.62857 C13.8857,4.9126 13.6555,5.14286 13.3714,5.14286 L4.62857,5.14286 C4.34454,5.14286 4.11429,4.9126 4.11429,4.62857 C4.11429,4.34454 4.34454,4.11429 4.62857,4.11429 "/>
            <path fill-rule="nonzero" vector-effect="none" d="M13.8857,6.68571 L13.8857,14.4 C13.8857,14.684 13.6555,14.9143 13.3714,14.9143 C13.0874,14.9143 12.8571,14.684 12.8571,14.4 L12.8571,6.68571 C12.8571,6.40168 13.0874,6.17143 13.3714,6.17143 C13.6555,6.17143 13.8857,6.40168 13.8857,6.68571 "/>
            <path fill-rule="nonzero" vector-effect="none" d="M10.9506,8.3792 L13.0078,6.32206 L13.3714,5.9584 L13.7351,6.32206 L15.7922,8.3792 C15.9931,8.58004 15.9931,8.90567 15.7922,9.10651 C15.5914,9.30735 15.2658,9.30735 15.0649,9.10651 L13.0078,7.04937 L13.3714,6.68571 L13.7351,7.04937 L11.6779,9.10651 C11.4771,9.30735 11.1515,9.30735 10.9506,9.10651 C10.7498,8.90567 10.7498,8.58004 10.9506,8.3792 "/>
        </g>
    </g>
</svg>
