<?xml version='1.0' encoding='UTF-8' standalone='no'?>
<svg version="1.2" xmlns:xlink="http://www.w3.org/1999/xlink" viewBox="0 0 35 35" xmlns="http://www.w3.org/2000/svg" width="5.29167mm" height="5.29167mm" baseProfile="tiny">
    <style id="current-color-scheme" type="text/css">.ColorScheme-Text {color:#fcfcfc;}</style>
    <title>Qt SVG Document</title>
    <desc>Auto-generated by Klassy window decoration</desc>
    <defs/>
    <g stroke-linejoin="bevel" stroke-linecap="square" fill="none" stroke-width="1" stroke="black" fill-rule="evenodd">
        <g font-weight="400" class="ColorScheme-Text" font-size="23.3333" fill="currentColor" transform="matrix(1.94444,0,0,1.94444,0,0)" font-style="normal" stroke="none" font-family="Noto Sans" fill-opacity="1">
            <path vector-effect="none" fill-rule="nonzero" d="M3.59923,4.37265 C3.59923,4.05212 4.05212,3.59923 4.37265,3.59923 L14.1416,3.59923 C14.4622,3.59923 14.9151,4.05212 14.9151,4.37265 L14.9151,14.1416 C14.9151,14.4622 14.4622,14.9151 14.1416,14.9151 L4.37265,14.9151 C4.05212,14.9151 3.59923,14.4622 3.59923,14.1416 L3.59923,4.37265 M5.14363,4.37265 L5.14363,14.1416 C5.14363,13.8225 4.69183,13.3707 4.37265,13.3707 L14.1416,13.3707 C13.8225,13.3707 13.3707,13.8225 13.3707,14.1416 L13.3707,4.37265 C13.3707,4.69183 13.8225,5.14363 14.1416,5.14363 L4.37265,5.14363 C4.69183,5.14363 5.14363,4.69183 5.14363,4.37265 "/>
        </g>
    </g>
</svg>
