<?xml version='1.0' encoding='UTF-8' standalone='no'?>
<svg baseProfile="tiny" height="5.29167mm" version="1.2" viewBox="0 0 35 35" width="5.29167mm" xmlns="http://www.w3.org/2000/svg" xmlns:xlink="http://www.w3.org/1999/xlink">
    <style id="current-color-scheme" type="text/css">.ColorScheme-Text {color:#fcfcfc;}</style>
    <title>Qt SVG Document</title>
    <desc>Auto-generated by Klassy window decoration</desc>
    <defs/>
    <g fill="none" fill-rule="evenodd" stroke="black" stroke-linecap="square" stroke-linejoin="bevel" stroke-width="1">
        <g class="ColorScheme-Text" fill="currentColor" fill-opacity="1" font-family="Noto Sans" font-size="23.3333" font-style="normal" font-weight="400" stroke="none" transform="matrix(1.94444,0,0,1.94444,0,0)">
            <path d="M4.62857,12.3423 L8.74286,12.3423 C9.02717,12.3423 9.25766,12.5728 9.25766,12.8571 C9.25766,13.1415 9.02717,13.3719 8.74286,13.3719 L4.62857,13.3719 C4.34426,13.3719 4.11377,13.1415 4.11377,12.8571 C4.11377,12.5728 4.34426,12.3423 4.62857,12.3423 " fill-rule="nonzero" vector-effect="none"/>
            <path d="M4.62857,8.22806 L8.74286,8.22806 C9.02717,8.22806 9.25766,8.45854 9.25766,8.74286 C9.25766,9.02717 9.02717,9.25766 8.74286,9.25766 L4.62857,9.25766 C4.34426,9.25766 4.11377,9.02717 4.11377,8.74286 C4.11377,8.45854 4.34426,8.22806 4.62857,8.22806 " fill-rule="nonzero" vector-effect="none"/>
            <path d="M4.62857,4.11377 L13.3714,4.11377 C13.6557,4.11377 13.8862,4.34426 13.8862,4.62857 C13.8862,4.91289 13.6557,5.14337 13.3714,5.14337 L4.62857,5.14337 C4.34426,5.14337 4.11377,4.91289 4.11377,4.62857 C4.11377,4.34426 4.34426,4.11377 4.62857,4.11377 " fill-rule="nonzero" vector-effect="none"/>
            <path d="M13.8862,6.68571 L13.8862,14.4 C13.8862,14.6843 13.6557,14.9148 13.3714,14.9148 C13.0871,14.9148 12.8566,14.6843 12.8566,14.4 L12.8566,6.68571 C12.8566,6.4014 13.0871,6.17091 13.3714,6.17091 C13.6557,6.17091 13.8862,6.4014 13.8862,6.68571 " fill-rule="nonzero" vector-effect="none"/>
            <path d="M10.9503,8.37884 L13.0074,6.3217 L13.3714,5.95768 L13.7354,6.3217 L15.7926,8.37884 C15.9936,8.57988 15.9936,8.90583 15.7926,9.10688 C15.5915,9.30792 15.2656,9.30792 15.0646,9.10688 L13.0074,7.04973 L13.3714,6.68571 L13.7354,7.04973 L11.6783,9.10688 C11.4773,9.30792 11.1513,9.30792 10.9503,9.10688 C10.7492,8.90583 10.7492,8.57988 10.9503,8.37884 " fill-rule="nonzero" vector-effect="none"/>
        </g>
    </g>
</svg>
