<?xml version='1.0' encoding='UTF-8' standalone='no'?>
<svg width="5.29167mm" viewBox="0 0 35 35" baseProfile="tiny" xmlns="http://www.w3.org/2000/svg" xmlns:xlink="http://www.w3.org/1999/xlink" version="1.2" height="5.29167mm">
    <style id="current-color-scheme" type="text/css">.ColorScheme-Text {color:#fcfcfc;}</style>
    <title>Qt SVG Document</title>
    <desc>Auto-generated by Klassy window decoration</desc>
    <defs/>
    <g stroke-linecap="square" fill-rule="evenodd" stroke-linejoin="bevel" stroke-width="1" fill="none" stroke="black">
        <g class="ColorScheme-Text" font-weight="400" font-family="Noto Sans" font-size="23.3333" transform="matrix(1.94444,0,0,1.94444,0,0)" fill-opacity="1" fill="currentColor" font-style="normal" stroke="none">
            <path fill-rule="nonzero" vector-effect="none" d="M4.62857,13.8857 L13.3714,13.8857 C13.6555,13.8857 13.8857,14.116 13.8857,14.4 C13.8857,14.684 13.6555,14.9143 13.3714,14.9143 L4.62857,14.9143 C4.34454,14.9143 4.11429,14.684 4.11429,14.4 C4.11429,14.116 4.34454,13.8857 4.62857,13.8857 "/>
            <path fill-rule="nonzero" vector-effect="none" d="M9.25714,9.77143 L13.3714,9.77143 C13.6555,9.77143 13.8857,10.0017 13.8857,10.2857 C13.8857,10.5697 13.6555,10.8 13.3714,10.8 L9.25714,10.8 C8.97311,10.8 8.74286,10.5697 8.74286,10.2857 C8.74286,10.0017 8.97311,9.77143 9.25714,9.77143 "/>
            <path fill-rule="nonzero" vector-effect="none" d="M9.25714,5.65714 L13.3714,5.65714 C13.6555,5.65714 13.8857,5.8874 13.8857,6.17143 C13.8857,6.45546 13.6555,6.68571 13.3714,6.68571 L9.25714,6.68571 C8.97311,6.68571 8.74286,6.45546 8.74286,6.17143 C8.74286,5.8874 8.97311,5.65714 9.25714,5.65714 "/>
            <path fill-rule="nonzero" vector-effect="none" d="M5.14286,4.62857 L5.14286,12.3429 C5.14286,12.6269 4.9126,12.8571 4.62857,12.8571 C4.34454,12.8571 4.11429,12.6269 4.11429,12.3429 L4.11429,4.62857 C4.11429,4.34454 4.34454,4.11429 4.62857,4.11429 C4.9126,4.11429 5.14286,4.34454 5.14286,4.62857 "/>
            <path fill-rule="nonzero" vector-effect="none" d="M2.93508,9.92206 L4.99223,11.9792 L4.62857,12.3429 L4.26492,11.9792 L6.32206,9.92206 C6.5229,9.72122 6.84853,9.72122 7.04937,9.92206 C7.25021,10.1229 7.25021,10.4485 7.04937,10.6494 L4.99223,12.7065 L4.62857,13.0702 L4.26492,12.7065 L2.20777,10.6494 C2.00693,10.4485 2.00693,10.1229 2.20777,9.92206 C2.40861,9.72122 2.73424,9.72122 2.93508,9.92206 "/>
        </g>
    </g>
</svg>
