<?xml version='1.0' encoding='UTF-8' standalone='no'?>
<svg baseProfile="tiny" height="5.29167mm" version="1.2" viewBox="0 0 35 35" width="5.29167mm" xmlns="http://www.w3.org/2000/svg" xmlns:xlink="http://www.w3.org/1999/xlink">
    <style id="current-color-scheme" type="text/css">.ColorScheme-Text {color:#fcfcfc;}</style>
    <title>Qt SVG Document</title>
    <desc>Auto-generated by Klassy window decoration</desc>
    <defs/>
    <g fill="none" fill-rule="evenodd" stroke="black" stroke-linecap="square" stroke-linejoin="bevel" stroke-width="1">
        <g class="ColorScheme-Text" fill="currentColor" fill-opacity="1" font-family="Noto Sans" font-size="23.3333" font-style="normal" font-weight="400" stroke="none" transform="matrix(1.94444,0,0,1.94444,0,0)">
            <path d="M4.11429,3.59923 L13.8857,3.59923 C14.3122,3.59923 14.6579,3.94495 14.6579,4.37143 C14.6579,4.7979 14.3122,5.14363 13.8857,5.14363 L4.11429,5.14363 C3.68781,5.14363 3.34209,4.7979 3.34209,4.37143 C3.34209,3.94495 3.68781,3.59923 4.11429,3.59923 " fill-rule="nonzero" vector-effect="none"/>
            <path d="M3.45397,12.454 L8.45397,7.45397 L9,6.90794 L9.54603,7.45397 L14.546,12.454 C14.8476,12.7555 14.8476,13.2445 14.546,13.546 C14.2445,13.8476 13.7555,13.8476 13.454,13.546 L8.45397,8.54603 L9,8 L9.54603,8.54603 L4.54603,13.546 C4.24446,13.8476 3.75554,13.8476 3.45397,13.546 C3.15241,13.2445 3.15241,12.7555 3.45397,12.454 " fill-rule="nonzero" vector-effect="none"/>
        </g>
    </g>
</svg>
