<?xml version='1.0' encoding='UTF-8' standalone='no'?>
<svg version="1.2" xmlns:xlink="http://www.w3.org/1999/xlink" viewBox="0 0 35 35" xmlns="http://www.w3.org/2000/svg" width="5.29167mm" height="5.29167mm" baseProfile="tiny">
    <style id="current-color-scheme" type="text/css">.ColorScheme-Text {color:#fcfcfc;}</style>
    <title>Qt SVG Document</title>
    <desc>Auto-generated by Klassy window decoration</desc>
    <defs/>
    <g stroke-linejoin="bevel" stroke-linecap="square" fill="none" stroke-width="1" stroke="black" fill-rule="evenodd">
        <g font-weight="400" class="ColorScheme-Text" font-size="23.3333" fill="currentColor" transform="matrix(1.94444,0,0,1.94444,7.5,14.5)" font-style="normal" stroke="none" font-family="Noto Sans" fill-opacity="1">
            <path vector-effect="none" fill-rule="nonzero" d="M0,-0.7722 L7.2,-0.7722 L7.9722,0 L7.9722,7.2 L7.2,7.9722 L0,7.9722 L-0.7722,7.2 L-0.7722,0 L0,-0.7722 M0.7722,0 L0.7722,7.2 L0,7.2 L0,6.4278 L7.2,6.4278 L7.2,7.2 L6.4278,7.2 L6.4278,0 L7.2,0 L7.2,0.7722 L0,0.7722 L0,0 L0.7722,0"/>
        </g>
        <g font-weight="400" class="ColorScheme-Text" font-size="23.3333" fill="currentColor" transform="matrix(1.94444,0,0,1.94444,7.5,14.5)" font-style="normal" stroke="none" font-family="Noto Sans" fill-opacity="1">
            <path vector-effect="none" fill-rule="nonzero" d="M2.31351,-0.7722 L2.31351,-3.08571 L3.08571,-3.85791 L10.2857,-3.85791 L11.0579,-3.08571 L11.0579,4.11429 L10.2857,4.88649 L7.9722,4.88649 L7.9722,3.34209 L10.2857,3.34209 L10.2857,4.11429 L9.51351,4.11429 L9.51351,-3.08571 L10.2857,-3.08571 L10.2857,-2.31351 L3.08571,-2.31351 L3.08571,-3.08571 L3.85791,-3.08571 L3.85791,-0.7722 L2.31351,-0.7722"/>
        </g>
    </g>
</svg>
