<?xml version='1.0' encoding='UTF-8' standalone='no'?>
<svg width="5.29167mm" viewBox="0 0 35 35" baseProfile="tiny" xmlns="http://www.w3.org/2000/svg" xmlns:xlink="http://www.w3.org/1999/xlink" version="1.2" height="5.29167mm">
    <style id="current-color-scheme" type="text/css">.ColorScheme-Text {color:#fcfcfc;}</style>
    <title>Qt SVG Document</title>
    <desc>Auto-generated by Klassy window decoration</desc>
    <defs/>
    <g stroke-linecap="square" fill-rule="evenodd" stroke-linejoin="bevel" stroke-width="1" fill="none" stroke="black">
        <g class="ColorScheme-Text" font-weight="400" font-family="Noto Sans" font-size="23.3333" transform="matrix(1.94444,0,0,1.94444,0,0)" fill-opacity="1" fill="currentColor" font-style="normal" stroke="none">
            <path fill-rule="nonzero" vector-effect="none" d="M3.6,4.37265 C3.6,4.05244 4.05244,3.6 4.37265,3.6 L14.1416,3.6 C14.4618,3.6 14.9143,4.05244 14.9143,4.37265 L14.9143,14.1416 C14.9143,14.4618 14.4618,14.9143 14.1416,14.9143 L4.37265,14.9143 C4.05244,14.9143 3.6,14.4618 3.6,14.1416 L3.6,4.37265 M5.14286,4.37265 L5.14286,14.1416 C5.14286,13.8228 4.69151,13.3714 4.37265,13.3714 L14.1416,13.3714 C13.8228,13.3714 13.3714,13.8228 13.3714,14.1416 L13.3714,4.37265 C13.3714,4.69151 13.8228,5.14286 14.1416,5.14286 L4.37265,5.14286 C4.69151,5.14286 5.14286,4.69151 5.14286,4.37265 "/>
        </g>
    </g>
</svg>
