<?xml version='1.0' encoding='UTF-8' standalone='no'?>
<svg baseProfile="tiny" height="12.7mm" version="1.2" viewBox="0 0 132 132" width="12.7mm" xmlns="http://www.w3.org/2000/svg" xmlns:xlink="http://www.w3.org/1999/xlink">
    <style id="current-color-scheme" type="text/css">.ColorScheme-Text {color:#232629;}</style>
    <title>Qt SVG Document</title>
    <desc>Auto-generated by Klassy window decoration</desc>
    <defs/>
    <g fill="none" fill-rule="evenodd" stroke="black" stroke-linecap="square" stroke-linejoin="bevel" stroke-width="1">
        <g class="ColorScheme-Text" fill="#da0016" fill-opacity="0.719997" font-family="Noto Sans" font-size="36.6667" font-style="normal" font-weight="400" stroke="none" transform="matrix(8.25,0,0,8.25,0,0)">
            <path d="M2,3.2 C2,2.53726 2.53726,2 3.2,2 L12.8,2 C13.4627,2 14,2.53726 14,3.2 L14,12.8 C14,13.4627 13.4627,14 12.8,14 L3.2,14 C2.53726,14 2,13.4627 2,12.8 L2,3.2" fill-rule="evenodd" vector-effect="none"/>
        </g>
        <g class="ColorScheme-Text" fill="#ffffff" fill-opacity="1" font-family="Noto Sans" font-size="36.6667" font-style="normal" font-weight="400" stroke="none" transform="matrix(7.33333,0,0,7.33333,0,0)">
            <path d="M4.96268,3.90096 L14.099,13.0373 C14.3922,13.3305 14.3922,13.8059 14.099,14.099 C13.8059,14.3922 13.3305,14.3922 13.0373,14.099 L3.90096,4.96268 C3.60777,4.66949 3.60777,4.19414 3.90096,3.90096 C4.19414,3.60777 4.66949,3.60777 4.96268,3.90096 " fill-rule="nonzero" vector-effect="none"/>
            <path d="M14.099,4.96268 L4.96268,14.099 C4.66949,14.3922 4.19414,14.3922 3.90096,14.099 C3.60777,13.8059 3.60777,13.3305 3.90096,13.0373 L13.0373,3.90096 C13.3305,3.60777 13.8059,3.60777 14.099,3.90096 C14.3922,4.19414 14.3922,4.66949 14.099,4.96268 " fill-rule="nonzero" vector-effect="none"/>
        </g>
    </g>
</svg>
