<?xml version='1.0' encoding='UTF-8' standalone='no'?>
<svg width="12.7mm" viewBox="0 0 132 132" baseProfile="tiny" xmlns="http://www.w3.org/2000/svg" xmlns:xlink="http://www.w3.org/1999/xlink" version="1.2" height="12.7mm">
    <style id="current-color-scheme" type="text/css">.ColorScheme-Text {color:#232629;}</style>
    <title>Qt SVG Document</title>
    <desc>Auto-generated by Klassy window decoration</desc>
    <defs/>
    <g stroke-linecap="square" fill-rule="evenodd" stroke-linejoin="bevel" stroke-width="1" fill="none" stroke="black">
        <g class="ColorScheme-Text" font-weight="400" font-family="Noto Sans" font-size="36.6667" transform="matrix(7.33333,0,0,7.33333,31.5,49.5)" fill-opacity="1" fill="currentColor" font-style="normal" stroke="none">
            <path fill-rule="nonzero" vector-effect="none" d="M0,-0.75 L7.09091,-0.75 L7.84091,0 L7.84091,7.09091 L7.09091,7.84091 L0,7.84091 L-0.75,7.09091 L-0.75,0 L0,-0.75 M0.75,0 L0.75,7.09091 L0,7.09091 L0,6.34091 L7.09091,6.34091 L7.09091,7.09091 L6.34091,7.09091 L6.34091,0 L7.09091,0 L7.09091,0.75 L0,0.75 L0,0 L0.75,0"/>
        </g>
        <g class="ColorScheme-Text" font-weight="400" font-family="Noto Sans" font-size="36.6667" transform="matrix(7.33333,0,0,7.33333,31.5,49.5)" fill-opacity="1" fill="currentColor" font-style="normal" stroke="none">
            <path fill-rule="nonzero" vector-effect="none" d="M1.70455,-0.75 L1.70455,-2.45455 L2.45455,-3.20455 L9.54545,-3.20455 L10.2955,-2.45455 L10.2955,4.63636 L9.54545,5.38636 L7.84091,5.38636 L7.84091,3.88636 L9.54545,3.88636 L9.54545,4.63636 L8.79545,4.63636 L8.79545,-2.45455 L9.54545,-2.45455 L9.54545,-1.70455 L2.45455,-1.70455 L2.45455,-2.45455 L3.20455,-2.45455 L3.20455,-0.75 L1.70455,-0.75"/>
        </g>
    </g>
</svg>
