<?xml version='1.0' encoding='UTF-8' standalone='no'?>
<svg version="1.2" xmlns:xlink="http://www.w3.org/1999/xlink" viewBox="0 0 132 132" xmlns="http://www.w3.org/2000/svg" width="12.7mm" height="12.7mm" baseProfile="tiny">
    <style id="current-color-scheme" type="text/css">.ColorScheme-Text {color:#232629;}</style>
    <title>Qt SVG Document</title>
    <desc>Auto-generated by Klassy window decoration</desc>
    <defs/>
    <g stroke-linejoin="bevel" stroke-linecap="square" fill="none" stroke-width="1" stroke="black" fill-rule="evenodd">
        <g font-weight="400" class="ColorScheme-Text" font-size="36.6667" fill="currentColor" transform="matrix(7.33333,0,0,7.33333,54.5,54.5)" font-style="normal" stroke="none" font-family="Noto Sans" fill-opacity="0.650004">
            <rect y="0" x="0" width="3.13636" height="3.13636"/>
        </g>
        <g font-weight="400" class="ColorScheme-Text" font-size="36.6667" fill="currentColor" transform="matrix(7.33333,0,0,7.33333,54.5,54.5)" font-style="normal" stroke="none" font-family="Noto Sans" fill-opacity="0.850004">
            <path vector-effect="none" fill-rule="nonzero" d="M0,-0.47775 L3.13636,-0.47775 L3.61411,0 L3.61411,3.13636 L3.13636,3.61411 L0,3.61411 L-0.47775,3.13636 L-0.47775,0 L0,-0.47775 M0.47775,0 L0.47775,3.13636 L0,3.13636 L0,2.65861 L3.13636,2.65861 L3.13636,3.13636 L2.65861,3.13636 L2.65861,0 L3.13636,0 L3.13636,0.47775 L0,0.47775 L0,0 L0.47775,0"/>
        </g>
    </g>
</svg>
