<?xml version='1.0' encoding='UTF-8' standalone='no'?>
<svg baseProfile="tiny" height="12.7mm" version="1.2" viewBox="0 0 132 132" width="12.7mm" xmlns="http://www.w3.org/2000/svg" xmlns:xlink="http://www.w3.org/1999/xlink">
    <style id="current-color-scheme" type="text/css">.ColorScheme-Text {color:#232629;}</style>
    <title>Qt SVG Document</title>
    <desc>Auto-generated by Klassy window decoration</desc>
    <defs/>
    <g fill="none" fill-rule="evenodd" stroke="black" stroke-linecap="square" stroke-linejoin="bevel" stroke-width="1">
        <g class="ColorScheme-Text" fill="currentColor" fill-opacity="0.949996" font-family="Noto Sans" font-size="36.6667" font-style="normal" font-weight="400" stroke="none" transform="matrix(7.33333,0,0,7.33333,31.5,49.5)">
            <path d="M0,-0.75075 L7.09091,-0.75075 L7.84166,0 L7.84166,7.09091 L7.09091,7.84166 L0,7.84166 L-0.75075,7.09091 L-0.75075,0 L0,-0.75075 M0.75075,0 L0.75075,7.09091 L0,7.09091 L0,6.34016 L7.09091,6.34016 L7.09091,7.09091 L6.34016,7.09091 L6.34016,0 L7.09091,0 L7.09091,0.75075 L0,0.75075 L0,0 L0.75075,0" fill-rule="nonzero" vector-effect="none"/>
        </g>
        <g class="ColorScheme-Text" fill="currentColor" fill-opacity="0.949996" font-family="Noto Sans" font-size="36.6667" font-style="normal" font-weight="400" stroke="none" transform="matrix(7.33333,0,0,7.33333,31.5,49.5)">
            <path d="M1.7038,-0.75075 L1.7038,-2.45455 L2.45455,-3.2053 L9.54545,-3.2053 L10.2962,-2.45455 L10.2962,4.63636 L9.54545,5.38711 L7.84166,5.38711 L7.84166,3.88561 L9.54545,3.88561 L9.54545,4.63636 L8.7947,4.63636 L8.7947,-2.45455 L9.54545,-2.45455 L9.54545,-1.7038 L2.45455,-1.7038 L2.45455,-2.45455 L3.2053,-2.45455 L3.2053,-0.75075 L1.7038,-0.75075" fill-rule="nonzero" vector-effect="none"/>
        </g>
    </g>
</svg>
