<?xml version='1.0' encoding='UTF-8' standalone='no'?>
<svg width="12.7mm" viewBox="0 0 132 132" baseProfile="tiny" xmlns="http://www.w3.org/2000/svg" xmlns:xlink="http://www.w3.org/1999/xlink" version="1.2" height="12.7mm">
    <style id="current-color-scheme" type="text/css">.ColorScheme-Text {color:#232629;}</style>
    <title>Qt SVG Document</title>
    <desc>Auto-generated by Klassy window decoration</desc>
    <defs/>
    <g stroke-linecap="square" fill-rule="evenodd" stroke-linejoin="bevel" stroke-width="1" fill="none" stroke="black">
        <g class="ColorScheme-Text" font-weight="400" font-family="Noto Sans" font-size="36.6667" transform="matrix(7.33333,0,0,7.33333,0,0)" fill-opacity="1" fill="currentColor" font-style="normal" stroke="none">
            <path fill-rule="nonzero" vector-effect="none" d="M4.43182,12 L8.52273,12 C8.86163,12 9.13636,12.2747 9.13636,12.6136 C9.13636,12.9525 8.86163,13.2273 8.52273,13.2273 L4.43182,13.2273 C4.09292,13.2273 3.81818,12.9525 3.81818,12.6136 C3.81818,12.2747 4.09292,12 4.43182,12 "/>
            <path fill-rule="nonzero" vector-effect="none" d="M4.43182,7.90909 L8.52273,7.90909 C8.86163,7.90909 9.13636,8.18383 9.13636,8.52273 C9.13636,8.86163 8.86163,9.13636 8.52273,9.13636 L4.43182,9.13636 C4.09292,9.13636 3.81818,8.86163 3.81818,8.52273 C3.81818,8.18383 4.09292,7.90909 4.43182,7.90909 "/>
            <path fill-rule="nonzero" vector-effect="none" d="M4.43182,3.81818 L13.4318,3.81818 C13.7707,3.81818 14.0455,4.09292 14.0455,4.43182 C14.0455,4.77072 13.7707,5.04545 13.4318,5.04545 L4.43182,5.04545 C4.09292,5.04545 3.81818,4.77072 3.81818,4.43182 C3.81818,4.09292 4.09292,3.81818 4.43182,3.81818 "/>
            <path fill-rule="nonzero" vector-effect="none" d="M14.1818,6.47727 L14.1818,14.5227 C14.1818,14.8616 13.9071,15.1364 13.5682,15.1364 C13.2293,15.1364 12.9545,14.8616 12.9545,14.5227 L12.9545,6.47727 C12.9545,6.13837 13.2293,5.86364 13.5682,5.86364 C13.9071,5.86364 14.1818,6.13837 14.1818,6.47727 "/>
            <path fill-rule="nonzero" vector-effect="none" d="M11.2105,8.10403 L13.1196,6.05858 L13.5682,5.57793 L14.0168,6.05858 L15.9259,8.10403 C16.1571,8.35179 16.1437,8.74009 15.896,8.97133 C15.6482,9.20257 15.2599,9.18918 15.0287,8.94142 L13.1196,6.89597 L13.5682,6.47727 L14.0168,6.89597 L12.1077,8.94142 C11.8765,9.18918 11.4882,9.20257 11.2404,8.97133 C10.9926,8.74009 10.9792,8.35179 11.2105,8.10403 "/>
        </g>
    </g>
</svg>
