<?xml version='1.0' encoding='UTF-8' standalone='no'?>
<svg width="12.7mm" viewBox="0 0 132 132" baseProfile="tiny" xmlns="http://www.w3.org/2000/svg" xmlns:xlink="http://www.w3.org/1999/xlink" version="1.2" height="12.7mm">
    <style id="current-color-scheme" type="text/css">.ColorScheme-Text {color:#232629;}</style>
    <title>Qt SVG Document</title>
    <desc>Auto-generated by Klassy window decoration</desc>
    <defs/>
    <g stroke-linecap="square" fill-rule="evenodd" stroke-linejoin="bevel" stroke-width="1" fill="none" stroke="black">
        <g class="ColorScheme-Text" font-weight="400" font-family="Noto Sans" font-size="36.6667" transform="matrix(7.33333,0,0,7.33333,0,0)" fill-opacity="1" fill="currentColor" font-style="normal" stroke="none">
            <path fill-rule="nonzero" vector-effect="none" d="M4.56818,13.9091 L13.5682,13.9091 C13.9071,13.9091 14.1818,14.1838 14.1818,14.5227 C14.1818,14.8616 13.9071,15.1364 13.5682,15.1364 L4.56818,15.1364 C4.22928,15.1364 3.95455,14.8616 3.95455,14.5227 C3.95455,14.1838 4.22928,13.9091 4.56818,13.9091 "/>
            <path fill-rule="nonzero" vector-effect="none" d="M9.47727,9.81818 L13.5682,9.81818 C13.9071,9.81818 14.1818,10.0929 14.1818,10.4318 C14.1818,10.7707 13.9071,11.0455 13.5682,11.0455 L9.47727,11.0455 C9.13837,11.0455 8.86364,10.7707 8.86364,10.4318 C8.86364,10.0929 9.13837,9.81818 9.47727,9.81818 "/>
            <path fill-rule="nonzero" vector-effect="none" d="M9.47727,5.72727 L13.5682,5.72727 C13.9071,5.72727 14.1818,6.00201 14.1818,6.34091 C14.1818,6.67981 13.9071,6.95455 13.5682,6.95455 L9.47727,6.95455 C9.13837,6.95455 8.86364,6.67981 8.86364,6.34091 C8.86364,6.00201 9.13837,5.72727 9.47727,5.72727 "/>
            <path fill-rule="nonzero" vector-effect="none" d="M5.04545,4.43182 L5.04545,12.4773 C5.04545,12.8162 4.77072,13.0909 4.43182,13.0909 C4.09292,13.0909 3.81818,12.8162 3.81818,12.4773 L3.81818,4.43182 C3.81818,4.09292 4.09292,3.81818 4.43182,3.81818 C4.77072,3.81818 5.04545,4.09292 5.04545,4.43182 "/>
            <path fill-rule="nonzero" vector-effect="none" d="M2.97133,10.0131 L4.88042,12.0586 L4.43182,12.4773 L3.98322,12.0586 L5.89231,10.0131 C6.12355,9.76537 6.51185,9.75198 6.7596,9.98322 C7.00736,10.2145 7.02075,10.6028 6.78951,10.8505 L4.88042,12.896 L4.43182,13.3766 L3.98322,12.896 L2.07413,10.8505 C1.84289,10.6028 1.85628,10.2145 2.10403,9.98322 C2.35179,9.75198 2.74009,9.76537 2.97133,10.0131 "/>
        </g>
    </g>
</svg>
