<?xml version='1.0' encoding='UTF-8' standalone='no'?>
<svg baseProfile="tiny" height="12.7mm" version="1.2" viewBox="0 0 132 132" width="12.7mm" xmlns="http://www.w3.org/2000/svg" xmlns:xlink="http://www.w3.org/1999/xlink">
    <style id="current-color-scheme" type="text/css">.ColorScheme-Text {color:#232629;}</style>
    <title>Qt SVG Document</title>
    <desc>Auto-generated by Klassy window decoration</desc>
    <defs/>
    <g fill="none" fill-rule="evenodd" stroke="black" stroke-linecap="square" stroke-linejoin="bevel" stroke-width="1">
        <g class="ColorScheme-Text" fill="currentColor" fill-opacity="0.549996" font-family="Noto Sans" font-size="36.6667" font-style="normal" font-weight="400" stroke="none" transform="matrix(7.33333,0,0,7.33333,54.5,54.5)">
            <rect height="3.13636" width="3.13636" x="0" y="0"/>
        </g>
        <g class="ColorScheme-Text" fill="currentColor" fill-opacity="0.902495" font-family="Noto Sans" font-size="36.6667" font-style="normal" font-weight="400" stroke="none" transform="matrix(7.33333,0,0,7.33333,54.5,54.5)">
            <path d="M0,-0.47775 L3.13636,-0.47775 L3.61411,0 L3.61411,3.13636 L3.13636,3.61411 L0,3.61411 L-0.47775,3.13636 L-0.47775,0 L0,-0.47775 M0.47775,0 L0.47775,3.13636 L0,3.13636 L0,2.65861 L3.13636,2.65861 L3.13636,3.13636 L2.65861,3.13636 L2.65861,0 L3.13636,0 L3.13636,0.47775 L0,0.47775 L0,0 L0.47775,0" fill-rule="nonzero" vector-effect="none"/>
        </g>
    </g>
</svg>
