<?xml version='1.0' encoding='UTF-8' standalone='no'?>
<svg width="12.7mm" viewBox="0 0 132 132" baseProfile="tiny" xmlns="http://www.w3.org/2000/svg" xmlns:xlink="http://www.w3.org/1999/xlink" version="1.2" height="12.7mm">
    <style id="current-color-scheme" type="text/css">.ColorScheme-Text {color:#232629;}</style>
    <title>Qt SVG Document</title>
    <desc>Auto-generated by Klassy window decoration</desc>
    <defs/>
    <g stroke-linecap="square" fill-rule="evenodd" stroke-linejoin="bevel" stroke-width="1" fill="none" stroke="black">
        <g class="ColorScheme-Text" font-weight="400" font-family="Noto Sans" font-size="36.6667" transform="matrix(7.33333,0,0,7.33333,0,0)" fill-opacity="1" fill="currentColor" font-style="normal" stroke="none">
            <path fill-rule="nonzero" vector-effect="none" d="M4.99807,3.86557 L14.1344,13.0019 C14.4472,13.3147 14.4472,13.8217 14.1344,14.1344 C13.8217,14.4472 13.3147,14.4472 13.0019,14.1344 L3.86557,4.99807 C3.55284,4.68534 3.55284,4.1783 3.86557,3.86557 C4.1783,3.55284 4.68534,3.55284 4.99807,3.86557 "/>
            <path fill-rule="nonzero" vector-effect="none" d="M14.1344,4.99807 L4.99807,14.1344 C4.68534,14.4472 4.1783,14.4472 3.86557,14.1344 C3.55284,13.8217 3.55284,13.3147 3.86557,13.0019 L13.0019,3.86557 C13.3147,3.55284 13.8217,3.55284 14.1344,3.86557 C14.4472,4.1783 14.4472,4.68534 14.1344,4.99807 "/>
        </g>
    </g>
</svg>
