<?xml version='1.0' encoding='UTF-8' standalone='no'?>
<svg baseProfile="tiny" height="4.86833mm" version="1.2" viewBox="0 0 23 23" width="4.86833mm" xmlns="http://www.w3.org/2000/svg" xmlns:xlink="http://www.w3.org/1999/xlink">
    <style id="current-color-scheme" type="text/css">.ColorScheme-Text {color:#fcfcfc;}</style>
    <title>Qt SVG Document</title>
    <desc>Auto-generated by Klassy window decoration</desc>
    <defs/>
    <g fill="none" fill-rule="evenodd" stroke="black" stroke-linecap="square" stroke-linejoin="bevel" stroke-width="1">
        <g class="ColorScheme-Text" fill="currentColor" fill-opacity="0.949996" font-family="Noto Sans" font-size="16.6667" font-style="normal" font-weight="400" stroke="none" transform="matrix(1.27778,0,0,1.27778,5,10)">
            <path d="M0,-0.783391 L7.04348,-0.783391 L7.82687,0 L7.82687,7.04348 L7.04348,7.82687 L0,7.82687 L-0.783391,7.04348 L-0.783391,0 L0,-0.783391 M0.783391,0 L0.783391,7.04348 L0,7.04348 L0,6.26009 L7.04348,6.26009 L7.04348,7.04348 L6.26009,7.04348 L6.26009,0 L7.04348,0 L7.04348,0.783391 L0,0.783391 L0,0 L0.783391,0" fill-rule="nonzero" vector-effect="none"/>
        </g>
        <g class="ColorScheme-Text" fill="currentColor" fill-opacity="0.949996" font-family="Noto Sans" font-size="16.6667" font-style="normal" font-weight="400" stroke="none" transform="matrix(1.27778,0,0,1.27778,5,10)">
            <path d="M2.34704,-0.783391 L2.34704,-3.13043 L3.13043,-3.91383 L10.1739,-3.91383 L10.9573,-3.13043 L10.9573,3.91304 L10.1739,4.69643 L7.82687,4.69643 L7.82687,3.12965 L10.1739,3.12965 L10.1739,3.91304 L9.39052,3.91304 L9.39052,-3.13043 L10.1739,-3.13043 L10.1739,-2.34704 L3.13043,-2.34704 L3.13043,-3.13043 L3.91383,-3.13043 L3.91383,-0.783391 L2.34704,-0.783391" fill-rule="nonzero" vector-effect="none"/>
        </g>
    </g>
</svg>
