<?xml version='1.0' encoding='UTF-8' standalone='no'?>
<svg version="1.2" xmlns:xlink="http://www.w3.org/1999/xlink" viewBox="0 0 23 23" xmlns="http://www.w3.org/2000/svg" width="4.86833mm" height="4.86833mm" baseProfile="tiny">
    <style id="current-color-scheme" type="text/css">.ColorScheme-Text {color:#fcfcfc;}</style>
    <title>Qt SVG Document</title>
    <desc>Auto-generated by Klassy window decoration</desc>
    <defs/>
    <g stroke-linejoin="bevel" stroke-linecap="square" fill="none" stroke-width="1" stroke="black" fill-rule="evenodd">
        <g font-weight="400" class="ColorScheme-Text" font-size="16.6667" fill="currentColor" transform="matrix(1.27778,0,0,1.27778,0,0)" font-style="normal" stroke="none" font-family="Noto Sans" fill-opacity="1">
            <path vector-effect="none" fill-rule="nonzero" d="M4.69565,14.0862 L13.3043,14.0862 L13.3043,15.653 L4.69565,15.653 L4.69565,14.0862"/>
            <path vector-effect="none" fill-rule="nonzero" d="M9.3913,9.39052 L13.3043,9.39052 L13.3043,10.9573 L9.3913,10.9573 L9.3913,9.39052"/>
            <path vector-effect="none" fill-rule="nonzero" d="M9.3913,4.69487 L13.3043,4.69487 L13.3043,6.26165 L9.3913,6.26165 L9.3913,4.69487"/>
            <path vector-effect="none" fill-rule="nonzero" d="M5.47904,4.69565 L5.47904,12.5217 L3.91226,12.5217 L3.91226,4.69565 L5.47904,4.69565"/>
            <path vector-effect="none" fill-rule="nonzero" d="M2.51046,9.22867 L5.24959,11.9678 L4.69565,12.5217 L4.14171,11.9678 L6.88084,9.22867 L7.98872,10.3365 L5.24959,13.0757 L4.69565,13.6296 L4.14171,13.0757 L1.40258,10.3365 L2.51046,9.22867"/>
        </g>
    </g>
</svg>
