<?xml version='1.0' encoding='UTF-8' standalone='no'?>
<svg baseProfile="tiny" height="4.86833mm" version="1.2" viewBox="0 0 23 23" width="4.86833mm" xmlns="http://www.w3.org/2000/svg" xmlns:xlink="http://www.w3.org/1999/xlink">
    <style id="current-color-scheme" type="text/css">.ColorScheme-Text {color:#fcfcfc;}</style>
    <title>Qt SVG Document</title>
    <desc>Auto-generated by Klassy window decoration</desc>
    <defs/>
    <g fill="none" fill-rule="evenodd" stroke="black" stroke-linecap="square" stroke-linejoin="bevel" stroke-width="1">
        <g class="ColorScheme-Text" fill="currentColor" fill-opacity="1" font-family="Noto Sans" font-size="16.6667" font-style="normal" font-weight="400" stroke="none" transform="matrix(1.27778,0,0,1.27778,0,0)">
            <path d="M4.69565,11.7383 L8.6087,11.7383 L8.6087,13.3051 L4.69565,13.3051 L4.69565,11.7383" fill-rule="nonzero" vector-effect="none"/>
            <path d="M4.69565,7.8253 L8.6087,7.8253 L8.6087,9.39209 L4.69565,9.39209 L4.69565,7.8253" fill-rule="nonzero" vector-effect="none"/>
            <path d="M4.69565,3.91226 L13.3043,3.91226 L13.3043,5.47904 L4.69565,5.47904 L4.69565,3.91226" fill-rule="nonzero" vector-effect="none"/>
            <path d="M14.0877,6.26087 L14.0877,14.8696 L12.521,14.8696 L12.521,6.26087 L14.0877,6.26087" fill-rule="nonzero" vector-effect="none"/>
            <path d="M10.0113,8.44606 L12.7504,5.70693 L13.3043,5.15299 L13.8583,5.70693 L16.5974,8.44606 L15.4895,9.55394 L12.7504,6.81481 L13.3043,6.26087 L13.8583,6.81481 L11.1192,9.55394 L10.0113,8.44606" fill-rule="nonzero" vector-effect="none"/>
        </g>
    </g>
</svg>
