<?xml version='1.0' encoding='UTF-8' standalone='no'?>
<svg version="1.2" xmlns:xlink="http://www.w3.org/1999/xlink" viewBox="0 0 23 23" xmlns="http://www.w3.org/2000/svg" width="4.86833mm" height="4.86833mm" baseProfile="tiny">
    <style id="current-color-scheme" type="text/css">.ColorScheme-Text {color:#fcfcfc;}</style>
    <title>Qt SVG Document</title>
    <desc>Auto-generated by Klassy window decoration</desc>
    <defs/>
    <g stroke-linejoin="bevel" stroke-linecap="square" fill="none" stroke-width="1" stroke="black" fill-rule="evenodd">
        <g font-weight="400" class="ColorScheme-Text" font-size="16.6667" fill="currentColor" transform="matrix(1.27778,0,0,1.27778,9.5,9.5)" font-style="normal" stroke="none" font-family="Noto Sans" fill-opacity="0.650004">
            <rect y="0" x="0" width="3.91304" height="3.91304"/>
        </g>
        <g font-weight="400" class="ColorScheme-Text" font-size="16.6667" fill="currentColor" transform="matrix(1.27778,0,0,1.27778,9.5,9.5)" font-style="normal" stroke="none" font-family="Noto Sans" fill-opacity="0.850004">
            <path vector-effect="none" fill-rule="nonzero" d="M0,-0.391696 L3.91304,-0.391696 L4.30474,0 L4.30474,3.91304 L3.91304,4.30474 L0,4.30474 L-0.391696,3.91304 L-0.391696,0 L0,-0.391696 M0.391696,0 L0.391696,3.91304 L0,3.91304 L0,3.52135 L3.91304,3.52135 L3.91304,3.91304 L3.52135,3.91304 L3.52135,0 L3.91304,0 L3.91304,0.391696 L0,0.391696 L0,0 L0.391696,0"/>
        </g>
    </g>
</svg>
