<?xml version='1.0' encoding='UTF-8' standalone='no'?>
<svg width="4.86833mm" viewBox="0 0 23 23" baseProfile="tiny" xmlns="http://www.w3.org/2000/svg" xmlns:xlink="http://www.w3.org/1999/xlink" version="1.2" height="4.86833mm">
    <style id="current-color-scheme" type="text/css">.ColorScheme-Text {color:#fcfcfc;}</style>
    <title>Qt SVG Document</title>
    <desc>Auto-generated by Klassy window decoration</desc>
    <defs/>
    <g stroke-linecap="square" fill-rule="evenodd" stroke-linejoin="bevel" stroke-width="1" fill="none" stroke="black">
        <g class="ColorScheme-Text" font-weight="400" font-family="Noto Sans" font-size="16.6667" transform="matrix(1.27778,0,0,1.27778,0,0)" fill-opacity="1" fill="currentColor" font-style="normal" stroke="none">
            <path fill-rule="nonzero" vector-effect="none" d="M3.91304,4.69683 C3.91304,4.37201 4.37201,3.91304 4.69683,3.91304 L14.0858,3.91304 C14.4106,3.91304 14.8696,4.37201 14.8696,4.69683 L14.8696,14.0858 C14.8696,14.4106 14.4106,14.8696 14.0858,14.8696 L4.69683,14.8696 C4.37201,14.8696 3.91304,14.4106 3.91304,14.0858 L3.91304,4.69683 M5.47826,4.69683 L5.47826,14.0858 C5.47826,13.7623 5.02034,13.3043 4.69683,13.3043 L14.0858,13.3043 C13.7623,13.3043 13.3043,13.7623 13.3043,14.0858 L13.3043,4.69683 C13.3043,5.02034 13.7623,5.47826 14.0858,5.47826 L4.69683,5.47826 C5.02034,5.47826 5.47826,5.02034 5.47826,4.69683 "/>
        </g>
    </g>
</svg>
