<?xml version='1.0' encoding='UTF-8' standalone='no'?>
<svg width="4.86833mm" viewBox="0 0 23 23" baseProfile="tiny" xmlns="http://www.w3.org/2000/svg" xmlns:xlink="http://www.w3.org/1999/xlink" version="1.2" height="4.86833mm">
    <style id="current-color-scheme" type="text/css">.ColorScheme-Text {color:#fcfcfc;}</style>
    <title>Qt SVG Document</title>
    <desc>Auto-generated by Klassy window decoration</desc>
    <defs/>
    <g stroke-linecap="square" fill-rule="evenodd" stroke-linejoin="bevel" stroke-width="1" fill="none" stroke="black">
        <g class="ColorScheme-Text" font-weight="400" font-family="Noto Sans" font-size="16.6667" transform="matrix(1.27778,0,0,1.27778,0,0)" fill-opacity="1" fill="currentColor" font-style="normal" stroke="none">
            <path fill-rule="nonzero" vector-effect="none" d="M4.69565,11.7391 L8.6087,11.7391 L8.6087,13.3043 L4.69565,13.3043 L4.69565,11.7391"/>
            <path fill-rule="nonzero" vector-effect="none" d="M4.69565,7.82609 L8.6087,7.82609 L8.6087,9.3913 L4.69565,9.3913 L4.69565,7.82609"/>
            <path fill-rule="nonzero" vector-effect="none" d="M4.69565,3.91304 L13.3043,3.91304 L13.3043,5.47826 L4.69565,5.47826 L4.69565,3.91304"/>
            <path fill-rule="nonzero" vector-effect="none" d="M14.087,6.26087 L14.087,14.8696 L12.5217,14.8696 L12.5217,6.26087 L14.087,6.26087"/>
            <path fill-rule="nonzero" vector-effect="none" d="M10.0118,8.44661 L12.751,5.70748 L13.3043,5.15409 L13.8577,5.70748 L16.5969,8.44661 L15.4901,9.55339 L12.751,6.81426 L13.3043,6.26087 L13.8577,6.81426 L11.1186,9.55339 L10.0118,8.44661"/>
        </g>
    </g>
</svg>
