<?xml version='1.0' encoding='UTF-8' standalone='no'?>
<svg version="1.2" xmlns:xlink="http://www.w3.org/1999/xlink" viewBox="0 0 23 23" xmlns="http://www.w3.org/2000/svg" width="4.86833mm" height="4.86833mm" baseProfile="tiny">
    <style id="current-color-scheme" type="text/css">.ColorScheme-Text {color:#fcfcfc;}</style>
    <title>Qt SVG Document</title>
    <desc>Auto-generated by Klassy window decoration</desc>
    <defs/>
    <g stroke-linejoin="bevel" stroke-linecap="square" fill="none" stroke-width="1" stroke="black" fill-rule="evenodd">
        <g font-weight="400" class="ColorScheme-Text" font-size="16.6667" fill="currentColor" transform="matrix(1.27778,0,0,1.27778,0,0)" font-style="normal" stroke="none" font-family="Noto Sans" fill-opacity="1">
            <path vector-effect="none" fill-rule="nonzero" d="M3.91226,4.69683 C3.91226,4.37169 4.37169,3.91226 4.69683,3.91226 L14.0858,3.91226 C14.4109,3.91226 14.8703,4.37169 14.8703,4.69683 L14.8703,14.0858 C14.8703,14.4109 14.4109,14.8703 14.0858,14.8703 L4.69683,14.8703 C4.37169,14.8703 3.91226,14.4109 3.91226,14.0858 L3.91226,4.69683 M5.47904,4.69683 L5.47904,14.0858 C5.47904,13.7619 5.02067,13.3036 4.69683,13.3036 L14.0858,13.3036 C13.7619,13.3036 13.3036,13.7619 13.3036,14.0858 L13.3036,4.69683 C13.3036,5.02067 13.7619,5.47904 14.0858,5.47904 L4.69683,5.47904 C5.02067,5.47904 5.47904,5.02067 5.47904,4.69683 "/>
        </g>
    </g>
</svg>
