<?xml version='1.0' encoding='UTF-8' standalone='no'?>
<svg version="1.2" xmlns:xlink="http://www.w3.org/1999/xlink" viewBox="0 0 84 84" xmlns="http://www.w3.org/2000/svg" width="12.7mm" height="12.7mm" baseProfile="tiny">
    <style id="current-color-scheme" type="text/css">.ColorScheme-Text {color:#fcfcfc;}</style>
    <title>Qt SVG Document</title>
    <desc>Auto-generated by Klassy window decoration</desc>
    <defs/>
    <g stroke-linejoin="bevel" stroke-linecap="square" fill="none" stroke-width="1" stroke="black" fill-rule="evenodd">
        <g font-weight="400" class="ColorScheme-Text" font-size="23.3333" fill="currentColor" transform="matrix(4.66667,0,0,4.66667,34.5,34.5)" font-style="normal" stroke="none" font-family="Noto Sans" fill-opacity="0.650004">
            <rect y="0" x="0" width="3.21429" height="3.21429"/>
        </g>
        <g font-weight="400" class="ColorScheme-Text" font-size="23.3333" fill="currentColor" transform="matrix(4.66667,0,0,4.66667,34.5,34.5)" font-style="normal" stroke="none" font-family="Noto Sans" fill-opacity="0.850004">
            <path vector-effect="none" fill-rule="nonzero" d="M0,-0.53625 L3.21429,-0.53625 L3.75054,0 L3.75054,3.21429 L3.21429,3.75054 L0,3.75054 L-0.53625,3.21429 L-0.53625,0 L0,-0.53625 M0.53625,0 L0.53625,3.21429 L0,3.21429 L0,2.67804 L3.21429,2.67804 L3.21429,3.21429 L2.67804,3.21429 L2.67804,0 L3.21429,0 L3.21429,0.53625 L0,0.53625 L0,0 L0.53625,0"/>
        </g>
    </g>
</svg>
