<?xml version='1.0' encoding='UTF-8' standalone='no'?>
<svg version="1.2" xmlns:xlink="http://www.w3.org/1999/xlink" viewBox="0 0 84 84" xmlns="http://www.w3.org/2000/svg" width="12.7mm" height="12.7mm" baseProfile="tiny">
    <style id="current-color-scheme" type="text/css">.ColorScheme-Text {color:#fcfcfc;}</style>
    <title>Qt SVG Document</title>
    <desc>Auto-generated by Klassy window decoration</desc>
    <defs/>
    <g stroke-linejoin="bevel" stroke-linecap="square" fill="none" stroke-width="1" stroke="black" fill-rule="evenodd">
        <g font-weight="400" class="ColorScheme-Text" font-size="23.3333" fill="currentColor" transform="matrix(4.66667,0,0,4.66667,19.5,31.5)" font-style="normal" stroke="none" font-family="Noto Sans" fill-opacity="1">
            <path vector-effect="none" fill-rule="nonzero" d="M0,-0.75075 L7.07143,-0.75075 L7.82218,0 L7.82218,7.07143 L7.07143,7.82218 L0,7.82218 L-0.75075,7.07143 L-0.75075,0 L0,-0.75075 M0.75075,0 L0.75075,7.07143 L0,7.07143 L0,6.32068 L7.07143,6.32068 L7.07143,7.07143 L6.32068,7.07143 L6.32068,0 L7.07143,0 L7.07143,0.75075 L0,0.75075 L0,0 L0.75075,0"/>
        </g>
        <g font-weight="400" class="ColorScheme-Text" font-size="23.3333" fill="currentColor" transform="matrix(4.66667,0,0,4.66667,19.5,31.5)" font-style="normal" stroke="none" font-family="Noto Sans" fill-opacity="1">
            <path vector-effect="none" fill-rule="nonzero" d="M1.82068,-0.75075 L1.82068,-2.57143 L2.57143,-3.32218 L9.64286,-3.32218 L10.3936,-2.57143 L10.3936,4.5 L9.64286,5.25075 L7.82218,5.25075 L7.82218,3.74925 L9.64286,3.74925 L9.64286,4.5 L8.89211,4.5 L8.89211,-2.57143 L9.64286,-2.57143 L9.64286,-1.82068 L2.57143,-1.82068 L2.57143,-2.57143 L3.32218,-2.57143 L3.32218,-0.75075 L1.82068,-0.75075"/>
        </g>
    </g>
</svg>
