<?xml version='1.0' encoding='UTF-8' standalone='no'?>
<svg width="12.7mm" viewBox="0 0 84 84" baseProfile="tiny" xmlns="http://www.w3.org/2000/svg" xmlns:xlink="http://www.w3.org/1999/xlink" version="1.2" height="12.7mm">
    <style id="current-color-scheme" type="text/css">.ColorScheme-Text {color:#fcfcfc;}</style>
    <title>Qt SVG Document</title>
    <desc>Auto-generated by Klassy window decoration</desc>
    <defs/>
    <g stroke-linecap="square" fill-rule="evenodd" stroke-linejoin="bevel" stroke-width="1" fill="none" stroke="black">
        <g class="ColorScheme-Text" font-weight="400" font-family="Noto Sans" font-size="23.3333" transform="matrix(4.66667,0,0,4.66667,0,0)" fill-opacity="1" fill="currentColor" font-style="normal" stroke="none">
            <path fill-rule="nonzero" vector-effect="none" d="M4.5,13.9286 L13.5,13.9286 C13.855,13.9286 14.1429,14.2164 14.1429,14.5714 C14.1429,14.9265 13.855,15.2143 13.5,15.2143 L4.5,15.2143 C4.14496,15.2143 3.85714,14.9265 3.85714,14.5714 C3.85714,14.2164 4.14496,13.9286 4.5,13.9286 "/>
            <path fill-rule="nonzero" vector-effect="none" d="M9.42857,9.85714 L13.5,9.85714 C13.855,9.85714 14.1429,10.145 14.1429,10.5 C14.1429,10.855 13.855,11.1429 13.5,11.1429 L9.42857,11.1429 C9.07353,11.1429 8.78571,10.855 8.78571,10.5 C8.78571,10.145 9.07353,9.85714 9.42857,9.85714 "/>
            <path fill-rule="nonzero" vector-effect="none" d="M9.42857,5.78571 L13.5,5.78571 C13.855,5.78571 14.1429,6.07353 14.1429,6.42857 C14.1429,6.78361 13.855,7.07143 13.5,7.07143 L9.42857,7.07143 C9.07353,7.07143 8.78571,6.78361 8.78571,6.42857 C8.78571,6.07353 9.07353,5.78571 9.42857,5.78571 "/>
            <path fill-rule="nonzero" vector-effect="none" d="M5.14286,4.5 L5.14286,12.4286 C5.14286,12.7836 4.85504,13.0714 4.5,13.0714 C4.14496,13.0714 3.85714,12.7836 3.85714,12.4286 L3.85714,4.5 C3.85714,4.14496 4.14496,3.85714 4.5,3.85714 C4.85504,3.85714 5.14286,4.14496 5.14286,4.5 "/>
            <path fill-rule="nonzero" vector-effect="none" d="M3.026,10.0454 L4.95457,11.974 L4.5,12.4286 L4.04543,11.974 L5.974,10.0454 C6.22505,9.79438 6.63209,9.79438 6.88314,10.0454 C7.13419,10.2965 7.13419,10.7035 6.88314,10.9546 L4.95457,12.8831 L4.5,13.3377 L4.04543,12.8831 L2.11686,10.9546 C1.86581,10.7035 1.86581,10.2965 2.11686,10.0454 C2.36791,9.79438 2.77495,9.79438 3.026,10.0454 "/>
        </g>
    </g>
</svg>
