<?xml version='1.0' encoding='UTF-8' standalone='no'?>
<svg baseProfile="tiny" height="12.7mm" version="1.2" viewBox="0 0 84 84" width="12.7mm" xmlns="http://www.w3.org/2000/svg" xmlns:xlink="http://www.w3.org/1999/xlink">
    <style id="current-color-scheme" type="text/css">.ColorScheme-Text {color:#fcfcfc;}</style>
    <title>Qt SVG Document</title>
    <desc>Auto-generated by Klassy window decoration</desc>
    <defs/>
    <g fill="none" fill-rule="evenodd" stroke="black" stroke-linecap="square" stroke-linejoin="bevel" stroke-width="1">
        <g class="ColorScheme-Text" fill="currentColor" fill-opacity="0.549996" font-family="Noto Sans" font-size="23.3333" font-style="normal" font-weight="400" stroke="none" transform="matrix(4.66667,0,0,4.66667,34.5,34.5)">
            <rect height="3.21429" width="3.21429" x="0" y="0"/>
        </g>
        <g class="ColorScheme-Text" fill="currentColor" fill-opacity="0.902495" font-family="Noto Sans" font-size="23.3333" font-style="normal" font-weight="400" stroke="none" transform="matrix(4.66667,0,0,4.66667,34.5,34.5)">
            <path d="M0,-0.53625 L3.21429,-0.53625 L3.75054,0 L3.75054,3.21429 L3.21429,3.75054 L0,3.75054 L-0.53625,3.21429 L-0.53625,0 L0,-0.53625 M0.53625,0 L0.53625,3.21429 L0,3.21429 L0,2.67804 L3.21429,2.67804 L3.21429,3.21429 L2.67804,3.21429 L2.67804,0 L3.21429,0 L3.21429,0.53625 L0,0.53625 L0,0 L0.53625,0" fill-rule="nonzero" vector-effect="none"/>
        </g>
    </g>
</svg>
