<?xml version='1.0' encoding='UTF-8' standalone='no'?>
<svg width="12.7mm" viewBox="0 0 84 84" baseProfile="tiny" xmlns="http://www.w3.org/2000/svg" xmlns:xlink="http://www.w3.org/1999/xlink" version="1.2" height="12.7mm">
    <style id="current-color-scheme" type="text/css">.ColorScheme-Text {color:#fcfcfc;}</style>
    <title>Qt SVG Document</title>
    <desc>Auto-generated by Klassy window decoration</desc>
    <defs/>
    <g stroke-linecap="square" fill-rule="evenodd" stroke-linejoin="bevel" stroke-width="1" fill="none" stroke="black">
        <g class="ColorScheme-Text" font-weight="400" font-family="Noto Sans" font-size="23.3333" transform="matrix(4.66667,0,0,4.66667,0,0)" fill-opacity="0.8" fill="currentColor" font-style="normal" stroke="none">
            <path fill-rule="evenodd" vector-effect="none" d="M6.5,8.5 L12,3 L15,6 L9.5,11.5 L6.5,8.5"/>
        </g>
        <g class="ColorScheme-Text" font-weight="400" font-family="Noto Sans" font-size="23.3333" transform="matrix(4.66667,0,0,4.66667,0,0)" fill-opacity="0.8" fill="currentColor" font-style="normal" stroke="none">
            <path fill-rule="nonzero" vector-effect="none" d="M5.85391,7.14609 L10.8539,12.1461 C11.0494,12.3416 11.0494,12.6584 10.8539,12.8539 C10.6584,13.0494 10.3416,13.0494 10.1461,12.8539 L5.14609,7.85391 C4.95064,7.65845 4.95064,7.34155 5.14609,7.14609 C5.34155,6.95064 5.65845,6.95064 5.85391,7.14609 "/>
            <path fill-rule="nonzero" vector-effect="none" d="M8.35391,10.3539 L4.85391,13.8539 C4.65845,14.0494 4.34155,14.0494 4.14609,13.8539 C3.95064,13.6584 3.95064,13.3416 4.14609,13.1461 L7.64609,9.64609 C7.84155,9.45064 8.15845,9.45064 8.35391,9.64609 C8.54936,9.84155 8.54936,10.1584 8.35391,10.3539 "/>
        </g>
    </g>
</svg>
