<?xml version='1.0' encoding='UTF-8' standalone='no'?>
<svg version="1.2" xmlns:xlink="http://www.w3.org/1999/xlink" viewBox="0 0 84 84" xmlns="http://www.w3.org/2000/svg" width="12.7mm" height="12.7mm" baseProfile="tiny">
    <style id="current-color-scheme" type="text/css">.ColorScheme-Text {color:#fcfcfc;}</style>
    <title>Qt SVG Document</title>
    <desc>Auto-generated by Klassy window decoration</desc>
    <defs/>
    <g stroke-linejoin="bevel" stroke-linecap="square" fill="none" stroke-width="1" stroke="black" fill-rule="evenodd">
        <g font-weight="400" class="ColorScheme-Text" font-size="23.3333" fill="currentColor" transform="matrix(4.66667,0,0,4.66667,0,0)" font-style="normal" stroke="none" font-family="Noto Sans" fill-opacity="1">
            <path vector-effect="none" fill-rule="nonzero" d="M4.5,13.9279 L13.5,13.9279 C13.8554,13.9279 14.1435,14.216 14.1435,14.5714 C14.1435,14.9268 13.8554,15.2149 13.5,15.2149 L4.5,15.2149 C4.1446,15.2149 3.8565,14.9268 3.8565,14.5714 C3.8565,14.216 4.1446,13.9279 4.5,13.9279 "/>
            <path vector-effect="none" fill-rule="nonzero" d="M9.42857,9.8565 L13.5,9.8565 C13.8554,9.8565 14.1435,10.1446 14.1435,10.5 C14.1435,10.8554 13.8554,11.1435 13.5,11.1435 L9.42857,11.1435 C9.07318,11.1435 8.78507,10.8554 8.78507,10.5 C8.78507,10.1446 9.07318,9.8565 9.42857,9.8565 "/>
            <path vector-effect="none" fill-rule="nonzero" d="M9.42857,5.78507 L13.5,5.78507 C13.8554,5.78507 14.1435,6.07318 14.1435,6.42857 C14.1435,6.78397 13.8554,7.07207 13.5,7.07207 L9.42857,7.07207 C9.07318,7.07207 8.78507,6.78397 8.78507,6.42857 C8.78507,6.07318 9.07318,5.78507 9.42857,5.78507 "/>
            <path vector-effect="none" fill-rule="nonzero" d="M5.1435,4.5 L5.1435,12.4286 C5.1435,12.784 4.8554,13.0721 4.5,13.0721 C4.1446,13.0721 3.8565,12.784 3.8565,12.4286 L3.8565,4.5 C3.8565,4.1446 4.1446,3.8565 4.5,3.8565 C4.8554,3.8565 5.1435,4.1446 5.1435,4.5 "/>
            <path vector-effect="none" fill-rule="nonzero" d="M3.02645,10.045 L4.95502,11.9735 L4.5,12.4286 L4.04498,11.9735 L5.97355,10.045 C6.22485,9.79367 6.63229,9.79367 6.88359,10.045 C7.1349,10.2963 7.1349,10.7037 6.88359,10.955 L4.95502,12.8836 L4.5,13.3386 L4.04498,12.8836 L2.11641,10.955 C1.8651,10.7037 1.8651,10.2963 2.11641,10.045 C2.36771,9.79367 2.77515,9.79367 3.02645,10.045 "/>
        </g>
    </g>
</svg>
