<?xml version='1.0' encoding='UTF-8' standalone='no'?>
<svg width="8.46667mm" viewBox="0 0 96 96" baseProfile="tiny" xmlns="http://www.w3.org/2000/svg" xmlns:xlink="http://www.w3.org/1999/xlink" version="1.2" height="8.46667mm">
    <style id="current-color-scheme" type="text/css">.ColorScheme-Text {color:#232629;}</style>
    <title>Qt SVG Document</title>
    <desc>Auto-generated by Klassy window decoration</desc>
    <defs/>
    <g stroke-linecap="square" fill-rule="evenodd" stroke-linejoin="bevel" stroke-width="1" fill="none" stroke="black">
        <g class="ColorScheme-Text" font-weight="400" font-family="Noto Sans" font-size="40" transform="matrix(5.33333,0,0,5.33333,0,0)" fill-opacity="1" fill="currentColor" font-style="normal" stroke="none">
            <path fill-rule="nonzero" vector-effect="none" d="M3.9375,3.9375 L14.0625,3.9375 C14.4249,3.9375 14.7188,4.23131 14.7188,4.59375 C14.7188,4.95619 14.4249,5.25 14.0625,5.25 L3.9375,5.25 C3.57506,5.25 3.28125,4.95619 3.28125,4.59375 C3.28125,4.23131 3.57506,3.9375 3.9375,3.9375 "/>
            <path fill-rule="nonzero" vector-effect="none" d="M3.53596,12.536 L8.53596,7.53596 L9,7.07192 L9.46404,7.53596 L14.464,12.536 C14.7203,12.7922 14.7203,13.2078 14.464,13.464 C14.2078,13.7203 13.7922,13.7203 13.536,13.464 L8.53596,8.46404 L9,8 L9.46404,8.46404 L4.46404,13.464 C4.20776,13.7203 3.79224,13.7203 3.53596,13.464 C3.27968,13.2078 3.27968,12.7922 3.53596,12.536 "/>
        </g>
    </g>
</svg>
