<?xml version='1.0' encoding='UTF-8' standalone='no'?>
<svg width="4.7625mm" viewBox="0 0 54 54" baseProfile="tiny" xmlns="http://www.w3.org/2000/svg" xmlns:xlink="http://www.w3.org/1999/xlink" version="1.2" height="4.7625mm">
    <style id="current-color-scheme" type="text/css">.ColorScheme-Text {color:#fcfcfc;}</style>
    <title>Qt SVG Document</title>
    <desc>Auto-generated by Klassy window decoration</desc>
    <defs/>
    <g stroke-linecap="square" fill-rule="evenodd" stroke-linejoin="bevel" stroke-width="1" fill="none" stroke="black">
        <g class="ColorScheme-Text" font-weight="400" font-family="Noto Sans" font-size="40" transform="matrix(3,0,0,3,0,0)" fill-opacity="1" fill="currentColor" font-style="normal" stroke="none">
            <path fill-rule="nonzero" vector-effect="none" d="M4.33333,11.6667 L8.33333,11.6667 C8.70152,11.6667 9,11.9651 9,12.3333 C9,12.7015 8.70152,13 8.33333,13 L4.33333,13 C3.96514,13 3.66667,12.7015 3.66667,12.3333 C3.66667,11.9651 3.96514,11.6667 4.33333,11.6667 "/>
            <path fill-rule="nonzero" vector-effect="none" d="M4.33333,7.66667 L8.33333,7.66667 C8.70152,7.66667 9,7.96514 9,8.33333 C9,8.70152 8.70152,9 8.33333,9 L4.33333,9 C3.96514,9 3.66667,8.70152 3.66667,8.33333 C3.66667,7.96514 3.96514,7.66667 4.33333,7.66667 "/>
            <path fill-rule="nonzero" vector-effect="none" d="M4.33333,3.66667 L13.3333,3.66667 C13.7015,3.66667 14,3.96514 14,4.33333 C14,4.70152 13.7015,5 13.3333,5 L4.33333,5 C3.96514,5 3.66667,4.70152 3.66667,4.33333 C3.66667,3.96514 3.96514,3.66667 4.33333,3.66667 "/>
            <path fill-rule="nonzero" vector-effect="none" d="M14.3333,6.66667 L14.3333,14.6667 C14.3333,15.0349 14.0349,15.3333 13.6667,15.3333 C13.2985,15.3333 13,15.0349 13,14.6667 L13,6.66667 C13,6.29848 13.2985,6 13.6667,6 C14.0349,6 14.3333,6.29848 14.3333,6.66667 "/>
            <path fill-rule="nonzero" vector-effect="none" d="M11.1953,8.19526 L13.1953,6.19526 L13.6667,5.72386 L14.1381,6.19526 L16.1381,8.19526 C16.3984,8.45561 16.3984,8.87772 16.1381,9.13807 C15.8777,9.39842 15.4556,9.39842 15.1953,9.13807 L13.1953,7.13807 L13.6667,6.66667 L14.1381,7.13807 L12.1381,9.13807 C11.8777,9.39842 11.4556,9.39842 11.1953,9.13807 C10.9349,8.87772 10.9349,8.45561 11.1953,8.19526 "/>
        </g>
    </g>
</svg>
