<?xml version='1.0' encoding='UTF-8' standalone='no'?>
<svg version="1.2" xmlns:xlink="http://www.w3.org/1999/xlink" viewBox="0 0 54 54" xmlns="http://www.w3.org/2000/svg" width="4.7625mm" height="4.7625mm" baseProfile="tiny">
    <style id="current-color-scheme" type="text/css">.ColorScheme-Text {color:#fcfcfc;}</style>
    <title>Qt SVG Document</title>
    <desc>Auto-generated by Klassy window decoration</desc>
    <defs/>
    <g stroke-linejoin="bevel" stroke-linecap="square" fill="none" stroke-width="1" stroke="black" fill-rule="evenodd">
        <g font-weight="400" class="ColorScheme-Text" font-size="40" fill="currentColor" transform="matrix(3,0,0,3,0,0)" font-style="normal" stroke="none" font-family="Noto Sans" fill-opacity="1">
            <path vector-effect="none" fill-rule="nonzero" d="M4,3.99933 L14,3.99933 C14.3686,3.99933 14.6673,4.29811 14.6673,4.66667 C14.6673,5.03522 14.3686,5.334 14,5.334 L4,5.334 C3.63144,5.334 3.33267,5.03522 3.33267,4.66667 C3.33267,4.29811 3.63144,3.99933 4,3.99933 "/>
            <path vector-effect="none" fill-rule="nonzero" d="M4.47188,7.52812 L9.47188,12.5281 L9,13 L8.52812,12.5281 L13.5281,7.52812 C13.7887,7.26751 14.2113,7.26751 14.4719,7.52812 C14.7325,7.78873 14.7325,8.21127 14.4719,8.47188 L9.47188,13.4719 L9,13.9438 L8.52812,13.4719 L3.52812,8.47188 C3.26751,8.21127 3.26751,7.78873 3.52812,7.52812 C3.78873,7.26751 4.21127,7.26751 4.47188,7.52812 "/>
        </g>
    </g>
</svg>
