<?xml version='1.0' encoding='UTF-8' standalone='no'?>
<svg width="4.7625mm" viewBox="0 0 54 54" baseProfile="tiny" xmlns="http://www.w3.org/2000/svg" xmlns:xlink="http://www.w3.org/1999/xlink" version="1.2" height="4.7625mm">
    <style id="current-color-scheme" type="text/css">.ColorScheme-Text {color:#fcfcfc;}</style>
    <title>Qt SVG Document</title>
    <desc>Auto-generated by Klassy window decoration</desc>
    <defs/>
    <g stroke-linecap="square" fill-rule="evenodd" stroke-linejoin="bevel" stroke-width="1" fill="none" stroke="black">
        <g class="ColorScheme-Text" font-weight="400" font-family="Noto Sans" font-size="40" transform="matrix(3,0,0,3,0,0)" fill-opacity="1" fill="currentColor" font-style="normal" stroke="none">
            <path fill-rule="nonzero" vector-effect="none" d="M3.66667,4.50113 C3.66667,4.15533 4.15533,3.66667 4.50113,3.66667 L13.4989,3.66667 C13.8447,3.66667 14.3333,4.15533 14.3333,4.50113 L14.3333,13.4989 C14.3333,13.8447 13.8447,14.3333 13.4989,14.3333 L4.50113,14.3333 C4.15533,14.3333 3.66667,13.8447 3.66667,13.4989 L3.66667,4.50113 M5.33333,4.50113 L5.33333,13.4989 C5.33333,13.1543 4.84568,12.6667 4.50113,12.6667 L13.4989,12.6667 C13.1543,12.6667 12.6667,13.1543 12.6667,13.4989 L12.6667,4.50113 C12.6667,4.84568 13.1543,5.33333 13.4989,5.33333 L4.50113,5.33333 C4.84568,5.33333 5.33333,4.84568 5.33333,4.50113 "/>
        </g>
    </g>
</svg>
