<?xml version='1.0' encoding='UTF-8' standalone='no'?>
<svg baseProfile="tiny" height="4.7625mm" version="1.2" viewBox="0 0 54 54" width="4.7625mm" xmlns="http://www.w3.org/2000/svg" xmlns:xlink="http://www.w3.org/1999/xlink">
    <style id="current-color-scheme" type="text/css">.ColorScheme-Text {color:#fcfcfc;}</style>
    <title>Qt SVG Document</title>
    <desc>Auto-generated by Klassy window decoration</desc>
    <defs/>
    <g fill="none" fill-rule="evenodd" stroke="black" stroke-linecap="square" stroke-linejoin="bevel" stroke-width="1">
        <g class="ColorScheme-Text" fill="currentColor" fill-opacity="0.949996" font-family="Noto Sans" font-size="40" font-style="normal" font-weight="400" stroke="none" transform="matrix(3,0,0,3,11.5,21.5)">
            <path d="M0,-0.834167 L7,-0.834167 L7.83417,0 L7.83417,7 L7,7.83417 L0,7.83417 L-0.834167,7 L-0.834167,0 L0,-0.834167 M0.834167,0 L0.834167,7 L0,7 L0,6.16583 L7,6.16583 L7,7 L6.16583,7 L6.16583,0 L7,0 L7,0.834167 L0,0.834167 L0,0 L0.834167,0" fill-rule="nonzero" vector-effect="none"/>
        </g>
        <g class="ColorScheme-Text" fill="currentColor" fill-opacity="0.949996" font-family="Noto Sans" font-size="40" font-style="normal" font-weight="400" stroke="none" transform="matrix(3,0,0,3,11.5,21.5)">
            <path d="M2.49917,-0.834167 L2.49917,-3.33333 L3.33333,-4.1675 L10.3333,-4.1675 L11.1675,-3.33333 L11.1675,3.66667 L10.3333,4.50083 L7.83417,4.50083 L7.83417,2.8325 L10.3333,2.8325 L10.3333,3.66667 L9.49917,3.66667 L9.49917,-3.33333 L10.3333,-3.33333 L10.3333,-2.49917 L3.33333,-2.49917 L3.33333,-3.33333 L4.1675,-3.33333 L4.1675,-0.834167 L2.49917,-0.834167" fill-rule="nonzero" vector-effect="none"/>
        </g>
    </g>
</svg>
