<?xml version='1.0' encoding='UTF-8' standalone='no'?>
<svg baseProfile="tiny" height="4.7625mm" version="1.2" viewBox="0 0 54 54" width="4.7625mm" xmlns="http://www.w3.org/2000/svg" xmlns:xlink="http://www.w3.org/1999/xlink">
    <style id="current-color-scheme" type="text/css">.ColorScheme-Text {color:#fcfcfc;}</style>
    <title>Qt SVG Document</title>
    <desc>Auto-generated by Klassy window decoration</desc>
    <defs/>
    <g fill="none" fill-rule="evenodd" stroke="black" stroke-linecap="square" stroke-linejoin="bevel" stroke-width="1">
        <g class="ColorScheme-Text" fill="currentColor" fill-opacity="1" font-family="Noto Sans" font-size="40" font-style="normal" font-weight="400" stroke="none" transform="matrix(3,0,0,3,0,0)">
            <path d="M5.08984,3.91016 L14.0898,12.9102 C14.4156,13.2359 14.4156,13.7641 14.0898,14.0898 C13.7641,14.4156 13.2359,14.4156 12.9102,14.0898 L3.91016,5.08984 C3.58439,4.76408 3.58439,4.23592 3.91016,3.91016 C4.23592,3.58439 4.76408,3.58439 5.08984,3.91016 " fill-rule="nonzero" vector-effect="none"/>
            <path d="M14.0898,5.08984 L5.08984,14.0898 C4.76408,14.4156 4.23592,14.4156 3.91016,14.0898 C3.58439,13.7641 3.58439,13.2359 3.91016,12.9102 L12.9102,3.91016 C13.2359,3.58439 13.7641,3.58439 14.0898,3.91016 C14.4156,4.23592 14.4156,4.76408 14.0898,5.08984 " fill-rule="nonzero" vector-effect="none"/>
        </g>
    </g>
</svg>
