<?xml version='1.0' encoding='UTF-8' standalone='no'?>
<svg width="4.23333mm" viewBox="0 0 16 16" baseProfile="tiny" xmlns="http://www.w3.org/2000/svg" xmlns:xlink="http://www.w3.org/1999/xlink" version="1.2" height="4.23333mm">
    <style id="current-color-scheme" type="text/css">.ColorScheme-Text {color:#232629;}</style>
    <title>Qt SVG Document</title>
    <desc>Auto-generated by Klassy window decoration</desc>
    <defs/>
    <g stroke-linecap="square" fill-rule="evenodd" stroke-linejoin="bevel" stroke-width="1" fill="none" stroke="black">
        <g class="ColorScheme-Text" font-weight="400" font-family="Noto Sans" font-size="13.3333" transform="matrix(0.888889,0,0,0.888889,0,0)" fill-opacity="1" fill="currentColor" font-style="normal" stroke="none">
            <path fill-rule="nonzero" vector-effect="none" d="M6.39311,4.44732 C6.94422,3.58163 8.08412,2.93694 9.25,2.93694 C10.9865,2.93694 12.5631,4.37021 12.5631,6 C12.5631,8.09799 11.518,8.6205 10.7837,9.04886 C10.0483,9.47786 9.56306,9.80134 9.56306,11.5 C9.56306,11.811 9.31097,12.0631 9,12.0631 C8.68903,12.0631 8.43694,11.811 8.43694,11.5 C8.43694,9.19866 9.45171,8.52214 10.2163,8.07614 C10.982,7.6295 11.4369,7.40201 11.4369,6 C11.4369,4.86837 10.5511,4.06306 9.25,4.06306 C8.38051,4.06306 7.74325,4.42348 7.34307,5.05208 C7.17607,5.3144 6.82804,5.39168 6.56571,5.22468 C6.30339,5.05768 6.22611,4.70964 6.39311,4.44732 "/>
        </g>
        <g class="ColorScheme-Text" font-weight="400" font-family="Noto Sans" font-size="13.3333" transform="matrix(0.888889,0,0,0.888889,0,0)" fill-opacity="1" fill="currentColor" font-style="normal" stroke="none">
            <circle cx="9" r="0.75" cy="15"/>
        </g>
    </g>
</svg>
