<?xml version='1.0' encoding='UTF-8' standalone='no'?>
<svg version="1.2" xmlns:xlink="http://www.w3.org/1999/xlink" viewBox="0 0 16 16" xmlns="http://www.w3.org/2000/svg" width="4.23333mm" height="4.23333mm" baseProfile="tiny">
    <style id="current-color-scheme" type="text/css">.ColorScheme-Text {color:#232629;}</style>
    <title>Qt SVG Document</title>
    <desc>Auto-generated by Klassy window decoration</desc>
    <defs/>
    <g stroke-linejoin="bevel" stroke-linecap="square" fill="none" stroke-width="1" stroke="black" fill-rule="evenodd">
        <g font-weight="400" class="ColorScheme-Text" font-size="13.3333" fill="currentColor" transform="matrix(0.888889,0,0,0.888889,0,0)" font-style="normal" stroke="none" font-family="Noto Sans" fill-opacity="1">
            <path vector-effect="none" fill-rule="nonzero" d="M5.0625,13.4994 L14.0625,13.4994 L14.0625,14.6256 L5.0625,14.6256 L5.0625,13.4994"/>
            <path vector-effect="none" fill-rule="nonzero" d="M9.5625,8.99944 L14.0625,8.99944 L14.0625,10.1256 L9.5625,10.1256 L9.5625,8.99944"/>
            <path vector-effect="none" fill-rule="nonzero" d="M9.5625,4.49944 L14.0625,4.49944 L14.0625,5.62556 L9.5625,5.62556 L9.5625,4.49944"/>
            <path vector-effect="none" fill-rule="nonzero" d="M4.50056,3.9375 L4.50056,12.9375 L3.37444,12.9375 L3.37444,3.9375 L4.50056,3.9375"/>
            <path vector-effect="none" fill-rule="nonzero" d="M2.73282,9.83531 L4.42032,12.6478 L3.9375,12.9375 L3.45468,12.6478 L5.14218,9.83531 L6.10782,10.4147 L4.42032,13.2272 L3.9375,14.0319 L3.45468,13.2272 L1.76718,10.4147 L2.73282,9.83531"/>
        </g>
    </g>
</svg>
