<?xml version='1.0' encoding='UTF-8' standalone='no'?>
<svg baseProfile="tiny" height="4.23333mm" version="1.2" viewBox="0 0 16 16" width="4.23333mm" xmlns="http://www.w3.org/2000/svg" xmlns:xlink="http://www.w3.org/1999/xlink">
    <style id="current-color-scheme" type="text/css">.ColorScheme-Text {color:#232629;}</style>
    <title>Qt SVG Document</title>
    <desc>Auto-generated by Klassy window decoration</desc>
    <defs/>
    <g fill="none" fill-rule="evenodd" stroke="black" stroke-linecap="square" stroke-linejoin="bevel" stroke-width="1">
        <g class="ColorScheme-Text" fill="currentColor" fill-opacity="0.900008" font-family="Noto Sans" font-size="13.3333" font-style="normal" font-weight="400" stroke="none" transform="matrix(0.888889,0,0,0.888889,0,0)">
            <path d="M3.37444,3.93877 C3.37444,3.70484 3.70484,3.37444 3.93877,3.37444 L14.0612,3.37444 C14.2952,3.37444 14.6256,3.70484 14.6256,3.93877 L14.6256,14.0612 C14.6256,14.2952 14.2952,14.6256 14.0612,14.6256 L3.93877,14.6256 C3.70484,14.6256 3.37444,14.2952 3.37444,14.0612 L3.37444,3.93877 M4.50056,3.93877 L4.50056,14.0612 C4.50056,13.8287 4.17129,13.4994 3.93877,13.4994 L14.0612,13.4994 C13.8287,13.4994 13.4994,13.8287 13.4994,14.0612 L13.4994,3.93877 C13.4994,4.17129 13.8287,4.50056 14.0612,4.50056 L3.93877,4.50056 C4.17129,4.50056 4.50056,4.17129 4.50056,3.93877 " fill-rule="nonzero" vector-effect="none"/>
        </g>
    </g>
</svg>
