<?xml version='1.0' encoding='UTF-8' standalone='no'?>
<svg version="1.2" xmlns:xlink="http://www.w3.org/1999/xlink" viewBox="0 0 16 16" xmlns="http://www.w3.org/2000/svg" width="4.23333mm" height="4.23333mm" baseProfile="tiny">
    <style id="current-color-scheme" type="text/css">.ColorScheme-Text {color:#232629;}</style>
    <title>Qt SVG Document</title>
    <desc>Auto-generated by Klassy window decoration</desc>
    <defs/>
    <g stroke-linejoin="bevel" stroke-linecap="square" fill="none" stroke-width="1" stroke="black" fill-rule="evenodd">
        <g font-weight="400" class="ColorScheme-Text" font-size="13.3333" fill="currentColor" transform="matrix(0.888889,0,0,0.888889,0,0)" font-style="normal" stroke="none" font-family="Noto Sans" fill-opacity="1">
            <path vector-effect="none" fill-rule="nonzero" d="M3.9375,12.3744 L8.4375,12.3744 L8.4375,13.5006 L3.9375,13.5006 L3.9375,12.3744"/>
            <path vector-effect="none" fill-rule="nonzero" d="M3.9375,7.87444 L8.4375,7.87444 L8.4375,9.00056 L3.9375,9.00056 L3.9375,7.87444"/>
            <path vector-effect="none" fill-rule="nonzero" d="M3.9375,3.37444 L12.9375,3.37444 L12.9375,4.50056 L3.9375,4.50056 L3.9375,3.37444"/>
            <path vector-effect="none" fill-rule="nonzero" d="M14.6256,6.1875 L14.6256,14.0625 L13.4994,14.0625 L13.4994,6.1875 L14.6256,6.1875"/>
            <path vector-effect="none" fill-rule="nonzero" d="M11.8922,8.71031 L13.5797,5.89781 L14.0625,5.0931 L14.5453,5.89781 L16.2328,8.71031 L15.2672,9.28969 L13.5797,6.47719 L14.0625,6.1875 L14.5453,6.47719 L12.8578,9.28969 L11.8922,8.71031"/>
        </g>
    </g>
</svg>
