<?xml version='1.0' encoding='UTF-8' standalone='no'?>
<svg baseProfile="tiny" height="4.23333mm" version="1.2" viewBox="0 0 16 16" width="4.23333mm" xmlns="http://www.w3.org/2000/svg" xmlns:xlink="http://www.w3.org/1999/xlink">
    <style id="current-color-scheme" type="text/css">.ColorScheme-Text {color:#232629;}</style>
    <title>Qt SVG Document</title>
    <desc>Auto-generated by Klassy window decoration</desc>
    <defs/>
    <g fill="none" fill-rule="evenodd" stroke="black" stroke-linecap="square" stroke-linejoin="bevel" stroke-width="1">
        <g class="ColorScheme-Text" fill="currentColor" fill-opacity="1" font-family="Noto Sans" font-size="13.3333" font-style="normal" font-weight="400" stroke="none" transform="matrix(0.888889,0,0,0.888889,0,0)">
            <path d="M3.9375,12.3744 L8.4375,12.3744 L8.4375,13.5006 L3.9375,13.5006 L3.9375,12.3744" fill-rule="nonzero" vector-effect="none"/>
            <path d="M3.9375,7.87444 L8.4375,7.87444 L8.4375,9.00056 L3.9375,9.00056 L3.9375,7.87444" fill-rule="nonzero" vector-effect="none"/>
            <path d="M3.9375,3.37444 L12.9375,3.37444 L12.9375,4.50056 L3.9375,4.50056 L3.9375,3.37444" fill-rule="nonzero" vector-effect="none"/>
            <path d="M14.6256,6.1875 L14.6256,14.0625 L13.4994,14.0625 L13.4994,6.1875 L14.6256,6.1875" fill-rule="nonzero" vector-effect="none"/>
            <path d="M11.8922,8.71031 L13.5797,5.89781 L14.0625,5.0931 L14.5453,5.89781 L16.2328,8.71031 L15.2672,9.28969 L13.5797,6.47719 L14.0625,6.1875 L14.5453,6.47719 L12.8578,9.28969 L11.8922,8.71031" fill-rule="nonzero" vector-effect="none"/>
        </g>
    </g>
</svg>
