<?xml version='1.0' encoding='UTF-8' standalone='no'?>
<svg baseProfile="tiny" height="4.23333mm" version="1.2" viewBox="0 0 16 16" width="4.23333mm" xmlns="http://www.w3.org/2000/svg" xmlns:xlink="http://www.w3.org/1999/xlink">
    <style id="current-color-scheme" type="text/css">.ColorScheme-Text {color:#232629;}</style>
    <title>Qt SVG Document</title>
    <desc>Auto-generated by Klassy window decoration</desc>
    <defs/>
    <g fill="none" fill-rule="evenodd" stroke="black" stroke-linecap="square" stroke-linejoin="bevel" stroke-width="1">
        <g class="ColorScheme-Text" fill="currentColor" fill-opacity="1" font-family="Noto Sans" font-size="13.3333" font-style="normal" font-weight="400" stroke="none" transform="matrix(0.888889,0,0,0.888889,0,0)">
            <path d="M4.33565,3.53935 L14.4606,13.6644 C14.6805,13.8842 14.6805,14.2408 14.4606,14.4606 C14.2408,14.6805 13.8842,14.6805 13.6644,14.4606 L3.53935,4.33565 C3.31947,4.11576 3.31947,3.75924 3.53935,3.53935 C3.75924,3.31947 4.11576,3.31947 4.33565,3.53935 " fill-rule="nonzero" vector-effect="none"/>
            <path d="M14.4606,4.33565 L4.33565,14.4606 C4.11576,14.6805 3.75924,14.6805 3.53935,14.4606 C3.31947,14.2408 3.31947,13.8842 3.53935,13.6644 L13.6644,3.53935 C13.8842,3.31947 14.2408,3.31947 14.4606,3.53935 C14.6805,3.75924 14.6805,4.11576 14.4606,4.33565 " fill-rule="nonzero" vector-effect="none"/>
        </g>
    </g>
</svg>
