<?xml version='1.0' encoding='UTF-8' standalone='no'?>
<svg width="4.23333mm" viewBox="0 0 16 16" baseProfile="tiny" xmlns="http://www.w3.org/2000/svg" xmlns:xlink="http://www.w3.org/1999/xlink" version="1.2" height="4.23333mm">
    <style id="current-color-scheme" type="text/css">.ColorScheme-Text {color:#232629;}</style>
    <title>Qt SVG Document</title>
    <desc>Auto-generated by Klassy window decoration</desc>
    <defs/>
    <g stroke-linecap="square" fill-rule="evenodd" stroke-linejoin="bevel" stroke-width="1" fill="none" stroke="black">
        <g class="ColorScheme-Text" font-weight="400" font-family="Noto Sans" font-size="13.3333" transform="matrix(0.888889,0,0,0.888889,0,0)" fill-opacity="1" fill="currentColor" font-style="normal" stroke="none">
            <path fill-rule="nonzero" vector-effect="none" d="M5.0625,13.5 L14.0625,13.5 L14.0625,14.625 L5.0625,14.625 L5.0625,13.5"/>
            <path fill-rule="nonzero" vector-effect="none" d="M9.5625,9 L14.0625,9 L14.0625,10.125 L9.5625,10.125 L9.5625,9"/>
            <path fill-rule="nonzero" vector-effect="none" d="M9.5625,4.5 L14.0625,4.5 L14.0625,5.625 L9.5625,5.625 L9.5625,4.5"/>
            <path fill-rule="nonzero" vector-effect="none" d="M4.5,3.9375 L4.5,12.9375 L3.375,12.9375 L3.375,3.9375 L4.5,3.9375"/>
            <path fill-rule="nonzero" vector-effect="none" d="M2.73234,9.8356 L4.41984,12.6481 L3.9375,12.9375 L3.45516,12.6481 L5.14266,9.8356 L6.10734,10.4144 L4.41984,13.2269 L3.9375,14.0308 L3.45516,13.2269 L1.76766,10.4144 L2.73234,9.8356"/>
        </g>
    </g>
</svg>
