<?xml version='1.0' encoding='UTF-8' standalone='no'?>
<svg width="4.23333mm" viewBox="0 0 16 16" baseProfile="tiny" xmlns="http://www.w3.org/2000/svg" xmlns:xlink="http://www.w3.org/1999/xlink" version="1.2" height="4.23333mm">
    <style id="current-color-scheme" type="text/css">.ColorScheme-Text {color:#232629;}</style>
    <title>Qt SVG Document</title>
    <desc>Auto-generated by Klassy window decoration</desc>
    <defs/>
    <g stroke-linecap="square" fill-rule="evenodd" stroke-linejoin="bevel" stroke-width="1" fill="none" stroke="black">
        <g class="ColorScheme-Text" font-weight="400" font-family="Noto Sans" font-size="13.3333" transform="matrix(0.888889,0,0,0.888889,0,0)" fill-opacity="1" fill="currentColor" font-style="normal" stroke="none">
            <path fill-rule="nonzero" vector-effect="none" d="M3.9375,12.375 L8.4375,12.375 L8.4375,13.5 L3.9375,13.5 L3.9375,12.375"/>
            <path fill-rule="nonzero" vector-effect="none" d="M3.9375,7.875 L8.4375,7.875 L8.4375,9 L3.9375,9 L3.9375,7.875"/>
            <path fill-rule="nonzero" vector-effect="none" d="M3.9375,3.375 L12.9375,3.375 L12.9375,4.5 L3.9375,4.5 L3.9375,3.375"/>
            <path fill-rule="nonzero" vector-effect="none" d="M14.625,6.1875 L14.625,14.0625 L13.5,14.0625 L13.5,6.1875 L14.625,6.1875"/>
            <path fill-rule="nonzero" vector-effect="none" d="M11.8927,8.7106 L13.5802,5.8981 L14.0625,5.0942 L14.5448,5.8981 L16.2323,8.7106 L15.2677,9.2894 L13.5802,6.4769 L14.0625,6.1875 L14.5448,6.4769 L12.8573,9.2894 L11.8927,8.7106"/>
        </g>
    </g>
</svg>
