<?xml version='1.0' encoding='UTF-8' standalone='no'?>
<svg width="4.23333mm" viewBox="0 0 16 16" baseProfile="tiny" xmlns="http://www.w3.org/2000/svg" xmlns:xlink="http://www.w3.org/1999/xlink" version="1.2" height="4.23333mm">
    <style id="current-color-scheme" type="text/css">.ColorScheme-Text {color:#232629;}</style>
    <title>Qt SVG Document</title>
    <desc>Auto-generated by Klassy window decoration</desc>
    <defs/>
    <g stroke-linecap="square" fill-rule="evenodd" stroke-linejoin="bevel" stroke-width="1" fill="none" stroke="black">
        <g class="ColorScheme-Text" font-weight="400" font-family="Noto Sans" font-size="13.3333" transform="matrix(0.888889,0,0,0.888889,0,0)" fill-opacity="0.8" fill="currentColor" font-style="normal" stroke="none">
            <path fill-rule="evenodd" vector-effect="none" d="M6.5,8.5 L12,3 L15,6 L9.5,11.5 L6.5,8.5"/>
        </g>
        <g class="ColorScheme-Text" font-weight="400" font-family="Noto Sans" font-size="13.3333" transform="matrix(0.888889,0,0,0.888889,0,0)" fill-opacity="0.8" fill="currentColor" font-style="normal" stroke="none">
            <path fill-rule="nonzero" vector-effect="none" d="M5.89815,7.10185 L10.8981,12.1019 C11.118,12.3217 11.118,12.6783 10.8981,12.8981 C10.6783,13.118 10.3217,13.118 10.1019,12.8981 L5.10185,7.89815 C4.88197,7.67826 4.88197,7.32174 5.10185,7.10185 C5.32174,6.88197 5.67826,6.88197 5.89815,7.10185 "/>
            <path fill-rule="nonzero" vector-effect="none" d="M8.39815,10.3981 L4.89815,13.8981 C4.67826,14.118 4.32174,14.118 4.10185,13.8981 C3.88197,13.6783 3.88197,13.3217 4.10185,13.1019 L7.60185,9.60185 C7.82174,9.38197 8.17826,9.38197 8.39815,9.60185 C8.61803,9.82174 8.61803,10.1783 8.39815,10.3981 "/>
        </g>
    </g>
</svg>
