<?xml version='1.0' encoding='UTF-8' standalone='no'?>
<svg width="4.8381mm" viewBox="0 0 32 32" baseProfile="tiny" xmlns="http://www.w3.org/2000/svg" xmlns:xlink="http://www.w3.org/1999/xlink" version="1.2" height="4.8381mm">
    <style id="current-color-scheme" type="text/css">.ColorScheme-Text {color:#fcfcfc;}</style>
    <title>Qt SVG Document</title>
    <desc>Auto-generated by Klassy window decoration</desc>
    <defs/>
    <g stroke-linecap="square" fill-rule="evenodd" stroke-linejoin="bevel" stroke-width="1" fill="none" stroke="black">
        <g class="ColorScheme-Text" font-weight="400" font-family="Noto Sans" font-size="23.3333" transform="matrix(1.77778,0,0,1.77778,0,0)" fill-opacity="1" fill="currentColor" font-style="normal" stroke="none">
            <path fill-rule="nonzero" vector-effect="none" d="M3.9375,3.9375 L14.0625,3.9375 C14.3732,3.9375 14.625,4.18934 14.625,4.5 C14.625,4.81066 14.3732,5.0625 14.0625,5.0625 L3.9375,5.0625 C3.62684,5.0625 3.375,4.81066 3.375,4.5 C3.375,4.18934 3.62684,3.9375 3.9375,3.9375 "/>
            <path fill-rule="nonzero" vector-effect="none" d="M4.39775,7.60225 L9.39775,12.6023 L9,13 L8.60225,12.6023 L13.6023,7.60225 C13.8219,7.38258 14.1781,7.38258 14.3977,7.60225 C14.6174,7.82192 14.6174,8.17808 14.3977,8.39775 L9.39775,13.3977 L9,13.7955 L8.60225,13.3977 L3.60225,8.39775 C3.38258,8.17808 3.38258,7.82192 3.60225,7.60225 C3.82192,7.38258 4.17808,7.38258 4.39775,7.60225 "/>
        </g>
    </g>
</svg>
