<?xml version='1.0' encoding='UTF-8' standalone='no'?>
<svg baseProfile="tiny" height="4.8381mm" version="1.2" viewBox="0 0 32 32" width="4.8381mm" xmlns="http://www.w3.org/2000/svg" xmlns:xlink="http://www.w3.org/1999/xlink">
    <style id="current-color-scheme" type="text/css">.ColorScheme-Text {color:#fcfcfc;}</style>
    <title>Qt SVG Document</title>
    <desc>Auto-generated by Klassy window decoration</desc>
    <defs/>
    <g fill="none" fill-rule="evenodd" stroke="black" stroke-linecap="square" stroke-linejoin="bevel" stroke-width="1">
        <g class="ColorScheme-Text" fill="currentColor" fill-opacity="0.450004" font-family="Noto Sans" font-size="23.3333" font-style="normal" font-weight="400" stroke="none" transform="matrix(1.77778,0,0,1.77778,13,13)">
            <rect height="3.9375" width="3.9375" x="0" y="0"/>
        </g>
        <g class="ColorScheme-Text" fill="currentColor" fill-opacity="0.902495" font-family="Noto Sans" font-size="23.3333" font-style="normal" font-weight="400" stroke="none" transform="matrix(1.77778,0,0,1.77778,13,13)">
            <path d="M0,-0.844594 L3.9375,-0.844594 L4.78209,0 L4.78209,3.9375 L3.9375,4.78209 L0,4.78209 L-0.844594,3.9375 L-0.844594,0 L0,-0.844594 M0.844594,0 L0.844594,3.9375 L0,3.9375 L0,3.09291 L3.9375,3.09291 L3.9375,3.9375 L3.09291,3.9375 L3.09291,0 L3.9375,0 L3.9375,0.844594 L0,0.844594 L0,0 L0.844594,0" fill-rule="nonzero" vector-effect="none"/>
        </g>
    </g>
</svg>
