<?xml version='1.0' encoding='UTF-8' standalone='no'?>
<svg baseProfile="tiny" height="4.8381mm" version="1.2" viewBox="0 0 32 32" width="4.8381mm" xmlns="http://www.w3.org/2000/svg" xmlns:xlink="http://www.w3.org/1999/xlink">
    <style id="current-color-scheme" type="text/css">.ColorScheme-Text {color:#fcfcfc;}</style>
    <title>Qt SVG Document</title>
    <desc>Auto-generated by Klassy window decoration</desc>
    <defs/>
    <g fill="none" fill-rule="evenodd" stroke="black" stroke-linecap="square" stroke-linejoin="bevel" stroke-width="1">
        <g class="ColorScheme-Text" fill="currentColor" fill-opacity="1" font-family="Noto Sans" font-size="23.3333" font-style="normal" font-weight="400" stroke="none" transform="matrix(1.77778,0,0,1.77778,0,0)">
            <path d="M4.5,11.8119 L8.4375,11.8119 C8.74847,11.8119 9.00056,12.064 9.00056,12.375 C9.00056,12.686 8.74847,12.9381 8.4375,12.9381 L4.5,12.9381 C4.18903,12.9381 3.93694,12.686 3.93694,12.375 C3.93694,12.064 4.18903,11.8119 4.5,11.8119 " fill-rule="nonzero" vector-effect="none"/>
            <path d="M4.5,7.87444 L8.4375,7.87444 C8.74847,7.87444 9.00056,8.12653 9.00056,8.4375 C9.00056,8.74847 8.74847,9.00056 8.4375,9.00056 L4.5,9.00056 C4.18903,9.00056 3.93694,8.74847 3.93694,8.4375 C3.93694,8.12653 4.18903,7.87444 4.5,7.87444 " fill-rule="nonzero" vector-effect="none"/>
            <path d="M4.5,3.93694 L13.5,3.93694 C13.811,3.93694 14.0631,4.18903 14.0631,4.5 C14.0631,4.81097 13.811,5.06306 13.5,5.06306 L4.5,5.06306 C4.18903,5.06306 3.93694,4.81097 3.93694,4.5 C3.93694,4.18903 4.18903,3.93694 4.5,3.93694 " fill-rule="nonzero" vector-effect="none"/>
            <path d="M14.0631,6.75 L14.0631,14.625 C14.0631,14.936 13.811,15.1881 13.5,15.1881 C13.189,15.1881 12.9369,14.936 12.9369,14.625 L12.9369,6.75 C12.9369,6.43903 13.189,6.18694 13.5,6.18694 C13.811,6.18694 14.0631,6.43903 14.0631,6.75 " fill-rule="nonzero" vector-effect="none"/>
            <path d="M10.9122,7.98705 L13.1622,6.29955 L13.5,6.04617 L13.8378,6.29955 L16.0878,7.98705 C16.3366,8.17363 16.387,8.52656 16.2005,8.77534 C16.0139,9.02411 15.6609,9.07453 15.4122,8.88795 L13.1622,7.20045 L13.5,6.75 L13.8378,7.20045 L11.5878,8.88795 C11.3391,9.07453 10.9861,9.02411 10.7995,8.77534 C10.613,8.52656 10.6634,8.17363 10.9122,7.98705 " fill-rule="nonzero" vector-effect="none"/>
        </g>
    </g>
</svg>
