<?xml version='1.0' encoding='UTF-8' standalone='no'?>
<svg width="4.8381mm" viewBox="0 0 32 32" baseProfile="tiny" xmlns="http://www.w3.org/2000/svg" xmlns:xlink="http://www.w3.org/1999/xlink" version="1.2" height="4.8381mm">
    <style id="current-color-scheme" type="text/css">.ColorScheme-Text {color:#fcfcfc;}</style>
    <title>Qt SVG Document</title>
    <desc>Auto-generated by Klassy window decoration</desc>
    <defs/>
    <g stroke-linecap="square" fill-rule="evenodd" stroke-linejoin="bevel" stroke-width="1" fill="none" stroke="black">
        <g class="ColorScheme-Text" font-weight="400" font-family="Noto Sans" font-size="23.3333" transform="matrix(1.77778,0,0,1.77778,6.5,12.5)" fill-opacity="1" fill="currentColor" font-style="normal" stroke="none">
            <path fill-rule="nonzero" vector-effect="none" d="M0,-0.84375 L7.3125,-0.84375 L8.15625,0 L8.15625,7.3125 L7.3125,8.15625 L0,8.15625 L-0.84375,7.3125 L-0.84375,0 L0,-0.84375 M0.84375,0 L0.84375,7.3125 L0,7.3125 L0,6.46875 L7.3125,6.46875 L7.3125,7.3125 L6.46875,7.3125 L6.46875,0 L7.3125,0 L7.3125,0.84375 L0,0.84375 L0,0 L0.84375,0"/>
        </g>
        <g class="ColorScheme-Text" font-weight="400" font-family="Noto Sans" font-size="23.3333" transform="matrix(1.77778,0,0,1.77778,6.5,12.5)" fill-opacity="1" fill="currentColor" font-style="normal" stroke="none">
            <path fill-rule="nonzero" vector-effect="none" d="M2.53125,-0.84375 L2.53125,-3.375 L3.375,-4.21875 L10.6875,-4.21875 L11.5313,-3.375 L11.5313,3.9375 L10.6875,4.78125 L8.15625,4.78125 L8.15625,3.09375 L10.6875,3.09375 L10.6875,3.9375 L9.84375,3.9375 L9.84375,-3.375 L10.6875,-3.375 L10.6875,-2.53125 L3.375,-2.53125 L3.375,-3.375 L4.21875,-3.375 L4.21875,-0.84375 L2.53125,-0.84375"/>
        </g>
    </g>
</svg>
