<?xml version='1.0' encoding='UTF-8' standalone='no'?>
<svg version="1.2" xmlns:xlink="http://www.w3.org/1999/xlink" viewBox="0 0 32 32" xmlns="http://www.w3.org/2000/svg" width="4.8381mm" height="4.8381mm" baseProfile="tiny">
    <style id="current-color-scheme" type="text/css">.ColorScheme-Text {color:#fcfcfc;}</style>
    <title>Qt SVG Document</title>
    <desc>Auto-generated by Klassy window decoration</desc>
    <defs/>
    <g stroke-linejoin="bevel" stroke-linecap="square" fill="none" stroke-width="1" stroke="black" fill-rule="evenodd">
        <g font-weight="400" class="ColorScheme-Text" font-size="23.3333" fill="currentColor" transform="matrix(1.77778,0,0,1.77778,0,0)" font-style="normal" stroke="none" font-family="Noto Sans" fill-opacity="1">
            <path vector-effect="none" fill-rule="nonzero" d="M3.37416,4.21995 C3.37416,3.86944 3.86944,3.37416 4.21995,3.37416 L13.7801,3.37416 C14.1306,3.37416 14.6258,3.86944 14.6258,4.21995 L14.6258,13.7801 C14.6258,14.1306 14.1306,14.6258 13.7801,14.6258 L4.21995,14.6258 C3.86944,14.6258 3.37416,14.1306 3.37416,13.7801 L3.37416,4.21995 M5.06334,4.21995 L5.06334,13.7801 C5.06334,13.4309 4.56913,12.9367 4.21995,12.9367 L13.7801,12.9367 C13.4309,12.9367 12.9367,13.4309 12.9367,13.7801 L12.9367,4.21995 C12.9367,4.56913 13.4309,5.06334 13.7801,5.06334 L4.21995,5.06334 C4.56913,5.06334 5.06334,4.56913 5.06334,4.21995 "/>
        </g>
    </g>
</svg>
