<?xml version='1.0' encoding='UTF-8' standalone='no'?>
<svg version="1.2" xmlns:xlink="http://www.w3.org/1999/xlink" viewBox="0 0 41 41" xmlns="http://www.w3.org/2000/svg" width="4.8213mm" height="4.8213mm" baseProfile="tiny">
    <style id="current-color-scheme" type="text/css">.ColorScheme-Text {color:#232629;}</style>
    <title>Qt SVG Document</title>
    <desc>Auto-generated by Klassy window decoration</desc>
    <defs/>
    <g stroke-linejoin="bevel" stroke-linecap="square" fill="none" stroke-width="1" stroke="black" fill-rule="evenodd">
        <g font-weight="400" class="ColorScheme-Text" font-size="30" fill="#da0016" transform="matrix(2.5625,0,0,2.5625,0,0)" font-style="normal" stroke="none" font-family="Noto Sans" fill-opacity="0.719997">
            <path vector-effect="none" fill-rule="evenodd" d="M2,3.2 C2,2.53726 2.53726,2 3.2,2 L12.8,2 C13.4627,2 14,2.53726 14,3.2 L14,12.8 C14,13.4627 13.4627,14 12.8,14 L3.2,14 C2.53726,14 2,13.4627 2,12.8 L2,3.2"/>
        </g>
        <g font-weight="400" class="ColorScheme-Text" font-size="30" fill="#ffffff" transform="matrix(2.27778,0,0,2.27778,0,0)" font-style="normal" stroke="none" font-family="Noto Sans" fill-opacity="1">
            <path vector-effect="none" fill-rule="nonzero" d="M5.07588,4.14363 L14.2954,13.3631 C14.5528,13.6206 14.5528,14.038 14.2954,14.2954 C14.038,14.5528 13.6206,14.5528 13.3631,14.2954 L4.14363,5.07588 C3.8862,4.81845 3.8862,4.40107 4.14363,4.14363 C4.40107,3.8862 4.81845,3.8862 5.07588,4.14363 "/>
            <path vector-effect="none" fill-rule="nonzero" d="M14.2954,5.07588 L5.07588,14.2954 C4.81845,14.5528 4.40107,14.5528 4.14363,14.2954 C3.8862,14.038 3.8862,13.6206 4.14363,13.3631 L13.3631,4.14363 C13.6206,3.8862 14.038,3.8862 14.2954,4.14363 C14.5528,4.40107 14.5528,4.81845 14.2954,5.07588 "/>
        </g>
    </g>
</svg>
