<?xml version='1.0' encoding='UTF-8' standalone='no'?>
<svg width="4.8213mm" viewBox="0 0 41 41" baseProfile="tiny" xmlns="http://www.w3.org/2000/svg" xmlns:xlink="http://www.w3.org/1999/xlink" version="1.2" height="4.8213mm">
    <style id="current-color-scheme" type="text/css">.ColorScheme-Text {color:#232629;}</style>
    <title>Qt SVG Document</title>
    <desc>Auto-generated by Klassy window decoration</desc>
    <defs/>
    <g stroke-linecap="square" fill-rule="evenodd" stroke-linejoin="bevel" stroke-width="1" fill="none" stroke="black">
        <g class="ColorScheme-Text" font-weight="400" font-family="Noto Sans" font-size="30" transform="matrix(2.5625,0,0,2.5625,0,0)" fill-opacity="0.600015" fill="#da0016" font-style="normal" stroke="none">
            <path fill-rule="evenodd" vector-effect="none" d="M2,3.2 C2,2.53726 2.53726,2 3.2,2 L12.8,2 C13.4627,2 14,2.53726 14,3.2 L14,12.8 C14,13.4627 13.4627,14 12.8,14 L3.2,14 C2.53726,14 2,13.4627 2,12.8 L2,3.2"/>
        </g>
        <g class="ColorScheme-Text" font-weight="400" font-family="Noto Sans" font-size="30" transform="matrix(2.27778,0,0,2.27778,0,0)" fill-opacity="1" fill="#ffffff" font-style="normal" stroke="none">
            <path fill-rule="nonzero" vector-effect="none" d="M5.17601,4.0435 L14.3955,13.263 C14.7083,13.5757 14.7083,14.0828 14.3955,14.3955 C14.0828,14.7083 13.5757,14.7083 13.263,14.3955 L4.0435,5.17601 C3.73077,4.86328 3.73077,4.35624 4.0435,4.0435 C4.35624,3.73077 4.86328,3.73077 5.17601,4.0435 "/>
            <path fill-rule="nonzero" vector-effect="none" d="M14.3955,5.17601 L5.17601,14.3955 C4.86328,14.7083 4.35624,14.7083 4.0435,14.3955 C3.73077,14.0828 3.73077,13.5757 4.0435,13.263 L13.263,4.0435 C13.5757,3.73077 14.0828,3.73077 14.3955,4.0435 C14.7083,4.35624 14.7083,4.86328 14.3955,5.17601 "/>
        </g>
    </g>
</svg>
