<?xml version='1.0' encoding='UTF-8' standalone='no'?>
<svg width="4.8213mm" viewBox="0 0 41 41" baseProfile="tiny" xmlns="http://www.w3.org/2000/svg" xmlns:xlink="http://www.w3.org/1999/xlink" version="1.2" height="4.8213mm">
    <style id="current-color-scheme" type="text/css">.ColorScheme-Text {color:#232629;}</style>
    <title>Qt SVG Document</title>
    <desc>Auto-generated by Klassy window decoration</desc>
    <defs/>
    <g stroke-linecap="square" fill-rule="evenodd" stroke-linejoin="bevel" stroke-width="1" fill="none" stroke="black">
        <g class="ColorScheme-Text" font-weight="400" font-family="Noto Sans" font-size="30" transform="matrix(2.27778,0,0,2.27778,9.5,16.5)" fill-opacity="1" fill="currentColor" font-style="normal" stroke="none">
            <path fill-rule="nonzero" vector-effect="none" d="M0,-0.658537 L7.02439,-0.658537 L7.68293,0 L7.68293,7.02439 L7.02439,7.68293 L0,7.68293 L-0.658537,7.02439 L-0.658537,0 L0,-0.658537 M0.658537,0 L0.658537,7.02439 L0,7.02439 L0,6.36585 L7.02439,6.36585 L7.02439,7.02439 L6.36585,7.02439 L6.36585,0 L7.02439,0 L7.02439,0.658537 L0,0.658537 L0,0 L0.658537,0"/>
        </g>
        <g class="ColorScheme-Text" font-weight="400" font-family="Noto Sans" font-size="30" transform="matrix(2.27778,0,0,2.27778,9.5,16.5)" fill-opacity="1" fill="currentColor" font-style="normal" stroke="none">
            <path fill-rule="nonzero" vector-effect="none" d="M2.41463,-0.658537 L2.41463,-3.07317 L3.07317,-3.73171 L10.0976,-3.73171 L10.7561,-3.07317 L10.7561,3.95122 L10.0976,4.60976 L7.68293,4.60976 L7.68293,3.29268 L10.0976,3.29268 L10.0976,3.95122 L9.43902,3.95122 L9.43902,-3.07317 L10.0976,-3.07317 L10.0976,-2.41463 L3.07317,-2.41463 L3.07317,-3.07317 L3.73171,-3.07317 L3.73171,-0.658537 L2.41463,-0.658537"/>
        </g>
    </g>
</svg>
