<?xml version='1.0' encoding='UTF-8' standalone='no'?>
<svg baseProfile="tiny" height="4.8213mm" version="1.2" viewBox="0 0 41 41" width="4.8213mm" xmlns="http://www.w3.org/2000/svg" xmlns:xlink="http://www.w3.org/1999/xlink">
    <style id="current-color-scheme" type="text/css">.ColorScheme-Text {color:#232629;}</style>
    <title>Qt SVG Document</title>
    <desc>Auto-generated by Klassy window decoration</desc>
    <defs/>
    <g fill="none" fill-rule="evenodd" stroke="black" stroke-linecap="square" stroke-linejoin="bevel" stroke-width="1">
        <g class="ColorScheme-Text" fill="currentColor" fill-opacity="0.949996" font-family="Noto Sans" font-size="30" font-style="normal" font-weight="400" stroke="none" transform="matrix(2.27778,0,0,2.27778,9.5,16.5)">
            <path d="M0,-0.659195 L7.02439,-0.659195 L7.68359,0 L7.68359,7.02439 L7.02439,7.68359 L0,7.68359 L-0.659195,7.02439 L-0.659195,0 L0,-0.659195 M0.659195,0 L0.659195,7.02439 L0,7.02439 L0,6.3652 L7.02439,6.3652 L7.02439,7.02439 L6.3652,7.02439 L6.3652,0 L7.02439,0 L7.02439,0.659195 L0,0.659195 L0,0 L0.659195,0" fill-rule="nonzero" vector-effect="none"/>
        </g>
        <g class="ColorScheme-Text" fill="currentColor" fill-opacity="0.949996" font-family="Noto Sans" font-size="30" font-style="normal" font-weight="400" stroke="none" transform="matrix(2.27778,0,0,2.27778,9.5,16.5)">
            <path d="M2.41398,-0.659195 L2.41398,-3.07317 L3.07317,-3.73237 L10.0976,-3.73237 L10.7568,-3.07317 L10.7568,3.95122 L10.0976,4.61041 L7.68359,4.61041 L7.68359,3.29202 L10.0976,3.29202 L10.0976,3.95122 L9.43837,3.95122 L9.43837,-3.07317 L10.0976,-3.07317 L10.0976,-2.41398 L3.07317,-2.41398 L3.07317,-3.07317 L3.73237,-3.07317 L3.73237,-0.659195 L2.41398,-0.659195" fill-rule="nonzero" vector-effect="none"/>
        </g>
    </g>
</svg>
