<?xml version='1.0' encoding='UTF-8' standalone='no'?>
<svg width="4.8213mm" viewBox="0 0 41 41" baseProfile="tiny" xmlns="http://www.w3.org/2000/svg" xmlns:xlink="http://www.w3.org/1999/xlink" version="1.2" height="4.8213mm">
    <style id="current-color-scheme" type="text/css">.ColorScheme-Text {color:#232629;}</style>
    <title>Qt SVG Document</title>
    <desc>Auto-generated by Klassy window decoration</desc>
    <defs/>
    <g stroke-linecap="square" fill-rule="evenodd" stroke-linejoin="bevel" stroke-width="1" fill="none" stroke="black">
        <g class="ColorScheme-Text" font-weight="400" font-family="Noto Sans" font-size="30" transform="matrix(2.27778,0,0,2.27778,0,0)" fill-opacity="1" fill="currentColor" font-style="normal" stroke="none">
            <path fill-rule="nonzero" vector-effect="none" d="M3.95122,4.61091 C3.95122,4.3375 4.3375,3.95122 4.61091,3.95122 L13.8281,3.95122 C14.01,3.95122 14.1658,4.01609 14.2943,4.14468 C14.4229,4.27326 14.4878,4.42906 14.4878,4.61091 L14.4878,13.8281 C14.4878,14.01 14.4229,14.1658 14.2943,14.2943 C14.1658,14.4229 14.01,14.4878 13.8281,14.4878 L4.61091,14.4878 C4.42906,14.4878 4.27326,14.4229 4.14468,14.2943 C4.01609,14.1658 3.95122,14.01 3.95122,13.8281 L3.95122,4.61091 M5.26829,4.61091 L5.26829,13.8281 C5.26829,13.6463 5.20458,13.4916 5.07599,13.363 C4.9474,13.2344 4.79276,13.1707 4.61091,13.1707 L13.8281,13.1707 C13.6463,13.1707 13.4916,13.2344 13.363,13.363 C13.2344,13.4916 13.1707,13.6463 13.1707,13.8281 L13.1707,4.61091 C13.1707,4.79276 13.2344,4.9474 13.363,5.07599 C13.4916,5.20458 13.6463,5.26829 13.8281,5.26829 L4.61091,5.26829 C4.88305,5.26829 5.26829,4.88305 5.26829,4.61091 "/>
        </g>
    </g>
</svg>
