<?xml version='1.0' encoding='UTF-8' standalone='no'?>
<svg version="1.2" xmlns:xlink="http://www.w3.org/1999/xlink" viewBox="0 0 41 41" xmlns="http://www.w3.org/2000/svg" width="4.8213mm" height="4.8213mm" baseProfile="tiny">
    <style id="current-color-scheme" type="text/css">.ColorScheme-Text {color:#232629;}</style>
    <title>Qt SVG Document</title>
    <desc>Auto-generated by Klassy window decoration</desc>
    <defs/>
    <g stroke-linejoin="bevel" stroke-linecap="square" fill="none" stroke-width="1" stroke="black" fill-rule="evenodd">
        <g font-weight="400" class="ColorScheme-Text" font-size="30" fill="currentColor" transform="matrix(2.27778,0,0,2.27778,17,17)" font-style="normal" stroke="none" font-family="Noto Sans" fill-opacity="0.650004">
            <rect y="0" x="0" width="3.5122" height="3.5122"/>
        </g>
        <g font-weight="400" class="ColorScheme-Text" font-size="30" fill="currentColor" transform="matrix(2.27778,0,0,2.27778,17,17)" font-style="normal" stroke="none" font-family="Noto Sans" fill-opacity="0.850004">
            <path vector-effect="none" fill-rule="nonzero" d="M0,-0.439463 L3.5122,-0.439463 L3.95166,0 L3.95166,3.5122 L3.5122,3.95166 L0,3.95166 L-0.439463,3.5122 L-0.439463,0 L0,-0.439463 M0.439463,0 L0.439463,3.5122 L0,3.5122 L0,3.07273 L3.5122,3.07273 L3.5122,3.5122 L3.07273,3.5122 L3.07273,0 L3.5122,0 L3.5122,0.439463 L0,0.439463 L0,0 L0.439463,0"/>
        </g>
    </g>
</svg>
