<?xml version='1.0' encoding='UTF-8' standalone='no'?>
<svg baseProfile="tiny" height="4.8213mm" version="1.2" viewBox="0 0 41 41" width="4.8213mm" xmlns="http://www.w3.org/2000/svg" xmlns:xlink="http://www.w3.org/1999/xlink">
    <style id="current-color-scheme" type="text/css">.ColorScheme-Text {color:#232629;}</style>
    <title>Qt SVG Document</title>
    <desc>Auto-generated by Klassy window decoration</desc>
    <defs/>
    <g fill="none" fill-rule="evenodd" stroke="black" stroke-linecap="square" stroke-linejoin="bevel" stroke-width="1">
        <g class="ColorScheme-Text" fill="currentColor" fill-opacity="0.549996" font-family="Noto Sans" font-size="30" font-style="normal" font-weight="400" stroke="none" transform="matrix(2.27778,0,0,2.27778,17,17)">
            <rect height="3.5122" width="3.5122" x="0" y="0"/>
        </g>
        <g class="ColorScheme-Text" fill="currentColor" fill-opacity="0.902495" font-family="Noto Sans" font-size="30" font-style="normal" font-weight="400" stroke="none" transform="matrix(2.27778,0,0,2.27778,17,17)">
            <path d="M0,-0.439463 L3.5122,-0.439463 L3.95166,0 L3.95166,3.5122 L3.5122,3.95166 L0,3.95166 L-0.439463,3.5122 L-0.439463,0 L0,-0.439463 M0.439463,0 L0.439463,3.5122 L0,3.5122 L0,3.07273 L3.5122,3.07273 L3.5122,3.5122 L3.07273,3.5122 L3.07273,0 L3.5122,0 L3.5122,0.439463 L0,0.439463 L0,0 L0.439463,0" fill-rule="nonzero" vector-effect="none"/>
        </g>
    </g>
</svg>
