<?xml version='1.0' encoding='UTF-8' standalone='no'?>
<svg baseProfile="tiny" height="4.8213mm" version="1.2" viewBox="0 0 41 41" width="4.8213mm" xmlns="http://www.w3.org/2000/svg" xmlns:xlink="http://www.w3.org/1999/xlink">
    <style id="current-color-scheme" type="text/css">.ColorScheme-Text {color:#232629;}</style>
    <title>Qt SVG Document</title>
    <desc>Auto-generated by Klassy window decoration</desc>
    <defs/>
    <g fill="none" fill-rule="evenodd" stroke="black" stroke-linecap="square" stroke-linejoin="bevel" stroke-width="1">
        <g class="ColorScheme-Text" fill="currentColor" fill-opacity="1" font-family="Noto Sans" font-size="30" font-style="normal" font-weight="400" stroke="none" transform="matrix(2.27778,0,0,2.27778,0,0)">
            <path d="M4.60976,14.0481 L13.3902,14.0481 C13.7543,14.0481 14.0494,14.3433 14.0494,14.7073 C14.0494,15.0714 13.7543,15.3665 13.3902,15.3665 L4.60976,15.3665 C4.24569,15.3665 3.95056,15.0714 3.95056,14.7073 C3.95056,14.3433 4.24569,14.0481 4.60976,14.0481 " fill-rule="nonzero" vector-effect="none"/>
            <path d="M9.43902,9.65788 L13.3902,9.65788 C13.7543,9.65788 14.0494,9.95301 14.0494,10.3171 C14.0494,10.6811 13.7543,10.9763 13.3902,10.9763 L9.43902,10.9763 C9.07496,10.9763 8.77983,10.6811 8.77983,10.3171 C8.77983,9.95301 9.07496,9.65788 9.43902,9.65788 " fill-rule="nonzero" vector-effect="none"/>
            <path d="M9.43902,5.26763 L13.3902,5.26763 C13.7543,5.26763 14.0494,5.56277 14.0494,5.92683 C14.0494,6.29089 13.7543,6.58602 13.3902,6.58602 L9.43902,6.58602 C9.07496,6.58602 8.77983,6.29089 8.77983,5.92683 C8.77983,5.56277 9.07496,5.26763 9.43902,5.26763 " fill-rule="nonzero" vector-effect="none"/>
            <path d="M5.26895,4.60976 L5.26895,12.5122 C5.26895,12.8763 4.97382,13.1714 4.60976,13.1714 C4.24569,13.1714 3.95056,12.8763 3.95056,12.5122 L3.95056,4.60976 C3.95056,4.24569 4.24569,3.95056 4.60976,3.95056 C4.97382,3.95056 5.26895,4.24569 5.26895,4.60976 " fill-rule="nonzero" vector-effect="none"/>
            <path d="M2.88076,9.85095 L5.07588,12.0461 L4.60976,12.5122 L4.14363,12.0461 L6.33876,9.85095 C6.59619,9.59352 7.01357,9.59352 7.271,9.85095 C7.52843,10.1084 7.52843,10.5258 7.271,10.7832 L5.07588,12.9783 L4.60976,13.4444 L4.14363,12.9783 L1.94851,10.7832 C1.69108,10.5258 1.69108,10.1084 1.94851,9.85095 C2.20594,9.59352 2.62332,9.59352 2.88076,9.85095 " fill-rule="nonzero" vector-effect="none"/>
        </g>
    </g>
</svg>
