<?xml version='1.0' encoding='UTF-8' standalone='no'?>
<svg baseProfile="tiny" height="4.8213mm" version="1.2" viewBox="0 0 41 41" width="4.8213mm" xmlns="http://www.w3.org/2000/svg" xmlns:xlink="http://www.w3.org/1999/xlink">
    <style id="current-color-scheme" type="text/css">.ColorScheme-Text {color:#232629;}</style>
    <title>Qt SVG Document</title>
    <desc>Auto-generated by Klassy window decoration</desc>
    <defs/>
    <g fill="none" fill-rule="evenodd" stroke="black" stroke-linecap="square" stroke-linejoin="bevel" stroke-width="1">
        <g class="ColorScheme-Text" fill="currentColor" fill-opacity="1" font-family="Noto Sans" font-size="30" font-style="normal" font-weight="400" stroke="none" transform="matrix(2.27778,0,0,2.27778,0,0)">
            <path d="M4.60976,11.853 L8.56098,11.853 C8.92504,11.853 9.22017,12.1481 9.22017,12.5122 C9.22017,12.8763 8.92504,13.1714 8.56098,13.1714 L4.60976,13.1714 C4.24569,13.1714 3.95056,12.8763 3.95056,12.5122 C3.95056,12.1481 4.24569,11.853 4.60976,11.853 " fill-rule="nonzero" vector-effect="none"/>
            <path d="M4.60976,7.90178 L8.56098,7.90178 C8.92504,7.90178 9.22017,8.19691 9.22017,8.56098 C9.22017,8.92504 8.92504,9.22017 8.56098,9.22017 L4.60976,9.22017 C4.24569,9.22017 3.95056,8.92504 3.95056,8.56098 C3.95056,8.19691 4.24569,7.90178 4.60976,7.90178 " fill-rule="nonzero" vector-effect="none"/>
            <path d="M4.60976,3.95056 L13.3902,3.95056 C13.7543,3.95056 14.0494,4.24569 14.0494,4.60976 C14.0494,4.97382 13.7543,5.26895 13.3902,5.26895 L4.60976,5.26895 C4.24569,5.26895 3.95056,4.97382 3.95056,4.60976 C3.95056,4.24569 4.24569,3.95056 4.60976,3.95056 " fill-rule="nonzero" vector-effect="none"/>
            <path d="M14.0494,6.36585 L14.0494,14.7073 C14.0494,15.0714 13.7543,15.3665 13.3902,15.3665 C13.0262,15.3665 12.731,15.0714 12.731,14.7073 L12.731,6.36585 C12.731,6.00179 13.0262,5.70666 13.3902,5.70666 C13.7543,5.70666 14.0494,6.00179 14.0494,6.36585 " fill-rule="nonzero" vector-effect="none"/>
            <path d="M10.729,8.09485 L12.9241,5.89973 L13.3902,5.43361 L13.8564,5.89973 L16.0515,8.09485 C16.3089,8.35229 16.3089,8.76967 16.0515,9.0271 C15.7941,9.28453 15.3767,9.28453 15.1192,9.0271 L12.9241,6.83197 L13.3902,6.36585 L13.8564,6.83197 L11.6612,9.0271 C11.4038,9.28453 10.9864,9.28453 10.729,9.0271 C10.4716,8.76967 10.4716,8.35229 10.729,8.09485 " fill-rule="nonzero" vector-effect="none"/>
        </g>
    </g>
</svg>
