<?xml version='1.0' encoding='UTF-8' standalone='no'?>
<svg baseProfile="tiny" height="4.8213mm" version="1.2" viewBox="0 0 41 41" width="4.8213mm" xmlns="http://www.w3.org/2000/svg" xmlns:xlink="http://www.w3.org/1999/xlink">
    <style id="current-color-scheme" type="text/css">.ColorScheme-Text {color:#232629;}</style>
    <title>Qt SVG Document</title>
    <desc>Auto-generated by Klassy window decoration</desc>
    <defs/>
    <g fill="none" fill-rule="evenodd" stroke="black" stroke-linecap="square" stroke-linejoin="bevel" stroke-width="1">
        <g class="ColorScheme-Text" fill="currentColor" fill-opacity="0.450004" font-family="Noto Sans" font-size="30" font-style="normal" font-weight="400" stroke="none" transform="matrix(2.27778,0,0,2.27778,17.5,17.5)">
            <rect height="3.07317" width="3.07317" x="0" y="0"/>
        </g>
        <g class="ColorScheme-Text" fill="currentColor" fill-opacity="0.902495" font-family="Noto Sans" font-size="30" font-style="normal" font-weight="400" stroke="none" transform="matrix(2.27778,0,0,2.27778,17.5,17.5)">
            <path d="M0,-0.659195 L3.07317,-0.659195 L3.73237,0 L3.73237,3.07317 L3.07317,3.73237 L0,3.73237 L-0.659195,3.07317 L-0.659195,0 L0,-0.659195 M0.659195,0 L0.659195,3.07317 L0,3.07317 L0,2.41398 L3.07317,2.41398 L3.07317,3.07317 L2.41398,3.07317 L2.41398,0 L3.07317,0 L3.07317,0.659195 L0,0.659195 L0,0 L0.659195,0" fill-rule="nonzero" vector-effect="none"/>
        </g>
    </g>
</svg>
