<?xml version='1.0' encoding='UTF-8' standalone='no'?>
<svg baseProfile="tiny" height="6.35mm" version="1.2" viewBox="0 0 36 36" width="6.35mm" xmlns="http://www.w3.org/2000/svg" xmlns:xlink="http://www.w3.org/1999/xlink">
    <style id="current-color-scheme" type="text/css">.ColorScheme-Text {color:#fcfcfc;}</style>
    <title>Qt SVG Document</title>
    <desc>Auto-generated by Klassy window decoration</desc>
    <defs/>
    <g fill="none" fill-rule="evenodd" stroke="black" stroke-linecap="square" stroke-linejoin="bevel" stroke-width="1">
        <g class="ColorScheme-Text" fill="currentColor" fill-opacity="1" font-family="Noto Sans" font-size="20" font-style="normal" font-weight="400" stroke="none" transform="matrix(2,0,0,2,0,0)">
            <path d="M4.5,13.9995 L13.5,13.9995 C13.7764,13.9995 14.0005,14.2236 14.0005,14.5 C14.0005,14.7764 13.7764,15.0005 13.5,15.0005 L4.5,15.0005 C4.22358,15.0005 3.9995,14.7764 3.9995,14.5 C3.9995,14.2236 4.22358,13.9995 4.5,13.9995 " fill-rule="nonzero" vector-effect="none"/>
            <path d="M9.5,9.9995 L13.5,9.9995 C13.7764,9.9995 14.0005,10.2236 14.0005,10.5 C14.0005,10.7764 13.7764,11.0005 13.5,11.0005 L9.5,11.0005 C9.22358,11.0005 8.9995,10.7764 8.9995,10.5 C8.9995,10.2236 9.22358,9.9995 9.5,9.9995 " fill-rule="nonzero" vector-effect="none"/>
            <path d="M9.5,5.9995 L13.5,5.9995 C13.7764,5.9995 14.0005,6.22358 14.0005,6.5 C14.0005,6.77642 13.7764,7.0005 13.5,7.0005 L9.5,7.0005 C9.22358,7.0005 8.9995,6.77642 8.9995,6.5 C8.9995,6.22358 9.22358,5.9995 9.5,5.9995 " fill-rule="nonzero" vector-effect="none"/>
            <path d="M5.0005,4.5 L5.0005,12.5 C5.0005,12.7764 4.77642,13.0005 4.5,13.0005 C4.22358,13.0005 3.9995,12.7764 3.9995,12.5 L3.9995,4.5 C3.9995,4.22358 4.22358,3.9995 4.5,3.9995 C4.77642,3.9995 5.0005,4.22358 5.0005,4.5 " fill-rule="nonzero" vector-effect="none"/>
            <path d="M2.85391,10.1461 L4.85391,12.1461 L4.5,12.5 L4.14609,12.1461 L6.14609,10.1461 C6.34155,9.95064 6.65845,9.95064 6.85391,10.1461 C7.04936,10.3416 7.04936,10.6584 6.85391,10.8539 L4.85391,12.8539 L4.5,13.2078 L4.14609,12.8539 L2.14609,10.8539 C1.95064,10.6584 1.95064,10.3416 2.14609,10.1461 C2.34155,9.95064 2.65845,9.95064 2.85391,10.1461 " fill-rule="nonzero" vector-effect="none"/>
        </g>
    </g>
</svg>
