<?xml version='1.0' encoding='UTF-8' standalone='no'?>
<svg width="6.35mm" viewBox="0 0 36 36" baseProfile="tiny" xmlns="http://www.w3.org/2000/svg" xmlns:xlink="http://www.w3.org/1999/xlink" version="1.2" height="6.35mm">
    <style id="current-color-scheme" type="text/css">.ColorScheme-Text {color:#fcfcfc;}</style>
    <title>Qt SVG Document</title>
    <desc>Auto-generated by Klassy window decoration</desc>
    <defs/>
    <g stroke-linecap="square" fill-rule="evenodd" stroke-linejoin="bevel" stroke-width="1" fill="none" stroke="black">
        <g class="ColorScheme-Text" font-weight="400" font-family="Noto Sans" font-size="20" transform="matrix(2,0,0,2,0,0)" fill-opacity="1" fill="currentColor" font-style="normal" stroke="none">
            <path fill-rule="nonzero" vector-effect="none" d="M4.5,14 L13.5,14 C13.7761,14 14,14.2239 14,14.5 C14,14.7761 13.7761,15 13.5,15 L4.5,15 C4.22386,15 4,14.7761 4,14.5 C4,14.2239 4.22386,14 4.5,14 "/>
            <path fill-rule="nonzero" vector-effect="none" d="M9.5,10 L13.5,10 C13.7761,10 14,10.2239 14,10.5 C14,10.7761 13.7761,11 13.5,11 L9.5,11 C9.22386,11 9,10.7761 9,10.5 C9,10.2239 9.22386,10 9.5,10 "/>
            <path fill-rule="nonzero" vector-effect="none" d="M9.5,6 L13.5,6 C13.7761,6 14,6.22386 14,6.5 C14,6.77614 13.7761,7 13.5,7 L9.5,7 C9.22386,7 9,6.77614 9,6.5 C9,6.22386 9.22386,6 9.5,6 "/>
            <path fill-rule="nonzero" vector-effect="none" d="M5,4.5 L5,12.5 C5,12.7761 4.77614,13 4.5,13 C4.22386,13 4,12.7761 4,12.5 L4,4.5 C4,4.22386 4.22386,4 4.5,4 C4.77614,4 5,4.22386 5,4.5 "/>
            <path fill-rule="nonzero" vector-effect="none" d="M2.85355,10.1464 L4.85355,12.1464 L4.5,12.5 L4.14645,12.1464 L6.14645,10.1464 C6.34171,9.95118 6.65829,9.95118 6.85355,10.1464 C7.04882,10.3417 7.04882,10.6583 6.85355,10.8536 L4.85355,12.8536 L4.5,13.2071 L4.14645,12.8536 L2.14645,10.8536 C1.95118,10.6583 1.95118,10.3417 2.14645,10.1464 C2.34171,9.95118 2.65829,9.95118 2.85355,10.1464 "/>
        </g>
    </g>
</svg>
