<?xml version='1.0' encoding='UTF-8' standalone='no'?>
<svg version="1.2" xmlns:xlink="http://www.w3.org/1999/xlink" viewBox="0 0 36 36" xmlns="http://www.w3.org/2000/svg" width="6.35mm" height="6.35mm" baseProfile="tiny">
    <style id="current-color-scheme" type="text/css">.ColorScheme-Text {color:#fcfcfc;}</style>
    <title>Qt SVG Document</title>
    <desc>Auto-generated by Klassy window decoration</desc>
    <defs/>
    <g stroke-linejoin="bevel" stroke-linecap="square" fill="none" stroke-width="1" stroke="black" fill-rule="evenodd">
        <g font-weight="400" class="ColorScheme-Text" font-size="20" fill="currentColor" transform="matrix(2,0,0,2,0,0)" font-style="normal" stroke="none" font-family="Noto Sans" fill-opacity="1">
            <path vector-effect="none" fill-rule="nonzero" d="M4,3.99925 L14,3.99925 C14.4146,3.99925 14.7508,4.33537 14.7508,4.75 C14.7508,5.16463 14.4146,5.50075 14,5.50075 L4,5.50075 C3.58537,5.50075 3.24925,5.16463 3.24925,4.75 C3.24925,4.33537 3.58537,3.99925 4,3.99925 "/>
            <path vector-effect="none" fill-rule="nonzero" d="M3.46914,12.4691 L8.46914,7.46914 L9,6.93828 L9.53086,7.46914 L14.5309,12.4691 C14.824,12.7623 14.824,13.2377 14.5309,13.5309 C14.2377,13.824 13.7623,13.824 13.4691,13.5309 L8.46914,8.53086 L9,8 L9.53086,8.53086 L4.53086,13.5309 C4.23767,13.824 3.76233,13.824 3.46914,13.5309 C3.17595,13.2377 3.17595,12.7623 3.46914,12.4691 "/>
        </g>
    </g>
</svg>
