<?xml version='1.0' encoding='UTF-8' standalone='no'?>
<svg version="1.2" xmlns:xlink="http://www.w3.org/1999/xlink" viewBox="0 0 36 36" xmlns="http://www.w3.org/2000/svg" width="6.35mm" height="6.35mm" baseProfile="tiny">
    <style id="current-color-scheme" type="text/css">.ColorScheme-Text {color:#fcfcfc;}</style>
    <title>Qt SVG Document</title>
    <desc>Auto-generated by Klassy window decoration</desc>
    <defs/>
    <g stroke-linejoin="bevel" stroke-linecap="square" fill="none" stroke-width="1" stroke="black" fill-rule="evenodd">
        <g font-weight="400" class="ColorScheme-Text" font-size="20" fill="currentColor" transform="matrix(2,0,0,2,0,0)" font-style="normal" stroke="none" font-family="Noto Sans" fill-opacity="1">
            <path vector-effect="none" fill-rule="nonzero" d="M4.5,11.9995 L8.5,11.9995 C8.77642,11.9995 9.0005,12.2236 9.0005,12.5 C9.0005,12.7764 8.77642,13.0005 8.5,13.0005 L4.5,13.0005 C4.22358,13.0005 3.9995,12.7764 3.9995,12.5 C3.9995,12.2236 4.22358,11.9995 4.5,11.9995 "/>
            <path vector-effect="none" fill-rule="nonzero" d="M4.5,7.9995 L8.5,7.9995 C8.77642,7.9995 9.0005,8.22358 9.0005,8.5 C9.0005,8.77642 8.77642,9.0005 8.5,9.0005 L4.5,9.0005 C4.22358,9.0005 3.9995,8.77642 3.9995,8.5 C3.9995,8.22358 4.22358,7.9995 4.5,7.9995 "/>
            <path vector-effect="none" fill-rule="nonzero" d="M4.5,3.9995 L13.5,3.9995 C13.7764,3.9995 14.0005,4.22358 14.0005,4.5 C14.0005,4.77642 13.7764,5.0005 13.5,5.0005 L4.5,5.0005 C4.22358,5.0005 3.9995,4.77642 3.9995,4.5 C3.9995,4.22358 4.22358,3.9995 4.5,3.9995 "/>
            <path vector-effect="none" fill-rule="nonzero" d="M14.0005,6.5 L14.0005,14.5 C14.0005,14.7764 13.7764,15.0005 13.5,15.0005 C13.2236,15.0005 12.9995,14.7764 12.9995,14.5 L12.9995,6.5 C12.9995,6.22358 13.2236,5.9995 13.5,5.9995 C13.7764,5.9995 14.0005,6.22358 14.0005,6.5 "/>
            <path vector-effect="none" fill-rule="nonzero" d="M11.1461,8.14609 L13.1461,6.14609 L13.5,5.79219 L13.8539,6.14609 L15.8539,8.14609 C16.0494,8.34155 16.0494,8.65845 15.8539,8.85391 C15.6584,9.04936 15.3416,9.04936 15.1461,8.85391 L13.1461,6.85391 L13.5,6.5 L13.8539,6.85391 L11.8539,8.85391 C11.6584,9.04936 11.3416,9.04936 11.1461,8.85391 C10.9506,8.65845 10.9506,8.34155 11.1461,8.14609 "/>
        </g>
    </g>
</svg>
