<?xml version='1.0' encoding='UTF-8' standalone='no'?>
<svg baseProfile="tiny" height="6.35mm" version="1.2" viewBox="0 0 36 36" width="6.35mm" xmlns="http://www.w3.org/2000/svg" xmlns:xlink="http://www.w3.org/1999/xlink">
    <style id="current-color-scheme" type="text/css">.ColorScheme-Text {color:#fcfcfc;}</style>
    <title>Qt SVG Document</title>
    <desc>Auto-generated by Klassy window decoration</desc>
    <defs/>
    <g fill="none" fill-rule="evenodd" stroke="black" stroke-linecap="square" stroke-linejoin="bevel" stroke-width="1">
        <g class="ColorScheme-Text" fill="currentColor" fill-opacity="1" font-family="Noto Sans" font-size="20" font-style="normal" font-weight="400" stroke="none" transform="matrix(2,0,0,2,0,0)">
            <path d="M4.78086,3.71914 L14.2809,13.2191 C14.574,13.5123 14.574,13.9877 14.2809,14.2809 C13.9877,14.574 13.5123,14.574 13.2191,14.2809 L3.71914,4.78086 C3.42595,4.48767 3.42595,4.01233 3.71914,3.71914 C4.01233,3.42595 4.48767,3.42595 4.78086,3.71914 " fill-rule="nonzero" vector-effect="none"/>
            <path d="M14.2809,4.78086 L4.78086,14.2809 C4.48767,14.574 4.01233,14.574 3.71914,14.2809 C3.42595,13.9877 3.42595,13.5123 3.71914,13.2191 L13.2191,3.71914 C13.5123,3.42595 13.9877,3.42595 14.2809,3.71914 C14.574,4.01233 14.574,4.48767 14.2809,4.78086 " fill-rule="nonzero" vector-effect="none"/>
        </g>
    </g>
</svg>
