<?xml version='1.0' encoding='UTF-8' standalone='no'?>
<svg version="1.2" xmlns:xlink="http://www.w3.org/1999/xlink" viewBox="0 0 36 36" xmlns="http://www.w3.org/2000/svg" width="6.35mm" height="6.35mm" baseProfile="tiny">
    <style id="current-color-scheme" type="text/css">.ColorScheme-Text {color:#fcfcfc;}</style>
    <title>Qt SVG Document</title>
    <desc>Auto-generated by Klassy window decoration</desc>
    <defs/>
    <g stroke-linejoin="bevel" stroke-linecap="square" fill="none" stroke-width="1" stroke="black" fill-rule="evenodd">
        <g font-weight="400" class="ColorScheme-Text" font-size="20" fill="currentColor" transform="matrix(2,0,0,2,15,15)" font-style="normal" stroke="none" font-family="Noto Sans" fill-opacity="0.650004">
            <rect y="0" x="0" width="3" height="3"/>
        </g>
        <g font-weight="400" class="ColorScheme-Text" font-size="20" fill="currentColor" transform="matrix(2,0,0,2,15,15)" font-style="normal" stroke="none" font-family="Noto Sans" fill-opacity="0.850004">
            <path vector-effect="none" fill-rule="nonzero" d="M0,-0.5005 L3,-0.5005 L3.5005,0 L3.5005,3 L3,3.5005 L0,3.5005 L-0.5005,3 L-0.5005,0 L0,-0.5005 M0.5005,0 L0.5005,3 L0,3 L0,2.4995 L3,2.4995 L3,3 L2.4995,3 L2.4995,0 L3,0 L3,0.5005 L0,0.5005 L0,0 L0.5005,0"/>
        </g>
    </g>
</svg>
