<!-- Created with Inkscape (http://www.inkscape.org/) -->
<svg width="16" height="16" version="1.1" viewBox="0 0 4.2333 4.2333" xmlns="http://www.w3.org/2000/svg">
    <style type="text/css" id="current-color-scheme">
      .ColorScheme-Text {
        color:#232629;
      }
      </style>
 <path style="fill:currentColor;fill-opacity:1;stroke:none" class="ColorScheme-Text" d="m0.93359 0.79297c-0.3677 0-0.66992 0.30027-0.66992 0.66797v1.3105c0 0.3677 0.30223 0.66797 0.66992 0.66797h2.3672c0.3677 0 0.66797-0.30027 0.66797-0.66797v-1.3105c0-0.3677-0.30027-0.66797-0.66797-0.66797zm0 0.2793h2.3672c0.21862 0 0.39062 0.17005 0.39062 0.38867v1.3105c0 0.21862-0.17201 0.39062-0.39062 0.39062h-2.3672c-0.21862 0-0.39062-0.17201-0.39062-0.39062v-1.3105c0-0.21862 0.17201-0.38867 0.39062-0.38867z"/>
</svg>
