<!-- Created with Inkscape (http://www.inkscape.org/) -->
<svg width="16" height="16" version="1.1" viewBox="0 0 4.2333 4.2333" xmlns="http://www.w3.org/2000/svg">
    <style type="text/css" id="current-color-scheme">
      .ColorScheme-Text {
        color:#232629;
      }
      </style>
 <path style="fill:currentColor;fill-opacity:1;stroke:none" class="ColorScheme-Text" d="m0.26367 0.79297v0.13281c-1e-8 0.47261 0.011263 1.315 0 1.8457v0.0039c0 0.36584 0.29846 0.66406 0.66406 0.66406h2.9082 0.13281v-1.9805c-1.125e-4 -0.36579-0.29849-0.66594-0.66406-0.66602zm0.26562 0.26562h2.7754c0.2228 4.36e-5 0.39837 0.17689 0.39844 0.40039v1.7148c-1.1335-4.73e-5 -1.8708 0-2.7754 0-0.22222 0-0.39562-0.17382-0.39648-0.39648v-0.00195c0.010591-0.50177-5.2479e-4 -1.2361-0.0019531-1.7168z"/>
</svg>
