<svg width="312.82" height="127.77" version="1.1" viewBox="0 0 312.82 127.77" xmlns="http://www.w3.org/2000/svg">
 <defs>
  <filter id="filter51184" x="-.078835" y="-.07446" width="1.1892" height="1.1824" color-interpolation-filters="sRGB">
   <feFlood flood-color="rgb(0,0,0)" flood-opacity=".49804" result="flood"/>
   <feComposite in="flood" in2="SourceGraphic" operator="in" result="composite1"/>
   <feGaussianBlur in="composite1" result="blur" stdDeviation="2.5"/>
   <feOffset dx="2.4" dy="2.7" result="offset"/>
   <feComposite in="SourceGraphic" in2="offset" result="composite2"/>
  </filter>
 </defs>
 <filter id="d" x="-.050914" y="-.027844" width="1.1018" height="1.0557">
  <feGaussianBlur stdDeviation="2.97"/>
 </filter>
 <filter id="e" x="-.0272" y="-.204" width="1.0544" height="1.408">
  <feGaussianBlur stdDeviation="1.7000001"/>
 </filter>
 <path d="m17.772 43.818c-0.17844 0.0194-0.37131 0.0698-0.50481 0.20524l-6.1728 6.2423c-0.25921 0.26297-0.28889 0.66339-0.0957 0.97883l7.3207 11.936c-1.2759 2.1723-2.3087 4.5006-3.0312 6.9669l-13.311 2.8408c-0.37039 0.0788-0.63858 0.43323-0.63644 0.81323l0.0491 8.7714c2e-3 0.37087 0.2859 0.68689 0.64534 0.77236l12.939 3.0653c0.70693 2.8468 1.7897 5.5686 3.2163 8.0452l-7.4254 11.445c-0.20709 0.3197-0.16401 0.74434 0.10682 1.0117l6.2424 6.1727c0.26296 0.25908 0.66413 0.28967 0.97881 0.0957l11.701-7.1842c2.3101 1.3164 4.8092 2.3676 7.4394 3.0622l2.8064 13.142c0.0787 0.371 0.39975 0.63882 0.77943 0.6367l8.7715-0.0491c0.36812-2e-3 0.68717-0.25145 0.77246-0.61236l3.1649-13.243c2.7045-0.74553 5.2523-1.844 7.6066-3.2476l11.614 7.5259c0.32022 0.206 0.74258 0.1635 1.0115-0.10682l6.1391-6.2422c0.26078-0.26309 0.32326-0.66431 0.12943-0.9791l-4.256-6.926-1.3808 0.44641c-0.19938 0.0626-0.42119-0.0264-0.5409-0.19959 0 0-2.6858-3.9036-6.1905-8.9732-4.1118 8.1583-12.559 13.768-22.324 13.823-13.876 0.0778-25.196-11.117-25.275-24.993-0.0571-10.207 5.9974-19.008 14.716-22.99l-0.0362-6.4774c-1.5876 0.56567-3.1206 1.246-4.5768 2.0498-3e-3 -2e-3 3e-3 -0.0322-2.6e-4 -0.0337l-11.885-7.6931c-0.16009-0.10282-0.32827-0.11771-0.5067-0.0983zm35.706-16.056-15.78 1.6064 0.36418 65.043 15.606-2.4491-0.15536-27.731 21.19 30.65 16.434-5.3208-21.69-29.467 21.536-28.021-16.822-3.7517-20.693 28.017 9e-3 -28.576z" fill="#37abc8" fill-opacity=".1658" stroke-width=".91709"/>
 <path transform="rotate(30 230.93 -373.27)" d="m313.31 102.7-16.323-7.7374 13.292 23.184-0.90474 0.8135c-1.9179 1.7245-9.9815 8.1534-10.901 8.6914l-0.96754 0.56585-32.676-56.314 6.0195-4.376c3.3107-2.4068 6.2215-4.5106 6.4684-4.6751 0.3457-0.23036 2.0837 2.4439 7.5616 11.635l7.1127 11.934 1.8064-15.894c0.99351-8.7418 1.8513-16.299 1.9062-16.794 0.092-0.8297 0.74125-1.105 8.2892-3.5151 4.5042-1.4382 8.2736-2.5996 8.3764-2.5808 0.10283 0.01874-0.8435 7.8165-2.103 17.328-1.2596 9.5119-2.2136 17.425-2.1202 17.585 0.0934 0.15983 7.4876 3.4924 16.431 7.4057 8.9438 3.9133 16.306 7.3062 16.36 7.5398 0.0791 0.34121-10.248 12.272-11.076 12.797-0.12589 0.0794-7.574-3.337-16.552-7.5926z" fill="#37abc8" filter="url(#filter51184)" stroke-linecap="round" stroke-width="1.4" style="paint-order:stroke fill markers"/>
 <g transform="rotate(-1.574 -3878.1 -6097.6)" fill="#a00" aria-label="lassy">
  <path d="m-38.276 177.14q0 0.95833-0.5 2.4167-0.45833 1.4167-1.5833 3.3333-1.125 1.875-3 4.25-1.875 2.375-4.6666 5.2083-1.5417 1.5417-3.5 3.0833-1.9167 1.5417-4.0833 2.75-2.1667 1.1667-4.5 1.9167-2.2917 0.74999-4.5833 0.74999-3.0833 0-5.7916-1.0833-2.6667-1.0833-4.6666-3.2916-2-2.25-3.1667-5.625-1.125-3.375-1.125-7.9166 0-2.9583 0.29167-6.125 0.29166-3.2083 0.70833-6.4583 0.45833-3.25 1-6.4166 0.58333-3.2083 1.125-6.125 0.375-2 0.625-3.5416t0.45833-3.0833q0.25-1.5417 0.54166-3.2916 0.29166-1.7917 0.70833-4.2083 0.20833-1.1667 0.70833-2.2083 0.5-1.0833 1.25-1.875 0.79166-0.83333 1.8333-1.2917 1.0417-0.5 2.2917-0.5 3.0833 0 4.5 2.875l-0.45833 2.375q-0.375 2-1 4.7083-0.58333 2.6666-1.2917 5.8333-0.66666 3.1666-1.375 6.6666-0.66666 3.4583-1.25 7.0416-0.54166 3.5833-0.91666 7.125-0.33333 3.5416-0.33333 6.8333 0 2.5 0.33333 4.5416 0.375 2.0417 1.1667 3.5 0.79166 1.4167 2.0417 2.2083 1.25 0.79166 3 0.79166t3.625-0.70833q1.875-0.75 3.75-1.9167 1.9167-1.1667 3.7083-2.6667 1.8333-1.5 3.4167-3 1.5833-1.5417 2.8333-2.9583 1.25-1.4583 2.0417-2.5 0.375-0.5 0.79166-1.0417 0.45833-0.58333 1-1.0833 0.58333-0.5 1.2083-0.83333 0.66666-0.33333 1.4167-0.33333 0.58333 0 1 0.5 0.41666 0.45833 0.41666 1.375z"/>
  <path d="m-18.192 170.31q0-0.375-0.16667-0.875-0.125-0.5-0.375-0.91666-0.20833-0.45834-0.5-0.75-0.29167-0.33333-0.54166-0.33333-2.75 0-5.0416 1.5-2.25 1.4583-4.7083 4-1.375 1.375-2.9583 3.7083-1.5417 2.3333-2.875 4.9583-1.3333 2.625-2.2083 5.25-0.875 2.625-0.875 4.625 0 0.5 0.04167 1 0.08333 0.45833 0.25 0.83333 0.20833 0.37499 0.54166 0.62499t0.875 0.25q1.5833 0 3.5833-0.99999 2-1.0417 4-2.6667 2.0417-1.6667 3.9167-3.7916 1.9167-2.1667 3.2083-4.4166 1.5833-2.75 2.7083-5.75 1.125-3 1.125-6.25zm37.875 4.2916q0 0.49999-0.20833 1.2083-0.16667 0.66667-0.45833 1.375-0.29166 0.66666-0.66666 1.3333-0.33333 0.62499-0.66666 1.0833-0.20833 0.29166-0.66666 0.83333-0.45833 0.49999-1.0417 1.1667-0.58333 0.625-1.3333 1.375-0.70833 0.75-1.4583 1.5-2.4167 2.25-4.9166 4.4583-2.4583 2.1667-5.1666 3.875-2.7083 1.6667-5.6666 2.7083-2.9583 1.0417-6.2916 1.0417-1.4167 0-2.875-0.62499-1.4583-0.625-2.7083-1.7083-1.25-1.0833-2.2083-2.5833-0.91666-1.5417-1.2917-3.2917-0.75 1.25-1.9583 2.7083-1.2083 1.4167-2.6667 2.8333-1.4167 1.4167-2.9583 2.7083-1.5417 1.25-2.875 2.1667-0.91666 0.62499-2.25 1.2917-1.2917 0.66666-2.75 1.25-1.4583 0.54167-2.9583 0.91667-1.4583 0.33333-2.7083 0.33333-2 0-3.5-1.125-1.5-1.1667-2.5-2.8333-0.95833-1.6667-1.4583-3.5416-0.45833-1.875-0.45833-3.375 0-2.75 0.79166-5.5833 0.83333-2.875 2.0833-5.5833 1.2917-2.7083 2.8333-5.1666 1.5833-2.4583 3.0833-4.375 1.5833-2 3.7917-3.9583 2.2083-2 4.625-3.5416 2.4167-1.5833 4.75-2.5417 2.375-0.95833 4.2083-0.95833 1 0 2.0417 0.0833 1.0833 0.0417 2.125 0.16666 1.0417 0.125 2 0.375t1.7083 0.625q0.5 0.33333 1.0833 1.2083 0.625 0.83333 1.125 1.8333 0.54166 0.95833 0.91666 1.9167t0.375 1.5q0 1.1667-0.375 2.7916-0.33333 1.5833-0.79166 3.3333-0.41666 1.75-0.79166 3.5833-0.375 1.8333-0.375 3.5 0 1.1667 0.33333 2.375t0.95833 2.2083q0.625 0.95833 1.5 1.5833t1.9583 0.625q2.4583 0 4.875-0.91667 2.4167-0.91666 4.8333-2.5 2.4167-1.625 4.8333-3.7916 2.4167-2.2083 4.875-4.75 0.08333 0 0.66666-0.625 0.58333-0.62499 1.375-1.375 0.83333-0.75 1.7083-1.375 0.91666-0.62499 1.5833-0.62499 1.2083 0 1.5833 0.70833 0.375 0.70833 0.375 2.1667z"/>
  <path d="m56.682 172.44q0 1.125-1 2.8333-1 1.6667-2.5417 3.5416-1.5 1.875-3.375 3.8333-1.875 1.9167-3.625 3.625-1.0417 0.99999-3.0833 2.7916-2.0417 1.75-4.5833 3.875-2.5 2.125-5.25 4.4166-2.75 2.25-5.2083 4.2083-2.4167 1.9583-4.2916 3.4167-1.875 1.4583-2.6667 2-2.5833 1.7083-4.8333 2.625-2.2083 0.91666-3.9583 0.91666-1.4583 0-2.4583-0.29166-1-0.25-1.625-0.70833-0.625-0.41667-0.91666-1-0.29167-0.54167-0.29167-1.125 0-1.4583 0.54166-2.625 0.54166-1.125 1.6667-2.125 1.1667-0.99999 2.9167-1.9167 1.7917-0.95833 4.2083-1.9583 1.5833-0.625 2.8333-1.2083 1.2917-0.58333 2.2083-1.25 0.95833-0.70833 1.4583-1.5833 0.5-0.875 0.5-2.125 0-0.29166-0.41666-1.0833-0.375-0.79167-1-1.8333t-1.4167-2.25q-0.75-1.25-1.5-2.4167-0.75-1.2083-1.4167-2.25t-1.0417-1.75q-1.7083-3.1667-1.7083-6.4583 0-1.4167 0.25-2.9167 0.25-1.5 0.83333-3.0416 0.54166-1.9167 1.75-3.75 1.25-1.8333 2.75-3.25 1.5-1.4583 3-2.3333 1.5417-0.87499 2.6667-0.87499 1.5 0 2.4583 0.29166 0.95833 0.25 1.4583 0.83333 0.54166 0.54167 0.75 1.4167 0.20833 0.83333 0.20833 2.0417 0 1-0.5 1.9583t-1.2083 1.7917q-0.70833 0.83333-1.5 1.5417-0.79166 0.70833-1.375 1.25-0.875 0.79167-1.6667 1.5-0.79166 0.66666-1.25 1.1667 0.04167 2.625 1.2917 4.8333 0.625 1.0833 1.5417 2.6667 0.95833 1.5833 1.9167 3.25 1 1.625 1.875 3.125 0.875 1.5 1.375 2.375 0.625-0.29166 1.7917-1.0833 1.2083-0.83333 2.7917-1.9583 1.5833-1.1667 3.375-2.5833 1.8333-1.4167 3.6667-2.9167 1.8333-1.5 3.5417-2.9583 1.7083-1.5 3.0833-2.8333 1.1667-1.125 1.9167-1.9167 0.79166-0.83333 1.3333-1.3333 0.58333-0.54166 1-0.79166 0.41666-0.29167 0.91666-0.29167 0.54166 0 0.875 0.41667 0.375 0.37499 0.58333 0.87499 0.20833 0.45833 0.29167 0.875 0.08333 0.41666 0.08333 0.5z"/>
  <path d="m55.349 163.89q0.625-0.91666 1.5417-1.8333 0.91666-0.91667 1.9167-1.6667 1-0.75 1.9167-1.2083 0.95833-0.5 1.5833-0.5 0.91666 0 1.75 0.33333t1.4583 0.91667q0.66666 0.54166 1.0417 1.2917 0.41666 0.70833 0.41666 1.4583 0 0.95833-0.54166 2-0.5 0.99999-1.2917 2-0.75 0.95833-1.6667 1.875-0.875 0.875-1.6667 1.6667-0.75 0.75-1.2917 1.3333-0.5 0.58333-0.5 0.91666 0 0.5 0.91666 1.5417 0.91666 1 2.2917 2.25 1.375 1.25 3.0417 2.5833 1.6667 1.3333 3.1667 2.4167 1.3333 0.95833 2.2917 1.9166 1 0.95833 1.2083 1.875 1.5417-1.2083 2.7083-2.1667t2.4583-2.1667q1.2917-1.2083 2.9583-2.9166 1.7083-1.7083 4.25-4.4583 1.375-1.4583 2.5833-2.75 1.25-1.3333 2.2917-2.2917 1.0833-0.95833 1.9583-1.5 0.91666-0.58333 1.5833-0.58333 1.0417 0 1.4583 0.79166 0.41666 0.75 0.41666 1.9583 0 0.45833-0.625 1.625-0.625 1.1667-1.6667 2.7083-1 1.5-2.3333 3.2917-1.2917 1.75-2.6667 3.4583-1.3333 1.7083-2.625 3.2083-1.25 1.4583-2.25 2.4167-0.16667 0.16666-0.83333 0.79166-0.625 0.625-1.5 1.5-0.875 0.83333-1.9167 1.8333-1 0.95833-1.9167 1.875-0.91666 0.875-1.625 1.5833-0.70833 0.66666-1 0.95833-0.20833 0.20833-0.95833 0.99999-0.70833 0.79167-1.7083 1.875-0.95833 1.0833-2.0833 2.2916-1.125 1.2083-2.125 2.2917-0.95833 1.0833-1.75 1.875-0.75 0.79166-1 1.0417-2.375 2.125-4.6666 3.5416-2.25 1.4583-4.7083 1.4583-1.1667 0-2.1667-0.25t-1.75-0.70833-1.1667-1.125q-0.41667-0.66666-0.41667-1.5417 0-1.4583 0.95833-2.6666 1-1.2083 2.4583-2.25 1.5-1.0833 3.25-2 1.75-0.95833 3.2917-1.8333 2.5-1.4583 3.6667-3.2917 1.2083-1.875 1.2083-3.7083 0-1.3333-1.625-2.9583-1.5833-1.6667-5.3333-4.0416-1.5-0.95833-2.7083-2.0833-1.2083-1.1667-2.0833-2.2917-0.83333-1.1667-1.2917-2.25-0.45833-1.125-0.45833-1.9583 0-1.5417 0.16667-2.75 0.20833-1.25 0.625-2.4583 0.45833-1.2083 1.2083-2.5 0.75-1.3333 1.875-3.0417z"/>
  <path d="m128.97 167.56q-0.0417 0.70833-0.49999 2.25-0.45834 1.5-1.1667 3.5416-0.66666 2.0417-1.5833 4.5-0.875 2.4167-1.7917 5-0.875 2.5833-1.75 5.2083-0.87499 2.5833-1.5417 4.9166-0.0417 0.125-0.375 1.1667-0.29166 0.99999-0.79166 2.625-0.5 1.5833-1.125 3.625-0.625 2-1.2917 4.125-0.62499 2.125-1.2917 4.125-0.625 2.0417-1.125 3.6666-0.5 1.625-0.83333 2.6667-0.33334 1.0833-0.375 1.2083-0.33333 1.125-0.75 2.625-0.375 1.5-1.0833 2.7916-0.66666 1.3333-1.7917 2.25-1.125 0.91667-2.9583 0.91667-1.0417 0-1.875-0.41667-0.79167-0.41666-1.375-1.0833-0.54166-0.625-0.87499-1.4583-0.29167-0.79166-0.29167-1.5833 0-0.91667 0.45833-2.4583 0.45833-1.5 1.125-3.3333 0.70833-1.7917 1.5-3.8333 0.83333-2 1.5417-3.9583 0 0 0.29167-0.83333 0.33333-0.79167 0.83333-2.125 0.5-1.3333 1.0833-3 0.62499-1.6667 1.25-3.3333t1.1667-3.1667q0.58334-1.5 0.95833-2.5-0.95833 0.79167-2.2083 1.7083-1.25 0.91666-2.6667 1.875-1.375 0.91666-2.9166 1.7917-1.5417 0.83333-3.0833 1.5-1.5 0.66667-3 1.0833-1.4583 0.375-2.7917 0.375-2.875 0-5.0833-0.95833t-3.7083-2.4166q-1.5-1.5-2.2917-3.25-0.75-1.7917-0.75-3.4583 0-1.25 0.25-3.0833 0.29166-1.8333 0.75-3.9166 0.5-2.125 1.1667-4.375 0.66666-2.2916 1.4167-4.4166 0.75-2.125 1.5417-3.9166 0.83333-1.8333 1.6667-3.0416 1.2917-1.875 2.4583-2.625 1.2083-0.75 2.5833-0.75 1.2917 0 2.0833 0.375 0.83333 0.375 1.2917 1.0417 0.45833 0.66667 0.625 1.5 0.16666 0.83333 0.16666 1.7917 0 0.58333-0.5 1.6667-0.45833 1.0833-1.1667 2.5833-0.625 1.2917-1.4583 3.0833-0.83333 1.75-1.5417 3.8333-0.70833 2.0417-1.2083 4.2916t-0.5 4.5416q0 0.79166 0.41666 1.3333 0.41666 0.54166 0.95833 0.87499 0.58333 0.29167 1.1667 0.45833 0.625 0.125 1 0.125 1.5 0 3.125-0.58333 1.625-0.625 3.2083-1.5 1.625-0.91667 3.125-1.9167 1.5417-1.0417 2.9166-1.875 1.125-0.70833 2.5-1.7917 1.375-1.125 2.375-2.5 0.45833-0.625 1.0833-2.2083 0.66667-1.625 1.375-3.6666t1.375-4.1666q0.70833-2.1667 1.2083-3.9166 0.375-1.25 0.95833-2.1667 0.625-0.95833 1.2917-1.5417 0.70833-0.625 1.4167-0.91666 0.75-0.33334 1.375-0.33334 1.4167 0 2.25 0.25 0.875 0.25 1.3333 0.875 0.45833 0.58333 0.58333 1.625 0.16666 1 0.16666 2.5z"/>
 </g>
</svg>
