<!-- Created with Inkscape (http://www.inkscape.org/) -->
<svg width="16" height="16" version="1.1" viewBox="0 0 4.2333 4.2333" xmlns="http://www.w3.org/2000/svg">
    <style type="text/css" id="current-color-scheme">
      .ColorScheme-Text {
        color:#232629;
      }
      </style>
 <path style="fill:currentColor;fill-opacity:1;stroke:none" class="ColorScheme-Text" d="m1.1992 0.5293c-0.36886 0-0.66992 0.30106-0.66992 0.66992v1.834c0 0.36886 0.30106 0.67188 0.66992 0.67188h1.834c0.36886 0 0.67188-0.30302 0.67188-0.67188v-1.834c0-0.36886-0.30302-0.66992-0.67188-0.66992zm0 0.28125h1.834c0.21746 0 0.38867 0.17121 0.38867 0.38867v1.834c0 0.21746-0.17121 0.38867-0.38867 0.38867h-1.834c-0.21746 0-0.38867-0.17121-0.38867-0.38867v-1.834c0-0.21746 0.17121-0.38867 0.38867-0.38867z"/>
</svg>
