<?xml version='1.0' encoding='UTF-8' standalone='no'?>
<svg baseProfile="tiny" height="4.7625mm" version="1.2" viewBox="0 0 36 36" width="4.7625mm" xmlns="http://www.w3.org/2000/svg" xmlns:xlink="http://www.w3.org/1999/xlink">
    <style id="current-color-scheme" type="text/css">.ColorScheme-Text {color:#232629;}</style>
    <title>Qt SVG Document</title>
    <desc>Auto-generated by Klassy window decoration</desc>
    <defs/>
    <g fill="none" fill-rule="evenodd" stroke="black" stroke-linecap="square" stroke-linejoin="bevel" stroke-width="1">
        <g class="ColorScheme-Text" fill="currentColor" fill-opacity="0.450004" font-family="Noto Sans" font-size="26.6667" font-style="normal" font-weight="400" stroke="none" transform="matrix(2,0,0,2,15,15)">
            <rect height="3.5" width="3.5" x="0" y="0"/>
        </g>
        <g class="ColorScheme-Text" fill="currentColor" fill-opacity="0.902495" font-family="Noto Sans" font-size="26.6667" font-style="normal" font-weight="400" stroke="none" transform="matrix(2,0,0,2,15,15)">
            <path d="M0,-0.75075 L3.5,-0.75075 L4.25075,0 L4.25075,3.5 L3.5,4.25075 L0,4.25075 L-0.75075,3.5 L-0.75075,0 L0,-0.75075 M0.75075,0 L0.75075,3.5 L0,3.5 L0,2.74925 L3.5,2.74925 L3.5,3.5 L2.74925,3.5 L2.74925,0 L3.5,0 L3.5,0.75075 L0,0.75075 L0,0 L0.75075,0" fill-rule="nonzero" vector-effect="none"/>
        </g>
    </g>
</svg>
