<?xml version='1.0' encoding='UTF-8' standalone='no'?>
<svg width="4.7625mm" viewBox="0 0 36 36" baseProfile="tiny" xmlns="http://www.w3.org/2000/svg" xmlns:xlink="http://www.w3.org/1999/xlink" version="1.2" height="4.7625mm">
    <style id="current-color-scheme" type="text/css">.ColorScheme-Text {color:#232629;}</style>
    <title>Qt SVG Document</title>
    <desc>Auto-generated by Klassy window decoration</desc>
    <defs/>
    <g stroke-linecap="square" fill-rule="evenodd" stroke-linejoin="bevel" stroke-width="1" fill="none" stroke="black">
        <g class="ColorScheme-Text" font-weight="400" font-family="Noto Sans" font-size="26.6667" transform="matrix(2,0,0,2,0,0)" fill-opacity="1" fill="currentColor" font-style="normal" stroke="none">
            <path fill-rule="nonzero" vector-effect="none" d="M4.5,12 L8.5,12 C8.77614,12 9,12.2239 9,12.5 C9,12.7761 8.77614,13 8.5,13 L4.5,13 C4.22386,13 4,12.7761 4,12.5 C4,12.2239 4.22386,12 4.5,12 "/>
            <path fill-rule="nonzero" vector-effect="none" d="M4.5,8 L8.5,8 C8.77614,8 9,8.22386 9,8.5 C9,8.77614 8.77614,9 8.5,9 L4.5,9 C4.22386,9 4,8.77614 4,8.5 C4,8.22386 4.22386,8 4.5,8 "/>
            <path fill-rule="nonzero" vector-effect="none" d="M4.5,4 L13.5,4 C13.7761,4 14,4.22386 14,4.5 C14,4.77614 13.7761,5 13.5,5 L4.5,5 C4.22386,5 4,4.77614 4,4.5 C4,4.22386 4.22386,4 4.5,4 "/>
            <path fill-rule="nonzero" vector-effect="none" d="M14,6.5 L14,14.5 C14,14.7761 13.7761,15 13.5,15 C13.2239,15 13,14.7761 13,14.5 L13,6.5 C13,6.22386 13.2239,6 13.5,6 C13.7761,6 14,6.22386 14,6.5 "/>
            <path fill-rule="nonzero" vector-effect="none" d="M11.1464,8.14645 L13.1464,6.14645 L13.5,5.79289 L13.8536,6.14645 L15.8536,8.14645 C16.0488,8.34171 16.0488,8.65829 15.8536,8.85355 C15.6583,9.04882 15.3417,9.04882 15.1464,8.85355 L13.1464,6.85355 L13.5,6.5 L13.8536,6.85355 L11.8536,8.85355 C11.6583,9.04882 11.3417,9.04882 11.1464,8.85355 C10.9512,8.65829 10.9512,8.34171 11.1464,8.14645 "/>
        </g>
    </g>
</svg>
