<?xml version='1.0' encoding='UTF-8' standalone='no'?>
<svg width="4.7625mm" viewBox="0 0 36 36" baseProfile="tiny" xmlns="http://www.w3.org/2000/svg" xmlns:xlink="http://www.w3.org/1999/xlink" version="1.2" height="4.7625mm">
    <style id="current-color-scheme" type="text/css">.ColorScheme-Text {color:#232629;}</style>
    <title>Qt SVG Document</title>
    <desc>Auto-generated by Klassy window decoration</desc>
    <defs/>
    <g stroke-linecap="square" fill-rule="evenodd" stroke-linejoin="bevel" stroke-width="1" fill="none" stroke="black">
        <g class="ColorScheme-Text" font-weight="400" font-family="Noto Sans" font-size="26.6667" transform="matrix(2,0,0,2,0,0)" fill-opacity="1" fill="currentColor" font-style="normal" stroke="none">
            <path fill-rule="nonzero" vector-effect="none" d="M4.81625,3.68375 L14.3163,13.1837 C14.629,13.4965 14.629,14.0035 14.3163,14.3163 C14.0035,14.629 13.4965,14.629 13.1837,14.3163 L3.68375,4.81625 C3.37102,4.50352 3.37102,3.99648 3.68375,3.68375 C3.99648,3.37102 4.50352,3.37102 4.81625,3.68375 "/>
            <path fill-rule="nonzero" vector-effect="none" d="M14.3163,4.81625 L4.81625,14.3163 C4.50352,14.629 3.99648,14.629 3.68375,14.3163 C3.37102,14.0035 3.37102,13.4965 3.68375,13.1837 L13.1837,3.68375 C13.4965,3.37102 14.0035,3.37102 14.3163,3.68375 C14.629,3.99648 14.629,4.50352 14.3163,4.81625 "/>
        </g>
    </g>
</svg>
