<?xml version='1.0' encoding='UTF-8' standalone='no'?>
<svg width="5.29167mm" viewBox="0 0 40 40" baseProfile="tiny" xmlns="http://www.w3.org/2000/svg" xmlns:xlink="http://www.w3.org/1999/xlink" version="1.2" height="5.29167mm">
    <style id="current-color-scheme" type="text/css">.ColorScheme-Text {color:#232629;}</style>
    <title>Qt SVG Document</title>
    <desc>Auto-generated by Klassy window decoration</desc>
    <defs/>
    <g stroke-linecap="square" fill-rule="evenodd" stroke-linejoin="bevel" stroke-width="1" fill="none" stroke="black">
        <g class="ColorScheme-Text" font-weight="400" font-family="Noto Sans" font-size="26.6667" transform="matrix(2.22222,0,0,2.22222,0,0)" fill-opacity="1" fill="currentColor" font-style="normal" stroke="none">
            <path fill-rule="nonzero" vector-effect="none" d="M4.05,4.05 L13.95,4.05 C14.3228,4.05 14.625,4.35221 14.625,4.725 C14.625,5.09779 14.3228,5.4 13.95,5.4 L4.05,5.4 C3.67721,5.4 3.375,5.09779 3.375,4.725 C3.375,4.35221 3.67721,4.05 4.05,4.05 "/>
            <path fill-rule="nonzero" vector-effect="none" d="M4.4773,7.5227 L9.4773,12.5227 L9,13 L8.5227,12.5227 L13.5227,7.5227 C13.7863,7.2591 14.2137,7.2591 14.4773,7.5227 C14.7409,7.78631 14.7409,8.21369 14.4773,8.4773 L9.4773,13.4773 L9,13.9546 L8.5227,13.4773 L3.5227,8.4773 C3.2591,8.21369 3.2591,7.78631 3.5227,7.5227 C3.78631,7.2591 4.21369,7.2591 4.4773,7.5227 "/>
        </g>
    </g>
</svg>
