<?xml version='1.0' encoding='UTF-8' standalone='no'?>
<svg width="4.7625mm" viewBox="0 0 18 18" baseProfile="tiny" xmlns="http://www.w3.org/2000/svg" xmlns:xlink="http://www.w3.org/1999/xlink" version="1.2" height="4.7625mm">
    <style id="current-color-scheme" type="text/css">.ColorScheme-Text {color:#fcfcfc;}</style>
    <title>Qt SVG Document</title>
    <desc>Auto-generated by Klassy window decoration</desc>
    <defs/>
    <g stroke-linecap="square" fill-rule="evenodd" stroke-linejoin="bevel" stroke-width="1" fill="none" stroke="black">
        <g class="ColorScheme-Text" font-weight="400" font-family="Noto Sans" font-size="13.3333" transform="matrix(1,0,0,1,4.5,6.5)" fill-opacity="0.900008" fill="currentColor" font-style="normal" stroke="none">
            <path fill-rule="nonzero" vector-effect="none" d="M0,-0.5 L7,-0.5 L7.5,0 L7.5,7 L7,7.5 L0,7.5 L-0.5,7 L-0.5,0 L0,-0.5 M0.5,0 L0.5,7 L0,7 L0,6.5 L7,6.5 L7,7 L6.5,7 L6.5,0 L7,0 L7,0.5 L0,0.5 L0,0 L0.5,0"/>
        </g>
        <g class="ColorScheme-Text" font-weight="400" font-family="Noto Sans" font-size="13.3333" transform="matrix(1,0,0,1,4.5,6.5)" fill-opacity="0.900008" fill="currentColor" font-style="normal" stroke="none">
            <path fill-rule="nonzero" vector-effect="none" d="M1.5,-0.5 L1.5,-2 L2,-2.5 L9,-2.5 L9.5,-2 L9.5,5 L9,5.5 L7.5,5.5 L7.5,4.5 L9,4.5 L9,5 L8.5,5 L8.5,-2 L9,-2 L9,-1.5 L2,-1.5 L2,-2 L2.5,-2 L2.5,-0.5 L1.5,-0.5"/>
        </g>
    </g>
</svg>
