<?xml version='1.0' encoding='UTF-8' standalone='no'?>
<svg width="4.7625mm" viewBox="0 0 18 18" baseProfile="tiny" xmlns="http://www.w3.org/2000/svg" xmlns:xlink="http://www.w3.org/1999/xlink" version="1.2" height="4.7625mm">
    <style id="current-color-scheme" type="text/css">.ColorScheme-Text {color:#fcfcfc;}</style>
    <title>Qt SVG Document</title>
    <desc>Auto-generated by Klassy window decoration</desc>
    <defs/>
    <g stroke-linecap="square" fill-rule="evenodd" stroke-linejoin="bevel" stroke-width="1" fill="none" stroke="black">
        <g class="ColorScheme-Text" font-weight="400" font-family="Noto Sans" font-size="13.3333" transform="matrix(1,0,0,1,0,0)" fill-opacity="1" fill="currentColor" font-style="normal" stroke="none">
            <path fill-rule="nonzero" vector-effect="none" d="M4.5,12 L8.5,12 L8.5,13 L4.5,13 L4.5,12"/>
            <path fill-rule="nonzero" vector-effect="none" d="M4.5,8 L8.5,8 L8.5,9 L4.5,9 L4.5,8"/>
            <path fill-rule="nonzero" vector-effect="none" d="M4.5,4 L13.5,4 L13.5,5 L4.5,5 L4.5,4"/>
            <path fill-rule="nonzero" vector-effect="none" d="M14,6.5 L14,14.5 L13,14.5 L13,6.5 L14,6.5"/>
            <path fill-rule="nonzero" vector-effect="none" d="M10.6464,8.64645 L13.1464,6.14645 L13.5,5.79289 L13.8536,6.14645 L16.3536,8.64645 L15.6464,9.35355 L13.1464,6.85355 L13.5,6.5 L13.8536,6.85355 L11.3536,9.35355 L10.6464,8.64645"/>
        </g>
    </g>
</svg>
