<?xml version='1.0' encoding='UTF-8' standalone='no'?>
<svg version="1.2" xmlns:xlink="http://www.w3.org/1999/xlink" viewBox="0 0 18 18" xmlns="http://www.w3.org/2000/svg" width="4.7625mm" height="4.7625mm" baseProfile="tiny">
    <style id="current-color-scheme" type="text/css">.ColorScheme-Text {color:#fcfcfc;}</style>
    <title>Qt SVG Document</title>
    <desc>Auto-generated by Klassy window decoration</desc>
    <defs/>
    <g stroke-linejoin="bevel" stroke-linecap="square" fill="none" stroke-width="1" stroke="black" fill-rule="evenodd">
        <g font-weight="400" class="ColorScheme-Text" font-size="13.3333" fill="currentColor" transform="matrix(1,0,0,1,4.5,6.5)" font-style="normal" stroke="none" font-family="Noto Sans" fill-opacity="0.900008">
            <path vector-effect="none" fill-rule="nonzero" d="M0,-0.5005 L7,-0.5005 L7.5005,0 L7.5005,7 L7,7.5005 L0,7.5005 L-0.5005,7 L-0.5005,0 L0,-0.5005 M0.5005,0 L0.5005,7 L0,7 L0,6.4995 L7,6.4995 L7,7 L6.4995,7 L6.4995,0 L7,0 L7,0.5005 L0,0.5005 L0,0 L0.5005,0"/>
        </g>
        <g font-weight="400" class="ColorScheme-Text" font-size="13.3333" fill="currentColor" transform="matrix(1,0,0,1,4.5,6.5)" font-style="normal" stroke="none" font-family="Noto Sans" fill-opacity="0.900008">
            <path vector-effect="none" fill-rule="nonzero" d="M1.4995,-0.5005 L1.4995,-2 L2,-2.5005 L9,-2.5005 L9.5005,-2 L9.5005,5 L9,5.5005 L7.5005,5.5005 L7.5005,4.4995 L9,4.4995 L9,5 L8.4995,5 L8.4995,-2 L9,-2 L9,-1.4995 L2,-1.4995 L2,-2 L2.5005,-2 L2.5005,-0.5005 L1.4995,-0.5005"/>
        </g>
    </g>
</svg>
