<?xml version='1.0' encoding='UTF-8' standalone='no'?>
<svg baseProfile="tiny" height="4.7625mm" version="1.2" viewBox="0 0 18 18" width="4.7625mm" xmlns="http://www.w3.org/2000/svg" xmlns:xlink="http://www.w3.org/1999/xlink">
    <style id="current-color-scheme" type="text/css">.ColorScheme-Text {color:#fcfcfc;}</style>
    <title>Qt SVG Document</title>
    <desc>Auto-generated by Klassy window decoration</desc>
    <defs/>
    <g fill="none" fill-rule="evenodd" stroke="black" stroke-linecap="square" stroke-linejoin="bevel" stroke-width="1">
        <g class="ColorScheme-Text" fill="currentColor" fill-opacity="1" font-family="Noto Sans" font-size="13.3333" font-style="normal" font-weight="400" stroke="none" transform="matrix(1,0,0,1,0,0)">
            <path d="M4.5,13.9995 L13.5,13.9995 L13.5,15.0005 L4.5,15.0005 L4.5,13.9995" fill-rule="nonzero" vector-effect="none"/>
            <path d="M9.5,9.9995 L13.5,9.9995 L13.5,11.0005 L9.5,11.0005 L9.5,9.9995" fill-rule="nonzero" vector-effect="none"/>
            <path d="M9.5,5.9995 L13.5,5.9995 L13.5,7.0005 L9.5,7.0005 L9.5,5.9995" fill-rule="nonzero" vector-effect="none"/>
            <path d="M5.0005,4.5 L5.0005,12.5 L3.9995,12.5 L3.9995,4.5 L5.0005,4.5" fill-rule="nonzero" vector-effect="none"/>
            <path d="M2.35391,9.64609 L4.85391,12.1461 L4.5,12.5 L4.14609,12.1461 L6.64609,9.64609 L7.35391,10.3539 L4.85391,12.8539 L4.5,13.2078 L4.14609,12.8539 L1.64609,10.3539 L2.35391,9.64609" fill-rule="nonzero" vector-effect="none"/>
        </g>
    </g>
</svg>
