<?xml version='1.0' encoding='UTF-8' standalone='no'?>
<svg baseProfile="tiny" height="8.46667mm" version="1.2" viewBox="0 0 80 80" width="8.46667mm" xmlns="http://www.w3.org/2000/svg" xmlns:xlink="http://www.w3.org/1999/xlink">
    <style id="current-color-scheme" type="text/css">.ColorScheme-Text {color:#232629;}</style>
    <title>Qt SVG Document</title>
    <desc>Auto-generated by Klassy window decoration</desc>
    <defs/>
    <g fill="none" fill-rule="evenodd" stroke="black" stroke-linecap="square" stroke-linejoin="bevel" stroke-width="1">
        <g class="ColorScheme-Text" fill="currentColor" fill-opacity="0.949996" font-family="Noto Sans" font-size="33.3333" font-style="normal" font-weight="400" stroke="none" transform="matrix(4.44444,0,0,4.44444,17.5,31.5)">
            <path d="M0,-0.788287 L7.2,-0.788287 L7.98829,0 L7.98829,7.2 L7.2,7.98829 L0,7.98829 L-0.788287,7.2 L-0.788287,0 L0,-0.788287 M0.788287,0 L0.788287,7.2 L0,7.2 L0,6.41171 L7.2,6.41171 L7.2,7.2 L6.41171,7.2 L6.41171,0 L7.2,0 L7.2,0.788287 L0,0.788287 L0,0 L0.788287,0" fill-rule="nonzero" vector-effect="none"/>
        </g>
        <g class="ColorScheme-Text" fill="currentColor" fill-opacity="0.949996" font-family="Noto Sans" font-size="33.3333" font-style="normal" font-weight="400" stroke="none" transform="matrix(4.44444,0,0,4.44444,17.5,31.5)">
            <path d="M2.36171,-0.788287 L2.36171,-3.15 L3.15,-3.93829 L10.35,-3.93829 L11.1383,-3.15 L11.1383,4.05 L10.35,4.83829 L7.98829,4.83829 L7.98829,3.26171 L10.35,3.26171 L10.35,4.05 L9.56171,4.05 L9.56171,-3.15 L10.35,-3.15 L10.35,-2.36171 L3.15,-2.36171 L3.15,-3.15 L3.93829,-3.15 L3.93829,-0.788287 L2.36171,-0.788287" fill-rule="nonzero" vector-effect="none"/>
        </g>
    </g>
</svg>
