<?xml version='1.0' encoding='UTF-8' standalone='no'?>
<svg baseProfile="tiny" height="8.46667mm" version="1.2" viewBox="0 0 80 80" width="8.46667mm" xmlns="http://www.w3.org/2000/svg" xmlns:xlink="http://www.w3.org/1999/xlink">
    <style id="current-color-scheme" type="text/css">.ColorScheme-Text {color:#232629;}</style>
    <title>Qt SVG Document</title>
    <desc>Auto-generated by Klassy window decoration</desc>
    <defs/>
    <g fill="none" fill-rule="evenodd" stroke="black" stroke-linecap="square" stroke-linejoin="bevel" stroke-width="1">
        <g class="ColorScheme-Text" fill="currentColor" fill-opacity="0.450004" font-family="Noto Sans" font-size="33.3333" font-style="normal" font-weight="400" stroke="none" transform="matrix(4.44444,0,0,4.44444,33,33)">
            <rect height="3.375" width="3.375" x="0" y="0"/>
        </g>
        <g class="ColorScheme-Text" fill="currentColor" fill-opacity="0.902495" font-family="Noto Sans" font-size="33.3333" font-style="normal" font-weight="400" stroke="none" transform="matrix(4.44444,0,0,4.44444,33,33)">
            <path d="M0,-0.788287 L3.375,-0.788287 L4.16329,0 L4.16329,3.375 L3.375,4.16329 L0,4.16329 L-0.788287,3.375 L-0.788287,0 L0,-0.788287 M0.788287,0 L0.788287,3.375 L0,3.375 L0,2.58671 L3.375,2.58671 L3.375,3.375 L2.58671,3.375 L2.58671,0 L3.375,0 L3.375,0.788287 L0,0.788287 L0,0 L0.788287,0" fill-rule="nonzero" vector-effect="none"/>
        </g>
    </g>
</svg>
