<?xml version='1.0' encoding='UTF-8' standalone='no'?>
<svg width="8.46667mm" viewBox="0 0 80 80" baseProfile="tiny" xmlns="http://www.w3.org/2000/svg" xmlns:xlink="http://www.w3.org/1999/xlink" version="1.2" height="8.46667mm">
    <style id="current-color-scheme" type="text/css">.ColorScheme-Text {color:#232629;}</style>
    <title>Qt SVG Document</title>
    <desc>Auto-generated by Klassy window decoration</desc>
    <defs/>
    <g stroke-linecap="square" fill-rule="evenodd" stroke-linejoin="bevel" stroke-width="1" fill="none" stroke="black">
        <g class="ColorScheme-Text" font-weight="400" font-family="Noto Sans" font-size="33.3333" transform="matrix(4.44444,0,0,4.44444,17.5,31.5)" fill-opacity="1" fill="currentColor" font-style="normal" stroke="none">
            <path fill-rule="nonzero" vector-effect="none" d="M0,-0.7875 L7.2,-0.7875 L7.9875,0 L7.9875,7.2 L7.2,7.9875 L0,7.9875 L-0.7875,7.2 L-0.7875,0 L0,-0.7875 M0.7875,0 L0.7875,7.2 L0,7.2 L0,6.4125 L7.2,6.4125 L7.2,7.2 L6.4125,7.2 L6.4125,0 L7.2,0 L7.2,0.7875 L0,0.7875 L0,0 L0.7875,0"/>
        </g>
        <g class="ColorScheme-Text" font-weight="400" font-family="Noto Sans" font-size="33.3333" transform="matrix(4.44444,0,0,4.44444,17.5,31.5)" fill-opacity="1" fill="currentColor" font-style="normal" stroke="none">
            <path fill-rule="nonzero" vector-effect="none" d="M2.3625,-0.7875 L2.3625,-3.15 L3.15,-3.9375 L10.35,-3.9375 L11.1375,-3.15 L11.1375,4.05 L10.35,4.8375 L7.9875,4.8375 L7.9875,3.2625 L10.35,3.2625 L10.35,4.05 L9.5625,4.05 L9.5625,-3.15 L10.35,-3.15 L10.35,-2.3625 L3.15,-2.3625 L3.15,-3.15 L3.9375,-3.15 L3.9375,-0.7875 L2.3625,-0.7875"/>
        </g>
    </g>
</svg>
