<?xml version='1.0' encoding='UTF-8' standalone='no'?>
<svg width="8.46667mm" viewBox="0 0 80 80" baseProfile="tiny" xmlns="http://www.w3.org/2000/svg" xmlns:xlink="http://www.w3.org/1999/xlink" version="1.2" height="8.46667mm">
    <style id="current-color-scheme" type="text/css">.ColorScheme-Text {color:#232629;}</style>
    <title>Qt SVG Document</title>
    <desc>Auto-generated by Klassy window decoration</desc>
    <defs/>
    <g stroke-linecap="square" fill-rule="evenodd" stroke-linejoin="bevel" stroke-width="1" fill="none" stroke="black">
        <g class="ColorScheme-Text" font-weight="400" font-family="Noto Sans" font-size="33.3333" transform="matrix(4.44444,0,0,4.44444,33,33)" fill-opacity="0.650004" fill="currentColor" font-style="normal" stroke="none">
            <rect width="3.15" y="0" x="0" height="3.15"/>
        </g>
        <g class="ColorScheme-Text" font-weight="400" font-family="Noto Sans" font-size="33.3333" transform="matrix(4.44444,0,0,4.44444,33,33)" fill-opacity="0.850004" fill="currentColor" font-style="normal" stroke="none">
            <path fill-rule="nonzero" vector-effect="none" d="M0,-0.45 L3.15,-0.45 L3.6,0 L3.6,3.15 L3.15,3.6 L0,3.6 L-0.45,3.15 L-0.45,0 L0,-0.45 M0.45,0 L0.45,3.15 L0,3.15 L0,2.7 L3.15,2.7 L3.15,3.15 L2.7,3.15 L2.7,0 L3.15,0 L3.15,0.45 L0,0.45 L0,0 L0.45,0"/>
        </g>
    </g>
</svg>
