<?xml version='1.0' encoding='UTF-8' standalone='no'?>
<svg version="1.2" xmlns:xlink="http://www.w3.org/1999/xlink" viewBox="0 0 80 80" xmlns="http://www.w3.org/2000/svg" width="8.46667mm" height="8.46667mm" baseProfile="tiny">
    <style id="current-color-scheme" type="text/css">.ColorScheme-Text {color:#232629;}</style>
    <title>Qt SVG Document</title>
    <desc>Auto-generated by Klassy window decoration</desc>
    <defs/>
    <g stroke-linejoin="bevel" stroke-linecap="square" fill="none" stroke-width="1" stroke="black" fill-rule="evenodd">
        <g font-weight="400" class="ColorScheme-Text" font-size="33.3333" fill="currentColor" transform="matrix(4.44444,0,0,4.44444,0,0)" font-style="normal" stroke="none" font-family="Noto Sans" fill-opacity="1">
            <path vector-effect="none" fill-rule="nonzero" d="M4.05,3.82432 L13.95,3.82432 C14.3232,3.82432 14.6257,4.12684 14.6257,4.5 C14.6257,4.87316 14.3232,5.17568 13.95,5.17568 L4.05,5.17568 C3.67684,5.17568 3.37432,4.87316 3.37432,4.5 C3.37432,4.12684 3.67684,3.82432 4.05,3.82432 "/>
            <path vector-effect="none" fill-rule="nonzero" d="M4.47777,7.52223 L9.47777,12.5222 L9,13 L8.52223,12.5222 L13.5222,7.52223 C13.7861,7.25836 14.2139,7.25836 14.4778,7.52223 C14.7416,7.78609 14.7416,8.21391 14.4778,8.47777 L9.47777,13.4778 L9,13.9555 L8.52223,13.4778 L3.52223,8.47777 C3.25836,8.21391 3.25836,7.78609 3.52223,7.52223 C3.78609,7.25836 4.21391,7.25836 4.47777,7.52223 "/>
        </g>
    </g>
</svg>
