<?xml version='1.0' encoding='UTF-8' standalone='no'?>
<svg baseProfile="tiny" height="8.46667mm" version="1.2" viewBox="0 0 80 80" width="8.46667mm" xmlns="http://www.w3.org/2000/svg" xmlns:xlink="http://www.w3.org/1999/xlink">
    <style id="current-color-scheme" type="text/css">.ColorScheme-Text {color:#232629;}</style>
    <title>Qt SVG Document</title>
    <desc>Auto-generated by Klassy window decoration</desc>
    <defs/>
    <g fill="none" fill-rule="evenodd" stroke="black" stroke-linecap="square" stroke-linejoin="bevel" stroke-width="1">
        <g class="ColorScheme-Text" fill="currentColor" fill-opacity="1" font-family="Noto Sans" font-size="33.3333" font-style="normal" font-weight="400" stroke="none" transform="matrix(4.44444,0,0,4.44444,0,0)">
            <path d="M4.6125,13.9494 L13.6125,13.9494 C13.9235,13.9494 14.1756,14.2015 14.1756,14.5125 C14.1756,14.8235 13.9235,15.0756 13.6125,15.0756 L4.6125,15.0756 C4.30153,15.0756 4.04944,14.8235 4.04944,14.5125 C4.04944,14.2015 4.30153,13.9494 4.6125,13.9494 " fill-rule="nonzero" vector-effect="none"/>
            <path d="M9.5625,9.89944 L13.6125,9.89944 C13.9235,9.89944 14.1756,10.1515 14.1756,10.4625 C14.1756,10.7735 13.9235,11.0256 13.6125,11.0256 L9.5625,11.0256 C9.25153,11.0256 8.99944,10.7735 8.99944,10.4625 C8.99944,10.1515 9.25153,9.89944 9.5625,9.89944 " fill-rule="nonzero" vector-effect="none"/>
            <path d="M9.5625,5.84944 L13.6125,5.84944 C13.9235,5.84944 14.1756,6.10153 14.1756,6.4125 C14.1756,6.72347 13.9235,6.97556 13.6125,6.97556 L9.5625,6.97556 C9.25153,6.97556 8.99944,6.72347 8.99944,6.4125 C8.99944,6.10153 9.25153,5.84944 9.5625,5.84944 " fill-rule="nonzero" vector-effect="none"/>
            <path d="M4.95056,4.3875 L4.95056,12.4875 C4.95056,12.7985 4.69847,13.0506 4.3875,13.0506 C4.07653,13.0506 3.82444,12.7985 3.82444,12.4875 L3.82444,4.3875 C3.82444,4.07653 4.07653,3.82444 4.3875,3.82444 C4.69847,3.82444 4.95056,4.07653 4.95056,4.3875 " fill-rule="nonzero" vector-effect="none"/>
            <path d="M3.00834,10.0884 L4.80834,12.1134 L4.3875,12.4875 L3.96666,12.1134 L5.76666,10.0884 C5.97326,9.856 6.32916,9.83506 6.56158,10.0417 C6.794,10.2483 6.81494,10.6042 6.60834,10.8366 L4.80834,12.8616 L4.3875,13.335 L3.96666,12.8616 L2.16666,10.8366 C1.96006,10.6042 1.981,10.2483 2.21342,10.0417 C2.44584,9.83506 2.80174,9.856 3.00834,10.0884 " fill-rule="nonzero" vector-effect="none"/>
        </g>
    </g>
</svg>
