<?xml version='1.0' encoding='UTF-8' standalone='no'?>
<svg version="1.2" xmlns:xlink="http://www.w3.org/1999/xlink" viewBox="0 0 80 80" xmlns="http://www.w3.org/2000/svg" width="8.46667mm" height="8.46667mm" baseProfile="tiny">
    <style id="current-color-scheme" type="text/css">.ColorScheme-Text {color:#232629;}</style>
    <title>Qt SVG Document</title>
    <desc>Auto-generated by Klassy window decoration</desc>
    <defs/>
    <g stroke-linejoin="bevel" stroke-linecap="square" fill="none" stroke-width="1" stroke="black" fill-rule="evenodd">
        <g font-weight="400" class="ColorScheme-Text" font-size="33.3333" fill="currentColor" transform="matrix(4.44444,0,0,4.44444,0,0)" font-style="normal" stroke="none" font-family="Noto Sans" fill-opacity="1">
            <path vector-effect="none" fill-rule="nonzero" d="M4.3875,11.9244 L8.4375,11.9244 C8.74847,11.9244 9.00056,12.1765 9.00056,12.4875 C9.00056,12.7985 8.74847,13.0506 8.4375,13.0506 L4.3875,13.0506 C4.07653,13.0506 3.82444,12.7985 3.82444,12.4875 C3.82444,12.1765 4.07653,11.9244 4.3875,11.9244 "/>
            <path vector-effect="none" fill-rule="nonzero" d="M4.3875,7.87444 L8.4375,7.87444 C8.74847,7.87444 9.00056,8.12653 9.00056,8.4375 C9.00056,8.74847 8.74847,9.00056 8.4375,9.00056 L4.3875,9.00056 C4.07653,9.00056 3.82444,8.74847 3.82444,8.4375 C3.82444,8.12653 4.07653,7.87444 4.3875,7.87444 "/>
            <path vector-effect="none" fill-rule="nonzero" d="M4.3875,3.82444 L13.3875,3.82444 C13.6985,3.82444 13.9506,4.07653 13.9506,4.3875 C13.9506,4.69847 13.6985,4.95056 13.3875,4.95056 L4.3875,4.95056 C4.07653,4.95056 3.82444,4.69847 3.82444,4.3875 C3.82444,4.07653 4.07653,3.82444 4.3875,3.82444 "/>
            <path vector-effect="none" fill-rule="nonzero" d="M14.1756,6.4125 L14.1756,14.5125 C14.1756,14.8235 13.9235,15.0756 13.6125,15.0756 C13.3015,15.0756 13.0494,14.8235 13.0494,14.5125 L13.0494,6.4125 C13.0494,6.10153 13.3015,5.84944 13.6125,5.84944 C13.9235,5.84944 14.1756,6.10153 14.1756,6.4125 "/>
            <path vector-effect="none" fill-rule="nonzero" d="M11.3917,8.06342 L13.1917,6.03842 L13.6125,5.56498 L14.0333,6.03842 L15.8333,8.06342 C16.0399,8.29584 16.019,8.65174 15.7866,8.85834 C15.5542,9.06494 15.1983,9.044 14.9917,8.81158 L13.1917,6.78658 L13.6125,6.4125 L14.0333,6.78658 L12.2333,8.81158 C12.0267,9.044 11.6708,9.06494 11.4384,8.85834 C11.206,8.65174 11.1851,8.29584 11.3917,8.06342 "/>
        </g>
    </g>
</svg>
