<?xml version='1.0' encoding='UTF-8' standalone='no'?>
<svg width="5.29167mm" viewBox="0 0 45 45" baseProfile="tiny" xmlns="http://www.w3.org/2000/svg" xmlns:xlink="http://www.w3.org/1999/xlink" version="1.2" height="5.29167mm">
    <style id="current-color-scheme" type="text/css">.ColorScheme-Text {color:#232629;}</style>
    <title>Qt SVG Document</title>
    <desc>Auto-generated by Klassy window decoration</desc>
    <defs/>
    <g stroke-linecap="square" fill-rule="evenodd" stroke-linejoin="bevel" stroke-width="1" fill="none" stroke="black">
        <g class="ColorScheme-Text" font-weight="400" font-family="Noto Sans" font-size="30" transform="matrix(2.5,0,0,2.5,0,0)" fill-opacity="1" fill="currentColor" font-style="normal" stroke="none">
            <path fill-rule="nonzero" vector-effect="none" d="M4.6,14 L13.4,14 C13.7314,14 14,14.2686 14,14.6 C14,14.9314 13.7314,15.2 13.4,15.2 L4.6,15.2 C4.26863,15.2 4,14.9314 4,14.6 C4,14.2686 4.26863,14 4.6,14 "/>
            <path fill-rule="nonzero" vector-effect="none" d="M9.4,10 L13.4,10 C13.7314,10 14,10.2686 14,10.6 C14,10.9314 13.7314,11.2 13.4,11.2 L9.4,11.2 C9.06863,11.2 8.8,10.9314 8.8,10.6 C8.8,10.2686 9.06863,10 9.4,10 "/>
            <path fill-rule="nonzero" vector-effect="none" d="M9.4,6 L13.4,6 C13.7314,6 14,6.26863 14,6.6 C14,6.93137 13.7314,7.2 13.4,7.2 L9.4,7.2 C9.06863,7.2 8.8,6.93137 8.8,6.6 C8.8,6.26863 9.06863,6 9.4,6 "/>
            <path fill-rule="nonzero" vector-effect="none" d="M5.2,4.6 L5.2,12.6 C5.2,12.9314 4.93137,13.2 4.6,13.2 C4.26863,13.2 4,12.9314 4,12.6 L4,4.6 C4,4.26863 4.26863,4 4.6,4 C4.93137,4 5.2,4.26863 5.2,4.6 "/>
            <path fill-rule="nonzero" vector-effect="none" d="M3.02426,10.1757 L5.02426,12.1757 L4.6,12.6 L4.17574,12.1757 L6.17574,10.1757 C6.41005,9.94142 6.78995,9.94142 7.02426,10.1757 C7.25858,10.4101 7.25858,10.7899 7.02426,11.0243 L5.02426,13.0243 L4.6,13.4485 L4.17574,13.0243 L2.17574,11.0243 C1.94142,10.7899 1.94142,10.4101 2.17574,10.1757 C2.41005,9.94142 2.78995,9.94142 3.02426,10.1757 "/>
        </g>
    </g>
</svg>
