<?xml version='1.0' encoding='UTF-8' standalone='no'?>
<svg width="5.29167mm" viewBox="0 0 45 45" baseProfile="tiny" xmlns="http://www.w3.org/2000/svg" xmlns:xlink="http://www.w3.org/1999/xlink" version="1.2" height="5.29167mm">
    <style id="current-color-scheme" type="text/css">.ColorScheme-Text {color:#232629;}</style>
    <title>Qt SVG Document</title>
    <desc>Auto-generated by Klassy window decoration</desc>
    <defs/>
    <g stroke-linecap="square" fill-rule="evenodd" stroke-linejoin="bevel" stroke-width="1" fill="none" stroke="black">
        <g class="ColorScheme-Text" font-weight="400" font-family="Noto Sans" font-size="30" transform="matrix(2.5,0,0,2.5,10,18)" fill-opacity="1" fill="currentColor" font-style="normal" stroke="none">
            <path fill-rule="nonzero" vector-effect="none" d="M0,-0.8 L7.2,-0.8 L8,0 L8,7.2 L7.2,8 L0,8 L-0.8,7.2 L-0.8,0 L0,-0.8 M0.8,0 L0.8,7.2 L0,7.2 L0,6.4 L7.2,6.4 L7.2,7.2 L6.4,7.2 L6.4,0 L7.2,0 L7.2,0.8 L0,0.8 L0,0 L0.8,0"/>
        </g>
        <g class="ColorScheme-Text" font-weight="400" font-family="Noto Sans" font-size="30" transform="matrix(2.5,0,0,2.5,10,18)" fill-opacity="1" fill="currentColor" font-style="normal" stroke="none">
            <path fill-rule="nonzero" vector-effect="none" d="M2.4,-0.8 L2.4,-3.2 L3.2,-4 L10.4,-4 L11.2,-3.2 L11.2,4 L10.4,4.8 L8,4.8 L8,3.2 L10.4,3.2 L10.4,4 L9.6,4 L9.6,-3.2 L10.4,-3.2 L10.4,-2.4 L3.2,-2.4 L3.2,-3.2 L4,-3.2 L4,-0.8 L2.4,-0.8"/>
        </g>
    </g>
</svg>
