<?xml version='1.0' encoding='UTF-8' standalone='no'?>
<svg version="1.2" xmlns:xlink="http://www.w3.org/1999/xlink" viewBox="0 0 45 45" xmlns="http://www.w3.org/2000/svg" width="5.29167mm" height="5.29167mm" baseProfile="tiny">
    <style id="current-color-scheme" type="text/css">.ColorScheme-Text {color:#232629;}</style>
    <title>Qt SVG Document</title>
    <desc>Auto-generated by Klassy window decoration</desc>
    <defs/>
    <g stroke-linejoin="bevel" stroke-linecap="square" fill="none" stroke-width="1" stroke="black" fill-rule="evenodd">
        <g font-weight="400" class="ColorScheme-Text" font-size="30" fill="currentColor" transform="matrix(2.5,0,0,2.5,0,0)" font-style="normal" stroke="none" font-family="Noto Sans" fill-opacity="1">
            <path vector-effect="none" fill-rule="nonzero" d="M4,3.9994 L14,3.9994 C14.3317,3.9994 14.6006,4.2683 14.6006,4.6 C14.6006,4.9317 14.3317,5.2006 14,5.2006 L4,5.2006 C3.6683,5.2006 3.3994,4.9317 3.3994,4.6 C3.3994,4.2683 3.6683,3.9994 4,3.9994 "/>
            <path vector-effect="none" fill-rule="nonzero" d="M4.42469,7.57531 L9.42469,12.5753 L9,13 L8.57531,12.5753 L13.5753,7.57531 C13.8099,7.34076 14.1901,7.34076 14.4247,7.57531 C14.6592,7.80986 14.6592,8.19014 14.4247,8.42469 L9.42469,13.4247 L9,13.8494 L8.57531,13.4247 L3.57531,8.42469 C3.34076,8.19014 3.34076,7.80986 3.57531,7.57531 C3.80986,7.34076 4.19014,7.34076 4.42469,7.57531 "/>
        </g>
    </g>
</svg>
