<?xml version='1.0' encoding='UTF-8' standalone='no'?>
<svg width="4.7625mm" viewBox="0 0 27 27" baseProfile="tiny" xmlns="http://www.w3.org/2000/svg" xmlns:xlink="http://www.w3.org/1999/xlink" version="1.2" height="4.7625mm">
    <style id="current-color-scheme" type="text/css">.ColorScheme-Text {color:#fcfcfc;}</style>
    <title>Qt SVG Document</title>
    <desc>Auto-generated by Klassy window decoration</desc>
    <defs/>
    <g stroke-linecap="square" fill-rule="evenodd" stroke-linejoin="bevel" stroke-width="1" fill="none" stroke="black">
        <g class="ColorScheme-Text" font-weight="400" font-family="Noto Sans" font-size="20" transform="matrix(1.6875,0,0,1.6875,0,0)" fill-opacity="0.600015" fill="#da0016" font-style="normal" stroke="none">
            <path fill-rule="evenodd" vector-effect="none" d="M2,3.2 C2,2.53726 2.53726,2 3.2,2 L12.8,2 C13.4627,2 14,2.53726 14,3.2 L14,12.8 C14,13.4627 13.4627,14 12.8,14 L3.2,14 C2.53726,14 2,13.4627 2,12.8 L2,3.2"/>
        </g>
        <g class="ColorScheme-Text" font-weight="400" font-family="Noto Sans" font-size="20" transform="matrix(1.5,0,0,1.5,0,0)" fill-opacity="1" fill="#ffffff" font-style="normal" stroke="none">
            <path fill-rule="nonzero" vector-effect="none" d="M5.23292,4.10042 L14.5663,13.4337 C14.879,13.7465 14.879,14.2535 14.5663,14.5663 C14.2535,14.879 13.7465,14.879 13.4337,14.5663 L4.10042,5.23292 C3.78768,4.92019 3.78768,4.41315 4.10042,4.10042 C4.41315,3.78768 4.92019,3.78768 5.23292,4.10042 "/>
            <path fill-rule="nonzero" vector-effect="none" d="M14.5663,5.23292 L5.23292,14.5663 C4.92019,14.879 4.41315,14.879 4.10042,14.5663 C3.78768,14.2535 3.78768,13.7465 4.10042,13.4337 L13.4337,4.10042 C13.7465,3.78768 14.2535,3.78768 14.5663,4.10042 C14.879,4.41315 14.879,4.92019 14.5663,5.23292 "/>
        </g>
    </g>
</svg>
