<?xml version='1.0' encoding='UTF-8' standalone='no'?>
<svg baseProfile="tiny" height="4.7625mm" version="1.2" viewBox="0 0 27 27" width="4.7625mm" xmlns="http://www.w3.org/2000/svg" xmlns:xlink="http://www.w3.org/1999/xlink">
    <style id="current-color-scheme" type="text/css">.ColorScheme-Text {color:#fcfcfc;}</style>
    <title>Qt SVG Document</title>
    <desc>Auto-generated by Klassy window decoration</desc>
    <defs/>
    <g fill="none" fill-rule="evenodd" stroke="black" stroke-linecap="square" stroke-linejoin="bevel" stroke-width="1">
        <g class="ColorScheme-Text" fill="currentColor" fill-opacity="1" font-family="Noto Sans" font-size="20" font-style="normal" font-weight="400" stroke="none" transform="matrix(1.5,0,0,1.5,0,0)">
            <path d="M4.66667,13.9993 L13.3333,13.9993 C13.7019,13.9993 14.0007,14.2981 14.0007,14.6667 C14.0007,15.0352 13.7019,15.334 13.3333,15.334 L4.66667,15.334 C4.29811,15.334 3.99933,15.0352 3.99933,14.6667 C3.99933,14.2981 4.29811,13.9993 4.66667,13.9993 " fill-rule="nonzero" vector-effect="none"/>
            <path d="M9.33333,9.99933 L13.3333,9.99933 C13.7019,9.99933 14.0007,10.2981 14.0007,10.6667 C14.0007,11.0352 13.7019,11.334 13.3333,11.334 L9.33333,11.334 C8.96478,11.334 8.666,11.0352 8.666,10.6667 C8.666,10.2981 8.96478,9.99933 9.33333,9.99933 " fill-rule="nonzero" vector-effect="none"/>
            <path d="M9.33333,5.99933 L13.3333,5.99933 C13.7019,5.99933 14.0007,6.29811 14.0007,6.66667 C14.0007,7.03522 13.7019,7.334 13.3333,7.334 L9.33333,7.334 C8.96478,7.334 8.666,7.03522 8.666,6.66667 C8.666,6.29811 8.96478,5.99933 9.33333,5.99933 " fill-rule="nonzero" vector-effect="none"/>
            <path d="M5.334,4.66667 L5.334,12.6667 C5.334,13.0352 5.03522,13.334 4.66667,13.334 C4.29811,13.334 3.99933,13.0352 3.99933,12.6667 L3.99933,4.66667 C3.99933,4.29811 4.29811,3.99933 4.66667,3.99933 C5.03522,3.99933 5.334,4.29811 5.334,4.66667 " fill-rule="nonzero" vector-effect="none"/>
            <path d="M3.13854,10.1948 L5.13854,12.1948 L4.66667,12.6667 L4.19479,12.1948 L6.19479,10.1948 C6.4554,9.93418 6.87793,9.93418 7.13854,10.1948 C7.39915,10.4554 7.39915,10.8779 7.13854,11.1385 L5.13854,13.1385 L4.66667,13.6104 L4.19479,13.1385 L2.19479,11.1385 C1.93418,10.8779 1.93418,10.4554 2.19479,10.1948 C2.4554,9.93418 2.87793,9.93418 3.13854,10.1948 " fill-rule="nonzero" vector-effect="none"/>
        </g>
    </g>
</svg>
