<?xml version='1.0' encoding='UTF-8' standalone='no'?>
<svg width="4.7625mm" viewBox="0 0 27 27" baseProfile="tiny" xmlns="http://www.w3.org/2000/svg" xmlns:xlink="http://www.w3.org/1999/xlink" version="1.2" height="4.7625mm">
    <style id="current-color-scheme" type="text/css">.ColorScheme-Text {color:#fcfcfc;}</style>
    <title>Qt SVG Document</title>
    <desc>Auto-generated by Klassy window decoration</desc>
    <defs/>
    <g stroke-linecap="square" fill-rule="evenodd" stroke-linejoin="bevel" stroke-width="1" fill="none" stroke="black">
        <g class="ColorScheme-Text" font-weight="400" font-family="Noto Sans" font-size="20" transform="matrix(1.5,0,0,1.5,0,0)" fill-opacity="1" fill="currentColor" font-style="normal" stroke="none">
            <path fill-rule="nonzero" vector-effect="none" d="M4.66667,12 L8.66667,12 C9.03486,12 9.33333,12.2985 9.33333,12.6667 C9.33333,13.0349 9.03486,13.3333 8.66667,13.3333 L4.66667,13.3333 C4.29848,13.3333 4,13.0349 4,12.6667 C4,12.2985 4.29848,12 4.66667,12 "/>
            <path fill-rule="nonzero" vector-effect="none" d="M4.66667,8 L8.66667,8 C9.03486,8 9.33333,8.29848 9.33333,8.66667 C9.33333,9.03486 9.03486,9.33333 8.66667,9.33333 L4.66667,9.33333 C4.29848,9.33333 4,9.03486 4,8.66667 C4,8.29848 4.29848,8 4.66667,8 "/>
            <path fill-rule="nonzero" vector-effect="none" d="M4.66667,4 L13.3333,4 C13.7015,4 14,4.29848 14,4.66667 C14,5.03486 13.7015,5.33333 13.3333,5.33333 L4.66667,5.33333 C4.29848,5.33333 4,5.03486 4,4.66667 C4,4.29848 4.29848,4 4.66667,4 "/>
            <path fill-rule="nonzero" vector-effect="none" d="M14,6.66667 L14,14.6667 C14,15.0349 13.7015,15.3333 13.3333,15.3333 C12.9651,15.3333 12.6667,15.0349 12.6667,14.6667 L12.6667,6.66667 C12.6667,6.29848 12.9651,6 13.3333,6 C13.7015,6 14,6.29848 14,6.66667 "/>
            <path fill-rule="nonzero" vector-effect="none" d="M10.8619,8.19526 L12.8619,6.19526 L13.3333,5.72386 L13.8047,6.19526 L15.8047,8.19526 C16.0651,8.45561 16.0651,8.87772 15.8047,9.13807 C15.5444,9.39842 15.1223,9.39842 14.8619,9.13807 L12.8619,7.13807 L13.3333,6.66667 L13.8047,7.13807 L11.8047,9.13807 C11.5444,9.39842 11.1223,9.39842 10.8619,9.13807 C10.6016,8.87772 10.6016,8.45561 10.8619,8.19526 "/>
        </g>
    </g>
</svg>
