<?xml version='1.0' encoding='UTF-8' standalone='no'?>
<svg version="1.2" xmlns:xlink="http://www.w3.org/1999/xlink" viewBox="0 0 27 27" xmlns="http://www.w3.org/2000/svg" width="4.7625mm" height="4.7625mm" baseProfile="tiny">
    <style id="current-color-scheme" type="text/css">.ColorScheme-Text {color:#fcfcfc;}</style>
    <title>Qt SVG Document</title>
    <desc>Auto-generated by Klassy window decoration</desc>
    <defs/>
    <g stroke-linejoin="bevel" stroke-linecap="square" fill="none" stroke-width="1" stroke="black" fill-rule="evenodd">
        <g font-weight="400" class="ColorScheme-Text" font-size="20" fill="currentColor" transform="matrix(1.5,0,0,1.5,11,11)" font-style="normal" stroke="none" font-family="Noto Sans" fill-opacity="0.650004">
            <rect y="0" x="0" width="4" height="4"/>
        </g>
        <g font-weight="400" class="ColorScheme-Text" font-size="20" fill="currentColor" transform="matrix(1.5,0,0,1.5,11,11)" font-style="normal" stroke="none" font-family="Noto Sans" fill-opacity="0.850004">
            <path vector-effect="none" fill-rule="nonzero" d="M0,-0.667333 L4,-0.667333 L4.66733,0 L4.66733,4 L4,4.66733 L0,4.66733 L-0.667333,4 L-0.667333,0 L0,-0.667333 M0.667333,0 L0.667333,4 L0,4 L0,3.33267 L4,3.33267 L4,4 L3.33267,4 L3.33267,0 L4,0 L4,0.667333 L0,0.667333 L0,0 L0.667333,0"/>
        </g>
    </g>
</svg>
