<?xml version='1.0' encoding='UTF-8' standalone='no'?>
<svg width="4.7625mm" viewBox="0 0 27 27" baseProfile="tiny" xmlns="http://www.w3.org/2000/svg" xmlns:xlink="http://www.w3.org/1999/xlink" version="1.2" height="4.7625mm">
    <style id="current-color-scheme" type="text/css">.ColorScheme-Text {color:#fcfcfc;}</style>
    <title>Qt SVG Document</title>
    <desc>Auto-generated by Klassy window decoration</desc>
    <defs/>
    <g stroke-linecap="square" fill-rule="evenodd" stroke-linejoin="bevel" stroke-width="1" fill="none" stroke="black">
        <g class="ColorScheme-Text" font-weight="400" font-family="Noto Sans" font-size="20" transform="matrix(1.5,0,0,1.5,0,0)" fill-opacity="1" fill="currentColor" font-style="normal" stroke="none">
            <path fill-rule="nonzero" vector-effect="none" d="M4,4.66783 C4,4.39105 4.39105,4 4.66783,4 L13.9988,4 C14.2756,4 14.6667,4.39105 14.6667,4.66783 L14.6667,13.9988 C14.6667,14.2756 14.2756,14.6667 13.9988,14.6667 L4.66783,14.6667 C4.39105,14.6667 4,14.2756 4,13.9988 L4,4.66783 M5.33333,4.66783 L5.33333,13.9988 C5.33333,13.7233 4.94333,13.3333 4.66783,13.3333 L13.9988,13.3333 C13.7233,13.3333 13.3333,13.7233 13.3333,13.9988 L13.3333,4.66783 C13.3333,4.94333 13.7233,5.33333 13.9988,5.33333 L4.66783,5.33333 C4.94333,5.33333 5.33333,4.94333 5.33333,4.66783 "/>
        </g>
    </g>
</svg>
