<?xml version='1.0' encoding='UTF-8' standalone='no'?>
<svg version="1.2" xmlns:xlink="http://www.w3.org/1999/xlink" viewBox="0 0 27 27" xmlns="http://www.w3.org/2000/svg" width="4.7625mm" height="4.7625mm" baseProfile="tiny">
    <style id="current-color-scheme" type="text/css">.ColorScheme-Text {color:#fcfcfc;}</style>
    <title>Qt SVG Document</title>
    <desc>Auto-generated by Klassy window decoration</desc>
    <defs/>
    <g stroke-linejoin="bevel" stroke-linecap="square" fill="none" stroke-width="1" stroke="black" fill-rule="evenodd">
        <g font-weight="400" class="ColorScheme-Text" font-size="20" fill="currentColor" transform="matrix(1.5,0,0,1.5,0,0)" font-style="normal" stroke="none" font-family="Noto Sans" fill-opacity="1">
            <path vector-effect="none" fill-rule="nonzero" d="M4,3.99933 L14,3.99933 C14.3686,3.99933 14.6673,4.29811 14.6673,4.66667 C14.6673,5.03522 14.3686,5.334 14,5.334 L4,5.334 C3.63144,5.334 3.33267,5.03522 3.33267,4.66667 C3.33267,4.29811 3.63144,3.99933 4,3.99933 "/>
            <path vector-effect="none" fill-rule="nonzero" d="M3.52812,12.5281 L8.52812,7.52812 L9,7.05625 L9.47188,7.52812 L14.4719,12.5281 C14.7325,12.7887 14.7325,13.2113 14.4719,13.4719 C14.2113,13.7325 13.7887,13.7325 13.5281,13.4719 L8.52812,8.47188 L9,8 L9.47188,8.47188 L4.47188,13.4719 C4.21127,13.7325 3.78873,13.7325 3.52812,13.4719 C3.26751,13.2113 3.26751,12.7887 3.52812,12.5281 "/>
        </g>
    </g>
</svg>
