<?xml version='1.0' encoding='UTF-8' standalone='no'?>
<svg version="1.2" xmlns:xlink="http://www.w3.org/1999/xlink" viewBox="0 0 27 27" xmlns="http://www.w3.org/2000/svg" width="4.7625mm" height="4.7625mm" baseProfile="tiny">
    <style id="current-color-scheme" type="text/css">.ColorScheme-Text {color:#fcfcfc;}</style>
    <title>Qt SVG Document</title>
    <desc>Auto-generated by Klassy window decoration</desc>
    <defs/>
    <g stroke-linejoin="bevel" stroke-linecap="square" fill="none" stroke-width="1" stroke="black" fill-rule="evenodd">
        <g font-weight="400" class="ColorScheme-Text" font-size="20" fill="currentColor" transform="matrix(1.5,0,0,1.5,6,11)" font-style="normal" stroke="none" font-family="Noto Sans" fill-opacity="1">
            <path vector-effect="none" fill-rule="nonzero" d="M0,-0.667333 L7.33333,-0.667333 L8.00067,0 L8.00067,7.33333 L7.33333,8.00067 L0,8.00067 L-0.667333,7.33333 L-0.667333,0 L0,-0.667333 M0.667333,0 L0.667333,7.33333 L0,7.33333 L0,6.666 L7.33333,6.666 L7.33333,7.33333 L6.666,7.33333 L6.666,0 L7.33333,0 L7.33333,0.667333 L0,0.667333 L0,0 L0.667333,0"/>
        </g>
        <g font-weight="400" class="ColorScheme-Text" font-size="20" fill="currentColor" transform="matrix(1.5,0,0,1.5,6,11)" font-style="normal" stroke="none" font-family="Noto Sans" fill-opacity="1">
            <path vector-effect="none" fill-rule="nonzero" d="M1.99933,-0.667333 L1.99933,-2.66667 L2.66667,-3.334 L10,-3.334 L10.6673,-2.66667 L10.6673,4.66667 L10,5.334 L8.00067,5.334 L8.00067,3.99933 L10,3.99933 L10,4.66667 L9.33267,4.66667 L9.33267,-2.66667 L10,-2.66667 L10,-1.99933 L2.66667,-1.99933 L2.66667,-2.66667 L3.334,-2.66667 L3.334,-0.667333 L1.99933,-0.667333"/>
        </g>
    </g>
</svg>
