<?xml version='1.0' encoding='UTF-8' standalone='no'?>
<svg width="4.86833mm" viewBox="0 0 23 23" baseProfile="tiny" xmlns="http://www.w3.org/2000/svg" xmlns:xlink="http://www.w3.org/1999/xlink" version="1.2" height="4.86833mm">
    <style id="current-color-scheme" type="text/css">.ColorScheme-Text {color:#232629;}</style>
    <title>Qt SVG Document</title>
    <desc>Auto-generated by Klassy window decoration</desc>
    <defs/>
    <g stroke-linecap="square" fill-rule="evenodd" stroke-linejoin="bevel" stroke-width="1" fill="none" stroke="black">
        <g class="ColorScheme-Text" font-weight="400" font-family="Noto Sans" font-size="16.6667" transform="matrix(1.27778,0,0,1.27778,9.5,9.5)" fill-opacity="0.650004" fill="currentColor" font-style="normal" stroke="none">
            <rect width="3.91304" y="0" x="0" height="3.91304"/>
        </g>
        <g class="ColorScheme-Text" font-weight="400" font-family="Noto Sans" font-size="16.6667" transform="matrix(1.27778,0,0,1.27778,9.5,9.5)" fill-opacity="0.850004" fill="currentColor" font-style="normal" stroke="none">
            <path fill-rule="nonzero" vector-effect="none" d="M0,-0.391304 L3.91304,-0.391304 L4.30435,0 L4.30435,3.91304 L3.91304,4.30435 L0,4.30435 L-0.391304,3.91304 L-0.391304,0 L0,-0.391304 M0.391304,0 L0.391304,3.91304 L0,3.91304 L0,3.52174 L3.91304,3.52174 L3.91304,3.91304 L3.52174,3.91304 L3.52174,0 L3.91304,0 L3.91304,0.391304 L0,0.391304 L0,0 L0.391304,0"/>
        </g>
    </g>
</svg>
