<?xml version='1.0' encoding='UTF-8' standalone='no'?>
<svg version="1.2" xmlns:xlink="http://www.w3.org/1999/xlink" viewBox="0 0 23 23" xmlns="http://www.w3.org/2000/svg" width="4.86833mm" height="4.86833mm" baseProfile="tiny">
    <style id="current-color-scheme" type="text/css">.ColorScheme-Text {color:#232629;}</style>
    <title>Qt SVG Document</title>
    <desc>Auto-generated by Klassy window decoration</desc>
    <defs/>
    <g stroke-linejoin="bevel" stroke-linecap="square" fill="none" stroke-width="1" stroke="black" fill-rule="evenodd">
        <g font-weight="400" class="ColorScheme-Text" font-size="16.6667" fill="currentColor" transform="matrix(1.27778,0,0,1.27778,5,10)" font-style="normal" stroke="none" font-family="Noto Sans" fill-opacity="1">
            <path vector-effect="none" fill-rule="nonzero" d="M0,-0.783391 L7.04348,-0.783391 L7.82687,0 L7.82687,7.04348 L7.04348,7.82687 L0,7.82687 L-0.783391,7.04348 L-0.783391,0 L0,-0.783391 M0.783391,0 L0.783391,7.04348 L0,7.04348 L0,6.26009 L7.04348,6.26009 L7.04348,7.04348 L6.26009,7.04348 L6.26009,0 L7.04348,0 L7.04348,0.783391 L0,0.783391 L0,0 L0.783391,0"/>
        </g>
        <g font-weight="400" class="ColorScheme-Text" font-size="16.6667" fill="currentColor" transform="matrix(1.27778,0,0,1.27778,5,10)" font-style="normal" stroke="none" font-family="Noto Sans" fill-opacity="1">
            <path vector-effect="none" fill-rule="nonzero" d="M2.34704,-0.783391 L2.34704,-3.13043 L3.13043,-3.91383 L10.1739,-3.91383 L10.9573,-3.13043 L10.9573,3.91304 L10.1739,4.69643 L7.82687,4.69643 L7.82687,3.12965 L10.1739,3.12965 L10.1739,3.91304 L9.39052,3.91304 L9.39052,-3.13043 L10.1739,-3.13043 L10.1739,-2.34704 L3.13043,-2.34704 L3.13043,-3.13043 L3.91383,-3.13043 L3.91383,-0.783391 L2.34704,-0.783391"/>
        </g>
    </g>
</svg>
