<?xml version='1.0' encoding='UTF-8' standalone='no'?>
<svg baseProfile="tiny" height="4.86833mm" version="1.2" viewBox="0 0 23 23" width="4.86833mm" xmlns="http://www.w3.org/2000/svg" xmlns:xlink="http://www.w3.org/1999/xlink">
    <style id="current-color-scheme" type="text/css">.ColorScheme-Text {color:#232629;}</style>
    <title>Qt SVG Document</title>
    <desc>Auto-generated by Klassy window decoration</desc>
    <defs/>
    <g fill="none" fill-rule="evenodd" stroke="black" stroke-linecap="square" stroke-linejoin="bevel" stroke-width="1">
        <g class="ColorScheme-Text" fill="currentColor" fill-opacity="0.549996" font-family="Noto Sans" font-size="16.6667" font-style="normal" font-weight="400" stroke="none" transform="matrix(1.27778,0,0,1.27778,9.5,9.5)">
            <rect height="3.91304" width="3.91304" x="0" y="0"/>
        </g>
        <g class="ColorScheme-Text" fill="currentColor" fill-opacity="0.902495" font-family="Noto Sans" font-size="16.6667" font-style="normal" font-weight="400" stroke="none" transform="matrix(1.27778,0,0,1.27778,9.5,9.5)">
            <path d="M0,-0.391696 L3.91304,-0.391696 L4.30474,0 L4.30474,3.91304 L3.91304,4.30474 L0,4.30474 L-0.391696,3.91304 L-0.391696,0 L0,-0.391696 M0.391696,0 L0.391696,3.91304 L0,3.91304 L0,3.52135 L3.91304,3.52135 L3.91304,3.91304 L3.52135,3.91304 L3.52135,0 L3.91304,0 L3.91304,0.391696 L0,0.391696 L0,0 L0.391696,0" fill-rule="nonzero" vector-effect="none"/>
        </g>
    </g>
</svg>
