<?xml version='1.0' encoding='UTF-8' standalone='no'?>
<svg width="4.86833mm" viewBox="0 0 23 23" baseProfile="tiny" xmlns="http://www.w3.org/2000/svg" xmlns:xlink="http://www.w3.org/1999/xlink" version="1.2" height="4.86833mm">
    <style id="current-color-scheme" type="text/css">.ColorScheme-Text {color:#232629;}</style>
    <title>Qt SVG Document</title>
    <desc>Auto-generated by Klassy window decoration</desc>
    <defs/>
    <g stroke-linecap="square" fill-rule="evenodd" stroke-linejoin="bevel" stroke-width="1" fill="none" stroke="black">
        <g class="ColorScheme-Text" font-weight="400" font-family="Noto Sans" font-size="16.6667" transform="matrix(1.27778,0,0,1.27778,0,0)" fill-opacity="1" fill="currentColor" font-style="normal" stroke="none">
            <path fill-rule="nonzero" vector-effect="none" d="M4.69565,14.087 L13.3043,14.087 L13.3043,15.6522 L4.69565,15.6522 L4.69565,14.087"/>
            <path fill-rule="nonzero" vector-effect="none" d="M9.3913,9.3913 L13.3043,9.3913 L13.3043,10.9565 L9.3913,10.9565 L9.3913,9.3913"/>
            <path fill-rule="nonzero" vector-effect="none" d="M9.3913,4.69565 L13.3043,4.69565 L13.3043,6.26087 L9.3913,6.26087 L9.3913,4.69565"/>
            <path fill-rule="nonzero" vector-effect="none" d="M5.47826,4.69565 L5.47826,12.5217 L3.91304,12.5217 L3.91304,4.69565 L5.47826,4.69565"/>
            <path fill-rule="nonzero" vector-effect="none" d="M2.50991,9.22922 L5.24904,11.9684 L4.69565,12.5217 L4.14226,11.9684 L6.88139,9.22922 L7.98817,10.336 L5.24904,13.0751 L4.69565,13.6285 L4.14226,13.0751 L1.40313,10.336 L2.50991,9.22922"/>
        </g>
    </g>
</svg>
