<?xml version='1.0' encoding='UTF-8' standalone='no'?>
<svg baseProfile="tiny" height="4.86833mm" version="1.2" viewBox="0 0 23 23" width="4.86833mm" xmlns="http://www.w3.org/2000/svg" xmlns:xlink="http://www.w3.org/1999/xlink">
    <style id="current-color-scheme" type="text/css">.ColorScheme-Text {color:#232629;}</style>
    <title>Qt SVG Document</title>
    <desc>Auto-generated by Klassy window decoration</desc>
    <defs/>
    <g fill="none" fill-rule="evenodd" stroke="black" stroke-linecap="square" stroke-linejoin="bevel" stroke-width="1">
        <g class="ColorScheme-Text" fill="currentColor" fill-opacity="0.450004" font-family="Noto Sans" font-size="16.6667" font-style="normal" font-weight="400" stroke="none" transform="matrix(1.27778,0,0,1.27778,10,10)">
            <rect height="3.13043" width="3.13043" x="0" y="0"/>
        </g>
        <g class="ColorScheme-Text" fill="currentColor" fill-opacity="0.902495" font-family="Noto Sans" font-size="16.6667" font-style="normal" font-weight="400" stroke="none" transform="matrix(1.27778,0,0,1.27778,10,10)">
            <path d="M0,-0.783391 L3.13043,-0.783391 L3.91383,0 L3.91383,3.13043 L3.13043,3.91383 L0,3.91383 L-0.783391,3.13043 L-0.783391,0 L0,-0.783391 M0.783391,0 L0.783391,3.13043 L0,3.13043 L0,2.34704 L3.13043,2.34704 L3.13043,3.13043 L2.34704,3.13043 L2.34704,0 L3.13043,0 L3.13043,0.783391 L0,0.783391 L0,0 L0.783391,0" fill-rule="nonzero" vector-effect="none"/>
        </g>
    </g>
</svg>
