<?xml version='1.0' encoding='UTF-8' standalone='no'?>
<svg width="4.86833mm" viewBox="0 0 23 23" baseProfile="tiny" xmlns="http://www.w3.org/2000/svg" xmlns:xlink="http://www.w3.org/1999/xlink" version="1.2" height="4.86833mm">
    <style id="current-color-scheme" type="text/css">.ColorScheme-Text {color:#232629;}</style>
    <title>Qt SVG Document</title>
    <desc>Auto-generated by Klassy window decoration</desc>
    <defs/>
    <g stroke-linecap="square" fill-rule="evenodd" stroke-linejoin="bevel" stroke-width="1" fill="none" stroke="black">
        <g class="ColorScheme-Text" font-weight="400" font-family="Noto Sans" font-size="16.6667" transform="matrix(1.27778,0,0,1.27778,0,0)" fill-opacity="1" fill="currentColor" font-style="normal" stroke="none">
            <path fill-rule="nonzero" vector-effect="none" d="M5.2619,4.1294 L14.6532,13.5207 C14.9659,13.8334 14.9659,14.3405 14.6532,14.6532 C14.3405,14.9659 13.8334,14.9659 13.5207,14.6532 L4.1294,5.2619 C3.81667,4.94917 3.81667,4.44213 4.1294,4.1294 C4.44213,3.81667 4.94917,3.81667 5.2619,4.1294 "/>
            <path fill-rule="nonzero" vector-effect="none" d="M14.6532,5.2619 L5.2619,14.6532 C4.94917,14.9659 4.44213,14.9659 4.1294,14.6532 C3.81667,14.3405 3.81667,13.8334 4.1294,13.5207 L13.5207,4.1294 C13.8334,3.81667 14.3405,3.81667 14.6532,4.1294 C14.9659,4.44213 14.9659,4.94917 14.6532,5.2619 "/>
        </g>
    </g>
</svg>
