<?xml version='1.0' encoding='UTF-8' standalone='no'?>
<svg version="1.2" xmlns:xlink="http://www.w3.org/1999/xlink" viewBox="0 0 23 23" xmlns="http://www.w3.org/2000/svg" width="4.86833mm" height="4.86833mm" baseProfile="tiny">
    <style id="current-color-scheme" type="text/css">.ColorScheme-Text {color:#232629;}</style>
    <title>Qt SVG Document</title>
    <desc>Auto-generated by Klassy window decoration</desc>
    <defs/>
    <g stroke-linejoin="bevel" stroke-linecap="square" fill="none" stroke-width="1" stroke="black" fill-rule="evenodd">
        <g font-weight="400" class="ColorScheme-Text" font-size="16.6667" fill="currentColor" transform="matrix(1.27778,0,0,1.27778,0,0)" font-style="normal" stroke="none" font-family="Noto Sans" fill-opacity="1">
            <path vector-effect="none" fill-rule="nonzero" d="M4.69565,11.7383 L8.6087,11.7383 L8.6087,13.3051 L4.69565,13.3051 L4.69565,11.7383"/>
            <path vector-effect="none" fill-rule="nonzero" d="M4.69565,7.8253 L8.6087,7.8253 L8.6087,9.39209 L4.69565,9.39209 L4.69565,7.8253"/>
            <path vector-effect="none" fill-rule="nonzero" d="M4.69565,3.91226 L13.3043,3.91226 L13.3043,5.47904 L4.69565,5.47904 L4.69565,3.91226"/>
            <path vector-effect="none" fill-rule="nonzero" d="M14.0877,6.26087 L14.0877,14.8696 L12.521,14.8696 L12.521,6.26087 L14.0877,6.26087"/>
            <path vector-effect="none" fill-rule="nonzero" d="M10.0113,8.44606 L12.7504,5.70693 L13.3043,5.15299 L13.8583,5.70693 L16.5974,8.44606 L15.4895,9.55394 L12.7504,6.81481 L13.3043,6.26087 L13.8583,6.81481 L11.1192,9.55394 L10.0113,8.44606"/>
        </g>
    </g>
</svg>
