<?xml version='1.0' encoding='UTF-8' standalone='no'?>
<svg version="1.2" xmlns:xlink="http://www.w3.org/1999/xlink" viewBox="0 0 23 23" xmlns="http://www.w3.org/2000/svg" width="4.86833mm" height="4.86833mm" baseProfile="tiny">
    <style id="current-color-scheme" type="text/css">.ColorScheme-Text {color:#232629;}</style>
    <title>Qt SVG Document</title>
    <desc>Auto-generated by Klassy window decoration</desc>
    <defs/>
    <g stroke-linejoin="bevel" stroke-linecap="square" fill="none" stroke-width="1" stroke="black" fill-rule="evenodd">
        <g font-weight="400" class="ColorScheme-Text" font-size="16.6667" fill="currentColor" transform="matrix(1.27778,0,0,1.27778,0,0)" font-style="normal" stroke="none" font-family="Noto Sans" fill-opacity="1">
            <path vector-effect="none" fill-rule="nonzero" d="M5.24959,4.14171 L14.6409,13.533 C14.9468,13.8389 14.9468,14.335 14.6409,14.6409 C14.335,14.9468 13.8389,14.9468 13.533,14.6409 L4.14171,5.24959 C3.83578,4.94366 3.83578,4.44764 4.14171,4.14171 C4.44764,3.83578 4.94366,3.83578 5.24959,4.14171 "/>
            <path vector-effect="none" fill-rule="nonzero" d="M14.6409,5.24959 L5.24959,14.6409 C4.94366,14.9468 4.44764,14.9468 4.14171,14.6409 C3.83578,14.335 3.83578,13.8389 4.14171,13.533 L13.533,4.14171 C13.8389,3.83578 14.335,3.83578 14.6409,4.14171 C14.9468,4.44764 14.9468,4.94366 14.6409,5.24959 "/>
        </g>
    </g>
</svg>
