<?xml version='1.0' encoding='UTF-8' standalone='no'?>
<svg width="4.86833mm" viewBox="0 0 23 23" baseProfile="tiny" xmlns="http://www.w3.org/2000/svg" xmlns:xlink="http://www.w3.org/1999/xlink" version="1.2" height="4.86833mm">
    <style id="current-color-scheme" type="text/css">.ColorScheme-Text {color:#232629;}</style>
    <title>Qt SVG Document</title>
    <desc>Auto-generated by Klassy window decoration</desc>
    <defs/>
    <g stroke-linecap="square" fill-rule="evenodd" stroke-linejoin="bevel" stroke-width="1" fill="none" stroke="black">
        <g class="ColorScheme-Text" font-weight="400" font-family="Noto Sans" font-size="16.6667" transform="matrix(1.27778,0,0,1.27778,5,10)" fill-opacity="1" fill="currentColor" font-style="normal" stroke="none">
            <path fill-rule="nonzero" vector-effect="none" d="M0,-0.782609 L7.04348,-0.782609 L7.82609,0 L7.82609,7.04348 L7.04348,7.82609 L0,7.82609 L-0.782609,7.04348 L-0.782609,0 L0,-0.782609 M0.782609,0 L0.782609,7.04348 L0,7.04348 L0,6.26087 L7.04348,6.26087 L7.04348,7.04348 L6.26087,7.04348 L6.26087,0 L7.04348,0 L7.04348,0.782609 L0,0.782609 L0,0 L0.782609,0"/>
        </g>
        <g class="ColorScheme-Text" font-weight="400" font-family="Noto Sans" font-size="16.6667" transform="matrix(1.27778,0,0,1.27778,5,10)" fill-opacity="1" fill="currentColor" font-style="normal" stroke="none">
            <path fill-rule="nonzero" vector-effect="none" d="M2.34783,-0.782609 L2.34783,-3.13043 L3.13043,-3.91304 L10.1739,-3.91304 L10.9565,-3.13043 L10.9565,3.91304 L10.1739,4.69565 L7.82609,4.69565 L7.82609,3.13043 L10.1739,3.13043 L10.1739,3.91304 L9.3913,3.91304 L9.3913,-3.13043 L10.1739,-3.13043 L10.1739,-2.34783 L3.13043,-2.34783 L3.13043,-3.13043 L3.91304,-3.13043 L3.91304,-0.782609 L2.34783,-0.782609"/>
        </g>
    </g>
</svg>
