<?xml version='1.0' encoding='UTF-8' standalone='no'?>
<svg version="1.2" xmlns:xlink="http://www.w3.org/1999/xlink" viewBox="0 0 25 25" xmlns="http://www.w3.org/2000/svg" width="5.29167mm" height="5.29167mm" baseProfile="tiny">
    <style id="current-color-scheme" type="text/css">.ColorScheme-Text {color:#fcfcfc;}</style>
    <title>Qt SVG Document</title>
    <desc>Auto-generated by Klassy window decoration</desc>
    <defs/>
    <g stroke-linejoin="bevel" stroke-linecap="square" fill="none" stroke-width="1" stroke="black" fill-rule="evenodd">
        <g font-weight="400" class="ColorScheme-Text" font-size="16.6667" fill="#da0016" transform="matrix(1.5625,0,0,1.5625,0,0)" font-style="normal" stroke="none" font-family="Noto Sans" fill-opacity="0.719997">
            <path vector-effect="none" fill-rule="evenodd" d="M2,3.2 C2,2.53726 2.53726,2 3.2,2 L12.8,2 C13.4627,2 14,2.53726 14,3.2 L14,12.8 C14,13.4627 13.4627,14 12.8,14 L3.2,14 C2.53726,14 2,13.4627 2,12.8 L2,3.2"/>
        </g>
        <g font-weight="400" class="ColorScheme-Text" font-size="16.6667" fill="#ffffff" transform="matrix(1.38889,0,0,1.38889,0,0)" font-style="normal" stroke="none" font-family="Noto Sans" fill-opacity="1">
            <path vector-effect="none" fill-rule="nonzero" d="M4.82963,3.81037 L14.9096,13.8904 C15.1911,14.1718 15.1911,14.6282 14.9096,14.9096 C14.6282,15.1911 14.1718,15.1911 13.8904,14.9096 L3.81037,4.82963 C3.52892,4.54817 3.52892,4.09183 3.81037,3.81037 C4.09183,3.52892 4.54817,3.52892 4.82963,3.81037 "/>
            <path vector-effect="none" fill-rule="nonzero" d="M14.9096,4.82963 L4.82963,14.9096 C4.54817,15.1911 4.09183,15.1911 3.81037,14.9096 C3.52892,14.6282 3.52892,14.1718 3.81037,13.8904 L13.8904,3.81037 C14.1718,3.52892 14.6282,3.52892 14.9096,3.81037 C15.1911,4.09183 15.1911,4.54817 14.9096,4.82963 "/>
        </g>
    </g>
</svg>
