<?xml version='1.0' encoding='UTF-8' standalone='no'?>
<svg width="5.29167mm" viewBox="0 0 25 25" baseProfile="tiny" xmlns="http://www.w3.org/2000/svg" xmlns:xlink="http://www.w3.org/1999/xlink" version="1.2" height="5.29167mm">
    <style id="current-color-scheme" type="text/css">.ColorScheme-Text {color:#fcfcfc;}</style>
    <title>Qt SVG Document</title>
    <desc>Auto-generated by Klassy window decoration</desc>
    <defs/>
    <g stroke-linecap="square" fill-rule="evenodd" stroke-linejoin="bevel" stroke-width="1" fill="none" stroke="black">
        <g class="ColorScheme-Text" font-weight="400" font-family="Noto Sans" font-size="16.6667" transform="matrix(1.38889,0,0,1.38889,0,0)" fill-opacity="1" fill="currentColor" font-style="normal" stroke="none">
            <path fill-rule="nonzero" vector-effect="none" d="M4.88625,3.75375 L14.9663,13.8337 C15.279,14.1465 15.279,14.6535 14.9663,14.9663 C14.6535,15.279 14.1465,15.279 13.8337,14.9663 L3.75375,4.88625 C3.44102,4.57352 3.44102,4.06648 3.75375,3.75375 C4.06648,3.44102 4.57352,3.44102 4.88625,3.75375 "/>
            <path fill-rule="nonzero" vector-effect="none" d="M14.9663,4.88625 L4.88625,14.9663 C4.57352,15.279 4.06648,15.279 3.75375,14.9663 C3.44102,14.6535 3.44102,14.1465 3.75375,13.8337 L13.8337,3.75375 C14.1465,3.44102 14.6535,3.44102 14.9663,3.75375 C15.279,4.06648 15.279,4.57352 14.9663,4.88625 "/>
        </g>
    </g>
</svg>
