<?xml version='1.0' encoding='UTF-8' standalone='no'?>
<svg width="5.29167mm" viewBox="0 0 25 25" baseProfile="tiny" xmlns="http://www.w3.org/2000/svg" xmlns:xlink="http://www.w3.org/1999/xlink" version="1.2" height="5.29167mm">
    <style id="current-color-scheme" type="text/css">.ColorScheme-Text {color:#fcfcfc;}</style>
    <title>Qt SVG Document</title>
    <desc>Auto-generated by Klassy window decoration</desc>
    <defs/>
    <g stroke-linecap="square" fill-rule="evenodd" stroke-linejoin="bevel" stroke-width="1" fill="none" stroke="black">
        <g class="ColorScheme-Text" font-weight="400" font-family="Noto Sans" font-size="16.6667" transform="matrix(1.38889,0,0,1.38889,0,0)" fill-opacity="1" fill="currentColor" font-style="normal" stroke="none">
            <path fill-rule="nonzero" vector-effect="none" d="M4.32,13.68 L13.68,13.68 C14.0776,13.68 14.4,14.0024 14.4,14.4 C14.4,14.7976 14.0776,15.12 13.68,15.12 L4.32,15.12 C3.92235,15.12 3.6,14.7976 3.6,14.4 C3.6,14.0024 3.92235,13.68 4.32,13.68 "/>
            <path fill-rule="nonzero" vector-effect="none" d="M9.36,9.36 L13.68,9.36 C14.0776,9.36 14.4,9.68235 14.4,10.08 C14.4,10.4776 14.0776,10.8 13.68,10.8 L9.36,10.8 C8.96235,10.8 8.64,10.4776 8.64,10.08 C8.64,9.68235 8.96235,9.36 9.36,9.36 "/>
            <path fill-rule="nonzero" vector-effect="none" d="M9.36,5.04 L13.68,5.04 C14.0776,5.04 14.4,5.36235 14.4,5.76 C14.4,6.15765 14.0776,6.48 13.68,6.48 L9.36,6.48 C8.96235,6.48 8.64,6.15765 8.64,5.76 C8.64,5.36235 8.96235,5.04 9.36,5.04 "/>
            <path fill-rule="nonzero" vector-effect="none" d="M5.04,4.32 L5.04,12.24 C5.04,12.6376 4.71765,12.96 4.32,12.96 C3.92235,12.96 3.6,12.6376 3.6,12.24 L3.6,4.32 C3.6,3.92235 3.92235,3.6 4.32,3.6 C4.71765,3.6 5.04,3.92235 5.04,4.32 "/>
            <path fill-rule="nonzero" vector-effect="none" d="M2.55938,10.2009 L4.71938,11.6409 L4.32,12.24 L3.92062,11.6409 L6.08062,10.2009 C6.41148,9.98035 6.8585,10.0698 7.07908,10.4006 C7.29965,10.7315 7.21024,11.1785 6.87938,11.3991 L4.71938,12.8391 L4.32,13.1053 L3.92062,12.8391 L1.76062,11.3991 C1.42976,11.1785 1.34035,10.7315 1.56092,10.4006 C1.7815,10.0698 2.22852,9.98035 2.55938,10.2009 "/>
        </g>
    </g>
</svg>
