<?xml version='1.0' encoding='UTF-8' standalone='no'?>
<svg baseProfile="tiny" height="5.29167mm" version="1.2" viewBox="0 0 25 25" width="5.29167mm" xmlns="http://www.w3.org/2000/svg" xmlns:xlink="http://www.w3.org/1999/xlink">
    <style id="current-color-scheme" type="text/css">.ColorScheme-Text {color:#fcfcfc;}</style>
    <title>Qt SVG Document</title>
    <desc>Auto-generated by Klassy window decoration</desc>
    <defs/>
    <g fill="none" fill-rule="evenodd" stroke="black" stroke-linecap="square" stroke-linejoin="bevel" stroke-width="1">
        <g class="ColorScheme-Text" fill="currentColor" fill-opacity="0.549996" font-family="Noto Sans" font-size="16.6667" font-style="normal" font-weight="400" stroke="none" transform="matrix(1.38889,0,0,1.38889,10.5,10.5)">
            <rect height="3.6" width="3.6" x="0" y="0"/>
        </g>
        <g class="ColorScheme-Text" fill="currentColor" fill-opacity="0.902495" font-family="Noto Sans" font-size="16.6667" font-style="normal" font-weight="400" stroke="none" transform="matrix(1.38889,0,0,1.38889,10.5,10.5)">
            <path d="M0,-0.36036 L3.6,-0.36036 L3.96036,0 L3.96036,3.6 L3.6,3.96036 L0,3.96036 L-0.36036,3.6 L-0.36036,0 L0,-0.36036 M0.36036,0 L0.36036,3.6 L0,3.6 L0,3.23964 L3.6,3.23964 L3.6,3.6 L3.23964,3.6 L3.23964,0 L3.6,0 L3.6,0.36036 L0,0.36036 L0,0 L0.36036,0" fill-rule="nonzero" vector-effect="none"/>
        </g>
    </g>
</svg>
