<?xml version='1.0' encoding='UTF-8' standalone='no'?>
<svg width="5.29167mm" viewBox="0 0 25 25" baseProfile="tiny" xmlns="http://www.w3.org/2000/svg" xmlns:xlink="http://www.w3.org/1999/xlink" version="1.2" height="5.29167mm">
    <style id="current-color-scheme" type="text/css">.ColorScheme-Text {color:#fcfcfc;}</style>
    <title>Qt SVG Document</title>
    <desc>Auto-generated by Klassy window decoration</desc>
    <defs/>
    <g stroke-linecap="square" fill-rule="evenodd" stroke-linejoin="bevel" stroke-width="1" fill="none" stroke="black">
        <g class="ColorScheme-Text" font-weight="400" font-family="Noto Sans" font-size="16.6667" transform="matrix(1.38889,0,0,1.38889,0,0)" fill-opacity="1" fill="currentColor" font-style="normal" stroke="none">
            <path fill-rule="nonzero" vector-effect="none" d="M4.32,12.24 L8.64,12.24 C9.03765,12.24 9.36,12.5624 9.36,12.96 C9.36,13.3576 9.03765,13.68 8.64,13.68 L4.32,13.68 C3.92235,13.68 3.6,13.3576 3.6,12.96 C3.6,12.5624 3.92235,12.24 4.32,12.24 "/>
            <path fill-rule="nonzero" vector-effect="none" d="M4.32,7.92 L8.64,7.92 C9.03765,7.92 9.36,8.24235 9.36,8.64 C9.36,9.03765 9.03765,9.36 8.64,9.36 L4.32,9.36 C3.92235,9.36 3.6,9.03765 3.6,8.64 C3.6,8.24235 3.92235,7.92 4.32,7.92 "/>
            <path fill-rule="nonzero" vector-effect="none" d="M4.32,3.6 L13.68,3.6 C14.0776,3.6 14.4,3.92235 14.4,4.32 C14.4,4.71765 14.0776,5.04 13.68,5.04 L4.32,5.04 C3.92235,5.04 3.6,4.71765 3.6,4.32 C3.6,3.92235 3.92235,3.6 4.32,3.6 "/>
            <path fill-rule="nonzero" vector-effect="none" d="M14.4,6.48 L14.4,14.4 C14.4,14.7976 14.0776,15.12 13.68,15.12 C13.2824,15.12 12.96,14.7976 12.96,14.4 L12.96,6.48 C12.96,6.08235 13.2824,5.76 13.68,5.76 C14.0776,5.76 14.4,6.08235 14.4,6.48 "/>
            <path fill-rule="nonzero" vector-effect="none" d="M11.0109,8.13088 L13.1709,5.97088 L13.68,5.46177 L14.1891,5.97088 L16.3491,8.13088 C16.6303,8.41206 16.6303,8.86794 16.3491,9.14912 C16.0679,9.43029 15.6121,9.43029 15.3309,9.14912 L13.1709,6.98912 L13.68,6.48 L14.1891,6.98912 L12.0291,9.14912 C11.7479,9.43029 11.2921,9.43029 11.0109,9.14912 C10.7297,8.86794 10.7297,8.41206 11.0109,8.13088 "/>
        </g>
    </g>
</svg>
