<?xml version='1.0' encoding='UTF-8' standalone='no'?>
<svg width="5.29167mm" viewBox="0 0 25 25" baseProfile="tiny" xmlns="http://www.w3.org/2000/svg" xmlns:xlink="http://www.w3.org/1999/xlink" version="1.2" height="5.29167mm">
    <style id="current-color-scheme" type="text/css">.ColorScheme-Text {color:#fcfcfc;}</style>
    <title>Qt SVG Document</title>
    <desc>Auto-generated by Klassy window decoration</desc>
    <defs/>
    <g stroke-linecap="square" fill-rule="evenodd" stroke-linejoin="bevel" stroke-width="1" fill="none" stroke="black">
        <g class="ColorScheme-Text" font-weight="400" font-family="Noto Sans" font-size="16.6667" transform="matrix(1.38889,0,0,1.38889,0,0)" fill-opacity="1" fill="currentColor" font-style="normal" stroke="none">
            <path fill-rule="nonzero" vector-effect="none" d="M4.32,3.6 L13.68,3.6 C14.0776,3.6 14.4,3.92235 14.4,4.32 C14.4,4.71765 14.0776,5.04 13.68,5.04 L4.32,5.04 C3.92235,5.04 3.6,4.71765 3.6,4.32 C3.6,3.92235 3.92235,3.6 4.32,3.6 "/>
            <path fill-rule="nonzero" vector-effect="none" d="M3.49088,12.4909 L8.49088,7.49088 L9,6.98177 L9.50912,7.49088 L14.5091,12.4909 C14.7903,12.7721 14.7903,13.2279 14.5091,13.5091 C14.2279,13.7903 13.7721,13.7903 13.4909,13.5091 L8.49088,8.50912 L9,8 L9.50912,8.50912 L4.50912,13.5091 C4.22794,13.7903 3.77206,13.7903 3.49088,13.5091 C3.20971,13.2279 3.20971,12.7721 3.49088,12.4909 "/>
        </g>
    </g>
</svg>
