<?xml version='1.0' encoding='UTF-8' standalone='no'?>
<svg width="5.29167mm" viewBox="0 0 25 25" baseProfile="tiny" xmlns="http://www.w3.org/2000/svg" xmlns:xlink="http://www.w3.org/1999/xlink" version="1.2" height="5.29167mm">
    <style id="current-color-scheme" type="text/css">.ColorScheme-Text {color:#fcfcfc;}</style>
    <title>Qt SVG Document</title>
    <desc>Auto-generated by Klassy window decoration</desc>
    <defs/>
    <g stroke-linecap="square" fill-rule="evenodd" stroke-linejoin="bevel" stroke-width="1" fill="none" stroke="black">
        <g class="ColorScheme-Text" font-weight="400" font-family="Noto Sans" font-size="16.6667" transform="matrix(1.38889,0,0,1.38889,0,0)" fill-opacity="1" fill="currentColor" font-style="normal" stroke="none">
            <path fill-rule="nonzero" vector-effect="none" d="M4.32,3.6 L13.68,3.6 C14.0776,3.6 14.4,3.92235 14.4,4.32 C14.4,4.71765 14.0776,5.04 13.68,5.04 L4.32,5.04 C3.92235,5.04 3.6,4.71765 3.6,4.32 C3.6,3.92235 3.92235,3.6 4.32,3.6 "/>
            <path fill-rule="nonzero" vector-effect="none" d="M4.50912,7.49088 L9.50912,12.4909 L9,13 L8.49088,12.4909 L13.4909,7.49088 C13.7721,7.20971 14.2279,7.20971 14.5091,7.49088 C14.7903,7.77206 14.7903,8.22794 14.5091,8.50912 L9.50912,13.5091 L9,14.0182 L8.49088,13.5091 L3.49088,8.50912 C3.20971,8.22794 3.20971,7.77206 3.49088,7.49088 C3.77206,7.20971 4.22794,7.20971 4.50912,7.49088 "/>
        </g>
    </g>
</svg>
