<?xml version='1.0' encoding='UTF-8' standalone='no'?>
<svg version="1.2" xmlns:xlink="http://www.w3.org/1999/xlink" viewBox="0 0 42 42" xmlns="http://www.w3.org/2000/svg" width="6.35mm" height="6.35mm" baseProfile="tiny">
    <style id="current-color-scheme" type="text/css">.ColorScheme-Text {color:#232629;}</style>
    <title>Qt SVG Document</title>
    <desc>Auto-generated by Klassy window decoration</desc>
    <defs/>
    <g stroke-linejoin="bevel" stroke-linecap="square" fill="none" stroke-width="1" stroke="black" fill-rule="evenodd">
        <g font-weight="400" class="ColorScheme-Text" font-size="23.3333" fill="currentColor" transform="matrix(2.33333,0,0,2.33333,0,0)" font-style="normal" stroke="none" font-family="Noto Sans" fill-opacity="1">
            <path vector-effect="none" fill-rule="nonzero" d="M4.5,13.7136 L13.5,13.7136 C13.8554,13.7136 14.1435,14.0017 14.1435,14.3571 C14.1435,14.7125 13.8554,15.0006 13.5,15.0006 L4.5,15.0006 C4.1446,15.0006 3.8565,14.7125 3.8565,14.3571 C3.8565,14.0017 4.1446,13.7136 4.5,13.7136 "/>
            <path vector-effect="none" fill-rule="nonzero" d="M9.64286,9.8565 L13.5,9.8565 C13.8554,9.8565 14.1435,10.1446 14.1435,10.5 C14.1435,10.8554 13.8554,11.1435 13.5,11.1435 L9.64286,11.1435 C9.28746,11.1435 8.99936,10.8554 8.99936,10.5 C8.99936,10.1446 9.28746,9.8565 9.64286,9.8565 "/>
            <path vector-effect="none" fill-rule="nonzero" d="M9.64286,5.99936 L13.5,5.99936 C13.8554,5.99936 14.1435,6.28746 14.1435,6.64286 C14.1435,6.99825 13.8554,7.28636 13.5,7.28636 L9.64286,7.28636 C9.28746,7.28636 8.99936,6.99825 8.99936,6.64286 C8.99936,6.28746 9.28746,5.99936 9.64286,5.99936 "/>
            <path vector-effect="none" fill-rule="nonzero" d="M5.1435,4.5 L5.1435,12.6429 C5.1435,12.9983 4.8554,13.2864 4.5,13.2864 C4.1446,13.2864 3.8565,12.9983 3.8565,12.6429 L3.8565,4.5 C3.8565,4.1446 4.1446,3.8565 4.5,3.8565 C4.8554,3.8565 5.1435,4.1446 5.1435,4.5 "/>
            <path vector-effect="none" fill-rule="nonzero" d="M2.81217,10.045 L4.95502,12.1878 L4.5,12.6429 L4.04498,12.1878 L6.18783,10.045 C6.43914,9.79367 6.84658,9.79367 7.09788,10.045 C7.34918,10.2963 7.34918,10.7037 7.09788,10.955 L4.95502,13.0979 L4.5,13.5529 L4.04498,13.0979 L1.90212,10.955 C1.65082,10.7037 1.65082,10.2963 1.90212,10.045 C2.15342,9.79367 2.56086,9.79367 2.81217,10.045 "/>
        </g>
    </g>
</svg>
