<?xml version='1.0' encoding='UTF-8' standalone='no'?>
<svg baseProfile="tiny" height="6.35mm" version="1.2" viewBox="0 0 42 42" width="6.35mm" xmlns="http://www.w3.org/2000/svg" xmlns:xlink="http://www.w3.org/1999/xlink">
    <style id="current-color-scheme" type="text/css">.ColorScheme-Text {color:#232629;}</style>
    <title>Qt SVG Document</title>
    <desc>Auto-generated by Klassy window decoration</desc>
    <defs/>
    <g fill="none" fill-rule="evenodd" stroke="black" stroke-linecap="square" stroke-linejoin="bevel" stroke-width="1">
        <g class="ColorScheme-Text" fill="currentColor" fill-opacity="1" font-family="Noto Sans" font-size="23.3333" font-style="normal" font-weight="400" stroke="none" transform="matrix(2.33333,0,0,2.33333,0,0)">
            <path d="M4.5,12.4279 L8.35714,12.4279 C8.71254,12.4279 9.00064,12.716 9.00064,13.0714 C9.00064,13.4268 8.71254,13.7149 8.35714,13.7149 L4.5,13.7149 C4.1446,13.7149 3.8565,13.4268 3.8565,13.0714 C3.8565,12.716 4.1446,12.4279 4.5,12.4279 " fill-rule="nonzero" vector-effect="none"/>
            <path d="M4.5,8.14221 L8.35714,8.14221 C8.71254,8.14221 9.00064,8.43032 9.00064,8.78571 C9.00064,9.14111 8.71254,9.42921 8.35714,9.42921 L4.5,9.42921 C4.1446,9.42921 3.8565,9.14111 3.8565,8.78571 C3.8565,8.43032 4.1446,8.14221 4.5,8.14221 " fill-rule="nonzero" vector-effect="none"/>
            <path d="M4.5,3.8565 L13.5,3.8565 C13.8554,3.8565 14.1435,4.1446 14.1435,4.5 C14.1435,4.8554 13.8554,5.1435 13.5,5.1435 L4.5,5.1435 C4.1446,5.1435 3.8565,4.8554 3.8565,4.5 C3.8565,4.1446 4.1446,3.8565 4.5,3.8565 " fill-rule="nonzero" vector-effect="none"/>
            <path d="M14.1435,6.64286 L14.1435,14.3571 C14.1435,14.7125 13.8554,15.0006 13.5,15.0006 C13.1446,15.0006 12.8565,14.7125 12.8565,14.3571 L12.8565,6.64286 C12.8565,6.28746 13.1446,5.99936 13.5,5.99936 C13.8554,5.99936 14.1435,6.28746 14.1435,6.64286 " fill-rule="nonzero" vector-effect="none"/>
            <path d="M10.9552,7.85465 L13.098,6.14037 L13.5,5.81878 L13.902,6.14037 L16.0448,7.85465 C16.3224,8.07667 16.3674,8.48162 16.1453,8.75913 C15.9233,9.03665 15.5184,9.08165 15.2409,8.85963 L13.098,7.14535 L13.5,6.64286 L13.902,7.14535 L11.7591,8.85963 C11.4816,9.08165 11.0767,9.03665 10.8547,8.75913 C10.6326,8.48162 10.6776,8.07667 10.9552,7.85465 " fill-rule="nonzero" vector-effect="none"/>
        </g>
    </g>
</svg>
