<?xml version='1.0' encoding='UTF-8' standalone='no'?>
<svg baseProfile="tiny" height="6.35mm" version="1.2" viewBox="0 0 42 42" width="6.35mm" xmlns="http://www.w3.org/2000/svg" xmlns:xlink="http://www.w3.org/1999/xlink">
    <style id="current-color-scheme" type="text/css">.ColorScheme-Text {color:#232629;}</style>
    <title>Qt SVG Document</title>
    <desc>Auto-generated by Klassy window decoration</desc>
    <defs/>
    <g fill="none" fill-rule="evenodd" stroke="black" stroke-linecap="square" stroke-linejoin="bevel" stroke-width="1">
        <g class="ColorScheme-Text" fill="currentColor" fill-opacity="0.949996" font-family="Noto Sans" font-size="23.3333" font-style="normal" font-weight="400" stroke="none" transform="matrix(2.33333,0,0,2.33333,0,0)">
            <path d="M3.42771,4.28689 C3.42771,3.93085 3.93085,3.42771 4.28689,3.42771 L13.7131,3.42771 C14.0692,3.42771 14.5723,3.93085 14.5723,4.28689 L14.5723,13.7131 C14.5723,14.0692 14.0692,14.5723 13.7131,14.5723 L4.28689,14.5723 C3.93085,14.5723 3.42771,14.0692 3.42771,13.7131 L3.42771,4.28689 M5.14371,4.28689 L5.14371,13.7131 C5.14371,13.3584 4.64164,12.8563 4.28689,12.8563 L13.7131,12.8563 C13.3584,12.8563 12.8563,13.3584 12.8563,13.7131 L12.8563,4.28689 C12.8563,4.64164 13.3584,5.14371 13.7131,5.14371 L4.28689,5.14371 C4.64164,5.14371 5.14371,4.64164 5.14371,4.28689 " fill-rule="nonzero" vector-effect="none"/>
        </g>
    </g>
</svg>
