<?xml version='1.0' encoding='UTF-8' standalone='no'?>
<svg width="6.35mm" viewBox="0 0 42 42" baseProfile="tiny" xmlns="http://www.w3.org/2000/svg" xmlns:xlink="http://www.w3.org/1999/xlink" version="1.2" height="6.35mm">
    <style id="current-color-scheme" type="text/css">.ColorScheme-Text {color:#232629;}</style>
    <title>Qt SVG Document</title>
    <desc>Auto-generated by Klassy window decoration</desc>
    <defs/>
    <g stroke-linecap="square" fill-rule="evenodd" stroke-linejoin="bevel" stroke-width="1" fill="none" stroke="black">
        <g class="ColorScheme-Text" font-weight="400" font-family="Noto Sans" font-size="23.3333" transform="matrix(2.625,0,0,2.625,0,0)" fill-opacity="0.600015" fill="#da0016" font-style="normal" stroke="none">
            <path fill-rule="evenodd" vector-effect="none" d="M2,3.2 C2,2.53726 2.53726,2 3.2,2 L12.8,2 C13.4627,2 14,2.53726 14,3.2 L14,12.8 C14,13.4627 13.4627,14 12.8,14 L3.2,14 C2.53726,14 2,13.4627 2,12.8 L2,3.2"/>
        </g>
        <g class="ColorScheme-Text" font-weight="400" font-family="Noto Sans" font-size="23.3333" transform="matrix(2.33333,0,0,2.33333,0,0)" fill-opacity="1" fill="#ffffff" font-style="normal" stroke="none">
            <path fill-rule="nonzero" vector-effect="none" d="M4.85197,3.71946 L14.2805,13.148 C14.5933,13.4608 14.5933,13.9678 14.2805,14.2805 C13.9678,14.5933 13.4608,14.5933 13.148,14.2805 L3.71946,4.85197 C3.40673,4.53923 3.40673,4.0322 3.71946,3.71946 C4.0322,3.40673 4.53923,3.40673 4.85197,3.71946 "/>
            <path fill-rule="nonzero" vector-effect="none" d="M14.2805,4.85197 L4.85197,14.2805 C4.53923,14.5933 4.0322,14.5933 3.71946,14.2805 C3.40673,13.9678 3.40673,13.4608 3.71946,13.148 L13.148,3.71946 C13.4608,3.40673 13.9678,3.40673 14.2805,3.71946 C14.5933,4.0322 14.5933,4.53923 14.2805,4.85197 "/>
        </g>
    </g>
</svg>
