<?xml version='1.0' encoding='UTF-8' standalone='no'?>
<svg baseProfile="tiny" height="6.35mm" version="1.2" viewBox="0 0 42 42" width="6.35mm" xmlns="http://www.w3.org/2000/svg" xmlns:xlink="http://www.w3.org/1999/xlink">
    <style id="current-color-scheme" type="text/css">.ColorScheme-Text {color:#232629;}</style>
    <title>Qt SVG Document</title>
    <desc>Auto-generated by Klassy window decoration</desc>
    <defs/>
    <g fill="none" fill-rule="evenodd" stroke="black" stroke-linecap="square" stroke-linejoin="bevel" stroke-width="1">
        <g class="ColorScheme-Text" fill="currentColor" fill-opacity="1" font-family="Noto Sans" font-size="23.3333" font-style="normal" font-weight="400" stroke="none" transform="matrix(2.33333,0,0,2.33333,0,0)">
            <path d="M4.89241,3.67902 L14.321,13.1076 C14.6561,13.4427 14.6561,13.9859 14.321,14.321 C13.9859,14.6561 13.4427,14.6561 13.1076,14.321 L3.67902,4.89241 C3.34395,4.55734 3.34395,4.01409 3.67902,3.67902 C4.01409,3.34395 4.55734,3.34395 4.89241,3.67902 " fill-rule="nonzero" vector-effect="none"/>
            <path d="M14.321,4.89241 L4.89241,14.321 C4.55734,14.6561 4.01409,14.6561 3.67902,14.321 C3.34395,13.9859 3.34395,13.4427 3.67902,13.1076 L13.1076,3.67902 C13.4427,3.34395 13.9859,3.34395 14.321,3.67902 C14.6561,4.01409 14.6561,4.55734 14.321,4.89241 " fill-rule="nonzero" vector-effect="none"/>
        </g>
    </g>
</svg>
