<?xml version='1.0' encoding='UTF-8' standalone='no'?>
<svg baseProfile="tiny" height="6.35mm" version="1.2" viewBox="0 0 42 42" width="6.35mm" xmlns="http://www.w3.org/2000/svg" xmlns:xlink="http://www.w3.org/1999/xlink">
    <style id="current-color-scheme" type="text/css">.ColorScheme-Text {color:#232629;}</style>
    <title>Qt SVG Document</title>
    <desc>Auto-generated by Klassy window decoration</desc>
    <defs/>
    <g fill="none" fill-rule="evenodd" stroke="black" stroke-linecap="square" stroke-linejoin="bevel" stroke-width="1">
        <g class="ColorScheme-Text" fill="currentColor" fill-opacity="0.450004" font-family="Noto Sans" font-size="23.3333" font-style="normal" font-weight="400" stroke="none" transform="matrix(2.33333,0,0,2.33333,17,17)">
            <rect height="3.42857" width="3.42857" x="0" y="0"/>
        </g>
        <g class="ColorScheme-Text" fill="currentColor" fill-opacity="0.902495" font-family="Noto Sans" font-size="23.3333" font-style="normal" font-weight="400" stroke="none" transform="matrix(2.33333,0,0,2.33333,17,17)">
            <path d="M0,-0.858 L3.42857,-0.858 L4.28657,0 L4.28657,3.42857 L3.42857,4.28657 L0,4.28657 L-0.858,3.42857 L-0.858,0 L0,-0.858 M0.858,0 L0.858,3.42857 L0,3.42857 L0,2.57057 L3.42857,2.57057 L3.42857,3.42857 L2.57057,3.42857 L2.57057,0 L3.42857,0 L3.42857,0.858 L0,0.858 L0,0 L0.858,0" fill-rule="nonzero" vector-effect="none"/>
        </g>
    </g>
</svg>
