<?xml version='1.0' encoding='UTF-8' standalone='no'?>
<svg width="6.35mm" viewBox="0 0 42 42" baseProfile="tiny" xmlns="http://www.w3.org/2000/svg" xmlns:xlink="http://www.w3.org/1999/xlink" version="1.2" height="6.35mm">
    <style id="current-color-scheme" type="text/css">.ColorScheme-Text {color:#232629;}</style>
    <title>Qt SVG Document</title>
    <desc>Auto-generated by Klassy window decoration</desc>
    <defs/>
    <g stroke-linecap="square" fill-rule="evenodd" stroke-linejoin="bevel" stroke-width="1" fill="none" stroke="black">
        <g class="ColorScheme-Text" font-weight="400" font-family="Noto Sans" font-size="23.3333" transform="matrix(2.33333,0,0,2.33333,0,0)" fill-opacity="1" fill="currentColor" font-style="normal" stroke="none">
            <path fill-rule="nonzero" vector-effect="none" d="M3.42857,4.28689 C3.42857,3.9312 3.9312,3.42857 4.28689,3.42857 L13.7131,3.42857 C14.0688,3.42857 14.5714,3.9312 14.5714,4.28689 L14.5714,13.7131 C14.5714,14.0688 14.0688,14.5714 13.7131,14.5714 L4.28689,14.5714 C3.9312,14.5714 3.42857,14.0688 3.42857,13.7131 L3.42857,4.28689 M5.14286,4.28689 L5.14286,13.7131 C5.14286,13.3587 4.64128,12.8571 4.28689,12.8571 L13.7131,12.8571 C13.3587,12.8571 12.8571,13.3587 12.8571,13.7131 L12.8571,4.28689 C12.8571,4.64128 13.3587,5.14286 13.7131,5.14286 L4.28689,5.14286 C4.64128,5.14286 5.14286,4.64128 5.14286,4.28689 "/>
        </g>
    </g>
</svg>
