<?xml version='1.0' encoding='UTF-8' standalone='no'?>
<svg version="1.2" xmlns:xlink="http://www.w3.org/1999/xlink" viewBox="0 0 42 42" xmlns="http://www.w3.org/2000/svg" width="6.35mm" height="6.35mm" baseProfile="tiny">
    <style id="current-color-scheme" type="text/css">.ColorScheme-Text {color:#232629;}</style>
    <title>Qt SVG Document</title>
    <desc>Auto-generated by Klassy window decoration</desc>
    <defs/>
    <g stroke-linejoin="bevel" stroke-linecap="square" fill="none" stroke-width="1" stroke="black" fill-rule="evenodd">
        <g font-weight="400" class="ColorScheme-Text" font-size="23.3333" fill="currentColor" transform="matrix(2.33333,0,0,2.33333,17,17)" font-style="normal" stroke="none" font-family="Noto Sans" fill-opacity="0.650004">
            <rect y="0" x="0" width="3.42857" height="3.42857"/>
        </g>
        <g font-weight="400" class="ColorScheme-Text" font-size="23.3333" fill="currentColor" transform="matrix(2.33333,0,0,2.33333,17,17)" font-style="normal" stroke="none" font-family="Noto Sans" fill-opacity="0.850004">
            <path vector-effect="none" fill-rule="nonzero" d="M0,-0.429 L3.42857,-0.429 L3.85757,0 L3.85757,3.42857 L3.42857,3.85757 L0,3.85757 L-0.429,3.42857 L-0.429,0 L0,-0.429 M0.429,0 L0.429,3.42857 L0,3.42857 L0,2.99957 L3.42857,2.99957 L3.42857,3.42857 L2.99957,3.42857 L2.99957,0 L3.42857,0 L3.42857,0.429 L0,0.429 L0,0 L0.429,0"/>
        </g>
    </g>
</svg>
