<?xml version='1.0' encoding='UTF-8' standalone='no'?>
<svg width="6.35mm" viewBox="0 0 42 42" baseProfile="tiny" xmlns="http://www.w3.org/2000/svg" xmlns:xlink="http://www.w3.org/1999/xlink" version="1.2" height="6.35mm">
    <style id="current-color-scheme" type="text/css">.ColorScheme-Text {color:#232629;}</style>
    <title>Qt SVG Document</title>
    <desc>Auto-generated by Klassy window decoration</desc>
    <defs/>
    <g stroke-linecap="square" fill-rule="evenodd" stroke-linejoin="bevel" stroke-width="1" fill="none" stroke="black">
        <g class="ColorScheme-Text" font-weight="400" font-family="Noto Sans" font-size="23.3333" transform="matrix(2.33333,0,0,2.33333,0,0)" fill-opacity="1" fill="currentColor" font-style="normal" stroke="none">
            <path fill-rule="nonzero" vector-effect="none" d="M4.5,12.4286 L8.35714,12.4286 C8.71218,12.4286 9,12.7164 9,13.0714 C9,13.4265 8.71218,13.7143 8.35714,13.7143 L4.5,13.7143 C4.14496,13.7143 3.85714,13.4265 3.85714,13.0714 C3.85714,12.7164 4.14496,12.4286 4.5,12.4286 "/>
            <path fill-rule="nonzero" vector-effect="none" d="M4.5,8.14286 L8.35714,8.14286 C8.71218,8.14286 9,8.43067 9,8.78571 C9,9.14075 8.71218,9.42857 8.35714,9.42857 L4.5,9.42857 C4.14496,9.42857 3.85714,9.14075 3.85714,8.78571 C3.85714,8.43067 4.14496,8.14286 4.5,8.14286 "/>
            <path fill-rule="nonzero" vector-effect="none" d="M4.5,3.85714 L13.5,3.85714 C13.855,3.85714 14.1429,4.14496 14.1429,4.5 C14.1429,4.85504 13.855,5.14286 13.5,5.14286 L4.5,5.14286 C4.14496,5.14286 3.85714,4.85504 3.85714,4.5 C3.85714,4.14496 4.14496,3.85714 4.5,3.85714 "/>
            <path fill-rule="nonzero" vector-effect="none" d="M14.1429,6.64286 L14.1429,14.3571 C14.1429,14.7122 13.855,15 13.5,15 C13.145,15 12.8571,14.7122 12.8571,14.3571 L12.8571,6.64286 C12.8571,6.28782 13.145,6 13.5,6 C13.855,6 14.1429,6.28782 14.1429,6.64286 "/>
            <path fill-rule="nonzero" vector-effect="none" d="M10.9556,7.85516 L13.0984,6.14087 L13.5,5.8196 L13.9016,6.14087 L16.0444,7.85516 C16.3217,8.07695 16.3666,8.48149 16.1448,8.75873 C15.9231,9.03597 15.5185,9.08092 15.2413,8.85913 L13.0984,7.14484 L13.5,6.64286 L13.9016,7.14484 L11.7587,8.85913 C11.4815,9.08092 11.0769,9.03597 10.8552,8.75873 C10.6334,8.48149 10.6783,8.07695 10.9556,7.85516 "/>
        </g>
    </g>
</svg>
