<?xml version='1.0' encoding='UTF-8' standalone='no'?>
<svg width="6.35mm" viewBox="0 0 42 42" baseProfile="tiny" xmlns="http://www.w3.org/2000/svg" xmlns:xlink="http://www.w3.org/1999/xlink" version="1.2" height="6.35mm">
    <style id="current-color-scheme" type="text/css">.ColorScheme-Text {color:#232629;}</style>
    <title>Qt SVG Document</title>
    <desc>Auto-generated by Klassy window decoration</desc>
    <defs/>
    <g stroke-linecap="square" fill-rule="evenodd" stroke-linejoin="bevel" stroke-width="1" fill="none" stroke="black">
        <g class="ColorScheme-Text" font-weight="400" font-family="Noto Sans" font-size="23.3333" transform="matrix(2.33333,0,0,2.33333,0,0)" fill-opacity="1" fill="currentColor" font-style="normal" stroke="none">
            <path fill-rule="nonzero" vector-effect="none" d="M4.5,13.7143 L13.5,13.7143 C13.855,13.7143 14.1429,14.0021 14.1429,14.3571 C14.1429,14.7122 13.855,15 13.5,15 L4.5,15 C4.14496,15 3.85714,14.7122 3.85714,14.3571 C3.85714,14.0021 4.14496,13.7143 4.5,13.7143 "/>
            <path fill-rule="nonzero" vector-effect="none" d="M9.64286,9.85714 L13.5,9.85714 C13.855,9.85714 14.1429,10.145 14.1429,10.5 C14.1429,10.855 13.855,11.1429 13.5,11.1429 L9.64286,11.1429 C9.28782,11.1429 9,10.855 9,10.5 C9,10.145 9.28782,9.85714 9.64286,9.85714 "/>
            <path fill-rule="nonzero" vector-effect="none" d="M9.64286,6 L13.5,6 C13.855,6 14.1429,6.28782 14.1429,6.64286 C14.1429,6.9979 13.855,7.28571 13.5,7.28571 L9.64286,7.28571 C9.28782,7.28571 9,6.9979 9,6.64286 C9,6.28782 9.28782,6 9.64286,6 "/>
            <path fill-rule="nonzero" vector-effect="none" d="M5.14286,4.5 L5.14286,12.6429 C5.14286,12.9979 4.85504,13.2857 4.5,13.2857 C4.14496,13.2857 3.85714,12.9979 3.85714,12.6429 L3.85714,4.5 C3.85714,4.14496 4.14496,3.85714 4.5,3.85714 C4.85504,3.85714 5.14286,4.14496 5.14286,4.5 "/>
            <path fill-rule="nonzero" vector-effect="none" d="M2.81171,10.0454 L4.95457,12.1883 L4.5,12.6429 L4.04543,12.1883 L6.18829,10.0454 C6.43934,9.79438 6.84637,9.79438 7.09743,10.0454 C7.34848,10.2965 7.34848,10.7035 7.09743,10.9546 L4.95457,13.0974 L4.5,13.552 L4.04543,13.0974 L1.90257,10.9546 C1.65152,10.7035 1.65152,10.2965 1.90257,10.0454 C2.15363,9.79438 2.56066,9.79438 2.81171,10.0454 "/>
        </g>
    </g>
</svg>
