<?xml version='1.0' encoding='UTF-8' standalone='no'?>
<svg version="1.2" xmlns:xlink="http://www.w3.org/1999/xlink" viewBox="0 0 40 40" xmlns="http://www.w3.org/2000/svg" width="5.29167mm" height="5.29167mm" baseProfile="tiny">
    <style id="current-color-scheme" type="text/css">.ColorScheme-Text {color:#fcfcfc;}</style>
    <title>Qt SVG Document</title>
    <desc>Auto-generated by Klassy window decoration</desc>
    <defs/>
    <g stroke-linejoin="bevel" stroke-linecap="square" fill="none" stroke-width="1" stroke="black" fill-rule="evenodd">
        <g font-weight="400" class="ColorScheme-Text" font-size="26.6667" fill="currentColor" transform="matrix(2.22222,0,0,2.22222,9.5,15.5)" font-style="normal" stroke="none" font-family="Noto Sans" fill-opacity="1">
            <path vector-effect="none" fill-rule="nonzero" d="M0,-0.675675 L7.2,-0.675675 L7.87568,0 L7.87568,7.2 L7.2,7.87568 L0,7.87568 L-0.675675,7.2 L-0.675675,0 L0,-0.675675 M0.675675,0 L0.675675,7.2 L0,7.2 L0,6.52433 L7.2,6.52433 L7.2,7.2 L6.52433,7.2 L6.52433,0 L7.2,0 L7.2,0.675675 L0,0.675675 L0,0 L0.675675,0"/>
        </g>
        <g font-weight="400" class="ColorScheme-Text" font-size="26.6667" fill="currentColor" transform="matrix(2.22222,0,0,2.22222,9.5,15.5)" font-style="normal" stroke="none" font-family="Noto Sans" fill-opacity="1">
            <path vector-effect="none" fill-rule="nonzero" d="M2.02433,-0.675675 L2.02433,-2.7 L2.7,-3.37568 L9.9,-3.37568 L10.5757,-2.7 L10.5757,4.5 L9.9,5.17568 L7.87568,5.17568 L7.87568,3.82432 L9.9,3.82432 L9.9,4.5 L9.22433,4.5 L9.22433,-2.7 L9.9,-2.7 L9.9,-2.02433 L2.7,-2.02433 L2.7,-2.7 L3.37568,-2.7 L3.37568,-0.675675 L2.02433,-0.675675"/>
        </g>
    </g>
</svg>
