<?xml version='1.0' encoding='UTF-8' standalone='no'?>
<svg width="5.29167mm" viewBox="0 0 40 40" baseProfile="tiny" xmlns="http://www.w3.org/2000/svg" xmlns:xlink="http://www.w3.org/1999/xlink" version="1.2" height="5.29167mm">
    <style id="current-color-scheme" type="text/css">.ColorScheme-Text {color:#fcfcfc;}</style>
    <title>Qt SVG Document</title>
    <desc>Auto-generated by Klassy window decoration</desc>
    <defs/>
    <g stroke-linecap="square" fill-rule="evenodd" stroke-linejoin="bevel" stroke-width="1" fill="none" stroke="black">
        <g class="ColorScheme-Text" font-weight="400" font-family="Noto Sans" font-size="26.6667" transform="matrix(2.22222,0,0,2.22222,0,0)" fill-opacity="1" fill="currentColor" font-style="normal" stroke="none">
            <path fill-rule="nonzero" vector-effect="none" d="M4.275,11.7 L8.325,11.7 C8.69779,11.7 9,12.0022 9,12.375 C9,12.7478 8.69779,13.05 8.325,13.05 L4.275,13.05 C3.90221,13.05 3.6,12.7478 3.6,12.375 C3.6,12.0022 3.90221,11.7 4.275,11.7 "/>
            <path fill-rule="nonzero" vector-effect="none" d="M4.275,7.65 L8.325,7.65 C8.69779,7.65 9,7.95221 9,8.325 C9,8.69779 8.69779,9 8.325,9 L4.275,9 C3.90221,9 3.6,8.69779 3.6,8.325 C3.6,7.95221 3.90221,7.65 4.275,7.65 "/>
            <path fill-rule="nonzero" vector-effect="none" d="M4.275,3.6 L13.275,3.6 C13.6478,3.6 13.95,3.90221 13.95,4.275 C13.95,4.64779 13.6478,4.95 13.275,4.95 L4.275,4.95 C3.90221,4.95 3.6,4.64779 3.6,4.275 C3.6,3.90221 3.90221,3.6 4.275,3.6 "/>
            <path fill-rule="nonzero" vector-effect="none" d="M14.4,6.525 L14.4,14.625 C14.4,14.9978 14.0978,15.3 13.725,15.3 C13.3522,15.3 13.05,14.9978 13.05,14.625 L13.05,6.525 C13.05,6.15221 13.3522,5.85 13.725,5.85 C14.0978,5.85 14.4,6.15221 14.4,6.525 "/>
            <path fill-rule="nonzero" vector-effect="none" d="M11.4477,7.8477 L13.2477,6.0477 L13.725,5.57041 L14.2023,6.0477 L16.0023,7.8477 C16.2659,8.11131 16.2659,8.53869 16.0023,8.8023 C15.7387,9.0659 15.3113,9.0659 15.0477,8.8023 L13.2477,7.0023 L13.725,6.525 L14.2023,7.0023 L12.4023,8.8023 C12.1387,9.0659 11.7113,9.0659 11.4477,8.8023 C11.1841,8.53869 11.1841,8.11131 11.4477,7.8477 "/>
        </g>
    </g>
</svg>
