<?xml version='1.0' encoding='UTF-8' standalone='no'?>
<svg version="1.2" xmlns:xlink="http://www.w3.org/1999/xlink" viewBox="0 0 48 48" xmlns="http://www.w3.org/2000/svg" width="4.23333mm" height="4.23333mm" baseProfile="tiny">
    <style id="current-color-scheme" type="text/css">.ColorScheme-Text {color:#fcfcfc;}</style>
    <title>Qt SVG Document</title>
    <desc>Auto-generated by Klassy window decoration</desc>
    <defs/>
    <g stroke-linejoin="bevel" stroke-linecap="square" fill="none" stroke-width="1" stroke="black" fill-rule="evenodd">
        <g font-weight="400" class="ColorScheme-Text" font-size="40" fill="currentColor" transform="matrix(2.66667,0,0,2.66667,0,0)" font-style="normal" stroke="none" font-family="Noto Sans" fill-opacity="1">
            <path vector-effect="none" fill-rule="nonzero" d="M4.125,4.12444 L13.875,4.12444 C14.186,4.12444 14.4381,4.37653 14.4381,4.6875 C14.4381,4.99847 14.186,5.25056 13.875,5.25056 L4.125,5.25056 C3.81403,5.25056 3.56194,4.99847 3.56194,4.6875 C3.56194,4.37653 3.81403,4.12444 4.125,4.12444 "/>
            <path vector-effect="none" fill-rule="nonzero" d="M3.60185,12.6019 L8.60185,7.60185 L9,7.20371 L9.39815,7.60185 L14.3981,12.6019 C14.618,12.8217 14.618,13.1783 14.3981,13.3981 C14.1783,13.618 13.8217,13.618 13.6019,13.3981 L8.60185,8.39815 L9,8 L9.39815,8.39815 L4.39815,13.3981 C4.17826,13.618 3.82174,13.618 3.60185,13.3981 C3.38197,13.1783 3.38197,12.8217 3.60185,12.6019 "/>
        </g>
    </g>
</svg>
