<?xml version='1.0' encoding='UTF-8' standalone='no'?>
<svg version="1.2" xmlns:xlink="http://www.w3.org/1999/xlink" viewBox="0 0 48 48" xmlns="http://www.w3.org/2000/svg" width="4.23333mm" height="4.23333mm" baseProfile="tiny">
    <style id="current-color-scheme" type="text/css">.ColorScheme-Text {color:#fcfcfc;}</style>
    <title>Qt SVG Document</title>
    <desc>Auto-generated by Klassy window decoration</desc>
    <defs/>
    <g stroke-linejoin="bevel" stroke-linecap="square" fill="none" stroke-width="1" stroke="black" fill-rule="evenodd">
        <g font-weight="400" class="ColorScheme-Text" font-size="40" fill="currentColor" transform="matrix(2.66667,0,0,2.66667,0,0)" font-style="normal" stroke="none" font-family="Noto Sans" fill-opacity="0.8">
            <path vector-effect="none" fill-rule="evenodd" d="M15,9 L14.6941,10.8965 L13.8423,12.5435 L12.5435,13.8423 L10.8965,14.6941 L9,15 L7.10354,14.6941 L5.45648,13.8423 L4.15765,12.5435 L3.30588,10.8965 L3,9 L3.30588,7.10354 L4.15765,5.45648 L5.45648,4.15765 L7.10354,3.30588 L9,3 L10.8965,3.30588 L12.5435,4.15765 L13.8423,5.45648 L14.6941,7.10354 L15,9 M10,9 L9.70711,9.70711 L9,10 L8.29289,9.70711 L8,9 L8.29289,8.29289 L9,8 L9.70711,8.29289 L10,9"/>
        </g>
    </g>
</svg>
