<?xml version='1.0' encoding='UTF-8' standalone='no'?>
<svg version="1.2" xmlns:xlink="http://www.w3.org/1999/xlink" viewBox="0 0 18 18" xmlns="http://www.w3.org/2000/svg" width="4.7625mm" height="4.7625mm" baseProfile="tiny">
    <style id="current-color-scheme" type="text/css">.ColorScheme-Text {color:#232629;}</style>
    <title>Qt SVG Document</title>
    <desc>Auto-generated by Klassy window decoration</desc>
    <defs/>
    <g stroke-linejoin="bevel" stroke-linecap="square" fill="none" stroke-width="1" stroke="black" fill-rule="evenodd">
        <g font-weight="400" class="ColorScheme-Text" font-size="13.3333" fill="#da0016" transform="matrix(1.125,0,0,1.125,0,0)" font-style="normal" stroke="none" font-family="Noto Sans" fill-opacity="0.719997">
            <path vector-effect="none" fill-rule="evenodd" d="M2,3.2 C2,2.53726 2.53726,2 3.2,2 L12.8,2 C13.4627,2 14,2.53726 14,3.2 L14,12.8 C14,13.4627 13.4627,14 12.8,14 L3.2,14 C2.53726,14 2,13.4627 2,12.8 L2,3.2"/>
        </g>
        <g font-weight="400" class="ColorScheme-Text" font-size="13.3333" fill="#ffffff" transform="matrix(1,0,0,1,0,0)" font-style="normal" stroke="none" font-family="Noto Sans" fill-opacity="1">
            <path vector-effect="none" fill-rule="nonzero" d="M4.85391,4.14609 L13.8539,13.1461 C14.0494,13.3416 14.0494,13.6584 13.8539,13.8539 C13.6584,14.0494 13.3416,14.0494 13.1461,13.8539 L4.14609,4.85391 C3.95064,4.65845 3.95064,4.34155 4.14609,4.14609 C4.34155,3.95064 4.65845,3.95064 4.85391,4.14609 "/>
            <path vector-effect="none" fill-rule="nonzero" d="M13.8539,4.85391 L4.85391,13.8539 C4.65845,14.0494 4.34155,14.0494 4.14609,13.8539 C3.95064,13.6584 3.95064,13.3416 4.14609,13.1461 L13.1461,4.14609 C13.3416,3.95064 13.6584,3.95064 13.8539,4.14609 C14.0494,4.34155 14.0494,4.65845 13.8539,4.85391 "/>
        </g>
    </g>
</svg>
