<?xml version='1.0' encoding='UTF-8' standalone='no'?>
<svg width="4.7625mm" viewBox="0 0 18 18" baseProfile="tiny" xmlns="http://www.w3.org/2000/svg" xmlns:xlink="http://www.w3.org/1999/xlink" version="1.2" height="4.7625mm">
    <style id="current-color-scheme" type="text/css">.ColorScheme-Text {color:#232629;}</style>
    <title>Qt SVG Document</title>
    <desc>Auto-generated by Klassy window decoration</desc>
    <defs/>
    <g stroke-linecap="square" fill-rule="evenodd" stroke-linejoin="bevel" stroke-width="1" fill="none" stroke="black">
        <g class="ColorScheme-Text" font-weight="400" font-family="Noto Sans" font-size="13.3333" transform="matrix(1,0,0,1,0,0)" fill-opacity="0.900008" fill="currentColor" font-style="normal" stroke="none">
            <path fill-rule="nonzero" vector-effect="none" d="M4,4.50113 C4,4.2934 4.2934,4 4.50113,4 L13.4989,4 C13.7066,4 14,4.2934 14,4.50113 L14,13.4989 C14,13.7066 13.7066,14 13.4989,14 L4.50113,14 C4.2934,14 4,13.7066 4,13.4989 L4,4.50113 M5,4.50113 L5,13.4989 C5,13.2924 4.70761,13 4.50113,13 L13.4989,13 C13.2924,13 13,13.2924 13,13.4989 L13,4.50113 C13,4.70761 13.2924,5 13.4989,5 L4.50113,5 C4.70761,5 5,4.70761 5,4.50113 "/>
        </g>
    </g>
</svg>
