<?xml version='1.0' encoding='UTF-8' standalone='no'?>
<svg width="4.7625mm" viewBox="0 0 18 18" baseProfile="tiny" xmlns="http://www.w3.org/2000/svg" xmlns:xlink="http://www.w3.org/1999/xlink" version="1.2" height="4.7625mm">
    <style id="current-color-scheme" type="text/css">.ColorScheme-Text {color:#232629;}</style>
    <title>Qt SVG Document</title>
    <desc>Auto-generated by Klassy window decoration</desc>
    <defs/>
    <g stroke-linecap="square" fill-rule="evenodd" stroke-linejoin="bevel" stroke-width="1" fill="none" stroke="black">
        <g class="ColorScheme-Text" font-weight="400" font-family="Noto Sans" font-size="13.3333" transform="matrix(1,0,0,1,0,0)" fill-opacity="1" fill="currentColor" font-style="normal" stroke="none">
            <path fill-rule="nonzero" vector-effect="none" d="M4.5,14 L13.5,14 L13.5,15 L4.5,15 L4.5,14"/>
            <path fill-rule="nonzero" vector-effect="none" d="M9.5,10 L13.5,10 L13.5,11 L9.5,11 L9.5,10"/>
            <path fill-rule="nonzero" vector-effect="none" d="M9.5,6 L13.5,6 L13.5,7 L9.5,7 L9.5,6"/>
            <path fill-rule="nonzero" vector-effect="none" d="M5,4.5 L5,12.5 L4,12.5 L4,4.5 L5,4.5"/>
            <path fill-rule="nonzero" vector-effect="none" d="M2.35355,9.64645 L4.85355,12.1464 L4.5,12.5 L4.14645,12.1464 L6.64645,9.64645 L7.35355,10.3536 L4.85355,12.8536 L4.5,13.2071 L4.14645,12.8536 L1.64645,10.3536 L2.35355,9.64645"/>
        </g>
    </g>
</svg>
