<?xml version='1.0' encoding='UTF-8' standalone='no'?>
<svg version="1.2" xmlns:xlink="http://www.w3.org/1999/xlink" viewBox="0 0 18 18" xmlns="http://www.w3.org/2000/svg" width="4.7625mm" height="4.7625mm" baseProfile="tiny">
    <style id="current-color-scheme" type="text/css">.ColorScheme-Text {color:#232629;}</style>
    <title>Qt SVG Document</title>
    <desc>Auto-generated by Klassy window decoration</desc>
    <defs/>
    <g stroke-linejoin="bevel" stroke-linecap="square" fill="none" stroke-width="1" stroke="black" fill-rule="evenodd">
        <g font-weight="400" class="ColorScheme-Text" font-size="13.3333" fill="currentColor" transform="matrix(1,0,0,1,0,0)" font-style="normal" stroke="none" font-family="Noto Sans" fill-opacity="1">
            <path vector-effect="none" fill-rule="nonzero" d="M4.5,11.9995 L8.5,11.9995 L8.5,13.0005 L4.5,13.0005 L4.5,11.9995"/>
            <path vector-effect="none" fill-rule="nonzero" d="M4.5,7.9995 L8.5,7.9995 L8.5,9.0005 L4.5,9.0005 L4.5,7.9995"/>
            <path vector-effect="none" fill-rule="nonzero" d="M4.5,3.9995 L13.5,3.9995 L13.5,5.0005 L4.5,5.0005 L4.5,3.9995"/>
            <path vector-effect="none" fill-rule="nonzero" d="M14.0005,6.5 L14.0005,14.5 L12.9995,14.5 L12.9995,6.5 L14.0005,6.5"/>
            <path vector-effect="none" fill-rule="nonzero" d="M10.6461,8.64609 L13.1461,6.14609 L13.5,5.79219 L13.8539,6.14609 L16.3539,8.64609 L15.6461,9.35391 L13.1461,6.85391 L13.5,6.5 L13.8539,6.85391 L11.3539,9.35391 L10.6461,8.64609"/>
        </g>
    </g>
</svg>
