<?xml version='1.0' encoding='UTF-8' standalone='no'?>
<svg version="1.2" xmlns:xlink="http://www.w3.org/1999/xlink" viewBox="0 0 18 18" xmlns="http://www.w3.org/2000/svg" width="4.7625mm" height="4.7625mm" baseProfile="tiny">
    <style id="current-color-scheme" type="text/css">.ColorScheme-Text {color:#232629;}</style>
    <title>Qt SVG Document</title>
    <desc>Auto-generated by Klassy window decoration</desc>
    <defs/>
    <g stroke-linejoin="bevel" stroke-linecap="square" fill="none" stroke-width="1" stroke="black" fill-rule="evenodd">
        <g font-weight="400" class="ColorScheme-Text" font-size="13.3333" fill="currentColor" transform="matrix(1,0,0,1,0,0)" font-style="normal" stroke="none" font-family="Noto Sans" fill-opacity="1">
            <path vector-effect="none" fill-rule="nonzero" d="M4.5,13.9995 L13.5,13.9995 L13.5,15.0005 L4.5,15.0005 L4.5,13.9995"/>
            <path vector-effect="none" fill-rule="nonzero" d="M9.5,9.9995 L13.5,9.9995 L13.5,11.0005 L9.5,11.0005 L9.5,9.9995"/>
            <path vector-effect="none" fill-rule="nonzero" d="M9.5,5.9995 L13.5,5.9995 L13.5,7.0005 L9.5,7.0005 L9.5,5.9995"/>
            <path vector-effect="none" fill-rule="nonzero" d="M5.0005,4.5 L5.0005,12.5 L3.9995,12.5 L3.9995,4.5 L5.0005,4.5"/>
            <path vector-effect="none" fill-rule="nonzero" d="M2.35391,9.64609 L4.85391,12.1461 L4.5,12.5 L4.14609,12.1461 L6.64609,9.64609 L7.35391,10.3539 L4.85391,12.8539 L4.5,13.2078 L4.14609,12.8539 L1.64609,10.3539 L2.35391,9.64609"/>
        </g>
    </g>
</svg>
