<?xml version='1.0' encoding='UTF-8' standalone='no'?>
<svg width="4.7625mm" viewBox="0 0 18 18" baseProfile="tiny" xmlns="http://www.w3.org/2000/svg" xmlns:xlink="http://www.w3.org/1999/xlink" version="1.2" height="4.7625mm">
    <style id="current-color-scheme" type="text/css">.ColorScheme-Text {color:#232629;}</style>
    <title>Qt SVG Document</title>
    <desc>Auto-generated by Klassy window decoration</desc>
    <defs/>
    <g stroke-linecap="square" fill-rule="evenodd" stroke-linejoin="bevel" stroke-width="1" fill="none" stroke="black">
        <g class="ColorScheme-Text" font-weight="400" font-family="Noto Sans" font-size="13.3333" transform="matrix(1,0,0,1,7.5,7.5)" fill-opacity="0.450004" fill="currentColor" font-style="normal" stroke="none">
            <rect width="3" y="0" x="0" height="3"/>
        </g>
        <g class="ColorScheme-Text" font-weight="400" font-family="Noto Sans" font-size="13.3333" transform="matrix(1,0,0,1,7.5,7.5)" fill-opacity="0.650004" fill="currentColor" font-style="normal" stroke="none">
            <path fill-rule="nonzero" vector-effect="none" d="M0,-0.5 L3,-0.5 L3.5,0 L3.5,3 L3,3.5 L0,3.5 L-0.5,3 L-0.5,0 L0,-0.5 M0.5,0 L0.5,3 L0,3 L0,2.5 L3,2.5 L3,3 L2.5,3 L2.5,0 L3,0 L3,0.5 L0,0.5 L0,0 L0.5,0"/>
        </g>
    </g>
</svg>
