<?xml version='1.0' encoding='UTF-8' standalone='no'?>
<svg baseProfile="tiny" height="4.7625mm" version="1.2" viewBox="0 0 18 18" width="4.7625mm" xmlns="http://www.w3.org/2000/svg" xmlns:xlink="http://www.w3.org/1999/xlink">
    <style id="current-color-scheme" type="text/css">.ColorScheme-Text {color:#232629;}</style>
    <title>Qt SVG Document</title>
    <desc>Auto-generated by Klassy window decoration</desc>
    <defs/>
    <g fill="none" fill-rule="evenodd" stroke="black" stroke-linecap="square" stroke-linejoin="bevel" stroke-width="1">
        <g class="ColorScheme-Text" fill="currentColor" fill-opacity="1" font-family="Noto Sans" font-size="13.3333" font-style="normal" font-weight="400" stroke="none" transform="matrix(1,0,0,1,0,0)">
            <path d="M4.5,11.9995 L8.5,11.9995 L8.5,13.0005 L4.5,13.0005 L4.5,11.9995" fill-rule="nonzero" vector-effect="none"/>
            <path d="M4.5,7.9995 L8.5,7.9995 L8.5,9.0005 L4.5,9.0005 L4.5,7.9995" fill-rule="nonzero" vector-effect="none"/>
            <path d="M4.5,3.9995 L13.5,3.9995 L13.5,5.0005 L4.5,5.0005 L4.5,3.9995" fill-rule="nonzero" vector-effect="none"/>
            <path d="M14.0005,6.5 L14.0005,14.5 L12.9995,14.5 L12.9995,6.5 L14.0005,6.5" fill-rule="nonzero" vector-effect="none"/>
            <path d="M10.6461,8.64609 L13.1461,6.14609 L13.5,5.79219 L13.8539,6.14609 L16.3539,8.64609 L15.6461,9.35391 L13.1461,6.85391 L13.5,6.5 L13.8539,6.85391 L11.3539,9.35391 L10.6461,8.64609" fill-rule="nonzero" vector-effect="none"/>
        </g>
    </g>
</svg>
