<?xml version='1.0' encoding='UTF-8' standalone='no'?>
<svg baseProfile="tiny" height="4.7625mm" version="1.2" viewBox="0 0 18 18" width="4.7625mm" xmlns="http://www.w3.org/2000/svg" xmlns:xlink="http://www.w3.org/1999/xlink">
    <style id="current-color-scheme" type="text/css">.ColorScheme-Text {color:#232629;}</style>
    <title>Qt SVG Document</title>
    <desc>Auto-generated by Klassy window decoration</desc>
    <defs/>
    <g fill="none" fill-rule="evenodd" stroke="black" stroke-linecap="square" stroke-linejoin="bevel" stroke-width="1">
        <g class="ColorScheme-Text" fill="currentColor" fill-opacity="0.900008" font-family="Noto Sans" font-size="13.3333" font-style="normal" font-weight="400" stroke="none" transform="matrix(1,0,0,1,4.5,6.5)">
            <path d="M0,-0.5005 L7,-0.5005 L7.5005,0 L7.5005,7 L7,7.5005 L0,7.5005 L-0.5005,7 L-0.5005,0 L0,-0.5005 M0.5005,0 L0.5005,7 L0,7 L0,6.4995 L7,6.4995 L7,7 L6.4995,7 L6.4995,0 L7,0 L7,0.5005 L0,0.5005 L0,0 L0.5005,0" fill-rule="nonzero" vector-effect="none"/>
        </g>
        <g class="ColorScheme-Text" fill="currentColor" fill-opacity="0.900008" font-family="Noto Sans" font-size="13.3333" font-style="normal" font-weight="400" stroke="none" transform="matrix(1,0,0,1,4.5,6.5)">
            <path d="M1.4995,-0.5005 L1.4995,-2 L2,-2.5005 L9,-2.5005 L9.5005,-2 L9.5005,5 L9,5.5005 L7.5005,5.5005 L7.5005,4.4995 L9,4.4995 L9,5 L8.4995,5 L8.4995,-2 L9,-2 L9,-1.4995 L2,-1.4995 L2,-2 L2.5005,-2 L2.5005,-0.5005 L1.4995,-0.5005" fill-rule="nonzero" vector-effect="none"/>
        </g>
    </g>
</svg>
