<?xml version='1.0' encoding='UTF-8' standalone='no'?>
<svg baseProfile="tiny" height="4.7625mm" version="1.2" viewBox="0 0 18 18" width="4.7625mm" xmlns="http://www.w3.org/2000/svg" xmlns:xlink="http://www.w3.org/1999/xlink">
    <style id="current-color-scheme" type="text/css">.ColorScheme-Text {color:#232629;}</style>
    <title>Qt SVG Document</title>
    <desc>Auto-generated by Klassy window decoration</desc>
    <defs/>
    <g fill="none" fill-rule="evenodd" stroke="black" stroke-linecap="square" stroke-linejoin="bevel" stroke-width="1">
        <g class="ColorScheme-Text" fill="currentColor" fill-opacity="0.900008" font-family="Noto Sans" font-size="13.3333" font-style="normal" font-weight="400" stroke="none" transform="matrix(1,0,0,1,0,0)">
            <path d="M3.9995,4.50113 C3.9995,4.29319 4.29319,3.9995 4.50113,3.9995 L13.4989,3.9995 C13.7068,3.9995 14.0005,4.29319 14.0005,4.50113 L14.0005,13.4989 C14.0005,13.7068 13.7068,14.0005 13.4989,14.0005 L4.50113,14.0005 C4.29319,14.0005 3.9995,13.7068 3.9995,13.4989 L3.9995,4.50113 M5.0005,4.50113 L5.0005,13.4989 C5.0005,13.2922 4.70782,12.9995 4.50113,12.9995 L13.4989,12.9995 C13.2922,12.9995 12.9995,13.2922 12.9995,13.4989 L12.9995,4.50113 C12.9995,4.70782 13.2922,5.0005 13.4989,5.0005 L4.50113,5.0005 C4.70782,5.0005 5.0005,4.70782 5.0005,4.50113 " fill-rule="nonzero" vector-effect="none"/>
        </g>
    </g>
</svg>
