<?xml version='1.0' encoding='UTF-8' standalone='no'?>
<svg baseProfile="tiny" height="12.7mm" version="1.2" viewBox="0 0 72 72" width="12.7mm" xmlns="http://www.w3.org/2000/svg" xmlns:xlink="http://www.w3.org/1999/xlink">
    <style id="current-color-scheme" type="text/css">.ColorScheme-Text {color:#fcfcfc;}</style>
    <title>Qt SVG Document</title>
    <desc>Auto-generated by Klassy window decoration</desc>
    <defs/>
    <g fill="none" fill-rule="evenodd" stroke="black" stroke-linecap="square" stroke-linejoin="bevel" stroke-width="1">
        <g class="ColorScheme-Text" fill="currentColor" fill-opacity="1" font-family="Noto Sans" font-size="20" font-style="normal" font-weight="400" stroke="none" transform="matrix(4,0,0,4,0,0)">
            <path d="M4.375,11.7494 L8.375,11.7494 C8.72052,11.7494 9.00062,12.0295 9.00062,12.375 C9.00062,12.7205 8.72052,13.0006 8.375,13.0006 L4.375,13.0006 C4.02948,13.0006 3.74938,12.7205 3.74938,12.375 C3.74938,12.0295 4.02948,11.7494 4.375,11.7494 " fill-rule="nonzero" vector-effect="none"/>
            <path d="M4.375,7.74938 L8.375,7.74938 C8.72052,7.74938 9.00062,8.02948 9.00062,8.375 C9.00062,8.72052 8.72052,9.00062 8.375,9.00062 L4.375,9.00062 C4.02948,9.00062 3.74938,8.72052 3.74938,8.375 C3.74938,8.02948 4.02948,7.74938 4.375,7.74938 " fill-rule="nonzero" vector-effect="none"/>
            <path d="M4.375,3.74938 L13.375,3.74938 C13.7205,3.74938 14.0006,4.02948 14.0006,4.375 C14.0006,4.72052 13.7205,5.00062 13.375,5.00062 L4.375,5.00062 C4.02948,5.00062 3.74938,4.72052 3.74938,4.375 C3.74938,4.02948 4.02948,3.74938 4.375,3.74938 " fill-rule="nonzero" vector-effect="none"/>
            <path d="M14.2506,6.625 L14.2506,14.625 C14.2506,14.9705 13.9705,15.2506 13.625,15.2506 C13.2795,15.2506 12.9994,14.9705 12.9994,14.625 L12.9994,6.625 C12.9994,6.27948 13.2795,5.99938 13.625,5.99938 C13.9705,5.99938 14.2506,6.27948 14.2506,6.625 " fill-rule="nonzero" vector-effect="none"/>
            <path d="M11.1826,8.18262 L13.1826,6.18262 L13.625,5.74023 L14.0674,6.18262 L16.0674,8.18262 C16.3117,8.42694 16.3117,8.82306 16.0674,9.06738 C15.8231,9.31171 15.4269,9.31171 15.1826,9.06738 L13.1826,7.06738 L13.625,6.625 L14.0674,7.06738 L12.0674,9.06738 C11.8231,9.31171 11.4269,9.31171 11.1826,9.06738 C10.9383,8.82306 10.9383,8.42694 11.1826,8.18262 " fill-rule="nonzero" vector-effect="none"/>
        </g>
    </g>
</svg>
