<?xml version='1.0' encoding='UTF-8' standalone='no'?>
<svg width="4.81061mm" viewBox="0 0 50 50" baseProfile="tiny" xmlns="http://www.w3.org/2000/svg" xmlns:xlink="http://www.w3.org/1999/xlink" version="1.2" height="4.81061mm">
    <style id="current-color-scheme" type="text/css">.ColorScheme-Text {color:#232629;}</style>
    <title>Qt SVG Document</title>
    <desc>Auto-generated by Klassy window decoration</desc>
    <defs/>
    <g stroke-linecap="square" fill-rule="evenodd" stroke-linejoin="bevel" stroke-width="1" fill="none" stroke="black">
        <g class="ColorScheme-Text" font-weight="400" font-family="Noto Sans" font-size="36.6667" transform="matrix(2.77778,0,0,2.77778,0,0)" fill-opacity="1" fill="currentColor" font-style="normal" stroke="none">
            <path fill-rule="nonzero" vector-effect="none" d="M3.6,4.32117 C3.6,4.02229 4.02229,3.6 4.32117,3.6 L13.6788,3.6 C13.9777,3.6 14.4,4.02229 14.4,4.32117 L14.4,13.6788 C14.4,13.9777 13.9777,14.4 13.6788,14.4 L4.32117,14.4 C4.02229,14.4 3.6,13.9777 3.6,13.6788 L3.6,4.32117 M5.04,4.32117 L5.04,13.6788 C5.04,13.3812 4.61876,12.96 4.32117,12.96 L13.6788,12.96 C13.3812,12.96 12.96,13.3812 12.96,13.6788 L12.96,4.32117 C12.96,4.61876 13.3812,5.04 13.6788,5.04 L4.32117,5.04 C4.61876,5.04 5.04,4.61876 5.04,4.32117 "/>
        </g>
    </g>
</svg>
