<?xml version='1.0' encoding='UTF-8' standalone='no'?>
<svg version="1.2" xmlns:xlink="http://www.w3.org/1999/xlink" viewBox="0 0 50 50" xmlns="http://www.w3.org/2000/svg" width="4.81061mm" height="4.81061mm" baseProfile="tiny">
    <style id="current-color-scheme" type="text/css">.ColorScheme-Text {color:#232629;}</style>
    <title>Qt SVG Document</title>
    <desc>Auto-generated by Klassy window decoration</desc>
    <defs/>
    <g stroke-linejoin="bevel" stroke-linecap="square" fill="none" stroke-width="1" stroke="black" fill-rule="evenodd">
        <g font-weight="400" class="ColorScheme-Text" font-size="36.6667" fill="currentColor" transform="matrix(2.77778,0,0,2.77778,0,0)" font-style="normal" stroke="none" font-family="Noto Sans" fill-opacity="1">
            <path vector-effect="none" fill-rule="nonzero" d="M4.5,14.0395 L13.5,14.0395 C13.7985,14.0395 14.0405,14.2815 14.0405,14.58 C14.0405,14.8785 13.7985,15.1205 13.5,15.1205 L4.5,15.1205 C4.20147,15.1205 3.95946,14.8785 3.95946,14.58 C3.95946,14.2815 4.20147,14.0395 4.5,14.0395 "/>
            <path vector-effect="none" fill-rule="nonzero" d="M9.54,10.0795 L13.5,10.0795 C13.7985,10.0795 14.0405,10.3215 14.0405,10.62 C14.0405,10.9185 13.7985,11.1605 13.5,11.1605 L9.54,11.1605 C9.24147,11.1605 8.99946,10.9185 8.99946,10.62 C8.99946,10.3215 9.24147,10.0795 9.54,10.0795 "/>
            <path vector-effect="none" fill-rule="nonzero" d="M9.54,6.11946 L13.5,6.11946 C13.7985,6.11946 14.0405,6.36147 14.0405,6.66 C14.0405,6.95853 13.7985,7.20054 13.5,7.20054 L9.54,7.20054 C9.24147,7.20054 8.99946,6.95853 8.99946,6.66 C8.99946,6.36147 9.24147,6.11946 9.54,6.11946 "/>
            <path vector-effect="none" fill-rule="nonzero" d="M5.04054,4.5 L5.04054,12.42 C5.04054,12.7185 4.79853,12.9605 4.5,12.9605 C4.20147,12.9605 3.95946,12.7185 3.95946,12.42 L3.95946,4.5 C3.95946,4.20147 4.20147,3.95946 4.5,3.95946 C4.79853,3.95946 5.04054,4.20147 5.04054,4.5 "/>
            <path vector-effect="none" fill-rule="nonzero" d="M2.68605,10.2047 L4.84605,12.0047 L4.5,12.42 L4.15395,12.0047 L6.31395,10.2047 C6.54329,10.0136 6.88414,10.0446 7.07525,10.274 C7.26637,10.5033 7.23538,10.8441 7.00605,11.0353 L4.84605,12.8353 L4.5,13.1236 L4.15395,12.8353 L1.99395,11.0353 C1.76462,10.8441 1.73363,10.5033 1.92475,10.274 C2.11586,10.0446 2.45671,10.0136 2.68605,10.2047 "/>
        </g>
    </g>
</svg>
