<?xml version='1.0' encoding='UTF-8' standalone='no'?>
<svg width="4.81061mm" viewBox="0 0 50 50" baseProfile="tiny" xmlns="http://www.w3.org/2000/svg" xmlns:xlink="http://www.w3.org/1999/xlink" version="1.2" height="4.81061mm">
    <style id="current-color-scheme" type="text/css">.ColorScheme-Text {color:#232629;}</style>
    <title>Qt SVG Document</title>
    <desc>Auto-generated by Klassy window decoration</desc>
    <defs/>
    <g stroke-linecap="square" fill-rule="evenodd" stroke-linejoin="bevel" stroke-width="1" fill="none" stroke="black">
        <g class="ColorScheme-Text" font-weight="400" font-family="Noto Sans" font-size="36.6667" transform="matrix(2.77778,0,0,2.77778,0,0)" fill-opacity="1" fill="currentColor" font-style="normal" stroke="none">
            <path fill-rule="nonzero" vector-effect="none" d="M3.96,3.96 L14.04,3.96 C14.4376,3.96 14.76,4.28235 14.76,4.68 C14.76,5.07765 14.4376,5.4 14.04,5.4 L3.96,5.4 C3.56235,5.4 3.24,5.07765 3.24,4.68 C3.24,4.28235 3.56235,3.96 3.96,3.96 "/>
            <path fill-rule="nonzero" vector-effect="none" d="M3.49088,12.4909 L8.49088,7.49088 L9,6.98177 L9.50912,7.49088 L14.5091,12.4909 C14.7903,12.7721 14.7903,13.2279 14.5091,13.5091 C14.2279,13.7903 13.7721,13.7903 13.4909,13.5091 L8.49088,8.50912 L9,8 L9.50912,8.50912 L4.50912,13.5091 C4.22794,13.7903 3.77206,13.7903 3.49088,13.5091 C3.20971,13.2279 3.20971,12.7721 3.49088,12.4909 "/>
        </g>
    </g>
</svg>
