<?xml version='1.0' encoding='UTF-8' standalone='no'?>
<svg width="4.81061mm" viewBox="0 0 50 50" baseProfile="tiny" xmlns="http://www.w3.org/2000/svg" xmlns:xlink="http://www.w3.org/1999/xlink" version="1.2" height="4.81061mm">
    <style id="current-color-scheme" type="text/css">.ColorScheme-Text {color:#232629;}</style>
    <title>Qt SVG Document</title>
    <desc>Auto-generated by Klassy window decoration</desc>
    <defs/>
    <g stroke-linecap="square" fill-rule="evenodd" stroke-linejoin="bevel" stroke-width="1" fill="none" stroke="black">
        <g class="ColorScheme-Text" font-weight="400" font-family="Noto Sans" font-size="36.6667" transform="matrix(2.77778,0,0,2.77778,0,0)" fill-opacity="1" fill="currentColor" font-style="normal" stroke="none">
            <path fill-rule="nonzero" vector-effect="none" d="M4.88625,3.75375 L14.2463,13.1137 C14.559,13.4265 14.559,13.9335 14.2463,14.2463 C13.9335,14.559 13.4265,14.559 13.1137,14.2463 L3.75375,4.88625 C3.44102,4.57352 3.44102,4.06648 3.75375,3.75375 C4.06648,3.44102 4.57352,3.44102 4.88625,3.75375 "/>
            <path fill-rule="nonzero" vector-effect="none" d="M14.2463,4.88625 L4.88625,14.2463 C4.57352,14.559 4.06648,14.559 3.75375,14.2463 C3.44102,13.9335 3.44102,13.4265 3.75375,13.1137 L13.1137,3.75375 C13.4265,3.44102 13.9335,3.44102 14.2463,3.75375 C14.559,4.06648 14.559,4.57352 14.2463,4.88625 "/>
        </g>
    </g>
</svg>
