<?xml version='1.0' encoding='UTF-8' standalone='no'?>
<svg version="1.2" xmlns:xlink="http://www.w3.org/1999/xlink" viewBox="0 0 24 24" xmlns="http://www.w3.org/2000/svg" width="4.23333mm" height="4.23333mm" baseProfile="tiny">
    <style id="current-color-scheme" type="text/css">.ColorScheme-Text {color:#fcfcfc;}</style>
    <title>Qt SVG Document</title>
    <desc>Auto-generated by Klassy window decoration</desc>
    <defs/>
    <g stroke-linejoin="bevel" stroke-linecap="square" fill="none" stroke-width="1" stroke="black" fill-rule="evenodd">
        <g font-weight="400" class="ColorScheme-Text" font-size="20" fill="currentColor" transform="matrix(1.33333,0,0,1.33333,0,0)" font-style="normal" stroke="none" font-family="Noto Sans" fill-opacity="1">
            <path vector-effect="none" fill-rule="nonzero" d="M4.5,12.7492 L8.25,12.7492 C8.66463,12.7492 9.00075,13.0854 9.00075,13.5 C9.00075,13.9146 8.66463,14.2508 8.25,14.2508 L4.5,14.2508 C4.08537,14.2508 3.74925,13.9146 3.74925,13.5 C3.74925,13.0854 4.08537,12.7492 4.5,12.7492 "/>
            <path vector-effect="none" fill-rule="nonzero" d="M4.5,8.24925 L8.25,8.24925 C8.66463,8.24925 9.00075,8.58537 9.00075,9 C9.00075,9.41463 8.66463,9.75075 8.25,9.75075 L4.5,9.75075 C4.08537,9.75075 3.74925,9.41463 3.74925,9 C3.74925,8.58537 4.08537,8.24925 4.5,8.24925 "/>
            <path vector-effect="none" fill-rule="nonzero" d="M4.5,3.74925 L13.5,3.74925 C13.9146,3.74925 14.2508,4.08537 14.2508,4.5 C14.2508,4.91463 13.9146,5.25075 13.5,5.25075 L4.5,5.25075 C4.08537,5.25075 3.74925,4.91463 3.74925,4.5 C3.74925,4.08537 4.08537,3.74925 4.5,3.74925 "/>
            <path vector-effect="none" fill-rule="nonzero" d="M14.2508,6.75 L14.2508,14.25 C14.2508,14.6646 13.9146,15.0008 13.5,15.0008 C13.0854,15.0008 12.7492,14.6646 12.7492,14.25 L12.7492,6.75 C12.7492,6.33537 13.0854,5.99925 13.5,5.99925 C13.9146,5.99925 14.2508,6.33537 14.2508,6.75 "/>
            <path vector-effect="none" fill-rule="nonzero" d="M10.8336,7.62534 L13.0836,6.12534 L13.5,5.84771 L13.9164,6.12534 L16.1664,7.62534 C16.5114,7.85533 16.6047,8.32145 16.3747,8.66644 C16.1447,9.01143 15.6785,9.10466 15.3336,8.87466 L13.0836,7.37466 L13.5,6.75 L13.9164,7.37466 L11.6664,8.87466 C11.3215,9.10466 10.8553,9.01143 10.6253,8.66644 C10.3953,8.32145 10.4886,7.85533 10.8336,7.62534 "/>
        </g>
    </g>
</svg>
