<?xml version='1.0' encoding='UTF-8' standalone='no'?>
<svg baseProfile="tiny" height="4.23333mm" version="1.2" viewBox="0 0 24 24" width="4.23333mm" xmlns="http://www.w3.org/2000/svg" xmlns:xlink="http://www.w3.org/1999/xlink">
    <style id="current-color-scheme" type="text/css">.ColorScheme-Text {color:#fcfcfc;}</style>
    <title>Qt SVG Document</title>
    <desc>Auto-generated by Klassy window decoration</desc>
    <defs/>
    <g fill="none" fill-rule="evenodd" stroke="black" stroke-linecap="square" stroke-linejoin="bevel" stroke-width="1">
        <g class="ColorScheme-Text" fill="currentColor" fill-opacity="1" font-family="Noto Sans" font-size="20" font-style="normal" font-weight="400" stroke="none" transform="matrix(1.33333,0,0,1.33333,0,0)">
            <path d="M3.75,3.74925 L14.25,3.74925 C14.6646,3.74925 15.0008,4.08537 15.0008,4.5 C15.0008,4.91463 14.6646,5.25075 14.25,5.25075 L3.75,5.25075 C3.33537,5.25075 2.99925,4.91463 2.99925,4.5 C2.99925,4.08537 3.33537,3.74925 3.75,3.74925 " fill-rule="nonzero" vector-effect="none"/>
            <path d="M3.46914,12.4691 L8.46914,7.46914 L9,6.93828 L9.53086,7.46914 L14.5309,12.4691 C14.824,12.7623 14.824,13.2377 14.5309,13.5309 C14.2377,13.824 13.7623,13.824 13.4691,13.5309 L8.46914,8.53086 L9,8 L9.53086,8.53086 L4.53086,13.5309 C4.23767,13.824 3.76233,13.824 3.46914,13.5309 C3.17595,13.2377 3.17595,12.7623 3.46914,12.4691 " fill-rule="nonzero" vector-effect="none"/>
        </g>
    </g>
</svg>
