<?xml version='1.0' encoding='UTF-8' standalone='no'?>
<svg baseProfile="tiny" height="4.23333mm" version="1.2" viewBox="0 0 24 24" width="4.23333mm" xmlns="http://www.w3.org/2000/svg" xmlns:xlink="http://www.w3.org/1999/xlink">
    <style id="current-color-scheme" type="text/css">.ColorScheme-Text {color:#fcfcfc;}</style>
    <title>Qt SVG Document</title>
    <desc>Auto-generated by Klassy window decoration</desc>
    <defs/>
    <g fill="none" fill-rule="evenodd" stroke="black" stroke-linecap="square" stroke-linejoin="bevel" stroke-width="1">
        <g class="ColorScheme-Text" fill="currentColor" fill-opacity="0.949996" font-family="Noto Sans" font-size="20" font-style="normal" font-weight="400" stroke="none" transform="matrix(1.33333,0,0,1.33333,5,9)">
            <path d="M0,-0.75075 L7.5,-0.75075 L8.25075,0 L8.25075,7.5 L7.5,8.25075 L0,8.25075 L-0.75075,7.5 L-0.75075,0 L0,-0.75075 M0.75075,0 L0.75075,7.5 L0,7.5 L0,6.74925 L7.5,6.74925 L7.5,7.5 L6.74925,7.5 L6.74925,0 L7.5,0 L7.5,0.75075 L0,0.75075 L0,0 L0.75075,0" fill-rule="nonzero" vector-effect="none"/>
        </g>
        <g class="ColorScheme-Text" fill="currentColor" fill-opacity="0.949996" font-family="Noto Sans" font-size="20" font-style="normal" font-weight="400" stroke="none" transform="matrix(1.33333,0,0,1.33333,5,9)">
            <path d="M2.24925,-0.75075 L2.24925,-3 L3,-3.75075 L10.5,-3.75075 L11.2508,-3 L11.2508,4.5 L10.5,5.25075 L8.25075,5.25075 L8.25075,3.74925 L10.5,3.74925 L10.5,4.5 L9.74925,4.5 L9.74925,-3 L10.5,-3 L10.5,-2.24925 L3,-2.24925 L3,-3 L3.75075,-3 L3.75075,-0.75075 L2.24925,-0.75075" fill-rule="nonzero" vector-effect="none"/>
        </g>
    </g>
</svg>
