<?xml version='1.0' encoding='UTF-8' standalone='no'?>
<svg version="1.2" xmlns:xlink="http://www.w3.org/1999/xlink" viewBox="0 0 24 24" xmlns="http://www.w3.org/2000/svg" width="4.23333mm" height="4.23333mm" baseProfile="tiny">
    <style id="current-color-scheme" type="text/css">.ColorScheme-Text {color:#fcfcfc;}</style>
    <title>Qt SVG Document</title>
    <desc>Auto-generated by Klassy window decoration</desc>
    <defs/>
    <g stroke-linejoin="bevel" stroke-linecap="square" fill="none" stroke-width="1" stroke="black" fill-rule="evenodd">
        <g font-weight="400" class="ColorScheme-Text" font-size="20" fill="currentColor" transform="matrix(1.33333,0,0,1.33333,5,9)" font-style="normal" stroke="none" font-family="Noto Sans" fill-opacity="1">
            <path vector-effect="none" fill-rule="nonzero" d="M0,-0.75075 L7.5,-0.75075 L8.25075,0 L8.25075,7.5 L7.5,8.25075 L0,8.25075 L-0.75075,7.5 L-0.75075,0 L0,-0.75075 M0.75075,0 L0.75075,7.5 L0,7.5 L0,6.74925 L7.5,6.74925 L7.5,7.5 L6.74925,7.5 L6.74925,0 L7.5,0 L7.5,0.75075 L0,0.75075 L0,0 L0.75075,0"/>
        </g>
        <g font-weight="400" class="ColorScheme-Text" font-size="20" fill="currentColor" transform="matrix(1.33333,0,0,1.33333,5,9)" font-style="normal" stroke="none" font-family="Noto Sans" fill-opacity="1">
            <path vector-effect="none" fill-rule="nonzero" d="M2.24925,-0.75075 L2.24925,-3 L3,-3.75075 L10.5,-3.75075 L11.2508,-3 L11.2508,4.5 L10.5,5.25075 L8.25075,5.25075 L8.25075,3.74925 L10.5,3.74925 L10.5,4.5 L9.74925,4.5 L9.74925,-3 L10.5,-3 L10.5,-2.24925 L3,-2.24925 L3,-3 L3.75075,-3 L3.75075,-0.75075 L2.24925,-0.75075"/>
        </g>
    </g>
</svg>
