<?xml version='1.0' encoding='UTF-8' standalone='no'?>
<svg baseProfile="tiny" height="4.23333mm" version="1.2" viewBox="0 0 24 24" width="4.23333mm" xmlns="http://www.w3.org/2000/svg" xmlns:xlink="http://www.w3.org/1999/xlink">
    <style id="current-color-scheme" type="text/css">.ColorScheme-Text {color:#fcfcfc;}</style>
    <title>Qt SVG Document</title>
    <desc>Auto-generated by Klassy window decoration</desc>
    <defs/>
    <g fill="none" fill-rule="evenodd" stroke="black" stroke-linecap="square" stroke-linejoin="bevel" stroke-width="1">
        <g class="ColorScheme-Text" fill="currentColor" fill-opacity="1" font-family="Noto Sans" font-size="20" font-style="normal" font-weight="400" stroke="none" transform="matrix(1.33333,0,0,1.33333,0,0)">
            <path d="M4.5,13.4992 L13.5,13.4992 C13.9146,13.4992 14.2508,13.8354 14.2508,14.25 C14.2508,14.6646 13.9146,15.0008 13.5,15.0008 L4.5,15.0008 C4.08537,15.0008 3.74925,14.6646 3.74925,14.25 C3.74925,13.8354 4.08537,13.4992 4.5,13.4992 " fill-rule="nonzero" vector-effect="none"/>
            <path d="M9.75,9.74925 L13.5,9.74925 C13.9146,9.74925 14.2508,10.0854 14.2508,10.5 C14.2508,10.9146 13.9146,11.2508 13.5,11.2508 L9.75,11.2508 C9.33537,11.2508 8.99925,10.9146 8.99925,10.5 C8.99925,10.0854 9.33537,9.74925 9.75,9.74925 " fill-rule="nonzero" vector-effect="none"/>
            <path d="M9.75,5.99925 L13.5,5.99925 C13.9146,5.99925 14.2508,6.33537 14.2508,6.75 C14.2508,7.16463 13.9146,7.50075 13.5,7.50075 L9.75,7.50075 C9.33537,7.50075 8.99925,7.16463 8.99925,6.75 C8.99925,6.33537 9.33537,5.99925 9.75,5.99925 " fill-rule="nonzero" vector-effect="none"/>
            <path d="M5.25075,4.5 L5.25075,12.75 C5.25075,13.1646 4.91463,13.5008 4.5,13.5008 C4.08537,13.5008 3.74925,13.1646 3.74925,12.75 L3.74925,4.5 C3.74925,4.08537 4.08537,3.74925 4.5,3.74925 C4.91463,3.74925 5.25075,4.08537 5.25075,4.5 " fill-rule="nonzero" vector-effect="none"/>
            <path d="M2.78086,9.96914 L5.03086,12.2191 L4.5,12.75 L3.96914,12.2191 L6.21914,9.96914 C6.51233,9.67595 6.98767,9.67595 7.28086,9.96914 C7.57405,10.2623 7.57405,10.7377 7.28086,11.0309 L5.03086,13.2809 L4.5,13.8117 L3.96914,13.2809 L1.71914,11.0309 C1.42595,10.7377 1.42595,10.2623 1.71914,9.96914 C2.01233,9.67595 2.48767,9.67595 2.78086,9.96914 " fill-rule="nonzero" vector-effect="none"/>
        </g>
    </g>
</svg>
