<?xml version='1.0' encoding='UTF-8' standalone='no'?>
<svg baseProfile="tiny" height="8.46667mm" version="1.2" viewBox="0 0 40 40" width="8.46667mm" xmlns="http://www.w3.org/2000/svg" xmlns:xlink="http://www.w3.org/1999/xlink">
    <style id="current-color-scheme" type="text/css">.ColorScheme-Text {color:#fcfcfc;}</style>
    <title>Qt SVG Document</title>
    <desc>Auto-generated by Klassy window decoration</desc>
    <defs/>
    <g fill="none" fill-rule="evenodd" stroke="black" stroke-linecap="square" stroke-linejoin="bevel" stroke-width="1">
        <g class="ColorScheme-Text" fill="currentColor" fill-opacity="0.450004" font-family="Noto Sans" font-size="16.6667" font-style="normal" font-weight="400" stroke="none" transform="matrix(2.22222,0,0,2.22222,16.5,16.5)">
            <rect height="3.15" width="3.15" x="0" y="0"/>
        </g>
        <g class="ColorScheme-Text" fill="currentColor" fill-opacity="0.902495" font-family="Noto Sans" font-size="16.6667" font-style="normal" font-weight="400" stroke="none" transform="matrix(2.22222,0,0,2.22222,16.5,16.5)">
            <path d="M0,-0.675675 L3.15,-0.675675 L3.82567,0 L3.82567,3.15 L3.15,3.82567 L0,3.82567 L-0.675675,3.15 L-0.675675,0 L0,-0.675675 M0.675675,0 L0.675675,3.15 L0,3.15 L0,2.47432 L3.15,2.47432 L3.15,3.15 L2.47432,3.15 L2.47432,0 L3.15,0 L3.15,0.675675 L0,0.675675 L0,0 L0.675675,0" fill-rule="nonzero" vector-effect="none"/>
        </g>
    </g>
</svg>
