<?xml version='1.0' encoding='UTF-8' standalone='no'?>
<svg baseProfile="tiny" height="8.46667mm" version="1.2" viewBox="0 0 40 40" width="8.46667mm" xmlns="http://www.w3.org/2000/svg" xmlns:xlink="http://www.w3.org/1999/xlink">
    <style id="current-color-scheme" type="text/css">.ColorScheme-Text {color:#fcfcfc;}</style>
    <title>Qt SVG Document</title>
    <desc>Auto-generated by Klassy window decoration</desc>
    <defs/>
    <g fill="none" fill-rule="evenodd" stroke="black" stroke-linecap="square" stroke-linejoin="bevel" stroke-width="1">
        <g class="ColorScheme-Text" fill="currentColor" fill-opacity="1" font-family="Noto Sans" font-size="16.6667" font-style="normal" font-weight="400" stroke="none" transform="matrix(2.22222,0,0,2.22222,0,0)">
            <path d="M4.05,4.04932 L13.95,4.04932 C14.3232,4.04932 14.6257,4.35184 14.6257,4.725 C14.6257,5.09816 14.3232,5.40067 13.95,5.40067 L4.05,5.40067 C3.67684,5.40067 3.37432,5.09816 3.37432,4.725 C3.37432,4.35184 3.67684,4.04932 4.05,4.04932 " fill-rule="nonzero" vector-effect="none"/>
            <path d="M4.47777,7.52223 L9.47777,12.5222 L9,13 L8.52223,12.5222 L13.5222,7.52223 C13.7861,7.25836 14.2139,7.25836 14.4778,7.52223 C14.7416,7.78609 14.7416,8.21391 14.4778,8.47777 L9.47777,13.4778 L9,13.9555 L8.52223,13.4778 L3.52223,8.47777 C3.25836,8.21391 3.25836,7.78609 3.52223,7.52223 C3.78609,7.25836 4.21391,7.25836 4.47777,7.52223 " fill-rule="nonzero" vector-effect="none"/>
        </g>
    </g>
</svg>
