<?xml version='1.0' encoding='UTF-8' standalone='no'?>
<svg version="1.2" xmlns:xlink="http://www.w3.org/1999/xlink" viewBox="0 0 33 33" xmlns="http://www.w3.org/2000/svg" width="5.82083mm" height="5.82083mm" baseProfile="tiny">
    <style id="current-color-scheme" type="text/css">.ColorScheme-Text {color:#fcfcfc;}</style>
    <title>Qt SVG Document</title>
    <desc>Auto-generated by Klassy window decoration</desc>
    <defs/>
    <g stroke-linejoin="bevel" stroke-linecap="square" fill="none" stroke-width="1" stroke="black" fill-rule="evenodd">
        <g font-weight="400" class="ColorScheme-Text" font-size="20" fill="#da0016" transform="matrix(2.0625,0,0,2.0625,0,0)" font-style="normal" stroke="none" font-family="Noto Sans" fill-opacity="0.719997">
            <path vector-effect="none" fill-rule="evenodd" d="M2,3.2 C2,2.53726 2.53726,2 3.2,2 L12.8,2 C13.4627,2 14,2.53726 14,3.2 L14,12.8 C14,13.4627 13.4627,14 12.8,14 L3.2,14 C2.53726,14 2,13.4627 2,12.8 L2,3.2"/>
        </g>
        <g font-weight="400" class="ColorScheme-Text" font-size="20" fill="#ffffff" transform="matrix(1.83333,0,0,1.83333,0,0)" font-style="normal" stroke="none" font-family="Noto Sans" fill-opacity="1">
            <path vector-effect="none" fill-rule="nonzero" d="M5.21548,4.05724 L14.4882,13.33 C14.8081,13.6498 14.8081,14.1684 14.4882,14.4882 C14.1684,14.8081 13.6498,14.8081 13.33,14.4882 L4.05724,5.21548 C3.7374,4.89564 3.7374,4.37708 4.05724,4.05724 C4.37708,3.7374 4.89564,3.7374 5.21548,4.05724 "/>
            <path vector-effect="none" fill-rule="nonzero" d="M14.4882,5.21548 L5.21548,14.4882 C4.89564,14.8081 4.37708,14.8081 4.05724,14.4882 C3.7374,14.1684 3.7374,13.6498 4.05724,13.33 L13.33,4.05724 C13.6498,3.7374 14.1684,3.7374 14.4882,4.05724 C14.8081,4.37708 14.8081,4.89564 14.4882,5.21548 "/>
        </g>
    </g>
</svg>
