<?xml version='1.0' encoding='UTF-8' standalone='no'?>
<svg width="5.82083mm" viewBox="0 0 33 33" baseProfile="tiny" xmlns="http://www.w3.org/2000/svg" xmlns:xlink="http://www.w3.org/1999/xlink" version="1.2" height="5.82083mm">
    <style id="current-color-scheme" type="text/css">.ColorScheme-Text {color:#fcfcfc;}</style>
    <title>Qt SVG Document</title>
    <desc>Auto-generated by Klassy window decoration</desc>
    <defs/>
    <g stroke-linecap="square" fill-rule="evenodd" stroke-linejoin="bevel" stroke-width="1" fill="none" stroke="black">
        <g class="ColorScheme-Text" font-weight="400" font-family="Noto Sans" font-size="20" transform="matrix(1.83333,0,0,1.83333,0,0)" fill-opacity="1" fill="currentColor" font-style="normal" stroke="none">
            <path fill-rule="nonzero" vector-effect="none" d="M3.81818,3.81818 L14.1818,3.81818 C14.4831,3.81818 14.7273,4.06239 14.7273,4.36364 C14.7273,4.66488 14.4831,4.90909 14.1818,4.90909 L3.81818,4.90909 C3.51694,4.90909 3.27273,4.66488 3.27273,4.36364 C3.27273,4.06239 3.51694,3.81818 3.81818,3.81818 "/>
            <path fill-rule="nonzero" vector-effect="none" d="M4.38569,7.61431 L9.38569,12.6143 L9,13 L8.61431,12.6143 L13.6143,7.61431 C13.8273,7.40129 14.1727,7.40129 14.3857,7.61431 C14.5987,7.82732 14.5987,8.17268 14.3857,8.38569 L9.38569,13.3857 L9,13.7714 L8.61431,13.3857 L3.61431,8.38569 C3.40129,8.17268 3.40129,7.82732 3.61431,7.61431 C3.82732,7.40129 4.17268,7.40129 4.38569,7.61431 "/>
        </g>
    </g>
</svg>
