<?xml version='1.0' encoding='UTF-8' standalone='no'?>
<svg baseProfile="tiny" height="5.82083mm" version="1.2" viewBox="0 0 33 33" width="5.82083mm" xmlns="http://www.w3.org/2000/svg" xmlns:xlink="http://www.w3.org/1999/xlink">
    <style id="current-color-scheme" type="text/css">.ColorScheme-Text {color:#fcfcfc;}</style>
    <title>Qt SVG Document</title>
    <desc>Auto-generated by Klassy window decoration</desc>
    <defs/>
    <g fill="none" fill-rule="evenodd" stroke="black" stroke-linecap="square" stroke-linejoin="bevel" stroke-width="1">
        <g class="ColorScheme-Text" fill="currentColor" fill-opacity="1" font-family="Noto Sans" font-size="20" font-style="normal" font-weight="400" stroke="none" transform="matrix(1.83333,0,0,1.83333,0,0)">
            <path d="M4.36364,14.1813 L13.6364,14.1813 C13.9379,14.1813 14.1824,14.4257 14.1824,14.7273 C14.1824,15.0288 13.9379,15.2733 13.6364,15.2733 L4.36364,15.2733 C4.06209,15.2733 3.81764,15.0288 3.81764,14.7273 C3.81764,14.4257 4.06209,14.1813 4.36364,14.1813 " fill-rule="nonzero" vector-effect="none"/>
            <path d="M9.27273,9.81764 L13.6364,9.81764 C13.9379,9.81764 14.1824,10.0621 14.1824,10.3636 C14.1824,10.6652 13.9379,10.9096 13.6364,10.9096 L9.27273,10.9096 C8.97118,10.9096 8.72673,10.6652 8.72673,10.3636 C8.72673,10.0621 8.97118,9.81764 9.27273,9.81764 " fill-rule="nonzero" vector-effect="none"/>
            <path d="M9.27273,5.454 L13.6364,5.454 C13.9379,5.454 14.1824,5.69845 14.1824,6 C14.1824,6.30155 13.9379,6.546 13.6364,6.546 L9.27273,6.546 C8.97118,6.546 8.72673,6.30155 8.72673,6 C8.72673,5.69845 8.97118,5.454 9.27273,5.454 " fill-rule="nonzero" vector-effect="none"/>
            <path d="M4.90964,4.36364 L4.90964,12.5455 C4.90964,12.847 4.66518,13.0915 4.36364,13.0915 C4.06209,13.0915 3.81764,12.847 3.81764,12.5455 L3.81764,4.36364 C3.81764,4.06209 4.06209,3.81764 4.36364,3.81764 C4.66518,3.81764 4.90964,4.06209 4.90964,4.36364 " fill-rule="nonzero" vector-effect="none"/>
            <path d="M3.16407,10.036 L4.80044,12.2179 L4.36364,12.5455 L3.92684,12.2179 L5.5632,10.036 C5.74413,9.7948 6.08636,9.74591 6.3276,9.92684 C6.56884,10.1078 6.61773,10.45 6.4368,10.6912 L4.80044,12.8731 L4.36364,13.4555 L3.92684,12.8731 L2.29047,10.6912 C2.10954,10.45 2.15843,10.1078 2.39967,9.92684 C2.64091,9.74591 2.98314,9.7948 3.16407,10.036 " fill-rule="nonzero" vector-effect="none"/>
        </g>
    </g>
</svg>
