<?xml version='1.0' encoding='UTF-8' standalone='no'?>
<svg width="5.82083mm" viewBox="0 0 33 33" baseProfile="tiny" xmlns="http://www.w3.org/2000/svg" xmlns:xlink="http://www.w3.org/1999/xlink" version="1.2" height="5.82083mm">
    <style id="current-color-scheme" type="text/css">.ColorScheme-Text {color:#fcfcfc;}</style>
    <title>Qt SVG Document</title>
    <desc>Auto-generated by Klassy window decoration</desc>
    <defs/>
    <g stroke-linecap="square" fill-rule="evenodd" stroke-linejoin="bevel" stroke-width="1" fill="none" stroke="black">
        <g class="ColorScheme-Text" font-weight="400" font-family="Noto Sans" font-size="20" transform="matrix(1.83333,0,0,1.83333,0,0)" fill-opacity="1" fill="currentColor" font-style="normal" stroke="none">
            <path fill-rule="nonzero" vector-effect="none" d="M4.36364,12.5455 L8.72727,12.5455 C9.02852,12.5455 9.27273,12.7897 9.27273,13.0909 C9.27273,13.3922 9.02852,13.6364 8.72727,13.6364 L4.36364,13.6364 C4.06239,13.6364 3.81818,13.3922 3.81818,13.0909 C3.81818,12.7897 4.06239,12.5455 4.36364,12.5455 "/>
            <path fill-rule="nonzero" vector-effect="none" d="M4.36364,8.18182 L8.72727,8.18182 C9.02852,8.18182 9.27273,8.42603 9.27273,8.72727 C9.27273,9.02852 9.02852,9.27273 8.72727,9.27273 L4.36364,9.27273 C4.06239,9.27273 3.81818,9.02852 3.81818,8.72727 C3.81818,8.42603 4.06239,8.18182 4.36364,8.18182 "/>
            <path fill-rule="nonzero" vector-effect="none" d="M4.36364,3.81818 L13.6364,3.81818 C13.9376,3.81818 14.1818,4.06239 14.1818,4.36364 C14.1818,4.66488 13.9376,4.90909 13.6364,4.90909 L4.36364,4.90909 C4.06239,4.90909 3.81818,4.66488 3.81818,4.36364 C3.81818,4.06239 4.06239,3.81818 4.36364,3.81818 "/>
            <path fill-rule="nonzero" vector-effect="none" d="M14.1818,6.54545 L14.1818,14.7273 C14.1818,15.0285 13.9376,15.2727 13.6364,15.2727 C13.3351,15.2727 13.0909,15.0285 13.0909,14.7273 L13.0909,6.54545 C13.0909,6.24421 13.3351,6 13.6364,6 C13.9376,6 14.1818,6.24421 14.1818,6.54545 "/>
            <path fill-rule="nonzero" vector-effect="none" d="M11.5636,8.4 L13.2,6.21818 L13.6364,5.63636 L14.0727,6.21818 L15.7091,8.4 C15.8898,8.641 15.841,8.98289 15.6,9.16364 C15.359,9.34438 15.0171,9.29554 14.8364,9.05455 L13.2,6.87273 L13.6364,6.54545 L14.0727,6.87273 L12.4364,9.05455 C12.2556,9.29554 11.9137,9.34438 11.6727,9.16364 C11.4317,8.98289 11.3829,8.641 11.5636,8.4 "/>
        </g>
    </g>
</svg>
