<?xml version='1.0' encoding='UTF-8' standalone='no'?>
<svg width="5.82083mm" viewBox="0 0 33 33" baseProfile="tiny" xmlns="http://www.w3.org/2000/svg" xmlns:xlink="http://www.w3.org/1999/xlink" version="1.2" height="5.82083mm">
    <style id="current-color-scheme" type="text/css">.ColorScheme-Text {color:#fcfcfc;}</style>
    <title>Qt SVG Document</title>
    <desc>Auto-generated by Klassy window decoration</desc>
    <defs/>
    <g stroke-linecap="square" fill-rule="evenodd" stroke-linejoin="bevel" stroke-width="1" fill="none" stroke="black">
        <g class="ColorScheme-Text" font-weight="400" font-family="Noto Sans" font-size="20" transform="matrix(1.83333,0,0,1.83333,0,0)" fill-opacity="1" fill="currentColor" font-style="normal" stroke="none">
            <path fill-rule="nonzero" vector-effect="none" d="M4.36364,14.1818 L13.6364,14.1818 C13.9376,14.1818 14.1818,14.426 14.1818,14.7273 C14.1818,15.0285 13.9376,15.2727 13.6364,15.2727 L4.36364,15.2727 C4.06239,15.2727 3.81818,15.0285 3.81818,14.7273 C3.81818,14.426 4.06239,14.1818 4.36364,14.1818 "/>
            <path fill-rule="nonzero" vector-effect="none" d="M9.27273,9.81818 L13.6364,9.81818 C13.9376,9.81818 14.1818,10.0624 14.1818,10.3636 C14.1818,10.6649 13.9376,10.9091 13.6364,10.9091 L9.27273,10.9091 C8.97148,10.9091 8.72727,10.6649 8.72727,10.3636 C8.72727,10.0624 8.97148,9.81818 9.27273,9.81818 "/>
            <path fill-rule="nonzero" vector-effect="none" d="M9.27273,5.45455 L13.6364,5.45455 C13.9376,5.45455 14.1818,5.69875 14.1818,6 C14.1818,6.30125 13.9376,6.54545 13.6364,6.54545 L9.27273,6.54545 C8.97148,6.54545 8.72727,6.30125 8.72727,6 C8.72727,5.69875 8.97148,5.45455 9.27273,5.45455 "/>
            <path fill-rule="nonzero" vector-effect="none" d="M4.90909,4.36364 L4.90909,12.5455 C4.90909,12.8467 4.66488,13.0909 4.36364,13.0909 C4.06239,13.0909 3.81818,12.8467 3.81818,12.5455 L3.81818,4.36364 C3.81818,4.06239 4.06239,3.81818 4.36364,3.81818 C4.66488,3.81818 4.90909,4.06239 4.90909,4.36364 "/>
            <path fill-rule="nonzero" vector-effect="none" d="M3.16364,10.0364 L4.8,12.2182 L4.36364,12.5455 L3.92727,12.2182 L5.56364,10.0364 C5.74438,9.79537 6.08628,9.74652 6.32727,9.92727 C6.56827,10.108 6.61711,10.4499 6.43636,10.6909 L4.8,12.8727 L4.36364,13.4545 L3.92727,12.8727 L2.29091,10.6909 C2.11016,10.4499 2.159,10.108 2.4,9.92727 C2.641,9.74652 2.98289,9.79537 3.16364,10.0364 "/>
        </g>
    </g>
</svg>
