<?xml version='1.0' encoding='UTF-8' standalone='no'?>
<svg baseProfile="tiny" height="5.82083mm" version="1.2" viewBox="0 0 33 33" width="5.82083mm" xmlns="http://www.w3.org/2000/svg" xmlns:xlink="http://www.w3.org/1999/xlink">
    <style id="current-color-scheme" type="text/css">.ColorScheme-Text {color:#fcfcfc;}</style>
    <title>Qt SVG Document</title>
    <desc>Auto-generated by Klassy window decoration</desc>
    <defs/>
    <g fill="none" fill-rule="evenodd" stroke="black" stroke-linecap="square" stroke-linejoin="bevel" stroke-width="1">
        <g class="ColorScheme-Text" fill="currentColor" fill-opacity="0.949996" font-family="Noto Sans" font-size="20" font-style="normal" font-weight="400" stroke="none" transform="matrix(1.83333,0,0,1.83333,0,0)">
            <path d="M3.81736,4.63752 C3.81736,4.29764 4.29764,3.81736 4.63752,3.81736 L13.9079,3.81736 C14.2478,3.81736 14.7281,4.29764 14.7281,4.63752 L14.7281,13.9079 C14.7281,14.2478 14.2478,14.7281 13.9079,14.7281 L4.63752,14.7281 C4.29764,14.7281 3.81736,14.2478 3.81736,13.9079 L3.81736,4.63752 M5.45536,4.63752 L5.45536,13.9079 C5.45536,13.5693 4.97612,13.0901 4.63752,13.0901 L13.9079,13.0901 C13.5693,13.0901 13.0901,13.5693 13.0901,13.9079 L13.0901,4.63752 C13.0901,4.97612 13.5693,5.45536 13.9079,5.45536 L4.63752,5.45536 C4.97612,5.45536 5.45536,4.97612 5.45536,4.63752 " fill-rule="nonzero" vector-effect="none"/>
        </g>
    </g>
</svg>
