<?xml version='1.0' encoding='UTF-8' standalone='no'?>
<svg baseProfile="tiny" height="5.82083mm" version="1.2" viewBox="0 0 33 33" width="5.82083mm" xmlns="http://www.w3.org/2000/svg" xmlns:xlink="http://www.w3.org/1999/xlink">
    <style id="current-color-scheme" type="text/css">.ColorScheme-Text {color:#fcfcfc;}</style>
    <title>Qt SVG Document</title>
    <desc>Auto-generated by Klassy window decoration</desc>
    <defs/>
    <g fill="none" fill-rule="evenodd" stroke="black" stroke-linecap="square" stroke-linejoin="bevel" stroke-width="1">
        <g class="ColorScheme-Text" fill="currentColor" fill-opacity="0.450004" font-family="Noto Sans" font-size="20" font-style="normal" font-weight="400" stroke="none" transform="matrix(1.83333,0,0,1.83333,14,15)">
            <rect height="2.72727" width="2.72727" x="0" y="0"/>
        </g>
        <g class="ColorScheme-Text" fill="currentColor" fill-opacity="0.902495" font-family="Noto Sans" font-size="20" font-style="normal" font-weight="400" stroke="none" transform="matrix(1.83333,0,0,1.83333,14,15)">
            <path d="M0,-0.819 L2.72727,-0.819 L3.54627,0 L3.54627,2.72727 L2.72727,3.54627 L0,3.54627 L-0.819,2.72727 L-0.819,0 L0,-0.819 M0.819,0 L0.819,2.72727 L0,2.72727 L0,1.90827 L2.72727,1.90827 L2.72727,2.72727 L1.90827,2.72727 L1.90827,0 L2.72727,0 L2.72727,0.819 L0,0.819 L0,0 L0.819,0" fill-rule="nonzero" vector-effect="none"/>
        </g>
    </g>
</svg>
