<?xml version='1.0' encoding='UTF-8' standalone='no'?>
<svg version="1.2" xmlns:xlink="http://www.w3.org/1999/xlink" viewBox="0 0 33 33" xmlns="http://www.w3.org/2000/svg" width="5.82083mm" height="5.82083mm" baseProfile="tiny">
    <style id="current-color-scheme" type="text/css">.ColorScheme-Text {color:#fcfcfc;}</style>
    <title>Qt SVG Document</title>
    <desc>Auto-generated by Klassy window decoration</desc>
    <defs/>
    <g stroke-linejoin="bevel" stroke-linecap="square" fill="none" stroke-width="1" stroke="black" fill-rule="evenodd">
        <g font-weight="400" class="ColorScheme-Text" font-size="20" fill="currentColor" transform="matrix(1.83333,0,0,1.83333,0,0)" font-style="normal" stroke="none" font-family="Noto Sans" fill-opacity="1">
            <path vector-effect="none" fill-rule="nonzero" d="M4.36364,12.5449 L8.72727,12.5449 C9.02882,12.5449 9.27327,12.7894 9.27327,13.0909 C9.27327,13.3925 9.02882,13.6369 8.72727,13.6369 L4.36364,13.6369 C4.06209,13.6369 3.81764,13.3925 3.81764,13.0909 C3.81764,12.7894 4.06209,12.5449 4.36364,12.5449 "/>
            <path vector-effect="none" fill-rule="nonzero" d="M4.36364,8.18127 L8.72727,8.18127 C9.02882,8.18127 9.27327,8.42573 9.27327,8.72727 C9.27327,9.02882 9.02882,9.27327 8.72727,9.27327 L4.36364,9.27327 C4.06209,9.27327 3.81764,9.02882 3.81764,8.72727 C3.81764,8.42573 4.06209,8.18127 4.36364,8.18127 "/>
            <path vector-effect="none" fill-rule="nonzero" d="M4.36364,3.81764 L13.6364,3.81764 C13.9379,3.81764 14.1824,4.06209 14.1824,4.36364 C14.1824,4.66518 13.9379,4.90964 13.6364,4.90964 L4.36364,4.90964 C4.06209,4.90964 3.81764,4.66518 3.81764,4.36364 C3.81764,4.06209 4.06209,3.81764 4.36364,3.81764 "/>
            <path vector-effect="none" fill-rule="nonzero" d="M14.1824,6.54545 L14.1824,14.7273 C14.1824,15.0288 13.9379,15.2733 13.6364,15.2733 C13.3348,15.2733 13.0904,15.0288 13.0904,14.7273 L13.0904,6.54545 C13.0904,6.24391 13.3348,5.99945 13.6364,5.99945 C13.9379,5.99945 14.1824,6.24391 14.1824,6.54545 "/>
            <path vector-effect="none" fill-rule="nonzero" d="M11.5632,8.39967 L13.1996,6.21785 L13.6364,5.63545 L14.0732,6.21785 L15.7095,8.39967 C15.8905,8.64091 15.8416,8.98314 15.6003,9.16407 C15.3591,9.345 15.0169,9.29611 14.8359,9.05487 L13.1996,6.87305 L13.6364,6.54545 L14.0732,6.87305 L12.4368,9.05487 C12.2559,9.29611 11.9136,9.345 11.6724,9.16407 C11.4312,8.98314 11.3823,8.64091 11.5632,8.39967 "/>
        </g>
    </g>
</svg>
