<?xml version='1.0' encoding='UTF-8' standalone='no'?>
<svg width="4.7625mm" viewBox="0 0 45 45" baseProfile="tiny" xmlns="http://www.w3.org/2000/svg" xmlns:xlink="http://www.w3.org/1999/xlink" version="1.2" height="4.7625mm">
    <style id="current-color-scheme" type="text/css">.ColorScheme-Text {color:#fcfcfc;}</style>
    <title>Qt SVG Document</title>
    <desc>Auto-generated by Klassy window decoration</desc>
    <defs/>
    <g stroke-linecap="square" fill-rule="evenodd" stroke-linejoin="bevel" stroke-width="1" fill="none" stroke="black">
        <g class="ColorScheme-Text" font-weight="400" font-family="Noto Sans" font-size="33.3333" transform="matrix(2.5,0,0,2.5,0,0)" fill-opacity="1" fill="currentColor" font-style="normal" stroke="none">
            <path fill-rule="nonzero" vector-effect="none" d="M4,4 L14,4 C14.3314,4 14.6,4.26863 14.6,4.6 C14.6,4.93137 14.3314,5.2 14,5.2 L4,5.2 C3.66863,5.2 3.4,4.93137 3.4,4.6 C3.4,4.26863 3.66863,4 4,4 "/>
            <path fill-rule="nonzero" vector-effect="none" d="M3.57574,12.5757 L8.57574,7.57574 L9,7.15147 L9.42426,7.57574 L14.4243,12.5757 C14.6586,12.8101 14.6586,13.1899 14.4243,13.4243 C14.1899,13.6586 13.8101,13.6586 13.5757,13.4243 L8.57574,8.42426 L9,8 L9.42426,8.42426 L4.42426,13.4243 C4.18995,13.6586 3.81005,13.6586 3.57574,13.4243 C3.34142,13.1899 3.34142,12.8101 3.57574,12.5757 "/>
        </g>
    </g>
</svg>
