<?xml version='1.0' encoding='UTF-8' standalone='no'?>
<svg baseProfile="tiny" height="4.7625mm" version="1.2" viewBox="0 0 45 45" width="4.7625mm" xmlns="http://www.w3.org/2000/svg" xmlns:xlink="http://www.w3.org/1999/xlink">
    <style id="current-color-scheme" type="text/css">.ColorScheme-Text {color:#fcfcfc;}</style>
    <title>Qt SVG Document</title>
    <desc>Auto-generated by Klassy window decoration</desc>
    <defs/>
    <g fill="none" fill-rule="evenodd" stroke="black" stroke-linecap="square" stroke-linejoin="bevel" stroke-width="1">
        <g class="ColorScheme-Text" fill="currentColor" fill-opacity="1" font-family="Noto Sans" font-size="33.3333" font-style="normal" font-weight="400" stroke="none" transform="matrix(2.5,0,0,2.5,0,0)">
            <path d="M4.6,11.9994 L8.6,11.9994 C8.9317,11.9994 9.2006,12.2683 9.2006,12.6 C9.2006,12.9317 8.9317,13.2006 8.6,13.2006 L4.6,13.2006 C4.2683,13.2006 3.9994,12.9317 3.9994,12.6 C3.9994,12.2683 4.2683,11.9994 4.6,11.9994 " fill-rule="nonzero" vector-effect="none"/>
            <path d="M4.6,7.9994 L8.6,7.9994 C8.9317,7.9994 9.2006,8.2683 9.2006,8.6 C9.2006,8.9317 8.9317,9.2006 8.6,9.2006 L4.6,9.2006 C4.2683,9.2006 3.9994,8.9317 3.9994,8.6 C3.9994,8.2683 4.2683,7.9994 4.6,7.9994 " fill-rule="nonzero" vector-effect="none"/>
            <path d="M4.6,3.9994 L13.4,3.9994 C13.7317,3.9994 14.0006,4.2683 14.0006,4.6 C14.0006,4.9317 13.7317,5.2006 13.4,5.2006 L4.6,5.2006 C4.2683,5.2006 3.9994,4.9317 3.9994,4.6 C3.9994,4.2683 4.2683,3.9994 4.6,3.9994 " fill-rule="nonzero" vector-effect="none"/>
            <path d="M14.0006,6.6 L14.0006,14.6 C14.0006,14.9317 13.7317,15.2006 13.4,15.2006 C13.0683,15.2006 12.7994,14.9317 12.7994,14.6 L12.7994,6.6 C12.7994,6.2683 13.0683,5.9994 13.4,5.9994 C13.7317,5.9994 14.0006,6.2683 14.0006,6.6 " fill-rule="nonzero" vector-effect="none"/>
            <path d="M10.9753,8.17531 L12.9753,6.17531 L13.4,5.75062 L13.8247,6.17531 L15.8247,8.17531 C16.0592,8.40986 16.0592,8.79014 15.8247,9.02469 C15.5901,9.25924 15.2099,9.25924 14.9753,9.02469 L12.9753,7.02469 L13.4,6.6 L13.8247,7.02469 L11.8247,9.02469 C11.5901,9.25924 11.2099,9.25924 10.9753,9.02469 C10.7408,8.79014 10.7408,8.40986 10.9753,8.17531 " fill-rule="nonzero" vector-effect="none"/>
        </g>
    </g>
</svg>
