<?xml version='1.0' encoding='UTF-8' standalone='no'?>
<svg version="1.2" xmlns:xlink="http://www.w3.org/1999/xlink" viewBox="0 0 45 45" xmlns="http://www.w3.org/2000/svg" width="4.7625mm" height="4.7625mm" baseProfile="tiny">
    <style id="current-color-scheme" type="text/css">.ColorScheme-Text {color:#fcfcfc;}</style>
    <title>Qt SVG Document</title>
    <desc>Auto-generated by Klassy window decoration</desc>
    <defs/>
    <g stroke-linejoin="bevel" stroke-linecap="square" fill="none" stroke-width="1" stroke="black" fill-rule="evenodd">
        <g font-weight="400" class="ColorScheme-Text" font-size="33.3333" fill="currentColor" transform="matrix(2.5,0,0,2.5,0,0)" font-style="normal" stroke="none" font-family="Noto Sans" fill-opacity="1">
            <path vector-effect="none" fill-rule="nonzero" d="M4.6,13.9994 L13.4,13.9994 C13.7317,13.9994 14.0006,14.2683 14.0006,14.6 C14.0006,14.9317 13.7317,15.2006 13.4,15.2006 L4.6,15.2006 C4.2683,15.2006 3.9994,14.9317 3.9994,14.6 C3.9994,14.2683 4.2683,13.9994 4.6,13.9994 "/>
            <path vector-effect="none" fill-rule="nonzero" d="M9.4,9.9994 L13.4,9.9994 C13.7317,9.9994 14.0006,10.2683 14.0006,10.6 C14.0006,10.9317 13.7317,11.2006 13.4,11.2006 L9.4,11.2006 C9.0683,11.2006 8.7994,10.9317 8.7994,10.6 C8.7994,10.2683 9.0683,9.9994 9.4,9.9994 "/>
            <path vector-effect="none" fill-rule="nonzero" d="M9.4,5.9994 L13.4,5.9994 C13.7317,5.9994 14.0006,6.2683 14.0006,6.6 C14.0006,6.9317 13.7317,7.2006 13.4,7.2006 L9.4,7.2006 C9.0683,7.2006 8.7994,6.9317 8.7994,6.6 C8.7994,6.2683 9.0683,5.9994 9.4,5.9994 "/>
            <path vector-effect="none" fill-rule="nonzero" d="M5.2006,4.6 L5.2006,12.6 C5.2006,12.9317 4.9317,13.2006 4.6,13.2006 C4.2683,13.2006 3.9994,12.9317 3.9994,12.6 L3.9994,4.6 C3.9994,4.2683 4.2683,3.9994 4.6,3.9994 C4.9317,3.9994 5.2006,4.2683 5.2006,4.6 "/>
            <path vector-effect="none" fill-rule="nonzero" d="M3.02469,10.1753 L5.02469,12.1753 L4.6,12.6 L4.17531,12.1753 L6.17531,10.1753 C6.40986,9.94076 6.79014,9.94076 7.02469,10.1753 C7.25924,10.4099 7.25924,10.7901 7.02469,11.0247 L5.02469,13.0247 L4.6,13.4494 L4.17531,13.0247 L2.17531,11.0247 C1.94076,10.7901 1.94076,10.4099 2.17531,10.1753 C2.40986,9.94076 2.79014,9.94076 3.02469,10.1753 "/>
        </g>
    </g>
</svg>
