<?xml version='1.0' encoding='UTF-8' standalone='no'?>
<svg width="4.7625mm" viewBox="0 0 45 45" baseProfile="tiny" xmlns="http://www.w3.org/2000/svg" xmlns:xlink="http://www.w3.org/1999/xlink" version="1.2" height="4.7625mm">
    <style id="current-color-scheme" type="text/css">.ColorScheme-Text {color:#fcfcfc;}</style>
    <title>Qt SVG Document</title>
    <desc>Auto-generated by Klassy window decoration</desc>
    <defs/>
    <g stroke-linecap="square" fill-rule="evenodd" stroke-linejoin="bevel" stroke-width="1" fill="none" stroke="black">
        <g class="ColorScheme-Text" font-weight="400" font-family="Noto Sans" font-size="33.3333" transform="matrix(2.5,0,0,2.5,0,0)" fill-opacity="1" fill="currentColor" font-style="normal" stroke="none">
            <path fill-rule="nonzero" vector-effect="none" d="M3.6,4.4012 C3.6,4.06917 4.06917,3.6 4.4012,3.6 L13.9988,3.6 C14.3308,3.6 14.8,4.06917 14.8,4.4012 L14.8,13.9988 C14.8,14.3308 14.3308,14.8 13.9988,14.8 L4.4012,14.8 C4.06917,14.8 3.6,14.3308 3.6,13.9988 L3.6,4.4012 M5.2,4.4012 L5.2,13.9988 C5.2,13.6681 4.73191,13.2 4.4012,13.2 L13.9988,13.2 C13.6681,13.2 13.2,13.6681 13.2,13.9988 L13.2,4.4012 C13.2,4.73191 13.6681,5.2 13.9988,5.2 L4.4012,5.2 C4.73191,5.2 5.2,4.73191 5.2,4.4012 "/>
        </g>
    </g>
</svg>
