<?xml version='1.0' encoding='UTF-8' standalone='no'?>
<svg baseProfile="tiny" height="4.7625mm" version="1.2" viewBox="0 0 45 45" width="4.7625mm" xmlns="http://www.w3.org/2000/svg" xmlns:xlink="http://www.w3.org/1999/xlink">
    <style id="current-color-scheme" type="text/css">.ColorScheme-Text {color:#fcfcfc;}</style>
    <title>Qt SVG Document</title>
    <desc>Auto-generated by Klassy window decoration</desc>
    <defs/>
    <g fill="none" fill-rule="evenodd" stroke="black" stroke-linecap="square" stroke-linejoin="bevel" stroke-width="1">
        <g class="ColorScheme-Text" fill="currentColor" fill-opacity="0.450004" font-family="Noto Sans" font-size="33.3333" font-style="normal" font-weight="400" stroke="none" transform="matrix(2.5,0,0,2.5,19,19)">
            <rect height="3.2" width="3.2" x="0" y="0"/>
        </g>
        <g class="ColorScheme-Text" fill="currentColor" fill-opacity="0.902495" font-family="Noto Sans" font-size="33.3333" font-style="normal" font-weight="400" stroke="none" transform="matrix(2.5,0,0,2.5,19,19)">
            <path d="M0,-0.8008 L3.2,-0.8008 L4.0008,0 L4.0008,3.2 L3.2,4.0008 L0,4.0008 L-0.8008,3.2 L-0.8008,0 L0,-0.8008 M0.8008,0 L0.8008,3.2 L0,3.2 L0,2.3992 L3.2,2.3992 L3.2,3.2 L2.3992,3.2 L2.3992,0 L3.2,0 L3.2,0.8008 L0,0.8008 L0,0 L0.8008,0" fill-rule="nonzero" vector-effect="none"/>
        </g>
    </g>
</svg>
