<?xml version='1.0' encoding='UTF-8' standalone='no'?>
<svg version="1.2" xmlns:xlink="http://www.w3.org/1999/xlink" viewBox="0 0 45 45" xmlns="http://www.w3.org/2000/svg" width="4.7625mm" height="4.7625mm" baseProfile="tiny">
    <style id="current-color-scheme" type="text/css">.ColorScheme-Text {color:#fcfcfc;}</style>
    <title>Qt SVG Document</title>
    <desc>Auto-generated by Klassy window decoration</desc>
    <defs/>
    <g stroke-linejoin="bevel" stroke-linecap="square" fill="none" stroke-width="1" stroke="black" fill-rule="evenodd">
        <g font-weight="400" class="ColorScheme-Text" font-size="33.3333" fill="currentColor" transform="matrix(2.5,0,0,2.5,0,0)" font-style="normal" stroke="none" font-family="Noto Sans" fill-opacity="1">
            <path vector-effect="none" fill-rule="nonzero" d="M4.96625,3.83375 L14.5663,13.4337 C14.879,13.7465 14.879,14.2535 14.5663,14.5663 C14.2535,14.879 13.7465,14.879 13.4337,14.5663 L3.83375,4.96625 C3.52102,4.65352 3.52102,4.14648 3.83375,3.83375 C4.14648,3.52102 4.65352,3.52102 4.96625,3.83375 "/>
            <path vector-effect="none" fill-rule="nonzero" d="M14.5663,4.96625 L4.96625,14.5663 C4.65352,14.879 4.14648,14.879 3.83375,14.5663 C3.52102,14.2535 3.52102,13.7465 3.83375,13.4337 L13.4337,3.83375 C13.7465,3.52102 14.2535,3.52102 14.5663,3.83375 C14.879,4.14648 14.879,4.65352 14.5663,4.96625 "/>
        </g>
    </g>
</svg>
