<?xml version='1.0' encoding='UTF-8' standalone='no'?>
<svg width="4.7625mm" viewBox="0 0 36 36" baseProfile="tiny" xmlns="http://www.w3.org/2000/svg" xmlns:xlink="http://www.w3.org/1999/xlink" version="1.2" height="4.7625mm">
    <style id="current-color-scheme" type="text/css">.ColorScheme-Text {color:#fcfcfc;}</style>
    <title>Qt SVG Document</title>
    <desc>Auto-generated by Klassy window decoration</desc>
    <defs/>
    <g stroke-linecap="square" fill-rule="evenodd" stroke-linejoin="bevel" stroke-width="1" fill="none" stroke="black">
        <g class="ColorScheme-Text" font-weight="400" font-family="Noto Sans" font-size="26.6667" transform="matrix(2,0,0,2,0,0)" fill-opacity="1" fill="currentColor" font-style="normal" stroke="none">
            <path fill-rule="nonzero" vector-effect="none" d="M3.5,4.25119 C3.5,3.93987 3.93987,3.5 4.25119,3.5 L13.7488,3.5 C14.0601,3.5 14.5,3.93987 14.5,4.25119 L14.5,13.7488 C14.5,14.0601 14.0601,14.5 13.7488,14.5 L4.25119,14.5 C3.93987,14.5 3.5,14.0601 3.5,13.7488 L3.5,4.25119 M5,4.25119 L5,13.7488 C5,13.4388 4.56119,13 4.25119,13 L13.7488,13 C13.4388,13 13,13.4388 13,13.7488 L13,4.25119 C13,4.56119 13.4388,5 13.7488,5 L4.25119,5 C4.56119,5 5,4.56119 5,4.25119 "/>
        </g>
    </g>
</svg>
